<svg width="138" height="30" viewBox="0 0 138 30" fill="none" xmlns="http://www.w3.org/2000/svg">
<g clip-path="url(#clip0_1437_3064)">
<path d="M24 0H6C2.68629 0 0 2.68629 0 6V24C0 27.3137 2.68629 30 6 30H24C27.3137 30 30 27.3137 30 24V6C30 2.68629 27.3137 0 24 0Z" fill="white"/>
<path d="M14.1161 23.4727C13.628 22.9846 13.628 22.1931 14.1161 21.705L22.955 12.8661C23.4431 12.378 24.2346 12.378 24.7227 12.8661C25.2109 13.3543 25.2109 14.1457 24.7227 14.6339L15.8839 23.4727C15.3958 23.9609 14.6043 23.9609 14.1161 23.4727Z" fill="#141414"/>
<path d="M11.1161 20.4727C10.628 19.9846 10.628 19.1931 11.1161 18.705L19.955 9.86612C20.4431 9.37796 21.2346 9.37796 21.7227 9.86612C22.2109 10.3543 22.2109 11.1457 21.7227 11.6339L12.8839 20.4727C12.3957 20.9609 11.6043 20.9609 11.1161 20.4727Z" fill="#141414"/>
<path d="M8.11612 17.4727C7.62796 16.9846 7.62796 16.1931 8.11612 15.705L16.955 6.86612C17.4431 6.37796 18.2346 6.37796 18.7227 6.86612C19.2109 7.35427 19.2109 8.14573 18.7227 8.63388L9.88389 17.4727C9.39573 17.9609 8.60427 17.9609 8.11612 17.4727Z" fill="#141414"/>
<path d="M15.8829 23.4727C16.371 22.9846 16.371 22.1931 15.8829 21.705L7.04404 12.8661C6.55588 12.378 5.76443 12.378 5.27627 12.8661C4.78812 13.3543 4.78812 14.1457 5.27627 14.6339L14.1151 23.4727C14.6033 23.9609 15.3947 23.9609 15.8829 23.4727Z" fill="#141414"/>
<path d="M18.8829 20.4727C19.371 19.9846 19.371 19.1931 18.8829 18.705L10.044 9.86612C9.55588 9.37796 8.76443 9.37796 8.27627 9.86612C7.78812 10.3543 7.78812 11.1457 8.27627 11.6339L17.1151 20.4727C17.6033 20.9609 18.3947 20.9609 18.8829 20.4727Z" fill="#141414"/>
<path d="M21.8829 17.4727C22.371 16.9846 22.371 16.1931 21.8829 15.705L13.044 6.86612C12.5559 6.37796 11.7644 6.37796 11.2763 6.86612C10.7881 7.35427 10.7881 8.14573 11.2763 8.63388L20.1151 17.4727C20.6033 17.9609 21.3947 17.9609 21.8829 17.4727Z" fill="#141414"/>
<path d="M44.8037 11.4475C45.1642 10.86 45.6315 10.3994 46.2056 10.0656C46.7931 9.73183 47.4606 9.56494 48.2083 9.56494V12.5089H47.4673C46.5861 12.5089 45.9186 12.7158 45.4646 13.1297C45.024 13.5436 44.8037 14.2646 44.8037 15.2926V20.82H42V9.72516H44.8037V11.4475Z" fill="white"/>
<path d="M60.2803 15.0322C60.2803 15.4328 60.2536 15.7933 60.2002 16.1137H52.0894C52.1561 16.9148 52.4365 17.5423 52.9305 17.9962C53.4245 18.4501 54.032 18.6771 54.7529 18.6771C55.7943 18.6771 56.5353 18.2298 56.9759 17.3353H59.9999C59.6795 18.4034 59.0654 19.2846 58.1575 19.9788C57.2496 20.6597 56.1348 21.0002 54.813 21.0002C53.7449 21.0002 52.7836 20.7666 51.9292 20.2993C51.0881 19.8186 50.4272 19.1444 49.9465 18.2766C49.4792 17.4087 49.2456 16.4074 49.2456 15.2726C49.2456 14.1244 49.4792 13.1164 49.9465 12.2485C50.4138 11.3807 51.068 10.7132 51.9091 10.2459C52.7503 9.77856 53.7182 9.54492 54.813 9.54492C55.8678 9.54492 56.809 9.77188 57.6368 10.2258C58.4779 10.6798 59.1254 11.3273 59.5794 12.1684C60.0467 12.9962 60.2803 13.9508 60.2803 15.0322ZM57.3764 14.2312C57.3631 13.5102 57.1027 12.9361 56.5954 12.5089C56.0881 12.0683 55.4672 11.848 54.7329 11.848C54.0387 11.848 53.4512 12.0616 52.9706 12.4889C52.5033 12.9027 52.2162 13.4835 52.1094 14.2312H57.3764Z" fill="white"/>
<path d="M66.8229 18.2364L69.6266 9.7251H72.6106L68.5051 20.8199H65.1006L61.0151 9.7251H64.0191L66.8229 18.2364Z" fill="white"/>
<path d="M84.3687 15.0322C84.3687 15.4328 84.342 15.7933 84.2886 16.1137H76.1778C76.2446 16.9148 76.5249 17.5423 77.0189 17.9962C77.5129 18.4501 78.1204 18.6771 78.8414 18.6771C79.8828 18.6771 80.6237 18.2298 81.0643 17.3353H84.0884C83.7679 18.4034 83.1538 19.2846 82.2459 19.9788C81.338 20.6597 80.2232 21.0002 78.9014 21.0002C77.8334 21.0002 76.8721 20.7666 76.0176 20.2993C75.1765 19.8186 74.5156 19.1444 74.035 18.2766C73.5677 17.4087 73.334 16.4074 73.334 15.2726C73.334 14.1244 73.5677 13.1164 74.035 12.2485C74.5022 11.3807 75.1564 10.7132 75.9976 10.2459C76.8387 9.77856 77.8067 9.54492 78.9014 9.54492C79.9562 9.54492 80.8974 9.77188 81.7252 10.2258C82.5663 10.6798 83.2139 11.3273 83.6678 12.1684C84.1351 12.9962 84.3687 13.9508 84.3687 15.0322ZM81.4649 14.2312C81.4515 13.5102 81.1912 12.9361 80.6838 12.5089C80.1765 12.0683 79.5556 11.848 78.8213 11.848C78.1271 11.848 77.5396 12.0616 77.059 12.4889C76.5917 12.9027 76.3046 13.4835 76.1978 14.2312H81.4649Z" fill="white"/>
<path d="M85.564 15.2325C85.564 14.111 85.7843 13.1164 86.2249 12.2485C86.6788 11.3807 87.2863 10.7132 88.0473 10.2459C88.8216 9.77856 89.6828 9.54492 90.6307 9.54492C91.4585 9.54492 92.1795 9.7118 92.7936 10.0456C93.4211 10.3794 93.9218 10.7999 94.2956 11.3073V9.72516H97.1194V20.82H94.2956V19.1978C93.9351 19.7185 93.4345 20.1524 92.7936 20.4995C92.1661 20.8333 91.4385 21.0002 90.6107 21.0002C89.6761 21.0002 88.8216 20.7599 88.0473 20.2792C87.2863 19.7986 86.6788 19.1244 86.2249 18.2565C85.7843 17.3754 85.564 16.3674 85.564 15.2325ZM94.2956 15.2726C94.2956 14.5917 94.1621 14.0109 93.8951 13.5302C93.6281 13.0362 93.2676 12.6624 92.8136 12.4087C92.3597 12.1417 91.8724 12.0082 91.3517 12.0082C90.831 12.0082 90.3504 12.135 89.9098 12.3887C89.4692 12.6424 89.1087 13.0162 88.8283 13.5102C88.5613 13.9909 88.4278 14.565 88.4278 15.2325C88.4278 15.9001 88.5613 16.4875 88.8283 16.9949C89.1087 17.4889 89.4692 17.8694 89.9098 18.1364C90.3637 18.4034 90.8443 18.5369 91.3517 18.5369C91.8724 18.5369 92.3597 18.4101 92.8136 18.1564C93.2676 17.8894 93.6281 17.5156 93.8951 17.0349C94.1621 16.5409 94.2956 15.9535 94.2956 15.2726Z" fill="white"/>
<path d="M102.531 6V20.8198H99.7275V6H102.531Z" fill="white"/>
<path d="M107.975 11.3471C108.336 10.8131 108.83 10.3792 109.457 10.0454C110.098 9.71161 110.826 9.54473 111.64 9.54473C112.588 9.54473 113.442 9.77837 114.203 10.2457C114.978 10.713 115.585 11.3805 116.026 12.2483C116.48 13.1028 116.707 14.0975 116.707 15.2323C116.707 16.3672 116.48 17.3752 116.026 18.2563C115.585 19.1242 114.978 19.7984 114.203 20.279C113.442 20.7597 112.588 21 111.64 21C110.812 21 110.085 20.8398 109.457 20.5194C108.843 20.1856 108.349 19.7583 107.975 19.2376V20.8198H105.171V6H107.975V11.3471ZM113.843 15.2323C113.843 14.5648 113.703 13.9907 113.422 13.51C113.155 13.016 112.795 12.6422 112.341 12.3885C111.9 12.1348 111.42 12.008 110.899 12.008C110.392 12.008 109.911 12.1415 109.457 12.4085C109.017 12.6622 108.656 13.036 108.376 13.53C108.109 14.024 107.975 14.6048 107.975 15.2724C107.975 15.9399 108.109 16.5207 108.376 17.0147C108.656 17.5087 109.017 17.8892 109.457 18.1562C109.911 18.4099 110.392 18.5367 110.899 18.5367C111.42 18.5367 111.9 18.4032 112.341 18.1362C112.795 17.8692 113.155 17.4887 113.422 16.9947C113.703 16.5007 113.843 15.9132 113.843 15.2323Z" fill="white"/>
<path d="M123.541 21.0002C122.472 21.0002 121.511 20.7666 120.657 20.2993C119.802 19.8186 119.128 19.1444 118.634 18.2766C118.153 17.4087 117.913 16.4074 117.913 15.2726C117.913 14.1377 118.16 13.1364 118.654 12.2686C119.161 11.4007 119.849 10.7332 120.717 10.2659C121.585 9.78524 122.553 9.54492 123.621 9.54492C124.689 9.54492 125.657 9.78524 126.525 10.2659C127.392 10.7332 128.073 11.4007 128.567 12.2686C129.075 13.1364 129.328 14.1377 129.328 15.2726C129.328 16.4074 129.068 17.4087 128.547 18.2766C128.04 19.1444 127.346 19.8186 126.464 20.2993C125.597 20.7666 124.622 21.0002 123.541 21.0002ZM123.541 18.5569C124.048 18.5569 124.522 18.4368 124.962 18.1965C125.416 17.9428 125.777 17.569 126.044 17.075C126.311 16.581 126.444 15.9802 126.444 15.2726C126.444 14.2178 126.164 13.4101 125.603 12.8493C125.056 12.2752 124.382 11.9882 123.581 11.9882C122.78 11.9882 122.105 12.2752 121.558 12.8493C121.024 13.4101 120.757 14.2178 120.757 15.2726C120.757 16.3273 121.017 17.1417 121.538 17.7158C122.072 18.2766 122.74 18.5569 123.541 18.5569Z" fill="white"/>
<path d="M134.519 12.0281V17.3953C134.519 17.7691 134.606 18.0428 134.779 18.2164C134.966 18.3766 135.273 18.4567 135.701 18.4567H137.002V20.8199H135.24C132.877 20.8199 131.695 19.6717 131.695 17.3753V12.0281H130.374V9.72511H131.695V6.98145H134.519V9.72511H137.002V12.0281H134.519Z" fill="white"/>
</g>
<defs>
<clipPath id="clip0_1437_3064">
<rect width="138" height="30" fill="white"/>
</clipPath>
</defs>
</svg>
