<svg width="137" height="18" viewBox="0 0 137 18" fill="none" xmlns="http://www.w3.org/2000/svg">
<path d="M94.0194 7.03902C94.0194 4.82869 92.6482 3.21912 90.0201 3.21912H81.53V14.6788H84.3181V10.7682H87.6205L90.8542 14.6788H93.9966V14.4294L90.8542 10.7002C92.8311 10.3035 94.0194 8.87529 94.0194 7.03902ZM89.7116 8.45589H84.3296V5.59947H89.7116C90.7057 5.59947 91.3456 6.12088 91.3456 7.02768C91.3456 7.95715 90.7285 8.45589 89.7116 8.45589Z" fill="white"/>
<path d="M136.173 3.21912H133.556V7.57176H126.529V3.21912H123.706V14.6902H126.529V10.1675H133.556V14.6902H136.173V3.21912Z" fill="white"/>
<path d="M74.0683 3.21912L70.9602 12.8652H70.7888L67.6693 3.21912H62.6986V14.6902H65.3611V5.27075H65.5211L68.6291 14.6902H72.9142L76.0337 5.27075H76.1937V14.6902H78.9361V3.21912H74.0683Z" fill="white"/>
<path d="M43.6959 7.91181C42.7132 7.80979 40.8735 7.63977 39.8908 7.53775C38.9196 7.43574 38.3596 7.15236 38.3596 6.5176C38.3596 5.90551 38.9538 5.39544 41.3535 5.39544C43.4788 5.39544 45.4328 5.84884 47.1354 6.66496V4.10325C45.4328 3.29846 43.5474 2.90173 41.2049 2.90173C37.914 2.90173 35.6401 4.26194 35.6401 6.57428C35.6401 8.5239 36.977 9.58939 39.6509 9.8841C40.6221 9.98612 42.2676 10.1335 43.4217 10.2242C44.6786 10.3262 45.0443 10.7116 45.0443 11.2783C45.0443 12.0604 44.1644 12.5365 41.9362 12.5365C39.6737 12.5365 37.3769 11.7997 35.7429 10.7682V13.4093C37.057 14.2821 39.3195 15.0189 41.8448 15.0189C45.4328 15.0189 47.741 13.6473 47.741 11.1876C47.7639 9.32869 46.5298 8.20652 43.6959 7.91181Z" fill="white"/>
<path d="M49.5922 3.21912V14.6902H60.3676V12.3438H52.2546V10.0201H60.2305V7.69645H52.2546V5.56546H60.3676V3.21912H49.5922Z" fill="white"/>
<path d="M117.936 7.91181C116.953 7.80979 115.113 7.63977 114.131 7.53775C113.159 7.43574 112.599 7.15236 112.599 6.5176C112.599 5.90551 113.194 5.39544 115.593 5.39544C117.719 5.39544 119.672 5.84884 121.375 6.66496V4.10325C119.672 3.29846 117.787 2.90173 115.445 2.90173C112.154 2.90173 109.88 4.26194 109.88 6.57428C109.88 8.5239 111.217 9.58939 113.891 9.8841C114.862 9.98612 116.507 10.1335 117.661 10.2242C118.918 10.3262 119.284 10.7116 119.284 11.2783C119.284 12.0604 118.404 12.5365 116.176 12.5365C113.913 12.5365 111.617 11.7997 109.983 10.7682V13.4093C111.297 14.2821 113.559 15.0189 116.084 15.0189C119.673 15.0189 121.981 13.6473 121.981 11.1876C122.004 9.32869 120.769 8.20652 117.936 7.91181Z" fill="white"/>
<path d="M105.195 3.21912V9.09065C105.195 11.3123 103.835 12.5365 101.79 12.5365C99.7328 12.5365 98.3844 11.335 98.3844 9.05665V3.21912H95.6077V8.79594C95.6077 12.9559 98.2245 15.0189 101.835 15.0189C105.298 15.0189 107.983 13.0466 107.983 8.93196V3.21912H105.195V3.21912Z" fill="white"/>
<path d="M26.0873 8.88665C26.0873 9.44207 25.8016 9.53275 25.0932 9.53275C24.339 9.53275 24.2019 9.40806 24.1219 8.84131C23.9733 7.40176 22.9906 6.17758 21.3452 6.04156C20.8196 5.99622 20.6939 5.80353 20.6939 5.15743C20.6939 4.55668 20.7853 4.2733 21.2538 4.2733C24.1105 4.28464 26.0873 6.56297 26.0873 8.88665ZM30.2466 8.88665C30.2466 4.56801 27.2985 0 20.4882 0H6.9589C6.68466 0 6.51325 0.13602 6.51325 0.385391C6.51325 0.521411 6.61609 0.646096 6.70751 0.714106C7.19886 1.0995 7.93017 1.53023 8.89002 2.0063C9.82701 2.47103 10.5583 2.77708 11.2896 3.07179C11.5982 3.19647 11.7124 3.33249 11.7124 3.50252C11.7124 3.74055 11.541 3.88791 11.2097 3.88791H0.468497C0.148548 3.88791 0 4.09194 0 4.29597C0 4.466 0.0571333 4.61335 0.205681 4.76071C1.07412 5.66751 2.46818 6.75567 4.49072 8.01386C6.26186 9.11335 8.4558 10.3035 10.2041 11.131C10.5012 11.267 10.5926 11.4257 10.5926 11.5957C10.5812 11.7884 10.4326 11.9471 10.0898 11.9471H5.1649C4.89065 11.9471 4.73068 12.0945 4.73068 12.3212C4.73068 12.4458 4.83352 12.6045 4.97064 12.7292C6.09046 13.738 7.88447 14.8375 10.2727 15.8463C13.4607 17.1952 16.6945 18 20.3282 18C27.2185 18 30.2466 12.8879 30.2466 8.88665ZM21.2538 15.0189C17.8715 15.0189 15.049 12.2872 15.049 8.88665C15.049 5.53149 17.8715 2.84509 21.2538 2.84509C24.7275 2.84509 27.4357 5.53149 27.4357 8.88665C27.4242 12.2872 24.7161 15.0189 21.2538 15.0189Z" fill="#FF642D"/>
</svg>
