<svg width="360" height="347" viewBox="0 0 360 347" fill="none" xmlns="http://www.w3.org/2000/svg">
<g clip-path="url(#clip0_2048_27495)">
<g filter="url(#filter0_d_2048_27495)">
<path d="M0 18.432C0 11.9802 0 8.75429 1.2556 6.29003C2.36007 4.1224 4.1224 2.36007 6.29003 1.2556C8.75429 0 11.9802 0 18.432 0H341.568C348.02 0 351.246 0 353.71 1.2556C355.878 2.36007 357.64 4.1224 358.744 6.29003C360 8.75429 360 11.9802 360 18.432V470H0V18.432Z" fill="white"/>
<path d="M0 18.432C0 11.9802 0 8.75429 1.2556 6.29003C2.36007 4.1224 4.1224 2.36007 6.29003 1.2556C8.75429 0 11.9802 0 18.432 0H341.568C348.02 0 351.246 0 353.71 1.2556C355.878 2.36007 357.64 4.1224 358.744 6.29003C360 8.75429 360 11.9802 360 18.432V23.04H0V18.432Z" fill="white"/>
<rect x="164.641" y="9.59961" width="30.72" height="3.84" rx="1.92" fill="#001024" fill-opacity="0.22"/>
<rect width="360" height="324.4" transform="translate(0 23.04)" fill="white"/>
<rect opacity="0.4" x="18" y="38.4004" width="5" height="60" rx="2.5" fill="#00C950"/>
<path d="M39.4526 62.4805V50.5024H47.3882V52.5693H41.9595V55.458H47.0811V57.3838H41.9595V60.4136H47.3882V62.4805H39.4526ZM49.3935 62.4805V53.3413H51.8173V54.7524H51.9668C52.3818 53.7646 53.2866 53.1421 54.5898 53.1421C56.6235 53.1421 57.7192 54.3872 57.7192 56.5703V62.4805H55.2954V57.1182C55.2954 55.8315 54.7641 55.1509 53.6186 55.1509C52.498 55.1509 51.8173 55.9561 51.8173 57.1929V62.4805H49.3935ZM63.7338 62.6714C60.9198 62.6714 59.2265 60.8867 59.2265 57.915V57.8984C59.2265 54.9517 60.9447 53.1421 63.7338 53.1421C66.5229 53.1421 68.2411 54.9434 68.2411 57.8984V57.915C68.2411 60.895 66.5478 62.6714 63.7338 62.6714ZM63.7338 60.7705C65.0204 60.7705 65.7592 59.7163 65.7592 57.915V57.8984C65.7592 56.1138 65.0121 55.043 63.7338 55.043C62.4472 55.043 61.7084 56.1138 61.7084 57.8984V57.915C61.7084 59.7163 62.4389 60.7705 63.7338 60.7705ZM72.8446 62.6714C70.7943 62.6714 69.7401 61.4263 69.7401 59.2515V53.3413H72.1639V58.6953C72.1639 59.9902 72.6537 60.6626 73.7992 60.6626C74.9945 60.6626 75.642 59.8574 75.642 58.6206V53.3413H78.0658V62.4805H75.642V61.0693H75.4925C75.0775 62.0654 74.1478 62.6714 72.8446 62.6714ZM84.1385 65.6929C81.6068 65.6929 80.1375 64.6304 79.9383 63.0781V63.0366H82.3372L82.3455 63.0698C82.4783 63.6011 83.1092 63.9663 84.1883 63.9663C85.4832 63.9663 86.2386 63.3604 86.2386 62.2979V60.5962H86.0892C85.5828 61.5591 84.6199 62.082 83.3499 62.082C81.0506 62.082 79.6312 60.3057 79.6312 57.7075V57.6909C79.6312 55.0015 81.0506 53.1919 83.3914 53.1919C84.6448 53.1919 85.6243 53.8062 86.1141 54.8354H86.2303V53.3413H88.6541V62.1982C88.6541 64.3398 86.9026 65.6929 84.1385 65.6929ZM84.1717 60.2227C85.4832 60.2227 86.2635 59.2017 86.2635 57.6992V57.6826C86.2635 56.1802 85.4749 55.1592 84.1717 55.1592C82.8685 55.1592 82.1131 56.1802 82.1131 57.6826V57.6992C82.1131 59.2017 82.8602 60.2227 84.1717 60.2227ZM90.7674 62.4805V49.8467H93.1912V54.7524H93.3406C93.7556 53.7646 94.6604 53.1421 95.9636 53.1421C97.9973 53.1421 99.093 54.3872 99.093 56.5703V62.4805H96.6692V57.1182C96.6692 55.8315 96.138 55.1509 94.9925 55.1509C93.8718 55.1509 93.1912 55.9561 93.1912 57.1929V62.4805H90.7674ZM105.743 62.4805V55.1675H104.266V53.3413H105.743V52.4863C105.743 50.6685 106.673 49.7554 108.881 49.7554C109.371 49.7554 109.778 49.7886 110.126 49.8467V51.4653C109.977 51.4404 109.719 51.4155 109.404 51.4155C108.466 51.4155 108.117 51.8555 108.117 52.6523V53.3413H110.051V55.1675H108.167V62.4805H105.743ZM115.327 62.6714C112.513 62.6714 110.82 60.8867 110.82 57.915V57.8984C110.82 54.9517 112.538 53.1421 115.327 53.1421C118.116 53.1421 119.835 54.9434 119.835 57.8984V57.915C119.835 60.895 118.141 62.6714 115.327 62.6714ZM115.327 60.7705C116.614 60.7705 117.353 59.7163 117.353 57.915V57.8984C117.353 56.1138 116.606 55.043 115.327 55.043C114.041 55.043 113.302 56.1138 113.302 57.8984V57.915C113.302 59.7163 114.032 60.7705 115.327 60.7705ZM121.417 62.4805V53.3413H123.84V54.7607H123.99C124.28 53.7729 125.11 53.1919 126.297 53.1919C126.621 53.1919 126.962 53.2417 127.202 53.3081V55.4248C126.837 55.3418 126.463 55.2837 126.09 55.2837C124.712 55.2837 123.84 56.0723 123.84 57.3672V62.4805H121.417ZM137.189 62.7876C134.409 62.7876 132.242 60.8203 132.242 56.6035V56.5869C132.242 52.5776 134.135 50.1953 137.198 50.1953C139.514 50.1953 141.24 51.5649 141.605 53.4409L141.622 53.5239H139.173L139.14 53.4492C138.858 52.7021 138.177 52.1958 137.206 52.1958C135.471 52.1958 134.716 53.8975 134.625 56.0723C134.616 56.1636 134.616 56.2549 134.616 56.3462H134.782C135.214 55.4165 136.218 54.5947 137.87 54.5947C140.203 54.5947 141.78 56.2549 141.78 58.521V58.5376C141.78 60.9863 139.887 62.7876 137.189 62.7876ZM134.99 58.5708C134.99 59.8325 135.953 60.8037 137.173 60.8037C138.385 60.8037 139.356 59.8491 139.356 58.6206V58.604C139.356 57.3506 138.443 56.4375 137.189 56.4375C135.953 56.4375 134.99 57.3257 134.99 58.5625V58.5708ZM147.633 62.4805V53.3413H150.057V54.769H150.206C150.597 53.7397 151.543 53.1421 152.738 53.1421C153.983 53.1421 154.905 53.7729 155.278 54.8271H155.428C155.843 53.8145 156.905 53.1421 158.183 53.1421C160.001 53.1421 161.139 54.3208 161.139 56.2051V62.4805H158.715V56.811C158.715 55.707 158.217 55.1509 157.204 55.1509C156.225 55.1509 155.594 55.873 155.594 56.8608V62.4805H153.17V56.7031C153.17 55.7236 152.614 55.1509 151.667 55.1509C150.721 55.1509 150.057 55.9229 150.057 56.9688V62.4805H147.633ZM167.153 62.6714C164.339 62.6714 162.646 60.8867 162.646 57.915V57.8984C162.646 54.9517 164.364 53.1421 167.153 53.1421C169.942 53.1421 171.66 54.9434 171.66 57.8984V57.915C171.66 60.895 169.967 62.6714 167.153 62.6714ZM167.153 60.7705C168.44 60.7705 169.179 59.7163 169.179 57.915V57.8984C169.179 56.1138 168.431 55.043 167.153 55.043C165.867 55.043 165.128 56.1138 165.128 57.8984V57.915C165.128 59.7163 165.858 60.7705 167.153 60.7705ZM173.242 62.4805V53.3413H175.666V54.7524H175.816C176.231 53.7646 177.136 53.1421 178.439 53.1421C180.472 53.1421 181.568 54.3872 181.568 56.5703V62.4805H179.144V57.1182C179.144 55.8315 178.613 55.1509 177.468 55.1509C176.347 55.1509 175.666 55.9561 175.666 57.1929V62.4805H173.242ZM187.317 62.5137C185.093 62.5137 184.196 61.7915 184.196 60.0151V55.1675H182.785V53.3413H184.196V51.1582H186.645V53.3413H188.529V55.1675H186.645V59.459C186.645 60.2808 186.993 60.646 187.815 60.646C188.131 60.646 188.297 60.6294 188.529 60.6045V62.4058C188.23 62.4639 187.782 62.5137 187.317 62.5137ZM190.236 62.4805V49.8467H192.659V54.7524H192.809C193.224 53.7646 194.129 53.1421 195.432 53.1421C197.466 53.1421 198.561 54.3872 198.561 56.5703V62.4805H196.137V57.1182C196.137 55.8315 195.606 55.1509 194.461 55.1509C193.34 55.1509 192.659 55.9561 192.659 57.1929V62.4805H190.236ZM204.153 62.6714C201.671 62.6714 200.259 61.5591 200.085 59.9902L200.077 59.957H202.459L202.476 59.9902C202.667 60.5547 203.223 60.9614 204.177 60.9614C205.107 60.9614 205.738 60.563 205.738 59.957V59.9404C205.738 59.4507 205.373 59.1436 204.443 58.936L202.916 58.6123C201.173 58.2388 200.309 57.3838 200.309 56.0142V56.0059C200.309 54.2876 201.837 53.1421 204.119 53.1421C206.518 53.1421 207.846 54.3374 207.946 55.8066V55.8398H205.696L205.688 55.7983C205.555 55.3086 205.016 54.8521 204.111 54.8521C203.273 54.8521 202.675 55.2422 202.675 55.8564V55.8647C202.675 56.3545 203.015 56.6367 203.962 56.8442L205.481 57.168C207.307 57.5581 208.162 58.3218 208.162 59.6748V59.6831C208.162 61.4927 206.493 62.6714 204.153 62.6714ZM216.232 62.6216C214.488 62.6216 213.252 61.5425 213.252 59.8823V59.8657C213.252 58.2222 214.522 57.2593 216.796 57.1265L219.004 56.9937V56.2383C219.004 55.4497 218.464 55.0015 217.468 55.0015C216.597 55.0015 216.041 55.3086 215.85 55.8481L215.833 55.8813H213.592L213.6 55.8066C213.791 54.2046 215.302 53.1421 217.601 53.1421C220.025 53.1421 221.395 54.2876 221.395 56.2383V62.4805H219.004V61.2686H218.855C218.39 62.1152 217.427 62.6216 216.232 62.6216ZM215.617 59.7329C215.617 60.4302 216.207 60.8535 217.045 60.8535C218.166 60.8535 219.004 60.1147 219.004 59.1519V58.4795L217.161 58.5957C216.124 58.6621 215.617 59.0522 215.617 59.7163V59.7329ZM223.375 62.4805V53.3413H225.799V54.7524H225.948C226.363 53.7646 227.268 53.1421 228.571 53.1421C230.605 53.1421 231.701 54.3872 231.701 56.5703V62.4805H229.277V57.1182C229.277 55.8315 228.746 55.1509 227.6 55.1509C226.48 55.1509 225.799 55.9561 225.799 57.1929V62.4805H223.375ZM236.918 62.6216C234.636 62.6216 233.208 60.8369 233.208 57.915V57.8984C233.208 54.96 234.603 53.1919 236.918 53.1919C238.172 53.1919 239.193 53.8062 239.649 54.8022H239.799V49.8467H242.223V62.4805H239.799V61.061H239.649C239.176 62.0488 238.205 62.6216 236.918 62.6216ZM237.74 60.6128C239.027 60.6128 239.824 59.6001 239.824 57.9233V57.9067C239.824 56.23 239.019 55.2007 237.74 55.2007C236.462 55.2007 235.673 56.23 235.673 57.8984V57.915C235.673 59.6001 236.462 60.6128 237.74 60.6128ZM248.325 62.4805V53.3413H250.749V54.769H250.898C251.288 53.7397 252.235 53.1421 253.43 53.1421C254.675 53.1421 255.597 53.7729 255.97 54.8271H256.12C256.535 53.8145 257.597 53.1421 258.875 53.1421C260.693 53.1421 261.83 54.3208 261.83 56.2051V62.4805H259.407V56.811C259.407 55.707 258.909 55.1509 257.896 55.1509C256.916 55.1509 256.286 55.873 256.286 56.8608V62.4805H253.862V56.7031C253.862 55.7236 253.306 55.1509 252.359 55.1509C251.413 55.1509 250.749 55.9229 250.749 56.9688V62.4805H248.325ZM267.845 62.6714C265.031 62.6714 263.338 60.8867 263.338 57.915V57.8984C263.338 54.9517 265.056 53.1421 267.845 53.1421C270.634 53.1421 272.352 54.9434 272.352 57.8984V57.915C272.352 60.895 270.659 62.6714 267.845 62.6714ZM267.845 60.7705C269.132 60.7705 269.87 59.7163 269.87 57.915V57.8984C269.87 56.1138 269.123 55.043 267.845 55.043C266.558 55.043 265.82 56.1138 265.82 57.8984V57.915C265.82 59.7163 266.55 60.7705 267.845 60.7705ZM273.934 62.4805V53.3413H276.358V54.7607H276.508C276.798 53.7729 277.628 53.1919 278.815 53.1919C279.139 53.1919 279.479 53.2417 279.72 53.3081V55.4248C279.355 55.3418 278.981 55.2837 278.608 55.2837C277.23 55.2837 276.358 56.0723 276.358 57.3672V62.4805H273.934ZM284.747 62.6714C281.966 62.6714 280.281 60.8535 280.281 57.9233V57.915C280.281 55.0098 281.983 53.1421 284.647 53.1421C287.312 53.1421 288.972 54.9683 288.972 57.7324V58.4878H282.68C282.705 59.9902 283.51 60.8618 284.797 60.8618C285.859 60.8618 286.448 60.2974 286.615 59.9487L286.639 59.8989H288.897L288.881 59.9819C288.598 61.1274 287.42 62.6714 284.747 62.6714ZM284.689 54.96C283.635 54.96 282.854 55.6738 282.705 56.9688H286.648C286.498 55.6406 285.743 54.96 284.689 54.96Z" fill="#9299A2"/>
<path d="M39.2075 83.3203V73.8506H40.3888V83.3203H39.2075ZM42.9015 83.3203V77.1909H41.7268V76.2459H42.9015V75.4584C42.9015 74.0475 43.6102 73.3716 44.9555 73.3716C45.2312 73.3716 45.4805 73.3912 45.7168 73.4372V74.3494C45.579 74.3231 45.3887 74.3166 45.1852 74.3166C44.3715 74.3166 44.0434 74.7169 44.0434 75.4912V76.2459H45.6512V77.1909H44.0434V83.3203H42.9015ZM51.2213 85.8009C51.0704 85.8009 50.8735 85.7878 50.716 85.7616V84.8231C50.8538 84.8494 51.031 84.8559 51.1885 84.8559C51.8382 84.8559 52.2319 84.5606 52.4879 83.7469L52.6191 83.3269L50.0007 76.2459H51.2213L53.1638 82.0669H53.2688L55.2047 76.2459H56.4057L53.6429 83.7534C53.0588 85.3416 52.4747 85.8009 51.2213 85.8009ZM60.3293 83.445C58.3147 83.445 57.0678 82.0537 57.0678 79.7897V79.7766C57.0678 77.5059 58.3147 76.1212 60.3293 76.1212C62.344 76.1212 63.5909 77.5059 63.5909 79.7766V79.7897C63.5909 82.0537 62.344 83.445 60.3293 83.445ZM60.3293 82.4344C61.6681 82.4344 62.4228 81.4566 62.4228 79.7897V79.7766C62.4228 78.1031 61.6681 77.1319 60.3293 77.1319C58.9906 77.1319 58.2359 78.1031 58.2359 79.7766V79.7897C58.2359 81.4566 58.9906 82.4344 60.3293 82.4344ZM67.5014 83.445C65.8936 83.445 65.0668 82.5 65.0668 80.8266V76.2459H66.2086V80.5509C66.2086 81.8241 66.668 82.4344 67.7968 82.4344C69.0436 82.4344 69.7064 81.6731 69.7064 80.4328V76.2459H70.8483V83.3203H69.7064V82.2637H69.6014C69.2536 83.0184 68.5383 83.445 67.5014 83.445ZM76.366 83.3203V73.4372H77.5078V79.3369H77.6128L80.671 76.2459H82.0556L78.9713 79.2187L82.2591 83.3203H80.8219L78.1706 79.9931L77.5078 80.6362V83.3203H76.366ZM85.9268 83.445C83.9056 83.445 82.6849 82.0275 82.6849 79.8094V79.8028C82.6849 77.6175 83.9318 76.1212 85.8546 76.1212C87.7774 76.1212 88.9456 77.5519 88.9456 79.665V80.1112H83.8531C83.8859 81.5747 84.6931 82.4278 85.9531 82.4278C86.9112 82.4278 87.5018 81.975 87.6921 81.5484L87.7184 81.4894H88.8602L88.8471 81.5419C88.6043 82.5 87.5937 83.445 85.9268 83.445ZM85.8481 77.1384C84.7981 77.1384 83.9974 77.8537 83.8727 79.1991H87.784C87.6659 77.8012 86.8915 77.1384 85.8481 77.1384ZM93.3745 83.445C91.3533 83.445 90.1327 82.0275 90.1327 79.8094V79.8028C90.1327 77.6175 91.3795 76.1212 93.3023 76.1212C95.2252 76.1212 96.3933 77.5519 96.3933 79.665V80.1112H91.3008C91.3336 81.5747 92.1408 82.4278 93.4008 82.4278C94.3589 82.4278 94.9495 81.975 95.1398 81.5484L95.1661 81.4894H96.308L96.2948 81.5419C96.052 82.5 95.0414 83.445 93.3745 83.445ZM93.2958 77.1384C92.2458 77.1384 91.4452 77.8537 91.3205 79.1991H95.2317C95.1136 77.8012 94.3392 77.1384 93.2958 77.1384ZM97.9348 85.6828V76.2459H99.0766V77.3747H99.1816C99.6148 76.5872 100.402 76.1212 101.387 76.1212C103.178 76.1212 104.353 77.5716 104.353 79.7766V79.7897C104.353 82.0078 103.185 83.445 101.387 83.445C100.415 83.445 99.5688 82.9594 99.1816 82.2047H99.0766V85.6828H97.9348ZM101.124 82.4344C102.417 82.4344 103.185 81.4369 103.185 79.7897V79.7766C103.185 78.1294 102.417 77.1319 101.124 77.1319C99.8379 77.1319 99.0504 78.1425 99.0504 79.7766V79.7897C99.0504 81.4237 99.8379 82.4344 101.124 82.4344ZM108.919 79.9144V79.1269H110.212C110.199 78.9562 110.192 78.7725 110.192 78.5887V78.5756C110.192 78.3787 110.199 78.195 110.218 78.0112H108.919V77.2237H110.343C110.881 75.0056 112.771 73.9884 114.924 73.9884C115.416 73.9884 116.059 74.0409 116.335 74.1328V75.1959C116.046 75.1237 115.416 75.0778 114.924 75.0778C113.342 75.0778 112.076 75.7603 111.603 77.2237H115.127V78.0112H111.439C111.419 78.195 111.406 78.3919 111.406 78.5953V78.6084C111.406 78.7856 111.413 78.9628 111.432 79.1269H115.127V79.9144H111.583C112.043 81.4041 113.322 82.0931 114.924 82.0931C115.416 82.0931 116.046 82.0603 116.335 81.975V83.0381C116.066 83.1366 115.416 83.1825 114.924 83.1825C112.751 83.1825 110.861 82.1456 110.336 79.9144H108.919ZM120.783 73.6275C122.516 73.6275 124.347 74.8481 124.347 78.4116V78.4247C124.347 81.6534 123.001 83.5434 120.704 83.5434C119.116 83.5434 117.935 82.6116 117.614 81.2137L117.594 81.1284H118.782L118.808 81.2006C119.097 81.9947 119.759 82.4869 120.718 82.4869C122.437 82.4869 123.139 80.8069 123.211 78.8316C123.218 78.7594 123.218 78.6806 123.218 78.6084H123.093C122.745 79.3828 121.853 80.0719 120.573 80.0719C118.795 80.0719 117.469 78.72 117.469 76.9022V76.8891C117.469 74.9991 118.874 73.6275 120.783 73.6275ZM120.777 79.0416C122.004 79.0416 122.936 78.1425 122.936 76.9087V76.9022C122.936 75.6553 121.997 74.6709 120.796 74.6709C119.609 74.6709 118.657 75.6356 118.657 76.8628V76.8759C118.657 78.1359 119.549 79.0416 120.777 79.0416ZM125.206 85.7288L125.777 81.9947H127.083L126.052 85.7288H125.206ZM131.17 83.3203V75.1631H131.065L128.657 76.9087V75.6619L131.177 73.8506H132.352V83.3203H131.17ZM134.858 83.3203V82.5066L138.06 79.0416C139.268 77.7356 139.622 77.2434 139.622 76.4166V76.4034C139.622 75.4059 138.946 74.6578 137.83 74.6578C136.695 74.6578 135.94 75.3994 135.94 76.515L135.934 76.5281L134.805 76.5216L134.792 76.515C134.799 74.835 136.098 73.6275 137.909 73.6275C139.563 73.6275 140.83 74.7497 140.83 76.2787V76.2919C140.83 77.3747 140.364 78.1622 138.651 79.9275L136.498 82.1522V82.2572H140.987V83.3203H134.858ZM145.908 83.5434C143.815 83.5434 142.568 81.6337 142.568 78.5887V78.5756C142.568 75.5306 143.815 73.6275 145.908 73.6275C148.002 73.6275 149.262 75.5306 149.262 78.5756V78.5887C149.262 81.6337 148.002 83.5434 145.908 83.5434ZM145.908 82.5131C147.267 82.5131 148.074 81.0037 148.074 78.5887V78.5756C148.074 76.1606 147.267 74.6644 145.908 74.6644C144.55 74.6644 143.756 76.1606 143.756 78.5756V78.5887C143.756 81.0037 144.55 82.5131 145.908 82.5131ZM157.437 83.445C155.422 83.445 154.176 82.0537 154.176 79.7897V79.7766C154.176 77.5059 155.422 76.1212 157.437 76.1212C159.452 76.1212 160.699 77.5059 160.699 79.7766V79.7897C160.699 82.0537 159.452 83.445 157.437 83.445ZM157.437 82.4344C158.776 82.4344 159.531 81.4566 159.531 79.7897V79.7766C159.531 78.1031 158.776 77.1319 157.437 77.1319C156.098 77.1319 155.344 78.1031 155.344 79.7766V79.7897C155.344 81.4566 156.098 82.4344 157.437 82.4344ZM162.24 83.3203V76.2459H163.382V77.2959H163.487C163.756 76.5544 164.419 76.1212 165.377 76.1212C165.594 76.1212 165.836 76.1475 165.948 76.1672V77.2762C165.712 77.2369 165.495 77.2106 165.246 77.2106C164.156 77.2106 163.382 77.8997 163.382 78.9366V83.3203H162.24ZM170.678 83.3203V76.2459H171.82V77.3222H171.925C172.24 76.5609 172.909 76.1212 173.835 76.1212C174.793 76.1212 175.462 76.6266 175.79 77.3616H175.895C176.276 76.6134 177.083 76.1212 178.061 76.1212C179.505 76.1212 180.312 76.9481 180.312 78.4312V83.3203H179.17V78.6937C179.17 77.6503 178.691 77.1319 177.693 77.1319C176.709 77.1319 176.059 77.8734 176.059 78.7725V83.3203H174.917V78.5166C174.917 77.6766 174.34 77.1319 173.447 77.1319C172.522 77.1319 171.82 77.9391 171.82 78.9366V83.3203H170.678ZM185.049 83.445C183.035 83.445 181.788 82.0537 181.788 79.7897V79.7766C181.788 77.5059 183.035 76.1212 185.049 76.1212C187.064 76.1212 188.311 77.5059 188.311 79.7766V79.7897C188.311 82.0537 187.064 83.445 185.049 83.445ZM185.049 82.4344C186.388 82.4344 187.143 81.4566 187.143 79.7897V79.7766C187.143 78.1031 186.388 77.1319 185.049 77.1319C183.71 77.1319 182.956 78.1031 182.956 79.7766V79.7897C182.956 81.4566 183.71 82.4344 185.049 82.4344ZM189.852 83.3203V76.2459H190.994V77.2959H191.099C191.368 76.5544 192.031 76.1212 192.989 76.1212C193.206 76.1212 193.449 76.1475 193.56 76.1672V77.2762C193.324 77.2369 193.107 77.2106 192.858 77.2106C191.769 77.2106 190.994 77.8997 190.994 78.9366V83.3203H189.852ZM197.431 83.445C195.41 83.445 194.189 82.0275 194.189 79.8094V79.8028C194.189 77.6175 195.436 76.1212 197.359 76.1212C199.282 76.1212 200.45 77.5519 200.45 79.665V80.1112H195.358C195.39 81.5747 196.198 82.4278 197.458 82.4278C198.416 82.4278 199.006 81.975 199.197 81.5484L199.223 81.4894H200.365L200.352 81.5419C200.109 82.5 199.098 83.445 197.431 83.445ZM197.353 77.1384C196.303 77.1384 195.502 77.8537 195.377 79.1991H199.288C199.17 77.8012 198.396 77.1384 197.353 77.1384ZM208.448 83.445C206.434 83.445 205.187 82.0537 205.187 79.7897V79.7766C205.187 77.5059 206.434 76.1212 208.448 76.1212C210.463 76.1212 211.71 77.5059 211.71 79.7766V79.7897C211.71 82.0537 210.463 83.445 208.448 83.445ZM208.448 82.4344C209.787 82.4344 210.542 81.4566 210.542 79.7897V79.7766C210.542 78.1031 209.787 77.1319 208.448 77.1319C207.11 77.1319 206.355 78.1031 206.355 79.7766V79.7897C206.355 81.4566 207.11 82.4344 208.448 82.4344ZM213.251 83.3203V76.2459H214.393V77.3091H214.498C214.853 76.5609 215.515 76.1212 216.559 76.1212C218.147 76.1212 219.033 77.0597 219.033 78.7397V83.3203H217.891V79.0153C217.891 77.7422 217.366 77.1319 216.237 77.1319C215.108 77.1319 214.393 77.8931 214.393 79.1334V83.3203H213.251ZM226.362 83.445C225.016 83.445 223.999 82.6312 223.999 81.345V81.3319C223.999 80.0719 224.931 79.3434 226.578 79.245L228.606 79.1203V78.4772C228.606 77.6044 228.075 77.1319 227.018 77.1319C226.171 77.1319 225.614 77.4469 225.43 77.9981L225.423 78.0178H224.281L224.288 77.9784C224.472 76.8694 225.548 76.1212 227.057 76.1212C228.783 76.1212 229.748 77.0072 229.748 78.4772V83.3203H228.606V82.2769H228.501C228.055 83.0316 227.313 83.445 226.362 83.445ZM225.167 81.3187C225.167 82.0341 225.778 82.4541 226.598 82.4541C227.76 82.4541 228.606 81.6928 228.606 80.6822V80.0391L226.716 80.1572C225.64 80.2228 225.167 80.6034 225.167 81.3056V81.3187ZM231.67 83.3203V73.4372H232.812V83.3203H231.67ZM234.839 83.3203V73.4372H235.981V83.3203H234.839ZM243.435 83.445C242.089 83.445 241.072 82.6312 241.072 81.345V81.3319C241.072 80.0719 242.004 79.3434 243.651 79.245L245.679 79.1203V78.4772C245.679 77.6044 245.147 77.1319 244.091 77.1319C243.244 77.1319 242.686 77.4469 242.503 77.9981L242.496 78.0178H241.354L241.361 77.9784C241.545 76.8694 242.621 76.1212 244.13 76.1212C245.856 76.1212 246.821 77.0072 246.821 78.4772V83.3203H245.679V82.2769H245.574C245.128 83.0316 244.386 83.445 243.435 83.445ZM242.24 81.3187C242.24 82.0341 242.85 82.4541 243.671 82.4541C244.832 82.4541 245.679 81.6928 245.679 80.6822V80.0391L243.789 80.1572C242.713 80.2228 242.24 80.6034 242.24 81.3056V81.3187ZM251.571 83.445C249.589 83.445 248.323 82.0078 248.323 79.7634V79.7503C248.323 77.5519 249.583 76.1212 251.565 76.1212C253.284 76.1212 254.314 77.1122 254.524 78.3722L254.531 78.4116H253.396L253.389 78.3919C253.212 77.6962 252.582 77.1319 251.565 77.1319C250.292 77.1319 249.491 78.1556 249.491 79.7503V79.7634C249.491 81.3909 250.305 82.4344 251.565 82.4344C252.516 82.4344 253.12 82.0144 253.383 81.2269L253.396 81.1875L254.524 81.1809L254.511 81.2531C254.223 82.5328 253.271 83.445 251.571 83.445ZM258.862 83.445C256.88 83.445 255.613 82.0078 255.613 79.7634V79.7503C255.613 77.5519 256.873 76.1212 258.855 76.1212C260.574 76.1212 261.605 77.1122 261.815 78.3722L261.821 78.4116H260.686L260.679 78.3919C260.502 77.6962 259.872 77.1319 258.855 77.1319C257.582 77.1319 256.781 78.1556 256.781 79.7503V79.7634C256.781 81.3909 257.595 82.4344 258.855 82.4344C259.807 82.4344 260.41 82.0144 260.673 81.2269L260.686 81.1875L261.815 81.1809L261.802 81.2531C261.513 82.5328 260.561 83.445 258.862 83.445ZM266.165 83.445C264.15 83.445 262.903 82.0537 262.903 79.7897V79.7766C262.903 77.5059 264.15 76.1212 266.165 76.1212C268.18 76.1212 269.426 77.5059 269.426 79.7766V79.7897C269.426 82.0537 268.18 83.445 266.165 83.445ZM266.165 82.4344C267.504 82.4344 268.258 81.4566 268.258 79.7897V79.7766C268.258 78.1031 267.504 77.1319 266.165 77.1319C264.826 77.1319 264.071 78.1031 264.071 79.7766V79.7897C264.071 81.4566 264.826 82.4344 266.165 82.4344ZM273.337 83.445C271.729 83.445 270.902 82.5 270.902 80.8266V76.2459H272.044V80.5509C272.044 81.8241 272.504 82.4344 273.632 82.4344C274.879 82.4344 275.542 81.6731 275.542 80.4328V76.2459H276.684V83.3203H275.542V82.2637H275.437C275.089 83.0184 274.374 83.445 273.337 83.445ZM278.586 83.3203V76.2459H279.728V77.3091H279.833C280.188 76.5609 280.85 76.1212 281.894 76.1212C283.482 76.1212 284.368 77.0597 284.368 78.7397V83.3203H283.226V79.0153C283.226 77.7422 282.701 77.1319 281.572 77.1319C280.443 77.1319 279.728 77.8931 279.728 79.1334V83.3203H278.586ZM288.718 83.3728C287.261 83.3728 286.651 82.8347 286.651 81.4828V77.1909H285.535V76.2459H286.651V74.415H287.832V76.2459H289.381V77.1909H287.832V81.1941C287.832 82.0275 288.121 82.3622 288.856 82.3622C289.059 82.3622 289.171 82.3556 289.381 82.3359V83.3072C289.158 83.3466 288.941 83.3728 288.718 83.3728ZM293.154 83.445C291.579 83.445 290.496 82.6837 290.365 81.5156H291.533C291.723 82.1062 292.287 82.4934 293.193 82.4934C294.145 82.4934 294.82 82.0406 294.82 81.3975V81.3844C294.82 80.9053 294.46 80.5706 293.587 80.3606L292.491 80.0981C291.165 79.7831 290.568 79.2056 290.568 78.1884V78.1819C290.568 77.0072 291.697 76.1212 293.2 76.1212C294.683 76.1212 295.713 76.8628 295.87 78.0178H294.748C294.597 77.46 294.046 77.0728 293.193 77.0728C292.353 77.0728 291.736 77.5059 291.736 78.1294V78.1425C291.736 78.6216 292.09 78.9234 292.924 79.1269L294.013 79.3894C295.345 79.7109 295.989 80.2884 295.989 81.2991V81.3122C295.989 82.5722 294.761 83.445 293.154 83.445ZM298.462 83.3859C297.996 83.3859 297.609 82.9987 297.609 82.5328C297.609 82.0603 297.996 81.6797 298.462 81.6797C298.934 81.6797 299.315 82.0603 299.315 82.5328C299.315 82.9987 298.934 83.3859 298.462 83.3859Z" fill="#9299A2"/>
<rect x="18" y="103.4" width="5" height="91" rx="2.5" fill="#57B74E"/>
<path d="M39.125 131.521V117.992H48.0875V120.327H41.9563V123.571H47.7406V125.783H41.9563V129.186H48.0875V131.521H39.125ZM50.2617 131.521V121.471H52.9992V123.121H53.0554C53.5711 121.967 54.6023 121.264 56.1211 121.264C58.3336 121.264 59.5898 122.68 59.5898 125.033V131.521H56.8523V125.596C56.8523 124.283 56.2336 123.533 55.0054 123.533C53.7773 123.533 52.9992 124.433 52.9992 125.746V131.521H50.2617ZM66.3015 131.727C63.2452 131.727 61.3234 129.767 61.3234 126.496V126.477C61.3234 123.242 63.2921 121.264 66.2921 121.264C69.3015 121.264 71.2796 123.224 71.2796 126.477V126.496C71.2796 129.777 69.339 131.727 66.3015 131.727ZM66.3109 129.58C67.6421 129.58 68.4952 128.455 68.4952 126.496V126.477C68.4952 124.536 67.6234 123.411 66.2921 123.411C64.9702 123.411 64.1077 124.536 64.1077 126.477V126.496C64.1077 128.464 64.9609 129.58 66.3109 129.58ZM76.4819 131.727C74.2694 131.727 73.0131 130.311 73.0131 127.958V121.471H75.7506V127.386C75.7506 128.699 76.3694 129.458 77.5975 129.458C78.8256 129.458 79.6038 128.558 79.6038 127.246V121.471H82.3413V131.521H79.6038V129.861H79.5475C79.0319 131.014 78.0006 131.727 76.4819 131.727ZM89.1842 135.008C86.4186 135.008 84.6748 133.761 84.4123 132.149L84.403 132.064H87.0655L87.0936 132.13C87.3092 132.627 88.0405 133.058 89.1842 133.058C90.5998 133.058 91.3498 132.327 91.3498 131.202V129.664H91.2936C90.7686 130.714 89.6436 131.38 88.1905 131.38C85.678 131.38 84.1217 129.505 84.1217 126.383V126.374C84.1217 123.167 85.6967 121.264 88.2373 121.264C89.653 121.264 90.7498 122.014 91.2936 123.186H91.3498V121.471H94.0873V131.239C94.0873 133.48 92.203 135.008 89.1842 135.008ZM89.1373 129.374C90.478 129.374 91.3592 128.249 91.3592 126.449V126.439C91.3592 124.649 90.4686 123.533 89.1373 123.533C87.778 123.533 86.9061 124.639 86.9061 126.439V126.449C86.9061 128.258 87.7686 129.374 89.1373 129.374ZM96.3177 131.521V117.992H99.0552V123.205H99.1115C99.6271 121.958 100.686 121.264 102.196 121.264C104.371 121.264 105.721 122.783 105.721 125.211V131.521H102.983V125.774C102.983 124.367 102.29 123.533 101.043 123.533C99.8334 123.533 99.0552 124.452 99.0552 125.764V131.521H96.3177ZM112.75 131.521V123.533H111.382V121.471H112.75V120.664C112.75 118.696 113.688 117.786 116.06 117.786C116.566 117.786 117.119 117.833 117.438 117.899V119.708C117.25 119.671 116.988 119.661 116.735 119.661C115.825 119.661 115.422 120.046 115.422 120.767V121.471H117.419V123.533H115.488V131.521H112.75ZM123.128 131.727C120.072 131.727 118.15 129.767 118.15 126.496V126.477C118.15 123.242 120.118 121.264 123.118 121.264C126.128 121.264 128.106 123.224 128.106 126.477V126.496C128.106 129.777 126.165 131.727 123.128 131.727ZM123.137 129.58C124.468 129.58 125.322 128.455 125.322 126.496V126.477C125.322 124.536 124.45 123.411 123.118 123.411C121.797 123.411 120.934 124.536 120.934 126.477V126.496C120.934 128.464 121.787 129.58 123.137 129.58ZM129.886 131.521V121.471H132.624V123.224H132.68C132.98 121.986 133.796 121.264 134.968 121.264C135.268 121.264 135.549 121.311 135.755 121.367V123.777C135.53 123.683 135.155 123.627 134.761 123.627C133.411 123.627 132.624 124.433 132.624 125.896V131.521H129.886ZM147.932 131.521V129.036H141.2V126.674L146.628 117.992H150.622V126.777H152.403V129.036H150.622V131.521H147.932ZM143.666 126.852H147.988V120.036H147.922L143.666 126.777V126.852ZM158.383 131.521V121.471H161.121V123.158H161.177C161.589 122.014 162.639 121.264 163.989 121.264C165.396 121.264 166.417 122.014 166.755 123.336H166.811C167.261 122.071 168.461 121.264 169.933 121.264C171.902 121.264 173.224 122.624 173.224 124.649V131.521H170.486V125.333C170.486 124.171 169.905 123.533 168.846 123.533C167.805 123.533 167.121 124.292 167.121 125.408V131.521H164.486V125.249C164.486 124.171 163.877 123.533 162.864 123.533C161.824 123.533 161.121 124.321 161.121 125.455V131.521H158.383ZM179.935 131.727C176.879 131.727 174.957 129.767 174.957 126.496V126.477C174.957 123.242 176.926 121.264 179.926 121.264C182.935 121.264 184.913 123.224 184.913 126.477V126.496C184.913 129.777 182.973 131.727 179.935 131.727ZM179.945 129.58C181.276 129.58 182.129 128.455 182.129 126.496V126.477C182.129 124.536 181.257 123.411 179.926 123.411C178.604 123.411 177.742 124.536 177.742 126.477V126.496C177.742 128.464 178.595 129.58 179.945 129.58ZM186.694 131.521V121.471H189.431V123.121H189.488C190.003 121.967 191.035 121.264 192.553 121.264C194.766 121.264 196.022 122.68 196.022 125.033V131.521H193.285V125.596C193.285 124.283 192.666 123.533 191.438 123.533C190.21 123.533 189.431 124.433 189.431 125.746V131.521H186.694ZM202.115 131.727C199.884 131.727 198.834 130.864 198.834 128.708V123.533H197.437V121.471H198.834V119.014H201.599V121.471H203.437V123.533H201.599V128.408C201.599 129.346 202.021 129.664 202.846 129.664C203.09 129.664 203.268 129.636 203.437 129.617V131.624C203.127 131.671 202.687 131.727 202.115 131.727ZM205.377 131.521V117.992H208.114V123.205H208.17C208.686 121.958 209.745 121.264 211.255 121.264C213.43 121.264 214.78 122.783 214.78 125.211V131.521H212.042V125.774C212.042 124.367 211.348 123.533 210.102 123.533C208.892 123.533 208.114 124.452 208.114 125.764V131.521H205.377ZM221.041 131.727C218.257 131.727 216.71 130.442 216.495 128.539L216.485 128.455H219.157L219.176 128.539C219.354 129.327 219.945 129.786 221.041 129.786C222.073 129.786 222.701 129.383 222.701 128.736V128.727C222.701 128.192 222.363 127.883 221.379 127.667L219.673 127.311C217.723 126.899 216.738 125.924 216.738 124.424V124.414C216.738 122.502 218.388 121.264 220.948 121.264C223.62 121.264 225.11 122.68 225.176 124.442V124.536H222.654L222.645 124.461C222.551 123.739 221.96 123.196 220.948 123.196C220.001 123.196 219.41 123.617 219.41 124.264V124.274C219.41 124.789 219.757 125.127 220.77 125.342L222.476 125.708C224.576 126.149 225.438 126.974 225.438 128.455V128.464C225.438 130.433 223.629 131.727 221.041 131.727Z" fill="#333333"/>
<path d="M38.5272 157.28L42.592 146.255H43.952L48.0169 157.28H46.5728L45.4649 154.125H41.0792L39.9713 157.28H38.5272ZM43.2109 148.035L41.4841 152.956H45.0599L43.3332 148.035H43.2109ZM51.8562 157.341C50.1599 157.341 49.4494 156.715 49.4494 155.141V150.144H48.1505V149.044H49.4494V146.912H50.8247V149.044H52.6279V150.144H50.8247V154.805C50.8247 155.775 51.1609 156.165 52.0166 156.165C52.2535 156.165 52.3834 156.157 52.6279 156.134V157.265C52.3681 157.311 52.1159 157.341 51.8562 157.341ZM58.9312 160.168C58.7554 160.168 58.5262 160.153 58.3428 160.123V159.03C58.5033 159.061 58.7096 159.068 58.893 159.068C59.6494 159.068 60.1078 158.724 60.4058 157.777L60.5586 157.288L57.51 149.044H58.9312L61.1928 155.821H61.315L63.569 149.044H64.9673L61.7506 157.785C61.0705 159.634 60.3905 160.168 58.9312 160.168ZM69.4102 157.425C67.0645 157.425 65.6128 155.806 65.6128 153.17V153.154C65.6128 150.511 67.0645 148.899 69.4102 148.899C71.7558 148.899 73.2076 150.511 73.2076 153.154V153.17C73.2076 155.806 71.7558 157.425 69.4102 157.425ZM69.4102 156.249C70.9689 156.249 71.8475 155.11 71.8475 153.17V153.154C71.8475 151.206 70.9689 150.075 69.4102 150.075C67.8515 150.075 66.9728 151.206 66.9728 153.154V153.17C66.9728 155.11 67.8515 156.249 69.4102 156.249ZM77.6352 157.425C75.7633 157.425 74.8005 156.325 74.8005 154.377V149.044H76.13V154.056C76.13 155.538 76.6648 156.249 77.979 156.249C79.4308 156.249 80.2025 155.362 80.2025 153.918V149.044H81.5319V157.28H80.2025V156.05H80.0802C79.6753 156.929 78.8424 157.425 77.6352 157.425ZM83.6215 157.28V149.044H84.951V150.266H85.0732C85.3865 149.403 86.1582 148.899 87.2737 148.899C87.5259 148.899 87.8086 148.929 87.9385 148.952V150.243C87.6634 150.197 87.4113 150.167 87.1209 150.167C85.8526 150.167 84.951 150.969 84.951 152.176V157.28H83.6215ZM95.4566 157.425C93.8903 157.425 92.706 156.478 92.706 154.98V154.965C92.706 153.498 93.791 152.65 95.7088 152.535L98.0697 152.39V151.641C98.0697 150.625 97.4508 150.075 96.2207 150.075C95.2351 150.075 94.5856 150.442 94.3717 151.084L94.364 151.107H93.0346L93.0422 151.061C93.2561 149.77 94.5092 148.899 96.2665 148.899C98.276 148.899 99.3992 149.93 99.3992 151.641V157.28H98.0697V156.065H97.9475C97.4279 156.944 96.5645 157.425 95.4566 157.425ZM94.066 154.95C94.066 155.783 94.7766 156.272 95.7317 156.272C97.0841 156.272 98.0697 155.385 98.0697 154.209V153.46L95.8692 153.597C94.6162 153.674 94.066 154.117 94.066 154.935V154.95ZM103.46 157.28L100.411 149.044H101.817L104.071 155.829H104.194L106.448 149.044H107.853L104.805 157.28H103.46ZM112.273 157.425C109.92 157.425 108.499 155.775 108.499 153.193V153.185C108.499 150.641 109.951 148.899 112.189 148.899C114.428 148.899 115.788 150.564 115.788 153.024V153.544H109.859C109.897 155.248 110.837 156.241 112.304 156.241C113.42 156.241 114.107 155.714 114.329 155.217L114.359 155.149H115.689L115.674 155.21C115.391 156.325 114.214 157.425 112.273 157.425ZM112.182 150.083C110.959 150.083 110.027 150.916 109.882 152.482H114.436C114.298 150.855 113.397 150.083 112.182 150.083ZM117.457 157.28V149.044H118.787V150.266H118.909C119.222 149.403 119.994 148.899 121.11 148.899C121.362 148.899 121.645 148.929 121.774 148.952V150.243C121.499 150.197 121.247 150.167 120.957 150.167C119.689 150.167 118.787 150.969 118.787 152.176V157.28H117.457ZM125.285 157.425C123.719 157.425 122.535 156.478 122.535 154.98V154.965C122.535 153.498 123.62 152.65 125.537 152.535L127.898 152.39V151.641C127.898 150.625 127.279 150.075 126.049 150.075C125.064 150.075 124.414 150.442 124.2 151.084L124.193 151.107H122.863L122.871 151.061C123.085 149.77 124.338 148.899 126.095 148.899C128.105 148.899 129.228 149.93 129.228 151.641V157.28H127.898V156.065H127.776C127.256 156.944 126.393 157.425 125.285 157.425ZM123.895 154.95C123.895 155.783 124.605 156.272 125.56 156.272C126.913 156.272 127.898 155.385 127.898 154.209V153.46L125.698 153.597C124.445 153.674 123.895 154.117 123.895 154.935V154.95ZM134.656 160.184C132.67 160.184 131.401 159.29 131.195 157.937L131.21 157.93H132.586L132.593 157.937C132.739 158.564 133.472 159.007 134.656 159.007C136.131 159.007 137.01 158.312 137.01 157.097V155.431H136.887C136.368 156.34 135.436 156.852 134.305 156.852C132.173 156.852 130.851 155.202 130.851 152.895V152.879C130.851 150.572 132.181 148.899 134.335 148.899C135.497 148.899 136.398 149.472 136.903 150.404H136.994V149.044H138.324V157.166C138.324 159.007 136.903 160.184 134.656 160.184ZM134.595 155.676C136.123 155.676 137.04 154.53 137.04 152.895V152.879C137.04 151.244 136.116 150.075 134.595 150.075C133.067 150.075 132.211 151.244 132.211 152.879V152.895C132.211 154.53 133.067 155.676 134.595 155.676ZM143.768 157.425C141.414 157.425 139.993 155.775 139.993 153.193V153.185C139.993 150.641 141.445 148.899 143.684 148.899C145.922 148.899 147.282 150.564 147.282 153.024V153.544H141.353C141.391 155.248 142.331 156.241 143.798 156.241C144.914 156.241 145.601 155.714 145.823 155.217L145.854 155.149H147.183L147.168 155.21C146.885 156.325 145.708 157.425 143.768 157.425ZM143.676 150.083C142.453 150.083 141.521 150.916 141.376 152.482H145.93C145.792 150.855 144.891 150.083 143.676 150.083ZM155.786 157.425C153.952 157.425 152.692 156.539 152.539 155.179H153.899C154.12 155.867 154.778 156.318 155.832 156.318C156.94 156.318 157.727 155.79 157.727 155.042V155.026C157.727 154.469 157.307 154.079 156.29 153.834L155.014 153.529C153.471 153.162 152.776 152.49 152.776 151.305V151.298C152.776 149.93 154.09 148.899 155.84 148.899C157.566 148.899 158.766 149.762 158.949 151.107H157.643C157.467 150.457 156.825 150.006 155.832 150.006C154.854 150.006 154.136 150.511 154.136 151.237V151.252C154.136 151.81 154.548 152.161 155.519 152.398L156.787 152.704C158.338 153.078 159.087 153.75 159.087 154.927V154.942C159.087 156.409 157.658 157.425 155.786 157.425ZM160.756 160.031V149.044H162.086V150.358H162.208C162.712 149.441 163.629 148.899 164.775 148.899C166.861 148.899 168.229 150.587 168.229 153.154V153.17C168.229 155.752 166.869 157.425 164.775 157.425C163.644 157.425 162.659 156.86 162.208 155.981H162.086V160.031H160.756ZM164.47 156.249C165.975 156.249 166.869 155.087 166.869 153.17V153.154C166.869 151.237 165.975 150.075 164.47 150.075C162.972 150.075 162.055 151.252 162.055 153.154V153.17C162.055 155.072 162.972 156.249 164.47 156.249ZM173.275 157.425C170.922 157.425 169.501 155.775 169.501 153.193V153.185C169.501 150.641 170.953 148.899 173.191 148.899C175.43 148.899 176.79 150.564 176.79 153.024V153.544H170.861C170.899 155.248 171.839 156.241 173.306 156.241C174.421 156.241 175.109 155.714 175.331 155.217L175.361 155.149H176.691L176.675 155.21C176.393 156.325 175.216 157.425 173.275 157.425ZM173.184 150.083C171.961 150.083 171.029 150.916 170.884 152.482H175.438C175.3 150.855 174.399 150.083 173.184 150.083ZM178.459 157.28V149.044H179.789V150.281H179.911C180.324 149.41 181.095 148.899 182.31 148.899C184.159 148.899 185.191 149.991 185.191 151.947V157.28H183.861V152.268C183.861 150.786 183.25 150.075 181.936 150.075C180.622 150.075 179.789 150.961 179.789 152.406V157.28H178.459ZM190.245 157.425C188.159 157.425 186.791 155.737 186.791 153.17V153.154C186.791 150.572 188.151 148.899 190.245 148.899C191.376 148.899 192.361 149.464 192.812 150.343H192.934V145.773H194.264V157.28H192.934V155.966H192.812C192.308 156.883 191.391 157.425 190.245 157.425ZM190.551 156.249C192.048 156.249 192.965 155.072 192.965 153.17V153.154C192.965 151.252 192.048 150.075 190.551 150.075C189.045 150.075 188.151 151.237 188.151 153.154V153.17C188.151 155.087 189.045 156.249 190.551 156.249ZM197.125 147.454C196.621 147.454 196.208 147.042 196.208 146.538C196.208 146.033 196.621 145.621 197.125 145.621C197.629 145.621 198.042 146.033 198.042 146.538C198.042 147.042 197.629 147.454 197.125 147.454ZM196.453 157.28V149.044H197.782V157.28H196.453ZM199.895 157.28V149.044H201.224V150.281H201.347C201.759 149.41 202.531 148.899 203.746 148.899C205.595 148.899 206.626 149.991 206.626 151.947V157.28H205.297V152.268C205.297 150.786 204.685 150.075 203.371 150.075C202.057 150.075 201.224 150.961 201.224 152.406V157.28H199.895ZM212.032 160.184C210.045 160.184 208.777 159.29 208.571 157.937L208.586 157.93H209.961L209.969 157.937C210.114 158.564 210.848 159.007 212.032 159.007C213.507 159.007 214.385 158.312 214.385 157.097V155.431H214.263C213.743 156.34 212.811 156.852 211.68 156.852C209.549 156.852 208.227 155.202 208.227 152.895V152.879C208.227 150.572 209.556 148.899 211.711 148.899C212.872 148.899 213.774 149.472 214.278 150.404H214.37V149.044H215.699V157.166C215.699 159.007 214.278 160.184 212.032 160.184ZM211.971 155.676C213.499 155.676 214.416 154.53 214.416 152.895V152.879C214.416 151.244 213.491 150.075 211.971 150.075C210.443 150.075 209.587 151.244 209.587 152.879V152.895C209.587 154.53 210.443 155.676 211.971 155.676ZM225.174 157.425C222.828 157.425 221.376 155.806 221.376 153.17V153.154C221.376 150.511 222.828 148.899 225.174 148.899C227.519 148.899 228.971 150.511 228.971 153.154V153.17C228.971 155.806 227.519 157.425 225.174 157.425ZM225.174 156.249C226.732 156.249 227.611 155.11 227.611 153.17V153.154C227.611 151.206 226.732 150.075 225.174 150.075C223.615 150.075 222.736 151.206 222.736 153.154V153.17C222.736 155.11 223.615 156.249 225.174 156.249ZM231.19 157.28V150.144H229.823V149.044H231.19V148.127C231.19 146.484 232.016 145.697 233.582 145.697C233.903 145.697 234.193 145.72 234.468 145.773V146.836C234.308 146.805 234.086 146.797 233.849 146.797C232.902 146.797 232.52 147.263 232.52 148.165V149.044H234.392V150.144H232.52V157.28H231.19ZM239.297 153.315V152.398H240.802C240.787 152.199 240.779 151.985 240.779 151.771V151.756C240.779 151.527 240.787 151.313 240.81 151.099H239.297V150.182H240.955C241.581 147.6 243.782 146.415 246.288 146.415C246.861 146.415 247.61 146.476 247.931 146.583V147.821C247.595 147.737 246.861 147.684 246.288 147.684C244.447 147.684 242.972 148.478 242.422 150.182H246.525V151.099H242.231C242.208 151.313 242.193 151.542 242.193 151.779V151.794C242.193 152.001 242.2 152.207 242.223 152.398H246.525V153.315H242.399C242.934 155.049 244.424 155.851 246.288 155.851C246.861 155.851 247.595 155.813 247.931 155.714V156.952C247.618 157.066 246.861 157.12 246.288 157.12C243.759 157.12 241.559 155.913 240.947 153.315H239.297ZM252.076 157.28V147.783H251.953L249.149 149.815V148.364L252.083 146.255H253.451V157.28H252.076ZM255.533 160.084L256.198 155.737H257.718L256.519 160.084H255.533ZM263.231 157.54C261.175 157.54 259.708 156.218 259.548 154.453L259.54 154.369H260.862L260.87 154.43C261 155.485 261.955 156.325 263.246 156.325C264.713 156.325 265.722 155.278 265.722 153.789V153.773C265.722 152.306 264.698 151.259 263.269 151.259C262.536 151.259 261.909 151.481 261.435 151.932C261.244 152.115 261.069 152.329 260.931 152.589H259.739L260.32 146.255H266.455V147.485H261.405L261.03 151.214H261.153C261.642 150.472 262.505 150.068 263.506 150.068C265.576 150.068 267.066 151.619 267.066 153.75V153.766C267.066 155.989 265.47 157.54 263.231 157.54ZM268.889 157.28V156.333L272.617 152.299C274.023 150.778 274.436 150.205 274.436 149.242V149.227C274.436 148.066 273.649 147.195 272.35 147.195C271.028 147.195 270.149 148.058 270.149 149.357L270.142 149.372L268.827 149.365L268.812 149.357C268.82 147.401 270.333 145.995 272.441 145.995C274.367 145.995 275.842 147.302 275.842 149.082V149.097C275.842 150.358 275.299 151.275 273.305 153.33L270.799 155.92V156.042H276.025V157.28H268.889ZM281.629 157.54C279.192 157.54 277.74 155.317 277.74 151.771V151.756C277.74 148.211 279.192 145.995 281.629 145.995C284.067 145.995 285.534 148.211 285.534 151.756V151.771C285.534 155.317 284.067 157.54 281.629 157.54ZM281.629 156.34C283.211 156.34 284.151 154.583 284.151 151.771V151.756C284.151 148.944 283.211 147.202 281.629 147.202C280.048 147.202 279.123 148.944 279.123 151.756V151.771C279.123 154.583 280.048 156.34 281.629 156.34ZM287.883 157.357C287.34 157.357 286.89 156.906 286.89 156.363C286.89 155.813 287.34 155.37 287.883 155.37C288.433 155.37 288.876 155.813 288.876 156.363C288.876 156.906 288.433 157.357 287.883 157.357ZM43.8451 176.54C40.85 176.54 38.978 174.324 38.978 170.779V170.764C38.978 167.211 40.8423 164.995 43.8374 164.995C46.1602 164.995 47.971 166.454 48.2996 168.571L48.2919 168.586H46.909L46.9013 168.571C46.5346 167.157 45.3579 166.263 43.8374 166.263C41.721 166.263 40.3915 168.005 40.3915 170.764V170.779C40.3915 173.537 41.721 175.272 43.8451 175.272C45.3808 175.272 46.5499 174.485 46.8937 173.216L46.909 173.201H48.2996V173.216C47.9328 175.234 46.1907 176.54 43.8451 176.54ZM52.8036 176.425C50.9316 176.425 49.9689 175.325 49.9689 173.377V168.044H51.2984V173.056C51.2984 174.538 51.8332 175.249 53.1474 175.249C54.5991 175.249 55.3709 174.362 55.3709 172.918V168.044H56.7003V176.28H55.3709V175.05H55.2486C54.8436 175.929 54.0108 176.425 52.8036 176.425ZM58.7899 176.28V168.044H60.1194V169.266H60.2416C60.5549 168.403 61.3266 167.899 62.4421 167.899C62.6943 167.899 62.977 167.929 63.1069 167.952V169.243C62.8318 169.197 62.5797 169.167 62.2893 169.167C61.021 169.167 60.1194 169.969 60.1194 171.176V176.28H58.7899ZM64.5088 176.28V168.044H65.8383V169.266H65.9605C66.2738 168.403 67.0455 167.899 68.161 167.899C68.4132 167.899 68.6959 167.929 68.8258 167.952V169.243C68.5507 169.197 68.2986 169.167 68.0082 169.167C66.7399 169.167 65.8383 169.969 65.8383 171.176V176.28H64.5088ZM73.2076 176.425C70.8543 176.425 69.4331 174.775 69.4331 172.193V172.185C69.4331 169.641 70.8848 167.899 73.1235 167.899C75.3622 167.899 76.7223 169.564 76.7223 172.024V172.544H70.7931C70.8313 174.248 71.7711 175.241 73.2381 175.241C74.3537 175.241 75.0413 174.714 75.2629 174.217L75.2935 174.149H76.6229L76.6076 174.21C76.3249 175.325 75.1483 176.425 73.2076 176.425ZM73.1159 169.083C71.8934 169.083 70.9612 169.916 70.8161 171.482H75.3699C75.2323 169.855 74.3307 169.083 73.1159 169.083ZM78.3916 176.28V168.044H79.7211V169.281H79.8433C80.2559 168.41 81.0276 167.899 82.2425 167.899C84.0915 167.899 85.123 168.991 85.123 170.947V176.28H83.7935V171.268C83.7935 169.786 83.1823 169.075 81.8681 169.075C80.5539 169.075 79.7211 169.961 79.7211 171.406V176.28H78.3916ZM90.0626 176.341C88.3664 176.341 87.6558 175.715 87.6558 174.141V169.144H86.3569V168.044H87.6558V165.912H89.0311V168.044H90.8343V169.144H89.0311V173.805C89.0311 174.775 89.3673 175.165 90.223 175.165C90.4599 175.165 90.5898 175.157 90.8343 175.134V176.265C90.5745 176.311 90.3224 176.341 90.0626 176.341ZM92.5036 176.28V164.773H93.8331V176.28H92.5036ZM96.6944 179.168C96.5187 179.168 96.2895 179.153 96.1061 179.123V178.03C96.2665 178.061 96.4728 178.068 96.6562 178.068C97.4126 178.068 97.8711 177.724 98.1691 176.777L98.3219 176.288L95.2733 168.044H96.6944L98.956 174.821H99.0783L101.332 168.044H102.731L99.5138 176.785C98.8338 178.634 98.1538 179.168 96.6944 179.168ZM102.612 179.084L103.277 174.737H104.797L103.598 179.084H102.612ZM111.91 179.168C111.735 179.168 111.505 179.153 111.322 179.123V178.03C111.483 178.061 111.689 178.068 111.872 178.068C112.629 178.068 113.087 177.724 113.385 176.777L113.538 176.288L110.489 168.044H111.91L114.172 174.821H114.294L116.548 168.044H117.946L114.73 176.785C114.05 178.634 113.37 179.168 111.91 179.168ZM122.389 176.425C120.044 176.425 118.592 174.806 118.592 172.17V172.154C118.592 169.511 120.044 167.899 122.389 167.899C124.735 167.899 126.187 169.511 126.187 172.154V172.17C126.187 174.806 124.735 176.425 122.389 176.425ZM122.389 175.249C123.948 175.249 124.827 174.11 124.827 172.17V172.154C124.827 170.206 123.948 169.075 122.389 169.075C120.831 169.075 119.952 170.206 119.952 172.154V172.17C119.952 174.11 120.831 175.249 122.389 175.249ZM130.614 176.425C128.742 176.425 127.78 175.325 127.78 173.377V168.044H129.109V173.056C129.109 174.538 129.644 175.249 130.958 175.249C132.41 175.249 133.182 174.362 133.182 172.918V168.044H134.511V176.28H133.182V175.05H133.059C132.654 175.929 131.822 176.425 130.614 176.425ZM140.685 176.28V164.773H142.014V169.281H142.136C142.549 168.41 143.321 167.899 144.535 167.899C146.384 167.899 147.416 168.991 147.416 170.947V176.28H146.086V171.268C146.086 169.786 145.475 169.075 144.161 169.075C142.847 169.075 142.014 169.961 142.014 171.406V176.28H140.685ZM151.691 176.425C150.124 176.425 148.94 175.478 148.94 173.98V173.965C148.94 172.498 150.025 171.65 151.943 171.535L154.304 171.39V170.641C154.304 169.625 153.685 169.075 152.455 169.075C151.469 169.075 150.82 169.442 150.606 170.084L150.598 170.107H149.269L149.276 170.061C149.49 168.77 150.743 167.899 152.501 167.899C154.51 167.899 155.633 168.93 155.633 170.641V176.28H154.304V175.065H154.182C153.662 175.944 152.799 176.425 151.691 176.425ZM150.3 173.95C150.3 174.783 151.011 175.272 151.966 175.272C153.318 175.272 154.304 174.385 154.304 173.209V172.46L152.103 172.597C150.85 172.674 150.3 173.117 150.3 173.935V173.95ZM159.694 176.28L156.646 168.044H158.051L160.305 174.829H160.428L162.682 168.044H164.088L161.039 176.28H159.694ZM168.508 176.425C166.154 176.425 164.733 174.775 164.733 172.193V172.185C164.733 169.641 166.185 167.899 168.424 167.899C170.662 167.899 172.022 169.564 172.022 172.024V172.544H166.093C166.131 174.248 167.071 175.241 168.538 175.241C169.654 175.241 170.341 174.714 170.563 174.217L170.593 174.149H171.923L171.908 174.21C171.625 175.325 170.448 176.425 168.508 176.425ZM168.416 169.083C167.193 169.083 166.261 169.916 166.116 171.482H170.67C170.532 169.855 169.631 169.083 168.416 169.083ZM177.072 172.315V171.398H178.578C178.562 171.199 178.555 170.985 178.555 170.771V170.756C178.555 170.527 178.562 170.313 178.585 170.099H177.072V169.182H178.731C179.357 166.6 181.558 165.415 184.064 165.415C184.637 165.415 185.385 165.476 185.706 165.583V166.821C185.37 166.737 184.637 166.684 184.064 166.684C182.222 166.684 180.748 167.478 180.198 169.182H184.301V170.099H180.006C179.984 170.313 179.968 170.542 179.968 170.779V170.794C179.968 171.001 179.976 171.207 179.999 171.398H184.301V172.315H180.175C180.709 174.049 182.199 174.851 184.064 174.851C184.637 174.851 185.37 174.813 185.706 174.714V175.952C185.393 176.066 184.637 176.12 184.064 176.12C181.535 176.12 179.334 174.913 178.723 172.315H177.072ZM191.051 176.54C189.034 176.54 186.902 175.119 186.902 170.97V170.955C186.902 167.196 188.468 164.995 191.143 164.995C192.992 164.995 194.367 166.08 194.741 167.707L194.764 167.807H193.381L193.351 167.723C193.015 166.798 192.243 166.225 191.127 166.225C189.125 166.225 188.308 168.181 188.224 170.481C188.216 170.565 188.216 170.657 188.216 170.741H188.361C188.766 169.839 189.805 169.037 191.295 169.037C193.366 169.037 194.909 170.611 194.909 172.727V172.743C194.909 174.943 193.274 176.54 191.051 176.54ZM188.545 172.727C188.545 174.179 189.637 175.325 191.036 175.325C192.419 175.325 193.526 174.202 193.526 172.773V172.758C193.526 171.291 192.487 170.237 191.059 170.237C189.63 170.237 188.545 171.283 188.545 172.72V172.727ZM195.861 179.084L196.525 174.737H198.046L196.846 179.084H195.861ZM202.68 176.28V166.783H202.557L199.753 168.815V167.364L202.687 165.255H204.055V176.28H202.68ZM211.883 176.28V173.996H206.511V172.743C208.001 170.244 209.69 167.555 211.233 165.255H213.228V172.766H214.794V173.996H213.228V176.28H211.883ZM207.917 172.773H211.89V166.531H211.799C210.561 168.38 209.117 170.657 207.917 172.682V172.773ZM220.421 176.54C218.404 176.54 216.272 175.119 216.272 170.97V170.955C216.272 167.196 217.839 164.995 220.513 164.995C222.362 164.995 223.737 166.08 224.111 167.707L224.134 167.807H222.751L222.721 167.723C222.385 166.798 221.613 166.225 220.497 166.225C218.496 166.225 217.678 168.181 217.594 170.481C217.586 170.565 217.586 170.657 217.586 170.741H217.732C218.137 169.839 219.176 169.037 220.666 169.037C222.736 169.037 224.28 170.611 224.28 172.727V172.743C224.28 174.943 222.644 176.54 220.421 176.54ZM217.915 172.727C217.915 174.179 219.008 175.325 220.406 175.325C221.789 175.325 222.897 174.202 222.897 172.773V172.758C222.897 171.291 221.857 170.237 220.429 170.237C219 170.237 217.915 171.283 217.915 172.72V172.727ZM233.494 176.425C231.148 176.425 229.697 174.806 229.697 172.17V172.154C229.697 169.511 231.148 167.899 233.494 167.899C235.84 167.899 237.291 169.511 237.291 172.154V172.17C237.291 174.806 235.84 176.425 233.494 176.425ZM233.494 175.249C235.053 175.249 235.931 174.11 235.931 172.17V172.154C235.931 170.206 235.053 169.075 233.494 169.075C231.935 169.075 231.057 170.206 231.057 172.154V172.17C231.057 174.11 231.935 175.249 233.494 175.249ZM238.961 176.28V168.044H240.29V169.281H240.412C240.825 168.41 241.597 167.899 242.812 167.899C244.661 167.899 245.692 168.991 245.692 170.947V176.28H244.363V171.268C244.363 169.786 243.751 169.075 242.437 169.075C241.123 169.075 240.29 169.961 240.29 171.406V176.28H238.961ZM253.974 176.425C252.408 176.425 251.224 175.478 251.224 173.98V173.965C251.224 172.498 252.309 171.65 254.226 171.535L256.587 171.39V170.641C256.587 169.625 255.969 169.075 254.738 169.075C253.753 169.075 253.103 169.442 252.889 170.084L252.882 170.107H251.552L251.56 170.061C251.774 168.77 253.027 167.899 254.784 167.899C256.794 167.899 257.917 168.93 257.917 170.641V176.28H256.587V175.065H256.465C255.946 175.944 255.082 176.425 253.974 176.425ZM252.584 173.95C252.584 174.783 253.294 175.272 254.249 175.272C255.602 175.272 256.587 174.385 256.587 173.209V172.46L254.387 172.597C253.134 172.674 252.584 173.117 252.584 173.935V173.95ZM260.029 176.28V164.773H261.359V176.28H260.029ZM263.594 176.28V164.773H264.923V176.28H263.594ZM273.351 176.425C271.784 176.425 270.6 175.478 270.6 173.98V173.965C270.6 172.498 271.685 171.65 273.603 171.535L275.964 171.39V170.641C275.964 169.625 275.345 169.075 274.115 169.075C273.129 169.075 272.479 169.442 272.266 170.084L272.258 170.107H270.928L270.936 170.061C271.15 168.77 272.403 167.899 274.16 167.899C276.17 167.899 277.293 168.93 277.293 170.641V176.28H275.964V175.065H275.841C275.322 175.944 274.458 176.425 273.351 176.425ZM271.96 173.95C271.96 174.783 272.67 175.272 273.626 175.272C274.978 175.272 275.964 174.385 275.964 173.209V172.46L273.763 172.597C272.51 172.674 271.96 173.117 271.96 173.935V173.95ZM282.699 176.425C280.391 176.425 278.917 174.752 278.917 172.139V172.124C278.917 169.564 280.384 167.899 282.691 167.899C284.693 167.899 285.892 169.052 286.137 170.519L286.145 170.565H284.823L284.815 170.542C284.609 169.732 283.875 169.075 282.691 169.075C281.209 169.075 280.277 170.267 280.277 172.124V172.139C280.277 174.034 281.224 175.249 282.691 175.249C283.799 175.249 284.502 174.76 284.808 173.843L284.823 173.797L286.137 173.789L286.122 173.873C285.786 175.363 284.678 176.425 282.699 176.425ZM291.061 176.425C288.754 176.425 287.279 174.752 287.279 172.139V172.124C287.279 169.564 288.746 167.899 291.054 167.899C293.055 167.899 294.255 169.052 294.5 170.519L294.507 170.565H293.185L293.178 170.542C292.971 169.732 292.238 169.075 291.054 169.075C289.571 169.075 288.639 170.267 288.639 172.124V172.139C288.639 174.034 289.587 175.249 291.054 175.249C292.162 175.249 292.864 174.76 293.17 173.843L293.185 173.797L294.5 173.789L294.484 173.873C294.148 175.363 293.04 176.425 291.061 176.425ZM299.439 176.425C297.093 176.425 295.642 174.806 295.642 172.17V172.154C295.642 169.511 297.093 167.899 299.439 167.899C301.785 167.899 303.236 169.511 303.236 172.154V172.17C303.236 174.806 301.785 176.425 299.439 176.425ZM299.439 175.249C300.998 175.249 301.876 174.11 301.876 172.17V172.154C301.876 170.206 300.998 169.075 299.439 169.075C297.88 169.075 297.002 170.206 297.002 172.154V172.17C297.002 174.11 297.88 175.249 299.439 175.249ZM307.664 176.425C305.792 176.425 304.829 175.325 304.829 173.377V168.044H306.159V173.056C306.159 174.538 306.694 175.249 308.008 175.249C309.46 175.249 310.231 174.362 310.231 172.918V168.044H311.561V176.28H310.231V175.05H310.109C309.704 175.929 308.871 176.425 307.664 176.425ZM313.65 176.28V168.044H314.98V169.281H315.102C315.515 168.41 316.286 167.899 317.501 167.899C319.35 167.899 320.382 168.991 320.382 170.947V176.28H319.052V171.268C319.052 169.786 318.441 169.075 317.127 169.075C315.813 169.075 314.98 169.961 314.98 171.406V176.28H313.65ZM325.321 176.341C323.625 176.341 322.915 175.715 322.915 174.141V169.144H321.616V168.044H322.915V165.912H324.29V168.044H326.093V169.144H324.29V173.805C324.29 174.775 324.626 175.165 325.482 175.165C325.719 175.165 325.849 175.157 326.093 175.134V176.265C325.833 176.311 325.581 176.341 325.321 176.341ZM330.36 176.425C328.527 176.425 327.266 175.539 327.113 174.179H328.473C328.695 174.867 329.352 175.318 330.406 175.318C331.514 175.318 332.301 174.79 332.301 174.042V174.026C332.301 173.469 331.881 173.079 330.865 172.834L329.589 172.529C328.045 172.162 327.35 171.49 327.35 170.305V170.298C327.35 168.93 328.664 167.899 330.414 167.899C332.141 167.899 333.34 168.762 333.524 170.107H332.217C332.041 169.457 331.399 169.006 330.406 169.006C329.428 169.006 328.71 169.511 328.71 170.237V170.252C328.71 170.81 329.123 171.161 330.093 171.398L331.361 171.704C332.912 172.078 333.661 172.75 333.661 173.927V173.942C333.661 175.409 332.232 176.425 330.36 176.425ZM336.415 176.357C335.873 176.357 335.422 175.906 335.422 175.363C335.422 174.813 335.873 174.37 336.415 174.37C336.965 174.37 337.409 174.813 337.409 175.363C337.409 175.906 336.965 176.357 336.415 176.357Z" fill="#333333"/>
<rect opacity="0.4" x="18" y="199.4" width="5" height="60" rx="2.5" fill="#85BB2C"/>
<path d="M39.4526 223.48V211.502H47.3882V213.569H41.9595V216.458H47.0811V218.384H41.9595V221.414H47.3882V223.48H39.4526ZM49.3935 223.48V214.341H51.8173V215.752H51.9668C52.3818 214.765 53.2866 214.142 54.5898 214.142C56.6235 214.142 57.7192 215.387 57.7192 217.57V223.48H55.2954V218.118C55.2954 216.832 54.7641 216.151 53.6186 216.151C52.498 216.151 51.8173 216.956 51.8173 218.193V223.48H49.3935ZM63.7338 223.671C60.9198 223.671 59.2265 221.887 59.2265 218.915V218.898C59.2265 215.952 60.9447 214.142 63.7338 214.142C66.5229 214.142 68.2411 215.943 68.2411 218.898V218.915C68.2411 221.895 66.5478 223.671 63.7338 223.671ZM63.7338 221.771C65.0204 221.771 65.7592 220.716 65.7592 218.915V218.898C65.7592 217.114 65.0121 216.043 63.7338 216.043C62.4472 216.043 61.7084 217.114 61.7084 218.898V218.915C61.7084 220.716 62.4389 221.771 63.7338 221.771ZM72.8446 223.671C70.7943 223.671 69.7401 222.426 69.7401 220.251V214.341H72.1639V219.695C72.1639 220.99 72.6537 221.663 73.7992 221.663C74.9945 221.663 75.642 220.857 75.642 219.621V214.341H78.0658V223.48H75.642V222.069H75.4925C75.0775 223.065 74.1478 223.671 72.8446 223.671ZM84.1385 226.693C81.6068 226.693 80.1375 225.63 79.9383 224.078V224.037H82.3372L82.3455 224.07C82.4783 224.601 83.1092 224.966 84.1883 224.966C85.4832 224.966 86.2386 224.36 86.2386 223.298V221.596H86.0892C85.5828 222.559 84.6199 223.082 83.3499 223.082C81.0506 223.082 79.6312 221.306 79.6312 218.708V218.691C79.6312 216.001 81.0506 214.192 83.3914 214.192C84.6448 214.192 85.6243 214.806 86.1141 215.835H86.2303V214.341H88.6541V223.198C88.6541 225.34 86.9026 226.693 84.1385 226.693ZM84.1717 221.223C85.4832 221.223 86.2635 220.202 86.2635 218.699V218.683C86.2635 217.18 85.4749 216.159 84.1717 216.159C82.8685 216.159 82.1131 217.18 82.1131 218.683V218.699C82.1131 220.202 82.8602 221.223 84.1717 221.223ZM90.7674 223.48V210.847H93.1912V215.752H93.3406C93.7556 214.765 94.6604 214.142 95.9636 214.142C97.9973 214.142 99.093 215.387 99.093 217.57V223.48H96.6692V218.118C96.6692 216.832 96.138 216.151 94.9925 216.151C93.8718 216.151 93.1912 216.956 93.1912 218.193V223.48H90.7674ZM105.743 223.48V216.167H104.266V214.341H105.743V213.486C105.743 211.668 106.673 210.755 108.881 210.755C109.371 210.755 109.778 210.789 110.126 210.847V212.465C109.977 212.44 109.719 212.416 109.404 212.416C108.466 212.416 108.117 212.855 108.117 213.652V214.341H110.051V216.167H108.167V223.48H105.743ZM115.327 223.671C112.513 223.671 110.82 221.887 110.82 218.915V218.898C110.82 215.952 112.538 214.142 115.327 214.142C118.116 214.142 119.835 215.943 119.835 218.898V218.915C119.835 221.895 118.141 223.671 115.327 223.671ZM115.327 221.771C116.614 221.771 117.353 220.716 117.353 218.915V218.898C117.353 217.114 116.606 216.043 115.327 216.043C114.041 216.043 113.302 217.114 113.302 218.898V218.915C113.302 220.716 114.032 221.771 115.327 221.771ZM121.417 223.48V214.341H123.84V215.761H123.99C124.28 214.773 125.11 214.192 126.297 214.192C126.621 214.192 126.962 214.242 127.202 214.308V216.425C126.837 216.342 126.463 216.284 126.09 216.284C124.712 216.284 123.84 217.072 123.84 218.367V223.48H121.417ZM135.347 223.48V213.868H135.197L132.259 215.91V213.652L135.355 211.502H137.854V223.48H135.347ZM140.116 219.737V217.554H149.571V219.737H140.116ZM151.003 223.48V221.795L154.863 217.985C156.548 216.35 157.005 215.744 157.005 214.906V214.881C157.005 213.86 156.308 213.146 155.162 213.146C153.992 213.146 153.186 213.926 153.186 215.063V215.105H150.871L150.862 215.072C150.862 212.772 152.655 211.195 155.278 211.195C157.744 211.195 159.47 212.606 159.47 214.673V214.698C159.47 216.06 158.765 217.188 156.581 219.206L154.365 221.272V221.463H159.644V223.48H151.003ZM165.539 223.48V214.341H167.963V215.769H168.113C168.503 214.74 169.449 214.142 170.644 214.142C171.889 214.142 172.811 214.773 173.184 215.827H173.334C173.749 214.814 174.811 214.142 176.09 214.142C177.908 214.142 179.045 215.321 179.045 217.205V223.48H176.621V217.811C176.621 216.707 176.123 216.151 175.11 216.151C174.131 216.151 173.5 216.873 173.5 217.861V223.48H171.076V217.703C171.076 216.724 170.52 216.151 169.574 216.151C168.627 216.151 167.963 216.923 167.963 217.969V223.48H165.539ZM185.059 223.671C182.245 223.671 180.552 221.887 180.552 218.915V218.898C180.552 215.952 182.27 214.142 185.059 214.142C187.848 214.142 189.567 215.943 189.567 218.898V218.915C189.567 221.895 187.873 223.671 185.059 223.671ZM185.059 221.771C186.346 221.771 187.085 220.716 187.085 218.915V218.898C187.085 217.114 186.338 216.043 185.059 216.043C183.773 216.043 183.034 217.114 183.034 218.898V218.915C183.034 220.716 183.764 221.771 185.059 221.771ZM191.149 223.48V214.341H193.572V215.752H193.722C194.137 214.765 195.042 214.142 196.345 214.142C198.379 214.142 199.474 215.387 199.474 217.57V223.48H197.05V218.118C197.05 216.832 196.519 216.151 195.374 216.151C194.253 216.151 193.572 216.956 193.572 218.193V223.48H191.149ZM205.223 223.514C202.999 223.514 202.102 222.792 202.102 221.015V216.167H200.691V214.341H202.102V212.158H204.551V214.341H206.435V216.167H204.551V220.459C204.551 221.281 204.9 221.646 205.721 221.646C206.037 221.646 206.203 221.629 206.435 221.604V223.406C206.136 223.464 205.688 223.514 205.223 223.514ZM208.142 223.48V210.847H210.566V215.752H210.715C211.13 214.765 212.035 214.142 213.338 214.142C215.372 214.142 216.467 215.387 216.467 217.57V223.48H214.044V218.118C214.044 216.832 213.512 216.151 212.367 216.151C211.246 216.151 210.566 216.956 210.566 218.193V223.48H208.142ZM222.059 223.671C219.577 223.671 218.166 222.559 217.991 220.99L217.983 220.957H220.365L220.382 220.99C220.573 221.555 221.129 221.961 222.084 221.961C223.013 221.961 223.644 221.563 223.644 220.957V220.94C223.644 220.451 223.279 220.144 222.349 219.936L220.822 219.612C219.079 219.239 218.215 218.384 218.215 217.014V217.006C218.215 215.288 219.743 214.142 222.025 214.142C224.424 214.142 225.753 215.337 225.852 216.807V216.84H223.603L223.594 216.798C223.462 216.309 222.922 215.852 222.017 215.852C221.179 215.852 220.581 216.242 220.581 216.856V216.865C220.581 217.354 220.921 217.637 221.868 217.844L223.387 218.168C225.213 218.558 226.068 219.322 226.068 220.675V220.683C226.068 222.493 224.399 223.671 222.059 223.671Z" fill="#9299A2"/>
<path d="M39.2075 244.32V234.851H40.3888V244.32H39.2075ZM42.8055 244.32V238.191H41.6308V237.246H42.8055V236.458C42.8055 235.047 43.5142 234.372 44.8595 234.372C45.1352 234.372 45.3845 234.391 45.6208 234.437V235.349C45.483 235.323 45.2927 235.317 45.0892 235.317C44.2755 235.317 43.9474 235.717 43.9474 236.491V237.246H45.5552V238.191H43.9474V244.32H42.8055ZM50.9333 246.801C50.7824 246.801 50.5855 246.788 50.428 246.762V245.823C50.5658 245.849 50.743 245.856 50.9005 245.856C51.5502 245.856 51.9439 245.561 52.1999 244.747L52.3311 244.327L49.7127 237.246H50.9333L52.8758 243.067H52.9808L54.9167 237.246H56.1177L53.3549 244.753C52.7708 246.342 52.1867 246.801 50.9333 246.801ZM59.9453 244.445C57.9307 244.445 56.6838 243.054 56.6838 240.79V240.777C56.6838 238.506 57.9307 237.121 59.9453 237.121C61.96 237.121 63.2069 238.506 63.2069 240.777V240.79C63.2069 243.054 61.96 244.445 59.9453 244.445ZM59.9453 243.434C61.2841 243.434 62.0388 242.457 62.0388 240.79V240.777C62.0388 239.103 61.2841 238.132 59.9453 238.132C58.6066 238.132 57.8519 239.103 57.8519 240.777V240.79C57.8519 242.457 58.6066 243.434 59.9453 243.434ZM67.0214 244.445C65.4136 244.445 64.5868 243.5 64.5868 241.827V237.246H65.7286V241.551C65.7286 242.824 66.188 243.434 67.3168 243.434C68.5636 243.434 69.2264 242.673 69.2264 241.433V237.246H70.3683V244.32H69.2264V243.264H69.1214C68.7736 244.018 68.0583 244.445 67.0214 244.445ZM75.694 244.32V234.437H76.8358V240.337H76.9408L79.999 237.246H81.3836L78.2993 240.219L81.5871 244.32H80.1499L77.4986 240.993L76.8358 241.636V244.32H75.694ZM85.1588 244.445C83.1376 244.445 81.9169 243.027 81.9169 240.809V240.803C81.9169 238.617 83.1638 237.121 85.0866 237.121C87.0094 237.121 88.1776 238.552 88.1776 240.665V241.111H83.0851C83.1179 242.575 83.9251 243.428 85.1851 243.428C86.1432 243.428 86.7338 242.975 86.9241 242.548L86.9504 242.489H88.0922L88.0791 242.542C87.8363 243.5 86.8257 244.445 85.1588 244.445ZM85.0801 238.138C84.0301 238.138 83.2294 238.854 83.1047 240.199H87.016C86.8979 238.801 86.1235 238.138 85.0801 238.138ZM92.5105 244.445C90.4893 244.445 89.2687 243.027 89.2687 240.809V240.803C89.2687 238.617 90.5155 237.121 92.4383 237.121C94.3612 237.121 95.5293 238.552 95.5293 240.665V241.111H90.4368C90.4696 242.575 91.2768 243.428 92.5368 243.428C93.4949 243.428 94.0855 242.975 94.2758 242.548L94.3021 242.489H95.444L95.4308 242.542C95.188 243.5 94.1774 244.445 92.5105 244.445ZM92.4318 238.138C91.3818 238.138 90.5812 238.854 90.4565 240.199H94.3677C94.2496 238.801 93.4752 238.138 92.4318 238.138ZM96.9748 246.683V237.246H98.1166V238.375H98.2216C98.6548 237.587 99.4423 237.121 100.427 237.121C102.218 237.121 103.393 238.572 103.393 240.777V240.79C103.393 243.008 102.225 244.445 100.427 244.445C99.4554 244.445 98.6088 243.959 98.2216 243.205H98.1166V246.683H96.9748ZM100.164 243.434C101.457 243.434 102.225 242.437 102.225 240.79V240.777C102.225 239.129 101.457 238.132 100.164 238.132C98.8779 238.132 98.0904 239.142 98.0904 240.777V240.79C98.0904 242.424 98.8779 243.434 100.164 243.434ZM108.778 244.32V238.191H107.603V237.246H108.778V236.458C108.778 235.047 109.486 234.372 110.832 234.372C111.107 234.372 111.357 234.391 111.593 234.437V235.349C111.455 235.323 111.265 235.317 111.061 235.317C110.248 235.317 109.919 235.717 109.919 236.491V237.246H111.527V238.191H109.919V244.32H108.778ZM112.848 244.32V237.246H113.99V238.296H114.095C114.364 237.554 115.027 237.121 115.985 237.121C116.201 237.121 116.444 237.147 116.556 237.167V238.276C116.32 238.237 116.103 238.211 115.854 238.211C114.764 238.211 113.99 238.9 113.99 239.937V244.32H112.848ZM120.351 244.445C118.336 244.445 117.089 243.054 117.089 240.79V240.777C117.089 238.506 118.336 237.121 120.351 237.121C122.365 237.121 123.612 238.506 123.612 240.777V240.79C123.612 243.054 122.365 244.445 120.351 244.445ZM120.351 243.434C121.689 243.434 122.444 242.457 122.444 240.79V240.777C122.444 239.103 121.689 238.132 120.351 238.132C119.012 238.132 118.257 239.103 118.257 240.777V240.79C118.257 242.457 119.012 243.434 120.351 243.434ZM125.058 244.32V237.246H126.2V238.322H126.305C126.62 237.561 127.289 237.121 128.214 237.121C129.172 237.121 129.842 237.627 130.17 238.362H130.275C130.656 237.613 131.463 237.121 132.441 237.121C133.884 237.121 134.692 237.948 134.692 239.431V244.32H133.55V239.694C133.55 238.65 133.071 238.132 132.073 238.132C131.089 238.132 130.439 238.873 130.439 239.772V244.32H129.297V239.517C129.297 238.677 128.72 238.132 127.827 238.132C126.902 238.132 126.2 238.939 126.2 239.937V244.32H125.058ZM139.341 240.914V240.127H140.634C140.621 239.956 140.614 239.772 140.614 239.589V239.576C140.614 239.379 140.621 239.195 140.641 239.011H139.341V238.224H140.765C141.303 236.006 143.193 234.988 145.346 234.988C145.838 234.988 146.481 235.041 146.757 235.133V236.196C146.468 236.124 145.838 236.078 145.346 236.078C143.764 236.078 142.498 236.76 142.025 238.224H145.549V239.011H141.861C141.842 239.195 141.828 239.392 141.828 239.595V239.608C141.828 239.786 141.835 239.963 141.855 240.127H145.549V240.914H142.006C142.465 242.404 143.745 243.093 145.346 243.093C145.838 243.093 146.468 243.06 146.757 242.975V244.038C146.488 244.137 145.838 244.182 145.346 244.182C143.174 244.182 141.284 243.146 140.759 240.914H139.341ZM150.329 244.32V236.163H150.224L147.815 237.909V236.662L150.335 234.851H151.51V244.32H150.329ZM153.31 246.729L153.881 242.995H155.187L154.156 246.729H153.31ZM159.933 244.543C158.168 244.543 156.908 243.408 156.77 241.892L156.763 241.82H157.899L157.905 241.872C158.017 242.778 158.837 243.5 159.946 243.5C161.206 243.5 162.072 242.601 162.072 241.321V241.308C162.072 240.048 161.193 239.149 159.966 239.149C159.336 239.149 158.798 239.339 158.391 239.727C158.227 239.884 158.076 240.068 157.958 240.291H156.934L157.433 234.851H162.702V235.907H158.365L158.043 239.11H158.148C158.568 238.473 159.31 238.125 160.169 238.125C161.948 238.125 163.227 239.457 163.227 241.288V241.302C163.227 243.211 161.856 244.543 159.933 244.543ZM164.804 244.32V243.507L168.007 240.042C169.214 238.736 169.568 238.243 169.568 237.417V237.403C169.568 236.406 168.892 235.658 167.777 235.658C166.642 235.658 165.887 236.399 165.887 237.515L165.88 237.528L164.752 237.522L164.738 237.515C164.745 235.835 166.044 234.627 167.856 234.627C169.509 234.627 170.776 235.75 170.776 237.279V237.292C170.776 238.375 170.31 239.162 168.597 240.927L166.445 243.152V243.257H170.933V244.32H164.804ZM175.759 244.543C173.665 244.543 172.418 242.634 172.418 239.589V239.576C172.418 236.531 173.665 234.627 175.759 234.627C177.852 234.627 179.112 236.531 179.112 239.576V239.589C179.112 242.634 177.852 244.543 175.759 244.543ZM175.759 243.513C177.117 243.513 177.924 242.004 177.924 239.589V239.576C177.924 237.161 177.117 235.664 175.759 235.664C174.4 235.664 173.606 237.161 173.606 239.576V239.589C173.606 242.004 174.4 243.513 175.759 243.513ZM186.702 244.373C185.245 244.373 184.635 243.835 184.635 242.483V238.191H183.519V237.246H184.635V235.415H185.816V237.246H187.365V238.191H185.816V242.194C185.816 243.027 186.105 243.362 186.84 243.362C187.043 243.362 187.155 243.356 187.365 243.336V244.307C187.141 244.347 186.925 244.373 186.702 244.373ZM191.547 244.445C189.532 244.445 188.285 243.054 188.285 240.79V240.777C188.285 238.506 189.532 237.121 191.547 237.121C193.561 237.121 194.808 238.506 194.808 240.777V240.79C194.808 243.054 193.561 244.445 191.547 244.445ZM191.547 243.434C192.885 243.434 193.64 242.457 193.64 240.79V240.777C193.64 239.103 192.885 238.132 191.547 238.132C190.208 238.132 189.453 239.103 189.453 240.777V240.79C189.453 242.457 190.208 243.434 191.547 243.434ZM199.169 240.914V240.127H200.462C200.449 239.956 200.442 239.772 200.442 239.589V239.576C200.442 239.379 200.449 239.195 200.468 239.011H199.169V238.224H200.593C201.131 236.006 203.021 234.988 205.174 234.988C205.666 234.988 206.309 235.041 206.585 235.133V236.196C206.296 236.124 205.666 236.078 205.174 236.078C203.592 236.078 202.326 236.76 201.853 238.224H205.377V239.011H201.689C201.669 239.195 201.656 239.392 201.656 239.595V239.608C201.656 239.786 201.663 239.963 201.683 240.127H205.377V240.914H201.833C202.293 242.404 203.573 243.093 205.174 243.093C205.666 243.093 206.296 243.06 206.585 242.975V244.038C206.316 244.137 205.666 244.182 205.174 244.182C203.002 244.182 201.112 243.146 200.587 240.914H199.169ZM211.062 244.478C209.106 244.478 207.84 243.388 207.715 241.892L207.709 241.813H208.844L208.85 241.879C208.942 242.811 209.802 243.454 211.062 243.454C212.302 243.454 213.149 242.758 213.149 241.754V241.741C213.149 240.58 212.315 239.93 210.99 239.93H209.802V238.932H210.937C212.066 238.932 212.854 238.237 212.854 237.292V237.279C212.854 236.288 212.204 235.717 211.049 235.717C209.933 235.717 209.139 236.307 209.041 237.266L209.034 237.331H207.899L207.905 237.266C208.056 235.723 209.277 234.693 211.049 234.693C212.854 234.693 214.041 235.697 214.041 237.134V237.147C214.041 238.316 213.215 239.116 212.033 239.366V239.392C213.411 239.51 214.35 240.37 214.35 241.715V241.728C214.35 243.31 212.959 244.478 211.062 244.478ZM215.198 246.729L215.769 242.995H217.075L216.045 246.729H215.198ZM221.789 244.543C219.695 244.543 218.448 242.634 218.448 239.589V239.576C218.448 236.531 219.695 234.627 221.789 234.627C223.882 234.627 225.142 236.531 225.142 239.576V239.589C225.142 242.634 223.882 244.543 221.789 244.543ZM221.789 243.513C223.147 243.513 223.954 242.004 223.954 239.589V239.576C223.954 237.161 223.147 235.664 221.789 235.664C220.43 235.664 219.636 237.161 219.636 239.576V239.589C219.636 242.004 220.43 243.513 221.789 243.513ZM231.083 244.32V242.358H226.469V241.282C227.749 239.136 229.199 236.826 230.525 234.851H232.238V241.302H233.583V242.358H232.238V244.32H231.083ZM227.677 241.308H231.089V235.947H231.011C229.948 237.535 228.707 239.49 227.677 241.229V241.308ZM238.251 244.543C236.157 244.543 234.911 242.634 234.911 239.589V239.576C234.911 236.531 236.157 234.627 238.251 234.627C240.344 234.627 241.604 236.531 241.604 239.576V239.589C241.604 242.634 240.344 244.543 238.251 244.543ZM238.251 243.513C239.609 243.513 240.416 242.004 240.416 239.589V239.576C240.416 237.161 239.609 235.664 238.251 235.664C236.892 235.664 236.098 237.161 236.098 239.576V239.589C236.098 242.004 236.892 243.513 238.251 243.513ZM249.588 244.445C247.573 244.445 246.326 243.054 246.326 240.79V240.777C246.326 238.506 247.573 237.121 249.588 237.121C251.602 237.121 252.849 238.506 252.849 240.777V240.79C252.849 243.054 251.602 244.445 249.588 244.445ZM249.588 243.434C250.926 243.434 251.681 242.457 251.681 240.79V240.777C251.681 239.103 250.926 238.132 249.588 238.132C248.249 238.132 247.494 239.103 247.494 240.777V240.79C247.494 242.457 248.249 243.434 249.588 243.434ZM254.295 244.32V237.246H255.437V238.309H255.542C255.896 237.561 256.559 237.121 257.602 237.121C259.19 237.121 260.076 238.06 260.076 239.74V244.32H258.934V240.015C258.934 238.742 258.409 238.132 257.281 238.132C256.152 238.132 255.437 238.893 255.437 240.133V244.32H254.295ZM267.213 244.445C265.868 244.445 264.851 243.631 264.851 242.345V242.332C264.851 241.072 265.783 240.343 267.43 240.245L269.458 240.12V239.477C269.458 238.604 268.926 238.132 267.869 238.132C267.023 238.132 266.465 238.447 266.281 238.998L266.275 239.018H265.133L265.139 238.978C265.323 237.869 266.399 237.121 267.909 237.121C269.635 237.121 270.599 238.007 270.599 239.477V244.32H269.458V243.277H269.353C268.906 244.032 268.165 244.445 267.213 244.445ZM266.019 242.319C266.019 243.034 266.629 243.454 267.449 243.454C268.611 243.454 269.458 242.693 269.458 241.682V241.039L267.568 241.157C266.491 241.223 266.019 241.603 266.019 242.306V242.319ZM272.426 244.32V234.437H273.567V244.32H272.426ZM275.499 244.32V234.437H276.64V244.32H275.499ZM283.902 244.445C282.557 244.445 281.539 243.631 281.539 242.345V242.332C281.539 241.072 282.471 240.343 284.119 240.245L286.146 240.12V239.477C286.146 238.604 285.615 238.132 284.558 238.132C283.712 238.132 283.154 238.447 282.97 238.998L282.964 239.018H281.822L281.828 238.978C282.012 237.869 283.088 237.121 284.598 237.121C286.324 237.121 287.288 238.007 287.288 239.477V244.32H286.146V243.277H286.041C285.595 244.032 284.854 244.445 283.902 244.445ZM282.708 242.319C282.708 243.034 283.318 243.454 284.138 243.454C285.3 243.454 286.146 242.693 286.146 241.682V241.039L284.256 241.157C283.18 241.223 282.708 241.603 282.708 242.306V242.319ZM291.943 244.445C289.961 244.445 288.694 243.008 288.694 240.763V240.75C288.694 238.552 289.954 237.121 291.936 237.121C293.656 237.121 294.686 238.112 294.896 239.372L294.902 239.412H293.767L293.761 239.392C293.583 238.696 292.953 238.132 291.936 238.132C290.663 238.132 289.862 239.156 289.862 240.75V240.763C289.862 242.391 290.676 243.434 291.936 243.434C292.888 243.434 293.492 243.014 293.754 242.227L293.767 242.187L294.896 242.181L294.883 242.253C294.594 243.533 293.642 244.445 291.943 244.445ZM299.137 244.445C297.155 244.445 295.889 243.008 295.889 240.763V240.75C295.889 238.552 297.149 237.121 299.13 237.121C300.85 237.121 301.88 238.112 302.09 239.372L302.097 239.412H300.961L300.955 239.392C300.778 238.696 300.148 238.132 299.13 238.132C297.857 238.132 297.057 239.156 297.057 240.75V240.763C297.057 242.391 297.87 243.434 299.13 243.434C300.082 243.434 300.686 243.014 300.948 242.227L300.961 242.187L302.09 242.181L302.077 242.253C301.788 243.533 300.837 244.445 299.137 244.445ZM306.344 244.445C304.33 244.445 303.083 243.054 303.083 240.79V240.777C303.083 238.506 304.33 237.121 306.344 237.121C308.359 237.121 309.606 238.506 309.606 240.777V240.79C309.606 243.054 308.359 244.445 306.344 244.445ZM306.344 243.434C307.683 243.434 308.438 242.457 308.438 240.79V240.777C308.438 239.103 307.683 238.132 306.344 238.132C305.006 238.132 304.251 239.103 304.251 240.777V240.79C304.251 242.457 305.006 243.434 306.344 243.434ZM313.42 244.445C311.813 244.445 310.986 243.5 310.986 241.827V237.246H312.128V241.551C312.128 242.824 312.587 243.434 313.716 243.434C314.963 243.434 315.625 242.673 315.625 241.433V237.246H316.767V244.32H315.625V243.264H315.52C315.173 244.018 314.457 244.445 313.42 244.445ZM318.574 244.32V237.246H319.716V238.309H319.821C320.175 237.561 320.838 237.121 321.881 237.121C323.469 237.121 324.355 238.06 324.355 239.74V244.32H323.213V240.015C323.213 238.742 322.688 238.132 321.56 238.132C320.431 238.132 319.716 238.893 319.716 240.133V244.32H318.574ZM328.61 244.373C327.153 244.373 326.542 243.835 326.542 242.483V238.191H325.427V237.246H326.542V235.415H327.724V237.246H329.272V238.191H327.724V242.194C327.724 243.027 328.012 243.362 328.747 243.362C328.951 243.362 329.062 243.356 329.272 243.336V244.307C329.049 244.347 328.833 244.373 328.61 244.373ZM332.949 244.445C331.374 244.445 330.291 243.684 330.16 242.516H331.328C331.518 243.106 332.083 243.493 332.988 243.493C333.94 243.493 334.616 243.041 334.616 242.397V242.384C334.616 241.905 334.255 241.571 333.382 241.361L332.286 241.098C330.961 240.783 330.363 240.206 330.363 239.188V239.182C330.363 238.007 331.492 237.121 332.995 237.121C334.478 237.121 335.508 237.863 335.666 239.018H334.544C334.393 238.46 333.842 238.073 332.988 238.073C332.148 238.073 331.532 238.506 331.532 239.129V239.142C331.532 239.622 331.886 239.923 332.719 240.127L333.809 240.389C335.141 240.711 335.784 241.288 335.784 242.299V242.312C335.784 243.572 334.557 244.445 332.949 244.445ZM338.161 244.386C337.695 244.386 337.308 243.999 337.308 243.533C337.308 243.06 337.695 242.68 338.161 242.68C338.634 242.68 339.015 243.06 339.015 243.533C339.015 243.999 338.634 244.386 338.161 244.386Z" fill="#9299A2"/>
<rect opacity="0.4" x="18" y="264.4" width="5" height="60" rx="2.5" fill="#FCD375"/>
<path d="M39.4526 288.48V276.502H47.3882V278.569H41.9595V281.458H47.0811V283.384H41.9595V286.414H47.3882V288.48H39.4526ZM49.3935 288.48V279.341H51.8173V280.752H51.9668C52.3818 279.765 53.2866 279.142 54.5898 279.142C56.6235 279.142 57.7192 280.387 57.7192 282.57V288.48H55.2954V283.118C55.2954 281.832 54.7641 281.151 53.6186 281.151C52.498 281.151 51.8173 281.956 51.8173 283.193V288.48H49.3935ZM63.7338 288.671C60.9198 288.671 59.2265 286.887 59.2265 283.915V283.898C59.2265 280.952 60.9447 279.142 63.7338 279.142C66.5229 279.142 68.2411 280.943 68.2411 283.898V283.915C68.2411 286.895 66.5478 288.671 63.7338 288.671ZM63.7338 286.771C65.0204 286.771 65.7592 285.716 65.7592 283.915V283.898C65.7592 282.114 65.0121 281.043 63.7338 281.043C62.4472 281.043 61.7084 282.114 61.7084 283.898V283.915C61.7084 285.716 62.4389 286.771 63.7338 286.771ZM72.8446 288.671C70.7943 288.671 69.7401 287.426 69.7401 285.251V279.341H72.1639V284.695C72.1639 285.99 72.6537 286.663 73.7992 286.663C74.9945 286.663 75.642 285.857 75.642 284.621V279.341H78.0658V288.48H75.642V287.069H75.4925C75.0775 288.065 74.1478 288.671 72.8446 288.671ZM84.1385 291.693C81.6068 291.693 80.1375 290.63 79.9383 289.078V289.037H82.3372L82.3455 289.07C82.4783 289.601 83.1092 289.966 84.1883 289.966C85.4832 289.966 86.2386 289.36 86.2386 288.298V286.596H86.0892C85.5828 287.559 84.6199 288.082 83.3499 288.082C81.0506 288.082 79.6312 286.306 79.6312 283.708V283.691C79.6312 281.001 81.0506 279.192 83.3914 279.192C84.6448 279.192 85.6243 279.806 86.1141 280.835H86.2303V279.341H88.6541V288.198C88.6541 290.34 86.9026 291.693 84.1385 291.693ZM84.1717 286.223C85.4832 286.223 86.2635 285.202 86.2635 283.699V283.683C86.2635 282.18 85.4749 281.159 84.1717 281.159C82.8685 281.159 82.1131 282.18 82.1131 283.683V283.699C82.1131 285.202 82.8602 286.223 84.1717 286.223ZM90.7674 288.48V275.847H93.1912V280.752H93.3406C93.7556 279.765 94.6604 279.142 95.9636 279.142C97.9973 279.142 99.093 280.387 99.093 282.57V288.48H96.6692V283.118C96.6692 281.832 96.138 281.151 94.9925 281.151C93.8718 281.151 93.1912 281.956 93.1912 283.193V288.48H90.7674ZM105.743 288.48V281.167H104.266V279.341H105.743V278.486C105.743 276.668 106.673 275.755 108.881 275.755C109.371 275.755 109.778 275.789 110.126 275.847V277.465C109.977 277.44 109.719 277.416 109.404 277.416C108.466 277.416 108.117 277.855 108.117 278.652V279.341H110.051V281.167H108.167V288.48H105.743ZM115.327 288.671C112.513 288.671 110.82 286.887 110.82 283.915V283.898C110.82 280.952 112.538 279.142 115.327 279.142C118.116 279.142 119.835 280.943 119.835 283.898V283.915C119.835 286.895 118.141 288.671 115.327 288.671ZM115.327 286.771C116.614 286.771 117.353 285.716 117.353 283.915V283.898C117.353 282.114 116.606 281.043 115.327 281.043C114.041 281.043 113.302 282.114 113.302 283.898V283.915C113.302 285.716 114.032 286.771 115.327 286.771ZM121.417 288.48V279.341H123.84V280.761H123.99C124.28 279.773 125.11 279.192 126.297 279.192C126.621 279.192 126.962 279.242 127.202 279.308V281.425C126.837 281.342 126.463 281.284 126.09 281.284C124.712 281.284 123.84 282.072 123.84 283.367V288.48H121.417ZM132.5 288.48V275.847H134.923V288.48H132.5ZM141.054 288.671C138.273 288.671 136.588 286.854 136.588 283.923V283.915C136.588 281.01 138.29 279.142 140.955 279.142C143.619 279.142 145.279 280.968 145.279 283.732V284.488H138.987C139.012 285.99 139.817 286.862 141.104 286.862C142.166 286.862 142.756 286.297 142.922 285.949L142.947 285.899H145.205L145.188 285.982C144.906 287.127 143.727 288.671 141.054 288.671ZM140.996 280.96C139.942 280.96 139.162 281.674 139.012 282.969H142.955C142.806 281.641 142.05 280.96 140.996 280.96ZM150.505 288.671C148.023 288.671 146.612 287.559 146.438 285.99L146.43 285.957H148.812L148.829 285.99C149.019 286.555 149.576 286.961 150.53 286.961C151.46 286.961 152.091 286.563 152.091 285.957V285.94C152.091 285.451 151.725 285.144 150.796 284.936L149.268 284.612C147.525 284.239 146.662 283.384 146.662 282.014V282.006C146.662 280.288 148.189 279.142 150.472 279.142C152.871 279.142 154.199 280.337 154.299 281.807V281.84H152.049L152.041 281.798C151.908 281.309 151.369 280.852 150.464 280.852C149.625 280.852 149.028 281.242 149.028 281.856V281.865C149.028 282.354 149.368 282.637 150.314 282.844L151.833 283.168C153.66 283.558 154.515 284.322 154.515 285.675V285.683C154.515 287.493 152.846 288.671 150.505 288.671ZM159.575 288.671C157.093 288.671 155.681 287.559 155.507 285.99L155.499 285.957H157.881L157.898 285.99C158.089 286.555 158.645 286.961 159.599 286.961C160.529 286.961 161.16 286.563 161.16 285.957V285.94C161.16 285.451 160.795 285.144 159.865 284.936L158.338 284.612C156.595 284.239 155.731 283.384 155.731 282.014V282.006C155.731 280.288 157.259 279.142 159.541 279.142C161.94 279.142 163.268 280.337 163.368 281.807V281.84H161.119L161.11 281.798C160.977 281.309 160.438 280.852 159.533 280.852C158.695 280.852 158.097 281.242 158.097 281.856V281.865C158.097 282.354 158.437 282.637 159.384 282.844L160.903 283.168C162.729 283.558 163.584 284.322 163.584 285.675V285.683C163.584 287.493 161.915 288.671 159.575 288.671ZM172.957 288.514C170.732 288.514 169.836 287.792 169.836 286.015V281.167H168.425V279.341H169.836V277.158H172.284V279.341H174.169V281.167H172.284V285.459C172.284 286.281 172.633 286.646 173.455 286.646C173.77 286.646 173.936 286.629 174.169 286.604V288.406C173.87 288.464 173.422 288.514 172.957 288.514ZM175.875 288.48V275.847H178.299V280.752H178.448C178.863 279.765 179.768 279.142 181.071 279.142C183.105 279.142 184.201 280.387 184.201 282.57V288.48H181.777V283.118C181.777 281.832 181.246 281.151 180.1 281.151C178.98 281.151 178.299 281.956 178.299 283.193V288.48H175.875ZM188.647 288.622C186.903 288.622 185.667 287.542 185.667 285.882V285.866C185.667 284.222 186.937 283.259 189.211 283.126L191.419 282.994V282.238C191.419 281.45 190.88 281.001 189.883 281.001C189.012 281.001 188.456 281.309 188.265 281.848L188.248 281.881H186.007L186.015 281.807C186.206 280.205 187.717 279.142 190.016 279.142C192.44 279.142 193.81 280.288 193.81 282.238V288.48H191.419V287.269H191.27C190.805 288.115 189.842 288.622 188.647 288.622ZM188.032 285.733C188.032 286.43 188.622 286.854 189.46 286.854C190.581 286.854 191.419 286.115 191.419 285.152V284.479L189.576 284.596C188.539 284.662 188.032 285.052 188.032 285.716V285.733ZM195.79 288.48V279.341H198.214V280.752H198.363C198.778 279.765 199.683 279.142 200.986 279.142C203.02 279.142 204.116 280.387 204.116 282.57V288.48H201.692V283.118C201.692 281.832 201.161 281.151 200.015 281.151C198.895 281.151 198.214 281.956 198.214 283.193V288.48H195.79ZM212.551 288.622C210.808 288.622 209.571 287.542 209.571 285.882V285.866C209.571 284.222 210.841 283.259 213.115 283.126L215.323 282.994V282.238C215.323 281.45 214.784 281.001 213.788 281.001C212.916 281.001 212.36 281.309 212.169 281.848L212.152 281.881H209.911L209.919 281.807C210.11 280.205 211.621 279.142 213.92 279.142C216.344 279.142 217.714 280.288 217.714 282.238V288.48H215.323V287.269H215.174C214.709 288.115 213.746 288.622 212.551 288.622ZM211.937 285.733C211.937 286.43 212.526 286.854 213.364 286.854C214.485 286.854 215.323 286.115 215.323 285.152V284.479L213.48 284.596C212.443 284.662 211.937 285.052 211.937 285.716V285.733ZM223.684 288.48V279.341H226.107V280.769H226.257C226.647 279.74 227.593 279.142 228.789 279.142C230.034 279.142 230.955 279.773 231.329 280.827H231.478C231.893 279.814 232.956 279.142 234.234 279.142C236.052 279.142 237.189 280.321 237.189 282.205V288.48H234.765V282.811C234.765 281.707 234.267 281.151 233.254 281.151C232.275 281.151 231.644 281.873 231.644 282.861V288.48H229.22V282.703C229.22 281.724 228.664 281.151 227.718 281.151C226.771 281.151 226.107 281.923 226.107 282.969V288.48H223.684ZM243.204 288.671C240.39 288.671 238.696 286.887 238.696 283.915V283.898C238.696 280.952 240.414 279.142 243.204 279.142C245.993 279.142 247.711 280.943 247.711 283.898V283.915C247.711 286.895 246.017 288.671 243.204 288.671ZM243.204 286.771C244.49 286.771 245.229 285.716 245.229 283.915V283.898C245.229 282.114 244.482 281.043 243.204 281.043C241.917 281.043 241.178 282.114 241.178 283.898V283.915C241.178 285.716 241.909 286.771 243.204 286.771ZM249.293 288.48V279.341H251.717V280.752H251.866C252.281 279.765 253.186 279.142 254.489 279.142C256.523 279.142 257.618 280.387 257.618 282.57V288.48H255.195V283.118C255.195 281.832 254.663 281.151 253.518 281.151C252.397 281.151 251.717 281.956 251.717 283.193V288.48H249.293ZM263.367 288.514C261.143 288.514 260.246 287.792 260.246 286.015V281.167H258.835V279.341H260.246V277.158H262.695V279.341H264.579V281.167H262.695V285.459C262.695 286.281 263.044 286.646 263.866 286.646C264.181 286.646 264.347 286.629 264.579 286.604V288.406C264.281 288.464 263.832 288.514 263.367 288.514ZM266.286 288.48V275.847H268.71V280.752H268.859C269.274 279.765 270.179 279.142 271.482 279.142C273.516 279.142 274.612 280.387 274.612 282.57V288.48H272.188V283.118C272.188 281.832 271.656 281.151 270.511 281.151C269.39 281.151 268.71 281.956 268.71 283.193V288.48H266.286Z" fill="#9299A2"/>
<path d="M39.2075 309.32V299.851H40.3888V309.32H39.2075ZM42.9015 309.32V303.191H41.7268V302.246H42.9015V301.458C42.9015 300.047 43.6102 299.372 44.9555 299.372C45.2312 299.372 45.4805 299.391 45.7168 299.437V300.349C45.579 300.323 45.3887 300.317 45.1852 300.317C44.3715 300.317 44.0434 300.717 44.0434 301.491V302.246H45.6512V303.191H44.0434V309.32H42.9015ZM51.2213 311.801C51.0704 311.801 50.8735 311.788 50.716 311.762V310.823C50.8538 310.849 51.031 310.856 51.1885 310.856C51.8382 310.856 52.2319 310.561 52.4879 309.747L52.6191 309.327L50.0007 302.246H51.2213L53.1638 308.067H53.2688L55.2047 302.246H56.4057L53.6429 309.753C53.0588 311.342 52.4747 311.801 51.2213 311.801ZM60.3293 309.445C58.3147 309.445 57.0678 308.054 57.0678 305.79V305.777C57.0678 303.506 58.3147 302.121 60.3293 302.121C62.344 302.121 63.5909 303.506 63.5909 305.777V305.79C63.5909 308.054 62.344 309.445 60.3293 309.445ZM60.3293 308.434C61.6681 308.434 62.4228 307.457 62.4228 305.79V305.777C62.4228 304.103 61.6681 303.132 60.3293 303.132C58.9906 303.132 58.2359 304.103 58.2359 305.777V305.79C58.2359 307.457 58.9906 308.434 60.3293 308.434ZM67.5014 309.445C65.8936 309.445 65.0668 308.5 65.0668 306.827V302.246H66.2086V306.551C66.2086 307.824 66.668 308.434 67.7968 308.434C69.0436 308.434 69.7064 307.673 69.7064 306.433V302.246H70.8483V309.32H69.7064V308.264H69.6014C69.2536 309.018 68.5383 309.445 67.5014 309.445ZM76.366 309.32V299.437H77.5078V305.337H77.6128L80.671 302.246H82.0556L78.9713 305.219L82.2591 309.32H80.8219L78.1706 305.993L77.5078 306.636V309.32H76.366ZM85.9268 309.445C83.9056 309.445 82.6849 308.027 82.6849 305.809V305.803C82.6849 303.617 83.9318 302.121 85.8546 302.121C87.7774 302.121 88.9456 303.552 88.9456 305.665V306.111H83.8531C83.8859 307.575 84.6931 308.428 85.9531 308.428C86.9112 308.428 87.5018 307.975 87.6921 307.548L87.7184 307.489H88.8602L88.8471 307.542C88.6043 308.5 87.5937 309.445 85.9268 309.445ZM85.8481 303.138C84.7981 303.138 83.9974 303.854 83.8727 305.199H87.784C87.6659 303.801 86.8915 303.138 85.8481 303.138ZM93.3745 309.445C91.3533 309.445 90.1327 308.027 90.1327 305.809V305.803C90.1327 303.617 91.3795 302.121 93.3023 302.121C95.2252 302.121 96.3933 303.552 96.3933 305.665V306.111H91.3008C91.3336 307.575 92.1408 308.428 93.4008 308.428C94.3589 308.428 94.9495 307.975 95.1398 307.548L95.1661 307.489H96.308L96.2948 307.542C96.052 308.5 95.0414 309.445 93.3745 309.445ZM93.2958 303.138C92.2458 303.138 91.4452 303.854 91.3205 305.199H95.2317C95.1136 303.801 94.3392 303.138 93.2958 303.138ZM97.9348 311.683V302.246H99.0766V303.375H99.1816C99.6148 302.587 100.402 302.121 101.387 302.121C103.178 302.121 104.353 303.572 104.353 305.777V305.79C104.353 308.008 103.185 309.445 101.387 309.445C100.415 309.445 99.5688 308.959 99.1816 308.205H99.0766V311.683H97.9348ZM101.124 308.434C102.417 308.434 103.185 307.437 103.185 305.79V305.777C103.185 304.129 102.417 303.132 101.124 303.132C99.8379 303.132 99.0504 304.142 99.0504 305.777V305.79C99.0504 307.424 99.8379 308.434 101.124 308.434ZM108.919 305.914V305.127H110.212C110.199 304.956 110.192 304.772 110.192 304.589V304.576C110.192 304.379 110.199 304.195 110.218 304.011H108.919V303.224H110.343C110.881 301.006 112.771 299.988 114.924 299.988C115.416 299.988 116.059 300.041 116.335 300.133V301.196C116.046 301.124 115.416 301.078 114.924 301.078C113.342 301.078 112.076 301.76 111.603 303.224H115.127V304.011H111.439C111.419 304.195 111.406 304.392 111.406 304.595V304.608C111.406 304.786 111.413 304.963 111.432 305.127H115.127V305.914H111.583C112.043 307.404 113.322 308.093 114.924 308.093C115.416 308.093 116.046 308.06 116.335 307.975V309.038C116.066 309.137 115.416 309.182 114.924 309.182C112.751 309.182 110.861 308.146 110.336 305.914H108.919ZM120.002 309.32V301.163H119.897L117.489 302.909V301.662L120.009 299.851H121.184V309.32H120.002ZM123.079 311.729L123.65 307.995H124.956L123.926 311.729H123.079ZM129.799 309.543C128.033 309.543 126.773 308.408 126.636 306.892L126.629 306.82H127.764L127.771 306.872C127.882 307.778 128.703 308.5 129.812 308.5C131.072 308.5 131.938 307.601 131.938 306.321V306.308C131.938 305.048 131.059 304.149 129.832 304.149C129.202 304.149 128.663 304.339 128.257 304.727C128.092 304.884 127.942 305.068 127.823 305.291H126.8L127.298 299.851H132.568V300.907H128.23L127.909 304.11H128.014C128.434 303.473 129.175 303.125 130.035 303.125C131.813 303.125 133.093 304.457 133.093 306.288V306.302C133.093 308.211 131.722 309.543 129.799 309.543ZM134.766 309.32V308.507L137.968 305.042C139.176 303.736 139.53 303.243 139.53 302.417V302.403C139.53 301.406 138.854 300.658 137.739 300.658C136.603 300.658 135.849 301.399 135.849 302.515L135.842 302.528L134.713 302.522L134.7 302.515C134.707 300.835 136.006 299.627 137.817 299.627C139.471 299.627 140.738 300.75 140.738 302.279V302.292C140.738 303.375 140.272 304.162 138.559 305.927L136.406 308.152V308.257H140.895V309.32H134.766ZM145.816 309.543C143.723 309.543 142.476 307.634 142.476 304.589V304.576C142.476 301.531 143.723 299.627 145.816 299.627C147.91 299.627 149.17 301.531 149.17 304.576V304.589C149.17 307.634 147.91 309.543 145.816 309.543ZM145.816 308.513C147.175 308.513 147.982 307.004 147.982 304.589V304.576C147.982 302.161 147.175 300.664 145.816 300.664C144.458 300.664 143.664 302.161 143.664 304.576V304.589C143.664 307.004 144.458 308.513 145.816 308.513ZM157.345 309.445C155.331 309.445 154.084 308.054 154.084 305.79V305.777C154.084 303.506 155.331 302.121 157.345 302.121C159.36 302.121 160.607 303.506 160.607 305.777V305.79C160.607 308.054 159.36 309.445 157.345 309.445ZM157.345 308.434C158.684 308.434 159.439 307.457 159.439 305.79V305.777C159.439 304.103 158.684 303.132 157.345 303.132C156.006 303.132 155.252 304.103 155.252 305.777V305.79C155.252 307.457 156.006 308.434 157.345 308.434ZM162.148 309.32V302.246H163.29V303.296H163.395C163.664 302.554 164.327 302.121 165.285 302.121C165.502 302.121 165.745 302.147 165.856 302.167V303.276C165.62 303.237 165.403 303.211 165.154 303.211C164.065 303.211 163.29 303.9 163.29 304.937V309.32H162.148ZM170.652 309.32V299.437H171.794V309.32H170.652ZM176.643 309.445C174.621 309.445 173.401 308.027 173.401 305.809V305.803C173.401 303.617 174.648 302.121 176.571 302.121C178.493 302.121 179.661 303.552 179.661 305.665V306.111H174.569C174.602 307.575 175.409 308.428 176.669 308.428C177.627 308.428 178.218 307.975 178.408 307.548L178.434 307.489H179.576L179.563 307.542C179.32 308.5 178.31 309.445 176.643 309.445ZM176.564 303.138C175.514 303.138 174.713 303.854 174.589 305.199H178.5C178.382 303.801 177.607 303.138 176.564 303.138ZM183.631 309.445C182.056 309.445 180.973 308.684 180.842 307.516H182.01C182.2 308.106 182.765 308.493 183.67 308.493C184.622 308.493 185.298 308.041 185.298 307.397V307.384C185.298 306.905 184.937 306.571 184.064 306.361L182.968 306.098C181.643 305.783 181.045 305.206 181.045 304.188V304.182C181.045 303.007 182.174 302.121 183.677 302.121C185.16 302.121 186.19 302.863 186.348 304.018H185.226C185.075 303.46 184.524 303.073 183.67 303.073C182.83 303.073 182.214 303.506 182.214 304.129V304.142C182.214 304.622 182.568 304.923 183.401 305.127L184.491 305.389C185.823 305.711 186.466 306.288 186.466 307.299V307.312C186.466 308.572 185.239 309.445 183.631 309.445ZM190.304 309.445C188.729 309.445 187.647 308.684 187.515 307.516H188.683C188.874 308.106 189.438 308.493 190.344 308.493C191.295 308.493 191.971 308.041 191.971 307.397V307.384C191.971 306.905 191.61 306.571 190.738 306.361L189.642 306.098C188.316 305.783 187.719 305.206 187.719 304.188V304.182C187.719 303.007 188.848 302.121 190.35 302.121C191.833 302.121 192.864 302.863 193.021 304.018H191.899C191.748 303.46 191.197 303.073 190.344 303.073C189.504 303.073 188.887 303.506 188.887 304.129V304.142C188.887 304.622 189.241 304.923 190.075 305.127L191.164 305.389C192.496 305.711 193.139 306.288 193.139 307.299V307.312C193.139 308.572 191.912 309.445 190.304 309.445ZM201.138 309.445C199.123 309.445 197.876 308.054 197.876 305.79V305.777C197.876 303.506 199.123 302.121 201.138 302.121C203.152 302.121 204.399 303.506 204.399 305.777V305.79C204.399 308.054 203.152 309.445 201.138 309.445ZM201.138 308.434C202.476 308.434 203.231 307.457 203.231 305.79V305.777C203.231 304.103 202.476 303.132 201.138 303.132C199.799 303.132 199.044 304.103 199.044 305.777V305.79C199.044 307.457 199.799 308.434 201.138 308.434ZM205.941 309.32V302.246H207.083V303.309H207.188C207.542 302.561 208.205 302.121 209.248 302.121C210.836 302.121 211.722 303.06 211.722 304.74V309.32H210.58V305.015C210.58 303.742 210.055 303.132 208.927 303.132C207.798 303.132 207.083 303.893 207.083 305.133V309.32H205.941ZM219.051 309.445C217.706 309.445 216.689 308.631 216.689 307.345V307.332C216.689 306.072 217.621 305.343 219.268 305.245L221.296 305.12V304.477C221.296 303.604 220.764 303.132 219.707 303.132C218.861 303.132 218.303 303.447 218.119 303.998L218.113 304.018H216.971L216.977 303.978C217.161 302.869 218.237 302.121 219.747 302.121C221.473 302.121 222.437 303.007 222.437 304.477V309.32H221.296V308.277H221.191C220.744 309.032 220.003 309.445 219.051 309.445ZM217.857 307.319C217.857 308.034 218.467 308.454 219.287 308.454C220.449 308.454 221.296 307.693 221.296 306.682V306.039L219.406 306.157C218.329 306.223 217.857 306.603 217.857 307.306V307.319ZM224.359 309.32V299.437H225.501V309.32H224.359ZM227.528 309.32V299.437H228.67V309.32H227.528ZM236.124 309.445C234.779 309.445 233.761 308.631 233.761 307.345V307.332C233.761 306.072 234.693 305.343 236.34 305.245L238.368 305.12V304.477C238.368 303.604 237.837 303.132 236.78 303.132C235.934 303.132 235.376 303.447 235.192 303.998L235.185 304.018H234.044L234.05 303.978C234.234 302.869 235.31 302.121 236.82 302.121C238.545 302.121 239.51 303.007 239.51 304.477V309.32H238.368V308.277H238.263C237.817 309.032 237.075 309.445 236.124 309.445ZM234.93 307.319C234.93 308.034 235.54 308.454 236.36 308.454C237.522 308.454 238.368 307.693 238.368 306.682V306.039L236.478 306.157C235.402 306.223 234.93 306.603 234.93 307.306V307.319ZM244.261 309.445C242.279 309.445 241.012 308.008 241.012 305.763V305.75C241.012 303.552 242.272 302.121 244.254 302.121C245.974 302.121 247.004 303.112 247.214 304.372L247.22 304.412H246.085L246.079 304.392C245.901 303.696 245.271 303.132 244.254 303.132C242.981 303.132 242.18 304.156 242.18 305.75V305.763C242.18 307.391 242.994 308.434 244.254 308.434C245.206 308.434 245.809 308.014 246.072 307.227L246.085 307.187L247.214 307.181L247.201 307.253C246.912 308.533 245.96 309.445 244.261 309.445ZM251.551 309.445C249.569 309.445 248.302 308.008 248.302 305.763V305.75C248.302 303.552 249.562 302.121 251.544 302.121C253.264 302.121 254.294 303.112 254.504 304.372L254.511 304.412H253.375L253.369 304.392C253.192 303.696 252.562 303.132 251.544 303.132C250.271 303.132 249.471 304.156 249.471 305.75V305.763C249.471 307.391 250.284 308.434 251.544 308.434C252.496 308.434 253.1 308.014 253.362 307.227L253.375 307.187L254.504 307.181L254.491 307.253C254.202 308.533 253.251 309.445 251.551 309.445ZM258.854 309.445C256.84 309.445 255.593 308.054 255.593 305.79V305.777C255.593 303.506 256.84 302.121 258.854 302.121C260.869 302.121 262.116 303.506 262.116 305.777V305.79C262.116 308.054 260.869 309.445 258.854 309.445ZM258.854 308.434C260.193 308.434 260.948 307.457 260.948 305.79V305.777C260.948 304.103 260.193 303.132 258.854 303.132C257.516 303.132 256.761 304.103 256.761 305.777V305.79C256.761 307.457 257.516 308.434 258.854 308.434ZM266.026 309.445C264.419 309.445 263.592 308.5 263.592 306.827V302.246H264.734V306.551C264.734 307.824 265.193 308.434 266.322 308.434C267.569 308.434 268.231 307.673 268.231 306.433V302.246H269.373V309.32H268.231V308.264H268.126C267.779 309.018 267.063 309.445 266.026 309.445ZM271.276 309.32V302.246H272.418V303.309H272.523C272.877 302.561 273.54 302.121 274.583 302.121C276.171 302.121 277.057 303.06 277.057 304.74V309.32H275.915V305.015C275.915 303.742 275.39 303.132 274.262 303.132C273.133 303.132 272.418 303.893 272.418 305.133V309.32H271.276ZM281.407 309.373C279.951 309.373 279.34 308.835 279.34 307.483V303.191H278.225V302.246H279.34V300.415H280.522V302.246H282.07V303.191H280.522V307.194C280.522 308.027 280.81 308.362 281.545 308.362C281.749 308.362 281.86 308.356 282.07 308.336V309.307C281.847 309.347 281.631 309.373 281.407 309.373ZM285.843 309.445C284.268 309.445 283.185 308.684 283.054 307.516H284.222C284.412 308.106 284.977 308.493 285.882 308.493C286.834 308.493 287.51 308.041 287.51 307.397V307.384C287.51 306.905 287.149 306.571 286.276 306.361L285.18 306.098C283.855 305.783 283.257 305.206 283.257 304.188V304.182C283.257 303.007 284.386 302.121 285.889 302.121C287.372 302.121 288.402 302.863 288.56 304.018H287.438C287.287 303.46 286.735 303.073 285.882 303.073C285.042 303.073 284.425 303.506 284.425 304.129V304.142C284.425 304.622 284.78 304.923 285.613 305.127L286.703 305.389C288.035 305.711 288.678 306.288 288.678 307.299V307.312C288.678 308.572 287.451 309.445 285.843 309.445ZM291.151 309.386C290.685 309.386 290.298 308.999 290.298 308.533C290.298 308.06 290.685 307.68 291.151 307.68C291.624 307.68 292.004 308.06 292.004 308.533C292.004 308.999 291.624 309.386 291.151 309.386Z" fill="#9299A2"/>
</g>
</g>
<defs>
<filter id="filter0_d_2048_27495" x="-32.64" y="-26.88" width="425.28" height="535.28" filterUnits="userSpaceOnUse" color-interpolation-filters="sRGB">
<feFlood flood-opacity="0" result="BackgroundImageFix"/>
<feColorMatrix in="SourceAlpha" type="matrix" values="0 0 0 0 0 0 0 0 0 0 0 0 0 0 0 0 0 0 127 0" result="hardAlpha"/>
<feOffset dy="5.76"/>
<feGaussianBlur stdDeviation="16.32"/>
<feColorMatrix type="matrix" values="0 0 0 0 0 0 0 0 0 0 0 0 0 0 0 0 0 0 0.12 0"/>
<feBlend mode="normal" in2="BackgroundImageFix" result="effect1_dropShadow_2048_27495"/>
<feBlend mode="normal" in="SourceGraphic" in2="effect1_dropShadow_2048_27495" result="shape"/>
</filter>
<clipPath id="clip0_2048_27495">
<rect width="360" height="347" fill="white"/>
</clipPath>
</defs>
</svg>
