<svg width="850" height="537" viewBox="0 0 850 537" fill="none" xmlns="http://www.w3.org/2000/svg">
<rect width="850" height="537" fill="white"/>
<path d="M177.759 45L173.096 27.3853H176.929L179.675 39.9707H179.871L183.081 27.3853H186.194L189.465 39.9707H189.661L192.383 27.3853H196.191L191.516 45H188.062L184.729 33.1348H184.534L181.238 45H177.759ZM199.17 45V26.4209H202.734V33.6353H202.954C203.564 32.1826 204.895 31.2671 206.812 31.2671C209.802 31.2671 211.414 33.0981 211.414 36.3086V45H207.849V37.1143C207.849 35.2222 207.068 34.2212 205.383 34.2212C203.735 34.2212 202.734 35.4053 202.734 37.2241V45H199.17ZM216.687 29.4971C215.588 29.4971 214.673 28.6182 214.673 27.5195C214.673 26.4087 215.588 25.5298 216.687 25.5298C217.786 25.5298 218.689 26.4087 218.689 27.5195C218.689 28.6182 217.786 29.4971 216.687 29.4971ZM214.893 45V31.5601H218.457V45H214.893ZM227.966 45.2808C223.767 45.2808 221.387 42.7295 221.387 38.2617V38.2373C221.387 33.8184 223.755 31.2671 227.966 31.2671C231.531 31.2671 233.643 33.208 233.96 36.2109V36.2476H230.64L230.627 36.2231C230.396 34.917 229.504 34.0625 227.979 34.0625C226.062 34.0625 225.012 35.5518 225.012 38.2373V38.2617C225.012 40.9839 226.074 42.4854 227.979 42.4854C229.443 42.4854 230.31 41.7896 230.627 40.4468L230.652 40.3979H233.948L233.936 40.4712C233.569 43.4009 231.47 45.2808 227.966 45.2808ZM236.865 45V26.4209H240.43V33.6353H240.649C241.26 32.1826 242.59 31.2671 244.507 31.2671C247.498 31.2671 249.109 33.0981 249.109 36.3086V45H245.544V37.1143C245.544 35.2222 244.763 34.2212 243.079 34.2212C241.431 34.2212 240.43 35.4053 240.43 37.2241V45H236.865ZM259.009 45V31.5601H262.573V33.6353H262.793C263.403 32.1826 264.734 31.2671 266.65 31.2671C269.641 31.2671 271.252 33.0981 271.252 36.3086V45H267.688V37.1143C267.688 35.2222 266.907 34.2212 265.222 34.2212C263.574 34.2212 262.573 35.4053 262.573 37.2241V45H259.009ZM280.615 45.2808C276.526 45.2808 274.048 42.6074 274.048 38.2983V38.2861C274.048 34.0137 276.55 31.2671 280.469 31.2671C284.387 31.2671 286.829 33.9526 286.829 38.0176V39.1284H277.576C277.612 41.3379 278.796 42.6196 280.688 42.6196C282.251 42.6196 283.118 41.7896 283.362 41.2769L283.398 41.2036H286.719L286.694 41.3257C286.279 43.0103 284.546 45.2808 280.615 45.2808ZM280.53 33.9404C278.979 33.9404 277.832 34.9902 277.612 36.8945H283.411C283.191 34.9414 282.08 33.9404 280.53 33.9404ZM292.053 45L288.464 31.5601H292.065L294.067 41.2891H294.287L296.643 31.5601H300.037L302.405 41.2891H302.625L304.626 31.5601H308.154L304.578 45H300.793L298.389 35.625H298.169L295.789 45H292.053ZM318.176 45V34.2456H316.003V31.5601H318.176V30.3027C318.176 27.6294 319.543 26.2866 322.791 26.2866C323.511 26.2866 324.109 26.3354 324.622 26.4209V28.8013C324.402 28.7646 324.023 28.728 323.56 28.728C322.18 28.728 321.667 29.375 321.667 30.5469V31.5601H324.512V34.2456H321.741V45H318.176ZM332.788 45.2808C328.699 45.2808 326.221 42.6074 326.221 38.2983V38.2861C326.221 34.0137 328.723 31.2671 332.642 31.2671C336.56 31.2671 339.001 33.9526 339.001 38.0176V39.1284H329.749C329.785 41.3379 330.969 42.6196 332.861 42.6196C334.424 42.6196 335.291 41.7896 335.535 41.2769L335.571 41.2036H338.892L338.867 41.3257C338.452 43.0103 336.719 45.2808 332.788 45.2808ZM332.703 33.9404C331.152 33.9404 330.005 34.9902 329.785 36.8945H335.583C335.364 34.9414 334.253 33.9404 332.703 33.9404ZM345.581 45.2075C343.018 45.2075 341.199 43.6206 341.199 41.1792V41.1548C341.199 38.7378 343.066 37.3218 346.411 37.1265L349.658 36.9312V35.8203C349.658 34.6606 348.865 34.0015 347.4 34.0015C346.118 34.0015 345.3 34.4531 345.02 35.2466L344.995 35.2954H341.699L341.711 35.1855C341.992 32.8296 344.214 31.2671 347.595 31.2671C351.16 31.2671 353.174 32.9517 353.174 35.8203V45H349.658V43.2178H349.438C348.755 44.4629 347.339 45.2075 345.581 45.2075ZM344.678 40.9595C344.678 41.9849 345.544 42.6074 346.777 42.6074C348.425 42.6074 349.658 41.521 349.658 40.105V39.1162L346.948 39.2871C345.422 39.3848 344.678 39.9585 344.678 40.9351V40.9595ZM362.244 45.0488C358.972 45.0488 357.654 43.9868 357.654 41.3745V34.2456H355.579V31.5601H357.654V28.3496H361.255V31.5601H364.026V34.2456H361.255V40.5566C361.255 41.7651 361.768 42.3022 362.976 42.3022C363.44 42.3022 363.684 42.2778 364.026 42.2412V44.8901C363.586 44.9756 362.927 45.0488 362.244 45.0488ZM371.436 45.2808C368.42 45.2808 366.87 43.4497 366.87 40.2515V31.5601H370.435V39.4336C370.435 41.3379 371.155 42.3267 372.839 42.3267C374.597 42.3267 375.549 41.1426 375.549 39.3237V31.5601H379.114V45H375.549V42.9248H375.33C374.719 44.3896 373.352 45.2808 371.436 45.2808ZM382.69 45V31.5601H386.255V33.6475H386.475C386.902 32.1948 388.123 31.3403 389.868 31.3403C390.344 31.3403 390.845 31.4136 391.199 31.5112V34.624C390.662 34.502 390.112 34.4165 389.563 34.4165C387.537 34.4165 386.255 35.5762 386.255 37.4805V45H382.69ZM399.17 45.2808C395.081 45.2808 392.603 42.6074 392.603 38.2983V38.2861C392.603 34.0137 395.105 31.2671 399.023 31.2671C402.942 31.2671 405.383 33.9526 405.383 38.0176V39.1284H396.13C396.167 41.3379 397.351 42.6196 399.243 42.6196C400.806 42.6196 401.672 41.7896 401.917 41.2769L401.953 41.2036H405.273L405.249 41.3257C404.834 43.0103 403.101 45.2808 399.17 45.2808ZM399.084 33.9404C397.534 33.9404 396.387 34.9902 396.167 36.8945H401.965C401.746 34.9414 400.635 33.9404 399.084 33.9404ZM413.647 45.2808C409.998 45.2808 407.922 43.645 407.666 41.3379L407.654 41.2891H411.157L411.182 41.3379C411.462 42.168 412.28 42.7661 413.684 42.7661C415.051 42.7661 415.979 42.1802 415.979 41.2891V41.2646C415.979 40.5444 415.442 40.0928 414.075 39.7876L411.829 39.3115C409.265 38.7622 407.996 37.5049 407.996 35.4907V35.4785C407.996 32.9517 410.242 31.2671 413.599 31.2671C417.126 31.2671 419.08 33.0249 419.226 35.1855V35.2344H415.918L415.906 35.1733C415.71 34.4531 414.917 33.7817 413.586 33.7817C412.354 33.7817 411.475 34.3555 411.475 35.2588V35.271C411.475 35.9912 411.975 36.4062 413.367 36.7114L415.601 37.1875C418.286 37.7612 419.543 38.8843 419.543 40.874V40.8862C419.543 43.5474 417.09 45.2808 413.647 45.2808ZM433.704 45.2075C430.347 45.2075 428.247 42.583 428.247 38.2861V38.2617C428.247 33.9404 430.298 31.3403 433.704 31.3403C435.547 31.3403 437.048 32.2437 437.72 33.7085H437.939V26.4209H441.504V45H437.939V42.9126H437.72C437.024 44.3652 435.596 45.2075 433.704 45.2075ZM434.912 42.2534C436.804 42.2534 437.976 40.7642 437.976 38.2983V38.2739C437.976 35.8081 436.792 34.2944 434.912 34.2944C433.032 34.2944 431.873 35.8081 431.873 38.2617V38.2861C431.873 40.7642 433.032 42.2534 434.912 42.2534ZM451.16 45.2808C447.021 45.2808 444.531 42.6562 444.531 38.2861V38.2617C444.531 33.9282 447.058 31.2671 451.16 31.2671C455.261 31.2671 457.788 33.916 457.788 38.2617V38.2861C457.788 42.6685 455.298 45.2808 451.16 45.2808ZM451.16 42.4854C453.052 42.4854 454.138 40.9351 454.138 38.2861V38.2617C454.138 35.6372 453.04 34.0625 451.16 34.0625C449.268 34.0625 448.181 35.6372 448.181 38.2617V38.2861C448.181 40.9351 449.255 42.4854 451.16 42.4854ZM468.738 49.7363C468.323 49.7363 467.871 49.7241 467.456 49.6997V47.0142C467.7 47.0386 468.054 47.0508 468.384 47.0508C469.653 47.0508 470.386 46.5625 470.642 45.5127L470.764 45L466.04 31.5601H469.958L472.778 41.7407H473.022L475.842 31.5601H479.602L475.024 44.9878C473.828 48.54 472.058 49.7363 468.738 49.7363ZM487.488 45.2808C483.35 45.2808 480.859 42.6562 480.859 38.2861V38.2617C480.859 33.9282 483.386 31.2671 487.488 31.2671C491.589 31.2671 494.116 33.916 494.116 38.2617V38.2861C494.116 42.6685 491.626 45.2808 487.488 45.2808ZM487.488 42.4854C489.38 42.4854 490.466 40.9351 490.466 38.2861V38.2617C490.466 35.6372 489.368 34.0625 487.488 34.0625C485.596 34.0625 484.509 35.6372 484.509 38.2617V38.2861C484.509 40.9351 485.583 42.4854 487.488 42.4854ZM501.465 45.2808C498.45 45.2808 496.899 43.4497 496.899 40.2515V31.5601H500.464V39.4336C500.464 41.3379 501.184 42.3267 502.869 42.3267C504.626 42.3267 505.579 41.1426 505.579 39.3237V31.5601H509.143V45H505.579V42.9248H505.359C504.749 44.3896 503.381 45.2808 501.465 45.2808ZM521.716 45L518.127 31.5601H521.729L523.73 41.2891H523.95L526.306 31.5601H529.7L532.068 41.2891H532.288L534.29 31.5601H537.817L534.241 45H530.457L528.052 35.625H527.832L525.452 45H521.716ZM543.652 45.2075C541.089 45.2075 539.27 43.6206 539.27 41.1792V41.1548C539.27 38.7378 541.138 37.3218 544.482 37.1265L547.729 36.9312V35.8203C547.729 34.6606 546.936 34.0015 545.471 34.0015C544.189 34.0015 543.372 34.4531 543.091 35.2466L543.066 35.2954H539.771L539.783 35.1855C540.063 32.8296 542.285 31.2671 545.667 31.2671C549.231 31.2671 551.245 32.9517 551.245 35.8203V45H547.729V43.2178H547.51C546.826 44.4629 545.41 45.2075 543.652 45.2075ZM542.749 40.9595C542.749 41.9849 543.616 42.6074 544.849 42.6074C546.497 42.6074 547.729 41.521 547.729 40.105V39.1162L545.02 39.2871C543.494 39.3848 542.749 39.9585 542.749 40.9351V40.9595ZM554.736 45V31.5601H558.301V33.6353H558.521C559.131 32.1826 560.461 31.2671 562.378 31.2671C565.369 31.2671 566.98 33.0981 566.98 36.3086V45H563.416V37.1143C563.416 35.2222 562.634 34.2212 560.95 34.2212C559.302 34.2212 558.301 35.4053 558.301 37.2241V45H554.736ZM576.013 45.0488C572.742 45.0488 571.423 43.9868 571.423 41.3745V34.2456H569.348V31.5601H571.423V28.3496H575.024V31.5601H577.795V34.2456H575.024V40.5566C575.024 41.7651 575.537 42.3022 576.746 42.3022C577.209 42.3022 577.454 42.2778 577.795 42.2412V44.8901C577.356 44.9756 576.697 45.0488 576.013 45.0488ZM587.207 45V31.5601H590.771V33.6597H590.991C591.565 32.146 592.957 31.2671 594.714 31.2671C596.545 31.2671 597.9 32.1948 598.45 33.7451H598.669C599.28 32.2559 600.842 31.2671 602.722 31.2671C605.396 31.2671 607.068 33.0005 607.068 35.7715V45H603.503V36.6626C603.503 35.0391 602.771 34.2212 601.282 34.2212C599.841 34.2212 598.914 35.2832 598.914 36.7358V45H595.349V36.5039C595.349 35.0635 594.531 34.2212 593.14 34.2212C591.748 34.2212 590.771 35.3564 590.771 36.8945V45H587.207ZM616.492 45.2808C612.354 45.2808 609.863 42.6562 609.863 38.2861V38.2617C609.863 33.9282 612.39 31.2671 616.492 31.2671C620.593 31.2671 623.12 33.916 623.12 38.2617V38.2861C623.12 42.6685 620.63 45.2808 616.492 45.2808ZM616.492 42.4854C618.384 42.4854 619.47 40.9351 619.47 38.2861V38.2617C619.47 35.6372 618.372 34.0625 616.492 34.0625C614.6 34.0625 613.513 35.6372 613.513 38.2617V38.2861C613.513 40.9351 614.587 42.4854 616.492 42.4854ZM631.372 45.2808C627.722 45.2808 625.647 43.645 625.391 41.3379L625.378 41.2891H628.882L628.906 41.3379C629.187 42.168 630.005 42.7661 631.409 42.7661C632.776 42.7661 633.704 42.1802 633.704 41.2891V41.2646C633.704 40.5444 633.167 40.0928 631.799 39.7876L629.553 39.3115C626.99 38.7622 625.72 37.5049 625.72 35.4907V35.4785C625.72 32.9517 627.966 31.2671 631.323 31.2671C634.851 31.2671 636.804 33.0249 636.951 35.1855V35.2344H633.643L633.63 35.1733C633.435 34.4531 632.642 33.7817 631.311 33.7817C630.078 33.7817 629.199 34.3555 629.199 35.2588V35.271C629.199 35.9912 629.7 36.4062 631.091 36.7114L633.325 37.1875C636.011 37.7612 637.268 38.8843 637.268 40.874V40.8862C637.268 43.5474 634.814 45.2808 631.372 45.2808ZM645.691 45.0488C642.419 45.0488 641.101 43.9868 641.101 41.3745V34.2456H639.026V31.5601H641.101V28.3496H644.702V31.5601H647.473V34.2456H644.702V40.5566C644.702 41.7651 645.215 42.3022 646.423 42.3022C646.887 42.3022 647.131 42.2778 647.473 42.2412V44.8901C647.034 44.9756 646.375 45.0488 645.691 45.0488ZM658.704 29.4971C657.605 29.4971 656.689 28.6182 656.689 27.5195C656.689 26.4087 657.605 25.5298 658.704 25.5298C659.802 25.5298 660.706 26.4087 660.706 27.5195C660.706 28.6182 659.802 29.4971 658.704 29.4971ZM656.909 45V31.5601H660.474V45H656.909ZM664.062 45V31.5601H667.627V33.6353H667.847C668.457 32.1826 669.788 31.2671 671.704 31.2671C674.695 31.2671 676.306 33.0981 676.306 36.3086V45H672.742V37.1143C672.742 35.2222 671.96 34.2212 670.276 34.2212C668.628 34.2212 667.627 35.4053 667.627 37.2241V45H664.062ZM190.149 76V69.4204L184.021 58.3853H188.013L191.895 65.7949H192.114L195.984 58.3853H199.976L193.835 69.4204V76H190.149ZM206.201 76.2808C202.063 76.2808 199.573 73.6562 199.573 69.2861V69.2617C199.573 64.9282 202.1 62.2671 206.201 62.2671C210.303 62.2671 212.83 64.916 212.83 69.2617V69.2861C212.83 73.6685 210.339 76.2808 206.201 76.2808ZM206.201 73.4854C208.093 73.4854 209.18 71.9351 209.18 69.2861V69.2617C209.18 66.6372 208.081 65.0625 206.201 65.0625C204.309 65.0625 203.223 66.6372 203.223 69.2617V69.2861C203.223 71.9351 204.297 73.4854 206.201 73.4854ZM221.704 76.2808C217.566 76.2808 215.076 73.6562 215.076 69.2861V69.2617C215.076 64.9282 217.603 62.2671 221.704 62.2671C225.806 62.2671 228.333 64.916 228.333 69.2617V69.2861C228.333 73.6685 225.842 76.2808 221.704 76.2808ZM221.704 73.4854C223.596 73.4854 224.683 71.9351 224.683 69.2861V69.2617C224.683 66.6372 223.584 65.0625 221.704 65.0625C219.812 65.0625 218.726 66.6372 218.726 69.2617V69.2861C218.726 71.9351 219.8 73.4854 221.704 73.4854ZM231.592 76V58.3853H235.815L240.686 71.2759H240.906L245.764 58.3853H249.988V76H246.704V64.0127H246.46L241.943 76H239.636L235.12 64.0127H234.875V76H231.592ZM259.888 76.2808C255.75 76.2808 253.259 73.6562 253.259 69.2861V69.2617C253.259 64.9282 255.786 62.2671 259.888 62.2671C263.989 62.2671 266.516 64.916 266.516 69.2617V69.2861C266.516 73.6685 264.026 76.2808 259.888 76.2808ZM259.888 73.4854C261.78 73.4854 262.866 71.9351 262.866 69.2861V69.2617C262.866 66.6372 261.768 65.0625 259.888 65.0625C257.996 65.0625 256.909 66.6372 256.909 69.2617V69.2861C256.909 71.9351 257.983 73.4854 259.888 73.4854ZM269.421 76V62.5601H272.986V64.6353H273.206C273.816 63.1826 275.146 62.2671 277.063 62.2671C280.054 62.2671 281.665 64.0981 281.665 67.3086V76H278.101V68.1143C278.101 66.2222 277.319 65.2212 275.635 65.2212C273.987 65.2212 272.986 66.4053 272.986 68.2241V76H269.421ZM291.028 76.2808C286.938 76.2808 284.46 73.6074 284.46 69.2983V69.2861C284.46 65.0137 286.963 62.2671 290.881 62.2671C294.8 62.2671 297.241 64.9526 297.241 69.0176V70.1284H287.988C288.025 72.3379 289.209 73.6196 291.101 73.6196C292.664 73.6196 293.53 72.7896 293.774 72.2769L293.811 72.2036H297.131L297.107 72.3257C296.692 74.0103 294.958 76.2808 291.028 76.2808ZM290.942 64.9404C289.392 64.9404 288.245 65.9902 288.025 67.8945H293.823C293.604 65.9414 292.493 64.9404 290.942 64.9404ZM301.392 80.7363C300.977 80.7363 300.525 80.7241 300.11 80.6997V78.0142C300.354 78.0386 300.708 78.0508 301.038 78.0508C302.307 78.0508 303.04 77.5625 303.296 76.5127L303.418 76L298.694 62.5601H302.612L305.432 72.7407H305.676L308.496 62.5601H312.256L307.678 75.9878C306.482 79.54 304.712 80.7363 301.392 80.7363ZM322.217 76V65.2456H320.044V62.5601H322.217V61.3027C322.217 58.6294 323.584 57.2866 326.831 57.2866C327.551 57.2866 328.149 57.3354 328.662 57.4209V59.8013C328.442 59.7646 328.064 59.728 327.6 59.728C326.221 59.728 325.708 60.375 325.708 61.5469V62.5601H328.552V65.2456H325.781V76H322.217ZM336.89 76.2808C332.751 76.2808 330.261 73.6562 330.261 69.2861V69.2617C330.261 64.9282 332.788 62.2671 336.89 62.2671C340.991 62.2671 343.518 64.916 343.518 69.2617V69.2861C343.518 73.6685 341.028 76.2808 336.89 76.2808ZM336.89 73.4854C338.782 73.4854 339.868 71.9351 339.868 69.2861V69.2617C339.868 66.6372 338.77 65.0625 336.89 65.0625C334.998 65.0625 333.911 66.6372 333.911 69.2617V69.2861C333.911 71.9351 334.985 73.4854 336.89 73.4854ZM346.423 76V62.5601H349.988V64.6475H350.208C350.635 63.1948 351.855 62.3403 353.601 62.3403C354.077 62.3403 354.578 62.4136 354.932 62.5112V65.624C354.395 65.502 353.845 65.4165 353.296 65.4165C351.27 65.4165 349.988 66.5762 349.988 68.4805V76H346.423ZM365.356 80.7363C364.941 80.7363 364.49 80.7241 364.075 80.6997V78.0142C364.319 78.0386 364.673 78.0508 365.002 78.0508C366.272 78.0508 367.004 77.5625 367.261 76.5127L367.383 76L362.659 62.5601H366.577L369.397 72.7407H369.641L372.461 62.5601H376.221L371.643 75.9878C370.447 79.54 368.677 80.7363 365.356 80.7363ZM384.106 76.2808C379.968 76.2808 377.478 73.6562 377.478 69.2861V69.2617C377.478 64.9282 380.005 62.2671 384.106 62.2671C388.208 62.2671 390.735 64.916 390.735 69.2617V69.2861C390.735 73.6685 388.245 76.2808 384.106 76.2808ZM384.106 73.4854C385.999 73.4854 387.085 71.9351 387.085 69.2861V69.2617C387.085 66.6372 385.986 65.0625 384.106 65.0625C382.214 65.0625 381.128 66.6372 381.128 69.2617V69.2861C381.128 71.9351 382.202 73.4854 384.106 73.4854ZM398.083 76.2808C395.068 76.2808 393.518 74.4497 393.518 71.2515V62.5601H397.083V70.4336C397.083 72.3379 397.803 73.3267 399.487 73.3267C401.245 73.3267 402.197 72.1426 402.197 70.3237V62.5601H405.762V76H402.197V73.9248H401.978C401.367 75.3896 400 76.2808 398.083 76.2808ZM409.338 76V62.5601H412.903V64.6475H413.123C413.55 63.1948 414.771 62.3403 416.516 62.3403C416.992 62.3403 417.493 62.4136 417.847 62.5112V65.624C417.31 65.502 416.76 65.4165 416.211 65.4165C414.185 65.4165 412.903 66.5762 412.903 68.4805V76H409.338ZM426.672 76V62.5601H430.237V64.6597H430.457C431.03 63.146 432.422 62.2671 434.18 62.2671C436.011 62.2671 437.366 63.1948 437.915 64.7451H438.135C438.745 63.2559 440.308 62.2671 442.188 62.2671C444.861 62.2671 446.533 64.0005 446.533 66.7715V76H442.969V67.6626C442.969 66.0391 442.236 65.2212 440.747 65.2212C439.307 65.2212 438.379 66.2832 438.379 67.7358V76H434.814V67.5039C434.814 66.0635 433.997 65.2212 432.605 65.2212C431.213 65.2212 430.237 66.3564 430.237 67.8945V76H426.672ZM455.896 76.2808C451.807 76.2808 449.329 73.6074 449.329 69.2983V69.2861C449.329 65.0137 451.831 62.2671 455.75 62.2671C459.668 62.2671 462.109 64.9526 462.109 69.0176V70.1284H452.856C452.893 72.3379 454.077 73.6196 455.969 73.6196C457.532 73.6196 458.398 72.7896 458.643 72.2769L458.679 72.2036H462L461.975 72.3257C461.56 74.0103 459.827 76.2808 455.896 76.2808ZM455.811 64.9404C454.26 64.9404 453.113 65.9902 452.893 67.8945H458.691C458.472 65.9414 457.361 64.9404 455.811 64.9404ZM465.027 76V62.5601H468.591V64.6475H468.811C469.238 63.1948 470.459 62.3403 472.205 62.3403C472.681 62.3403 473.181 62.4136 473.535 62.5112V65.624C472.998 65.502 472.449 65.4165 471.899 65.4165C469.873 65.4165 468.591 66.5762 468.591 68.4805V76H465.027ZM481.519 76.2808C477.319 76.2808 474.939 73.7295 474.939 69.2617V69.2373C474.939 64.8184 477.307 62.2671 481.519 62.2671C485.083 62.2671 487.195 64.208 487.512 67.2109V67.2476H484.192L484.18 67.2231C483.948 65.917 483.057 65.0625 481.531 65.0625C479.614 65.0625 478.564 66.5518 478.564 69.2373V69.2617C478.564 71.9839 479.626 73.4854 481.531 73.4854C482.996 73.4854 483.862 72.7896 484.18 71.4468L484.204 71.3979H487.5L487.488 71.4712C487.122 74.4009 485.022 76.2808 481.519 76.2808ZM490.417 76V57.4209H493.982V64.6353H494.202C494.812 63.1826 496.143 62.2671 498.059 62.2671C501.05 62.2671 502.661 64.0981 502.661 67.3086V76H499.097V68.1143C499.097 66.2222 498.315 65.2212 496.631 65.2212C494.983 65.2212 493.982 66.4053 493.982 68.2241V76H490.417ZM509.778 76.2075C507.214 76.2075 505.396 74.6206 505.396 72.1792V72.1548C505.396 69.7378 507.263 68.3218 510.608 68.1265L513.855 67.9312V66.8203C513.855 65.6606 513.062 65.0015 511.597 65.0015C510.315 65.0015 509.497 65.4531 509.216 66.2466L509.192 66.2954H505.896L505.908 66.1855C506.189 63.8296 508.411 62.2671 511.792 62.2671C515.356 62.2671 517.371 63.9517 517.371 66.8203V76H513.855V74.2178H513.635C512.952 75.4629 511.536 76.2075 509.778 76.2075ZM508.875 71.9595C508.875 72.9849 509.741 73.6074 510.974 73.6074C512.622 73.6074 513.855 72.521 513.855 71.105V70.1162L511.145 70.2871C509.619 70.3848 508.875 70.9585 508.875 71.9351V71.9595ZM520.862 76V62.5601H524.426V64.6353H524.646C525.256 63.1826 526.587 62.2671 528.503 62.2671C531.494 62.2671 533.105 64.0981 533.105 67.3086V76H529.541V68.1143C529.541 66.2222 528.76 65.2212 527.075 65.2212C525.427 65.2212 524.426 66.4053 524.426 68.2241V76H520.862ZM542.139 76.0488C538.867 76.0488 537.549 74.9868 537.549 72.3745V65.2456H535.474V62.5601H537.549V59.3496H541.15V62.5601H543.921V65.2456H541.15V71.5566C541.15 72.7651 541.663 73.3022 542.871 73.3022C543.335 73.3022 543.579 73.2778 543.921 73.2412V75.8901C543.481 75.9756 542.822 76.0488 542.139 76.0488ZM556.995 76.2075C554.431 76.2075 552.612 74.6206 552.612 72.1792V72.1548C552.612 69.7378 554.48 68.3218 557.825 68.1265L561.072 67.9312V66.8203C561.072 65.6606 560.278 65.0015 558.813 65.0015C557.532 65.0015 556.714 65.4531 556.433 66.2466L556.409 66.2954H553.113L553.125 66.1855C553.406 63.8296 555.627 62.2671 559.009 62.2671C562.573 62.2671 564.587 63.9517 564.587 66.8203V76H561.072V74.2178H560.852C560.168 75.4629 558.752 76.2075 556.995 76.2075ZM556.091 71.9595C556.091 72.9849 556.958 73.6074 558.191 73.6074C559.839 73.6074 561.072 72.521 561.072 71.105V70.1162L558.362 70.2871C556.836 70.3848 556.091 70.9585 556.091 71.9351V71.9595ZM573.999 76.2808C569.8 76.2808 567.419 73.7295 567.419 69.2617V69.2373C567.419 64.8184 569.788 62.2671 573.999 62.2671C577.563 62.2671 579.675 64.208 579.993 67.2109V67.2476H576.672L576.66 67.2231C576.428 65.917 575.537 65.0625 574.011 65.0625C572.095 65.0625 571.045 66.5518 571.045 69.2373V69.2617C571.045 71.9839 572.107 73.4854 574.011 73.4854C575.476 73.4854 576.343 72.7896 576.66 71.4468L576.685 71.3979H579.98L579.968 71.4712C579.602 74.4009 577.502 76.2808 573.999 76.2808ZM588.696 76.2808C584.497 76.2808 582.117 73.7295 582.117 69.2617V69.2373C582.117 64.8184 584.485 62.2671 588.696 62.2671C592.261 62.2671 594.373 64.208 594.69 67.2109V67.2476H591.37L591.357 67.2231C591.125 65.917 590.234 65.0625 588.708 65.0625C586.792 65.0625 585.742 66.5518 585.742 69.2373V69.2617C585.742 71.9839 586.804 73.4854 588.708 73.4854C590.173 73.4854 591.04 72.7896 591.357 71.4468L591.382 71.3979H594.678L594.666 71.4712C594.299 74.4009 592.2 76.2808 588.696 76.2808ZM603.442 76.2808C599.304 76.2808 596.814 73.6562 596.814 69.2861V69.2617C596.814 64.9282 599.341 62.2671 603.442 62.2671C607.544 62.2671 610.071 64.916 610.071 69.2617V69.2861C610.071 73.6685 607.581 76.2808 603.442 76.2808ZM603.442 73.4854C605.334 73.4854 606.421 71.9351 606.421 69.2861V69.2617C606.421 66.6372 605.322 65.0625 603.442 65.0625C601.55 65.0625 600.464 66.6372 600.464 69.2617V69.2861C600.464 71.9351 601.538 73.4854 603.442 73.4854ZM617.419 76.2808C614.404 76.2808 612.854 74.4497 612.854 71.2515V62.5601H616.418V70.4336C616.418 72.3379 617.139 73.3267 618.823 73.3267C620.581 73.3267 621.533 72.1426 621.533 70.3237V62.5601H625.098V76H621.533V73.9248H621.313C620.703 75.3896 619.336 76.2808 617.419 76.2808ZM628.674 76V62.5601H632.239V64.6353H632.458C633.069 63.1826 634.399 62.2671 636.316 62.2671C639.307 62.2671 640.918 64.0981 640.918 67.3086V76H637.354V68.1143C637.354 66.2222 636.572 65.2212 634.888 65.2212C633.24 65.2212 632.239 66.4053 632.239 68.2241V76H628.674ZM649.951 76.0488C646.68 76.0488 645.361 74.9868 645.361 72.3745V65.2456H643.286V62.5601H645.361V59.3496H648.962V62.5601H651.733V65.2456H648.962V71.5566C648.962 72.7651 649.475 73.3022 650.684 73.3022C651.147 73.3022 651.392 73.2778 651.733 73.2412V75.8901C651.294 75.9756 650.635 76.0488 649.951 76.0488ZM657.678 70.4702L657.654 69.7622C657.495 67.8457 658.167 66.7471 659.851 65.7583C661.426 64.8184 661.902 64.2202 661.902 63.0728V63.0483C661.902 61.9009 660.974 61.0586 659.583 61.0586C658.179 61.0586 657.251 61.9497 657.19 63.3291H657.166L653.87 63.3413V63.3169C653.931 60.3262 656.055 58.2266 659.802 58.2266C663.293 58.2266 665.601 60.1675 665.601 62.9385V62.9629C665.601 64.7939 664.709 66.0757 662.988 67.0889C661.365 68.0288 660.913 68.627 660.913 69.8232V70.4702H657.678ZM659.424 76.354C658.057 76.354 657.202 75.5728 657.202 74.3154C657.202 73.0459 658.057 72.2646 659.424 72.2646C660.791 72.2646 661.633 73.0459 661.633 74.3154C661.633 75.5728 660.791 76.354 659.424 76.354Z" fill="black"/>
<path d="M77.7402 144L82.7402 129.908H85.582L90.582 144H87.9453L86.7637 140.357H81.5488L80.377 144H77.7402ZM84.0781 132.525L82.1836 138.414H86.1387L84.2441 132.525H84.0781ZM96.7441 144.215C93.5312 144.215 91.6367 142.135 91.6367 138.648V138.629C91.6367 135.182 93.5215 133.121 96.7344 133.121C99.4785 133.121 101.119 134.645 101.393 136.852V136.891H99.0977L99.0879 136.861C98.8633 135.826 98.0723 135.084 96.7441 135.084C95.084 135.084 94.1074 136.393 94.1074 138.629V138.648C94.1074 140.914 95.0938 142.242 96.7441 142.242C98.0039 142.242 98.7754 141.666 99.0781 140.543L99.0977 140.504L101.393 140.494L101.373 140.572C101.021 142.76 99.4492 144.215 96.7441 144.215ZM108.287 144.215C105.074 144.215 103.18 142.135 103.18 138.648V138.629C103.18 135.182 105.064 133.121 108.277 133.121C111.021 133.121 112.662 134.645 112.936 136.852V136.891H110.641L110.631 136.861C110.406 135.826 109.615 135.084 108.287 135.084C106.627 135.084 105.65 136.393 105.65 138.629V138.648C105.65 140.914 106.637 142.242 108.287 142.242C109.547 142.242 110.318 141.666 110.621 140.543L110.641 140.504L112.936 140.494L112.916 140.572C112.564 142.76 110.992 144.215 108.287 144.215ZM119.82 144.215C116.646 144.215 114.723 142.086 114.723 138.688V138.678C114.723 135.318 116.666 133.121 119.703 133.121C122.74 133.121 124.615 135.25 124.615 138.473V139.273H117.154C117.184 141.188 118.219 142.301 119.869 142.301C121.188 142.301 121.939 141.637 122.174 141.148L122.203 141.08H124.518L124.488 141.168C124.146 142.545 122.721 144.215 119.82 144.215ZM119.732 135.025C118.375 135.025 117.359 135.943 117.174 137.643H122.242C122.076 135.895 121.09 135.025 119.732 135.025ZM131.08 144.215C128.365 144.215 126.725 142.965 126.52 141.158V141.139H128.932L128.941 141.158C129.195 141.9 129.908 142.418 131.119 142.418C132.33 142.418 133.17 141.871 133.17 141.07V141.051C133.17 140.426 132.701 140.016 131.529 139.752L129.801 139.361C127.77 138.912 126.803 137.955 126.803 136.383V136.373C126.803 134.449 128.561 133.121 131.08 133.121C133.678 133.121 135.23 134.41 135.387 136.139V136.158H133.102L133.092 136.129C132.916 135.455 132.213 134.908 131.07 134.908C129.986 134.908 129.205 135.436 129.205 136.236V136.246C129.205 136.871 129.654 137.252 130.807 137.516L132.535 137.896C134.625 138.365 135.611 139.254 135.611 140.807V140.826C135.611 142.857 133.707 144.215 131.08 144.215ZM141.9 144.215C139.186 144.215 137.545 142.965 137.34 141.158V141.139H139.752L139.762 141.158C140.016 141.9 140.729 142.418 141.939 142.418C143.15 142.418 143.99 141.871 143.99 141.07V141.051C143.99 140.426 143.521 140.016 142.35 139.752L140.621 139.361C138.59 138.912 137.623 137.955 137.623 136.383V136.373C137.623 134.449 139.381 133.121 141.9 133.121C144.498 133.121 146.051 134.41 146.207 136.139V136.158H143.922L143.912 136.129C143.736 135.455 143.033 134.908 141.891 134.908C140.807 134.908 140.025 135.436 140.025 136.236V136.246C140.025 136.871 140.475 137.252 141.627 137.516L143.355 137.896C145.445 138.365 146.432 139.254 146.432 140.807V140.826C146.432 142.857 144.527 144.215 141.9 144.215ZM154.996 144V135.211H153.248V133.326H154.996V132.271C154.996 130.143 156.07 129.098 158.453 129.098C158.971 129.098 159.41 129.127 159.801 129.195V130.895C159.615 130.865 159.312 130.846 158.971 130.846C157.828 130.846 157.389 131.393 157.389 132.408V133.326H159.703V135.211H157.428V144H154.996ZM162.047 144V133.326H164.479V134.967H164.645C165.006 133.824 165.982 133.15 167.389 133.15C167.76 133.15 168.141 133.199 168.375 133.268V135.445C167.984 135.367 167.584 135.309 167.164 135.309C165.543 135.309 164.479 136.275 164.479 137.799V144H162.047ZM174.703 144.215C171.5 144.215 169.566 142.125 169.566 138.668V138.648C169.566 135.221 171.529 133.121 174.703 133.121C177.887 133.121 179.84 135.211 179.84 138.648V138.668C179.84 142.125 177.896 144.215 174.703 144.215ZM174.703 142.242C176.393 142.242 177.35 140.924 177.35 138.678V138.658C177.35 136.412 176.383 135.084 174.703 135.084C173.014 135.084 172.047 136.412 172.047 138.658V138.678C172.047 140.924 173.014 142.242 174.703 142.242ZM182.281 144V133.326H184.713V134.986H184.879C185.338 133.795 186.412 133.121 187.809 133.121C189.254 133.121 190.309 133.863 190.768 135.045H190.934C191.451 133.883 192.682 133.121 194.166 133.121C196.314 133.121 197.604 134.439 197.604 136.656V144H195.172V137.252C195.172 135.865 194.537 135.162 193.238 135.162C191.969 135.162 191.148 136.109 191.148 137.33V144H188.717V137.076C188.717 135.895 187.984 135.162 186.793 135.162C185.592 135.162 184.713 136.178 184.713 137.506V144H182.281ZM64.7031 167V156.326H67.1348V157.986H67.3008C67.7598 156.795 68.834 156.121 70.2305 156.121C71.6758 156.121 72.7305 156.863 73.1895 158.045H73.3555C73.873 156.883 75.1035 156.121 76.5879 156.121C78.7363 156.121 80.0254 157.439 80.0254 159.656V167H77.5938V160.252C77.5938 158.865 76.959 158.162 75.6602 158.162C74.3906 158.162 73.5703 159.109 73.5703 160.33V167H71.1387V160.076C71.1387 158.895 70.4062 158.162 69.2148 158.162C68.0137 158.162 67.1348 159.178 67.1348 160.506V167H64.7031ZM87.5156 167.215C84.3125 167.215 82.3789 165.125 82.3789 161.668V161.648C82.3789 158.221 84.3418 156.121 87.5156 156.121C90.6992 156.121 92.6523 158.211 92.6523 161.648V161.668C92.6523 165.125 90.709 167.215 87.5156 167.215ZM87.5156 165.242C89.2051 165.242 90.1621 163.924 90.1621 161.678V161.658C90.1621 159.412 89.1953 158.084 87.5156 158.084C85.8262 158.084 84.8594 159.412 84.8594 161.658V161.678C84.8594 163.924 85.8262 165.242 87.5156 165.242ZM101.031 167.176C99.5371 167.176 98.375 166.492 97.7891 165.33H97.623V167H95.1914V152.195H97.623V158.025H97.7891C98.3457 156.873 99.5664 156.15 101.031 156.15C103.736 156.15 105.416 158.26 105.416 161.658V161.678C105.416 165.057 103.707 167.176 101.031 167.176ZM100.27 165.125C101.93 165.125 102.936 163.826 102.936 161.678V161.658C102.936 159.51 101.93 158.201 100.27 158.201C98.6191 158.201 97.5938 159.52 97.5938 161.658V161.678C97.5938 163.816 98.6191 165.125 100.27 165.125ZM109.098 154.539C108.297 154.539 107.643 153.904 107.643 153.104C107.643 152.312 108.297 151.668 109.098 151.668C109.889 151.668 110.543 152.312 110.543 153.104C110.543 153.904 109.889 154.539 109.098 154.539ZM107.877 167V156.326H110.309V167H107.877ZM113.395 167V152.195H115.826V167H113.395ZM123.473 167.215C120.299 167.215 118.375 165.086 118.375 161.688V161.678C118.375 158.318 120.318 156.121 123.355 156.121C126.393 156.121 128.268 158.25 128.268 161.473V162.273H120.807C120.836 164.188 121.871 165.301 123.521 165.301C124.84 165.301 125.592 164.637 125.826 164.148L125.855 164.08H128.17L128.141 164.168C127.799 165.545 126.373 167.215 123.473 167.215ZM123.385 158.025C122.027 158.025 121.012 158.943 120.826 160.643H125.895C125.729 158.895 124.742 158.025 123.385 158.025ZM139.879 167.176C137.203 167.176 135.504 165.057 135.504 161.678V161.658C135.504 158.26 137.174 156.15 139.879 156.15C141.344 156.15 142.564 156.873 143.121 158.025H143.287V152.195H145.729V167H143.287V165.33H143.121C142.535 166.492 141.383 167.176 139.879 167.176ZM140.641 165.125C142.301 165.125 143.326 163.816 143.326 161.678V161.658C143.326 159.52 142.291 158.201 140.641 158.201C138.99 158.201 137.975 159.51 137.975 161.658V161.678C137.975 163.826 138.98 165.125 140.641 165.125ZM153.355 167.215C150.182 167.215 148.258 165.086 148.258 161.688V161.678C148.258 158.318 150.201 156.121 153.238 156.121C156.275 156.121 158.15 158.25 158.15 161.473V162.273H150.689C150.719 164.188 151.754 165.301 153.404 165.301C154.723 165.301 155.475 164.637 155.709 164.148L155.738 164.08H158.053L158.023 164.168C157.682 165.545 156.256 167.215 153.355 167.215ZM153.268 158.025C151.91 158.025 150.895 158.943 150.709 160.643H155.777C155.611 158.895 154.625 158.025 153.268 158.025ZM163.199 167L159.4 156.326H161.998L164.469 164.627H164.635L167.086 156.326H169.645L165.865 167H163.199ZM172.945 154.539C172.145 154.539 171.49 153.904 171.49 153.104C171.49 152.312 172.145 151.668 172.945 151.668C173.736 151.668 174.391 152.312 174.391 153.104C174.391 153.904 173.736 154.539 172.945 154.539ZM171.725 167V156.326H174.156V167H171.725ZM181.725 167.215C178.512 167.215 176.617 165.135 176.617 161.648V161.629C176.617 158.182 178.502 156.121 181.715 156.121C184.459 156.121 186.1 157.645 186.373 159.852V159.891H184.078L184.068 159.861C183.844 158.826 183.053 158.084 181.725 158.084C180.064 158.084 179.088 159.393 179.088 161.629V161.648C179.088 163.914 180.074 165.242 181.725 165.242C182.984 165.242 183.756 164.666 184.059 163.543L184.078 163.504L186.373 163.494L186.354 163.572C186.002 165.76 184.43 167.215 181.725 167.215ZM193.258 167.215C190.084 167.215 188.16 165.086 188.16 161.688V161.678C188.16 158.318 190.104 156.121 193.141 156.121C196.178 156.121 198.053 158.25 198.053 161.473V162.273H190.592C190.621 164.188 191.656 165.301 193.307 165.301C194.625 165.301 195.377 164.637 195.611 164.148L195.641 164.08H197.955L197.926 164.168C197.584 165.545 196.158 167.215 193.258 167.215ZM193.17 158.025C191.812 158.025 190.797 158.943 190.611 160.643H195.68C195.514 158.895 194.527 158.025 193.17 158.025Z" fill="black"/>
<rect x="224" y="127" width="607" height="42" rx="4" fill="#00BF96"/>
<path d="M244.959 156V153.412H238.055V151.098C239.842 147.924 241.756 144.799 243.631 141.908H247.771V151.049H249.607V153.412H247.771V156H244.959ZM240.711 151.127H245.018V144.145H244.861C243.494 146.244 241.98 148.695 240.711 150.971V151.127ZM255.369 156V144.691H255.193L251.736 147.094V144.438L255.379 141.908H258.318V156H255.369Z" fill="white"/>
<path d="M14.9961 212V197.908H20.6895C23.7168 197.908 25.5332 199.598 25.5332 202.283V202.303C25.5332 204.168 24.5469 205.711 22.877 206.316L25.9531 212H23.0723L20.3086 206.697H17.5156V212H14.9961ZM17.5156 204.764H20.4258C22.0176 204.764 22.9453 203.875 22.9453 202.361V202.342C22.9453 200.867 21.9785 199.949 20.377 199.949H17.5156V204.764ZM32.5742 212.215C29.4004 212.215 27.4766 210.086 27.4766 206.688V206.678C27.4766 203.318 29.4199 201.121 32.457 201.121C35.4941 201.121 37.3691 203.25 37.3691 206.473V207.273H29.9082C29.9375 209.188 30.9727 210.301 32.623 210.301C33.9414 210.301 34.6934 209.637 34.9277 209.148L34.957 209.08H37.2715L37.2422 209.168C36.9004 210.545 35.4746 212.215 32.5742 212.215ZM32.4863 203.025C31.1289 203.025 30.1133 203.943 29.9277 205.643H34.9961C34.8301 203.895 33.8438 203.025 32.4863 203.025ZM42.7109 212.176C40.6797 212.176 39.2051 210.926 39.2051 208.982V208.963C39.2051 207.059 40.6602 205.945 43.2578 205.789L46.002 205.623V204.705C46.002 203.641 45.3086 203.055 44 203.055C42.8867 203.055 42.1641 203.455 41.9199 204.158L41.9102 204.197H39.6152L39.625 204.109C39.8594 202.312 41.5781 201.121 44.1172 201.121C46.8613 201.121 48.4043 202.449 48.4043 204.705V212H46.002V210.535H45.8359C45.25 211.57 44.1172 212.176 42.7109 212.176ZM41.6074 208.865C41.6074 209.773 42.3789 210.311 43.4531 210.311C44.918 210.311 46.002 209.354 46.002 208.084V207.225L43.5996 207.381C42.2422 207.469 41.6074 207.967 41.6074 208.846V208.865ZM51.4219 212V197.195H53.8535V212H51.4219ZM56.9785 207.42V205.213H63.502V207.42H56.9785ZM70.4648 212.049C68.0137 212.049 67.0078 211.229 67.0078 209.168V203.211H65.3477V201.326H67.0078V198.709H69.4785V201.326H71.7344V203.211H69.4785V208.592C69.4785 209.656 69.8984 210.105 70.9141 210.105C71.2559 210.105 71.4414 210.096 71.7344 210.066V211.941C71.3828 212.01 70.9336 212.049 70.4648 212.049ZM75.4062 199.539C74.6055 199.539 73.9512 198.904 73.9512 198.104C73.9512 197.312 74.6055 196.668 75.4062 196.668C76.1973 196.668 76.8516 197.312 76.8516 198.104C76.8516 198.904 76.1973 199.539 75.4062 199.539ZM74.1855 212V201.326H76.6172V212H74.1855ZM79.6055 212V201.326H82.0371V202.986H82.2031C82.6621 201.795 83.7363 201.121 85.1328 201.121C86.5781 201.121 87.6328 201.863 88.0918 203.045H88.2578C88.7754 201.883 90.0059 201.121 91.4902 201.121C93.6387 201.121 94.9277 202.439 94.9277 204.656V212H92.4961V205.252C92.4961 203.865 91.8613 203.162 90.5625 203.162C89.293 203.162 88.4727 204.109 88.4727 205.33V212H86.041V205.076C86.041 203.895 85.3086 203.162 84.1172 203.162C82.916 203.162 82.0371 204.178 82.0371 205.506V212H79.6055ZM102.379 212.215C99.2051 212.215 97.2812 210.086 97.2812 206.688V206.678C97.2812 203.318 99.2246 201.121 102.262 201.121C105.299 201.121 107.174 203.25 107.174 206.473V207.273H99.7129C99.7422 209.188 100.777 210.301 102.428 210.301C103.746 210.301 104.498 209.637 104.732 209.148L104.762 209.08H107.076L107.047 209.168C106.705 210.545 105.279 212.215 102.379 212.215ZM102.291 203.025C100.934 203.025 99.918 203.943 99.7324 205.643H104.801C104.635 203.895 103.648 203.025 102.291 203.025ZM114.938 215.545V201.326H117.369V202.996H117.535C118.121 201.834 119.283 201.15 120.777 201.15C123.453 201.15 125.162 203.279 125.162 206.658V206.678C125.162 210.076 123.482 212.176 120.777 212.176C119.312 212.176 118.092 211.453 117.535 210.301H117.369V215.545H114.938ZM120.016 210.125C121.676 210.125 122.682 208.816 122.682 206.678V206.658C122.682 204.51 121.676 203.201 120.016 203.201C118.365 203.201 117.34 204.51 117.34 206.648V206.668C117.34 208.807 118.365 210.125 120.016 210.125ZM130.523 212.176C128.492 212.176 127.018 210.926 127.018 208.982V208.963C127.018 207.059 128.473 205.945 131.07 205.789L133.814 205.623V204.705C133.814 203.641 133.121 203.055 131.812 203.055C130.699 203.055 129.977 203.455 129.732 204.158L129.723 204.197H127.428L127.438 204.109C127.672 202.312 129.391 201.121 131.93 201.121C134.674 201.121 136.217 202.449 136.217 204.705V212H133.814V210.535H133.648C133.062 211.57 131.93 212.176 130.523 212.176ZM129.42 208.865C129.42 209.773 130.191 210.311 131.266 210.311C132.73 210.311 133.814 209.354 133.814 208.084V207.225L131.412 207.381C130.055 207.469 129.42 207.967 129.42 208.846V208.865ZM139.947 215.75C139.654 215.75 139.312 215.74 139.02 215.711V213.846C139.215 213.865 139.488 213.875 139.742 213.875C140.738 213.875 141.334 213.465 141.598 212.498L141.725 212.01L137.906 201.326H140.562L143.053 209.666H143.238L145.719 201.326H148.277L144.449 212.225C143.531 214.9 142.311 215.75 139.947 215.75ZM150.367 212V201.326H152.799V202.986H152.965C153.424 201.795 154.498 201.121 155.895 201.121C157.34 201.121 158.395 201.863 158.854 203.045H159.02C159.537 201.883 160.768 201.121 162.252 201.121C164.4 201.121 165.689 202.439 165.689 204.656V212H163.258V205.252C163.258 203.865 162.623 203.162 161.324 203.162C160.055 203.162 159.234 204.109 159.234 205.33V212H156.803V205.076C156.803 203.895 156.07 203.162 154.879 203.162C153.678 203.162 152.799 204.178 152.799 205.506V212H150.367ZM173.141 212.215C169.967 212.215 168.043 210.086 168.043 206.688V206.678C168.043 203.318 169.986 201.121 173.023 201.121C176.061 201.121 177.936 203.25 177.936 206.473V207.273H170.475C170.504 209.188 171.539 210.301 173.189 210.301C174.508 210.301 175.26 209.637 175.494 209.148L175.523 209.08H177.838L177.809 209.168C177.467 210.545 176.041 212.215 173.141 212.215ZM173.053 203.025C171.695 203.025 170.68 203.943 170.494 205.643H175.562C175.396 203.895 174.41 203.025 173.053 203.025ZM180.367 212V201.326H182.799V202.957H182.965C183.473 201.814 184.498 201.121 186.041 201.121C188.424 201.121 189.723 202.557 189.723 205.096V212H187.291V205.662C187.291 204.002 186.617 203.162 185.143 203.162C183.697 203.162 182.799 204.178 182.799 205.779V212H180.367ZM196.793 212.049C194.342 212.049 193.336 211.229 193.336 209.168V203.211H191.676V201.326H193.336V198.709H195.807V201.326H198.062V203.211H195.807V208.592C195.807 209.656 196.227 210.105 197.242 210.105C197.584 210.105 197.77 210.096 198.062 210.066V211.941C197.711 212.01 197.262 212.049 196.793 212.049ZM77.6133 235V224.326H80.0449V225.957H80.2109C80.7188 224.814 81.7441 224.121 83.2871 224.121C85.6699 224.121 86.9688 225.557 86.9688 228.096V235H84.5371V228.662C84.5371 227.002 83.8633 226.162 82.3887 226.162C80.9434 226.162 80.0449 227.178 80.0449 228.779V235H77.6133ZM94.4492 235.215C91.2461 235.215 89.3125 233.125 89.3125 229.668V229.648C89.3125 226.221 91.2754 224.121 94.4492 224.121C97.6328 224.121 99.5859 226.211 99.5859 229.648V229.668C99.5859 233.125 97.6426 235.215 94.4492 235.215ZM94.4492 233.242C96.1387 233.242 97.0957 231.924 97.0957 229.678V229.658C97.0957 227.412 96.1289 226.084 94.4492 226.084C92.7598 226.084 91.793 227.412 91.793 229.658V229.678C91.793 231.924 92.7598 233.242 94.4492 233.242ZM106.227 235.049C103.775 235.049 102.77 234.229 102.77 232.168V226.211H101.109V224.326H102.77V221.709H105.24V224.326H107.496V226.211H105.24V231.592C105.24 232.656 105.66 233.105 106.676 233.105C107.018 233.105 107.203 233.096 107.496 233.066V234.941C107.145 235.01 106.695 235.049 106.227 235.049ZM111.168 222.539C110.367 222.539 109.713 221.904 109.713 221.104C109.713 220.312 110.367 219.668 111.168 219.668C111.959 219.668 112.613 220.312 112.613 221.104C112.613 221.904 111.959 222.539 111.168 222.539ZM109.947 235V224.326H112.379V235H109.947ZM116.148 235V226.211H114.4V224.326H116.148V223.271C116.148 221.143 117.223 220.098 119.605 220.098C120.123 220.098 120.562 220.127 120.953 220.195V221.895C120.768 221.865 120.465 221.846 120.123 221.846C118.98 221.846 118.541 222.393 118.541 223.408V224.326H120.855V226.211H118.58V235H116.148ZM124.449 222.539C123.648 222.539 122.994 221.904 122.994 221.104C122.994 220.312 123.648 219.668 124.449 219.668C125.24 219.668 125.895 220.312 125.895 221.104C125.895 221.904 125.24 222.539 124.449 222.539ZM123.229 235V224.326H125.66V235H123.229ZM133.229 235.215C130.016 235.215 128.121 233.135 128.121 229.648V229.629C128.121 226.182 130.006 224.121 133.219 224.121C135.963 224.121 137.604 225.645 137.877 227.852V227.891H135.582L135.572 227.861C135.348 226.826 134.557 226.084 133.229 226.084C131.568 226.084 130.592 227.393 130.592 229.629V229.648C130.592 231.914 131.578 233.242 133.229 233.242C134.488 233.242 135.26 232.666 135.562 231.543L135.582 231.504L137.877 231.494L137.857 231.572C137.506 233.76 135.934 235.215 133.229 235.215ZM143.102 235.176C141.07 235.176 139.596 233.926 139.596 231.982V231.963C139.596 230.059 141.051 228.945 143.648 228.789L146.393 228.623V227.705C146.393 226.641 145.699 226.055 144.391 226.055C143.277 226.055 142.555 226.455 142.311 227.158L142.301 227.197H140.006L140.016 227.109C140.25 225.312 141.969 224.121 144.508 224.121C147.252 224.121 148.795 225.449 148.795 227.705V235H146.393V233.535H146.227C145.641 234.57 144.508 235.176 143.102 235.176ZM141.998 231.865C141.998 232.773 142.77 233.311 143.844 233.311C145.309 233.311 146.393 232.354 146.393 231.084V230.225L143.99 230.381C142.633 230.469 141.998 230.967 141.998 231.846V231.865ZM155.914 235.049C153.463 235.049 152.457 234.229 152.457 232.168V226.211H150.797V224.326H152.457V221.709H154.928V224.326H157.184V226.211H154.928V231.592C154.928 232.656 155.348 233.105 156.363 233.105C156.705 233.105 156.891 233.096 157.184 233.066V234.941C156.832 235.01 156.383 235.049 155.914 235.049ZM160.855 222.539C160.055 222.539 159.4 221.904 159.4 221.104C159.4 220.312 160.055 219.668 160.855 219.668C161.646 219.668 162.301 220.312 162.301 221.104C162.301 221.904 161.646 222.539 160.855 222.539ZM159.635 235V224.326H162.066V235H159.635ZM169.664 235.215C166.461 235.215 164.527 233.125 164.527 229.668V229.648C164.527 226.221 166.49 224.121 169.664 224.121C172.848 224.121 174.801 226.211 174.801 229.648V229.668C174.801 233.125 172.857 235.215 169.664 235.215ZM169.664 233.242C171.354 233.242 172.311 231.924 172.311 229.678V229.658C172.311 227.412 171.344 226.084 169.664 226.084C167.975 226.084 167.008 227.412 167.008 229.658V229.678C167.008 231.924 167.975 233.242 169.664 233.242ZM177.242 235V224.326H179.674V225.957H179.84C180.348 224.814 181.373 224.121 182.916 224.121C185.299 224.121 186.598 225.557 186.598 228.096V235H184.166V228.662C184.166 227.002 183.492 226.162 182.018 226.162C180.572 226.162 179.674 227.178 179.674 228.779V235H177.242ZM193.502 235.215C190.787 235.215 189.146 233.965 188.941 232.158V232.139H191.354L191.363 232.158C191.617 232.9 192.33 233.418 193.541 233.418C194.752 233.418 195.592 232.871 195.592 232.07V232.051C195.592 231.426 195.123 231.016 193.951 230.752L192.223 230.361C190.191 229.912 189.225 228.955 189.225 227.383V227.373C189.225 225.449 190.982 224.121 193.502 224.121C196.1 224.121 197.652 225.41 197.809 227.139V227.158H195.523L195.514 227.129C195.338 226.455 194.635 225.908 193.492 225.908C192.408 225.908 191.627 226.436 191.627 227.236V227.246C191.627 227.871 192.076 228.252 193.229 228.516L194.957 228.896C197.047 229.365 198.033 230.254 198.033 231.807V231.826C198.033 233.857 196.129 235.215 193.502 235.215Z" fill="black"/>
<rect x="224" y="195" width="505" height="42" rx="4" fill="#4492F0"/>
<path d="M243.689 224.312C240.506 224.312 238.406 222.604 238.211 220.084L238.201 219.957H241.023L241.033 220.064C241.16 221.158 242.166 221.939 243.689 221.939C245.193 221.939 246.18 221.1 246.18 219.908V219.889C246.18 218.541 245.174 217.799 243.465 217.799H241.854V215.699H243.426C244.91 215.699 245.867 214.918 245.867 213.775V213.756C245.867 212.584 245.057 211.861 243.67 211.861C242.283 211.861 241.355 212.613 241.238 213.785L241.229 213.873H238.514L238.523 213.756C238.729 211.236 240.711 209.596 243.67 209.596C246.697 209.596 248.65 211.119 248.65 213.365V213.385C248.65 215.143 247.361 216.285 245.711 216.627V216.686C247.811 216.881 249.178 218.092 249.178 220.006V220.025C249.178 222.584 246.98 224.312 243.689 224.312ZM257.146 224.361C254.129 224.361 252.137 222.564 251.971 220.211L251.961 220.074H254.637L254.656 220.143C254.861 221.178 255.828 222.008 257.156 222.008C258.67 222.008 259.725 220.943 259.725 219.43V219.41C259.725 217.906 258.66 216.861 257.166 216.861C256.453 216.861 255.848 217.066 255.379 217.467C255.115 217.682 254.881 217.945 254.725 218.248H252.195L252.85 209.908H261.658V212.252H255.145L254.793 216.266H254.969C255.535 215.318 256.629 214.732 257.977 214.732C260.604 214.732 262.498 216.666 262.498 219.352V219.371C262.498 222.34 260.311 224.361 257.146 224.361Z" fill="white"/>
<path d="M102.467 280L107.467 265.908H110.309L115.309 280H112.672L111.49 276.357H106.275L105.104 280H102.467ZM108.805 268.525L106.91 274.414H110.865L108.971 268.525H108.805ZM120.738 280.176C118.062 280.176 116.363 278.057 116.363 274.678V274.658C116.363 271.26 118.033 269.15 120.738 269.15C122.203 269.15 123.424 269.873 123.98 271.025H124.146V265.195H126.588V280H124.146V278.33H123.98C123.395 279.492 122.242 280.176 120.738 280.176ZM121.5 278.125C123.16 278.125 124.186 276.816 124.186 274.678V274.658C124.186 272.52 123.15 271.201 121.5 271.201C119.85 271.201 118.834 272.51 118.834 274.658V274.678C118.834 276.826 119.84 278.125 121.5 278.125ZM132.516 280L128.717 269.326H131.314L133.785 277.627H133.951L136.402 269.326H138.961L135.182 280H132.516ZM143.551 280.176C141.52 280.176 140.045 278.926 140.045 276.982V276.963C140.045 275.059 141.5 273.945 144.098 273.789L146.842 273.623V272.705C146.842 271.641 146.148 271.055 144.84 271.055C143.727 271.055 143.004 271.455 142.76 272.158L142.75 272.197H140.455L140.465 272.109C140.699 270.312 142.418 269.121 144.957 269.121C147.701 269.121 149.244 270.449 149.244 272.705V280H146.842V278.535H146.676C146.09 279.57 144.957 280.176 143.551 280.176ZM142.447 276.865C142.447 277.773 143.219 278.311 144.293 278.311C145.758 278.311 146.842 277.354 146.842 276.084V275.225L144.439 275.381C143.082 275.469 142.447 275.967 142.447 276.846V276.865ZM152.164 280V269.326H154.596V270.957H154.762C155.27 269.814 156.295 269.121 157.838 269.121C160.221 269.121 161.52 270.557 161.52 273.096V280H159.088V273.662C159.088 272.002 158.414 271.162 156.939 271.162C155.494 271.162 154.596 272.178 154.596 273.779V280H152.164ZM168.971 280.215C165.758 280.215 163.863 278.135 163.863 274.648V274.629C163.863 271.182 165.748 269.121 168.961 269.121C171.705 269.121 173.346 270.645 173.619 272.852V272.891H171.324L171.314 272.861C171.09 271.826 170.299 271.084 168.971 271.084C167.311 271.084 166.334 272.393 166.334 274.629V274.648C166.334 276.914 167.32 278.242 168.971 278.242C170.23 278.242 171.002 277.666 171.305 276.543L171.324 276.504L173.619 276.494L173.6 276.572C173.248 278.76 171.676 280.215 168.971 280.215ZM180.504 280.215C177.33 280.215 175.406 278.086 175.406 274.688V274.678C175.406 271.318 177.35 269.121 180.387 269.121C183.424 269.121 185.299 271.25 185.299 274.473V275.273H177.838C177.867 277.188 178.902 278.301 180.553 278.301C181.871 278.301 182.623 277.637 182.857 277.148L182.887 277.08H185.201L185.172 277.168C184.83 278.545 183.404 280.215 180.504 280.215ZM180.416 271.025C179.059 271.025 178.043 271.943 177.857 273.643H182.926C182.76 271.895 181.773 271.025 180.416 271.025ZM191.578 280.176C188.902 280.176 187.203 278.057 187.203 274.678V274.658C187.203 271.26 188.873 269.15 191.578 269.15C193.043 269.15 194.264 269.873 194.82 271.025H194.986V265.195H197.428V280H194.986V278.33H194.82C194.234 279.492 193.082 280.176 191.578 280.176ZM192.34 278.125C194 278.125 195.025 276.816 195.025 274.678V274.658C195.025 272.52 193.99 271.201 192.34 271.201C190.689 271.201 189.674 272.51 189.674 274.658V274.678C189.674 276.826 190.68 278.125 192.34 278.125ZM40.7578 303.049C38.3066 303.049 37.3008 302.229 37.3008 300.168V294.211H35.6406V292.326H37.3008V289.709H39.7715V292.326H42.0273V294.211H39.7715V299.592C39.7715 300.656 40.1914 301.105 41.207 301.105C41.5488 301.105 41.7344 301.096 42.0273 301.066V302.941C41.6758 303.01 41.2266 303.049 40.7578 303.049ZM44.4492 303V292.326H46.8809V293.967H47.0469C47.4082 292.824 48.3848 292.15 49.791 292.15C50.1621 292.15 50.543 292.199 50.7773 292.268V294.445C50.3867 294.367 49.9863 294.309 49.5664 294.309C47.9453 294.309 46.8809 295.275 46.8809 296.799V303H44.4492ZM55.543 303.176C53.5117 303.176 52.0371 301.926 52.0371 299.982V299.963C52.0371 298.059 53.4922 296.945 56.0898 296.789L58.834 296.623V295.705C58.834 294.641 58.1406 294.055 56.832 294.055C55.7188 294.055 54.9961 294.455 54.752 295.158L54.7422 295.197H52.4473L52.457 295.109C52.6914 293.312 54.4102 292.121 56.9492 292.121C59.6934 292.121 61.2363 293.449 61.2363 295.705V303H58.834V301.535H58.668C58.082 302.57 56.9492 303.176 55.543 303.176ZM54.4395 299.865C54.4395 300.773 55.2109 301.311 56.2852 301.311C57.75 301.311 58.834 300.354 58.834 299.084V298.225L56.4316 298.381C55.0742 298.469 54.4395 298.967 54.4395 299.846V299.865ZM64.1562 303V292.326H66.5879V293.957H66.7539C67.2617 292.814 68.2871 292.121 69.8301 292.121C72.2129 292.121 73.5117 293.557 73.5117 296.096V303H71.0801V296.662C71.0801 295.002 70.4062 294.162 68.9316 294.162C67.4863 294.162 66.5879 295.178 66.5879 296.779V303H64.1562ZM80.416 303.215C77.7012 303.215 76.0605 301.965 75.8555 300.158V300.139H78.2676L78.2773 300.158C78.5312 300.9 79.2441 301.418 80.4551 301.418C81.666 301.418 82.5059 300.871 82.5059 300.07V300.051C82.5059 299.426 82.0371 299.016 80.8652 298.752L79.1367 298.361C77.1055 297.912 76.1387 296.955 76.1387 295.383V295.373C76.1387 293.449 77.8965 292.121 80.416 292.121C83.0137 292.121 84.5664 293.41 84.7227 295.139V295.158H82.4375L82.4277 295.129C82.252 294.455 81.5488 293.908 80.4062 293.908C79.3223 293.908 78.541 294.436 78.541 295.236V295.246C78.541 295.871 78.9902 296.252 80.1426 296.516L81.8711 296.896C83.9609 297.365 84.9473 298.254 84.9473 299.807V299.826C84.9473 301.857 83.043 303.215 80.416 303.215ZM90.3086 303.176C88.2773 303.176 86.8027 301.926 86.8027 299.982V299.963C86.8027 298.059 88.2578 296.945 90.8555 296.789L93.5996 296.623V295.705C93.5996 294.641 92.9062 294.055 91.5977 294.055C90.4844 294.055 89.7617 294.455 89.5176 295.158L89.5078 295.197H87.2129L87.2227 295.109C87.457 293.312 89.1758 292.121 91.7148 292.121C94.459 292.121 96.002 293.449 96.002 295.705V303H93.5996V301.535H93.4336C92.8477 302.57 91.7148 303.176 90.3086 303.176ZM89.2051 299.865C89.2051 300.773 89.9766 301.311 91.0508 301.311C92.5156 301.311 93.5996 300.354 93.5996 299.084V298.225L91.1973 298.381C89.8398 298.469 89.2051 298.967 89.2051 299.846V299.865ZM103.502 303.215C100.289 303.215 98.3945 301.135 98.3945 297.648V297.629C98.3945 294.182 100.279 292.121 103.492 292.121C106.236 292.121 107.877 293.645 108.15 295.852V295.891H105.855L105.846 295.861C105.621 294.826 104.83 294.084 103.502 294.084C101.842 294.084 100.865 295.393 100.865 297.629V297.648C100.865 299.914 101.852 301.242 103.502 301.242C104.762 301.242 105.533 300.666 105.836 299.543L105.855 299.504L108.15 299.494L108.131 299.572C107.779 301.76 106.207 303.215 103.502 303.215ZM114.801 303.049C112.35 303.049 111.344 302.229 111.344 300.168V294.211H109.684V292.326H111.344V289.709H113.814V292.326H116.07V294.211H113.814V299.592C113.814 300.656 114.234 301.105 115.25 301.105C115.592 301.105 115.777 301.096 116.07 301.066V302.941C115.719 303.01 115.27 303.049 114.801 303.049ZM119.742 290.539C118.941 290.539 118.287 289.904 118.287 289.104C118.287 288.312 118.941 287.668 119.742 287.668C120.533 287.668 121.188 288.312 121.188 289.104C121.188 289.904 120.533 290.539 119.742 290.539ZM118.521 303V292.326H120.953V303H118.521ZM128.551 303.215C125.348 303.215 123.414 301.125 123.414 297.668V297.648C123.414 294.221 125.377 292.121 128.551 292.121C131.734 292.121 133.688 294.211 133.688 297.648V297.668C133.688 301.125 131.744 303.215 128.551 303.215ZM128.551 301.242C130.24 301.242 131.197 299.924 131.197 297.678V297.658C131.197 295.412 130.23 294.084 128.551 294.084C126.861 294.084 125.895 295.412 125.895 297.658V297.678C125.895 299.924 126.861 301.242 128.551 301.242ZM136.129 303V292.326H138.561V293.957H138.727C139.234 292.814 140.26 292.121 141.803 292.121C144.186 292.121 145.484 293.557 145.484 296.096V303H143.053V296.662C143.053 295.002 142.379 294.162 140.904 294.162C139.459 294.162 138.561 295.178 138.561 296.779V303H136.129ZM154.469 303V294.211H152.721V292.326H154.469V291.271C154.469 289.143 155.543 288.098 157.926 288.098C158.443 288.098 158.883 288.127 159.273 288.195V289.895C159.088 289.865 158.785 289.846 158.443 289.846C157.301 289.846 156.861 290.393 156.861 291.408V292.326H159.176V294.211H156.9V303H154.469ZM162.77 290.539C161.969 290.539 161.314 289.904 161.314 289.104C161.314 288.312 161.969 287.668 162.77 287.668C163.561 287.668 164.215 288.312 164.215 289.104C164.215 289.904 163.561 290.539 162.77 290.539ZM161.549 303V292.326H163.98V303H161.549ZM167.066 303V288.195H169.498V303H167.066ZM176.773 303.049C174.322 303.049 173.316 302.229 173.316 300.168V294.211H171.656V292.326H173.316V289.709H175.787V292.326H178.043V294.211H175.787V299.592C175.787 300.656 176.207 301.105 177.223 301.105C177.564 301.105 177.75 301.096 178.043 301.066V302.941C177.691 303.01 177.242 303.049 176.773 303.049ZM184.938 303.215C181.764 303.215 179.84 301.086 179.84 297.688V297.678C179.84 294.318 181.783 292.121 184.82 292.121C187.857 292.121 189.732 294.25 189.732 297.473V298.273H182.271C182.301 300.188 183.336 301.301 184.986 301.301C186.305 301.301 187.057 300.637 187.291 300.148L187.32 300.08H189.635L189.605 300.168C189.264 301.545 187.838 303.215 184.938 303.215ZM184.85 294.025C183.492 294.025 182.477 294.943 182.291 296.643H187.359C187.193 294.895 186.207 294.025 184.85 294.025ZM192.164 303V292.326H194.596V293.967H194.762C195.123 292.824 196.1 292.15 197.506 292.15C197.877 292.15 198.258 292.199 198.492 292.268V294.445C198.102 294.367 197.701 294.309 197.281 294.309C195.66 294.309 194.596 295.275 194.596 296.799V303H192.164Z" fill="black"/>
<rect x="224" y="263" width="379" height="42" rx="4" fill="#4492F0"/>
<path d="M238.426 292V290.018L242.967 285.535C244.949 283.611 245.486 282.898 245.486 281.912V281.883C245.486 280.682 244.666 279.842 243.318 279.842C241.941 279.842 240.994 280.76 240.994 282.098V282.146H238.27L238.26 282.107C238.26 279.402 240.369 277.547 243.455 277.547C246.355 277.547 248.387 279.207 248.387 281.639V281.668C248.387 283.27 247.557 284.598 244.988 286.971L242.381 289.402V289.627H248.592V292H238.426ZM256.912 292.361C253.641 292.361 251.092 290.047 251.092 285.086V285.066C251.092 280.35 253.318 277.547 256.922 277.547C259.646 277.547 261.678 279.158 262.107 281.365L262.127 281.463H259.246L259.207 281.375C258.875 280.496 258.074 279.9 256.932 279.9C254.891 279.9 254.002 281.902 253.895 284.461C253.885 284.568 253.885 284.676 253.885 284.783H254.08C254.588 283.689 255.77 282.723 257.713 282.723C260.457 282.723 262.312 284.676 262.312 287.342V287.361C262.312 290.242 260.086 292.361 256.912 292.361ZM254.324 287.4C254.324 288.885 255.457 290.027 256.893 290.027C258.318 290.027 259.461 288.904 259.461 287.459V287.439C259.461 285.965 258.387 284.891 256.912 284.891C255.457 284.891 254.324 285.936 254.324 287.391V287.4Z" fill="white"/>
<path d="M73.6387 348V346.301L78.2676 341.574C80.1816 339.641 80.7188 338.928 80.7188 337.844V337.814C80.7188 336.516 79.8301 335.578 78.3652 335.578C76.8711 335.578 75.8652 336.564 75.8652 338.02L75.8555 338.059L73.5117 338.049L73.502 338.02C73.502 335.393 75.5527 333.557 78.4922 333.557C81.2363 333.557 83.209 335.227 83.209 337.6V337.629C83.209 339.23 82.4375 340.5 79.8691 342.971L77.0469 345.705V345.91H83.4238V348H73.6387ZM92.5254 348V345.295H85.6309V343.234C87.457 340.061 89.459 336.818 91.373 333.908H94.9375V343.215H96.832V345.295H94.9375V348H92.5254ZM87.9746 343.273H92.5645V335.92H92.418C90.9727 338.127 89.3418 340.734 87.9746 343.127V343.273ZM104.449 333.195L100.25 351.545H97.9844L102.184 333.195H104.449ZM106.695 348L112.818 336.125V335.969H105.553V333.908H115.357V336.008L109.332 348H106.695ZM127.291 348.215C124.576 348.215 122.936 346.965 122.73 345.158V345.139H125.143L125.152 345.158C125.406 345.9 126.119 346.418 127.33 346.418C128.541 346.418 129.381 345.871 129.381 345.07V345.051C129.381 344.426 128.912 344.016 127.74 343.752L126.012 343.361C123.98 342.912 123.014 341.955 123.014 340.383V340.373C123.014 338.449 124.771 337.121 127.291 337.121C129.889 337.121 131.441 338.41 131.598 340.139V340.158H129.312L129.303 340.129C129.127 339.455 128.424 338.908 127.281 338.908C126.197 338.908 125.416 339.436 125.416 340.236V340.246C125.416 340.871 125.865 341.252 127.018 341.516L128.746 341.896C130.836 342.365 131.822 343.254 131.822 344.807V344.826C131.822 346.857 129.918 348.215 127.291 348.215ZM137.809 348.215C135.406 348.215 134.176 346.77 134.176 344.23V337.326H136.607V343.674C136.607 345.324 137.223 346.164 138.688 346.164C140.26 346.164 141.1 345.148 141.1 343.547V337.326H143.531V348H141.1V346.379H140.934C140.436 347.521 139.352 348.215 137.809 348.215ZM146.5 351.545V337.326H148.932V338.996H149.098C149.684 337.834 150.846 337.15 152.34 337.15C155.016 337.15 156.725 339.279 156.725 342.658V342.678C156.725 346.076 155.045 348.176 152.34 348.176C150.875 348.176 149.654 347.453 149.098 346.301H148.932V351.545H146.5ZM151.578 346.125C153.238 346.125 154.244 344.816 154.244 342.678V342.658C154.244 340.51 153.238 339.201 151.578 339.201C149.928 339.201 148.902 340.51 148.902 342.648V342.668C148.902 344.807 149.928 346.125 151.578 346.125ZM159.176 351.545V337.326H161.607V338.996H161.773C162.359 337.834 163.521 337.15 165.016 337.15C167.691 337.15 169.4 339.279 169.4 342.658V342.678C169.4 346.076 167.721 348.176 165.016 348.176C163.551 348.176 162.33 347.453 161.773 346.301H161.607V351.545H159.176ZM164.254 346.125C165.914 346.125 166.92 344.816 166.92 342.678V342.658C166.92 340.51 165.914 339.201 164.254 339.201C162.604 339.201 161.578 340.51 161.578 342.648V342.668C161.578 344.807 162.604 346.125 164.254 346.125ZM176.461 348.215C173.258 348.215 171.324 346.125 171.324 342.668V342.648C171.324 339.221 173.287 337.121 176.461 337.121C179.645 337.121 181.598 339.211 181.598 342.648V342.668C181.598 346.125 179.654 348.215 176.461 348.215ZM176.461 346.242C178.15 346.242 179.107 344.924 179.107 342.678V342.658C179.107 340.412 178.141 339.084 176.461 339.084C174.771 339.084 173.805 340.412 173.805 342.658V342.678C173.805 344.924 174.771 346.242 176.461 346.242ZM184.039 348V337.326H186.471V338.967H186.637C186.998 337.824 187.975 337.15 189.381 337.15C189.752 337.15 190.133 337.199 190.367 337.268V339.445C189.977 339.367 189.576 339.309 189.156 339.309C187.535 339.309 186.471 340.275 186.471 341.799V348H184.039ZM196.793 348.049C194.342 348.049 193.336 347.229 193.336 345.168V339.211H191.676V337.326H193.336V334.709H195.807V337.326H198.062V339.211H195.807V344.592C195.807 345.656 196.227 346.105 197.242 346.105C197.584 346.105 197.77 346.096 198.062 346.066V347.941C197.711 348.01 197.262 348.049 196.793 348.049ZM61.8711 371.176C59.8398 371.176 58.3652 369.926 58.3652 367.982V367.963C58.3652 366.059 59.8203 364.945 62.418 364.789L65.1621 364.623V363.705C65.1621 362.641 64.4688 362.055 63.1602 362.055C62.0469 362.055 61.3242 362.455 61.0801 363.158L61.0703 363.197H58.7754L58.7852 363.109C59.0195 361.312 60.7383 360.121 63.2773 360.121C66.0215 360.121 67.5645 361.449 67.5645 363.705V371H65.1621V369.535H64.9961C64.4102 370.57 63.2773 371.176 61.8711 371.176ZM60.7676 367.865C60.7676 368.773 61.5391 369.311 62.6133 369.311C64.0781 369.311 65.1621 368.354 65.1621 367.084V366.225L62.7598 366.381C61.4023 366.469 60.7676 366.967 60.7676 367.846V367.865ZM75.0645 371.215C71.8516 371.215 69.957 369.135 69.957 365.648V365.629C69.957 362.182 71.8418 360.121 75.0547 360.121C77.7988 360.121 79.4395 361.645 79.7129 363.852V363.891H77.418L77.4082 363.861C77.1836 362.826 76.3926 362.084 75.0645 362.084C73.4043 362.084 72.4277 363.393 72.4277 365.629V365.648C72.4277 367.914 73.4141 369.242 75.0645 369.242C76.3242 369.242 77.0957 368.666 77.3984 367.543L77.418 367.504L79.7129 367.494L79.6934 367.572C79.3418 369.76 77.7695 371.215 75.0645 371.215ZM86.6074 371.215C83.3945 371.215 81.5 369.135 81.5 365.648V365.629C81.5 362.182 83.3848 360.121 86.5977 360.121C89.3418 360.121 90.9824 361.645 91.2559 363.852V363.891H88.9609L88.9512 363.861C88.7266 362.826 87.9355 362.084 86.6074 362.084C84.9473 362.084 83.9707 363.393 83.9707 365.629V365.648C83.9707 367.914 84.957 369.242 86.6074 369.242C87.8672 369.242 88.6387 368.666 88.9414 367.543L88.9609 367.504L91.2559 367.494L91.2363 367.572C90.8848 369.76 89.3125 371.215 86.6074 371.215ZM98.1406 371.215C94.9668 371.215 93.043 369.086 93.043 365.688V365.678C93.043 362.318 94.9863 360.121 98.0234 360.121C101.061 360.121 102.936 362.25 102.936 365.473V366.273H95.4746C95.5039 368.188 96.5391 369.301 98.1895 369.301C99.5078 369.301 100.26 368.637 100.494 368.148L100.523 368.08H102.838L102.809 368.168C102.467 369.545 101.041 371.215 98.1406 371.215ZM98.0527 362.025C96.6953 362.025 95.6797 362.943 95.4941 364.643H100.562C100.396 362.895 99.4102 362.025 98.0527 362.025ZM109.4 371.215C106.686 371.215 105.045 369.965 104.84 368.158V368.139H107.252L107.262 368.158C107.516 368.9 108.229 369.418 109.439 369.418C110.65 369.418 111.49 368.871 111.49 368.07V368.051C111.49 367.426 111.021 367.016 109.85 366.752L108.121 366.361C106.09 365.912 105.123 364.955 105.123 363.383V363.373C105.123 361.449 106.881 360.121 109.4 360.121C111.998 360.121 113.551 361.41 113.707 363.139V363.158H111.422L111.412 363.129C111.236 362.455 110.533 361.908 109.391 361.908C108.307 361.908 107.525 362.436 107.525 363.236V363.246C107.525 363.871 107.975 364.252 109.127 364.516L110.855 364.896C112.945 365.365 113.932 366.254 113.932 367.807V367.826C113.932 369.857 112.027 371.215 109.4 371.215ZM120.221 371.215C117.506 371.215 115.865 369.965 115.66 368.158V368.139H118.072L118.082 368.158C118.336 368.9 119.049 369.418 120.26 369.418C121.471 369.418 122.311 368.871 122.311 368.07V368.051C122.311 367.426 121.842 367.016 120.67 366.752L118.941 366.361C116.91 365.912 115.943 364.955 115.943 363.383V363.373C115.943 361.449 117.701 360.121 120.221 360.121C122.818 360.121 124.371 361.41 124.527 363.139V363.158H122.242L122.232 363.129C122.057 362.455 121.354 361.908 120.211 361.908C119.127 361.908 118.346 362.436 118.346 363.236V363.246C118.346 363.871 118.795 364.252 119.947 364.516L121.676 364.896C123.766 365.365 124.752 366.254 124.752 367.807V367.826C124.752 369.857 122.848 371.215 120.221 371.215ZM135.406 371L131.607 360.326H134.205L136.676 368.627H136.842L139.293 360.326H141.852L138.072 371H135.406ZM145.152 358.539C144.352 358.539 143.697 357.904 143.697 357.104C143.697 356.312 144.352 355.668 145.152 355.668C145.943 355.668 146.598 356.312 146.598 357.104C146.598 357.904 145.943 358.539 145.152 358.539ZM143.932 371V360.326H146.363V371H143.932ZM152.262 371.176C150.23 371.176 148.756 369.926 148.756 367.982V367.963C148.756 366.059 150.211 364.945 152.809 364.789L155.553 364.623V363.705C155.553 362.641 154.859 362.055 153.551 362.055C152.438 362.055 151.715 362.455 151.471 363.158L151.461 363.197H149.166L149.176 363.109C149.41 361.312 151.129 360.121 153.668 360.121C156.412 360.121 157.955 361.449 157.955 363.705V371H155.553V369.535H155.387C154.801 370.57 153.668 371.176 152.262 371.176ZM151.158 367.865C151.158 368.773 151.93 369.311 153.004 369.311C154.469 369.311 155.553 368.354 155.553 367.084V366.225L153.15 366.381C151.793 366.469 151.158 366.967 151.158 367.846V367.865ZM170.787 371.215C167.574 371.215 165.68 369.135 165.68 365.648V365.629C165.68 362.182 167.564 360.121 170.777 360.121C173.521 360.121 175.162 361.645 175.436 363.852V363.891H173.141L173.131 363.861C172.906 362.826 172.115 362.084 170.787 362.084C169.127 362.084 168.15 363.393 168.15 365.629V365.648C168.15 367.914 169.137 369.242 170.787 369.242C172.047 369.242 172.818 368.666 173.121 367.543L173.141 367.504L175.436 367.494L175.416 367.572C175.064 369.76 173.492 371.215 170.787 371.215ZM180.66 371.176C178.629 371.176 177.154 369.926 177.154 367.982V367.963C177.154 366.059 178.609 364.945 181.207 364.789L183.951 364.623V363.705C183.951 362.641 183.258 362.055 181.949 362.055C180.836 362.055 180.113 362.455 179.869 363.158L179.859 363.197H177.564L177.574 363.109C177.809 361.312 179.527 360.121 182.066 360.121C184.811 360.121 186.354 361.449 186.354 363.705V371H183.951V369.535H183.785C183.199 370.57 182.066 371.176 180.66 371.176ZM179.557 367.865C179.557 368.773 180.328 369.311 181.402 369.311C182.867 369.311 183.951 368.354 183.951 367.084V366.225L181.549 366.381C180.191 366.469 179.557 366.967 179.557 367.846V367.865ZM189.371 371V356.195H191.803V371H189.371ZM194.977 371V356.195H197.408V371H194.977Z" fill="black"/>
<rect x="224" y="331" width="335" height="42" rx="4" fill="#4492F0"/>
<path d="M238.426 360V358.018L242.967 353.535C244.949 351.611 245.486 350.898 245.486 349.912V349.883C245.486 348.682 244.666 347.842 243.318 347.842C241.941 347.842 240.994 348.76 240.994 350.098V350.146H238.27L238.26 350.107C238.26 347.402 240.369 345.547 243.455 345.547C246.355 345.547 248.387 347.207 248.387 349.639V349.668C248.387 351.27 247.557 352.598 244.988 354.971L242.381 357.402V357.627H248.592V360H238.426ZM256.561 360.312C253.377 360.312 251.277 358.604 251.082 356.084L251.072 355.957H253.895L253.904 356.064C254.031 357.158 255.037 357.939 256.561 357.939C258.064 357.939 259.051 357.1 259.051 355.908V355.889C259.051 354.541 258.045 353.799 256.336 353.799H254.725V351.699H256.297C257.781 351.699 258.738 350.918 258.738 349.775V349.756C258.738 348.584 257.928 347.861 256.541 347.861C255.154 347.861 254.227 348.613 254.109 349.785L254.1 349.873H251.385L251.395 349.756C251.6 347.236 253.582 345.596 256.541 345.596C259.568 345.596 261.521 347.119 261.521 349.365V349.385C261.521 351.143 260.232 352.285 258.582 352.627V352.686C260.682 352.881 262.049 354.092 262.049 356.006V356.025C262.049 358.584 259.852 360.312 256.561 360.312Z" fill="white"/>
<path d="M72.4766 416.352C68.4824 416.352 66.002 413.52 66.002 408.969V408.949C66.002 404.379 68.4727 401.557 72.4668 401.557C75.6699 401.557 78.1016 403.588 78.4336 406.469V406.547H75.9629L75.9531 406.508C75.5918 404.838 74.2441 403.734 72.4668 403.734C70.0742 403.734 68.5801 405.736 68.5801 408.939V408.959C68.5801 412.172 70.0742 414.174 72.4766 414.174C74.2637 414.174 75.5918 413.178 75.9531 411.625L75.9629 411.576H78.4336V411.645C78.0625 414.467 75.7285 416.352 72.4766 416.352ZM84.5273 416.215C82.125 416.215 80.8945 414.77 80.8945 412.23V405.326H83.3262V411.674C83.3262 413.324 83.9414 414.164 85.4062 414.164C86.9785 414.164 87.8184 413.148 87.8184 411.547V405.326H90.25V416H87.8184V414.379H87.6523C87.1543 415.521 86.0703 416.215 84.5273 416.215ZM97.252 416.215C94.5371 416.215 92.8965 414.965 92.6914 413.158V413.139H95.1035L95.1133 413.158C95.3672 413.9 96.0801 414.418 97.291 414.418C98.502 414.418 99.3418 413.871 99.3418 413.07V413.051C99.3418 412.426 98.873 412.016 97.7012 411.752L95.9727 411.361C93.9414 410.912 92.9746 409.955 92.9746 408.383V408.373C92.9746 406.449 94.7324 405.121 97.252 405.121C99.8496 405.121 101.402 406.41 101.559 408.139V408.158H99.2734L99.2637 408.129C99.0879 407.455 98.3848 406.908 97.2422 406.908C96.1582 406.908 95.377 407.436 95.377 408.236V408.246C95.377 408.871 95.8262 409.252 96.9785 409.516L98.707 409.896C100.797 410.365 101.783 411.254 101.783 412.807V412.826C101.783 414.857 99.8789 416.215 97.252 416.215ZM108.355 416.049C105.904 416.049 104.898 415.229 104.898 413.168V407.211H103.238V405.326H104.898V402.709H107.369V405.326H109.625V407.211H107.369V412.592C107.369 413.656 107.789 414.105 108.805 414.105C109.146 414.105 109.332 414.096 109.625 414.066V415.941C109.273 416.01 108.824 416.049 108.355 416.049ZM116.559 416.215C113.355 416.215 111.422 414.125 111.422 410.668V410.648C111.422 407.221 113.385 405.121 116.559 405.121C119.742 405.121 121.695 407.211 121.695 410.648V410.668C121.695 414.125 119.752 416.215 116.559 416.215ZM116.559 414.242C118.248 414.242 119.205 412.924 119.205 410.678V410.658C119.205 408.412 118.238 407.084 116.559 407.084C114.869 407.084 113.902 408.412 113.902 410.658V410.678C113.902 412.924 114.869 414.242 116.559 414.242ZM124.137 416V405.326H126.568V406.986H126.734C127.193 405.795 128.268 405.121 129.664 405.121C131.109 405.121 132.164 405.863 132.623 407.045H132.789C133.307 405.883 134.537 405.121 136.021 405.121C138.17 405.121 139.459 406.439 139.459 408.656V416H137.027V409.252C137.027 407.865 136.393 407.162 135.094 407.162C133.824 407.162 133.004 408.109 133.004 409.33V416H130.572V409.076C130.572 407.895 129.84 407.162 128.648 407.162C127.447 407.162 126.568 408.178 126.568 409.506V416H124.137ZM143.59 403.539C142.789 403.539 142.135 402.904 142.135 402.104C142.135 401.312 142.789 400.668 143.59 400.668C144.381 400.668 145.035 401.312 145.035 402.104C145.035 402.904 144.381 403.539 143.59 403.539ZM142.369 416V405.326H144.801V416H142.369ZM151.822 416.215C149.107 416.215 147.467 414.965 147.262 413.158V413.139H149.674L149.684 413.158C149.938 413.9 150.65 414.418 151.861 414.418C153.072 414.418 153.912 413.871 153.912 413.07V413.051C153.912 412.426 153.443 412.016 152.271 411.752L150.543 411.361C148.512 410.912 147.545 409.955 147.545 408.383V408.373C147.545 406.449 149.303 405.121 151.822 405.121C154.42 405.121 155.973 406.41 156.129 408.139V408.158H153.844L153.834 408.129C153.658 407.455 152.955 406.908 151.812 406.908C150.729 406.908 149.947 407.436 149.947 408.236V408.246C149.947 408.871 150.396 409.252 151.549 409.516L153.277 409.896C155.367 410.365 156.354 411.254 156.354 412.807V412.826C156.354 414.857 154.449 416.215 151.822 416.215ZM161.715 416.176C159.684 416.176 158.209 414.926 158.209 412.982V412.963C158.209 411.059 159.664 409.945 162.262 409.789L165.006 409.623V408.705C165.006 407.641 164.312 407.055 163.004 407.055C161.891 407.055 161.168 407.455 160.924 408.158L160.914 408.197H158.619L158.629 408.109C158.863 406.312 160.582 405.121 163.121 405.121C165.865 405.121 167.408 406.449 167.408 408.705V416H165.006V414.535H164.84C164.254 415.57 163.121 416.176 161.715 416.176ZM160.611 412.865C160.611 413.773 161.383 414.311 162.457 414.311C163.922 414.311 165.006 413.354 165.006 412.084V411.225L162.604 411.381C161.246 411.469 160.611 411.967 160.611 412.846V412.865ZM176.266 416.176C174.771 416.176 173.609 415.492 173.023 414.33H172.857V416H170.426V401.195H172.857V407.025H173.023C173.58 405.873 174.801 405.15 176.266 405.15C178.971 405.15 180.65 407.26 180.65 410.658V410.678C180.65 414.057 178.941 416.176 176.266 416.176ZM175.504 414.125C177.164 414.125 178.17 412.826 178.17 410.678V410.658C178.17 408.51 177.164 407.201 175.504 407.201C173.854 407.201 172.828 408.52 172.828 410.658V410.678C172.828 412.816 173.854 414.125 175.504 414.125ZM183.18 416V401.195H185.611V416H183.18ZM193.258 416.215C190.084 416.215 188.16 414.086 188.16 410.688V410.678C188.16 407.318 190.104 405.121 193.141 405.121C196.178 405.121 198.053 407.25 198.053 410.473V411.273H190.592C190.621 413.188 191.656 414.301 193.307 414.301C194.625 414.301 195.377 413.637 195.611 413.148L195.641 413.08H197.955L197.926 413.168C197.584 414.545 196.158 416.215 193.258 416.215ZM193.17 407.025C191.812 407.025 190.797 407.943 190.611 409.643H195.68C195.514 407.895 194.527 407.025 193.17 407.025ZM88.4336 439.176C85.7578 439.176 84.0586 437.057 84.0586 433.678V433.658C84.0586 430.26 85.7285 428.15 88.4336 428.15C89.8984 428.15 91.1191 428.873 91.6758 430.025H91.8418V424.195H94.2832V439H91.8418V437.33H91.6758C91.0898 438.492 89.9375 439.176 88.4336 439.176ZM89.1953 437.125C90.8555 437.125 91.8809 435.816 91.8809 433.678V433.658C91.8809 431.52 90.8457 430.201 89.1953 430.201C87.5449 430.201 86.5293 431.51 86.5293 433.658V433.678C86.5293 435.826 87.5352 437.125 89.1953 437.125ZM100.25 439.176C98.2188 439.176 96.7441 437.926 96.7441 435.982V435.963C96.7441 434.059 98.1992 432.945 100.797 432.789L103.541 432.623V431.705C103.541 430.641 102.848 430.055 101.539 430.055C100.426 430.055 99.7031 430.455 99.459 431.158L99.4492 431.197H97.1543L97.1641 431.109C97.3984 429.312 99.1172 428.121 101.656 428.121C104.4 428.121 105.943 429.449 105.943 431.705V439H103.541V437.535H103.375C102.789 438.57 101.656 439.176 100.25 439.176ZM99.1465 435.865C99.1465 436.773 99.918 437.311 100.992 437.311C102.457 437.311 103.541 436.354 103.541 435.084V434.225L101.139 434.381C99.7812 434.469 99.1465 434.967 99.1465 435.846V435.865ZM112.896 439.215C110.182 439.215 108.541 437.965 108.336 436.158V436.139H110.748L110.758 436.158C111.012 436.9 111.725 437.418 112.936 437.418C114.146 437.418 114.986 436.871 114.986 436.07V436.051C114.986 435.426 114.518 435.016 113.346 434.752L111.617 434.361C109.586 433.912 108.619 432.955 108.619 431.383V431.373C108.619 429.449 110.377 428.121 112.896 428.121C115.494 428.121 117.047 429.41 117.203 431.139V431.158H114.918L114.908 431.129C114.732 430.455 114.029 429.908 112.887 429.908C111.803 429.908 111.021 430.436 111.021 431.236V431.246C111.021 431.871 111.471 432.252 112.623 432.516L114.352 432.896C116.441 433.365 117.428 434.254 117.428 435.807V435.826C117.428 437.857 115.523 439.215 112.896 439.215ZM119.977 439V424.195H122.408V429.957H122.574C123.082 428.814 124.107 428.121 125.65 428.121C128.033 428.121 129.332 429.557 129.332 432.096V439H126.9V432.662C126.9 431.002 126.227 430.162 124.752 430.162C123.307 430.162 122.408 431.178 122.408 432.779V439H119.977ZM138.141 439.176C136.646 439.176 135.484 438.492 134.898 437.33H134.732V439H132.301V424.195H134.732V430.025H134.898C135.455 428.873 136.676 428.15 138.141 428.15C140.846 428.15 142.525 430.26 142.525 433.658V433.678C142.525 437.057 140.816 439.176 138.141 439.176ZM137.379 437.125C139.039 437.125 140.045 435.826 140.045 433.678V433.658C140.045 431.51 139.039 430.201 137.379 430.201C135.729 430.201 134.703 431.52 134.703 433.658V433.678C134.703 435.816 135.729 437.125 137.379 437.125ZM149.566 439.215C146.363 439.215 144.43 437.125 144.43 433.668V433.648C144.43 430.221 146.393 428.121 149.566 428.121C152.75 428.121 154.703 430.211 154.703 433.648V433.668C154.703 437.125 152.76 439.215 149.566 439.215ZM149.566 437.242C151.256 437.242 152.213 435.924 152.213 433.678V433.658C152.213 431.412 151.246 430.084 149.566 430.084C147.877 430.084 146.91 431.412 146.91 433.658V433.678C146.91 435.924 147.877 437.242 149.566 437.242ZM160.055 439.176C158.023 439.176 156.549 437.926 156.549 435.982V435.963C156.549 434.059 158.004 432.945 160.602 432.789L163.346 432.623V431.705C163.346 430.641 162.652 430.055 161.344 430.055C160.23 430.055 159.508 430.455 159.264 431.158L159.254 431.197H156.959L156.969 431.109C157.203 429.312 158.922 428.121 161.461 428.121C164.205 428.121 165.748 429.449 165.748 431.705V439H163.346V437.535H163.18C162.594 438.57 161.461 439.176 160.055 439.176ZM158.951 435.865C158.951 436.773 159.723 437.311 160.797 437.311C162.262 437.311 163.346 436.354 163.346 435.084V434.225L160.943 434.381C159.586 434.469 158.951 434.967 158.951 435.846V435.865ZM168.668 439V428.326H171.1V429.967H171.266C171.627 428.824 172.604 428.15 174.01 428.15C174.381 428.15 174.762 428.199 174.996 428.268V430.445C174.605 430.367 174.205 430.309 173.785 430.309C172.164 430.309 171.1 431.275 171.1 432.799V439H168.668ZM180.562 439.176C177.887 439.176 176.188 437.057 176.188 433.678V433.658C176.188 430.26 177.857 428.15 180.562 428.15C182.027 428.15 183.248 428.873 183.805 430.025H183.971V424.195H186.412V439H183.971V437.33H183.805C183.219 438.492 182.066 439.176 180.562 439.176ZM181.324 437.125C182.984 437.125 184.01 435.816 184.01 433.678V433.658C184.01 431.52 182.975 430.201 181.324 430.201C179.674 430.201 178.658 431.51 178.658 433.658V433.678C178.658 435.826 179.664 437.125 181.324 437.125ZM193.502 439.215C190.787 439.215 189.146 437.965 188.941 436.158V436.139H191.354L191.363 436.158C191.617 436.9 192.33 437.418 193.541 437.418C194.752 437.418 195.592 436.871 195.592 436.07V436.051C195.592 435.426 195.123 435.016 193.951 434.752L192.223 434.361C190.191 433.912 189.225 432.955 189.225 431.383V431.373C189.225 429.449 190.982 428.121 193.502 428.121C196.1 428.121 197.652 429.41 197.809 431.139V431.158H195.523L195.514 431.129C195.338 430.455 194.635 429.908 193.492 429.908C192.408 429.908 191.627 430.436 191.627 431.236V431.246C191.627 431.871 192.076 432.252 193.229 432.516L194.957 432.896C197.047 433.365 198.033 434.254 198.033 435.807V435.826C198.033 437.857 196.129 439.215 193.502 439.215Z" fill="black"/>
<rect x="224" y="399" width="204" height="42" rx="4" fill="#4492F0"/>
<path d="M241.873 428V416.691H241.697L238.24 419.094V416.438L241.883 413.908H244.822V428H241.873ZM255.193 428V425.412H248.289V423.098C250.076 419.924 251.99 416.799 253.865 413.908H258.006V423.049H259.842V425.412H258.006V428H255.193ZM250.945 423.127H255.252V416.145H255.096C253.729 418.244 252.215 420.695 250.945 422.971V423.127Z" fill="white"/>
<path d="M99.1562 484V469.908H104.781C107.643 469.908 109.576 471.793 109.576 474.615V474.635C109.576 477.447 107.643 479.342 104.781 479.342H101.676V484H99.1562ZM104.166 471.969H101.676V477.311H104.166C105.973 477.311 107.027 476.334 107.027 474.645V474.625C107.027 472.936 105.973 471.969 104.166 471.969ZM112.105 484V473.326H114.537V474.967H114.703C115.064 473.824 116.041 473.15 117.447 473.15C117.818 473.15 118.199 473.199 118.434 473.268V475.445C118.043 475.367 117.643 475.309 117.223 475.309C115.602 475.309 114.537 476.275 114.537 477.799V484H112.105ZM124.762 484.215C121.559 484.215 119.625 482.125 119.625 478.668V478.648C119.625 475.221 121.588 473.121 124.762 473.121C127.945 473.121 129.898 475.211 129.898 478.648V478.668C129.898 482.125 127.955 484.215 124.762 484.215ZM124.762 482.242C126.451 482.242 127.408 480.924 127.408 478.678V478.658C127.408 476.412 126.441 475.084 124.762 475.084C123.072 475.084 122.105 476.412 122.105 478.658V478.678C122.105 480.924 123.072 482.242 124.762 482.242ZM132.34 484V473.326H134.771V474.986H134.938C135.396 473.795 136.471 473.121 137.867 473.121C139.312 473.121 140.367 473.863 140.826 475.045H140.992C141.51 473.883 142.74 473.121 144.225 473.121C146.373 473.121 147.662 474.439 147.662 476.656V484H145.23V477.252C145.23 475.865 144.596 475.162 143.297 475.162C142.027 475.162 141.207 476.109 141.207 477.33V484H138.775V477.076C138.775 475.895 138.043 475.162 136.852 475.162C135.65 475.162 134.771 476.178 134.771 477.506V484H132.34ZM155.152 484.215C151.949 484.215 150.016 482.125 150.016 478.668V478.648C150.016 475.221 151.979 473.121 155.152 473.121C158.336 473.121 160.289 475.211 160.289 478.648V478.668C160.289 482.125 158.346 484.215 155.152 484.215ZM155.152 482.242C156.842 482.242 157.799 480.924 157.799 478.678V478.658C157.799 476.412 156.832 475.084 155.152 475.084C153.463 475.084 152.496 476.412 152.496 478.658V478.678C152.496 480.924 153.463 482.242 155.152 482.242ZM166.93 484.049C164.479 484.049 163.473 483.229 163.473 481.168V475.211H161.812V473.326H163.473V470.709H165.943V473.326H168.199V475.211H165.943V480.592C165.943 481.656 166.363 482.105 167.379 482.105C167.721 482.105 167.906 482.096 168.199 482.066V483.941C167.848 484.01 167.398 484.049 166.93 484.049ZM171.871 471.539C171.07 471.539 170.416 470.904 170.416 470.104C170.416 469.312 171.07 468.668 171.871 468.668C172.662 468.668 173.316 469.312 173.316 470.104C173.316 470.904 172.662 471.539 171.871 471.539ZM170.65 484V473.326H173.082V484H170.65ZM180.68 484.215C177.477 484.215 175.543 482.125 175.543 478.668V478.648C175.543 475.221 177.506 473.121 180.68 473.121C183.863 473.121 185.816 475.211 185.816 478.648V478.668C185.816 482.125 183.873 484.215 180.68 484.215ZM180.68 482.242C182.369 482.242 183.326 480.924 183.326 478.678V478.658C183.326 476.412 182.359 475.084 180.68 475.084C178.99 475.084 178.023 476.412 178.023 478.658V478.678C178.023 480.924 178.99 482.242 180.68 482.242ZM188.258 484V473.326H190.689V474.957H190.855C191.363 473.814 192.389 473.121 193.932 473.121C196.314 473.121 197.613 474.557 197.613 477.096V484H195.182V477.662C195.182 476.002 194.508 475.162 193.033 475.162C191.588 475.162 190.689 476.178 190.689 477.779V484H188.258ZM72.4375 507V496.326H74.8691V497.986H75.0352C75.4941 496.795 76.5684 496.121 77.9648 496.121C79.4102 496.121 80.4648 496.863 80.9238 498.045H81.0898C81.6074 496.883 82.8379 496.121 84.3223 496.121C86.4707 496.121 87.7598 497.439 87.7598 499.656V507H85.3281V500.252C85.3281 498.865 84.6934 498.162 83.3945 498.162C82.125 498.162 81.3047 499.109 81.3047 500.33V507H78.873V500.076C78.873 498.895 78.1406 498.162 76.9492 498.162C75.748 498.162 74.8691 499.178 74.8691 500.506V507H72.4375ZM93.5508 507.176C91.5195 507.176 90.0449 505.926 90.0449 503.982V503.963C90.0449 502.059 91.5 500.945 94.0977 500.789L96.8418 500.623V499.705C96.8418 498.641 96.1484 498.055 94.8398 498.055C93.7266 498.055 93.0039 498.455 92.7598 499.158L92.75 499.197H90.4551L90.4648 499.109C90.6992 497.312 92.418 496.121 94.957 496.121C97.7012 496.121 99.2441 497.449 99.2441 499.705V507H96.8418V505.535H96.6758C96.0898 506.57 94.957 507.176 93.5508 507.176ZM92.4473 503.865C92.4473 504.773 93.2188 505.311 94.293 505.311C95.7578 505.311 96.8418 504.354 96.8418 503.084V502.225L94.4395 502.381C93.082 502.469 92.4473 502.967 92.4473 503.846V503.865ZM102.164 507V496.326H104.596V497.957H104.762C105.27 496.814 106.295 496.121 107.838 496.121C110.221 496.121 111.52 497.557 111.52 500.096V507H109.088V500.662C109.088 499.002 108.414 498.162 106.939 498.162C105.494 498.162 104.596 499.178 104.596 500.779V507H102.164ZM117.301 507.176C115.27 507.176 113.795 505.926 113.795 503.982V503.963C113.795 502.059 115.25 500.945 117.848 500.789L120.592 500.623V499.705C120.592 498.641 119.898 498.055 118.59 498.055C117.477 498.055 116.754 498.455 116.51 499.158L116.5 499.197H114.205L114.215 499.109C114.449 497.312 116.168 496.121 118.707 496.121C121.451 496.121 122.994 497.449 122.994 499.705V507H120.592V505.535H120.426C119.84 506.57 118.707 507.176 117.301 507.176ZM116.197 503.865C116.197 504.773 116.969 505.311 118.043 505.311C119.508 505.311 120.592 504.354 120.592 503.084V502.225L118.189 502.381C116.832 502.469 116.197 502.967 116.197 503.846V503.865ZM130.504 510.75C127.691 510.75 126.002 509.549 125.758 507.752L125.768 507.723H128.199L128.209 507.752C128.375 508.436 129.186 508.914 130.543 508.914C132.203 508.914 133.17 508.143 133.17 506.775V504.734H133.004C132.389 505.877 131.227 506.502 129.752 506.502C127.047 506.502 125.367 504.412 125.367 501.385V501.365C125.367 498.279 127.047 496.15 129.801 496.15C131.275 496.15 132.428 496.873 133.033 498.084H133.16V496.326H135.592V506.736C135.592 509.197 133.619 510.75 130.504 510.75ZM130.504 504.568C132.193 504.568 133.209 503.27 133.209 501.385V501.365C133.209 499.48 132.184 498.172 130.504 498.172C128.814 498.172 127.857 499.48 127.857 501.365V501.385C127.857 503.27 128.814 504.568 130.504 504.568ZM143.141 507.215C139.967 507.215 138.043 505.086 138.043 501.688V501.678C138.043 498.318 139.986 496.121 143.023 496.121C146.061 496.121 147.936 498.25 147.936 501.473V502.273H140.475C140.504 504.188 141.539 505.301 143.189 505.301C144.508 505.301 145.26 504.637 145.494 504.148L145.523 504.08H147.838L147.809 504.168C147.467 505.545 146.041 507.215 143.141 507.215ZM143.053 498.025C141.695 498.025 140.68 498.943 140.494 500.643H145.562C145.396 498.895 144.41 498.025 143.053 498.025ZM150.367 507V496.326H152.799V497.986H152.965C153.424 496.795 154.498 496.121 155.895 496.121C157.34 496.121 158.395 496.863 158.854 498.045H159.02C159.537 496.883 160.768 496.121 162.252 496.121C164.4 496.121 165.689 497.439 165.689 499.656V507H163.258V500.252C163.258 498.865 162.623 498.162 161.324 498.162C160.055 498.162 159.234 499.109 159.234 500.33V507H156.803V500.076C156.803 498.895 156.07 498.162 154.879 498.162C153.678 498.162 152.799 499.178 152.799 500.506V507H150.367ZM173.141 507.215C169.967 507.215 168.043 505.086 168.043 501.688V501.678C168.043 498.318 169.986 496.121 173.023 496.121C176.061 496.121 177.936 498.25 177.936 501.473V502.273H170.475C170.504 504.188 171.539 505.301 173.189 505.301C174.508 505.301 175.26 504.637 175.494 504.148L175.523 504.08H177.838L177.809 504.168C177.467 505.545 176.041 507.215 173.141 507.215ZM173.053 498.025C171.695 498.025 170.68 498.943 170.494 500.643H175.562C175.396 498.895 174.41 498.025 173.053 498.025ZM180.367 507V496.326H182.799V497.957H182.965C183.473 496.814 184.498 496.121 186.041 496.121C188.424 496.121 189.723 497.557 189.723 500.096V507H187.291V500.662C187.291 499.002 186.617 498.162 185.143 498.162C183.697 498.162 182.799 499.178 182.799 500.779V507H180.367ZM196.793 507.049C194.342 507.049 193.336 506.229 193.336 504.168V498.211H191.676V496.326H193.336V493.709H195.807V496.326H198.062V498.211H195.807V503.592C195.807 504.656 196.227 505.105 197.242 505.105C197.584 505.105 197.77 505.096 198.062 505.066V506.941C197.711 507.01 197.262 507.049 196.793 507.049Z" fill="black"/>
<rect x="224" y="467" width="175" height="42" rx="4" fill="#4492F0"/>
<path d="M241.873 496V484.691H241.697L238.24 487.094V484.438L241.883 481.908H244.822V496H241.873ZM248.66 496V494.018L253.201 489.535C255.184 487.611 255.721 486.898 255.721 485.912V485.883C255.721 484.682 254.9 483.842 253.553 483.842C252.176 483.842 251.229 484.76 251.229 486.098V486.146H248.504L248.494 486.107C248.494 483.402 250.604 481.547 253.689 481.547C256.59 481.547 258.621 483.207 258.621 485.639V485.668C258.621 487.27 257.791 488.598 255.223 490.971L252.615 493.402V493.627H258.826V496H248.66Z" fill="white"/>
</svg>
