<svg width="1031" height="790" viewBox="0 0 1031 790" fill="none" xmlns="http://www.w3.org/2000/svg">
<g filter="url(#filter0_ddd_2160_1127)">
<g clip-path="url(#clip0_2160_1127)">
<rect x="28" y="21" width="975" height="666.848" rx="16.3411" fill="white"/>
<rect x="79.0984" y="167.906" width="877.172" height="2.12906" fill="#0A2540" fill-opacity="0.1"/>
<path fill-rule="evenodd" clip-rule="evenodd" d="M115.377 100.243L133.845 118.511L130.812 121.519L109.361 100.206L130.813 78.9375L133.843 81.9479L115.377 100.243Z" fill="#0A2540" fill-opacity="0.5"/>
<path d="M193.865 111.74H198.157V98.787H202.717C203.369 106.567 209.002 112.085 216.973 112.085C225.366 112.085 231.23 105.838 231.23 97.3691C231.23 88.8614 225.366 82.653 216.973 82.653C209.385 82.653 203.905 87.6733 202.871 94.8398H198.157V82.9979H193.865V111.74ZM226.784 97.3691C226.784 103.807 222.875 108.138 216.973 108.138C211.033 108.138 207.163 103.807 207.163 97.3691C207.163 90.9308 211.033 86.6003 216.973 86.6003C222.875 86.6003 226.784 90.9308 226.784 97.3691ZM237.427 111.74H241.528V88.938L250.802 100.895H251.683L260.996 88.7847V111.74H265.135V82.9979H260.574L251.377 95.108L241.988 82.9979H237.427V111.74ZM280.64 92.3488C274.892 92.3488 270.638 96.526 270.638 102.198C270.638 107.908 274.892 112.085 280.64 112.085C286.427 112.085 290.642 107.908 290.642 102.198C290.642 96.526 286.427 92.3488 280.64 92.3488ZM280.64 95.9895C284.127 95.9895 286.503 98.4805 286.503 102.198C286.503 105.915 284.127 108.444 280.64 108.444C277.153 108.444 274.777 105.915 274.777 102.198C274.777 98.4805 277.153 95.9895 280.64 95.9895ZM295.111 111.74H299.058V101.086C299.058 97.4074 301.511 96.0278 303.925 96.0278C306.455 96.0278 308.333 97.6373 308.333 100.818V111.74H312.318V100.282C312.318 95.0314 308.907 92.3488 304.845 92.3488C302.431 92.3488 300.4 93.3452 298.943 95.0697L298.79 92.6937H295.111V111.74ZM326.259 112.085C330.858 112.085 334.154 109.786 335.188 105.992L331.394 105.302C330.705 107.333 329.057 108.598 326.259 108.598C323.078 108.598 320.817 106.835 320.434 103.309H335.188C335.265 102.696 335.342 102.044 335.342 101.47C335.342 96.0661 331.509 92.3488 326.029 92.3488C320.396 92.3488 316.333 96.526 316.333 102.198C316.333 107.946 320.127 112.085 326.259 112.085ZM326.029 95.6829C328.827 95.6829 330.743 97.3691 331.126 100.128H320.587C321.239 97.1775 323.5 95.6829 326.029 95.6829ZM337.187 92.6937L345.388 111.625L342.054 120.171H346.154L356.885 92.6937H352.708L347.496 106.605L341.594 92.6937H337.187Z" fill="#0A2540"/>
<rect width="877.172" height="451" transform="translate(79.0961 170.033)" fill="white"/>
<path d="M91.2927 300.098H82.7317V276.146H90.7625C92.8104 276.146 94.4426 276.692 95.6589 277.783C96.8856 278.864 97.499 280.33 97.499 282.18C97.499 283.449 97.1923 284.535 96.5789 285.44C95.976 286.344 95.1287 287.025 94.0371 287.482C95.4926 287.877 96.6153 288.595 97.4054 289.634C98.2059 290.674 98.6061 291.937 98.6061 293.424C98.6061 295.461 97.9408 297.083 96.6101 298.289C95.2898 299.495 93.5174 300.098 91.2927 300.098ZM90.5598 278.516H85.4606V286.531H90.6533C91.9112 286.531 92.9144 286.157 93.6629 285.408C94.4114 284.65 94.7856 283.657 94.7856 282.43C94.7856 281.234 94.401 280.283 93.6317 279.576C92.8624 278.869 91.8384 278.516 90.5598 278.516ZM91.1367 288.917H85.4606V297.727H91.1679C92.5921 297.727 93.7253 297.343 94.5673 296.573C95.4094 295.804 95.8304 294.754 95.8304 293.424C95.8304 292.062 95.399 290.97 94.5361 290.149C93.6837 289.328 92.5506 288.917 91.1367 288.917ZM115.151 300.098H112.859L112.781 297.057C112.126 298.086 111.273 298.892 110.223 299.474C109.184 300.056 108.061 300.347 106.855 300.347C105.369 300.347 104.168 299.957 103.253 299.178C102.349 298.398 101.896 297.343 101.896 296.012C101.896 294.505 102.473 293.366 103.627 292.597C104.74 291.869 106.252 291.261 108.165 290.773L112.718 289.712C112.614 288.59 112.199 287.737 111.471 287.155C110.754 286.562 109.818 286.266 108.664 286.266C107.489 286.266 106.517 286.536 105.748 287.077C104.989 287.618 104.475 288.402 104.204 289.432L101.896 288.979C102.198 287.493 102.967 286.313 104.204 285.44C105.441 284.566 106.959 284.13 108.758 284.13C110.722 284.13 112.277 284.67 113.42 285.751C114.574 286.822 115.151 288.283 115.151 290.133V300.098ZM104.485 295.794C104.485 296.522 104.724 297.109 105.202 297.556C105.691 297.993 106.356 298.211 107.198 298.211C108.695 298.211 109.995 297.66 111.097 296.558C112.199 295.456 112.75 293.964 112.75 292.082V291.724L108.165 292.847C106.918 293.169 105.992 293.554 105.389 294.001C104.786 294.448 104.485 295.045 104.485 295.794ZM122.574 300.098H120.079V276.146H122.574V300.098ZM139.851 300.098H137.559L137.481 297.057C136.826 298.086 135.974 298.892 134.924 299.474C133.884 300.056 132.761 300.347 131.556 300.347C130.069 300.347 128.868 299.957 127.953 299.178C127.049 298.398 126.597 297.343 126.597 296.012C126.597 294.505 127.174 293.366 128.328 292.597C129.44 291.869 130.953 291.261 132.865 290.773L137.419 289.712C137.315 288.59 136.899 287.737 136.171 287.155C135.454 286.562 134.518 286.266 133.364 286.266C132.19 286.266 131.218 286.536 130.448 287.077C129.69 287.618 129.175 288.402 128.905 289.432L126.597 288.979C126.898 287.493 127.668 286.313 128.905 285.44C130.142 284.566 131.66 284.13 133.458 284.13C135.423 284.13 136.977 284.67 138.121 285.751C139.274 286.822 139.851 288.283 139.851 290.133V300.098ZM129.185 295.794C129.185 296.522 129.424 297.109 129.903 297.556C130.391 297.993 131.057 298.211 131.899 298.211C133.396 298.211 134.695 297.66 135.797 296.558C136.899 295.456 137.45 293.964 137.45 292.082V291.724L132.865 292.847C131.618 293.169 130.693 293.554 130.09 294.001C129.487 294.448 129.185 295.045 129.185 295.794ZM147.274 300.098H144.779V284.379H147.18L147.243 286.749C147.794 285.939 148.501 285.299 149.364 284.831C150.237 284.364 151.23 284.13 152.342 284.13C153.517 284.13 154.561 284.369 155.476 284.847C156.391 285.325 157.124 286.069 157.675 287.077C158.236 288.075 158.517 289.276 158.517 290.679V300.098H156.022V290.897C156.022 289.473 155.643 288.382 154.884 287.623C154.125 286.853 153.122 286.469 151.874 286.469C150.658 286.469 149.592 286.879 148.677 287.701C147.742 288.543 147.274 289.79 147.274 291.443V300.098ZM166.298 287.997C165.28 289.047 164.77 290.43 164.77 292.145C164.77 293.86 165.269 295.274 166.267 296.386C167.244 297.499 168.513 298.055 170.072 298.055C171.392 298.055 172.484 297.707 173.347 297.01C174.21 296.303 174.766 295.362 175.015 294.188L177.417 294.609C177.136 296.241 176.325 297.603 174.984 298.694C173.664 299.796 172.026 300.347 170.072 300.347C167.785 300.347 165.893 299.573 164.396 298.024C162.899 296.464 162.15 294.505 162.15 292.145C162.15 289.837 162.904 287.924 164.412 286.406C165.919 284.889 167.806 284.13 170.072 284.13C171.964 284.13 173.549 284.629 174.828 285.627C176.117 286.625 176.949 287.966 177.323 289.65L174.89 290.102C174.61 288.979 174.048 288.085 173.206 287.42C172.375 286.755 171.34 286.422 170.103 286.422C168.544 286.422 167.276 286.947 166.298 287.997ZM179.74 292.145C179.74 289.827 180.483 287.914 181.97 286.406C183.457 284.889 185.333 284.13 187.599 284.13C189.845 284.13 191.664 284.811 193.057 286.172C194.461 287.545 195.162 289.312 195.162 291.474C195.162 291.485 195.131 291.911 195.069 292.753H182.297C182.433 294.51 182.968 295.846 183.904 296.761C184.85 297.665 186.102 298.117 187.662 298.117C189.044 298.117 190.172 297.826 191.046 297.244C191.919 296.651 192.496 295.835 192.776 294.796L195.069 295.248C194.736 296.787 193.894 298.024 192.543 298.959C191.191 299.885 189.564 300.347 187.662 300.347C185.271 300.347 183.353 299.583 181.908 298.055C180.463 296.516 179.74 294.546 179.74 292.145ZM191.139 287.498C190.193 286.677 189.013 286.266 187.599 286.266C186.185 286.266 184.99 286.682 184.013 287.514C183.036 288.335 182.485 289.39 182.36 290.679H192.683C192.6 289.38 192.085 288.319 191.139 287.498ZM210.273 296.745H220.876V300.098H205.329V297.228L211.224 291.287C213.282 289.26 214.696 287.675 215.465 286.531C216.245 285.388 216.635 284.244 216.635 283.101C216.635 281.895 216.266 280.923 215.528 280.185C214.8 279.446 213.828 279.077 212.612 279.077C211.489 279.077 210.496 279.431 209.633 280.138C208.781 280.834 208.261 281.869 208.074 283.241L204.628 282.57C205.002 280.418 205.932 278.765 207.419 277.612C208.906 276.447 210.688 275.865 212.768 275.865C214.982 275.865 216.78 276.525 218.163 277.845C219.546 279.166 220.237 280.886 220.237 283.007C220.237 283.818 220.123 284.582 219.894 285.299C219.676 286.017 219.286 286.781 218.724 287.592C218.173 288.402 217.55 289.198 216.853 289.977C216.157 290.757 215.221 291.734 214.046 292.909L210.273 296.745ZM231.729 300.378C229.359 300.378 227.4 299.677 225.851 298.273C224.302 296.859 223.527 294.999 223.527 292.691C223.527 290.705 224.156 288.787 225.414 286.937L232.462 276.146H236.454L230.482 285.081C231.054 284.935 231.672 284.863 232.338 284.863C234.583 284.863 236.439 285.564 237.905 286.968C239.37 288.361 240.103 290.18 240.103 292.426C240.103 294.796 239.308 296.714 237.717 298.18C236.137 299.645 234.141 300.378 231.729 300.378ZM231.729 297.135C233.123 297.135 234.261 296.698 235.145 295.825C236.039 294.941 236.486 293.798 236.486 292.394C236.486 291.064 236.033 289.977 235.129 289.135C234.235 288.293 233.112 287.872 231.761 287.872C230.43 287.872 229.344 288.262 228.502 289.042C227.545 289.936 227.067 291.09 227.067 292.504C227.067 293.855 227.504 294.967 228.377 295.841C229.26 296.703 230.378 297.135 231.729 297.135ZM260.983 288.059C260.983 291.895 260.183 294.905 258.582 297.088C256.96 299.282 254.829 300.378 252.188 300.378C249.548 300.378 247.432 299.282 245.842 297.088C244.22 294.915 243.409 291.906 243.409 288.059C243.409 284.234 244.22 281.24 245.842 279.077C247.432 276.936 249.548 275.865 252.188 275.865C254.829 275.865 256.96 276.936 258.582 279.077C260.183 281.26 260.983 284.254 260.983 288.059ZM252.188 297.166C253.883 297.166 255.167 296.355 256.04 294.733C256.924 293.112 257.366 290.887 257.366 288.059C257.366 285.284 256.924 283.095 256.04 281.494C255.167 279.883 253.883 279.077 252.188 279.077C250.484 279.077 249.189 279.878 248.306 281.479C247.432 283.08 246.996 285.273 246.996 288.059C246.996 290.887 247.432 293.112 248.306 294.733C249.189 296.355 250.484 297.166 252.188 297.166ZM282.194 277.008C283.259 277.008 284.26 277.125 285.196 277.359C286.133 277.593 287.038 277.966 287.911 278.477L286.729 280.776C286.133 280.457 285.431 280.159 284.622 279.882C283.834 279.605 283.025 279.467 282.194 279.467C281.407 279.467 280.683 279.595 280.023 279.85C279.363 280.084 278.777 280.457 278.266 280.968C277.777 281.479 277.351 282.118 276.989 282.884C276.627 283.651 276.35 284.545 276.159 285.567H283.951V287.643H275.935C275.914 287.856 275.903 288.058 275.903 288.249C275.903 288.441 275.903 288.643 275.903 288.856C275.903 289.048 275.903 289.261 275.903 289.495C275.903 289.708 275.914 289.931 275.935 290.166H282.993V292.241H276.19C276.446 293.434 276.84 294.456 277.372 295.307C277.904 296.159 278.596 296.808 279.448 297.255C280.3 297.702 281.3 297.926 282.45 297.926C283.28 297.926 284.111 297.83 284.941 297.639C285.793 297.426 286.548 297.181 287.208 296.904V299.395C286.548 299.672 285.814 299.906 285.005 300.098C284.217 300.311 283.312 300.417 282.29 300.417C280.566 300.417 279.097 300.087 277.883 299.427C276.67 298.767 275.69 297.83 274.945 296.617C274.2 295.382 273.668 293.923 273.348 292.241H270.793V290.166H273.093C273.071 289.91 273.061 289.697 273.061 289.527C273.061 289.357 273.061 289.133 273.061 288.856C273.061 288.622 273.061 288.398 273.061 288.186C273.082 287.951 273.093 287.77 273.093 287.643H270.793V285.567H273.316C273.593 283.821 274.104 282.309 274.849 281.032C275.594 279.754 276.584 278.764 277.819 278.062C279.054 277.359 280.512 277.008 282.194 277.008Z" fill="#0A2540" fill-opacity="0.7"/>
<path d="M89.0534 244.442L96.7255 229.079H97.5301L105.277 244.405L110.76 219.873H114.016L107.616 248.615H104.042L97.1185 234.862L90.251 248.615H86.7331L80.3334 219.873H83.5894L89.0534 244.442ZM132.728 248.615H129.977L129.884 244.966C129.098 246.201 128.075 247.168 126.815 247.867C125.568 248.565 124.22 248.915 122.773 248.915C120.989 248.915 119.548 248.447 118.451 247.511C117.365 246.576 116.823 245.309 116.823 243.713C116.823 241.904 117.515 240.538 118.9 239.615C120.235 238.741 122.05 238.012 124.345 237.425L129.809 236.153C129.684 234.805 129.185 233.783 128.312 233.084C127.451 232.373 126.329 232.017 124.944 232.017C123.534 232.017 122.368 232.342 121.445 232.99C120.534 233.639 119.916 234.581 119.592 235.816L116.823 235.273C117.184 233.489 118.108 232.073 119.592 231.026C121.077 229.978 122.898 229.454 125.056 229.454C127.414 229.454 129.279 230.102 130.651 231.4C132.036 232.685 132.728 234.437 132.728 236.658V248.615ZM119.929 243.451C119.929 244.324 120.216 245.029 120.79 245.565C121.376 246.089 122.174 246.351 123.185 246.351C124.981 246.351 126.541 245.69 127.863 244.368C129.185 243.045 129.847 241.255 129.847 238.997V238.567L124.345 239.914C122.848 240.301 121.738 240.762 121.014 241.299C120.291 241.835 119.929 242.552 119.929 243.451ZM141.635 248.615H138.641V219.873H141.635V248.615ZM150.917 248.615H147.923V219.873H150.917V248.615ZM155.707 239.072C155.707 236.29 156.599 233.995 158.383 232.186C160.167 230.364 162.419 229.454 165.138 229.454C167.833 229.454 170.016 230.271 171.688 231.905C173.372 233.552 174.214 235.672 174.214 238.267C174.214 238.28 174.176 238.791 174.101 239.802H158.776C158.938 241.91 159.581 243.513 160.703 244.611C161.839 245.696 163.342 246.239 165.213 246.239C166.872 246.239 168.226 245.889 169.274 245.191C170.322 244.48 171.014 243.501 171.351 242.253L174.101 242.796C173.702 244.642 172.692 246.126 171.07 247.249C169.448 248.359 167.496 248.915 165.213 248.915C162.344 248.915 160.042 247.998 158.308 246.164C156.574 244.318 155.707 241.954 155.707 239.072ZM169.386 233.496C168.251 232.51 166.835 232.017 165.138 232.017C163.442 232.017 162.007 232.516 160.834 233.514C159.662 234.5 159 235.766 158.851 237.313H171.238C171.139 235.754 170.521 234.481 169.386 233.496ZM176.253 232.373V231.643L181.848 226.422H182.541V229.753H189.595V232.373H182.541V242.796C182.541 243.956 182.809 244.81 183.345 245.359C183.894 245.896 184.724 246.164 185.834 246.164C186.62 246.164 187.581 245.946 188.716 245.509L189.408 247.998C187.986 248.609 186.645 248.915 185.385 248.915C183.526 248.915 182.085 248.422 181.062 247.436C180.039 246.451 179.528 245.066 179.528 243.282V232.373H176.253Z" fill="#0A2540"/>
<circle cx="700.79" cy="263.712" r="39.3876" stroke="white" stroke-opacity="0.3" stroke-width="2.12906"/>
<g clip-path="url(#clip1_2160_1127)">
<path d="M672.225 269.031H669.73V253.313H672.131L672.194 255.356C672.672 254.649 673.29 254.092 674.049 253.687C674.818 253.271 675.676 253.063 676.622 253.063C677.683 253.063 678.634 253.302 679.476 253.781C680.328 254.259 680.978 254.945 681.425 255.839C681.934 254.987 682.621 254.311 683.483 253.812C684.346 253.313 685.329 253.063 686.431 253.063C687.959 253.063 689.279 253.562 690.391 254.56C691.452 255.589 691.982 257.092 691.982 259.067V269.031H689.471V259.192C689.471 257.955 689.154 257.014 688.52 256.369C687.896 255.725 687.049 255.402 685.978 255.402C684.856 255.402 683.925 255.74 683.187 256.416C682.459 257.092 682.096 258.048 682.096 259.285V269.031H679.601V259.192C679.601 257.955 679.283 257.014 678.649 256.369C678.026 255.725 677.184 255.402 676.123 255.402C675 255.402 674.07 255.766 673.332 256.494C672.594 257.211 672.225 258.22 672.225 259.519V269.031ZM708.932 269.031H706.64L706.562 265.99C705.907 267.02 705.055 267.825 704.005 268.408C702.965 268.99 701.842 269.281 700.636 269.281C699.15 269.281 697.949 268.891 697.034 268.111C696.13 267.332 695.678 266.276 695.678 264.946C695.678 263.438 696.255 262.3 697.409 261.531C698.521 260.803 700.033 260.195 701.946 259.706L706.5 258.646C706.396 257.523 705.98 256.671 705.252 256.088C704.535 255.496 703.599 255.2 702.445 255.2C701.271 255.2 700.299 255.47 699.529 256.011C698.77 256.551 698.256 257.336 697.986 258.365L695.678 257.913C695.979 256.426 696.748 255.246 697.986 254.373C699.223 253.5 700.74 253.063 702.539 253.063C704.504 253.063 706.058 253.604 707.201 254.685C708.355 255.756 708.932 257.216 708.932 259.067V269.031ZM698.266 264.727C698.266 265.455 698.505 266.042 698.984 266.489C699.472 266.926 700.137 267.144 700.979 267.144C702.476 267.144 703.776 266.593 704.878 265.491C705.98 264.39 706.531 262.898 706.531 261.016V260.657L701.946 261.78C700.699 262.102 699.774 262.487 699.171 262.934C698.568 263.381 698.266 263.979 698.266 264.727ZM711.521 255.496V254.888L716.183 250.537H716.76V253.313H722.639V255.496H716.76V264.182C716.76 265.148 716.984 265.861 717.431 266.318C717.888 266.765 718.58 266.988 719.505 266.988C720.16 266.988 720.96 266.807 721.906 266.443L722.483 268.517C721.298 269.026 720.181 269.281 719.131 269.281C717.582 269.281 716.381 268.87 715.528 268.049C714.676 267.228 714.25 266.074 714.25 264.587V255.496H711.521ZM732.448 269.031H729.641L723.466 253.313H726.257L731.138 266.131L736.05 253.313H738.701L732.448 269.031ZM740.182 261.078C740.182 258.76 740.925 256.847 742.412 255.34C743.899 253.822 745.775 253.063 748.041 253.063C750.287 253.063 752.106 253.744 753.499 255.106C754.902 256.478 755.604 258.246 755.604 260.408C755.604 260.418 755.573 260.845 755.511 261.687H742.739C742.875 263.444 743.41 264.779 744.346 265.694C745.292 266.599 746.544 267.051 748.104 267.051C749.486 267.051 750.614 266.76 751.487 266.178C752.361 265.585 752.938 264.769 753.218 263.729L755.511 264.182C755.178 265.72 754.336 266.957 752.984 267.893C751.633 268.818 750.006 269.281 748.104 269.281C745.713 269.281 743.795 268.517 742.35 266.988C740.905 265.45 740.182 263.48 740.182 261.078ZM751.581 256.432C750.635 255.61 749.455 255.2 748.041 255.2C746.627 255.2 745.432 255.615 744.455 256.447C743.478 257.268 742.927 258.324 742.802 259.613H753.125C753.042 258.313 752.527 257.253 751.581 256.432ZM764.025 268.907L757.179 253.313H760.002L765.397 265.71L770.278 253.313H772.929L763.76 276.064H761.14L764.025 268.907ZM778.324 269.031H775.829V253.313H778.293L778.355 255.808C778.813 254.966 779.452 254.3 780.273 253.812C781.105 253.313 782.051 253.063 783.111 253.063C783.642 253.063 784.161 253.136 784.671 253.282L784.297 255.745C783.787 255.6 783.252 255.527 782.69 255.527C781.453 255.527 780.414 256 779.572 256.946C778.74 257.892 778.324 259.197 778.324 260.86V269.031ZM787.135 253.313H789.63V262.747C789.63 264.067 790.004 265.107 790.752 265.866C791.501 266.614 792.499 266.988 793.746 266.988C794.318 266.988 794.854 266.9 795.353 266.723C795.862 266.536 796.325 266.261 796.74 265.897C797.156 265.533 797.484 265.044 797.723 264.431C797.972 263.807 798.097 263.095 798.097 262.295V253.313H800.592V269.031H798.284L798.222 266.739C797.66 267.56 796.938 268.189 796.054 268.626C795.181 269.062 794.209 269.281 793.138 269.281C791.392 269.281 789.968 268.73 788.866 267.628C787.712 266.505 787.135 264.951 787.135 262.965V253.313ZM808.233 269.031H805.832V245.079H808.326V255.933C808.992 255.018 809.813 254.311 810.79 253.812C811.768 253.313 812.849 253.063 814.034 253.063C816.217 253.063 818.036 253.827 819.492 255.356C820.947 256.884 821.675 258.812 821.675 261.141C821.675 263.49 820.947 265.434 819.492 266.973C818.036 268.511 816.217 269.281 814.034 269.281C812.849 269.281 811.762 269.026 810.775 268.517C809.787 267.997 808.961 267.274 808.295 266.349L808.233 269.031ZM813.691 255.356C812.1 255.356 810.811 255.891 809.823 256.962C808.825 258.074 808.326 259.467 808.326 261.141C808.326 262.835 808.825 264.239 809.823 265.351C810.801 266.443 812.09 266.988 813.691 266.988C815.24 266.988 816.529 266.443 817.558 265.351C818.556 264.239 819.055 262.835 819.055 261.141C819.055 259.467 818.556 258.074 817.558 256.962C816.518 255.891 815.229 255.356 813.691 255.356ZM828.162 269.031H825.667V245.079H828.162V269.031ZM832.154 261.078C832.154 258.76 832.897 256.847 834.384 255.34C835.87 253.822 837.747 253.063 840.013 253.063C842.258 253.063 844.078 253.744 845.471 255.106C846.874 256.478 847.576 258.246 847.576 260.408C847.576 260.418 847.545 260.845 847.482 261.687H834.711C834.846 263.444 835.382 264.779 836.317 265.694C837.263 266.599 838.516 267.051 840.075 267.051C841.458 267.051 842.586 266.76 843.459 266.178C844.332 265.585 844.909 264.769 845.19 263.729L847.482 264.182C847.15 265.72 846.308 266.957 844.956 267.893C843.605 268.818 841.978 269.281 840.075 269.281C837.684 269.281 835.766 268.517 834.321 266.988C832.876 265.45 832.154 263.48 832.154 261.078ZM843.553 256.432C842.607 255.61 841.427 255.2 840.013 255.2C838.599 255.2 837.404 255.615 836.426 256.447C835.449 257.268 834.898 258.324 834.773 259.613H845.096C845.013 258.313 844.499 257.253 843.553 256.432ZM858.164 269.031H855.357L849.182 253.313H851.973L856.854 266.131L861.766 253.313H864.417L858.164 269.031Z" fill="#0A2540"/>
<circle cx="920.274" cy="261.387" r="36" fill="#DFE4E9"/>
<path d="M920.607 260.39C925.396 260.39 929.274 256.512 929.274 251.723C929.274 246.935 925.396 243.057 920.607 243.057C915.819 243.057 911.941 246.935 911.941 251.723C911.941 256.512 915.819 260.39 920.607 260.39ZM920.607 264.723C914.822 264.723 903.274 267.627 903.274 273.39V275.557C903.274 276.748 904.249 277.723 905.441 277.723H935.774C936.966 277.723 937.941 276.748 937.941 275.557V273.39C937.941 267.627 926.392 264.723 920.607 264.723Z" fill="#0A2540" fill-opacity="0.85"/>
</g>
<path d="M133.359 401.232H130.646L139.8 377.277H142.81L152.012 401.232H149.127L146.008 392.967H136.479L133.359 401.232ZM141.251 380.381L137.414 390.503H145.072L141.251 380.381ZM169.588 377.277V401.232H167.186L167.124 398.675C166.459 399.569 165.637 400.26 164.66 400.749C163.693 401.238 162.633 401.482 161.478 401.482C159.253 401.482 157.408 400.718 155.942 399.189C154.476 397.651 153.743 395.701 153.743 393.341C153.743 391.012 154.476 389.083 155.942 387.555C157.408 386.027 159.253 385.262 161.478 385.262C162.612 385.262 163.662 385.507 164.629 385.995C165.606 386.474 166.427 387.144 167.093 388.007V377.277H169.588ZM161.728 387.555C160.158 387.555 158.879 388.09 157.891 389.161C156.873 390.243 156.363 391.636 156.363 393.341C156.363 395.067 156.873 396.471 157.891 397.552C158.869 398.644 160.148 399.189 161.728 399.189C163.319 399.189 164.608 398.649 165.596 397.567C166.594 396.476 167.093 395.067 167.093 393.341C167.093 391.625 166.594 390.232 165.596 389.161C164.608 388.09 163.319 387.555 161.728 387.555ZM189.426 377.277V401.232H187.024L186.962 398.675C186.296 399.569 185.475 400.26 184.498 400.749C183.531 401.238 182.47 401.482 181.316 401.482C179.091 401.482 177.246 400.718 175.78 399.189C174.314 397.651 173.581 395.701 173.581 393.341C173.581 391.012 174.314 389.083 175.78 387.555C177.246 386.027 179.091 385.262 181.316 385.262C182.449 385.262 183.5 385.507 184.467 385.995C185.444 386.474 186.265 387.144 186.931 388.007V377.277H189.426ZM181.566 387.555C179.996 387.555 178.717 388.09 177.729 389.161C176.71 390.243 176.201 391.636 176.201 393.341C176.201 395.067 176.71 396.471 177.729 397.552C178.707 398.644 179.985 399.189 181.566 399.189C183.156 399.189 184.446 398.649 185.433 397.567C186.432 396.476 186.931 395.067 186.931 393.341C186.931 391.625 186.432 390.232 185.433 389.161C184.446 388.09 183.156 387.555 181.566 387.555ZM201.684 408.266V385.512H204.086L204.148 388.226C204.814 387.29 205.635 386.562 206.612 386.042C207.6 385.522 208.692 385.262 209.888 385.262C212.071 385.262 213.89 386.027 215.346 387.555C216.802 389.083 217.529 391.012 217.529 393.341C217.529 395.691 216.802 397.635 215.346 399.174C213.89 400.713 212.071 401.482 209.888 401.482C208.702 401.482 207.621 401.232 206.644 400.733C205.666 400.224 204.845 399.506 204.179 398.581V408.266H201.684ZM209.544 387.555C207.954 387.555 206.664 388.09 205.677 389.161C204.679 390.274 204.179 391.667 204.179 393.341C204.179 395.036 204.679 396.439 205.677 397.552C206.654 398.644 207.943 399.189 209.544 399.189C211.094 399.189 212.383 398.644 213.412 397.552C214.41 396.439 214.909 395.036 214.909 393.341C214.909 391.667 214.41 390.274 213.412 389.161C212.372 388.09 211.083 387.555 209.544 387.555ZM222.567 387.555C224.095 386.027 226.034 385.262 228.384 385.262C230.734 385.262 232.673 386.027 234.201 387.555C235.73 389.083 236.494 391.012 236.494 393.341C236.494 395.701 235.73 397.651 234.201 399.189C232.673 400.718 230.734 401.482 228.384 401.482C226.034 401.482 224.095 400.718 222.567 399.189C221.038 397.651 220.274 395.701 220.274 393.341C220.274 391.012 221.038 389.083 222.567 387.555ZM228.384 387.555C226.804 387.555 225.494 388.09 224.454 389.161C223.414 390.232 222.894 391.625 222.894 393.341C222.894 395.077 223.414 396.481 224.454 397.552C225.483 398.644 226.793 399.189 228.384 399.189C229.964 399.189 231.285 398.644 232.345 397.552C233.375 396.46 233.889 395.057 233.889 393.341C233.889 391.646 233.375 390.253 232.345 389.161C231.274 388.09 229.954 387.555 228.384 387.555ZM243.481 380.116C243.481 380.605 243.309 381.015 242.966 381.348C242.633 381.681 242.223 381.847 241.734 381.847C241.245 381.847 240.835 381.681 240.502 381.348C240.169 381.015 240.003 380.605 240.003 380.116C240.003 379.606 240.164 379.196 240.486 378.884C240.819 378.561 241.235 378.4 241.734 378.4C242.233 378.4 242.649 378.561 242.982 378.884C243.314 379.196 243.481 379.606 243.481 380.116ZM242.982 401.232H240.486V385.512H242.982V401.232ZM250.717 401.232H248.222V385.512H250.624L250.686 387.882C251.237 387.072 251.944 386.432 252.807 385.964C253.68 385.496 254.673 385.262 255.786 385.262C256.961 385.262 258.005 385.502 258.92 385.98C259.835 386.458 260.568 387.201 261.119 388.21C261.681 389.208 261.962 390.409 261.962 391.813V401.232H259.466V392.031C259.466 390.607 259.087 389.515 258.328 388.756C257.569 387.986 256.565 387.602 255.318 387.602C254.101 387.602 253.036 388.012 252.121 388.834C251.185 389.676 250.717 390.924 250.717 392.577V401.232ZM264.504 387.695V387.087L269.167 382.736H269.744V385.512H275.623V387.695H269.744V396.382C269.744 397.349 269.967 398.061 270.414 398.519C270.872 398.966 271.563 399.189 272.489 399.189C273.144 399.189 273.944 399.007 274.89 398.644L275.467 400.718C274.282 401.227 273.164 401.482 272.114 401.482C270.565 401.482 269.364 401.071 268.512 400.25C267.659 399.429 267.233 398.274 267.233 396.788V387.695H264.504ZM283.811 401.482C281.919 401.482 280.411 401.061 279.288 400.219C278.176 399.366 277.479 398.181 277.199 396.663L279.709 396.148C279.855 397.146 280.287 397.937 281.004 398.519C281.721 399.091 282.699 399.377 283.936 399.377C285.038 399.377 285.917 399.158 286.572 398.722C287.237 398.285 287.57 397.651 287.57 396.819C287.57 396.611 287.549 396.419 287.507 396.242C287.466 396.055 287.388 395.893 287.273 395.758C287.159 395.613 287.05 395.488 286.946 395.384C286.852 395.28 286.696 395.181 286.478 395.088C286.27 394.994 286.099 394.921 285.963 394.869C285.839 394.817 285.631 394.76 285.34 394.698C285.059 394.625 284.846 394.573 284.7 394.542C284.565 394.511 284.326 394.464 283.983 394.402C283.64 394.339 283.4 394.298 283.265 394.277C282.86 394.194 282.558 394.136 282.361 394.105C282.174 394.064 281.888 393.996 281.503 393.902C281.129 393.809 280.843 393.726 280.645 393.653C280.448 393.57 280.193 393.461 279.881 393.325C279.569 393.18 279.325 393.034 279.148 392.889C278.982 392.743 278.795 392.566 278.587 392.358C278.379 392.14 278.217 391.906 278.103 391.657C277.999 391.407 277.911 391.121 277.838 390.799C277.765 390.466 277.729 390.113 277.729 389.738C277.729 388.439 278.269 387.368 279.351 386.526C280.432 385.684 281.851 385.262 283.608 385.262C285.324 385.262 286.712 385.632 287.772 386.37C288.833 387.098 289.488 388.111 289.738 389.411L287.32 389.894C286.925 388.168 285.677 387.305 283.577 387.305C282.517 387.305 281.701 387.519 281.129 387.945C280.567 388.371 280.287 388.938 280.287 389.645C280.287 390.487 280.682 391.048 281.472 391.329C282.293 391.62 283.208 391.854 284.217 392.031C284.664 392.114 284.976 392.177 285.152 392.218C285.34 392.249 285.641 392.317 286.057 392.421C286.483 392.514 286.795 392.598 286.993 392.67C287.19 392.743 287.461 392.852 287.804 392.998C288.157 393.143 288.422 393.289 288.599 393.435C288.776 393.58 288.979 393.767 289.207 393.996C289.446 394.225 289.623 394.464 289.738 394.713C289.852 394.963 289.951 395.259 290.034 395.602C290.117 395.935 290.159 396.299 290.159 396.694C290.159 398.108 289.602 399.262 288.49 400.156C287.388 401.04 285.828 401.482 283.811 401.482ZM294.931 401.513C294.39 401.513 293.943 401.347 293.59 401.014C293.236 400.671 293.059 400.224 293.059 399.673C293.059 399.143 293.236 398.706 293.59 398.363C293.954 398.02 294.401 397.848 294.931 397.848C295.492 397.848 295.945 398.02 296.288 398.363C296.641 398.706 296.818 399.143 296.818 399.673C296.818 400.234 296.641 400.681 296.288 401.014C295.945 401.347 295.492 401.513 294.931 401.513ZM294.931 389.676C294.39 389.676 293.943 389.504 293.59 389.161C293.236 388.818 293.059 388.371 293.059 387.82C293.059 387.29 293.236 386.853 293.59 386.51C293.954 386.167 294.401 385.995 294.931 385.995C295.492 385.995 295.945 386.167 296.288 386.51C296.641 386.853 296.818 387.29 296.818 387.82C296.818 388.382 296.641 388.834 296.288 389.177C295.945 389.51 295.492 389.676 294.931 389.676ZM317.95 385.512V387.695H312.039V401.232H309.513V387.695H305.708V387.087L307.049 385.512H309.513V382.393C309.513 380.771 310.022 379.471 311.041 378.494C312.019 377.517 313.277 377.028 314.815 377.028C315.751 377.028 316.604 377.184 317.373 377.496L316.827 379.679C316.099 379.419 315.481 379.289 314.971 379.289C314.036 379.289 313.313 379.549 312.804 380.069C312.294 380.579 312.039 381.343 312.039 382.362V385.512H317.95ZM323.362 401.232H320.867V385.512H323.331L323.393 388.007C323.851 387.165 324.49 386.5 325.311 386.011C326.143 385.512 327.089 385.262 328.15 385.262C328.68 385.262 329.2 385.335 329.709 385.481L329.335 387.945C328.826 387.799 328.29 387.727 327.729 387.727C326.491 387.727 325.452 388.2 324.61 389.146C323.778 390.092 323.362 391.397 323.362 393.06V401.232ZM333.608 387.555C335.137 386.027 337.076 385.262 339.425 385.262C341.775 385.262 343.714 386.027 345.243 387.555C346.771 389.083 347.535 391.012 347.535 393.341C347.535 395.701 346.771 397.651 345.243 399.189C343.714 400.718 341.775 401.482 339.425 401.482C337.076 401.482 335.137 400.718 333.608 399.189C332.08 397.651 331.316 395.701 331.316 393.341C331.316 391.012 332.08 389.083 333.608 387.555ZM339.425 387.555C337.845 387.555 336.535 388.09 335.495 389.161C334.456 390.232 333.936 391.625 333.936 393.341C333.936 395.077 334.456 396.481 335.495 397.552C336.525 398.644 337.835 399.189 339.425 399.189C341.006 399.189 342.326 398.644 343.387 397.552C344.416 396.46 344.931 395.057 344.931 393.341C344.931 391.646 344.416 390.253 343.387 389.161C342.316 388.09 340.995 387.555 339.425 387.555ZM354.023 401.232H351.528V385.512H353.929L353.992 387.555C354.47 386.848 355.089 386.292 355.848 385.886C356.617 385.47 357.475 385.262 358.421 385.262C359.482 385.262 360.433 385.502 361.275 385.98C362.128 386.458 362.777 387.144 363.224 388.038C363.734 387.186 364.42 386.51 365.283 386.011C366.146 385.512 367.129 385.262 368.231 385.262C369.759 385.262 371.08 385.761 372.192 386.76C373.253 387.789 373.783 389.291 373.783 391.267V401.232H371.272V391.392C371.272 390.154 370.955 389.213 370.321 388.569C369.697 387.924 368.849 387.602 367.778 387.602C366.656 387.602 365.725 387.94 364.987 388.615C364.259 389.291 363.895 390.248 363.895 391.485V401.232H361.4V391.392C361.4 390.154 361.083 389.213 360.448 388.569C359.825 387.924 358.982 387.602 357.922 387.602C356.799 387.602 355.869 387.966 355.13 388.693C354.392 389.411 354.023 390.419 354.023 391.719V401.232ZM391.266 401.232H388.614V382.611H384.279V381.052C385.651 380.968 386.779 380.605 387.663 379.96C388.557 379.305 389.108 378.411 389.316 377.277H391.266V401.232ZM402.276 387.695V387.087L406.939 382.736H407.516V385.512H413.396V387.695H407.516V396.382C407.516 397.349 407.74 398.061 408.187 398.519C408.644 398.966 409.336 399.189 410.261 399.189C410.916 399.189 411.717 399.007 412.663 398.644L413.24 400.718C412.055 401.227 410.937 401.482 409.887 401.482C408.338 401.482 407.137 401.071 406.284 400.25C405.432 399.429 405.005 398.274 405.005 396.788V387.695H402.276ZM417.544 387.555C419.073 386.027 421.012 385.262 423.362 385.262C425.711 385.262 427.65 386.027 429.179 387.555C430.707 389.083 431.471 391.012 431.471 393.341C431.471 395.701 430.707 397.651 429.179 399.189C427.65 400.718 425.711 401.482 423.362 401.482C421.012 401.482 419.073 400.718 417.544 399.189C416.016 397.651 415.252 395.701 415.252 393.341C415.252 391.012 416.016 389.083 417.544 387.555ZM423.362 387.555C421.781 387.555 420.471 388.09 419.431 389.161C418.392 390.232 417.872 391.625 417.872 393.341C417.872 395.077 418.392 396.481 419.431 397.552C420.461 398.644 421.771 399.189 423.362 399.189C424.942 399.189 426.262 398.644 427.323 397.552C428.352 396.46 428.867 395.057 428.867 393.341C428.867 391.646 428.352 390.253 427.323 389.161C426.252 388.09 424.931 387.555 423.362 387.555ZM445.289 398.706H456.861V401.232H441.624V399.002L448.829 391.516C450.399 389.946 451.548 388.605 452.276 387.493C453.004 386.38 453.368 385.221 453.368 384.015C453.368 382.684 452.931 381.603 452.058 380.771C451.184 379.929 450.067 379.508 448.705 379.508C447.498 379.508 446.402 379.861 445.414 380.568C444.395 381.327 443.781 382.497 443.574 384.077L440.953 383.531C441.203 382.117 441.712 380.916 442.482 379.929C443.251 378.931 444.177 378.198 445.258 377.73C446.339 377.262 447.53 377.028 448.829 377.028C450.971 377.028 452.718 377.662 454.069 378.931C455.431 380.199 456.112 381.873 456.112 383.952C456.112 385.616 455.655 387.098 454.74 388.397C453.887 389.603 452.635 391.069 450.981 392.795L445.289 398.706ZM467.373 401.482C465.875 401.482 464.519 401.175 463.302 400.562C462.096 399.948 461.134 399.065 460.417 397.911C459.71 396.756 459.356 395.436 459.356 393.949C459.356 391.953 459.975 390.045 461.212 388.226L468.433 377.277H471.49L465.361 386.479C466.224 386.198 467.055 386.058 467.856 386.058C470.112 386.058 471.973 386.76 473.439 388.163C474.905 389.556 475.638 391.371 475.638 393.606C475.638 395.155 475.28 396.533 474.562 397.739C473.845 398.935 472.857 399.86 471.599 400.515C470.351 401.16 468.943 401.482 467.373 401.482ZM467.404 398.971C468.932 398.971 470.242 398.467 471.334 397.458C472.353 396.481 472.862 395.197 472.862 393.606C472.862 392.047 472.353 390.778 471.334 389.801C470.263 388.844 468.963 388.366 467.435 388.366C466.697 388.366 465.99 388.501 465.314 388.771C464.638 389.031 464.066 389.395 463.598 389.863C462.6 390.913 462.101 392.223 462.101 393.793C462.101 395.311 462.6 396.554 463.598 397.521C464.597 398.488 465.865 398.971 467.404 398.971ZM496.365 389.193C496.365 393.029 495.58 396.039 494.01 398.222C492.419 400.395 490.329 401.482 487.741 401.482C485.152 401.482 483.077 400.395 481.518 398.222C479.917 396.039 479.116 393.029 479.116 389.193C479.116 385.377 479.917 382.393 481.518 380.241C483.077 378.099 485.152 377.028 487.741 377.028C490.329 377.028 492.419 378.099 494.01 380.241C495.58 382.393 496.365 385.377 496.365 389.193ZM487.741 399.002C489.57 399.002 491 398.134 492.029 396.398C493.069 394.651 493.589 392.249 493.589 389.193C493.589 386.177 493.069 383.812 492.029 382.096C491 380.371 489.57 379.508 487.741 379.508C485.89 379.508 484.45 380.371 483.421 382.096C482.391 383.812 481.877 386.177 481.877 389.193C481.877 392.26 482.391 394.661 483.421 396.398C484.45 398.134 485.89 399.002 487.741 399.002Z" fill="#0A2540" fill-opacity="0.7"/>
<rect x="79.0961" y="371.232" width="36.194" height="36.194" rx="8.51624" fill="#00A884"/>
<path d="M85.5901 389.277L89.0903 385.777L98.4262 395.113L94.9239 398.613L85.5901 389.277ZM94.9239 391.611L106.595 379.941L110.096 383.442L98.4262 395.113L94.9239 391.609V391.611V391.611Z" fill="white"/>
<rect x="779.91" y="353.135" width="174.742" height="72.7419" rx="6.38718" fill="white" stroke="#00A884" stroke-width="4.25812"/>
<path d="M810.877 399.511H822.448V402.037H807.213V399.807L814.417 392.322C815.987 390.752 817.136 389.411 817.863 388.299C818.591 387.187 818.955 386.028 818.955 384.822C818.955 383.491 818.518 382.41 817.645 381.578C816.772 380.736 815.654 380.315 814.292 380.315C813.087 380.315 811.99 380.669 811.002 381.375C809.983 382.134 809.37 383.304 809.162 384.884L806.542 384.338C806.792 382.924 807.301 381.724 808.071 380.736C808.84 379.738 809.765 379.005 810.846 378.537C811.927 378.07 813.118 377.836 814.417 377.836C816.559 377.836 818.305 378.47 819.657 379.738C821.019 381.006 821.699 382.68 821.699 384.759C821.699 386.423 821.242 387.904 820.327 389.203C819.475 390.409 818.222 391.875 816.569 393.601L810.877 399.511ZM841.301 394.271C841.301 396.611 840.526 398.534 838.977 400.041C837.439 401.538 835.411 402.287 832.896 402.287C830.837 402.287 829.08 401.772 827.625 400.743C826.18 399.703 825.234 398.175 824.787 396.158L827.438 395.394C827.802 396.902 828.477 398.014 829.465 398.731C830.463 399.449 831.627 399.807 832.958 399.807C834.528 399.807 835.859 399.303 836.95 398.295C837.99 397.328 838.509 395.997 838.509 394.303C838.509 392.743 838.01 391.423 837.012 390.342C835.994 389.323 834.705 388.814 833.145 388.814C832.116 388.814 831.201 388.985 830.401 389.328C829.611 389.671 828.982 390.16 828.514 390.794L826.378 390.124L828.42 378.085H840.334V380.518H830.557L829.325 387.566C830.562 386.828 831.955 386.459 833.504 386.459C835.781 386.459 837.647 387.192 839.102 388.658C840.568 390.113 841.301 391.984 841.301 394.271Z" fill="#0A2540"/>
<path d="M849.083 374.766H851.415V406.734H849.083V374.766Z" fill="#0A2540"/>
<path d="M927.194 378.949C928.258 378.949 929.259 379.067 930.196 379.301C931.133 379.535 932.037 379.907 932.91 380.418L931.729 382.718C931.133 382.398 930.43 382.1 929.621 381.824C928.833 381.547 928.024 381.408 927.194 381.408C926.406 381.408 925.682 381.536 925.022 381.792C924.362 382.026 923.777 382.398 923.266 382.909C922.776 383.42 922.35 384.059 921.988 384.826C921.626 385.592 921.35 386.486 921.158 387.508H928.95V389.584H920.934C920.913 389.797 920.902 389.999 920.902 390.191C920.902 390.382 920.902 390.585 920.902 390.798C920.902 390.989 920.902 391.202 920.902 391.436C920.902 391.649 920.913 391.873 920.934 392.107H927.992V394.183H921.19C921.445 395.375 921.839 396.397 922.372 397.249C922.904 398.1 923.596 398.75 924.447 399.197C925.299 399.644 926.3 399.867 927.449 399.867C928.28 399.867 929.11 399.772 929.94 399.58C930.792 399.367 931.548 399.122 932.208 398.845V401.336C931.548 401.613 930.813 401.847 930.004 402.039C929.216 402.252 928.312 402.358 927.29 402.358C925.565 402.358 924.096 402.028 922.883 401.368C921.669 400.708 920.69 399.772 919.944 398.558C919.199 397.323 918.667 395.865 918.348 394.183H915.793V392.107H918.092C918.071 391.852 918.06 391.639 918.06 391.468C918.06 391.298 918.06 391.074 918.06 390.798C918.06 390.563 918.06 390.34 918.06 390.127C918.081 389.893 918.092 389.712 918.092 389.584H915.793V387.508H918.316C918.592 385.762 919.103 384.251 919.849 382.973C920.594 381.696 921.584 380.706 922.819 380.003C924.054 379.301 925.512 378.949 927.194 378.949Z" fill="#0A2540" fill-opacity="0.55"/>
<rect x="79.0961" y="506.49" width="877" height="81" rx="8.51624" fill="#00A884"/>
<path d="M460.19 556.49H457.455V532.49H466.174C468.528 532.49 470.424 533.167 471.862 534.521C473.31 535.876 474.034 537.61 474.034 539.725C474.034 541.818 473.31 543.558 471.862 544.943C470.414 546.329 468.518 547.021 466.174 547.021H460.19V556.49ZM466.174 534.99H460.19V544.521H466.174C467.747 544.521 468.992 544.079 469.909 543.193C470.825 542.308 471.284 541.152 471.284 539.725C471.284 538.298 470.825 537.152 469.909 536.287C469.002 535.423 467.757 534.99 466.174 534.99ZM489.846 556.49H487.549L487.471 553.443C486.815 554.475 485.961 555.282 484.909 555.865C483.867 556.449 482.742 556.74 481.534 556.74C480.044 556.74 478.841 556.35 477.924 555.568C477.018 554.787 476.565 553.73 476.565 552.396C476.565 550.886 477.143 549.745 478.299 548.975C479.414 548.245 480.929 547.636 482.846 547.146L487.409 546.084C487.304 544.959 486.888 544.105 486.159 543.521C485.44 542.928 484.502 542.631 483.346 542.631C482.169 542.631 481.195 542.902 480.424 543.443C479.664 543.985 479.148 544.771 478.877 545.803L476.565 545.35C476.867 543.86 477.638 542.678 478.877 541.803C480.117 540.928 481.638 540.49 483.44 540.49C485.409 540.49 486.966 541.032 488.112 542.115C489.268 543.188 489.846 544.652 489.846 546.506V556.49ZM479.159 552.178C479.159 552.907 479.398 553.495 479.877 553.943C480.367 554.381 481.034 554.6 481.877 554.6C483.377 554.6 484.679 554.048 485.784 552.943C486.888 551.839 487.44 550.344 487.44 548.459V548.1L482.846 549.225C481.596 549.548 480.669 549.933 480.065 550.381C479.461 550.829 479.159 551.428 479.159 552.178ZM498.83 556.365L491.971 540.74H494.799L500.205 553.162L505.096 540.74H507.752L498.565 563.537H495.94L498.83 556.365ZM532.799 548.709C532.799 551.053 532.023 552.98 530.471 554.49C528.929 555.99 526.898 556.74 524.377 556.74C522.315 556.74 520.554 556.225 519.096 555.193C517.648 554.152 516.7 552.62 516.252 550.6L518.909 549.834C519.273 551.344 519.95 552.459 520.94 553.178C521.94 553.896 523.106 554.256 524.44 554.256C526.013 554.256 527.346 553.751 528.44 552.74C529.481 551.771 530.002 550.438 530.002 548.74C530.002 547.178 529.502 545.855 528.502 544.771C527.481 543.751 526.19 543.24 524.627 543.24C523.596 543.24 522.679 543.412 521.877 543.756C521.086 544.1 520.455 544.589 519.987 545.225L517.846 544.553L519.893 532.49H531.83V534.928H522.034L520.799 541.99C522.039 541.251 523.435 540.881 524.987 540.881C527.268 540.881 529.138 541.615 530.596 543.084C532.065 544.542 532.799 546.417 532.799 548.709ZM553.768 544.428C553.768 548.271 552.981 551.287 551.409 553.475C549.815 555.652 547.721 556.74 545.127 556.74C542.534 556.74 540.455 555.652 538.893 553.475C537.289 551.287 536.487 548.271 536.487 544.428C536.487 540.605 537.289 537.615 538.893 535.459C540.455 533.313 542.534 532.24 545.127 532.24C547.721 532.24 549.815 533.313 551.409 535.459C552.981 537.615 553.768 540.605 553.768 544.428ZM545.127 554.256C546.961 554.256 548.393 553.386 549.424 551.646C550.466 549.896 550.987 547.49 550.987 544.428C550.987 541.407 550.466 539.037 549.424 537.318C548.393 535.589 546.961 534.725 545.127 534.725C543.273 534.725 541.83 535.589 540.799 537.318C539.768 539.037 539.252 541.407 539.252 544.428C539.252 547.501 539.768 549.907 540.799 551.646C541.83 553.386 543.273 554.256 545.127 554.256ZM575.225 533.354C576.291 533.354 577.294 533.472 578.233 533.706C579.171 533.941 580.078 534.314 580.953 534.826L579.769 537.13C579.171 536.81 578.467 536.512 577.657 536.234C576.867 535.957 576.057 535.818 575.225 535.818C574.435 535.818 573.71 535.946 573.049 536.202C572.387 536.437 571.801 536.81 571.289 537.322C570.798 537.834 570.371 538.474 570.009 539.242C569.646 540.01 569.369 540.906 569.177 541.93H576.985V544.01H568.953C568.931 544.224 568.921 544.426 568.921 544.618C568.921 544.81 568.921 545.013 568.921 545.226C568.921 545.418 568.921 545.632 568.921 545.866C568.921 546.08 568.931 546.304 568.953 546.538H576.025V548.618H569.209C569.465 549.813 569.859 550.837 570.393 551.69C570.926 552.544 571.619 553.194 572.473 553.642C573.326 554.09 574.329 554.314 575.481 554.314C576.313 554.314 577.145 554.218 577.977 554.026C578.83 553.813 579.587 553.568 580.249 553.29V555.786C579.587 556.064 578.851 556.298 578.041 556.49C577.251 556.704 576.345 556.81 575.321 556.81C573.593 556.81 572.121 556.48 570.905 555.818C569.689 555.157 568.707 554.218 567.961 553.002C567.214 551.765 566.681 550.304 566.361 548.618H563.801V546.538H566.105C566.083 546.282 566.073 546.069 566.073 545.898C566.073 545.728 566.073 545.504 566.073 545.226C566.073 544.992 566.073 544.768 566.073 544.554C566.094 544.32 566.105 544.138 566.105 544.01H563.801V541.93H566.329C566.606 540.181 567.118 538.666 567.865 537.386C568.611 536.106 569.603 535.114 570.841 534.41C572.078 533.706 573.539 533.354 575.225 533.354Z" fill="white"/>
<path d="M253.644 637.943H246.406V617.693H253.195C254.927 617.693 256.307 618.155 257.335 619.078C258.372 619.992 258.891 621.231 258.891 622.795C258.891 623.868 258.631 624.786 258.113 625.551C257.603 626.315 256.887 626.891 255.964 627.278C257.194 627.612 258.144 628.218 258.812 629.097C259.488 629.976 259.827 631.044 259.827 632.301C259.827 634.023 259.264 635.395 258.139 636.414C257.023 637.434 255.525 637.943 253.644 637.943ZM253.024 619.697H248.713V626.474H253.103C254.167 626.474 255.015 626.157 255.648 625.524C256.28 624.883 256.597 624.043 256.597 623.006C256.597 621.996 256.272 621.191 255.621 620.594C254.971 619.996 254.105 619.697 253.024 619.697ZM253.512 628.491H248.713V635.939H253.538C254.742 635.939 255.7 635.614 256.412 634.964C257.124 634.313 257.48 633.426 257.48 632.301C257.48 631.149 257.115 630.227 256.386 629.532C255.665 628.838 254.707 628.491 253.512 628.491ZM267.421 637.838L261.633 624.654H264.019L268.581 635.135L272.707 624.654H274.948L267.196 643.889H264.982L267.421 637.838ZM285.785 627.713C284.924 628.601 284.493 629.77 284.493 631.22C284.493 632.67 284.915 633.865 285.759 634.806C286.585 635.746 287.657 636.216 288.976 636.216C290.092 636.216 291.015 635.922 291.744 635.333C292.474 634.735 292.944 633.94 293.155 632.947L295.185 633.303C294.948 634.683 294.262 635.834 293.129 636.757C292.012 637.688 290.628 638.154 288.976 638.154C287.042 638.154 285.442 637.5 284.177 636.19C282.911 634.872 282.278 633.215 282.278 631.22C282.278 629.269 282.916 627.651 284.19 626.368C285.464 625.085 287.06 624.443 288.976 624.443C290.575 624.443 291.916 624.865 292.997 625.709C294.087 626.553 294.79 627.687 295.106 629.11L293.049 629.493C292.812 628.543 292.337 627.788 291.626 627.225C290.922 626.663 290.048 626.381 289.002 626.381C287.684 626.381 286.611 626.825 285.785 627.713ZM300.314 637.943H298.204V617.693H300.314V637.943ZM307.275 620.093C307.275 620.506 307.129 620.853 306.839 621.134C306.558 621.416 306.211 621.556 305.798 621.556C305.385 621.556 305.038 621.416 304.756 621.134C304.475 620.853 304.335 620.506 304.335 620.093C304.335 619.662 304.471 619.315 304.743 619.051C305.025 618.779 305.376 618.643 305.798 618.643C306.22 618.643 306.571 618.779 306.853 619.051C307.134 619.315 307.275 619.662 307.275 620.093ZM306.853 637.943H304.743V624.654H306.853V637.943ZM313.734 627.713C312.873 628.601 312.442 629.77 312.442 631.22C312.442 632.67 312.864 633.865 313.708 634.806C314.534 635.746 315.607 636.216 316.925 636.216C318.041 636.216 318.964 635.922 319.693 635.333C320.423 634.735 320.893 633.94 321.104 632.947L323.134 633.303C322.897 634.683 322.212 635.834 321.078 636.757C319.962 637.688 318.577 638.154 316.925 638.154C314.991 638.154 313.392 637.5 312.126 636.19C310.86 634.872 310.228 633.215 310.228 631.22C310.228 629.269 310.865 627.651 312.139 626.368C313.414 625.085 315.009 624.443 316.925 624.443C318.525 624.443 319.865 624.865 320.946 625.709C322.036 626.553 322.739 627.687 323.055 629.11L320.999 629.493C320.761 628.543 320.287 627.788 319.575 627.225C318.872 626.663 317.997 626.381 316.951 626.381C315.633 626.381 314.561 626.825 313.734 627.713ZM330.095 629.625L334.683 624.654H337.28L331.849 630.574L337.623 637.943H335.066L330.043 631.681H328.263V637.943H326.153V617.693H328.263V629.625H330.095ZM342.527 620.093C342.527 620.506 342.382 620.853 342.092 621.134C341.811 621.416 341.464 621.556 341.051 621.556C340.638 621.556 340.291 621.416 340.009 621.134C339.728 620.853 339.587 620.506 339.587 620.093C339.587 619.662 339.724 619.315 339.996 619.051C340.277 618.779 340.629 618.643 341.051 618.643C341.473 618.643 341.824 618.779 342.106 619.051C342.387 619.315 342.527 619.662 342.527 620.093ZM342.106 637.943H339.996V624.654H342.106V637.943ZM348.645 637.943H346.535V624.654H348.566L348.618 626.658C349.084 625.973 349.682 625.432 350.411 625.037C351.15 624.641 351.989 624.443 352.929 624.443C353.922 624.443 354.806 624.646 355.579 625.05C356.353 625.454 356.972 626.083 357.438 626.935C357.913 627.779 358.15 628.794 358.15 629.98V637.943H356.041V630.165C356.041 628.961 355.72 628.038 355.078 627.396C354.437 626.746 353.588 626.421 352.534 626.421C351.505 626.421 350.605 626.768 349.831 627.462C349.04 628.174 348.645 629.229 348.645 630.626V637.943ZM361.222 631.246C361.222 629.286 361.837 627.665 363.067 626.381C364.298 625.089 365.862 624.443 367.761 624.443C368.736 624.443 369.633 624.65 370.45 625.063C371.276 625.476 371.971 626.061 372.533 626.816L372.586 624.654H374.643V637.812C374.643 639.701 374.041 641.222 372.837 642.373C371.632 643.524 370.028 644.1 368.025 644.1C366.275 644.1 364.838 643.683 363.713 642.848C362.597 642.013 361.947 640.936 361.762 639.618L363.924 639.209C364.083 640.105 364.513 640.817 365.216 641.345C365.928 641.881 366.864 642.149 368.025 642.149C369.369 642.149 370.45 641.78 371.268 641.042C372.094 640.312 372.507 639.279 372.507 637.943V635.676C371.944 636.405 371.25 636.981 370.424 637.403C369.598 637.816 368.71 638.022 367.761 638.022C365.862 638.022 364.298 637.381 363.067 636.098C361.837 634.814 361.222 633.197 361.222 631.246ZM363.437 631.246C363.437 632.67 363.858 633.834 364.702 634.74C365.546 635.636 366.645 636.084 367.998 636.084C369.343 636.084 370.433 635.632 371.268 634.727C372.094 633.839 372.507 632.679 372.507 631.246C372.507 629.822 372.094 628.653 371.268 627.739C370.433 626.834 369.343 626.381 367.998 626.381C366.636 626.381 365.537 626.834 364.702 627.739C363.858 628.68 363.437 629.849 363.437 631.246ZM383.001 626.5V625.986L386.943 622.308H387.431V624.654H392.401V626.5H387.431V633.843C387.431 634.661 387.62 635.263 387.998 635.649C388.384 636.027 388.969 636.216 389.751 636.216C390.305 636.216 390.982 636.062 391.781 635.755L392.269 637.508C391.267 637.939 390.322 638.154 389.435 638.154C388.125 638.154 387.11 637.807 386.389 637.113C385.669 636.418 385.308 635.443 385.308 634.186V626.5H383.001ZM397.134 637.943H395.025V617.693H397.134V626.605C397.6 625.938 398.197 625.41 398.927 625.023C399.665 624.637 400.496 624.443 401.419 624.443C402.412 624.443 403.295 624.646 404.068 625.05C404.842 625.454 405.462 626.083 405.927 626.935C406.402 627.779 406.639 628.794 406.639 629.98V637.943H404.53V630.165C404.53 628.961 404.209 628.038 403.567 627.396C402.926 626.746 402.078 626.421 401.023 626.421C399.995 626.421 399.094 626.768 398.32 627.462C397.529 628.174 397.134 629.229 397.134 630.626V637.943ZM413.297 620.093C413.297 620.506 413.152 620.853 412.862 621.134C412.581 621.416 412.233 621.556 411.82 621.556C411.407 621.556 411.06 621.416 410.779 621.134C410.498 620.853 410.357 620.506 410.357 620.093C410.357 619.662 410.493 619.315 410.766 619.051C411.047 618.779 411.399 618.643 411.82 618.643C412.242 618.643 412.594 618.779 412.875 619.051C413.156 619.315 413.297 619.662 413.297 620.093ZM412.875 637.943H410.766V624.654H412.875V637.943ZM421.603 638.154C420.003 638.154 418.729 637.798 417.779 637.086C416.839 636.366 416.25 635.364 416.013 634.081L418.135 633.646C418.258 634.489 418.623 635.157 419.23 635.649C419.836 636.133 420.662 636.375 421.708 636.375C422.64 636.375 423.382 636.19 423.936 635.821C424.499 635.452 424.78 634.916 424.78 634.212C424.78 634.037 424.762 633.874 424.727 633.725C424.692 633.566 424.626 633.43 424.529 633.316C424.433 633.193 424.34 633.087 424.253 633C424.173 632.912 424.042 632.828 423.857 632.749C423.681 632.67 423.536 632.608 423.422 632.564C423.316 632.521 423.141 632.472 422.895 632.419C422.657 632.358 422.477 632.314 422.354 632.288C422.24 632.261 422.038 632.222 421.748 632.169C421.458 632.116 421.255 632.081 421.141 632.063C420.798 631.993 420.544 631.945 420.377 631.918C420.218 631.883 419.977 631.826 419.651 631.747C419.335 631.668 419.093 631.598 418.926 631.536C418.759 631.466 418.544 631.374 418.28 631.259C418.017 631.136 417.81 631.013 417.661 630.89C417.52 630.767 417.362 630.618 417.186 630.442C417.01 630.257 416.874 630.06 416.777 629.849C416.69 629.638 416.615 629.396 416.553 629.124C416.492 628.842 416.461 628.543 416.461 628.227C416.461 627.128 416.918 626.223 417.832 625.511C418.746 624.799 419.946 624.443 421.431 624.443C422.881 624.443 424.055 624.755 424.951 625.379C425.848 625.995 426.401 626.852 426.612 627.95L424.569 628.359C424.235 626.9 423.18 626.17 421.405 626.17C420.508 626.17 419.818 626.351 419.335 626.711C418.86 627.071 418.623 627.55 418.623 628.148C418.623 628.86 418.957 629.334 419.625 629.572C420.319 629.818 421.093 630.016 421.945 630.165C422.323 630.235 422.587 630.288 422.736 630.323C422.895 630.35 423.15 630.407 423.501 630.495C423.861 630.574 424.125 630.644 424.292 630.706C424.459 630.767 424.688 630.859 424.978 630.982C425.276 631.105 425.501 631.229 425.65 631.352C425.799 631.475 425.971 631.633 426.164 631.826C426.366 632.02 426.516 632.222 426.612 632.433C426.709 632.644 426.793 632.894 426.863 633.184C426.933 633.465 426.968 633.773 426.968 634.107C426.968 635.302 426.498 636.278 425.558 637.034C424.626 637.781 423.308 638.154 421.603 638.154ZM438.161 637.943H436.131V617.693H438.24V626.869C438.803 626.096 439.497 625.498 440.323 625.076C441.15 624.654 442.064 624.443 443.066 624.443C444.911 624.443 446.449 625.089 447.68 626.381C448.91 627.673 449.525 629.304 449.525 631.272C449.525 633.259 448.91 634.902 447.68 636.203C446.449 637.504 444.911 638.154 443.066 638.154C442.064 638.154 441.145 637.939 440.31 637.508C439.475 637.069 438.776 636.458 438.214 635.676L438.161 637.943ZM442.775 626.381C441.431 626.381 440.341 626.834 439.506 627.739C438.662 628.68 438.24 629.857 438.24 631.272C438.24 632.705 438.662 633.892 439.506 634.832C440.332 635.755 441.422 636.216 442.775 636.216C444.085 636.216 445.175 635.755 446.045 634.832C446.889 633.892 447.311 632.705 447.311 631.272C447.311 629.857 446.889 628.68 446.045 627.739C445.166 626.834 444.076 626.381 442.775 626.381ZM452.571 624.654H454.68V632.63C454.68 633.747 454.997 634.625 455.629 635.267C456.262 635.9 457.106 636.216 458.161 636.216C458.644 636.216 459.097 636.142 459.519 635.992C459.949 635.834 460.34 635.601 460.692 635.293C461.044 634.986 461.32 634.573 461.523 634.054C461.733 633.527 461.839 632.925 461.839 632.248V624.654H463.948V637.943H461.997L461.944 636.005C461.47 636.7 460.859 637.231 460.112 637.601C459.374 637.97 458.552 638.154 457.647 638.154C456.17 638.154 454.966 637.688 454.034 636.757C453.059 635.808 452.571 634.494 452.571 632.815V624.654ZM466.4 626.5V625.986L470.342 622.308H470.83V624.654H475.8V626.5H470.83V633.843C470.83 634.661 471.019 635.263 471.397 635.649C471.784 636.027 472.368 636.216 473.15 636.216C473.704 636.216 474.381 636.062 475.181 635.755L475.669 637.508C474.667 637.939 473.722 638.154 472.834 638.154C471.525 638.154 470.509 637.807 469.789 637.113C469.068 636.418 468.708 635.443 468.708 634.186V626.5H466.4ZM477.053 626.5V625.986L480.995 622.308H481.483V624.654H486.453V626.5H481.483V633.843C481.483 634.661 481.671 635.263 482.049 635.649C482.436 636.027 483.021 636.216 483.803 636.216C484.357 636.216 485.033 636.062 485.833 635.755L486.321 637.508C485.319 637.939 484.374 638.154 483.486 638.154C482.177 638.154 481.162 637.807 480.441 637.113C479.72 636.418 479.36 635.443 479.36 634.186V626.5H477.053ZM489.96 626.381C491.252 625.089 492.891 624.443 494.877 624.443C496.863 624.443 498.503 625.089 499.795 626.381C501.087 627.673 501.733 629.304 501.733 631.272C501.733 633.268 501.087 634.916 499.795 636.216C498.503 637.508 496.863 638.154 494.877 638.154C492.891 638.154 491.252 637.508 489.96 636.216C488.668 634.916 488.022 633.268 488.022 631.272C488.022 629.304 488.668 627.673 489.96 626.381ZM494.877 626.381C493.541 626.381 492.434 626.834 491.555 627.739C490.676 628.645 490.236 629.822 490.236 631.272C490.236 632.74 490.676 633.927 491.555 634.832C492.425 635.755 493.532 636.216 494.877 636.216C496.213 636.216 497.329 635.755 498.226 634.832C499.096 633.909 499.531 632.723 499.531 631.272C499.531 629.84 499.096 628.662 498.226 627.739C497.32 626.834 496.204 626.381 494.877 626.381ZM507.217 637.943H505.108V624.654H507.138L507.191 626.658C507.656 625.973 508.254 625.432 508.983 625.037C509.722 624.641 510.561 624.443 511.502 624.443C512.495 624.443 513.378 624.646 514.151 625.05C514.925 625.454 515.545 626.083 516.01 626.935C516.485 627.779 516.722 628.794 516.722 629.98V637.943H514.613V630.165C514.613 628.961 514.292 628.038 513.65 627.396C513.009 626.746 512.161 626.421 511.106 626.421C510.078 626.421 509.177 626.768 508.403 627.462C507.612 628.174 507.217 629.229 507.217 630.626V637.943ZM523.301 635.241L521.205 641.991H519.464L520.743 635.241H523.301ZM536.471 637.838L530.684 624.654H533.07L537.631 635.135L541.758 624.654H543.999L536.247 643.889H534.032L536.471 637.838ZM547.15 626.381C548.442 625.089 550.081 624.443 552.067 624.443C554.054 624.443 555.693 625.089 556.985 626.381C558.277 627.673 558.923 629.304 558.923 631.272C558.923 633.268 558.277 634.916 556.985 636.216C555.693 637.508 554.054 638.154 552.067 638.154C550.081 638.154 548.442 637.508 547.15 636.216C545.858 634.916 545.212 633.268 545.212 631.272C545.212 629.304 545.858 627.673 547.15 626.381ZM552.067 626.381C550.732 626.381 549.624 626.834 548.745 627.739C547.866 628.645 547.427 629.822 547.427 631.272C547.427 632.74 547.866 633.927 548.745 634.832C549.615 635.755 550.723 636.216 552.067 636.216C553.403 636.216 554.52 635.755 555.416 634.832C556.286 633.909 556.721 632.723 556.721 631.272C556.721 629.84 556.286 628.662 555.416 627.739C554.511 626.834 553.395 626.381 552.067 626.381ZM561.968 624.654H564.078V632.63C564.078 633.747 564.394 634.625 565.027 635.267C565.66 635.9 566.504 636.216 567.558 636.216C568.042 636.216 568.494 636.142 568.916 635.992C569.347 635.834 569.738 635.601 570.089 635.293C570.441 634.986 570.718 634.573 570.92 634.054C571.131 633.527 571.236 632.925 571.236 632.248V624.654H573.346V637.943H571.395L571.342 636.005C570.867 636.7 570.256 637.231 569.509 637.601C568.771 637.97 567.949 638.154 567.044 638.154C565.567 638.154 564.363 637.688 563.432 636.757C562.456 635.808 561.968 634.494 561.968 632.815V624.654ZM593.886 637.943H591.948L591.882 635.373C591.328 636.243 590.608 636.924 589.72 637.416C588.841 637.908 587.892 638.154 586.872 638.154C585.615 638.154 584.6 637.825 583.827 637.166C583.062 636.506 582.68 635.614 582.68 634.489C582.68 633.215 583.168 632.252 584.143 631.602C585.084 630.987 586.362 630.473 587.98 630.06L591.829 629.163C591.741 628.214 591.39 627.493 590.775 627.001C590.168 626.5 589.377 626.25 588.401 626.25C587.408 626.25 586.587 626.478 585.936 626.935C585.295 627.392 584.859 628.056 584.631 628.926L582.68 628.543C582.935 627.287 583.585 626.289 584.631 625.551C585.677 624.812 586.96 624.443 588.481 624.443C590.142 624.443 591.456 624.9 592.422 625.814C593.398 626.72 593.886 627.955 593.886 629.519V637.943ZM584.868 634.305C584.868 634.92 585.07 635.417 585.475 635.794C585.888 636.164 586.45 636.348 587.162 636.348C588.428 636.348 589.526 635.882 590.458 634.951C591.39 634.019 591.856 632.758 591.856 631.167V630.864L587.98 631.813C586.925 632.085 586.143 632.411 585.633 632.789C585.123 633.167 584.868 633.672 584.868 634.305ZM600.504 627.713C599.643 628.601 599.212 629.77 599.212 631.22C599.212 632.67 599.634 633.865 600.478 634.806C601.304 635.746 602.376 636.216 603.694 636.216C604.811 636.216 605.734 635.922 606.463 635.333C607.193 634.735 607.663 633.94 607.874 632.947L609.904 633.303C609.667 634.683 608.981 635.834 607.847 636.757C606.731 637.688 605.347 638.154 603.694 638.154C601.761 638.154 600.161 637.5 598.896 636.19C597.63 634.872 596.997 633.215 596.997 631.22C596.997 629.269 597.634 627.651 598.909 626.368C600.183 625.085 601.778 624.443 603.694 624.443C605.294 624.443 606.634 624.865 607.715 625.709C608.805 626.553 609.508 627.687 609.825 629.11L607.768 629.493C607.531 628.543 607.056 627.788 606.344 627.225C605.641 626.663 604.767 626.381 603.721 626.381C602.402 626.381 601.33 626.825 600.504 627.713ZM615.375 627.713C614.514 628.601 614.083 629.77 614.083 631.22C614.083 632.67 614.505 633.865 615.349 634.806C616.175 635.746 617.247 636.216 618.566 636.216C619.682 636.216 620.605 635.922 621.334 635.333C622.064 634.735 622.534 633.94 622.745 632.947L624.775 633.303C624.538 634.683 623.852 635.834 622.718 636.757C621.602 637.688 620.218 638.154 618.566 638.154C616.632 638.154 615.032 637.5 613.767 636.19C612.501 634.872 611.868 633.215 611.868 631.22C611.868 629.269 612.505 627.651 613.78 626.368C615.054 625.085 616.65 624.443 618.566 624.443C620.165 624.443 621.505 624.865 622.587 625.709C623.676 626.553 624.38 627.687 624.696 629.11L622.639 629.493C622.402 628.543 621.927 627.788 621.215 627.225C620.512 626.663 619.638 626.381 618.592 626.381C617.274 626.381 616.201 626.825 615.375 627.713ZM626.739 631.22C626.739 629.26 627.368 627.643 628.625 626.368C629.881 625.085 631.468 624.443 633.384 624.443C635.282 624.443 636.82 625.019 637.998 626.17C639.185 627.331 639.778 628.825 639.778 630.653C639.778 630.662 639.752 631.022 639.699 631.734H628.901C629.016 633.219 629.468 634.349 630.259 635.122C631.059 635.887 632.118 636.269 633.437 636.269C634.606 636.269 635.559 636.023 636.297 635.531C637.036 635.03 637.524 634.34 637.761 633.461L639.699 633.843C639.418 635.144 638.706 636.19 637.563 636.981C636.421 637.763 635.045 638.154 633.437 638.154C631.415 638.154 629.794 637.508 628.572 636.216C627.35 634.916 626.739 633.25 626.739 631.22ZM636.377 627.291C635.577 626.597 634.579 626.25 633.384 626.25C632.189 626.25 631.178 626.601 630.352 627.304C629.526 627.999 629.06 628.891 628.954 629.98H637.682C637.611 628.882 637.176 627.985 636.377 627.291ZM643.193 643.889V624.654H645.223L645.276 626.948C645.838 626.157 646.532 625.542 647.359 625.103C648.193 624.663 649.116 624.443 650.127 624.443C651.973 624.443 653.511 625.089 654.741 626.381C655.972 627.673 656.587 629.304 656.587 631.272C656.587 633.259 655.972 634.902 654.741 636.203C653.511 637.504 651.973 638.154 650.127 638.154C649.125 638.154 648.211 637.943 647.385 637.521C646.559 637.091 645.864 636.484 645.302 635.702V643.889H643.193ZM649.837 626.381C648.492 626.381 647.402 626.834 646.568 627.739C645.724 628.68 645.302 629.857 645.302 631.272C645.302 632.705 645.724 633.892 646.568 634.832C647.394 635.755 648.484 636.216 649.837 636.216C651.147 636.216 652.236 635.755 653.107 634.832C653.95 633.892 654.372 632.705 654.372 631.272C654.372 629.857 653.95 628.68 653.107 627.739C652.228 626.834 651.138 626.381 649.837 626.381ZM657.984 626.5V625.986L661.926 622.308H662.414V624.654H667.384V626.5H662.414V633.843C662.414 634.661 662.603 635.263 662.981 635.649C663.368 636.027 663.952 636.216 664.734 636.216C665.288 636.216 665.965 636.062 666.765 635.755L667.253 637.508C666.251 637.939 665.306 638.154 664.418 638.154C663.109 638.154 662.093 637.807 661.373 637.113C660.652 636.418 660.292 635.443 660.292 634.186V626.5H657.984ZM673.963 626.5V625.986L677.905 622.308H678.393V624.654H683.363V626.5H678.393V633.843C678.393 634.661 678.582 635.263 678.96 635.649C679.346 636.027 679.931 636.216 680.713 636.216C681.267 636.216 681.943 636.062 682.743 635.755L683.231 637.508C682.229 637.939 681.284 638.154 680.397 638.154C679.087 638.154 678.072 637.807 677.351 637.113C676.63 636.418 676.27 635.443 676.27 634.186V626.5H673.963ZM688.096 637.943H685.986V617.693H688.096V626.605C688.562 625.938 689.159 625.41 689.889 625.023C690.627 624.637 691.458 624.443 692.38 624.443C693.374 624.443 694.257 624.646 695.03 625.05C695.804 625.454 696.423 626.083 696.889 626.935C697.364 627.779 697.601 628.794 697.601 629.98V637.943H695.492V630.165C695.492 628.961 695.171 628.038 694.529 627.396C693.888 626.746 693.04 626.421 691.985 626.421C690.957 626.421 690.056 626.768 689.282 627.462C688.491 628.174 688.096 629.229 688.096 630.626V637.943ZM700.673 631.22C700.673 629.26 701.301 627.643 702.558 626.368C703.815 625.085 705.401 624.443 707.318 624.443C709.216 624.443 710.754 625.019 711.932 626.17C713.118 627.331 713.712 628.825 713.712 630.653C713.712 630.662 713.685 631.022 713.632 631.734H702.835C702.949 633.219 703.402 634.349 704.193 635.122C704.993 635.887 706.052 636.269 707.37 636.269C708.539 636.269 709.493 636.023 710.231 635.531C710.969 635.03 711.457 634.34 711.694 633.461L713.632 633.843C713.351 635.144 712.639 636.19 711.497 636.981C710.354 637.763 708.979 638.154 707.37 638.154C705.349 638.154 703.727 637.508 702.505 636.216C701.284 634.916 700.673 633.25 700.673 631.22ZM710.31 627.291C709.51 626.597 708.513 626.25 707.318 626.25C706.122 626.25 705.111 626.601 704.285 627.304C703.459 627.999 702.993 628.891 702.888 629.98H711.615C711.545 628.882 711.11 627.985 710.31 627.291ZM721.081 626.5V625.986L725.023 622.308H725.511V624.654H730.481V626.5H725.511V633.843C725.511 634.661 725.7 635.263 726.078 635.649C726.464 636.027 727.049 636.216 727.831 636.216C728.385 636.216 729.062 636.062 729.861 635.755L730.349 637.508C729.347 637.939 728.402 638.154 727.515 638.154C726.205 638.154 725.19 637.807 724.469 637.113C723.749 636.418 723.388 635.443 723.388 634.186V626.5H721.081ZM732.05 631.22C732.05 629.26 732.678 627.643 733.935 626.368C735.192 625.085 736.778 624.443 738.694 624.443C740.593 624.443 742.131 625.019 743.309 626.17C744.495 627.331 745.089 628.825 745.089 630.653C745.089 630.662 745.062 631.022 745.009 631.734H734.212C734.326 633.219 734.779 634.349 735.57 635.122C736.37 635.887 737.429 636.269 738.747 636.269C739.916 636.269 740.87 636.023 741.608 635.531C742.346 635.03 742.834 634.34 743.071 633.461L745.009 633.843C744.728 635.144 744.016 636.19 742.874 636.981C741.731 637.763 740.356 638.154 738.747 638.154C736.726 638.154 735.104 637.508 733.882 636.216C732.661 634.916 732.05 633.25 732.05 631.22ZM741.687 627.291C740.887 626.597 739.89 626.25 738.694 626.25C737.499 626.25 736.488 626.601 735.662 627.304C734.836 627.999 734.37 628.891 734.265 629.98H742.992C742.922 628.882 742.487 627.985 741.687 627.291ZM750.612 637.943H748.503V624.654H750.586L750.639 626.764C751.026 626.052 751.566 625.489 752.26 625.076C752.964 624.654 753.763 624.443 754.66 624.443C755.108 624.443 755.547 624.505 755.978 624.628L755.662 626.711C755.231 626.588 754.778 626.526 754.304 626.526C753.258 626.526 752.379 626.926 751.667 627.726C750.964 628.526 750.612 629.629 750.612 631.035V637.943ZM760.5 637.943H758.391V624.654H760.421L760.474 626.381C760.878 625.784 761.401 625.313 762.043 624.971C762.693 624.619 763.418 624.443 764.218 624.443C765.114 624.443 765.919 624.646 766.63 625.05C767.351 625.454 767.901 626.034 768.278 626.79C768.709 626.069 769.289 625.498 770.019 625.076C770.748 624.654 771.579 624.443 772.51 624.443C773.802 624.443 774.919 624.865 775.859 625.709C776.755 626.579 777.204 627.849 777.204 629.519V637.943H775.081V629.625C775.081 628.579 774.813 627.783 774.277 627.238C773.75 626.693 773.033 626.421 772.128 626.421C771.179 626.421 770.392 626.707 769.768 627.278C769.153 627.849 768.845 628.658 768.845 629.704V637.943H766.736V629.625C766.736 628.579 766.468 627.783 765.932 627.238C765.404 626.693 764.693 626.421 763.796 626.421C762.847 626.421 762.06 626.729 761.436 627.344C760.812 627.95 760.5 628.803 760.5 629.901V637.943ZM785.654 638.154C784.055 638.154 782.78 637.798 781.831 637.086C780.891 636.366 780.302 635.364 780.065 634.081L782.187 633.646C782.31 634.489 782.675 635.157 783.281 635.649C783.888 636.133 784.714 636.375 785.76 636.375C786.692 636.375 787.434 636.19 787.988 635.821C788.55 635.452 788.832 634.916 788.832 634.212C788.832 634.037 788.814 633.874 788.779 633.725C788.744 633.566 788.678 633.43 788.581 633.316C788.484 633.193 788.392 633.087 788.304 633C788.225 632.912 788.093 632.828 787.909 632.749C787.733 632.67 787.588 632.608 787.474 632.564C787.368 632.521 787.193 632.472 786.946 632.419C786.709 632.358 786.529 632.314 786.406 632.288C786.292 632.261 786.089 632.222 785.799 632.169C785.509 632.116 785.307 632.081 785.193 632.063C784.85 631.993 784.595 631.945 784.428 631.918C784.27 631.883 784.028 631.826 783.703 631.747C783.387 631.668 783.145 631.598 782.978 631.536C782.811 631.466 782.596 631.374 782.332 631.259C782.068 631.136 781.862 631.013 781.713 630.89C781.572 630.767 781.414 630.618 781.238 630.442C781.062 630.257 780.926 630.06 780.829 629.849C780.741 629.638 780.667 629.396 780.605 629.124C780.544 628.842 780.513 628.543 780.513 628.227C780.513 627.128 780.97 626.223 781.884 625.511C782.798 624.799 783.998 624.443 785.483 624.443C786.933 624.443 788.107 624.755 789.003 625.379C789.9 625.995 790.453 626.852 790.664 627.95L788.621 628.359C788.287 626.9 787.232 626.17 785.457 626.17C784.56 626.17 783.87 626.351 783.387 626.711C782.912 627.071 782.675 627.55 782.675 628.148C782.675 628.86 783.009 629.334 783.677 629.572C784.371 629.818 785.145 630.016 785.997 630.165C786.375 630.235 786.639 630.288 786.788 630.323C786.946 630.35 787.201 630.407 787.553 630.495C787.913 630.574 788.177 630.644 788.344 630.706C788.511 630.767 788.739 630.859 789.029 630.982C789.328 631.105 789.552 631.229 789.702 631.352C789.851 631.475 790.023 631.633 790.216 631.826C790.418 632.02 790.568 632.222 790.664 632.433C790.761 632.644 790.844 632.894 790.915 633.184C790.985 633.465 791.02 633.773 791.02 634.107C791.02 635.302 790.55 636.278 789.609 637.034C788.678 637.781 787.359 638.154 785.654 638.154Z" fill="#0A2540" fill-opacity="0.5"/>
<path d="M673.726 644.337H792.035V645.761H673.726V644.337Z" fill="#0A2540" fill-opacity="0.5"/>
</g>
<rect x="29.0213" y="22.0213" width="972.957" height="664.805" rx="15.3198" stroke="#0A2540" stroke-opacity="0.05" stroke-width="2.04264"/>
</g>
<g opacity="0.7">
<path d="M408.204 744.176C395.498 744.176 385.391 754.427 385.391 766.989C385.391 779.694 395.643 789.801 408.204 789.801C420.766 789.801 431.017 779.55 431.017 766.989C431.017 754.427 420.766 744.176 408.204 744.176ZM408.204 775.363C403.584 775.363 399.685 771.465 399.685 766.844C399.685 762.224 403.584 758.326 408.204 758.326C412.825 758.326 416.723 762.224 416.723 766.844C416.579 771.609 412.825 775.363 408.204 775.363Z" fill="#0A2540" fill-opacity="0.6"/>
<path d="M385.255 750.676V783.884H377.17L366.774 750.676H385.255Z" fill="#0A2540" fill-opacity="0.6"/>
<path d="M465.323 756.723L460.258 769.272C460.168 769.451 460.124 769.675 460.034 769.855L459.944 770.213L459.855 769.855C459.81 769.631 459.72 769.451 459.631 769.227L454.611 756.723H448.067L456.717 778.146L453.132 786.303H459.631L471.821 756.723H465.323Z" fill="#0A2540" fill-opacity="0.7"/>
<path d="M488.888 756.915C486.02 755.929 482.793 756.063 479.835 757.408C477.908 758.259 476.249 759.738 475.129 761.621C474.143 763.279 473.65 765.251 473.65 767.447C473.65 769.688 474.143 771.66 475.129 773.319C476.115 774.977 477.504 776.321 479.207 777.218C480.955 778.159 482.972 778.607 484.944 778.607C486.02 778.607 487.051 778.473 488.082 778.204C488.978 777.98 489.83 777.621 490.681 777.173C492.429 776.232 493.863 774.887 494.804 773.274C495.79 771.615 496.283 769.599 496.283 767.402C496.283 762.562 493.46 758.528 488.888 756.915ZM490.591 767.671C490.502 769.599 489.874 771.122 488.709 772.153C487.813 772.96 486.558 773.363 484.989 773.408C483.376 773.363 482.166 772.915 481.269 772.153C480.104 771.122 479.476 769.599 479.387 767.671C479.297 765.565 480.149 763.682 481.717 762.562C482.614 761.935 483.689 761.576 484.989 761.531C486.289 761.576 487.365 761.89 488.261 762.562C489.83 763.682 490.681 765.52 490.591 767.671Z" fill="#0A2540" fill-opacity="0.7"/>
<path d="M515.39 756.915C512.522 755.929 509.295 756.063 506.336 757.408C504.409 758.259 502.751 759.738 501.631 761.621C500.644 763.279 500.151 765.251 500.151 767.447C500.151 769.688 500.644 771.66 501.631 773.319C502.617 774.977 504.006 776.321 505.709 777.218C507.457 778.159 509.474 778.607 511.446 778.607C512.522 778.607 513.552 778.473 514.583 778.204C515.48 777.98 516.331 777.621 517.183 777.173C518.931 776.232 520.365 774.887 521.306 773.274C522.292 771.615 522.785 769.599 522.785 767.402C522.785 762.562 519.961 758.528 515.39 756.915ZM517.093 767.671C517.003 769.599 516.376 771.122 515.211 772.153C514.314 772.96 513.059 773.363 511.491 773.408C509.877 773.363 508.667 772.915 507.771 772.153C506.605 771.122 505.978 769.599 505.888 767.671C505.799 765.565 506.65 763.682 508.219 762.562C509.115 761.935 510.191 761.576 511.491 761.531C512.79 761.576 513.866 761.89 514.762 762.562C516.331 763.682 517.183 765.52 517.093 767.671Z" fill="#0A2540" fill-opacity="0.7"/>
<path d="M657.772 756.914L652.798 769.329C652.708 769.508 652.663 769.732 652.618 769.912L652.529 770.27L652.439 769.912C652.394 769.687 652.305 769.508 652.215 769.329L647.195 756.914H640.741L649.302 778.113L645.761 786.181H652.17L664.226 756.914H657.772V756.914Z" fill="#0A2540" fill-opacity="0.7"/>
<path d="M609.837 758.065C608.717 757.214 607.238 756.676 605.579 756.497C602.711 756.183 600.022 757.169 598.139 759.141V756.9H592.223V778.1H598.095V767.029C598.139 764.519 598.543 763.892 598.991 763.22C599.708 762.099 601.053 761.427 602.621 761.427C604.19 761.427 605.624 762.189 606.296 763.354C606.789 764.206 606.879 765.326 606.879 765.909C606.879 767.836 606.879 778.1 606.879 778.1H612.75V765.192C612.75 761.875 611.809 759.545 609.837 758.065Z" fill="#0A2540" fill-opacity="0.7"/>
<path d="M580.912 757.084C578.089 756.098 574.906 756.278 571.948 757.577C570.066 758.429 568.408 759.908 567.332 761.745C566.346 763.404 565.853 765.331 565.853 767.482C565.853 769.678 566.346 771.65 567.332 773.309C568.318 774.967 569.663 776.267 571.366 777.163C573.069 778.06 575.086 778.553 577.058 778.553C578.089 778.553 579.164 778.418 580.15 778.149C581.047 777.925 581.898 777.567 582.705 777.118C584.453 776.177 585.842 774.833 586.783 773.264C587.769 771.606 588.262 769.634 588.262 767.437C588.218 762.642 585.439 758.653 580.912 757.084ZM582.57 767.706C582.481 769.589 581.853 771.113 580.688 772.099C579.792 772.905 578.582 773.309 577.013 773.354C575.444 773.309 574.234 772.861 573.338 772.099C572.172 771.113 571.545 769.589 571.455 767.706C571.366 765.6 572.217 763.762 573.741 762.642C574.638 762.014 575.713 761.656 576.968 761.656C578.268 761.701 579.344 762.014 580.24 762.642C581.853 763.762 582.66 765.6 582.57 767.706Z" fill="#0A2540" fill-opacity="0.7"/>
<path d="M559.093 758.031C557.972 757.179 556.493 756.641 554.835 756.462C554.476 756.417 554.118 756.417 553.759 756.417C551.429 756.462 549.412 757.448 547.709 759.42L547.395 759.779H546.767C546.319 759.107 545.781 758.479 545.154 757.986C544.033 757.134 542.554 756.597 540.896 756.417C538.162 756.148 535.966 757 534.039 759.062V756.821H528.168V778.02H534.039V767.039V766.815C534.129 764.485 534.353 763.947 534.801 763.275C535.518 762.154 536.818 761.482 538.207 761.482C539.641 761.482 540.941 762.199 541.613 763.364C542.151 764.261 542.151 765.292 542.106 766.322V778.155H548.067V766.771C548.112 764.664 548.381 763.902 548.829 763.185C549.546 762.065 550.846 761.392 552.28 761.437C553.67 761.482 554.88 762.199 555.552 763.364C555.955 764.037 556.09 764.933 556.09 765.56C556.09 765.829 556.09 766.098 556.09 766.322V778.11H561.961V765.202C561.961 763.992 561.827 762.916 561.558 761.93C561.199 760.272 560.348 758.972 559.093 758.031Z" fill="#0A2540" fill-opacity="0.7"/>
<path d="M634.966 771.557C634.025 772.453 632.098 774.022 629.319 774.111C626.988 774.201 625.24 773.574 624.03 772.274C623.447 771.646 623.044 770.884 622.775 769.988L639.044 770.033L639.089 769.898C639.269 769.092 639.313 768.285 639.313 767.433C639.313 766.761 639.179 765.685 638.82 764.43C638.103 762.055 636.669 760.083 634.831 758.649C632.725 757.08 630.663 756.677 630.125 756.587C625.913 755.87 621.117 757.797 618.697 761.652C616.994 764.341 617.038 767.075 617.083 767.971C617.128 768.912 617.262 772.229 619.772 774.963C622.775 778.28 626.988 778.459 628.333 778.504C634.114 778.728 638.058 775.097 638.91 774.246L634.966 771.557ZM624.792 762.683C625.688 762.055 626.719 761.697 628.019 761.697C629.319 761.741 630.394 762.055 631.246 762.683C632.142 763.355 632.859 764.251 633.218 765.372H622.82C623.179 764.251 623.851 763.31 624.792 762.683Z" fill="#0A2540" fill-opacity="0.7"/>
</g>
<defs>
<filter id="filter0_ddd_2160_1127" x="0.968634" y="0.206641" width="1029.06" height="720.91" filterUnits="userSpaceOnUse" color-interpolation-filters="sRGB">
<feFlood flood-opacity="0" result="BackgroundImageFix"/>
<feColorMatrix in="SourceAlpha" type="matrix" values="0 0 0 0 0 0 0 0 0 0 0 0 0 0 0 0 0 0 127 0" result="hardAlpha"/>
<feMorphology radius="2.07934" operator="dilate" in="SourceAlpha" result="effect1_dropShadow_2160_1127"/>
<feOffset dy="6.23801"/>
<feGaussianBlur stdDeviation="12.476"/>
<feColorMatrix type="matrix" values="0 0 0 0 0.0392157 0 0 0 0 0.145098 0 0 0 0 0.25098 0 0 0 0.08 0"/>
<feBlend mode="normal" in2="BackgroundImageFix" result="effect1_dropShadow_2160_1127"/>
<feColorMatrix in="SourceAlpha" type="matrix" values="0 0 0 0 0 0 0 0 0 0 0 0 0 0 0 0 0 0 127 0" result="hardAlpha"/>
<feOffset dy="4.15867"/>
<feGaussianBlur stdDeviation="2.07934"/>
<feColorMatrix type="matrix" values="0 0 0 0 0.0392157 0 0 0 0 0.145098 0 0 0 0 0.25098 0 0 0 0.08 0"/>
<feBlend mode="normal" in2="effect1_dropShadow_2160_1127" result="effect2_dropShadow_2160_1127"/>
<feColorMatrix in="SourceAlpha" type="matrix" values="0 0 0 0 0 0 0 0 0 0 0 0 0 0 0 0 0 0 127 0" result="hardAlpha"/>
<feOffset/>
<feGaussianBlur stdDeviation="2.07934"/>
<feColorMatrix type="matrix" values="0 0 0 0 0.0392157 0 0 0 0 0.145098 0 0 0 0 0.25098 0 0 0 0.04 0"/>
<feBlend mode="normal" in2="effect2_dropShadow_2160_1127" result="effect3_dropShadow_2160_1127"/>
<feBlend mode="normal" in="SourceGraphic" in2="effect3_dropShadow_2160_1127" result="shape"/>
</filter>
<clipPath id="clip0_2160_1127">
<rect x="28" y="21" width="975" height="666.848" rx="16.3411" fill="white"/>
</clipPath>
<clipPath id="clip1_2160_1127">
<rect width="289.164" height="72" fill="white" transform="translate(667.11 225.387)"/>
</clipPath>
</defs>
</svg>
