<svg width="1029" height="914" viewBox="0 0 1029 914" fill="none" xmlns="http://www.w3.org/2000/svg">
<g filter="url(#filter0_ddd_2160_942)">
<rect x="27" y="21" width="974.545" height="182.727" rx="16.2515" fill="white"/>
<rect x="28.0157" y="22.0157" width="972.514" height="180.696" rx="15.2358" stroke="#F3F4F5" stroke-width="2.03144"/>
</g>
<path fill-rule="evenodd" clip-rule="evenodd" d="M942.108 111.638L924.497 129.059L927.39 131.926L947.846 111.602L927.388 91.3203L924.499 94.1911L942.108 111.638Z" fill="#0A2540" fill-opacity="0.5"/>
<path d="M196.858 98.2617H193.753V86.1275L183.617 70.8526H187.275L195.394 83.1653L203.424 70.8526H206.94L196.858 86.1275V98.2617ZM208.51 82.6121C210.259 80.8634 212.478 79.989 215.166 79.989C217.855 79.989 220.073 80.8634 221.822 82.6121C223.571 84.3609 224.445 86.5677 224.445 89.2324C224.445 91.9329 223.571 94.1634 221.822 95.9241C220.073 97.6729 217.855 98.5472 215.166 98.5472C212.478 98.5472 210.259 97.6729 208.51 95.9241C206.761 94.1634 205.887 91.9329 205.887 89.2324C205.887 86.5677 206.761 84.3609 208.51 82.6121ZM215.166 82.6121C213.358 82.6121 211.859 83.2248 210.669 84.4501C209.48 85.6754 208.885 87.2695 208.885 89.2324C208.885 91.2191 209.48 92.8251 210.669 94.0504C211.847 95.2995 213.346 95.9241 215.166 95.9241C216.974 95.9241 218.485 95.2995 219.699 94.0504C220.876 92.8013 221.465 91.1953 221.465 89.2324C221.465 87.2933 220.876 85.6992 219.699 84.4501C218.473 83.2248 216.962 82.6121 215.166 82.6121ZM230.209 82.6121C231.958 80.8634 234.176 79.989 236.865 79.989C239.554 79.989 241.772 80.8634 243.521 82.6121C245.27 84.3609 246.144 86.5677 246.144 89.2324C246.144 91.9329 245.27 94.1634 243.521 95.9241C241.772 97.6729 239.554 98.5472 236.865 98.5472C234.176 98.5472 231.958 97.6729 230.209 95.9241C228.46 94.1634 227.586 91.9329 227.586 89.2324C227.586 86.5677 228.46 84.3609 230.209 82.6121ZM236.865 82.6121C235.057 82.6121 233.558 83.2248 232.368 84.4501C231.179 85.6754 230.584 87.2695 230.584 89.2324C230.584 91.2191 231.179 92.8251 232.368 94.0504C233.546 95.2995 235.045 95.9241 236.865 95.9241C238.673 95.9241 240.184 95.2995 241.397 94.0504C242.575 92.8013 243.164 91.1953 243.164 89.2324C243.164 87.2933 242.575 85.6992 241.397 84.4501C240.172 83.2248 238.661 82.6121 236.865 82.6121ZM254.87 98.2617H251.872V70.8526H255.209L264.934 83.2367L274.499 70.8526H277.836V98.2617H274.838V75.0996L265.184 87.448H264.488L254.87 75.171V98.2617ZM286.205 82.6121C287.954 80.8634 290.172 79.989 292.861 79.989C295.549 79.989 297.768 80.8634 299.517 82.6121C301.266 84.3609 302.14 86.5677 302.14 89.2324C302.14 91.9329 301.266 94.1634 299.517 95.9241C297.768 97.6729 295.549 98.5472 292.861 98.5472C290.172 98.5472 287.954 97.6729 286.205 95.9241C284.456 94.1634 283.582 91.9329 283.582 89.2324C283.582 86.5677 284.456 84.3609 286.205 82.6121ZM292.861 82.6121C291.053 82.6121 289.554 83.2248 288.364 84.4501C287.174 85.6754 286.58 87.2695 286.58 89.2324C286.58 91.2191 287.174 92.8251 288.364 94.0504C289.542 95.2995 291.041 95.9241 292.861 95.9241C294.669 95.9241 296.18 95.2995 297.393 94.0504C298.571 92.8013 299.16 91.1953 299.16 89.2324C299.16 87.2933 298.571 85.6992 297.393 84.4501C296.168 83.2248 294.657 82.6121 292.861 82.6121ZM309.563 98.2617H306.708V80.2745H309.456L309.528 82.9869C310.158 82.059 310.967 81.3273 311.954 80.792C312.954 80.2567 314.09 79.989 315.363 79.989C316.707 79.989 317.903 80.2626 318.95 80.8098C319.996 81.3571 320.835 82.2077 321.466 83.3616C322.108 84.5036 322.429 85.8777 322.429 87.4837V98.2617H319.574V87.7335C319.574 86.1037 319.14 84.8546 318.271 83.9862C317.403 83.1058 316.255 82.6657 314.827 82.6657C313.436 82.6657 312.216 83.1356 311.169 84.0754C310.099 85.039 309.563 86.4665 309.563 88.358V98.2617ZM326.587 89.161C326.587 86.5082 327.438 84.3192 329.139 82.5943C330.84 80.8574 332.987 79.989 335.581 79.989C338.15 79.989 340.232 80.7682 341.826 82.3266C343.432 83.8969 344.235 85.9193 344.235 88.3937C344.235 88.4056 344.199 88.8934 344.128 89.857H329.513C329.668 91.8675 330.281 93.3961 331.351 94.443C332.434 95.478 333.867 95.9955 335.652 95.9955C337.234 95.9955 338.525 95.6624 339.524 94.9962C340.523 94.3181 341.184 93.3842 341.505 92.1946L344.128 92.7121C343.747 94.4727 342.784 95.8884 341.237 96.9591C339.691 98.0178 337.829 98.5472 335.652 98.5472C332.916 98.5472 330.721 97.6729 329.067 95.9241C327.414 94.1634 326.587 91.9091 326.587 89.161ZM339.631 83.8434C338.549 82.9036 337.198 82.4337 335.581 82.4337C333.963 82.4337 332.595 82.9095 331.476 83.8612C330.358 84.801 329.728 86.0085 329.585 87.4837H341.398C341.303 85.9966 340.714 84.7832 339.631 83.8434ZM353.871 98.119L346.037 80.2745H349.267L355.441 94.4608L361.027 80.2745H364.06L353.568 106.31H350.57L353.871 98.119Z" fill="#0A2540"/>
<path d="M191.243 143.764L197.34 131.555H197.979L204.135 143.734L208.492 124.239H211.08L205.994 147.08H203.154L197.652 136.15L192.194 147.08H189.399L184.313 124.239H186.901L191.243 143.764ZM225.95 147.08H223.764L223.69 144.18C223.065 145.162 222.252 145.93 221.251 146.485C220.26 147.04 219.189 147.318 218.039 147.318C216.621 147.318 215.476 146.946 214.604 146.203C213.742 145.459 213.31 144.453 213.31 143.184C213.31 141.747 213.861 140.661 214.961 139.927C216.022 139.233 217.464 138.654 219.288 138.188L223.63 137.176C223.531 136.106 223.135 135.293 222.441 134.738C221.757 134.173 220.864 133.89 219.764 133.89C218.644 133.89 217.717 134.148 216.983 134.663C216.26 135.179 215.769 135.927 215.511 136.909L213.31 136.477C213.598 135.06 214.331 133.935 215.511 133.102C216.691 132.269 218.138 131.853 219.853 131.853C221.727 131.853 223.209 132.368 224.3 133.399C225.4 134.42 225.95 135.813 225.95 137.578V147.08ZM215.779 142.976C215.779 143.67 216.007 144.23 216.463 144.656C216.929 145.073 217.563 145.281 218.366 145.281C219.794 145.281 221.033 144.755 222.084 143.705C223.135 142.654 223.66 141.231 223.66 139.437V139.095L219.288 140.165C218.099 140.473 217.216 140.839 216.641 141.266C216.066 141.692 215.779 142.262 215.779 142.976ZM233.028 147.08H230.649V124.239H233.028V147.08ZM240.404 147.08H238.025V124.239H240.404V147.08ZM244.211 139.496C244.211 137.285 244.92 135.461 246.337 134.024C247.755 132.577 249.544 131.853 251.706 131.853C253.847 131.853 255.582 132.502 256.91 133.801C258.249 135.109 258.918 136.795 258.918 138.857C258.918 138.867 258.888 139.273 258.829 140.076H246.65C246.779 141.752 247.289 143.025 248.181 143.898C249.083 144.76 250.278 145.192 251.765 145.192C253.084 145.192 254.159 144.914 254.992 144.359C255.825 143.794 256.375 143.016 256.643 142.024L258.829 142.455C258.511 143.923 257.708 145.102 256.42 145.995C255.131 146.877 253.579 147.318 251.765 147.318C249.485 147.318 247.656 146.589 246.278 145.132C244.9 143.665 244.211 141.786 244.211 139.496ZM255.081 135.065C254.179 134.282 253.054 133.89 251.706 133.89C250.357 133.89 249.217 134.287 248.285 135.08C247.354 135.863 246.828 136.869 246.709 138.098H256.553C256.474 136.859 255.983 135.848 255.081 135.065ZM260.539 134.173V133.593L264.985 129.444H265.535V132.091H271.141V134.173H265.535V142.455C265.535 143.377 265.748 144.056 266.175 144.493C266.611 144.919 267.27 145.132 268.152 145.132C268.777 145.132 269.54 144.959 270.442 144.612L270.993 146.589C269.862 147.075 268.797 147.318 267.795 147.318C266.318 147.318 265.173 146.926 264.36 146.143C263.547 145.36 263.141 144.26 263.141 142.842V134.173H260.539ZM292.272 147.08H290.086L290.012 144.18C289.387 145.162 288.574 145.93 287.573 146.485C286.582 147.04 285.511 147.318 284.361 147.318C282.943 147.318 281.798 146.946 280.926 146.203C280.063 145.459 279.632 144.453 279.632 143.184C279.632 141.747 280.182 140.661 281.283 139.927C282.344 139.233 283.786 138.654 285.61 138.188L289.952 137.176C289.853 136.106 289.457 135.293 288.763 134.738C288.079 134.173 287.186 133.89 286.086 133.89C284.966 133.89 284.039 134.148 283.305 134.663C282.582 135.179 282.091 135.927 281.833 136.909L279.632 136.477C279.92 135.06 280.653 133.935 281.833 133.102C283.013 132.269 284.46 131.853 286.175 131.853C288.049 131.853 289.531 132.368 290.621 133.399C291.722 134.42 292.272 135.813 292.272 137.578V147.08ZM282.101 142.976C282.101 143.67 282.329 144.23 282.785 144.656C283.251 145.073 283.885 145.281 284.688 145.281C286.116 145.281 287.355 144.755 288.406 143.705C289.457 142.654 289.982 141.231 289.982 139.437V139.095L285.61 140.165C284.42 140.473 283.538 140.839 282.963 141.266C282.388 141.692 282.101 142.262 282.101 142.976ZM299.35 147.08H296.971V132.091H299.261L299.321 134.351C299.846 133.578 300.52 132.968 301.343 132.522C302.176 132.076 303.122 131.853 304.183 131.853C305.303 131.853 306.3 132.081 307.172 132.537C308.045 132.993 308.743 133.702 309.269 134.663C309.804 135.615 310.072 136.76 310.072 138.098V147.08H307.693V138.307C307.693 136.948 307.331 135.907 306.607 135.184C305.883 134.45 304.927 134.083 303.737 134.083C302.577 134.083 301.561 134.475 300.689 135.258C299.796 136.061 299.35 137.251 299.35 138.827V147.08ZM328.645 124.239V147.08H326.355L326.295 144.641C325.661 145.494 324.878 146.153 323.946 146.619C323.024 147.085 322.013 147.318 320.912 147.318C318.791 147.318 317.031 146.589 315.633 145.132C314.236 143.665 313.537 141.806 313.537 139.556C313.537 137.335 314.236 135.496 315.633 134.039C317.031 132.581 318.791 131.853 320.912 131.853C321.993 131.853 322.994 132.086 323.916 132.552C324.848 133.008 325.631 133.647 326.266 134.47V124.239H328.645ZM321.15 134.039C319.653 134.039 318.434 134.549 317.492 135.57C316.521 136.601 316.035 137.93 316.035 139.556C316.035 141.201 316.521 142.54 317.492 143.571C318.424 144.612 319.643 145.132 321.15 145.132C322.667 145.132 323.896 144.617 324.838 143.586C325.79 142.545 326.266 141.201 326.266 139.556C326.266 137.92 325.79 136.592 324.838 135.57C323.896 134.549 322.667 134.039 321.15 134.039ZM342.712 147.08H340.333V124.239H342.712V147.08ZM350.564 126.946C350.564 127.412 350.4 127.803 350.073 128.12C349.756 128.438 349.364 128.596 348.898 128.596C348.433 128.596 348.041 128.438 347.724 128.12C347.406 127.803 347.248 127.412 347.248 126.946C347.248 126.46 347.401 126.068 347.709 125.771C348.026 125.464 348.423 125.31 348.898 125.31C349.374 125.31 349.771 125.464 350.088 125.771C350.405 126.068 350.564 126.46 350.564 126.946ZM350.088 147.08H347.709V132.091H350.088V147.08ZM357.464 147.08H355.085V132.091H357.375L357.434 134.351C357.959 133.578 358.634 132.968 359.456 132.522C360.289 132.076 361.236 131.853 362.297 131.853C363.417 131.853 364.413 132.081 365.286 132.537C366.158 132.993 366.857 133.702 367.382 134.663C367.918 135.615 368.185 136.76 368.185 138.098V147.08H365.806V138.307C365.806 136.948 365.444 135.907 364.721 135.184C363.997 134.45 363.04 134.083 361.851 134.083C360.691 134.083 359.675 134.475 358.802 135.258C357.91 136.061 357.464 137.251 357.464 138.827V147.08ZM377.286 137.697L382.461 132.091H385.39L379.264 138.768L385.777 147.08H382.892L377.227 140.017H375.219V147.08H372.84V124.239H375.219V137.697H377.286ZM386.729 139.496C386.729 137.285 387.438 135.461 388.855 134.024C390.273 132.577 392.062 131.853 394.223 131.853C396.365 131.853 398.1 132.502 399.428 133.801C400.766 135.109 401.436 136.795 401.436 138.857C401.436 138.867 401.406 139.273 401.346 140.076H389.167C389.296 141.752 389.807 143.025 390.699 143.898C391.601 144.76 392.796 145.192 394.283 145.192C395.601 145.192 396.677 144.914 397.51 144.359C398.342 143.794 398.893 143.016 399.16 142.024L401.346 142.455C401.029 143.923 400.226 145.102 398.937 145.995C397.649 146.877 396.097 147.318 394.283 147.318C392.003 147.318 390.174 146.589 388.796 145.132C387.418 143.665 386.729 141.786 386.729 139.496ZM397.599 135.065C396.697 134.282 395.572 133.89 394.223 133.89C392.875 133.89 391.735 134.287 390.803 135.08C389.871 135.863 389.346 136.869 389.227 138.098H399.071C398.992 136.859 398.501 135.848 397.599 135.065ZM419.206 124.239V147.08H416.916L416.856 144.641C416.222 145.494 415.438 146.153 414.507 146.619C413.585 147.085 412.573 147.318 411.473 147.318C409.352 147.318 407.592 146.589 406.194 145.132C404.796 143.665 404.097 141.806 404.097 139.556C404.097 137.335 404.796 135.496 406.194 134.039C407.592 132.581 409.352 131.853 411.473 131.853C412.554 131.853 413.555 132.086 414.477 132.552C415.409 133.008 416.192 133.647 416.826 134.47V124.239H419.206ZM411.711 134.039C410.214 134.039 408.995 134.549 408.053 135.57C407.081 136.601 406.596 137.93 406.596 139.556C406.596 141.201 407.081 142.54 408.053 143.571C408.985 144.612 410.204 145.132 411.711 145.132C413.228 145.132 414.457 144.617 415.399 143.586C416.35 142.545 416.826 141.201 416.826 139.556C416.826 137.92 416.35 136.592 415.399 135.57C414.457 134.549 413.228 134.039 411.711 134.039ZM433.66 135.541C432.688 136.542 432.202 137.86 432.202 139.496C432.202 141.132 432.678 142.48 433.63 143.541C434.562 144.602 435.771 145.132 437.258 145.132C438.517 145.132 439.558 144.8 440.381 144.136C441.204 143.462 441.734 142.564 441.972 141.444L444.262 141.846C443.995 143.402 443.221 144.701 441.942 145.742C440.683 146.793 439.122 147.318 437.258 147.318C435.077 147.318 433.273 146.579 431.845 145.102C430.418 143.615 429.704 141.747 429.704 139.496C429.704 137.295 430.423 135.471 431.86 134.024C433.298 132.577 435.097 131.853 437.258 131.853C439.063 131.853 440.574 132.329 441.794 133.28C443.023 134.232 443.816 135.511 444.173 137.117L441.853 137.548C441.586 136.477 441.05 135.625 440.247 134.99C439.454 134.356 438.468 134.039 437.288 134.039C435.801 134.039 434.591 134.539 433.66 135.541ZM459.147 147.08H456.961L456.887 144.18C456.263 145.162 455.45 145.93 454.448 146.485C453.457 147.04 452.386 147.318 451.236 147.318C449.819 147.318 448.674 146.946 447.801 146.203C446.939 145.459 446.508 144.453 446.508 143.184C446.508 141.747 447.058 140.661 448.158 139.927C449.219 139.233 450.661 138.654 452.486 138.188L456.828 137.176C456.729 136.106 456.332 135.293 455.638 134.738C454.954 134.173 454.062 133.89 452.961 133.89C451.841 133.89 450.914 134.148 450.181 134.663C449.457 135.179 448.966 135.927 448.708 136.909L446.508 136.477C446.795 135.06 447.529 133.935 448.708 133.102C449.888 132.269 451.336 131.853 453.051 131.853C454.924 131.853 456.406 132.368 457.497 133.399C458.597 134.42 459.147 135.813 459.147 137.578V147.08ZM448.976 142.976C448.976 143.67 449.204 144.23 449.66 144.656C450.126 145.073 450.761 145.281 451.564 145.281C452.991 145.281 454.23 144.755 455.281 143.705C456.332 142.654 456.857 141.231 456.857 139.437V139.095L452.486 140.165C451.296 140.473 450.414 140.839 449.839 141.266C449.264 141.692 448.976 142.262 448.976 142.976ZM466.226 147.08H463.846V132.091H466.196L466.255 134.47C466.692 133.667 467.301 133.033 468.085 132.567C468.878 132.091 469.78 131.853 470.791 131.853C471.297 131.853 471.792 131.922 472.278 132.061L471.921 134.411C471.435 134.272 470.925 134.202 470.389 134.202C469.21 134.202 468.218 134.653 467.415 135.556C466.622 136.458 466.226 137.702 466.226 139.288V147.08ZM488.918 124.239V147.08H486.628L486.568 144.641C485.934 145.494 485.151 146.153 484.219 146.619C483.297 147.085 482.286 147.318 481.185 147.318C479.064 147.318 477.304 146.589 475.906 145.132C474.509 143.665 473.81 141.806 473.81 139.556C473.81 137.335 474.509 135.496 475.906 134.039C477.304 132.581 479.064 131.853 481.185 131.853C482.266 131.853 483.267 132.086 484.189 132.552C485.121 133.008 485.904 133.647 486.539 134.47V124.239H488.918ZM481.423 134.039C479.926 134.039 478.707 134.549 477.765 135.57C476.794 136.601 476.308 137.93 476.308 139.556C476.308 141.201 476.794 142.54 477.765 143.571C478.697 144.612 479.916 145.132 481.423 145.132C482.94 145.132 484.169 144.617 485.111 143.586C486.063 142.545 486.539 141.201 486.539 139.556C486.539 137.92 486.063 136.592 485.111 135.57C484.169 134.549 482.94 134.039 481.423 134.039ZM498.762 147.318C496.958 147.318 495.52 146.917 494.45 146.114C493.389 145.301 492.725 144.17 492.457 142.723L494.851 142.232C494.99 143.184 495.401 143.937 496.085 144.493C496.77 145.038 497.701 145.311 498.881 145.311C499.932 145.311 500.77 145.102 501.394 144.686C502.029 144.27 502.346 143.665 502.346 142.872C502.346 142.673 502.326 142.49 502.286 142.322C502.247 142.143 502.172 141.989 502.063 141.861C501.954 141.722 501.85 141.603 501.751 141.504C501.662 141.405 501.513 141.31 501.305 141.221C501.107 141.132 500.943 141.063 500.814 141.013C500.695 140.963 500.497 140.909 500.219 140.849C499.952 140.78 499.749 140.73 499.61 140.701C499.481 140.671 499.253 140.626 498.926 140.567C498.599 140.507 498.371 140.468 498.242 140.448C497.855 140.369 497.568 140.314 497.379 140.284C497.201 140.245 496.928 140.18 496.561 140.091C496.204 140.002 495.932 139.922 495.743 139.853C495.555 139.774 495.312 139.67 495.015 139.541C494.717 139.402 494.484 139.263 494.316 139.124C494.157 138.986 493.979 138.817 493.781 138.619C493.582 138.411 493.429 138.188 493.32 137.95C493.22 137.712 493.136 137.439 493.067 137.132C492.997 136.815 492.963 136.477 492.963 136.121C492.963 134.881 493.478 133.86 494.509 133.057C495.54 132.254 496.893 131.853 498.569 131.853C500.205 131.853 501.528 132.205 502.539 132.909C503.55 133.603 504.175 134.569 504.413 135.808L502.108 136.269C501.731 134.624 500.542 133.801 498.539 133.801C497.528 133.801 496.75 134.004 496.204 134.411C495.669 134.817 495.401 135.357 495.401 136.031C495.401 136.834 495.778 137.37 496.532 137.637C497.315 137.915 498.187 138.138 499.149 138.307C499.575 138.386 499.872 138.445 500.041 138.485C500.219 138.515 500.507 138.579 500.903 138.678C501.31 138.768 501.607 138.847 501.796 138.916C501.984 138.986 502.242 139.09 502.569 139.229C502.906 139.367 503.159 139.506 503.327 139.645C503.496 139.784 503.689 139.962 503.907 140.18C504.135 140.398 504.304 140.626 504.413 140.864C504.522 141.102 504.616 141.385 504.695 141.712C504.775 142.029 504.814 142.376 504.814 142.753C504.814 144.101 504.284 145.201 503.223 146.054C502.172 146.897 500.685 147.318 498.762 147.318Z" fill="#0A2540" fill-opacity="0.7"/>
<circle cx="118.361" cy="112.363" r="41.6212" stroke="white" stroke-opacity="0.3" stroke-width="2.0303"/>
<g clip-path="url(#clip0_2160_942)">
<path d="M118.362 152.595C140.788 152.595 158.968 134.415 158.968 111.989C158.968 89.5628 140.788 71.3828 118.362 71.3828C95.9355 71.3828 77.7556 89.5628 77.7556 111.989C77.7556 134.415 95.9355 152.595 118.362 152.595Z" fill="#262626"/>
<path d="M126.809 82.6782L102.515 98.3075C101.483 98.9695 100.635 99.8806 100.047 100.957C99.4602 102.033 99.1532 103.239 99.1547 104.465L99.104 129.605C99.1029 130.585 99.4912 131.526 100.184 132.22C100.876 132.914 101.816 133.304 102.796 133.306H134.926C135.707 133.304 136.457 132.993 137.009 132.441C137.562 131.888 137.873 131.139 137.875 130.357V104.015C137.875 102.911 136.981 102.009 135.869 102.009H127.102L127.161 82.869C127.161 82.828 127.15 82.7876 127.129 82.7522C127.109 82.7168 127.079 82.6877 127.042 82.6681C127.006 82.6485 126.966 82.6391 126.925 82.6408C126.884 82.6426 126.844 82.6555 126.809 82.6782V82.6782Z" fill="url(#paint0_linear_2160_942)"/>
<path d="M137.863 121.559L107.219 129.322C106.516 129.503 106.105 128.561 106.707 128.159L127.071 114.837L127.08 102.008H136.219C137.132 102.008 137.863 102.74 137.863 103.652V121.56V121.559Z" fill="url(#paint1_linear_2160_942)"/>
<path d="M120.234 105.69C121.642 104.059 121.924 101.994 120.863 101.078C119.802 100.162 117.8 100.742 116.392 102.373C114.983 104.004 114.702 106.069 115.762 106.985C116.823 107.901 118.825 107.321 120.234 105.69Z" fill="#171717"/>
</g>
<g filter="url(#filter1_ddd_2160_942)">
<rect x="27" y="223.727" width="974.545" height="182.727" rx="16.2515" fill="white"/>
<rect x="28.0157" y="224.742" width="972.514" height="180.696" rx="15.2358" stroke="#F3F4F5" stroke-width="2.03144"/>
</g>
<path fill-rule="evenodd" clip-rule="evenodd" d="M942.108 314.364L924.497 331.785L927.39 334.653L947.846 314.329L927.388 294.047L924.499 296.918L942.108 314.364Z" fill="#0A2540" fill-opacity="0.5"/>
<path d="M204.852 280.414L201.89 281.217C201.64 279.658 200.92 278.409 199.731 277.469C198.553 276.529 197.06 276.06 195.252 276.06C193.336 276.06 191.82 276.446 190.701 277.219C189.583 277.981 189.024 279.046 189.024 280.414C189.024 281.056 189.161 281.633 189.434 282.145C189.72 282.644 190.029 283.049 190.362 283.358C190.707 283.655 191.255 283.947 192.004 284.232C192.765 284.518 193.372 284.72 193.824 284.839C194.276 284.946 195.014 285.119 196.037 285.357C196.168 285.392 196.269 285.416 196.34 285.428C197.09 285.594 197.744 285.749 198.303 285.892C198.862 286.035 199.475 286.225 200.141 286.463C200.819 286.701 201.396 286.951 201.872 287.212C202.348 287.474 202.824 287.807 203.3 288.212C203.775 288.616 204.156 289.056 204.442 289.532C204.739 290.008 204.977 290.573 205.155 291.227C205.346 291.87 205.441 292.578 205.441 293.351C205.441 295.801 204.531 297.735 202.711 299.15C200.902 300.566 198.511 301.274 195.537 301.274C194.217 301.274 193.003 301.137 191.897 300.863C190.791 300.59 189.827 300.209 189.006 299.721C188.197 299.234 187.495 298.651 186.901 297.973C186.318 297.283 185.866 296.533 185.544 295.724C185.223 294.915 185.021 294.053 184.938 293.137L188.007 292.334C188.173 294.166 188.917 295.647 190.237 296.777C191.57 297.907 193.372 298.472 195.644 298.472C197.548 298.472 199.124 298.044 200.373 297.187C201.634 296.319 202.265 295.112 202.265 293.565C202.265 292.887 202.14 292.286 201.89 291.763C201.652 291.227 201.349 290.787 200.98 290.442C200.611 290.097 200.099 289.788 199.445 289.514C198.803 289.229 198.19 289.009 197.607 288.854C197.024 288.699 196.287 288.527 195.394 288.337C194.538 288.146 193.878 287.998 193.414 287.89C192.962 287.783 192.343 287.611 191.558 287.373C190.785 287.123 190.178 286.885 189.738 286.659C189.298 286.421 188.798 286.106 188.239 285.713C187.68 285.309 187.251 284.881 186.954 284.429C186.669 283.965 186.419 283.406 186.205 282.751C185.99 282.097 185.883 281.377 185.883 280.592C185.883 279.093 186.3 277.785 187.133 276.666C187.977 275.548 189.107 274.709 190.523 274.15C191.939 273.579 193.539 273.294 195.323 273.294C197.905 273.294 200.052 273.936 201.765 275.221C203.478 276.494 204.507 278.225 204.852 280.414ZM213.31 300.988H210.562V273.579H213.417V285.999C214.179 284.952 215.119 284.143 216.237 283.572C217.355 283.001 218.592 282.716 219.948 282.716C222.447 282.716 224.529 283.59 226.194 285.339C227.86 287.087 228.692 289.294 228.692 291.959C228.692 294.648 227.86 296.872 226.194 298.633C224.529 300.393 222.447 301.274 219.948 301.274C218.592 301.274 217.349 300.982 216.219 300.399C215.089 299.805 214.143 298.978 213.382 297.919L213.31 300.988ZM219.556 285.339C217.736 285.339 216.261 285.951 215.13 287.177C213.988 288.45 213.417 290.044 213.417 291.959C213.417 293.898 213.988 295.504 215.13 296.777C216.249 298.026 217.724 298.651 219.556 298.651C221.328 298.651 222.804 298.026 223.981 296.777C225.123 295.504 225.694 293.898 225.694 291.959C225.694 290.044 225.123 288.45 223.981 287.177C222.792 285.951 221.317 285.339 219.556 285.339ZM231.833 291.888C231.833 289.235 232.683 287.046 234.385 285.321C236.086 283.584 238.233 282.716 240.826 282.716C243.396 282.716 245.478 283.495 247.072 285.053C248.678 286.623 249.481 288.646 249.481 291.12C249.481 291.132 249.445 291.62 249.374 292.584H234.759C234.914 294.594 235.527 296.123 236.597 297.17C237.68 298.205 239.113 298.722 240.898 298.722C242.48 298.722 243.771 298.389 244.77 297.723C245.769 297.045 246.43 296.111 246.751 294.921L249.374 295.439C248.993 297.199 248.03 298.615 246.483 299.686C244.937 300.744 243.075 301.274 240.898 301.274C238.162 301.274 235.967 300.399 234.313 298.651C232.66 296.89 231.833 294.636 231.833 291.888ZM244.877 286.57C243.795 285.63 242.444 285.16 240.826 285.16C239.209 285.16 237.841 285.636 236.722 286.588C235.604 287.528 234.973 288.735 234.831 290.21H246.644C246.549 288.723 245.96 287.51 244.877 286.57ZM256.958 300.988H254.103V283.001H256.922L256.994 285.856C257.517 284.893 258.249 284.131 259.188 283.572C260.14 283.001 261.223 282.716 262.436 282.716C263.043 282.716 263.638 282.799 264.221 282.965L263.792 285.785C263.209 285.618 262.597 285.535 261.954 285.535C260.539 285.535 259.349 286.076 258.385 287.159C257.434 288.241 256.958 289.734 256.958 291.638V300.988ZM278.443 300.988H268.646V273.579H277.836C280.179 273.579 282.047 274.204 283.439 275.453C284.843 276.69 285.545 278.367 285.545 280.485C285.545 281.936 285.194 283.18 284.492 284.214C283.802 285.249 282.832 286.029 281.583 286.552C283.249 287.004 284.533 287.825 285.438 289.015C286.354 290.204 286.812 291.65 286.812 293.351C286.812 295.683 286.05 297.538 284.528 298.918C283.017 300.298 280.988 300.988 278.443 300.988ZM277.604 276.292H271.769V285.464H277.711C279.15 285.464 280.298 285.035 281.155 284.179C282.011 283.31 282.44 282.174 282.44 280.771C282.44 279.402 282 278.314 281.119 277.505C280.239 276.696 279.067 276.292 277.604 276.292ZM278.264 288.194H271.769V298.276H278.3C279.93 298.276 281.226 297.836 282.19 296.955C283.154 296.075 283.635 294.874 283.635 293.351C283.635 291.792 283.142 290.543 282.154 289.604C281.179 288.664 279.882 288.194 278.264 288.194ZM305.745 300.988H303.121L303.032 297.509C302.283 298.686 301.307 299.608 300.106 300.275C298.916 300.941 297.631 301.274 296.251 301.274C294.55 301.274 293.176 300.828 292.129 299.935C291.094 299.043 290.577 297.836 290.577 296.313C290.577 294.588 291.237 293.285 292.558 292.405C293.83 291.572 295.561 290.876 297.75 290.317L302.961 289.104C302.842 287.819 302.366 286.844 301.533 286.177C300.712 285.499 299.642 285.16 298.321 285.16C296.977 285.16 295.865 285.47 294.984 286.088C294.116 286.707 293.527 287.605 293.218 288.783L290.577 288.265C290.922 286.564 291.802 285.214 293.218 284.214C294.633 283.215 296.37 282.716 298.428 282.716C300.677 282.716 302.455 283.334 303.764 284.571C305.084 285.797 305.745 287.468 305.745 289.586V300.988ZM293.539 296.063C293.539 296.896 293.813 297.568 294.36 298.08C294.919 298.579 295.68 298.829 296.644 298.829C298.357 298.829 299.844 298.199 301.105 296.938C302.366 295.677 302.997 293.969 302.997 291.816V291.406L297.75 292.691C296.323 293.059 295.264 293.5 294.574 294.011C293.884 294.523 293.539 295.207 293.539 296.063ZM314.239 300.988H311.383V283.001H314.132L314.203 285.713C314.833 284.786 315.642 284.054 316.63 283.519C317.629 282.983 318.765 282.716 320.038 282.716C321.382 282.716 322.578 282.989 323.625 283.536C324.672 284.084 325.51 284.934 326.141 286.088C326.783 287.23 327.104 288.604 327.104 290.21V300.988H324.249V290.46C324.249 288.83 323.815 287.581 322.947 286.713C322.078 285.832 320.93 285.392 319.503 285.392C318.111 285.392 316.891 285.862 315.845 286.802C314.774 287.766 314.239 289.193 314.239 291.085V300.988ZM338.025 289.728L344.235 283.001H347.75L340.399 291.013L348.214 300.988H344.753L337.954 292.512H335.545V300.988H332.69V273.579H335.545V289.728H338.025Z" fill="#0A2540"/>
<path d="M201.265 332.661L198.797 333.33C198.589 332.032 197.989 330.991 196.998 330.207C196.016 329.424 194.772 329.033 193.265 329.033C191.669 329.033 190.405 329.355 189.473 329.999C188.541 330.634 188.075 331.521 188.075 332.661C188.075 333.196 188.189 333.677 188.417 334.104C188.655 334.52 188.913 334.857 189.191 335.115C189.478 335.363 189.934 335.605 190.559 335.843C191.193 336.081 191.699 336.25 192.075 336.349C192.452 336.438 193.067 336.582 193.919 336.78C194.028 336.81 194.113 336.83 194.172 336.84C194.797 336.978 195.342 337.107 195.808 337.226C196.274 337.345 196.784 337.504 197.34 337.702C197.905 337.9 198.385 338.109 198.782 338.327C199.179 338.545 199.575 338.822 199.972 339.159C200.368 339.497 200.685 339.863 200.923 340.26C201.171 340.656 201.369 341.127 201.518 341.673C201.677 342.208 201.756 342.798 201.756 343.442C201.756 345.484 200.998 347.095 199.481 348.275C197.974 349.455 195.981 350.045 193.503 350.045C192.403 350.045 191.391 349.931 190.469 349.703C189.547 349.475 188.744 349.157 188.06 348.751C187.386 348.344 186.801 347.859 186.306 347.294C185.82 346.719 185.443 346.094 185.176 345.42C184.908 344.746 184.739 344.027 184.67 343.264L187.228 342.595C187.366 344.121 187.986 345.355 189.086 346.297C190.197 347.239 191.699 347.71 193.592 347.71C195.178 347.71 196.492 347.353 197.533 346.639C198.584 345.916 199.109 344.909 199.109 343.621C199.109 343.055 199.005 342.555 198.797 342.119C198.599 341.673 198.346 341.306 198.038 341.018C197.731 340.731 197.305 340.473 196.76 340.245C196.224 340.007 195.714 339.824 195.228 339.695C194.742 339.566 194.128 339.422 193.384 339.264C192.67 339.105 192.12 338.981 191.733 338.892C191.357 338.803 190.841 338.659 190.187 338.461C189.542 338.252 189.037 338.054 188.67 337.866C188.303 337.667 187.887 337.405 187.421 337.078C186.955 336.741 186.598 336.384 186.35 336.007C186.112 335.62 185.904 335.154 185.726 334.609C185.547 334.064 185.458 333.464 185.458 332.81C185.458 331.561 185.805 330.47 186.499 329.538C187.203 328.606 188.145 327.908 189.324 327.442C190.504 326.966 191.837 326.728 193.325 326.728C195.476 326.728 197.265 327.263 198.693 328.334C200.12 329.395 200.978 330.837 201.265 332.661ZM209.489 349.807H206.99V326.966H209.771L217.876 337.286L225.846 326.966H228.627V349.807H226.129V330.505L218.084 340.795H217.504L209.489 330.564V349.807ZM250.04 332.661L247.572 333.33C247.363 332.032 246.764 330.991 245.772 330.207C244.791 329.424 243.547 329.033 242.04 329.033C240.444 329.033 239.18 329.355 238.248 329.999C237.316 330.634 236.85 331.521 236.85 332.661C236.85 333.196 236.964 333.677 237.192 334.104C237.43 334.52 237.688 334.857 237.965 335.115C238.253 335.363 238.709 335.605 239.333 335.843C239.968 336.081 240.474 336.25 240.85 336.349C241.227 336.438 241.842 336.582 242.694 336.78C242.803 336.81 242.888 336.83 242.947 336.84C243.572 336.978 244.117 337.107 244.583 337.226C245.049 337.345 245.559 337.504 246.114 337.702C246.679 337.9 247.16 338.109 247.557 338.327C247.953 338.545 248.35 338.822 248.746 339.159C249.143 339.497 249.46 339.863 249.698 340.26C249.946 340.656 250.144 341.127 250.293 341.673C250.452 342.208 250.531 342.798 250.531 343.442C250.531 345.484 249.772 347.095 248.256 348.275C246.749 349.455 244.756 350.045 242.278 350.045C241.177 350.045 240.166 349.931 239.244 349.703C238.322 349.475 237.519 349.157 236.835 348.751C236.161 348.344 235.576 347.859 235.081 347.294C234.595 346.719 234.218 346.094 233.95 345.42C233.683 344.746 233.514 344.027 233.445 343.264L236.003 342.595C236.141 344.121 236.761 345.355 237.861 346.297C238.972 347.239 240.474 347.71 242.367 347.71C243.953 347.71 245.267 347.353 246.308 346.639C247.359 345.916 247.884 344.909 247.884 343.621C247.884 343.055 247.78 342.555 247.572 342.119C247.373 341.673 247.121 341.306 246.813 341.018C246.506 340.731 246.08 340.473 245.534 340.245C244.999 340.007 244.489 339.824 244.003 339.695C243.517 339.566 242.902 339.422 242.159 339.264C241.445 339.105 240.895 338.981 240.508 338.892C240.132 338.803 239.616 338.659 238.962 338.461C238.317 338.252 237.812 338.054 237.445 337.866C237.078 337.667 236.662 337.405 236.196 337.078C235.73 336.741 235.373 336.384 235.125 336.007C234.887 335.62 234.679 335.154 234.501 334.609C234.322 334.064 234.233 333.464 234.233 332.81C234.233 331.561 234.58 330.47 235.274 329.538C235.978 328.606 236.92 327.908 238.099 327.442C239.279 326.966 240.612 326.728 242.099 326.728C244.251 326.728 246.04 327.263 247.468 328.334C248.895 329.395 249.753 330.837 250.04 332.661ZM262.487 336.765C263.944 335.308 265.793 334.579 268.033 334.579C270.274 334.579 272.123 335.308 273.58 336.765C275.037 338.223 275.766 340.062 275.766 342.282C275.766 344.533 275.037 346.391 273.58 347.859C272.123 349.316 270.274 350.045 268.033 350.045C265.793 350.045 263.944 349.316 262.487 347.859C261.029 346.391 260.301 344.533 260.301 342.282C260.301 340.062 261.029 338.223 262.487 336.765ZM268.033 336.765C266.526 336.765 265.277 337.276 264.286 338.297C263.295 339.318 262.799 340.646 262.799 342.282C262.799 343.938 263.295 345.276 264.286 346.297C265.267 347.338 266.517 347.859 268.033 347.859C269.54 347.859 270.799 347.338 271.81 346.297C272.792 345.256 273.283 343.918 273.283 342.282C273.283 340.666 272.792 339.338 271.81 338.297C270.789 337.276 269.53 336.765 268.033 336.765ZM281.952 349.807H279.573V334.817H281.922L281.982 337.197C282.418 336.394 283.028 335.759 283.811 335.293C284.604 334.817 285.506 334.579 286.517 334.579C287.023 334.579 287.518 334.649 288.004 334.788L287.647 337.137C287.162 336.998 286.651 336.929 286.116 336.929C284.936 336.929 283.945 337.38 283.142 338.282C282.349 339.184 281.952 340.428 281.952 342.015V349.807ZM298.413 336.765C299.871 335.308 301.72 334.579 303.96 334.579C306.201 334.579 308.05 335.308 309.507 336.765C310.964 338.223 311.693 340.062 311.693 342.282C311.693 344.533 310.964 346.391 309.507 347.859C308.05 349.316 306.201 350.045 303.96 350.045C301.72 350.045 299.871 349.316 298.413 347.859C296.956 346.391 296.228 344.533 296.228 342.282C296.228 340.062 296.956 338.223 298.413 336.765ZM303.96 336.765C302.453 336.765 301.204 337.276 300.213 338.297C299.221 339.318 298.726 340.646 298.726 342.282C298.726 343.938 299.221 345.276 300.213 346.297C301.194 347.338 302.443 347.859 303.96 347.859C305.467 347.859 306.726 347.338 307.737 346.297C308.719 345.256 309.209 343.918 309.209 342.282C309.209 340.666 308.719 339.338 307.737 338.297C306.716 337.276 305.457 336.765 303.96 336.765ZM317.879 349.807H315.5V334.817H317.79L317.849 337.078C318.375 336.304 319.049 335.695 319.871 335.249C320.704 334.802 321.651 334.579 322.712 334.579C323.832 334.579 324.828 334.807 325.701 335.263C326.573 335.719 327.272 336.428 327.797 337.39C328.333 338.342 328.6 339.487 328.6 340.825V349.807H326.221V341.033C326.221 339.675 325.859 338.634 325.136 337.91C324.412 337.177 323.455 336.81 322.266 336.81C321.106 336.81 320.09 337.202 319.217 337.985C318.325 338.788 317.879 339.977 317.879 341.554V349.807ZM335.634 349.807H333.255V326.966H335.634V349.807ZM343.486 329.672C343.486 330.138 343.322 330.53 342.995 330.847C342.678 331.164 342.286 331.323 341.82 331.323C341.354 331.323 340.963 331.164 340.645 330.847C340.328 330.53 340.17 330.138 340.17 329.672C340.17 329.186 340.323 328.795 340.631 328.497C340.948 328.19 341.344 328.036 341.82 328.036C342.296 328.036 342.693 328.19 343.01 328.497C343.327 328.795 343.486 329.186 343.486 329.672ZM343.01 349.807H340.631V334.817H343.01V349.807ZM350.385 349.807H348.006V334.817H350.296L350.356 337.078C350.881 336.304 351.555 335.695 352.378 335.249C353.211 334.802 354.158 334.579 355.218 334.579C356.339 334.579 357.335 334.807 358.207 335.263C359.08 335.719 359.779 336.428 360.304 337.39C360.839 338.342 361.107 339.487 361.107 340.825V349.807H358.728V341.033C358.728 339.675 358.366 338.634 357.642 337.91C356.919 337.177 355.962 336.81 354.772 336.81C353.612 336.81 352.596 337.202 351.724 337.985C350.832 338.788 350.385 339.977 350.385 341.554V349.807ZM364.572 342.223C364.572 340.012 365.281 338.188 366.698 336.75C368.116 335.303 369.905 334.579 372.066 334.579C374.208 334.579 375.943 335.229 377.271 336.527C378.609 337.836 379.279 339.521 379.279 341.583C379.279 341.593 379.249 342 379.189 342.803H367.011C367.139 344.478 367.65 345.752 368.542 346.624C369.444 347.487 370.639 347.918 372.126 347.918C373.444 347.918 374.52 347.641 375.353 347.085C376.186 346.52 376.736 345.742 377.003 344.751L379.189 345.182C378.872 346.649 378.069 347.829 376.78 348.721C375.492 349.603 373.94 350.045 372.126 350.045C369.846 350.045 368.017 349.316 366.639 347.859C365.261 346.391 364.572 344.513 364.572 342.223ZM375.442 337.791C374.54 337.008 373.415 336.617 372.066 336.617C370.718 336.617 369.578 337.013 368.646 337.806C367.714 338.589 367.189 339.596 367.07 340.825H376.914C376.835 339.586 376.344 338.575 375.442 337.791ZM392.112 349.807H389.822V326.966H392.201V337.316C392.835 336.443 393.619 335.769 394.551 335.293C395.482 334.817 396.513 334.579 397.644 334.579C399.725 334.579 401.46 335.308 402.848 336.765C404.236 338.223 404.93 340.062 404.93 342.282C404.93 344.523 404.236 346.377 402.848 347.844C401.46 349.311 399.725 350.045 397.644 350.045C396.513 350.045 395.477 349.802 394.536 349.316C393.594 348.82 392.806 348.131 392.171 347.249L392.112 349.807ZM397.316 336.765C395.8 336.765 394.57 337.276 393.629 338.297C392.677 339.358 392.201 340.686 392.201 342.282C392.201 343.898 392.677 345.236 393.629 346.297C394.56 347.338 395.79 347.859 397.316 347.859C398.794 347.859 400.023 347.338 401.004 346.297C401.956 345.236 402.432 343.898 402.432 342.282C402.432 340.686 401.956 339.358 401.004 338.297C400.013 337.276 398.784 336.765 397.316 336.765ZM420.217 349.807H418.031L417.956 346.907C417.332 347.888 416.519 348.657 415.518 349.212C414.526 349.767 413.456 350.045 412.306 350.045C410.888 350.045 409.743 349.673 408.871 348.929C408.008 348.186 407.577 347.18 407.577 345.911C407.577 344.473 408.127 343.388 409.228 342.654C410.288 341.96 411.731 341.38 413.555 340.914L417.897 339.903C417.798 338.832 417.401 338.019 416.707 337.464C416.023 336.899 415.131 336.617 414.031 336.617C412.91 336.617 411.984 336.874 411.25 337.39C410.526 337.905 410.036 338.654 409.778 339.635L407.577 339.204C407.864 337.786 408.598 336.661 409.778 335.828C410.957 334.996 412.405 334.579 414.12 334.579C415.994 334.579 417.476 335.095 418.566 336.126C419.667 337.147 420.217 338.54 420.217 340.304V349.807ZM410.045 345.702C410.045 346.396 410.273 346.956 410.729 347.383C411.195 347.799 411.83 348.007 412.633 348.007C414.06 348.007 415.3 347.482 416.35 346.431C417.401 345.38 417.927 343.958 417.927 342.163V341.821L413.555 342.892C412.365 343.199 411.483 343.566 410.908 343.992C410.333 344.419 410.045 344.989 410.045 345.702ZM427.295 349.807H424.916V334.817H427.206L427.265 337.078C427.791 336.304 428.465 335.695 429.288 335.249C430.12 334.802 431.067 334.579 432.128 334.579C433.248 334.579 434.245 334.807 435.117 335.263C435.989 335.719 436.688 336.428 437.214 337.39C437.749 338.342 438.017 339.487 438.017 340.825V349.807H435.637V341.033C435.637 339.675 435.276 338.634 434.552 337.91C433.828 337.177 432.871 336.81 431.682 336.81C430.522 336.81 429.506 337.202 428.633 337.985C427.741 338.788 427.295 339.977 427.295 341.554V349.807ZM447.117 340.423L452.292 334.817H455.222L449.095 341.494L455.608 349.807H452.723L447.058 342.743H445.05V349.807H442.671V326.966H445.05V340.423H447.117ZM461.14 329.672C461.14 330.138 460.977 330.53 460.649 330.847C460.332 331.164 459.941 331.323 459.475 331.323C459.009 331.323 458.617 331.164 458.3 330.847C457.983 330.53 457.824 330.138 457.824 329.672C457.824 329.186 457.978 328.795 458.285 328.497C458.602 328.19 458.999 328.036 459.475 328.036C459.95 328.036 460.347 328.19 460.664 328.497C460.981 328.795 461.14 329.186 461.14 329.672ZM460.664 349.807H458.285V334.817H460.664V349.807ZM468.04 349.807H465.661V334.817H467.951L468.01 337.078C468.536 336.304 469.21 335.695 470.033 335.249C470.865 334.802 471.812 334.579 472.873 334.579C473.993 334.579 474.989 334.807 475.862 335.263C476.734 335.719 477.433 336.428 477.958 337.39C478.494 338.342 478.761 339.487 478.761 340.825V349.807H476.382V341.033C476.382 339.675 476.02 338.634 475.297 337.91C474.573 337.177 473.616 336.81 472.427 336.81C471.267 336.81 470.251 337.202 469.378 337.985C468.486 338.788 468.04 339.977 468.04 341.554V349.807ZM482.226 342.252C482.226 340.042 482.92 338.213 484.308 336.765C485.696 335.308 487.461 334.579 489.602 334.579C490.702 334.579 491.714 334.812 492.636 335.278C493.567 335.744 494.351 336.403 494.985 337.256L495.045 334.817H497.364V349.658C497.364 351.789 496.685 353.504 495.327 354.803C493.969 356.102 492.16 356.751 489.899 356.751C487.927 356.751 486.306 356.28 485.037 355.338C483.778 354.397 483.044 353.182 482.836 351.695L485.275 351.234C485.453 352.245 485.939 353.048 486.732 353.643C487.535 354.248 488.591 354.55 489.899 354.55C491.416 354.55 492.636 354.134 493.558 353.301C494.489 352.478 494.955 351.314 494.955 349.807V347.249C494.321 348.072 493.538 348.721 492.606 349.197C491.674 349.663 490.673 349.896 489.602 349.896C487.461 349.896 485.696 349.172 484.308 347.725C482.92 346.277 482.226 344.453 482.226 342.252ZM484.725 342.252C484.725 343.858 485.2 345.172 486.152 346.193C487.104 347.204 488.343 347.71 489.87 347.71C491.386 347.71 492.616 347.199 493.558 346.178C494.489 345.177 494.955 343.868 494.955 342.252C494.955 340.646 494.489 339.328 493.558 338.297C492.616 337.276 491.386 336.765 489.87 336.765C488.333 336.765 487.094 337.276 486.152 338.297C485.2 339.358 484.725 340.676 484.725 342.252Z" fill="#0A2540" fill-opacity="0.7"/>
<circle cx="118.362" cy="314.715" r="40.6061" fill="#21A038"/>
<path d="M128.923 299.248L133.66 295.757C129.33 292.25 123.926 290.342 118.355 290.352V290.355C115.157 290.352 111.991 290.98 109.037 292.203C106.368 293.309 103.919 294.88 101.805 296.842C99.3765 299.087 97.4305 301.804 96.0878 304.829C94.7073 307.939 93.9954 311.304 93.998 314.707C93.998 314.711 93.998 314.716 93.998 314.721C93.9956 317.919 94.6247 321.087 95.8493 324.042C96.9396 326.673 98.4828 329.089 100.406 331.181C102.667 333.653 105.415 335.63 108.477 336.99C111.496 338.329 114.755 339.039 118.056 339.077C118.158 339.078 118.26 339.079 118.363 339.079C121.562 339.082 124.729 338.454 127.684 337.229C130.266 336.159 132.641 334.652 134.706 332.778L134.709 332.782C137.237 330.5 139.257 327.713 140.637 324.6C142.019 321.488 142.73 318.12 142.726 314.715C142.729 313.251 142.601 311.79 142.343 310.349L137.099 314.214V314.715C137.1 317.333 136.552 319.922 135.488 322.314C134.552 324.421 133.234 326.335 131.604 327.959L131.602 327.957C131.411 328.149 131.217 328.336 131.018 328.518L130.927 328.601C129.34 330.043 127.515 331.202 125.531 332.025C123.259 332.968 120.823 333.453 118.363 333.452C118.069 333.452 117.774 333.445 117.481 333.431L117.425 333.427C115.128 333.313 112.869 332.777 110.763 331.841C108.656 330.904 106.742 329.587 105.118 327.958L105.121 327.955C103.378 326.219 101.996 324.155 101.053 321.883C100.11 319.611 99.625 317.175 99.6265 314.715C99.6265 314.7 99.6266 314.685 99.6266 314.67C99.6271 314.465 99.6308 314.26 99.6379 314.056C99.7213 311.664 100.264 309.307 101.237 307.116C102.174 305.01 103.49 303.097 105.119 301.473L105.122 301.476C106.858 299.733 108.921 298.349 111.194 297.406C113.466 296.463 115.902 295.978 118.363 295.98C118.677 295.98 118.988 295.991 119.298 296.006L119.299 296.001C122.739 296.171 126.072 297.292 128.923 299.248Z" fill="white"/>
<path d="M140.56 304.663C139.778 302.941 138.798 301.315 137.641 299.819L118.367 314.028L109.092 308.214V315.209L118.367 321.023L140.56 304.663Z" fill="white"/>
<circle cx="118.361" cy="315.089" r="41.6212" stroke="white" stroke-opacity="0.3" stroke-width="2.0303"/>
<g filter="url(#filter2_ddd_2160_942)">
<rect x="27" y="426.455" width="974.545" height="182.727" rx="16.2515" fill="white"/>
<rect x="28.0157" y="427.471" width="972.514" height="180.696" rx="15.2358" stroke="#F3F4F5" stroke-width="2.03144"/>
</g>
<path fill-rule="evenodd" clip-rule="evenodd" d="M942.108 517.093L924.497 534.514L927.39 537.381L947.846 517.057L927.388 496.775L924.499 499.646L942.108 517.093Z" fill="#0A2540" fill-opacity="0.5"/>
<path d="M197.286 503.717H187.489V476.308H196.679C199.023 476.308 200.891 476.932 202.282 478.181C203.686 479.419 204.388 481.096 204.388 483.214C204.388 484.665 204.037 485.908 203.335 486.943C202.645 487.978 201.676 488.757 200.427 489.281C202.092 489.733 203.377 490.554 204.281 491.743C205.197 492.933 205.655 494.378 205.655 496.079C205.655 498.411 204.894 500.267 203.371 501.647C201.86 503.027 199.832 503.717 197.286 503.717ZM196.447 479.02H190.612V488.192H196.554C197.994 488.192 199.142 487.764 199.998 486.907C200.855 486.039 201.283 484.903 201.283 483.499C201.283 482.131 200.843 481.042 199.963 480.233C199.082 479.425 197.911 479.02 196.447 479.02ZM197.108 490.922H190.612V501.004H197.143C198.773 501.004 200.07 500.564 201.033 499.684C201.997 498.804 202.479 497.602 202.479 496.079C202.479 494.521 201.985 493.272 200.998 492.332C200.022 491.392 198.725 490.922 197.108 490.922ZM224.588 503.717H221.965L221.876 500.237C221.126 501.415 220.151 502.337 218.949 503.003C217.76 503.669 216.475 504.002 215.095 504.002C213.394 504.002 212.02 503.556 210.973 502.664C209.938 501.772 209.42 500.564 209.42 499.042C209.42 497.317 210.08 496.014 211.401 495.134C212.674 494.301 214.405 493.605 216.594 493.046L221.804 491.832C221.685 490.548 221.209 489.572 220.377 488.906C219.556 488.228 218.485 487.889 217.165 487.889C215.82 487.889 214.708 488.198 213.828 488.817C212.959 489.435 212.371 490.333 212.061 491.511L209.42 490.994C209.765 489.293 210.646 487.942 212.061 486.943C213.477 485.944 215.214 485.444 217.272 485.444C219.52 485.444 221.299 486.063 222.607 487.3C223.928 488.525 224.588 490.197 224.588 492.314V503.717ZM212.382 498.792C212.382 499.624 212.656 500.297 213.203 500.808C213.762 501.308 214.524 501.558 215.487 501.558C217.2 501.558 218.687 500.927 219.948 499.666C221.209 498.405 221.84 496.698 221.84 494.545V494.134L216.594 495.419C215.166 495.788 214.107 496.228 213.417 496.74C212.727 497.251 212.382 497.935 212.382 498.792ZM233.082 503.717H230.227V485.73H232.975L233.046 488.442C233.677 487.514 234.486 486.782 235.473 486.247C236.472 485.712 237.609 485.444 238.881 485.444C240.226 485.444 241.421 485.718 242.468 486.265C243.515 486.812 244.354 487.663 244.984 488.817C245.627 489.959 245.948 491.333 245.948 492.939V503.717H243.093V493.189C243.093 491.559 242.659 490.31 241.79 489.441C240.922 488.561 239.774 488.121 238.346 488.121C236.954 488.121 235.735 488.591 234.688 489.53C233.617 490.494 233.082 491.922 233.082 493.813V503.717ZM256.869 492.457L263.079 485.73H266.594L259.242 493.742L267.058 503.717H263.596L256.797 495.241H254.388V503.717H251.533V476.308H254.388V492.457H256.869ZM280.673 490.012C280.673 491.559 280.899 493.01 281.351 494.366C281.815 495.711 282.469 496.888 283.314 497.9C284.159 498.911 285.212 499.708 286.473 500.291C287.746 500.874 289.149 501.165 290.684 501.165C293.135 501.165 295.181 500.481 296.822 499.113C298.476 497.733 299.511 495.978 299.927 493.849L302.925 494.652C302.33 497.459 300.927 499.726 298.714 501.451C296.513 503.176 293.825 504.038 290.648 504.038C288.65 504.038 286.818 503.681 285.152 502.967C283.487 502.242 282.095 501.248 280.977 499.987C279.87 498.726 279.008 497.239 278.389 495.526C277.77 493.813 277.461 491.975 277.461 490.012C277.461 487.383 277.985 485.016 279.031 482.91C280.09 480.805 281.631 479.133 283.653 477.896C285.687 476.647 288.043 476.022 290.72 476.022C293.848 476.022 296.465 476.861 298.571 478.538C300.677 480.216 302.033 482.446 302.64 485.23L299.677 486.069C299.225 483.987 298.226 482.28 296.68 480.947C295.097 479.579 293.099 478.895 290.684 478.895C288.685 478.895 286.913 479.401 285.366 480.412C283.832 481.411 282.666 482.75 281.869 484.427C281.072 486.092 280.673 487.954 280.673 490.012ZM321.091 503.717H318.468L318.378 500.237C317.629 501.415 316.654 502.337 315.452 503.003C314.262 503.669 312.978 504.002 311.598 504.002C309.896 504.002 308.522 503.556 307.476 502.664C306.441 501.772 305.923 500.564 305.923 499.042C305.923 497.317 306.583 496.014 307.904 495.134C309.177 494.301 310.908 493.605 313.097 493.046L318.307 491.832C318.188 490.548 317.712 489.572 316.88 488.906C316.059 488.228 314.988 487.889 313.668 487.889C312.323 487.889 311.211 488.198 310.331 488.817C309.462 489.435 308.873 490.333 308.564 491.511L305.923 490.994C306.268 489.293 307.148 487.942 308.564 486.943C309.98 485.944 311.717 485.444 313.775 485.444C316.023 485.444 317.802 486.063 319.11 487.3C320.431 488.525 321.091 490.197 321.091 492.314V503.717ZM308.885 498.792C308.885 499.624 309.159 500.297 309.706 500.808C310.265 501.308 311.027 501.558 311.99 501.558C313.703 501.558 315.19 500.927 316.451 499.666C317.712 498.405 318.343 496.698 318.343 494.545V494.134L313.097 495.419C311.669 495.788 310.61 496.228 309.92 496.74C309.23 497.251 308.885 497.935 308.885 498.792ZM329.585 503.717H326.73V485.73H329.549L329.62 488.585C330.144 487.621 330.876 486.86 331.815 486.301C332.767 485.73 333.85 485.444 335.063 485.444C335.67 485.444 336.265 485.527 336.848 485.694L336.419 488.513C335.836 488.347 335.224 488.263 334.581 488.263C333.166 488.263 331.976 488.805 331.012 489.887C330.061 490.97 329.585 492.463 329.585 494.366V503.717ZM356.815 476.308V503.717H354.067L353.996 500.79C353.235 501.813 352.295 502.604 351.177 503.164C350.07 503.723 348.857 504.002 347.536 504.002C344.991 504.002 342.879 503.128 341.202 501.379C339.524 499.619 338.685 497.388 338.685 494.688C338.685 492.023 339.524 489.816 341.202 488.067C342.879 486.318 344.991 485.444 347.536 485.444C348.833 485.444 350.035 485.724 351.141 486.283C352.259 486.83 353.199 487.597 353.96 488.585V476.308H356.815ZM347.822 488.067C346.026 488.067 344.562 488.68 343.432 489.905C342.266 491.142 341.683 492.737 341.683 494.688C341.683 496.662 342.266 498.268 343.432 499.506C344.55 500.755 346.014 501.379 347.822 501.379C349.642 501.379 351.117 500.761 352.247 499.523C353.389 498.274 353.96 496.662 353.96 494.688C353.96 492.725 353.389 491.131 352.247 489.905C351.117 488.68 349.642 488.067 347.822 488.067Z" fill="#0A2540"/>
<path d="M189.295 552.535H186.796V529.694H189.577L197.682 540.014L205.652 529.694H208.433V552.535H205.935V533.233L197.89 543.524H197.31L189.295 533.293V552.535ZM225.891 552.535H223.705L223.63 549.635C223.006 550.617 222.193 551.385 221.192 551.94C220.2 552.496 219.13 552.773 217.98 552.773C216.562 552.773 215.417 552.401 214.545 551.658C213.682 550.914 213.251 549.908 213.251 548.639C213.251 547.202 213.801 546.116 214.901 545.383C215.962 544.689 217.405 544.109 219.229 543.643L223.571 542.631C223.472 541.561 223.075 540.748 222.381 540.193C221.697 539.628 220.805 539.345 219.705 539.345C218.584 539.345 217.657 539.603 216.924 540.118C216.2 540.634 215.709 541.382 215.452 542.364L213.251 541.933C213.538 540.515 214.272 539.39 215.452 538.557C216.631 537.724 218.079 537.308 219.794 537.308C221.667 537.308 223.15 537.823 224.24 538.854C225.34 539.876 225.891 541.268 225.891 543.033V552.535ZM215.719 548.431C215.719 549.125 215.947 549.685 216.403 550.111C216.869 550.528 217.504 550.736 218.307 550.736C219.734 550.736 220.974 550.21 222.024 549.16C223.075 548.109 223.601 546.686 223.601 544.892V544.55L219.229 545.62C218.039 545.928 217.157 546.295 216.582 546.721C216.007 547.147 215.719 547.717 215.719 548.431ZM235.437 552.773C233.633 552.773 232.196 552.372 231.125 551.569C230.064 550.756 229.4 549.626 229.132 548.178L231.527 547.687C231.665 548.639 232.077 549.393 232.761 549.948C233.445 550.493 234.377 550.766 235.556 550.766C236.607 550.766 237.445 550.557 238.07 550.141C238.704 549.725 239.021 549.12 239.021 548.327C239.021 548.129 239.001 547.945 238.962 547.777C238.922 547.598 238.848 547.445 238.739 547.316C238.63 547.177 238.526 547.058 238.426 546.959C238.337 546.86 238.188 546.765 237.98 546.676C237.782 546.587 237.618 546.518 237.49 546.468C237.371 546.418 237.172 546.364 236.895 546.304C236.627 546.235 236.424 546.186 236.285 546.156C236.156 546.126 235.928 546.081 235.601 546.022C235.274 545.962 235.046 545.923 234.917 545.903C234.53 545.824 234.243 545.769 234.054 545.739C233.876 545.7 233.603 545.635 233.237 545.546C232.88 545.457 232.607 545.378 232.419 545.308C232.23 545.229 231.988 545.125 231.69 544.996C231.393 544.857 231.16 544.718 230.991 544.58C230.833 544.441 230.654 544.272 230.456 544.074C230.258 543.866 230.104 543.643 229.995 543.405C229.896 543.167 229.811 542.894 229.742 542.587C229.673 542.27 229.638 541.933 229.638 541.576C229.638 540.336 230.154 539.315 231.185 538.512C232.216 537.709 233.569 537.308 235.244 537.308C236.88 537.308 238.203 537.66 239.215 538.364C240.226 539.058 240.85 540.024 241.088 541.263L238.783 541.724C238.407 540.079 237.217 539.256 235.214 539.256C234.203 539.256 233.425 539.459 232.88 539.866C232.344 540.272 232.077 540.812 232.077 541.486C232.077 542.289 232.453 542.825 233.207 543.092C233.99 543.37 234.862 543.593 235.824 543.762C236.25 543.841 236.548 543.9 236.716 543.94C236.895 543.97 237.182 544.034 237.579 544.133C237.985 544.223 238.283 544.302 238.471 544.371C238.659 544.441 238.917 544.545 239.244 544.684C239.581 544.822 239.834 544.961 240.003 545.1C240.171 545.239 240.364 545.417 240.583 545.635C240.811 545.853 240.979 546.081 241.088 546.319C241.197 546.557 241.291 546.84 241.371 547.167C241.45 547.484 241.49 547.831 241.49 548.208C241.49 549.556 240.959 550.657 239.899 551.509C238.848 552.352 237.361 552.773 235.437 552.773ZM242.902 539.628V539.048L247.349 534.899H247.899V537.546H253.505V539.628H247.899V547.91C247.899 548.832 248.112 549.512 248.538 549.948C248.974 550.374 249.634 550.587 250.516 550.587C251.141 550.587 251.904 550.414 252.806 550.067L253.356 552.044C252.226 552.53 251.16 552.773 250.159 552.773C248.682 552.773 247.537 552.381 246.724 551.598C245.911 550.815 245.505 549.715 245.505 548.297V539.628H242.902ZM255.275 544.951C255.275 542.741 255.983 540.916 257.401 539.479C258.819 538.032 260.608 537.308 262.769 537.308C264.911 537.308 266.645 537.957 267.974 539.256C269.312 540.565 269.981 542.25 269.981 544.312C269.981 544.322 269.952 544.728 269.892 545.531H257.713C257.842 547.207 258.353 548.48 259.245 549.353C260.147 550.215 261.342 550.647 262.829 550.647C264.147 550.647 265.223 550.369 266.056 549.814C266.888 549.249 267.439 548.471 267.706 547.479L269.892 547.91C269.575 549.378 268.772 550.557 267.483 551.45C266.194 552.332 264.643 552.773 262.829 552.773C260.549 552.773 258.72 552.044 257.342 550.587C255.964 549.12 255.275 547.241 255.275 544.951ZM266.145 540.52C265.243 539.737 264.117 539.345 262.769 539.345C261.421 539.345 260.281 539.742 259.349 540.535C258.417 541.318 257.892 542.324 257.773 543.553H267.617C267.538 542.314 267.047 541.303 266.145 540.52ZM276.212 552.535H273.833V537.546H276.182L276.242 539.925C276.678 539.122 277.288 538.488 278.071 538.022C278.864 537.546 279.766 537.308 280.777 537.308C281.283 537.308 281.779 537.377 282.264 537.516L281.907 539.866C281.422 539.727 280.911 539.657 280.376 539.657C279.196 539.657 278.205 540.108 277.402 541.011C276.609 541.913 276.212 543.157 276.212 544.743V552.535ZM287.751 540.996C286.78 541.997 286.294 543.316 286.294 544.951C286.294 546.587 286.77 547.935 287.722 548.996C288.654 550.057 289.863 550.587 291.35 550.587C292.609 550.587 293.65 550.255 294.473 549.591C295.296 548.917 295.826 548.02 296.064 546.899L298.354 547.301C298.086 548.857 297.313 550.156 296.034 551.197C294.775 552.248 293.214 552.773 291.35 552.773C289.169 552.773 287.365 552.035 285.937 550.557C284.51 549.07 283.796 547.202 283.796 544.951C283.796 542.75 284.515 540.926 285.952 539.479C287.39 538.032 289.189 537.308 291.35 537.308C293.154 537.308 294.666 537.784 295.886 538.735C297.115 539.687 297.908 540.966 298.265 542.572L295.945 543.003C295.677 541.933 295.142 541.08 294.339 540.446C293.546 539.811 292.56 539.494 291.38 539.494C289.893 539.494 288.683 539.994 287.751 540.996ZM313.239 552.535H311.053L310.979 549.635C310.354 550.617 309.542 551.385 308.54 551.94C307.549 552.496 306.478 552.773 305.328 552.773C303.911 552.773 302.766 552.401 301.893 551.658C301.031 550.914 300.599 549.908 300.599 548.639C300.599 547.202 301.15 546.116 302.25 545.383C303.311 544.689 304.753 544.109 306.577 543.643L310.919 542.631C310.82 541.561 310.424 540.748 309.73 540.193C309.046 539.628 308.154 539.345 307.053 539.345C305.933 539.345 305.006 539.603 304.272 540.118C303.549 540.634 303.058 541.382 302.8 542.364L300.599 541.933C300.887 540.515 301.621 539.39 302.8 538.557C303.98 537.724 305.427 537.308 307.142 537.308C309.016 537.308 310.498 537.823 311.589 538.854C312.689 539.876 313.239 541.268 313.239 543.033V552.535ZM303.068 548.431C303.068 549.125 303.296 549.685 303.752 550.111C304.218 550.528 304.852 550.736 305.655 550.736C307.083 550.736 308.322 550.21 309.373 549.16C310.424 548.109 310.949 546.686 310.949 544.892V544.55L306.577 545.62C305.388 545.928 304.505 546.295 303.93 546.721C303.355 547.147 303.068 547.717 303.068 548.431ZM320.318 552.535H317.938V537.546H320.288L320.347 539.925C320.784 539.122 321.393 538.488 322.176 538.022C322.969 537.546 323.872 537.308 324.883 537.308C325.388 537.308 325.884 537.377 326.37 537.516L326.013 539.866C325.527 539.727 325.017 539.657 324.481 539.657C323.302 539.657 322.31 540.108 321.507 541.011C320.714 541.913 320.318 543.157 320.318 544.743V552.535ZM343.01 529.694V552.535H340.72L340.66 550.096C340.026 550.949 339.243 551.608 338.311 552.074C337.389 552.54 336.378 552.773 335.277 552.773C333.156 552.773 331.396 552.044 329.998 550.587C328.6 549.12 327.901 547.261 327.901 545.011C327.901 542.79 328.6 540.951 329.998 539.494C331.396 538.037 333.156 537.308 335.277 537.308C336.358 537.308 337.359 537.541 338.281 538.007C339.213 538.463 339.996 539.102 340.631 539.925V529.694H343.01ZM335.515 539.494C334.018 539.494 332.799 540.004 331.857 541.025C330.885 542.056 330.4 543.385 330.4 545.011C330.4 546.656 330.885 547.995 331.857 549.026C332.789 550.067 334.008 550.587 335.515 550.587C337.032 550.587 338.261 550.072 339.203 549.041C340.155 548 340.631 546.656 340.631 545.011C340.631 543.375 340.155 542.047 339.203 541.025C338.261 540.004 337.032 539.494 335.515 539.494ZM350.772 549.487L348.408 557.1H346.445L347.887 549.487H350.772ZM364.825 552.535H362.326V529.694H365.107L373.212 540.014L381.182 529.694H383.963V552.535H381.465V533.233L373.42 543.524H372.84L364.825 533.293V552.535ZM401.421 552.535H399.235L399.16 549.635C398.536 550.617 397.723 551.385 396.722 551.94C395.73 552.496 394.66 552.773 393.51 552.773C392.092 552.773 390.947 552.401 390.075 551.658C389.212 550.914 388.781 549.908 388.781 548.639C388.781 547.202 389.331 546.116 390.431 545.383C391.492 544.689 392.935 544.109 394.759 543.643L399.101 542.631C399.002 541.561 398.605 540.748 397.911 540.193C397.227 539.628 396.335 539.345 395.235 539.345C394.114 539.345 393.187 539.603 392.454 540.118C391.73 540.634 391.239 541.382 390.982 542.364L388.781 541.933C389.068 540.515 389.802 539.39 390.982 538.557C392.161 537.724 393.609 537.308 395.324 537.308C397.197 537.308 398.68 537.823 399.77 538.854C400.87 539.876 401.421 541.268 401.421 543.033V552.535ZM391.249 548.431C391.249 549.125 391.477 549.685 391.933 550.111C392.399 550.528 393.034 550.736 393.837 550.736C395.264 550.736 396.503 550.21 397.554 549.16C398.605 548.109 399.131 546.686 399.131 544.892V544.55L394.759 545.62C393.569 545.928 392.687 546.295 392.112 546.721C391.537 547.147 391.249 547.717 391.249 548.431ZM404.93 544.951C404.93 542.741 405.639 540.916 407.057 539.479C408.474 538.032 410.264 537.308 412.425 537.308C414.566 537.308 416.301 537.957 417.629 539.256C418.968 540.565 419.637 542.25 419.637 544.312C419.637 544.322 419.607 544.728 419.548 545.531H407.369C407.498 547.207 408.008 548.48 408.9 549.353C409.803 550.215 410.997 550.647 412.484 550.647C413.803 550.647 414.878 550.369 415.711 549.814C416.544 549.249 417.094 548.471 417.362 547.479L419.548 547.91C419.23 549.378 418.427 550.557 417.139 551.45C415.85 552.332 414.298 552.773 412.484 552.773C410.204 552.773 408.375 552.044 406.997 550.587C405.619 549.12 404.93 547.241 404.93 544.951ZM415.8 540.52C414.898 539.737 413.773 539.345 412.425 539.345C411.076 539.345 409.936 539.742 409.005 540.535C408.073 541.318 407.547 542.324 407.428 543.553H417.272C417.193 542.314 416.702 541.303 415.8 540.52ZM428.336 552.773C426.532 552.773 425.094 552.372 424.024 551.569C422.963 550.756 422.299 549.626 422.031 548.178L424.425 547.687C424.564 548.639 424.975 549.393 425.659 549.948C426.343 550.493 427.275 550.766 428.455 550.766C429.506 550.766 430.344 550.557 430.968 550.141C431.603 549.725 431.92 549.12 431.92 548.327C431.92 548.129 431.9 547.945 431.86 547.777C431.821 547.598 431.746 547.445 431.637 547.316C431.528 547.177 431.424 547.058 431.325 546.959C431.236 546.86 431.087 546.765 430.879 546.676C430.681 546.587 430.517 546.518 430.388 546.468C430.269 546.418 430.071 546.364 429.793 546.304C429.526 546.235 429.322 546.186 429.184 546.156C429.055 546.126 428.827 546.081 428.5 546.022C428.172 545.962 427.944 545.923 427.816 545.903C427.429 545.824 427.141 545.769 426.953 545.739C426.775 545.7 426.502 545.635 426.135 545.546C425.778 545.457 425.506 545.378 425.317 545.308C425.129 545.229 424.886 545.125 424.589 544.996C424.291 544.857 424.058 544.718 423.89 544.58C423.731 544.441 423.553 544.272 423.354 544.074C423.156 543.866 423.003 543.643 422.893 543.405C422.794 543.167 422.71 542.894 422.641 542.587C422.571 542.27 422.537 541.933 422.537 541.576C422.537 540.336 423.052 539.315 424.083 538.512C425.114 537.709 426.467 537.308 428.143 537.308C429.778 537.308 431.102 537.66 432.113 538.364C433.124 539.058 433.749 540.024 433.987 541.263L431.682 541.724C431.305 540.079 430.116 539.256 428.113 539.256C427.102 539.256 426.324 539.459 425.778 539.866C425.243 540.272 424.975 540.812 424.975 541.486C424.975 542.289 425.352 542.825 426.105 543.092C426.889 543.37 427.761 543.593 428.723 543.762C429.149 543.841 429.446 543.9 429.615 543.94C429.793 543.97 430.081 544.034 430.477 544.133C430.884 544.223 431.181 544.302 431.37 544.371C431.558 544.441 431.816 544.545 432.143 544.684C432.48 544.822 432.733 544.961 432.901 545.1C433.07 545.239 433.263 545.417 433.481 545.635C433.709 545.853 433.878 546.081 433.987 546.319C434.096 546.557 434.19 546.84 434.269 547.167C434.349 547.484 434.388 547.831 434.388 548.208C434.388 549.556 433.858 550.657 432.797 551.509C431.746 552.352 430.259 552.773 428.336 552.773ZM435.801 539.628V539.048L440.247 534.899H440.797V537.546H446.404V539.628H440.797V547.91C440.797 548.832 441.011 549.512 441.437 549.948C441.873 550.374 442.532 550.587 443.415 550.587C444.039 550.587 444.802 550.414 445.705 550.067L446.255 552.044C445.125 552.53 444.059 552.773 443.058 552.773C441.581 552.773 440.436 552.381 439.623 551.598C438.81 550.815 438.403 549.715 438.403 548.297V539.628H435.801ZM451.742 552.535H449.363V537.546H451.712L451.772 539.925C452.208 539.122 452.818 538.488 453.601 538.022C454.394 537.546 455.296 537.308 456.307 537.308C456.813 537.308 457.308 537.377 457.794 537.516L457.437 539.866C456.952 539.727 456.441 539.657 455.906 539.657C454.726 539.657 453.735 540.108 452.932 541.011C452.139 541.913 451.742 543.157 451.742 544.743V552.535ZM461.512 539.494C462.969 538.037 464.818 537.308 467.058 537.308C469.299 537.308 471.148 538.037 472.605 539.494C474.062 540.951 474.791 542.79 474.791 545.011C474.791 547.261 474.062 549.12 472.605 550.587C471.148 552.044 469.299 552.773 467.058 552.773C464.818 552.773 462.969 552.044 461.512 550.587C460.055 549.12 459.326 547.261 459.326 545.011C459.326 542.79 460.055 540.951 461.512 539.494ZM467.058 539.494C465.552 539.494 464.303 540.004 463.311 541.025C462.32 542.047 461.824 543.375 461.824 545.011C461.824 546.666 462.32 548.005 463.311 549.026C464.293 550.067 465.542 550.587 467.058 550.587C468.565 550.587 469.824 550.067 470.836 549.026C471.817 547.985 472.308 546.646 472.308 545.011C472.308 543.395 471.817 542.066 470.836 541.025C469.814 540.004 468.555 539.494 467.058 539.494ZM481.364 549.487L478.999 557.1H477.037L478.479 549.487H481.364ZM498.138 552.535L489.974 529.694H492.71L499.803 549.606L506.866 529.694H509.558L501.335 552.535H498.138ZM515.417 532.401C515.417 532.867 515.253 533.258 514.926 533.575C514.609 533.893 514.217 534.051 513.751 534.051C513.286 534.051 512.894 533.893 512.577 533.575C512.259 533.258 512.101 532.867 512.101 532.401C512.101 531.915 512.255 531.523 512.562 531.226C512.879 530.919 513.276 530.765 513.751 530.765C514.227 530.765 514.624 530.919 514.941 531.226C515.258 531.523 515.417 531.915 515.417 532.401ZM514.941 552.535H512.562V537.546H514.941V552.535ZM524.785 552.773C522.981 552.773 521.544 552.372 520.473 551.569C519.412 550.756 518.748 549.626 518.48 548.178L520.874 547.687C521.013 548.639 521.425 549.393 522.109 549.948C522.793 550.493 523.725 550.766 524.904 550.766C525.955 550.766 526.793 550.557 527.417 550.141C528.052 549.725 528.369 549.12 528.369 548.327C528.369 548.129 528.349 547.945 528.31 547.777C528.27 547.598 528.196 547.445 528.087 547.316C527.977 547.177 527.873 547.058 527.774 546.959C527.685 546.86 527.536 546.765 527.328 546.676C527.13 546.587 526.966 546.518 526.837 546.468C526.718 546.418 526.52 546.364 526.243 546.304C525.975 546.235 525.772 546.186 525.633 546.156C525.504 546.126 525.276 546.081 524.949 546.022C524.622 545.962 524.394 545.923 524.265 545.903C523.878 545.824 523.591 545.769 523.402 545.739C523.224 545.7 522.951 545.635 522.584 545.546C522.228 545.457 521.955 545.378 521.767 545.308C521.578 545.229 521.335 545.125 521.038 544.996C520.741 544.857 520.508 544.718 520.339 544.58C520.18 544.441 520.002 544.272 519.804 544.074C519.605 543.866 519.452 543.643 519.343 543.405C519.244 543.167 519.159 542.894 519.09 542.587C519.021 542.27 518.986 541.933 518.986 541.576C518.986 540.336 519.501 539.315 520.532 538.512C521.563 537.709 522.917 537.308 524.592 537.308C526.228 537.308 527.551 537.66 528.562 538.364C529.574 539.058 530.198 540.024 530.436 541.263L528.131 541.724C527.754 540.079 526.565 539.256 524.562 539.256C523.551 539.256 522.773 539.459 522.228 539.866C521.692 540.272 521.425 540.812 521.425 541.486C521.425 542.289 521.801 542.825 522.555 543.092C523.338 543.37 524.21 543.593 525.172 543.762C525.598 543.841 525.896 543.9 526.064 543.94C526.243 543.97 526.53 544.034 526.927 544.133C527.333 544.223 527.63 544.302 527.819 544.371C528.007 544.441 528.265 544.545 528.592 544.684C528.929 544.822 529.182 544.961 529.351 545.1C529.519 545.239 529.712 545.417 529.93 545.635C530.158 545.853 530.327 546.081 530.436 546.319C530.545 546.557 530.639 546.84 530.719 547.167C530.798 547.484 530.838 547.831 530.838 548.208C530.838 549.556 530.307 550.657 529.246 551.509C528.196 552.352 526.709 552.773 524.785 552.773ZM545.961 552.535H543.775L543.7 549.635C543.076 550.617 542.263 551.385 541.262 551.94C540.27 552.496 539.2 552.773 538.05 552.773C536.632 552.773 535.487 552.401 534.615 551.658C533.752 550.914 533.321 549.908 533.321 548.639C533.321 547.202 533.871 546.116 534.972 545.383C536.032 544.689 537.475 544.109 539.299 543.643L543.641 542.631C543.542 541.561 543.145 540.748 542.451 540.193C541.767 539.628 540.875 539.345 539.775 539.345C538.654 539.345 537.727 539.603 536.994 540.118C536.27 540.634 535.779 541.382 535.522 542.364L533.321 541.933C533.608 540.515 534.342 539.39 535.522 538.557C536.701 537.724 538.149 537.308 539.864 537.308C541.738 537.308 543.22 537.823 544.31 538.854C545.411 539.876 545.961 541.268 545.961 543.033V552.535ZM535.789 548.431C535.789 549.125 536.017 549.685 536.473 550.111C536.939 550.528 537.574 550.736 538.377 550.736C539.804 550.736 541.044 550.21 542.094 549.16C543.145 548.109 543.671 546.686 543.671 544.892V544.55L539.299 545.62C538.109 545.928 537.227 546.295 536.652 546.721C536.077 547.147 535.789 547.717 535.789 548.431Z" fill="#0A2540" fill-opacity="0.7"/>
<circle cx="118.361" cy="517.818" r="41.6212" stroke="white" stroke-opacity="0.3" stroke-width="2.0303"/>
<g clip-path="url(#clip1_2160_942)">
<circle cx="118.36" cy="517.444" r="40.606" fill="#262626"/>
<path d="M138.667 528.611C138.666 531.414 136.393 533.686 133.59 533.687H103.136C100.333 533.687 98.0603 531.414 98.0602 528.611V515.414H138.667V528.611ZM102.119 527.596H112.27V523.535H102.119V527.596ZM133.589 503.232C136.393 503.232 138.666 505.505 138.666 508.309V511.354H98.0592V508.309C98.0592 505.505 100.332 503.232 103.135 503.232H133.589Z" fill="white"/>
</g>
<g filter="url(#filter3_ddd_2160_942)">
<rect x="26.9995" y="629.182" width="974.545" height="182.727" rx="16.2515" fill="white"/>
<rect x="28.0152" y="630.197" width="972.514" height="180.696" rx="15.2358" stroke="#F3F4F5" stroke-width="2.03144"/>
</g>
<path fill-rule="evenodd" clip-rule="evenodd" d="M942.108 719.819L924.497 737.24L927.39 740.108L947.846 719.784L927.388 699.502L924.499 702.373L942.108 719.819Z" fill="#0A2540" fill-opacity="0.5"/>
<path d="M186.953 706.443H183.849L194.323 679.034H197.767L208.295 706.443H204.994L201.425 696.986H190.522L186.953 706.443ZM195.983 682.585L191.593 694.166H200.355L195.983 682.585ZM214.666 706.443H211.811V679.034H214.666V706.443ZM231.85 688.456V690.954H225.087V706.443H222.196V690.954H217.842V690.258L219.377 688.456H222.196V684.887C222.196 683.031 222.779 681.544 223.945 680.426C225.063 679.308 226.503 678.749 228.263 678.749C229.334 678.749 230.31 678.927 231.19 679.284L230.565 681.782C229.733 681.485 229.025 681.336 228.442 681.336C227.371 681.336 226.544 681.634 225.961 682.228C225.379 682.811 225.087 683.686 225.087 684.852V688.456H231.85ZM248.963 706.443H246.34L246.251 702.964C245.501 704.141 244.526 705.063 243.324 705.73C242.134 706.396 240.85 706.729 239.47 706.729C237.769 706.729 236.395 706.283 235.348 705.391C234.313 704.498 233.795 703.291 233.795 701.768C233.795 700.043 234.455 698.741 235.776 697.86C237.049 697.027 238.78 696.332 240.969 695.772L246.179 694.559C246.06 693.274 245.584 692.299 244.752 691.632C243.931 690.954 242.86 690.615 241.54 690.615C240.195 690.615 239.083 690.925 238.203 691.543C237.334 692.162 236.745 693.06 236.436 694.238L233.795 693.72C234.14 692.019 235.021 690.669 236.436 689.67C237.852 688.67 239.589 688.171 241.647 688.171C243.895 688.171 245.674 688.789 246.982 690.026C248.303 691.252 248.963 692.923 248.963 695.041V706.443ZM236.757 701.518C236.757 702.351 237.031 703.023 237.578 703.535C238.137 704.034 238.899 704.284 239.862 704.284C241.575 704.284 243.062 703.654 244.323 702.393C245.584 701.132 246.215 699.425 246.215 697.271V696.861L240.969 698.146C239.541 698.514 238.482 698.955 237.792 699.466C237.102 699.978 236.757 700.662 236.757 701.518ZM265.005 692.739C265.005 694.285 265.231 695.737 265.683 697.093C266.147 698.437 266.801 699.615 267.646 700.626C268.491 701.637 269.544 702.434 270.805 703.017C272.077 703.6 273.481 703.892 275.016 703.892C277.467 703.892 279.513 703.208 281.154 701.839C282.808 700.46 283.843 698.705 284.259 696.575L287.257 697.378C286.662 700.186 285.259 702.452 283.046 704.177C280.845 705.902 278.157 706.765 274.98 706.765C272.982 706.765 271.15 706.408 269.484 705.694C267.819 704.968 266.427 703.975 265.309 702.714C264.202 701.453 263.34 699.966 262.721 698.253C262.102 696.54 261.793 694.702 261.793 692.739C261.793 690.11 262.317 687.742 263.363 685.637C264.422 683.531 265.963 681.86 267.985 680.622C270.019 679.373 272.375 678.749 275.052 678.749C278.18 678.749 280.797 679.587 282.903 681.265C285.009 682.942 286.365 685.173 286.972 687.957L284.009 688.795C283.557 686.713 282.558 685.006 281.012 683.674C279.429 682.306 277.431 681.622 275.016 681.622C273.017 681.622 271.245 682.127 269.698 683.138C268.164 684.138 266.998 685.476 266.201 687.154C265.404 688.819 265.005 690.681 265.005 692.739ZM294.502 706.443H291.647V679.034H294.502V706.443ZM303.924 682.282C303.924 682.841 303.728 683.311 303.335 683.692C302.954 684.072 302.484 684.263 301.925 684.263C301.366 684.263 300.896 684.072 300.516 683.692C300.135 683.311 299.945 682.841 299.945 682.282C299.945 681.699 300.129 681.229 300.498 680.872C300.878 680.503 301.354 680.319 301.925 680.319C302.496 680.319 302.972 680.503 303.353 680.872C303.734 681.229 303.924 681.699 303.924 682.282ZM303.353 706.443H300.498V688.456H303.353V706.443ZM312.668 692.596C311.502 693.798 310.919 695.38 310.919 697.343C310.919 699.306 311.49 700.923 312.632 702.196C313.75 703.469 315.202 704.106 316.986 704.106C318.497 704.106 319.746 703.707 320.733 702.91C321.721 702.101 322.357 701.025 322.643 699.68L325.391 700.162C325.07 702.03 324.142 703.588 322.607 704.837C321.096 706.098 319.223 706.729 316.986 706.729C314.369 706.729 312.204 705.843 310.491 704.07C308.778 702.286 307.921 700.043 307.921 697.343C307.921 694.702 308.784 692.513 310.509 690.776C312.233 689.039 314.393 688.171 316.986 688.171C319.151 688.171 320.965 688.742 322.429 689.884C323.904 691.026 324.855 692.56 325.284 694.488L322.5 695.005C322.179 693.72 321.536 692.697 320.573 691.936C319.621 691.174 318.437 690.794 317.022 690.794C315.237 690.794 313.786 691.395 312.668 692.596ZM334.813 695.184L341.023 688.456H344.538L337.186 696.468L345.002 706.443H341.54L334.741 697.967H332.332V706.443H329.477V679.034H332.332V695.184H334.813Z" fill="#0A2540"/>
<path d="M189.294 755.262H186.796V732.421H189.577L197.681 742.741L205.652 732.421H208.432V755.262H205.934V735.96L197.889 746.25H197.309L189.294 736.019V755.262ZM215.406 742.22C216.864 740.763 218.713 740.034 220.953 740.034C223.194 740.034 225.042 740.763 226.5 742.22C227.957 743.678 228.686 745.517 228.686 747.737C228.686 749.988 227.957 751.846 226.5 753.314C225.042 754.771 223.194 755.5 220.953 755.5C218.713 755.5 216.864 754.771 215.406 753.314C213.949 751.846 213.221 749.988 213.221 747.737C213.221 745.517 213.949 743.678 215.406 742.22ZM220.953 742.22C219.446 742.22 218.197 742.731 217.206 743.752C216.214 744.773 215.719 746.102 215.719 747.737C215.719 749.393 216.214 750.731 217.206 751.752C218.187 752.793 219.436 753.314 220.953 753.314C222.46 753.314 223.719 752.793 224.73 751.752C225.712 750.711 226.202 749.373 226.202 747.737C226.202 746.121 225.712 744.793 224.73 743.752C223.709 742.731 222.45 742.22 220.953 742.22ZM234.783 755.262H232.493V732.421H234.872V742.771C235.506 741.898 236.289 741.224 237.221 740.748C238.153 740.272 239.184 740.034 240.314 740.034C242.396 740.034 244.131 740.763 245.519 742.22C246.907 743.678 247.601 745.517 247.601 747.737C247.601 749.978 246.907 751.832 245.519 753.299C244.131 754.766 242.396 755.5 240.314 755.5C239.184 755.5 238.148 755.257 237.206 754.771C236.265 754.275 235.477 753.586 234.842 752.704L234.783 755.262ZM239.987 742.22C238.47 742.22 237.241 742.731 236.299 743.752C235.348 744.813 234.872 746.141 234.872 747.737C234.872 749.353 235.348 750.692 236.299 751.752C237.231 752.793 238.461 753.314 239.987 753.314C241.464 753.314 242.694 752.793 243.675 751.752C244.627 750.692 245.103 749.353 245.103 747.737C245.103 746.141 244.627 744.813 243.675 743.752C242.684 742.731 241.454 742.22 239.987 742.22ZM254.263 735.127C254.263 735.593 254.099 735.985 253.772 736.302C253.455 736.619 253.063 736.778 252.597 736.778C252.131 736.778 251.74 736.619 251.423 736.302C251.105 735.985 250.947 735.593 250.947 735.127C250.947 734.641 251.1 734.25 251.408 733.952C251.725 733.645 252.121 733.491 252.597 733.491C253.073 733.491 253.47 733.645 253.787 733.952C254.104 734.25 254.263 734.641 254.263 735.127ZM253.787 755.262H251.408V740.272H253.787V755.262ZM261.163 755.262H258.783V732.421H261.163V755.262ZM264.969 747.678C264.969 745.467 265.678 743.643 267.096 742.206C268.514 740.758 270.303 740.034 272.464 740.034C274.605 740.034 276.34 740.684 277.669 741.982C279.007 743.291 279.676 744.976 279.676 747.038C279.676 747.048 279.647 747.455 279.587 748.258H267.408C267.537 749.933 268.048 751.207 268.94 752.079C269.842 752.942 271.037 753.373 272.524 753.373C273.842 753.373 274.918 753.096 275.75 752.54C276.583 751.975 277.133 751.197 277.401 750.206L279.587 750.637C279.27 752.104 278.467 753.284 277.178 754.176C275.889 755.058 274.338 755.5 272.524 755.5C270.243 755.5 268.414 754.771 267.036 753.314C265.658 751.846 264.969 749.968 264.969 747.678ZM275.84 743.246C274.938 742.463 273.812 742.072 272.464 742.072C271.116 742.072 269.976 742.468 269.044 743.261C268.112 744.044 267.587 745.051 267.468 746.28H277.312C277.233 745.041 276.742 744.03 275.84 743.246ZM301.699 755.262H299.513L299.439 752.362C298.814 753.343 298.002 754.112 297 754.667C296.009 755.222 294.938 755.5 293.788 755.5C292.371 755.5 291.226 755.128 290.353 754.384C289.491 753.641 289.059 752.635 289.059 751.366C289.059 749.928 289.61 748.843 290.71 748.109C291.771 747.415 293.213 746.835 295.037 746.369L299.38 745.358C299.28 744.287 298.884 743.474 298.19 742.919C297.506 742.354 296.614 742.072 295.513 742.072C294.393 742.072 293.466 742.329 292.732 742.845C292.009 743.36 291.518 744.109 291.26 745.09L289.059 744.659C289.347 743.241 290.081 742.116 291.26 741.284C292.44 740.451 293.887 740.034 295.602 740.034C297.476 740.034 298.958 740.55 300.049 741.581C301.149 742.602 301.699 743.995 301.699 745.76V755.262ZM291.528 751.157C291.528 751.851 291.756 752.412 292.212 752.838C292.678 753.254 293.312 753.462 294.115 753.462C295.543 753.462 296.782 752.937 297.833 751.886C298.884 750.835 299.409 749.413 299.409 747.618V747.276L295.037 748.347C293.848 748.654 292.965 749.021 292.39 749.447C291.815 749.874 291.528 750.444 291.528 751.157ZM306.398 761.968V740.272H308.688L308.748 742.86C309.382 741.968 310.165 741.274 311.097 740.778C312.039 740.282 313.08 740.034 314.22 740.034C316.302 740.034 318.037 740.763 319.425 742.22C320.813 743.678 321.507 745.517 321.507 747.737C321.507 749.978 320.813 751.832 319.425 753.299C318.037 754.766 316.302 755.5 314.22 755.5C313.09 755.5 312.059 755.262 311.127 754.786C310.195 754.3 309.412 753.616 308.778 752.734V761.968H306.398ZM313.893 742.22C312.376 742.22 311.147 742.731 310.205 743.752C309.253 744.813 308.778 746.141 308.778 747.737C308.778 749.353 309.253 750.692 310.205 751.752C311.137 752.793 312.366 753.314 313.893 753.314C315.37 753.314 316.599 752.793 317.581 751.752C318.533 750.692 319.008 749.353 319.008 747.737C319.008 746.141 318.533 744.813 317.581 743.752C316.589 742.731 315.36 742.22 313.893 742.22ZM325.313 761.968V740.272H327.603L327.663 742.86C328.297 741.968 329.081 741.274 330.012 740.778C330.954 740.282 331.995 740.034 333.135 740.034C335.217 740.034 336.952 740.763 338.34 742.22C339.728 743.678 340.422 745.517 340.422 747.737C340.422 749.978 339.728 751.832 338.34 753.299C336.952 754.766 335.217 755.5 333.135 755.5C332.005 755.5 330.974 755.262 330.042 754.786C329.11 754.3 328.327 753.616 327.693 752.734V761.968H325.313ZM332.808 742.22C331.291 742.22 330.062 742.731 329.12 743.752C328.169 744.813 327.693 746.141 327.693 747.737C327.693 749.353 328.169 750.692 329.12 751.752C330.052 752.793 331.281 753.314 332.808 753.314C334.285 753.314 335.515 752.793 336.496 751.752C337.448 750.692 337.924 749.353 337.924 747.737C337.924 746.141 337.448 744.813 336.496 743.752C335.505 742.731 334.275 742.22 332.808 742.22Z" fill="#0A2540" fill-opacity="0.7"/>
<g clip-path="url(#clip2_2160_942)">
<path d="M118.256 678.811C141.099 678.811 159.615 697.328 159.615 720.162V720.176C159.615 743.015 141.103 761.528 118.256 761.528C95.4136 761.528 76.8973 743.016 76.8973 720.169C76.8973 697.327 95.4095 678.811 118.256 678.811Z" fill="#DB352A"/>
<path d="M108.454 730.041L101.584 727.534L112.502 697.469C112.502 697.469 113.671 692.596 118.256 692.596C122.841 692.596 124.034 697.622 124.034 697.622L134.896 727.534L128.025 730.041L125.343 722.655H111.135L108.454 730.041ZM118.239 703.093L113.556 715.991H122.924L118.239 703.093V703.093ZM100.334 740.22H136.178V747.741H100.334V740.22Z" fill="white"/>
</g>
<circle cx="118.362" cy="720.545" r="41.6212" stroke="white" stroke-opacity="0.3" stroke-width="2.0303"/>
<g opacity="0.7">
<path d="M407.204 868.049C394.498 868.049 384.391 878.3 384.391 890.862C384.391 903.568 394.643 913.674 407.204 913.674C419.766 913.674 430.017 903.423 430.017 890.862C430.017 878.3 419.766 868.049 407.204 868.049ZM407.204 899.236C402.584 899.236 398.685 895.338 398.685 890.717C398.685 886.097 402.584 882.199 407.204 882.199C411.824 882.199 415.723 886.097 415.723 890.717C415.578 895.482 411.824 899.236 407.204 899.236Z" fill="#0A2540" fill-opacity="0.6"/>
<path d="M384.255 874.549V907.757H376.169L365.774 874.549H384.255Z" fill="#0A2540" fill-opacity="0.6"/>
<path d="M464.322 880.596L459.258 893.145C459.168 893.324 459.123 893.548 459.034 893.728L458.944 894.086L458.855 893.728C458.81 893.504 458.72 893.324 458.63 893.1L453.611 880.596H447.067L455.717 902.019L452.132 910.176H458.63L470.821 880.596H464.322Z" fill="#0A2540" fill-opacity="0.7"/>
<path d="M487.888 880.788C485.02 879.802 481.793 879.936 478.835 881.281C476.908 882.132 475.249 883.611 474.129 885.494C473.143 887.152 472.65 889.124 472.65 891.32C472.65 893.561 473.143 895.533 474.129 897.192C475.115 898.85 476.504 900.194 478.207 901.091C479.955 902.032 481.972 902.48 483.944 902.48C485.02 902.48 486.051 902.346 487.082 902.077C487.978 901.853 488.83 901.494 489.681 901.046C491.429 900.105 492.863 898.76 493.804 897.147C494.79 895.488 495.283 893.472 495.283 891.275C495.283 886.435 492.46 882.401 487.888 880.788ZM489.591 891.544C489.502 893.472 488.874 894.995 487.709 896.026C486.813 896.833 485.558 897.236 483.989 897.281C482.376 897.236 481.165 896.788 480.269 896.026C479.104 894.995 478.476 893.472 478.387 891.544C478.297 889.438 479.149 887.556 480.717 886.435C481.614 885.808 482.689 885.449 483.989 885.404C485.289 885.449 486.364 885.763 487.261 886.435C488.83 887.556 489.681 889.393 489.591 891.544Z" fill="#0A2540" fill-opacity="0.7"/>
<path d="M514.39 880.788C511.521 879.802 508.294 879.936 505.336 881.281C503.409 882.132 501.751 883.611 500.63 885.494C499.644 887.152 499.151 889.124 499.151 891.32C499.151 893.561 499.644 895.533 500.63 897.192C501.616 898.85 503.006 900.194 504.709 901.091C506.457 902.032 508.474 902.48 510.446 902.48C511.521 902.48 512.552 902.346 513.583 902.077C514.479 901.853 515.331 901.494 516.183 901.046C517.931 900.105 519.365 898.76 520.306 897.147C521.292 895.488 521.785 893.472 521.785 891.275C521.785 886.435 518.961 882.401 514.39 880.788ZM516.093 891.544C516.003 893.472 515.376 894.995 514.211 896.026C513.314 896.833 512.059 897.236 510.491 897.281C508.877 897.236 507.667 896.788 506.771 896.026C505.605 894.995 504.978 893.472 504.888 891.544C504.799 889.438 505.65 887.556 507.219 886.435C508.115 885.808 509.191 885.449 510.491 885.404C511.79 885.449 512.866 885.763 513.762 886.435C515.331 887.556 516.183 889.393 516.093 891.544Z" fill="#0A2540" fill-opacity="0.7"/>
<path d="M656.772 880.787L651.797 893.202C651.708 893.381 651.663 893.605 651.618 893.785L651.528 894.143L651.439 893.785C651.394 893.561 651.304 893.381 651.215 893.202L646.195 880.787H639.741L648.302 901.986L644.761 910.054H651.17L663.226 880.787H656.772V880.787Z" fill="#0A2540" fill-opacity="0.7"/>
<path d="M608.837 881.939C607.717 881.087 606.238 880.549 604.579 880.37C601.711 880.056 599.022 881.042 597.139 883.014V880.773H591.223V901.973H597.095V890.902C597.139 888.392 597.543 887.765 597.991 887.093C598.708 885.972 600.053 885.3 601.621 885.3C603.19 885.3 604.624 886.062 605.296 887.227C605.789 888.079 605.879 889.199 605.879 889.782C605.879 891.709 605.879 901.973 605.879 901.973H611.75V889.065C611.75 885.748 610.809 883.418 608.837 881.939Z" fill="#0A2540" fill-opacity="0.7"/>
<path d="M579.912 880.957C577.089 879.971 573.906 880.151 570.948 881.45C569.066 882.302 567.408 883.781 566.332 885.618C565.346 887.277 564.853 889.204 564.853 891.355C564.853 893.551 565.346 895.523 566.332 897.182C567.318 898.84 568.663 900.14 570.366 901.036C572.069 901.933 574.086 902.426 576.058 902.426C577.089 902.426 578.164 902.291 579.15 902.022C580.047 901.798 580.898 901.44 581.705 900.991C583.453 900.05 584.842 898.706 585.783 897.137C586.769 895.479 587.262 893.507 587.262 891.31C587.218 886.515 584.439 882.526 579.912 880.957ZM581.57 891.579C581.481 893.462 580.853 894.986 579.688 895.972C578.792 896.778 577.582 897.182 576.013 897.227C574.444 897.182 573.234 896.734 572.338 895.972C571.172 894.986 570.545 893.462 570.455 891.579C570.366 889.473 571.217 887.635 572.741 886.515C573.637 885.887 574.713 885.529 575.968 885.529C577.268 885.574 578.343 885.887 579.24 886.515C580.853 887.635 581.66 889.473 581.57 891.579Z" fill="#0A2540" fill-opacity="0.7"/>
<path d="M558.093 881.904C556.972 881.052 555.493 880.515 553.835 880.335C553.476 880.29 553.118 880.29 552.759 880.29C550.429 880.335 548.412 881.321 546.709 883.293L546.395 883.652H545.767C545.319 882.98 544.781 882.352 544.154 881.859C543.033 881.008 541.554 880.47 539.896 880.29C537.162 880.022 534.966 880.873 533.039 882.935V880.694H527.168V901.893H533.039V890.913V890.688C533.128 888.358 533.353 887.82 533.801 887.148C534.518 886.027 535.818 885.355 537.207 885.355C538.641 885.355 539.941 886.072 540.613 887.237C541.151 888.134 541.151 889.165 541.106 890.195V902.028H547.067V890.644C547.112 888.537 547.381 887.775 547.829 887.058C548.546 885.938 549.846 885.265 551.28 885.31C552.67 885.355 553.88 886.072 554.552 887.237C554.955 887.91 555.09 888.806 555.09 889.434C555.09 889.702 555.09 889.971 555.09 890.195V901.983H560.961V889.075C560.961 887.865 560.827 886.789 560.558 885.803C560.199 884.145 559.348 882.845 558.093 881.904Z" fill="#0A2540" fill-opacity="0.7"/>
<path d="M633.966 895.43C633.025 896.326 631.098 897.895 628.319 897.984C625.988 898.074 624.24 897.447 623.03 896.147C622.447 895.519 622.044 894.757 621.775 893.861L638.044 893.906L638.089 893.771C638.269 892.965 638.313 892.158 638.313 891.306C638.313 890.634 638.179 889.558 637.82 888.304C637.103 885.928 635.669 883.956 633.831 882.522C631.725 880.953 629.663 880.55 629.125 880.46C624.912 879.743 620.117 881.67 617.697 885.525C615.994 888.214 616.038 890.948 616.083 891.844C616.128 892.785 616.262 896.102 618.772 898.836C621.775 902.153 625.988 902.332 627.333 902.377C633.114 902.601 637.058 898.97 637.91 898.119L633.966 895.43ZM623.792 886.556C624.688 885.928 625.719 885.57 627.019 885.57C628.319 885.614 629.394 885.928 630.246 886.556C631.142 887.228 631.859 888.124 632.218 889.245H621.82C622.179 888.124 622.851 887.183 623.792 886.556Z" fill="#0A2540" fill-opacity="0.7"/>
</g>
<defs>
<filter id="filter0_ddd_2160_942" x="0.116771" y="0.320593" width="1028.31" height="236.493" filterUnits="userSpaceOnUse" color-interpolation-filters="sRGB">
<feFlood flood-opacity="0" result="BackgroundImageFix"/>
<feColorMatrix in="SourceAlpha" type="matrix" values="0 0 0 0 0 0 0 0 0 0 0 0 0 0 0 0 0 0 127 0" result="hardAlpha"/>
<feMorphology radius="2.06794" operator="dilate" in="SourceAlpha" result="effect1_dropShadow_2160_942"/>
<feOffset dy="6.20382"/>
<feGaussianBlur stdDeviation="12.4076"/>
<feColorMatrix type="matrix" values="0 0 0 0 0.0392157 0 0 0 0 0.145098 0 0 0 0 0.25098 0 0 0 0.08 0"/>
<feBlend mode="normal" in2="BackgroundImageFix" result="effect1_dropShadow_2160_942"/>
<feColorMatrix in="SourceAlpha" type="matrix" values="0 0 0 0 0 0 0 0 0 0 0 0 0 0 0 0 0 0 127 0" result="hardAlpha"/>
<feOffset dy="4.13588"/>
<feGaussianBlur stdDeviation="2.06794"/>
<feColorMatrix type="matrix" values="0 0 0 0 0.0392157 0 0 0 0 0.145098 0 0 0 0 0.25098 0 0 0 0.08 0"/>
<feBlend mode="normal" in2="effect1_dropShadow_2160_942" result="effect2_dropShadow_2160_942"/>
<feColorMatrix in="SourceAlpha" type="matrix" values="0 0 0 0 0 0 0 0 0 0 0 0 0 0 0 0 0 0 127 0" result="hardAlpha"/>
<feOffset/>
<feGaussianBlur stdDeviation="2.06794"/>
<feColorMatrix type="matrix" values="0 0 0 0 0.0392157 0 0 0 0 0.145098 0 0 0 0 0.25098 0 0 0 0.04 0"/>
<feBlend mode="normal" in2="effect2_dropShadow_2160_942" result="effect3_dropShadow_2160_942"/>
<feBlend mode="normal" in="SourceGraphic" in2="effect3_dropShadow_2160_942" result="shape"/>
</filter>
<filter id="filter1_ddd_2160_942" x="0.116771" y="203.047" width="1028.31" height="236.493" filterUnits="userSpaceOnUse" color-interpolation-filters="sRGB">
<feFlood flood-opacity="0" result="BackgroundImageFix"/>
<feColorMatrix in="SourceAlpha" type="matrix" values="0 0 0 0 0 0 0 0 0 0 0 0 0 0 0 0 0 0 127 0" result="hardAlpha"/>
<feMorphology radius="2.06794" operator="dilate" in="SourceAlpha" result="effect1_dropShadow_2160_942"/>
<feOffset dy="6.20382"/>
<feGaussianBlur stdDeviation="12.4076"/>
<feColorMatrix type="matrix" values="0 0 0 0 0.0392157 0 0 0 0 0.145098 0 0 0 0 0.25098 0 0 0 0.08 0"/>
<feBlend mode="normal" in2="BackgroundImageFix" result="effect1_dropShadow_2160_942"/>
<feColorMatrix in="SourceAlpha" type="matrix" values="0 0 0 0 0 0 0 0 0 0 0 0 0 0 0 0 0 0 127 0" result="hardAlpha"/>
<feOffset dy="4.13588"/>
<feGaussianBlur stdDeviation="2.06794"/>
<feColorMatrix type="matrix" values="0 0 0 0 0.0392157 0 0 0 0 0.145098 0 0 0 0 0.25098 0 0 0 0.08 0"/>
<feBlend mode="normal" in2="effect1_dropShadow_2160_942" result="effect2_dropShadow_2160_942"/>
<feColorMatrix in="SourceAlpha" type="matrix" values="0 0 0 0 0 0 0 0 0 0 0 0 0 0 0 0 0 0 127 0" result="hardAlpha"/>
<feOffset/>
<feGaussianBlur stdDeviation="2.06794"/>
<feColorMatrix type="matrix" values="0 0 0 0 0.0392157 0 0 0 0 0.145098 0 0 0 0 0.25098 0 0 0 0.04 0"/>
<feBlend mode="normal" in2="effect2_dropShadow_2160_942" result="effect3_dropShadow_2160_942"/>
<feBlend mode="normal" in="SourceGraphic" in2="effect3_dropShadow_2160_942" result="shape"/>
</filter>
<filter id="filter2_ddd_2160_942" x="0.116771" y="405.776" width="1028.31" height="236.493" filterUnits="userSpaceOnUse" color-interpolation-filters="sRGB">
<feFlood flood-opacity="0" result="BackgroundImageFix"/>
<feColorMatrix in="SourceAlpha" type="matrix" values="0 0 0 0 0 0 0 0 0 0 0 0 0 0 0 0 0 0 127 0" result="hardAlpha"/>
<feMorphology radius="2.06794" operator="dilate" in="SourceAlpha" result="effect1_dropShadow_2160_942"/>
<feOffset dy="6.20382"/>
<feGaussianBlur stdDeviation="12.4076"/>
<feColorMatrix type="matrix" values="0 0 0 0 0.0392157 0 0 0 0 0.145098 0 0 0 0 0.25098 0 0 0 0.08 0"/>
<feBlend mode="normal" in2="BackgroundImageFix" result="effect1_dropShadow_2160_942"/>
<feColorMatrix in="SourceAlpha" type="matrix" values="0 0 0 0 0 0 0 0 0 0 0 0 0 0 0 0 0 0 127 0" result="hardAlpha"/>
<feOffset dy="4.13588"/>
<feGaussianBlur stdDeviation="2.06794"/>
<feColorMatrix type="matrix" values="0 0 0 0 0.0392157 0 0 0 0 0.145098 0 0 0 0 0.25098 0 0 0 0.08 0"/>
<feBlend mode="normal" in2="effect1_dropShadow_2160_942" result="effect2_dropShadow_2160_942"/>
<feColorMatrix in="SourceAlpha" type="matrix" values="0 0 0 0 0 0 0 0 0 0 0 0 0 0 0 0 0 0 127 0" result="hardAlpha"/>
<feOffset/>
<feGaussianBlur stdDeviation="2.06794"/>
<feColorMatrix type="matrix" values="0 0 0 0 0.0392157 0 0 0 0 0.145098 0 0 0 0 0.25098 0 0 0 0.04 0"/>
<feBlend mode="normal" in2="effect2_dropShadow_2160_942" result="effect3_dropShadow_2160_942"/>
<feBlend mode="normal" in="SourceGraphic" in2="effect3_dropShadow_2160_942" result="shape"/>
</filter>
<filter id="filter3_ddd_2160_942" x="0.116221" y="608.502" width="1028.31" height="236.493" filterUnits="userSpaceOnUse" color-interpolation-filters="sRGB">
<feFlood flood-opacity="0" result="BackgroundImageFix"/>
<feColorMatrix in="SourceAlpha" type="matrix" values="0 0 0 0 0 0 0 0 0 0 0 0 0 0 0 0 0 0 127 0" result="hardAlpha"/>
<feMorphology radius="2.06794" operator="dilate" in="SourceAlpha" result="effect1_dropShadow_2160_942"/>
<feOffset dy="6.20382"/>
<feGaussianBlur stdDeviation="12.4076"/>
<feColorMatrix type="matrix" values="0 0 0 0 0.0392157 0 0 0 0 0.145098 0 0 0 0 0.25098 0 0 0 0.08 0"/>
<feBlend mode="normal" in2="BackgroundImageFix" result="effect1_dropShadow_2160_942"/>
<feColorMatrix in="SourceAlpha" type="matrix" values="0 0 0 0 0 0 0 0 0 0 0 0 0 0 0 0 0 0 127 0" result="hardAlpha"/>
<feOffset dy="4.13588"/>
<feGaussianBlur stdDeviation="2.06794"/>
<feColorMatrix type="matrix" values="0 0 0 0 0.0392157 0 0 0 0 0.145098 0 0 0 0 0.25098 0 0 0 0.08 0"/>
<feBlend mode="normal" in2="effect1_dropShadow_2160_942" result="effect2_dropShadow_2160_942"/>
<feColorMatrix in="SourceAlpha" type="matrix" values="0 0 0 0 0 0 0 0 0 0 0 0 0 0 0 0 0 0 127 0" result="hardAlpha"/>
<feOffset/>
<feGaussianBlur stdDeviation="2.06794"/>
<feColorMatrix type="matrix" values="0 0 0 0 0.0392157 0 0 0 0 0.145098 0 0 0 0 0.25098 0 0 0 0.04 0"/>
<feBlend mode="normal" in2="effect2_dropShadow_2160_942" result="effect3_dropShadow_2160_942"/>
<feBlend mode="normal" in="SourceGraphic" in2="effect3_dropShadow_2160_942" result="shape"/>
</filter>
<linearGradient id="paint0_linear_2160_942" x1="96.221" y1="92.8578" x2="138.663" y2="113.712" gradientUnits="userSpaceOnUse">
<stop stop-color="#FFF000"/>
<stop offset="0.5976" stop-color="#FFD700"/>
<stop offset="1" stop-color="#FFCC00"/>
</linearGradient>
<linearGradient id="paint1_linear_2160_942" x1="117.676" y1="115.592" x2="149.275" y2="109.695" gradientUnits="userSpaceOnUse">
<stop stop-color="#F0B200"/>
<stop offset="1" stop-color="#FFD900"/>
</linearGradient>
<clipPath id="clip0_2160_942">
<rect width="81.2121" height="81.2121" fill="white" transform="translate(77.7556 71.3828)"/>
</clipPath>
<clipPath id="clip1_2160_942">
<rect width="81.2121" height="81.2121" fill="white" transform="translate(77.7551 476.838)"/>
</clipPath>
<clipPath id="clip2_2160_942">
<rect width="82.7176" height="82.7176" fill="white" transform="translate(76.8973 678.811)"/>
</clipPath>
</defs>
</svg>
