<svg width="848" height="42" viewBox="0 0 848 42" fill="none" xmlns="http://www.w3.org/2000/svg">
<rect y="1" width="133.125" height="40.0383" rx="20.0192" fill="#DEBA3B"/>
<path d="M22.2118 28.5583C17.6598 28.5583 14.8618 25.4052 14.8618 20.412V20.3904C14.8618 15.3864 17.7028 12.2548 22.2118 12.2548C26.7316 12.2548 29.5511 15.3864 29.5511 20.3904V20.412C29.5511 23.3175 28.5933 25.6097 26.9038 27.0087L28.97 29.7851H26.2581L24.999 28.0956C24.1596 28.3969 23.2342 28.5583 22.2118 28.5583ZM22.2118 26.1585C22.6423 26.1585 23.0512 26.1047 23.4386 25.9971L21.437 23.3068H24.1489L25.2896 24.8456C26.2043 23.8341 26.7208 22.306 26.7208 20.412V20.3904C26.7208 16.8822 24.9667 14.6546 22.2118 14.6546C19.4569 14.6546 17.6921 16.8822 17.6921 20.3904V20.412C17.6921 23.8986 19.4139 26.1585 22.2118 26.1585ZM36.2166 28.4076C33.5693 28.4076 32.2134 26.815 32.2134 24.017V16.4087H34.893V23.4036C34.893 25.2223 35.571 26.1478 37.1852 26.1478C38.9177 26.1478 39.8432 25.0286 39.8432 23.2637V16.4087H42.5228V28.1709H39.8432V26.3845H39.6603C39.1114 27.6436 37.9169 28.4076 36.2166 28.4076ZM47.0361 14.4394C46.1537 14.4394 45.4326 13.7399 45.4326 12.8575C45.4326 11.9858 46.1537 11.2756 47.0361 11.2756C47.9078 11.2756 48.6288 11.9858 48.6288 12.8575C48.6288 13.7399 47.9078 14.4394 47.0361 14.4394ZM45.6909 28.1709V16.4087H48.3705V28.1709H45.6909ZM56.1552 28.2247C53.4541 28.2247 52.3457 27.3208 52.3457 25.0501V18.4857H50.5163V16.4087H52.3457V13.5247H55.0683V16.4087H57.5542V18.4857H55.0683V24.4152C55.0683 25.5882 55.5311 26.0832 56.6503 26.0832C57.0269 26.0832 57.2314 26.0724 57.5542 26.0401V28.1063C57.1668 28.1817 56.6718 28.2247 56.1552 28.2247ZM65.0161 28.4076C61.5187 28.4076 59.3987 26.0617 59.3987 22.3167V22.306C59.3987 18.604 61.5402 16.1827 64.887 16.1827C68.2338 16.1827 70.2999 18.5287 70.2999 22.08V22.9624H62.0783C62.1105 25.0716 63.2512 26.2984 65.0699 26.2984C66.5227 26.2984 67.3513 25.5666 67.6096 25.0286L67.6419 24.9533H70.1923L70.16 25.0501C69.7834 26.5675 68.2122 28.4076 65.0161 28.4076ZM64.9193 18.2812C63.4234 18.2812 62.3042 19.2928 62.0998 21.1652H67.6849C67.502 19.239 66.4151 18.2812 64.9193 18.2812ZM80.8223 28.1709L77.637 16.4087H80.3273L82.2859 25.2438H82.4688L84.7287 16.4087H87.2792L89.5606 25.2438H89.7435L91.6913 16.4087H94.3494L91.164 28.1709H88.3553L86.0631 19.6479H85.8802L83.5988 28.1709H80.8223ZM101.112 28.4076C97.6143 28.4076 95.4943 26.0617 95.4943 22.3167V22.306C95.4943 18.604 97.6359 16.1827 100.983 16.1827C104.329 16.1827 106.396 18.5287 106.396 22.08V22.9624H98.1739C98.2062 25.0716 99.3469 26.2984 101.166 26.2984C102.618 26.2984 103.447 25.5666 103.705 25.0286L103.738 24.9533H106.288L106.256 25.0501C105.879 26.5675 104.308 28.4076 101.112 28.4076ZM101.015 18.2812C99.5191 18.2812 98.3999 19.2928 98.1954 21.1652H103.781C103.598 19.239 102.511 18.2812 101.015 18.2812ZM109.047 28.1709V11.8567H111.727V28.1709H109.047ZM115.089 28.1709V11.8567H117.768V28.1709H115.089Z" fill="white"/>
<rect x="155.23" y="1" width="124.125" height="40.0383" rx="20.0192" fill="#86AF43"/>
<path d="M171.142 28.1709V12.6422H173.918V28.1709H171.142ZM181.961 28.2247C179.26 28.2247 178.152 27.3208 178.152 25.0501V18.4857H176.322V16.4087H178.152V13.5247H180.874V16.4087H183.36V18.4857H180.874V24.4152C180.874 25.5882 181.337 26.0832 182.456 26.0832C182.833 26.0832 183.037 26.0724 183.36 26.0401V28.1063C182.973 28.1817 182.478 28.2247 181.961 28.2247ZM186.335 19.1098L187.271 12.6422H190.037L188.175 19.1098H186.335ZM196.53 28.4076C193.538 28.4076 191.73 27.0302 191.504 25.0393V25.0178H194.163L194.173 25.0393C194.453 25.8572 195.239 26.4276 196.573 26.4276C197.907 26.4276 198.833 25.8249 198.833 24.9425V24.921C198.833 24.2322 198.316 23.7803 197.025 23.4897L195.12 23.0592C192.882 22.5642 191.817 21.5096 191.817 19.777V19.7663C191.817 17.6463 193.754 16.1827 196.53 16.1827C199.393 16.1827 201.104 17.6032 201.276 19.508V19.5295H198.758L198.747 19.4972C198.553 18.7547 197.778 18.1521 196.519 18.1521C195.325 18.1521 194.464 18.7332 194.464 19.6156V19.6264C194.464 20.3151 194.959 20.7348 196.229 21.0254L198.133 21.445C200.436 21.9616 201.523 22.9409 201.523 24.6519V24.6735C201.523 26.9118 199.425 28.4076 196.53 28.4076ZM216.748 28.5583C212.25 28.5583 209.452 25.4268 209.452 20.412V20.3904C209.452 15.4294 212.282 12.2548 216.705 12.2548C220.289 12.2548 222.872 14.3103 223.399 17.345L223.41 17.4526H220.655L220.622 17.345C220.117 15.6447 218.696 14.6546 216.705 14.6546C213.993 14.6546 212.282 16.8607 212.282 20.3689V20.3904C212.282 23.9524 214.026 26.1585 216.791 26.1585C219.159 26.1585 220.773 24.6842 220.805 22.4781L220.816 22.1553H217.093V20.0353H223.539V21.9724C223.539 25.9863 220.892 28.5583 216.748 28.5583ZM231.431 28.4076C227.901 28.4076 225.771 26.1047 225.771 22.2952V22.2737C225.771 18.4964 227.934 16.1827 231.431 16.1827C234.939 16.1827 237.092 18.4857 237.092 22.2737V22.2952C237.092 26.1047 234.95 28.4076 231.431 28.4076ZM231.431 26.2339C233.293 26.2339 234.348 24.7811 234.348 22.306V22.2844C234.348 19.8093 233.282 18.3458 231.431 18.3458C229.569 18.3458 228.504 19.8093 228.504 22.2844V22.306C228.504 24.7811 229.569 26.2339 231.431 26.2339ZM244.726 28.4076C241.196 28.4076 239.065 26.1047 239.065 22.2952V22.2737C239.065 18.4964 241.228 16.1827 244.726 16.1827C248.234 16.1827 250.386 18.4857 250.386 22.2737V22.2952C250.386 26.1047 248.245 28.4076 244.726 28.4076ZM244.726 26.2339C246.587 26.2339 247.642 24.7811 247.642 22.306V22.2844C247.642 19.8093 246.577 18.3458 244.726 18.3458C242.864 18.3458 241.799 19.8093 241.799 22.2844V22.306C241.799 24.7811 242.864 26.2339 244.726 26.2339ZM257.181 28.3646C254.232 28.3646 252.36 26.0294 252.36 22.306V22.2844C252.36 18.5395 254.2 16.215 257.181 16.215C258.795 16.215 260.14 17.0114 260.754 18.2812H260.937V11.8567H263.627V28.1709H260.937V26.3307H260.754C260.108 27.6113 258.838 28.3646 257.181 28.3646ZM258.02 26.1047C259.85 26.1047 260.98 24.6627 260.98 22.306V22.2844C260.98 19.9277 259.839 18.4749 258.02 18.4749C256.202 18.4749 255.082 19.9169 255.082 22.2844V22.306C255.082 24.6735 256.191 26.1047 258.02 26.1047Z" fill="white"/>
<rect x="301.465" y="1" width="126.125" height="40.0383" rx="20.0192" fill="#57B74E"/>
<path d="M317.271 28.1709V12.6422H320.048V28.1709H317.271ZM328.091 28.2247C325.389 28.2247 324.281 27.3208 324.281 25.0501V18.4857H322.452V16.4087H324.281V13.5247H327.004V16.4087H329.49V18.4857H327.004V24.4152C327.004 25.5882 327.466 26.0832 328.586 26.0832C328.962 26.0832 329.167 26.0724 329.49 26.0401V28.1063C329.102 28.1817 328.607 28.2247 328.091 28.2247ZM332.464 19.1098L333.4 12.6422H336.166L334.304 19.1098H332.464ZM342.659 28.4076C339.668 28.4076 337.86 27.0302 337.634 25.0393V25.0178H340.292L340.302 25.0393C340.582 25.8572 341.368 26.4276 342.702 26.4276C344.037 26.4276 344.962 25.8249 344.962 24.9425V24.921C344.962 24.2322 344.446 23.7803 343.154 23.4897L341.249 23.0592C339.011 22.5642 337.946 21.5096 337.946 19.777V19.7663C337.946 17.6463 339.883 16.1827 342.659 16.1827C345.522 16.1827 347.233 17.6032 347.405 19.508V19.5295H344.887L344.876 19.4972C344.682 18.7547 343.908 18.1521 342.648 18.1521C341.454 18.1521 340.593 18.7332 340.593 19.6156V19.6264C340.593 20.3151 341.088 20.7348 342.358 21.0254L344.263 21.445C346.566 21.9616 347.652 22.9409 347.652 24.6519V24.6735C347.652 26.9118 345.554 28.4076 342.659 28.4076ZM362.878 28.5583C358.379 28.5583 355.581 25.4268 355.581 20.412V20.3904C355.581 15.4294 358.412 12.2548 362.835 12.2548C366.418 12.2548 369.001 14.3103 369.528 17.345L369.539 17.4526H366.784L366.752 17.345C366.246 15.6447 364.825 14.6546 362.835 14.6546C360.123 14.6546 358.412 16.8607 358.412 20.3689V20.3904C358.412 23.9524 360.155 26.1585 362.921 26.1585C365.288 26.1585 366.902 24.6842 366.935 22.4781L366.945 22.1553H363.222V20.0353H369.668V21.9724C369.668 25.9863 367.021 28.5583 362.878 28.5583ZM372.481 28.1709V16.4087H375.161V18.2166H375.344C375.742 16.9576 376.818 16.215 378.367 16.215C378.776 16.215 379.196 16.2688 379.454 16.3442V18.7439C379.024 18.6579 378.583 18.5933 378.12 18.5933C376.334 18.5933 375.161 19.6587 375.161 21.3374V28.1709H372.481ZM386.249 28.4076C382.752 28.4076 380.632 26.0617 380.632 22.3167V22.306C380.632 18.604 382.773 16.1827 386.12 16.1827C389.467 16.1827 391.533 18.5287 391.533 22.08V22.9624H383.311C383.344 25.0716 384.484 26.2984 386.303 26.2984C387.756 26.2984 388.584 25.5666 388.843 25.0286L388.875 24.9533H391.425L391.393 25.0501C391.016 26.5675 389.445 28.4076 386.249 28.4076ZM386.152 18.2812C384.656 18.2812 383.537 19.2928 383.333 21.1652H388.918C388.735 19.239 387.648 18.2812 386.152 18.2812ZM397.284 28.3646C395.045 28.3646 393.42 26.9871 393.42 24.8456V24.8241C393.42 22.7256 395.024 21.4989 397.886 21.3267L400.91 21.1437V20.1322C400.91 18.9592 400.146 18.3135 398.704 18.3135C397.477 18.3135 396.681 18.7547 396.412 19.5295L396.401 19.5726H393.872L393.883 19.4757C394.141 17.4956 396.035 16.1827 398.833 16.1827C401.857 16.1827 403.558 17.6463 403.558 20.1322V28.1709H400.91V26.5567H400.727C400.082 27.6974 398.833 28.3646 397.284 28.3646ZM396.068 24.7165C396.068 25.7173 396.918 26.3092 398.102 26.3092C399.716 26.3092 400.91 25.2546 400.91 23.8556V22.9086L398.263 23.0808C396.767 23.1776 396.068 23.7265 396.068 24.695V24.7165ZM411.267 28.2247C408.566 28.2247 407.458 27.3208 407.458 25.0501V18.4857H405.628V16.4087H407.458V13.5247H410.18V16.4087H412.666V18.4857H410.18V24.4152C410.18 25.5882 410.643 26.0832 411.762 26.0832C412.139 26.0832 412.343 26.0724 412.666 26.0401V28.1063C412.279 28.1817 411.784 28.2247 411.267 28.2247Z" fill="white"/>
<rect x="449.695" y="1" width="172.251" height="40.0383" rx="20.0192" fill="#00C950"/>
<mask id="mask0_1785_11174" style="mask-type:alpha" maskUnits="userSpaceOnUse" x="460" y="12" width="20" height="22">
<path d="M460.43 25.5395L465.109 15.755C466.048 13.7917 468.031 12.542 470.207 12.542H476.817L472.297 19.8884H479.292C479.606 19.8884 479.751 20.2801 479.512 20.4849L465.243 32.7155C464.689 33.1902 463.984 33.451 463.255 33.451L466.081 25.5395H460.43Z" fill="url(#paint0_linear_1785_11174)"/>
</mask>
<g mask="url(#mask0_1785_11174)">
<path d="M456.477 7.45605H483.602V34.5813H456.477V7.45605Z" fill="#FCD375"/>
</g>
<path d="M492.502 28.1709V12.6422H495.278V28.1709H492.502ZM503.321 28.2247C500.62 28.2247 499.512 27.3208 499.512 25.0501V18.4857H497.682V16.4087H499.512V13.5247H502.234V16.4087H504.72V18.4857H502.234V24.4152C502.234 25.5882 502.697 26.0832 503.816 26.0832C504.193 26.0832 504.397 26.0724 504.72 26.0401V28.1063C504.333 28.1817 503.838 28.2247 503.321 28.2247ZM507.694 19.1098L508.631 12.6422H511.396L509.535 19.1098H507.694ZM517.89 28.4076C514.898 28.4076 513.09 27.0302 512.864 25.0393V25.0178H515.522L515.533 25.0393C515.813 25.8572 516.598 26.4276 517.933 26.4276C519.267 26.4276 520.193 25.8249 520.193 24.9425V24.921C520.193 24.2322 519.676 23.7803 518.385 23.4897L516.48 23.0592C514.242 22.5642 513.176 21.5096 513.176 19.777V19.7663C513.176 17.6463 515.113 16.1827 517.89 16.1827C520.752 16.1827 522.463 17.6032 522.636 19.508V19.5295H520.117L520.107 19.4972C519.913 18.7547 519.138 18.1521 517.879 18.1521C516.684 18.1521 515.824 18.7332 515.824 19.6156V19.6264C515.824 20.3151 516.319 20.7348 517.588 21.0254L519.493 21.445C521.796 21.9616 522.883 22.9409 522.883 24.6519V24.6735C522.883 26.9118 520.785 28.4076 517.89 28.4076ZM531.189 32.0773V16.4087H533.868V18.2489H534.051C534.697 16.9683 535.977 16.215 537.624 16.215C540.572 16.215 542.456 18.561 542.456 22.2844V22.306C542.456 26.0509 540.605 28.3646 537.624 28.3646C536.01 28.3646 534.665 27.5683 534.051 26.2984H533.868V32.0773H531.189ZM536.784 26.1047C538.614 26.1047 539.722 24.6627 539.722 22.306V22.2844C539.722 19.9169 538.614 18.4749 536.784 18.4749C534.966 18.4749 533.836 19.9169 533.836 22.2737V22.2952C533.836 24.6519 534.966 26.1047 536.784 26.1047ZM550.058 28.4076C546.56 28.4076 544.44 26.0617 544.44 22.3167V22.306C544.44 18.604 546.582 16.1827 549.928 16.1827C553.275 16.1827 555.341 18.5287 555.341 22.08V22.9624H547.12C547.152 25.0716 548.293 26.2984 550.111 26.2984C551.564 26.2984 552.393 25.5666 552.651 25.0286L552.683 24.9533H555.234L555.201 25.0501C554.825 26.5675 553.254 28.4076 550.058 28.4076ZM549.961 18.2812C548.465 18.2812 547.346 19.2928 547.141 21.1652H552.726C552.543 19.239 551.457 18.2812 549.961 18.2812ZM557.885 28.1709V16.4087H560.565V18.2166H560.748C561.146 16.9576 562.222 16.215 563.772 16.215C564.181 16.215 564.6 16.2688 564.859 16.3442V18.7439C564.428 18.6579 563.987 18.5933 563.524 18.5933C561.738 18.5933 560.565 19.6587 560.565 21.3374V28.1709H557.885ZM568.317 28.1709V18.4857H566.391V16.4087H568.317V15.2465C568.317 12.9005 569.501 11.7491 572.127 11.7491C572.697 11.7491 573.181 11.7813 573.612 11.8567V13.7291C573.407 13.6969 573.074 13.6753 572.697 13.6753C571.438 13.6753 570.954 14.278 570.954 15.3972V16.4087H573.504V18.4857H570.997V28.1709H568.317ZM580.557 28.4076C577.06 28.4076 574.94 26.0617 574.94 22.3167V22.306C574.94 18.604 577.081 16.1827 580.428 16.1827C583.775 16.1827 585.841 18.5287 585.841 22.08V22.9624H577.619C577.652 25.0716 578.792 26.2984 580.611 26.2984C582.064 26.2984 582.893 25.5666 583.151 25.0286L583.183 24.9533H585.734L585.701 25.0501C585.325 26.5675 583.753 28.4076 580.557 28.4076ZM580.46 18.2812C578.965 18.2812 577.845 19.2928 577.641 21.1652H583.226C583.043 19.239 581.956 18.2812 580.46 18.2812ZM593.432 28.4076C589.892 28.4076 587.804 26.1155 587.804 22.2737V22.2521C587.804 18.4534 589.881 16.1827 593.421 16.1827C596.445 16.1827 598.253 17.8615 598.555 20.2936V20.3366H596.026L596.015 20.3043C595.767 19.1636 594.896 18.3458 593.432 18.3458C591.603 18.3458 590.527 19.7878 590.527 22.2521V22.2737C590.527 24.7703 591.613 26.2339 593.432 26.2339C594.82 26.2339 595.671 25.5989 596.004 24.3614L596.026 24.3183L598.555 24.3076L598.533 24.3937C598.146 26.8042 596.413 28.4076 593.432 28.4076ZM605.747 28.2247C603.046 28.2247 601.938 27.3208 601.938 25.0501V18.4857H600.108V16.4087H601.938V13.5247H604.661V16.4087H607.146V18.4857H604.661V24.4152C604.661 25.5882 605.123 26.0832 606.242 26.0832C606.619 26.0832 606.824 26.0724 607.146 26.0401V28.1063C606.759 28.1817 606.264 28.2247 605.747 28.2247Z" fill="white"/>
<rect x="644.051" y="1" width="203.125" height="40.0383" rx="20.0192" fill="#949398"/>
<path d="M659.994 28.1709V12.6422H662.77V28.1709H659.994ZM666.186 28.1709V16.4087H668.866V18.2059H669.049C669.608 16.9468 670.738 16.1827 672.438 16.1827C675.064 16.1827 676.495 17.7647 676.495 20.5626V28.1709H673.816V21.1868C673.816 19.3573 673.073 18.4319 671.448 18.4319C669.856 18.4319 668.866 19.551 668.866 21.3159V28.1709H666.186ZM683.968 28.4076C680.976 28.4076 679.169 27.0302 678.943 25.0393V25.0178H681.601L681.611 25.0393C681.891 25.8572 682.677 26.4276 684.011 26.4276C685.346 26.4276 686.271 25.8249 686.271 24.9425V24.921C686.271 24.2322 685.754 23.7803 684.463 23.4897L682.558 23.0592C680.32 22.5642 679.255 21.5096 679.255 19.777V19.7663C679.255 17.6463 681.192 16.1827 683.968 16.1827C686.831 16.1827 688.542 17.6032 688.714 19.508V19.5295H686.196L686.185 19.4972C685.991 18.7547 685.216 18.1521 683.957 18.1521C682.763 18.1521 681.902 18.7332 681.902 19.6156V19.6264C681.902 20.3151 682.397 20.7348 683.667 21.0254L685.572 21.445C687.874 21.9616 688.961 22.9409 688.961 24.6519V24.6735C688.961 26.9118 686.863 28.4076 683.968 28.4076ZM695.422 28.4076C692.775 28.4076 691.419 26.815 691.419 24.017V16.4087H694.099V23.4036C694.099 25.2223 694.777 26.1478 696.391 26.1478C698.124 26.1478 699.049 25.0286 699.049 23.2637V16.4087H701.729V28.1709H699.049V26.3845H698.866C698.317 27.6436 697.123 28.4076 695.422 28.4076ZM706.027 28.1709V18.4857H704.1V16.4087H706.027V15.2465C706.027 12.9005 707.21 11.7491 709.836 11.7491C710.407 11.7491 710.891 11.7813 711.321 11.8567V13.7291C711.117 13.6969 710.783 13.6753 710.407 13.6753C709.147 13.6753 708.663 14.278 708.663 15.3972V16.4087H711.214V18.4857H708.706V28.1709H706.027ZM714.586 28.1709V18.4857H712.66V16.4087H714.586V15.2465C714.586 12.9005 715.77 11.7491 718.396 11.7491C718.966 11.7491 719.45 11.7813 719.881 11.8567V13.7291C719.676 13.6969 719.343 13.6753 718.966 13.6753C717.707 13.6753 717.223 14.278 717.223 15.3972V16.4087H719.773V18.4857H717.266V28.1709H714.586ZM723.598 14.4394C722.715 14.4394 721.994 13.7399 721.994 12.8575C721.994 11.9858 722.715 11.2756 723.598 11.2756C724.469 11.2756 725.19 11.9858 725.19 12.8575C725.19 13.7399 724.469 14.4394 723.598 14.4394ZM722.253 28.1709V16.4087H724.932V28.1709H722.253ZM733.137 28.4076C729.596 28.4076 727.508 26.1155 727.508 22.2737V22.2521C727.508 18.4534 729.585 16.1827 733.126 16.1827C736.15 16.1827 737.958 17.8615 738.259 20.2936V20.3366H735.73L735.719 20.3043C735.472 19.1636 734.6 18.3458 733.137 18.3458C731.307 18.3458 730.231 19.7878 730.231 22.2521V22.2737C730.231 24.7703 731.318 26.2339 733.137 26.2339C734.525 26.2339 735.375 25.5989 735.709 24.3614L735.73 24.3183L738.259 24.3076L738.237 24.3937C737.85 26.8042 736.117 28.4076 733.137 28.4076ZM742.051 14.4394C741.169 14.4394 740.448 13.7399 740.448 12.8575C740.448 11.9858 741.169 11.2756 742.051 11.2756C742.923 11.2756 743.644 11.9858 743.644 12.8575C743.644 13.7399 742.923 14.4394 742.051 14.4394ZM740.706 28.1709V16.4087H743.386V28.1709H740.706ZM751.579 28.4076C748.082 28.4076 745.962 26.0617 745.962 22.3167V22.306C745.962 18.604 748.103 16.1827 751.45 16.1827C754.797 16.1827 756.863 18.5287 756.863 22.08V22.9624H748.641C748.674 25.0716 749.814 26.2984 751.633 26.2984C753.086 26.2984 753.915 25.5666 754.173 25.0286L754.205 24.9533H756.756L756.723 25.0501C756.347 26.5675 754.775 28.4076 751.579 28.4076ZM751.482 18.2812C749.987 18.2812 748.867 19.2928 748.663 21.1652H754.248C754.065 19.239 752.978 18.2812 751.482 18.2812ZM759.407 28.1709V16.4087H762.087V18.2059H762.27C762.829 16.9468 763.959 16.1827 765.659 16.1827C768.285 16.1827 769.717 17.7647 769.717 20.5626V28.1709H767.037V21.1868C767.037 19.3573 766.294 18.4319 764.669 18.4319C763.077 18.4319 762.087 19.551 762.087 21.3159V28.1709H759.407ZM777.372 28.2247C774.671 28.2247 773.563 27.3208 773.563 25.0501V18.4857H771.733V16.4087H773.563V13.5247H776.285V16.4087H778.771V18.4857H776.285V24.4152C776.285 25.5882 776.748 26.0832 777.867 26.0832C778.244 26.0832 778.448 26.0724 778.771 26.0401V28.1063C778.384 28.1817 777.889 28.2247 777.372 28.2247ZM791.284 28.3646C788.336 28.3646 786.463 26.0294 786.463 22.306V22.2844C786.463 18.5395 788.303 16.215 791.284 16.215C792.899 16.215 794.244 17.0114 794.857 18.2812H795.04V11.8567H797.73V28.1709H795.04V26.3307H794.857C794.211 27.6113 792.942 28.3646 791.284 28.3646ZM792.124 26.1047C793.953 26.1047 795.083 24.6627 795.083 22.306V22.2844C795.083 19.9277 793.942 18.4749 792.124 18.4749C790.305 18.4749 789.186 19.9169 789.186 22.2844V22.306C789.186 24.6735 790.294 26.1047 792.124 26.1047ZM804.17 28.3646C801.932 28.3646 800.307 26.9871 800.307 24.8456V24.8241C800.307 22.7256 801.91 21.4989 804.773 21.3267L807.797 21.1437V20.1322C807.797 18.9592 807.032 18.3135 805.59 18.3135C804.364 18.3135 803.567 18.7547 803.298 19.5295L803.288 19.5726H800.759L800.769 19.4757C801.028 17.4956 802.922 16.1827 805.72 16.1827C808.744 16.1827 810.444 17.6463 810.444 20.1322V28.1709H807.797V26.5567H807.614C806.968 27.6974 805.72 28.3646 804.17 28.3646ZM802.954 24.7165C802.954 25.7173 803.804 26.3092 804.988 26.3092C806.602 26.3092 807.797 25.2546 807.797 23.8556V22.9086L805.149 23.0808C803.653 23.1776 802.954 23.7265 802.954 24.695V24.7165ZM818.153 28.2247C815.452 28.2247 814.344 27.3208 814.344 25.0501V18.4857H812.514V16.4087H814.344V13.5247H817.066V16.4087H819.552V18.4857H817.066V24.4152C817.066 25.5882 817.529 26.0832 818.648 26.0832C819.025 26.0832 819.229 26.0724 819.552 26.0401V28.1063C819.165 28.1817 818.67 28.2247 818.153 28.2247ZM825.292 28.3646C823.054 28.3646 821.429 26.9871 821.429 24.8456V24.8241C821.429 22.7256 823.032 21.4989 825.895 21.3267L828.919 21.1437V20.1322C828.919 18.9592 828.155 18.3135 826.713 18.3135C825.486 18.3135 824.69 18.7547 824.421 19.5295L824.41 19.5726H821.881L821.892 19.4757C822.15 17.4956 824.044 16.1827 826.842 16.1827C829.866 16.1827 831.566 17.6463 831.566 20.1322V28.1709H828.919V26.5567H828.736C828.09 27.6974 826.842 28.3646 825.292 28.3646ZM824.076 24.7165C824.076 25.7173 824.926 26.3092 826.11 26.3092C827.724 26.3092 828.919 25.2546 828.919 23.8556V22.9086L826.272 23.0808C824.776 23.1776 824.076 23.7265 824.076 24.695V24.7165Z" fill="white"/>
<defs>
<linearGradient id="paint0_linear_1785_11174" x1="470.037" y1="15.3675" x2="478.838" y2="29.5066" gradientUnits="userSpaceOnUse">
<stop/>
<stop offset="1" stop-opacity="0.7"/>
</linearGradient>
</defs>
</svg>
