<svg width="32" height="33" viewBox="0 0 32 33" fill="none" xmlns="http://www.w3.org/2000/svg">
<path d="M20.8122 12.877C20.1179 12.1828 18.9923 12.1828 18.298 12.877C17.6038 13.5713 17.6038 14.6969 18.298 15.3912L19.5551 14.1341L20.8122 12.877ZM24.5834 19.1624L23.3264 20.4195C24.0206 21.1138 25.1463 21.1138 25.8405 20.4195L24.5834 19.1624ZM30.8688 15.3912C31.5631 14.6969 31.5631 13.5713 30.8688 12.877C30.1746 12.1828 29.0489 12.1828 28.3547 12.877L29.6118 14.1341L30.8688 15.3912ZM23.1107 17.1058C23.1107 18.0876 23.9066 18.8836 24.8885 18.8836C25.8703 18.8836 26.6662 18.0876 26.6662 17.1058H24.8885H23.1107ZM20.5137 26.5642C21.3406 26.0348 21.5817 24.9353 21.0523 24.1084C20.5229 23.2816 19.4235 23.0404 18.5966 23.5698L19.5551 25.067L20.5137 26.5642ZM19.5551 14.1341L18.298 15.3912L23.3264 20.4195L24.5834 19.1624L25.8405 17.9054L20.8122 12.877L19.5551 14.1341ZM24.5834 19.1624L25.8405 20.4195L30.8688 15.3912L29.6118 14.1341L28.3547 12.877L23.3264 17.9054L24.5834 19.1624ZM13.3329 26.8836V25.1058C7.93278 25.1058 3.55512 20.7281 3.55512 15.328H1.77734H-0.00043416C-0.00043416 22.6918 5.9691 28.6614 13.3329 28.6614V26.8836ZM1.77734 15.328H3.55512C3.55512 9.9279 7.93278 5.55024 13.3329 5.55024V3.77246V1.99468C5.9691 1.99468 -0.00043416 7.96422 -0.00043416 15.328H1.77734ZM13.3329 3.77246V5.55024C18.733 5.55024 23.1107 9.9279 23.1107 15.328H24.8885H26.6662C26.6662 7.96422 20.6967 1.99468 13.3329 1.99468V3.77246ZM24.8885 15.328H23.1107V17.1058H24.8885H26.6662V15.328H24.8885ZM19.5551 25.067L18.5966 23.5698C17.0781 24.542 15.274 25.1058 13.3329 25.1058V26.8836V28.6614C15.9736 28.6614 18.44 27.8919 20.5137 26.5642L19.5551 25.067Z" fill="black"/>
</svg>
