<svg width="265" height="265" viewBox="0 0 265 265" fill="none" xmlns="http://www.w3.org/2000/svg">
<path d="M132.5 -5.79176e-06C205.678 -8.99046e-06 265 59.3223 265 132.5C265 205.678 205.678 265 132.5 265C59.3223 265 -2.59306e-06 205.678 -5.79176e-06 132.5C-8.99046e-06 59.3223 59.3223 -2.59306e-06 132.5 -5.79176e-06ZM132.5 192.903C165.86 192.903 192.903 165.86 192.903 132.5C192.903 99.1401 165.86 72.0965 132.5 72.0965C99.1401 72.0965 72.0965 99.1401 72.0965 132.5C72.0965 165.86 99.1401 192.903 132.5 192.903Z" fill="#4196FF"/>
<path d="M132.5 0C107.389 -2.99444e-07 82.7952 7.13558 61.5837 20.5754C40.3721 34.0152 23.4164 53.2058 12.6919 75.9114L77.8824 106.703C82.7715 96.3517 90.5012 87.6032 100.171 81.4763C109.841 75.3494 121.053 72.0965 132.5 72.0965L132.5 0Z" fill="#9442F9"/>
<path d="M132.5 0C115.769 -1.99521e-07 99.1884 3.16892 83.6362 9.33922L110.224 76.354C117.314 73.5411 124.873 72.0965 132.5 72.0965L132.5 0Z" fill="#F942A4"/>
</svg>
