<svg width="360" height="510" viewBox="0 0 360 510" fill="none" xmlns="http://www.w3.org/2000/svg">
<g clip-path="url(#clip0_2066_45934)">
<rect width="360" height="510" fill="white"/>
<mask id="mask0_2066_45934" style="mask-type:alpha" maskUnits="userSpaceOnUse" x="0" y="-73" width="362" height="489">
<rect y="-72.5039" width="361.962" height="487.567" fill="url(#paint0_linear_2066_45934)"/>
</mask>
<g mask="url(#mask0_2066_45934)">
<rect y="-72.5693" width="360.49" height="487.52" fill="#1B2471"/>
<g filter="url(#filter0_f_2066_45934)">
<circle cx="360.492" cy="229.497" r="120" fill="#6656A5"/>
</g>
<g filter="url(#filter1_f_2066_45934)">
<circle cx="360.492" cy="312.496" r="120" fill="#E9E19A" fill-opacity="0.35"/>
</g>
</g>
<path d="M33.1719 69.1123V55.0205H36.1211V66.6807H42.2832V69.1123H33.1719ZM48.7492 69.3271C45.546 69.3271 43.6027 67.2471 43.6027 63.8975V63.8877C43.6027 60.5576 45.5656 58.4287 48.632 58.4287C51.6984 58.4287 53.6222 60.5088 53.6222 63.6729V64.5518H46.4152C46.4445 66.2217 47.3527 67.1982 48.8078 67.1982C49.9796 67.1982 50.6925 66.5537 50.8976 65.9678L50.9171 65.9092H53.5343L53.505 66.0166C53.1828 67.5596 51.7375 69.3271 48.7492 69.3271ZM48.6808 60.5576C47.5089 60.5576 46.63 61.3389 46.4445 62.7549H50.8878C50.7121 61.3096 49.8625 60.5576 48.6808 60.5576ZM56.2112 69.1123V60.792H54.7854V58.6436H56.2112V57.8037C56.2112 55.7529 57.1878 54.8057 59.6585 54.8057C60.1858 54.8057 60.762 54.8545 61.094 54.9229V56.8076C60.8987 56.7686 60.6253 56.7588 60.3616 56.7588C59.4144 56.7588 58.9944 57.1592 58.9944 57.9111V58.6436H61.0745V60.792H59.0628V69.1123H56.2112ZM67.0913 69.3271C64.767 69.3271 63.6733 68.4287 63.6733 66.1826V60.792H62.2182V58.6436H63.6733V56.085H66.5541V58.6436H68.4682V60.792H66.5541V65.8701C66.5541 66.8467 66.9936 67.1787 67.853 67.1787C68.1069 67.1787 68.2924 67.1494 68.4682 67.1299V69.2197C68.1459 69.2686 67.687 69.3271 67.0913 69.3271ZM77.8259 69.2783C75.7263 69.2783 74.3103 67.96 74.3103 66.1143V66.0947C74.3103 64.1904 75.7849 63.0771 78.3826 62.9111L80.9705 62.7549V62.1104C80.9705 61.1826 80.365 60.6064 79.2517 60.6064C78.1873 60.6064 77.5427 61.1045 77.406 61.7783L77.3865 61.8662H74.7791L74.7888 61.749C74.9451 59.8154 76.6052 58.4287 79.3689 58.4287C82.074 58.4287 83.822 59.8252 83.822 61.9346V69.1123H80.9705V67.5498H80.9119C80.3162 68.624 79.2029 69.2783 77.8259 69.2783ZM77.1326 65.9678C77.1326 66.7393 77.7673 67.1982 78.7537 67.1982C80.033 67.1982 80.9705 66.3779 80.9705 65.2842V64.5322L78.8123 64.6689C77.7087 64.7373 77.1326 65.2061 77.1326 65.9482V65.9678ZM86.7821 69.1123V60.792H85.3563V58.6436H86.7821V57.8037C86.7821 55.7529 87.7587 54.8057 90.2294 54.8057C90.7567 54.8057 91.3329 54.8545 91.6649 54.9229V56.8076C91.4696 56.7686 91.1962 56.7588 90.9325 56.7588C89.9853 56.7588 89.5653 57.1592 89.5653 57.9111V58.6436H91.6454V60.792H89.6337V69.1123H86.7821ZM97.6622 69.3271C95.3379 69.3271 94.2442 68.4287 94.2442 66.1826V60.792H92.7891V58.6436H94.2442V56.085H97.125V58.6436H99.0391V60.792H97.125V65.8701C97.125 66.8467 97.5645 67.1787 98.4239 67.1787C98.6778 67.1787 98.8633 67.1494 99.0391 67.1299V69.2197C98.7168 69.2686 98.2579 69.3271 97.6622 69.3271ZM105.573 69.3271C102.37 69.3271 100.427 67.2471 100.427 63.8975V63.8877C100.427 60.5576 102.39 58.4287 105.456 58.4287C108.523 58.4287 110.446 60.5088 110.446 63.6729V64.5518H103.239C103.269 66.2217 104.177 67.1982 105.632 67.1982C106.804 67.1982 107.517 66.5537 107.722 65.9678L107.741 65.9092H110.359L110.329 66.0166C110.007 67.5596 108.562 69.3271 105.573 69.3271ZM105.505 60.5576C104.333 60.5576 103.454 61.3389 103.269 62.7549H107.712C107.536 61.3096 106.687 60.5576 105.505 60.5576ZM112.274 69.1123V58.6436H115.125V60.4697H115.184C115.496 59.1807 116.346 58.4287 117.567 58.4287C117.879 58.4287 118.172 58.4775 118.387 58.5361V61.0459C118.153 60.9482 117.762 60.8896 117.352 60.8896C115.946 60.8896 115.125 61.7295 115.125 63.2529V69.1123H112.274ZM128.536 69.3271C125.635 69.3271 124.024 67.9893 123.799 66.0068L123.79 65.9189H126.573L126.592 66.0068C126.778 66.8271 127.393 67.3057 128.536 67.3057C129.61 67.3057 130.264 66.8857 130.264 66.2119V66.2021C130.264 65.6455 129.913 65.3232 128.887 65.0986L127.11 64.7275C125.079 64.2979 124.053 63.2822 124.053 61.7197V61.71C124.053 59.7178 125.772 58.4287 128.438 58.4287C131.221 58.4287 132.774 59.9033 132.842 61.7393V61.8369H130.215L130.206 61.7588C130.108 61.0068 129.493 60.4404 128.438 60.4404C127.452 60.4404 126.837 60.8799 126.837 61.5537V61.5635C126.837 62.1006 127.198 62.4521 128.253 62.6768L130.03 63.0576C132.217 63.5166 133.116 64.376 133.116 65.9189V65.9287C133.116 67.9795 131.231 69.3271 128.536 69.3271ZM134.875 72.5303V58.6436H137.726V60.4697H137.795C138.361 59.2002 139.504 58.4287 140.988 58.4287C143.644 58.4287 145.265 60.46 145.265 63.8682V63.8779C145.265 67.2764 143.644 69.3271 141.027 69.3271C139.533 69.3271 138.351 68.5654 137.785 67.3252H137.726V72.5303H134.875ZM140.051 66.9639C141.467 66.9639 142.365 65.7822 142.365 63.8779V63.8682C142.365 61.9541 141.467 60.792 140.051 60.792C138.664 60.792 137.717 61.9834 137.717 63.8779V63.8877C137.717 65.7725 138.664 66.9639 140.051 66.9639ZM151.868 69.3271C148.665 69.3271 146.722 67.2471 146.722 63.8975V63.8877C146.722 60.5576 148.685 58.4287 151.751 58.4287C154.817 58.4287 156.741 60.5088 156.741 63.6729V64.5518H149.534C149.563 66.2217 150.472 67.1982 151.927 67.1982C153.099 67.1982 153.811 66.5537 154.017 65.9678L154.036 65.9092H156.653L156.624 66.0166C156.302 67.5596 154.856 69.3271 151.868 69.3271ZM151.8 60.5576C150.628 60.5576 149.749 61.3389 149.563 62.7549H154.007C153.831 61.3096 152.981 60.5576 151.8 60.5576ZM158.568 69.1123V58.6436H161.42V60.3623H161.479C162.016 59.1611 163.09 58.4287 164.672 58.4287C166.977 58.4287 168.285 59.9033 168.285 62.3545V69.1123H165.434V62.9404C165.434 61.5732 164.789 60.792 163.51 60.792C162.231 60.792 161.42 61.7295 161.42 63.0967V69.1123H158.568ZM174.322 69.3271C171.685 69.3271 170.064 67.2764 170.064 63.8779V63.8682C170.064 60.46 171.685 58.4287 174.322 58.4287C175.806 58.4287 176.978 59.1904 177.544 60.46H177.603V55.0205H180.454V69.1123H177.603V67.3252H177.544C176.988 68.5654 175.835 69.3271 174.322 69.3271ZM175.279 66.9639C176.665 66.9639 177.613 65.7725 177.613 63.8779V63.8682C177.613 61.9834 176.656 60.792 175.279 60.792C173.863 60.792 172.964 61.9541 172.964 63.8682V63.8779C172.964 65.7822 173.853 66.9639 175.279 66.9639ZM184.196 57.2959C183.336 57.2959 182.672 56.6221 182.672 55.8115C182.672 55.001 183.336 54.3271 184.196 54.3271C185.055 54.3271 185.719 55.001 185.719 55.8115C185.719 56.6221 185.055 57.2959 184.196 57.2959ZM182.77 69.1123V58.6436H185.621V69.1123H182.77ZM187.888 69.1123V58.6436H190.74V60.3623H190.798C191.335 59.1611 192.41 58.4287 193.992 58.4287C196.296 58.4287 197.605 59.9033 197.605 62.3545V69.1123H194.753V62.9404C194.753 61.5732 194.109 60.792 192.83 60.792C191.55 60.792 190.74 61.7295 190.74 63.0967V69.1123H187.888ZM204.657 72.7451C201.776 72.7451 199.96 71.4463 199.686 69.7666L199.676 69.6787H202.45L202.479 69.7471C202.704 70.2646 203.466 70.7139 204.657 70.7139C206.132 70.7139 206.913 69.9521 206.913 68.7803V67.1787H206.854C206.307 68.2725 205.135 68.9658 203.622 68.9658C201.005 68.9658 199.383 67.0127 199.383 63.7607V63.751C199.383 60.4111 201.024 58.4287 203.671 58.4287C205.145 58.4287 206.288 59.21 206.854 60.4307H206.913V58.6436H209.764V68.8193C209.764 71.1533 207.801 72.7451 204.657 72.7451ZM204.608 66.876C206.005 66.876 206.923 65.7041 206.923 63.8291V63.8193C206.923 61.9541 205.995 60.792 204.608 60.792C203.192 60.792 202.284 61.9443 202.284 63.8193V63.8291C202.284 65.7139 203.182 66.876 204.608 66.876Z" fill="white"/>
<path d="M40.3672 104.399C39.1504 104.399 38.3164 103.579 38.3164 102.335V88.2119H38.2344L35.3496 90.2217C34.9668 90.4951 34.6797 90.5908 34.2559 90.5908C33.4219 90.5908 32.8066 89.9893 32.8066 89.1143C32.8066 88.4854 33.0527 88.0205 33.6953 87.5693L37.6055 84.8623C38.5625 84.2061 39.2187 84.083 40.0664 84.083C41.5293 84.083 42.4043 84.9717 42.4043 86.3936V102.335C42.4043 103.579 41.584 104.399 40.3672 104.399ZM55.0956 104.55C51.9648 104.55 49.4765 103.087 48.0273 100.188C47.2753 98.6572 46.8652 96.7021 46.8652 94.4053C46.8652 87.8701 49.9824 83.9326 55.1093 83.9326C58.3769 83.9326 60.7285 85.3135 61.6581 87.1592C61.8496 87.542 61.9453 87.8975 61.9453 88.2666C61.9453 89.1826 61.3027 89.8936 60.2226 89.8936C59.4023 89.8936 58.9101 89.5381 58.3085 88.8408C57.4062 87.7061 56.4492 87.2002 55.0956 87.2002C52.2792 87.2002 50.8437 89.8799 50.8164 94.0908V94.2959H50.8984C51.664 92.4639 53.6054 91.124 56.2714 91.124C60.0859 91.124 62.6972 93.8447 62.6972 97.5498C62.6972 101.638 59.498 104.55 55.0956 104.55ZM55.041 101.269C57.0644 101.269 58.664 99.71 58.6777 97.7275C58.6777 95.6494 57.1601 94.1729 55.082 94.1729C52.9902 94.1729 51.4316 95.6357 51.4316 97.6455C51.4316 99.6826 53.0175 101.269 55.041 101.269ZM67.3632 104.112C66.0643 104.112 65.4218 103.388 65.4218 102.349C65.4218 101.569 65.7226 101.05 66.5565 100.284L72.4354 94.665C74.869 92.3272 75.4979 91.3701 75.4979 89.9482C75.4979 88.3213 74.2401 87.1592 72.4765 87.1592C70.8905 87.1592 69.7968 87.9522 69.0858 89.5381C68.621 90.3584 68.1425 90.7412 67.2538 90.7412C66.1464 90.7412 65.4901 90.085 65.4901 89.0596C65.4901 88.7451 65.5448 88.458 65.6405 88.1709C66.3104 85.9834 68.7851 83.9463 72.5175 83.9463C76.7011 83.9463 79.5175 86.2979 79.5175 89.6885C79.5175 92.0947 78.3417 93.5986 75.1151 96.6475L70.8495 100.749V100.831H78.287C79.3534 100.831 79.996 101.474 79.996 102.472C79.996 103.442 79.3534 104.112 78.287 104.112H67.3632ZM88.5076 96.7295C88.0838 96.7295 87.8103 96.4424 87.8103 96.0459C87.8103 95.6221 88.0838 95.3623 88.5076 95.3623H89.8885C89.8611 94.9932 89.8474 94.624 89.8474 94.2412C89.8474 93.8857 89.8611 93.5439 89.8885 93.2158H88.5076C88.0838 93.2158 87.8103 92.9287 87.8103 92.5322C87.8103 92.1084 88.0838 91.8486 88.5076 91.8486H90.0525C90.9002 87.1592 94.2908 84.3975 98.8572 84.3975C102.467 84.3975 105.133 85.9014 106.431 88.5127C106.691 88.9639 106.814 89.4287 106.814 89.8662C106.814 90.8232 106.117 91.4522 105.051 91.4522C104.189 91.4522 103.697 91.0693 103.191 90.2217C102.275 88.4854 100.73 87.7334 98.9392 87.7334C96.492 87.7334 94.7693 89.2647 94.1267 91.8486H100.429C100.853 91.8486 101.127 92.1084 101.127 92.5322C101.127 92.9287 100.853 93.2158 100.429 93.2158H93.908C93.8806 93.5439 93.867 93.8857 93.8533 94.2275C93.867 94.624 93.8806 95.0068 93.908 95.3623H100.429C100.853 95.3623 101.127 95.6221 101.127 96.0459C101.127 96.4424 100.853 96.7295 100.429 96.7295H94.1541C94.7967 99.2725 96.5193 100.763 98.9529 100.763C100.771 100.763 102.344 100.147 103.232 98.3838C103.724 97.5361 104.176 97.1533 105.01 97.1533C106.144 97.1533 106.855 97.7822 106.855 98.7666C106.855 99.1221 106.787 99.5049 106.623 99.8877C105.474 102.622 102.412 104.085 98.9666 104.085C94.2908 104.085 90.9275 101.378 90.0662 96.7295H88.5076ZM115.966 104.112V93.4287H118.818V104.112H115.966ZM117.392 91.8467C116.963 91.8467 116.591 91.6937 116.279 91.3877C115.966 91.0817 115.81 90.7171 115.81 90.2939C115.81 89.8577 115.966 89.4899 116.279 89.1904C116.591 88.8844 116.963 88.7314 117.392 88.7314C117.835 88.7314 118.209 88.8844 118.515 89.1904C118.828 89.4899 118.984 89.8577 118.984 90.2939C118.984 90.7171 118.828 91.0817 118.515 91.3877C118.209 91.6937 117.835 91.8467 117.392 91.8467ZM121.755 104.112V93.4287H124.607V95.0986H124.754C125.007 94.5127 125.395 94.0505 125.916 93.7119C126.443 93.3734 127.094 93.2041 127.869 93.2041C129.054 93.2041 129.959 93.5524 130.584 94.249C131.215 94.9456 131.531 95.932 131.531 97.208V104.112H128.679V97.8428C128.679 97.1006 128.517 96.5374 128.191 96.1533C127.872 95.7627 127.38 95.5674 126.716 95.5674C126.28 95.5674 125.903 95.665 125.584 95.8604C125.271 96.0557 125.03 96.3324 124.861 96.6904C124.692 97.042 124.607 97.4587 124.607 97.9404V104.112H121.755ZM138.812 104.112L143.714 90.0205H146.244V92.8135H145.375L141.918 104.112H138.812ZM141.439 100.694L142.162 98.4873H148.695L149.418 100.694H141.439ZM148.988 104.112L145.521 92.8135V90.0205H147.181L152.084 104.112H148.988ZM154.289 107.638V93.4287H157.14V95.1279H157.287C157.475 94.7308 157.723 94.3955 158.029 94.1221C158.341 93.8421 158.706 93.6273 159.123 93.4775C159.539 93.3213 159.998 93.2432 160.499 93.2432C161.398 93.2432 162.169 93.4678 162.814 93.917C163.465 94.3597 163.966 94.9912 164.318 95.8115C164.669 96.6318 164.845 97.6149 164.845 98.7607V98.7803C164.845 99.9261 164.669 100.912 164.318 101.739C163.973 102.56 163.478 103.191 162.833 103.634C162.189 104.076 161.414 104.298 160.509 104.298C160.014 104.298 159.555 104.22 159.132 104.063C158.716 103.907 158.348 103.686 158.029 103.399C157.716 103.113 157.469 102.771 157.287 102.374H157.14V107.638H154.289ZM159.533 101.935C160.034 101.935 160.464 101.808 160.822 101.554C161.18 101.293 161.457 100.929 161.652 100.46C161.847 99.9847 161.945 99.4248 161.945 98.7803V98.7607C161.945 98.1032 161.847 97.54 161.652 97.0713C161.457 96.6025 161.18 96.2412 160.822 95.9873C160.464 95.7334 160.034 95.6064 159.533 95.6064C159.044 95.6064 158.618 95.7334 158.253 95.9873C157.889 96.2412 157.606 96.6025 157.404 97.0713C157.208 97.54 157.111 98.1032 157.111 98.7607V98.7803C157.111 99.4248 157.212 99.9847 157.414 100.46C157.615 100.929 157.895 101.293 158.253 101.554C158.618 101.808 159.044 101.935 159.533 101.935ZM167.275 104.112V93.4287H170.126V95.1377H170.273C170.442 94.5387 170.755 94.0732 171.21 93.7412C171.666 93.4092 172.233 93.2432 172.91 93.2432C173.092 93.2432 173.271 93.2562 173.447 93.2822C173.622 93.3083 173.779 93.3408 173.915 93.3799V95.8701C173.727 95.818 173.525 95.779 173.31 95.7529C173.102 95.7204 172.887 95.7041 172.665 95.7041C172.145 95.7041 171.692 95.8018 171.308 95.9971C170.93 96.1924 170.637 96.4723 170.429 96.8369C170.227 97.195 170.126 97.6279 170.126 98.1357V104.112H167.275ZM175.954 104.112V93.4287H178.806V104.112H175.954ZM177.38 91.8467C176.951 91.8467 176.579 91.6937 176.267 91.3877C175.954 91.0817 175.798 90.7171 175.798 90.2939C175.798 89.8577 175.954 89.4899 176.267 89.1904C176.579 88.8844 176.951 88.7314 177.38 88.7314C177.823 88.7314 178.197 88.8844 178.503 89.1904C178.816 89.4899 178.972 89.8577 178.972 90.2939C178.972 90.7171 178.816 91.0817 178.503 91.3877C178.197 91.6937 177.823 91.8467 177.38 91.8467ZM181.831 104.112V89.4346H184.683V104.112H181.831Z" fill="white"/>
<path d="M33.5273 131.112V119.134H35.0215V131.112H33.5273ZM40.6628 131.179C38.82 131.179 38.048 130.498 38.048 128.788V123.359H36.6369V122.164H38.048V119.848H39.5421V122.164H41.5011V123.359H39.5421V128.423C39.5421 129.477 39.9074 129.9 40.8371 129.9C41.0944 129.9 41.2355 129.892 41.5011 129.867V131.096C41.2189 131.146 40.945 131.179 40.6628 131.179ZM49.3471 131.112L46.8403 122.164H48.2846L50.0444 129.319H50.1772L52.1777 122.164H53.5473L55.5478 129.319H55.6806L57.4404 122.164H58.8764L56.3696 131.112H54.917L52.9165 124.189H52.7837L50.7915 131.112H49.3471ZM62.5836 131.27C60.882 131.27 59.5954 130.241 59.5954 128.614V128.597C59.5954 127.003 60.7741 126.082 62.8576 125.958L65.4225 125.8V124.986C65.4225 123.882 64.7501 123.285 63.4137 123.285C62.3429 123.285 61.6373 123.683 61.4049 124.38L61.3966 124.405H59.9523L59.9606 124.355C60.193 122.953 61.5543 122.006 63.4635 122.006C65.6466 122.006 66.8668 123.127 66.8668 124.986V131.112H65.4225V129.792H65.2897C64.7252 130.747 63.7872 131.27 62.5836 131.27ZM61.0729 128.581C61.0729 129.485 61.8449 130.017 62.8825 130.017C64.3517 130.017 65.4225 129.054 65.4225 127.775V126.962L63.0319 127.111C61.6705 127.194 61.0729 127.676 61.0729 128.564V128.581ZM72.1678 131.27C70.1756 131.27 68.806 130.307 68.6399 128.83H70.1175C70.3582 129.577 71.0721 130.066 72.2176 130.066C73.4212 130.066 74.2762 129.494 74.2762 128.68V128.664C74.2762 128.058 73.8196 127.634 72.7156 127.369L71.3294 127.037C69.6526 126.638 68.8973 125.908 68.8973 124.621V124.613C68.8973 123.127 70.325 122.006 72.2259 122.006C74.1019 122.006 75.4051 122.944 75.6043 124.405H74.1849C73.9939 123.7 73.2967 123.21 72.2176 123.21C71.1551 123.21 70.3748 123.758 70.3748 124.546V124.563C70.3748 125.169 70.823 125.551 71.8772 125.808L73.2552 126.14C74.9402 126.547 75.7537 127.277 75.7537 128.556V128.572C75.7537 130.166 74.2015 131.27 72.1678 131.27ZM84.878 131.112V120.794H84.7452L81.6988 123.002V121.425L84.8863 119.134H86.3722V131.112H84.878ZM89.4236 131.112V130.083L93.4744 125.7C95.0017 124.048 95.45 123.426 95.45 122.38V122.363C95.45 121.102 94.595 120.155 93.1839 120.155C91.7478 120.155 90.7932 121.093 90.7932 122.504L90.7849 122.521L89.3572 122.513L89.3406 122.504C89.3489 120.379 90.9925 118.852 93.2835 118.852C95.3753 118.852 96.9773 120.271 96.9773 122.206V122.222C96.9773 123.592 96.388 124.588 94.2215 126.821L91.4988 129.635V129.768H97.1765V131.112H89.4236ZM101.506 125.435C99.9789 125.435 99.0576 124.189 99.0576 122.206V122.197C99.0576 120.213 99.9789 118.977 101.506 118.977C103.034 118.977 103.963 120.213 103.963 122.197V122.206C103.963 124.189 103.034 125.435 101.506 125.435ZM102.403 131.112H101.058L109.209 119.134H110.554L102.403 131.112ZM101.506 124.447C102.328 124.447 102.81 123.608 102.81 122.206V122.197C102.81 120.794 102.328 119.964 101.506 119.964C100.685 119.964 100.211 120.794 100.211 122.197V122.206C100.211 123.608 100.685 124.447 101.506 124.447ZM110.089 131.27C108.562 131.27 107.641 130.025 107.641 128.041V128.033C107.641 126.049 108.562 124.812 110.089 124.812C111.617 124.812 112.546 126.049 112.546 128.033V128.041C112.546 130.025 111.617 131.27 110.089 131.27ZM110.089 130.282C110.911 130.282 111.393 129.444 111.393 128.041V128.033C111.393 126.63 110.911 125.8 110.089 125.8C109.268 125.8 108.794 126.63 108.794 128.033V128.041C108.794 129.444 109.268 130.282 110.089 130.282ZM122.658 131.27C120.11 131.27 118.533 129.51 118.533 126.646V126.63C118.533 123.758 120.11 122.006 122.658 122.006C125.207 122.006 126.784 123.758 126.784 126.63V126.646C126.784 129.51 125.207 131.27 122.658 131.27ZM122.658 129.992C124.352 129.992 125.306 128.755 125.306 126.646V126.63C125.306 124.513 124.352 123.285 122.658 123.285C120.965 123.285 120.011 124.513 120.011 126.63V126.646C120.011 128.755 120.965 129.992 122.658 129.992ZM129.213 131.112V123.359H127.727V122.164H129.213V121.168C129.213 119.383 130.109 118.528 131.811 118.528C132.16 118.528 132.475 118.553 132.774 118.611V119.765C132.6 119.732 132.359 119.724 132.101 119.724C131.072 119.724 130.657 120.23 130.657 121.209V122.164H132.691V123.359H130.657V131.112H129.213ZM139.499 120.438C138.951 120.438 138.503 119.989 138.503 119.441C138.503 118.894 138.951 118.445 139.499 118.445C140.047 118.445 140.495 118.894 140.495 119.441C140.495 119.989 140.047 120.438 139.499 120.438ZM138.769 131.112V122.164H140.213V131.112H138.769ZM142.526 131.112V122.164H143.97V123.509H144.103C144.551 122.562 145.39 122.006 146.709 122.006C148.718 122.006 149.839 123.193 149.839 125.318V131.112H148.394V125.667C148.394 124.057 147.73 123.285 146.303 123.285C144.875 123.285 143.97 124.248 143.97 125.816V131.112H142.526ZM155.704 131.27C153.197 131.27 151.595 129.452 151.595 126.613V126.597C151.595 123.816 153.189 122.006 155.696 122.006C157.871 122.006 159.174 123.26 159.44 124.854L159.448 124.903H158.012L158.003 124.878C157.779 123.999 156.982 123.285 155.696 123.285C154.086 123.285 153.073 124.58 153.073 126.597V126.613C153.073 128.672 154.102 129.992 155.696 129.992C156.899 129.992 157.663 129.46 157.995 128.464L158.012 128.415L159.44 128.406L159.423 128.498C159.058 130.116 157.854 131.27 155.704 131.27ZM164.823 131.27C162.275 131.27 160.698 129.51 160.698 126.646V126.63C160.698 123.758 162.275 122.006 164.823 122.006C167.372 122.006 168.949 123.758 168.949 126.63V126.646C168.949 129.51 167.372 131.27 164.823 131.27ZM164.823 129.992C166.517 129.992 167.471 128.755 167.471 126.646V126.63C167.471 124.513 166.517 123.285 164.823 123.285C163.13 123.285 162.176 124.513 162.176 126.63V126.646C162.176 128.755 163.13 129.992 164.823 129.992ZM170.78 131.112V122.164H172.224V123.525H172.357C172.756 122.562 173.602 122.006 174.773 122.006C175.985 122.006 176.831 122.646 177.246 123.575H177.379C177.861 122.629 178.882 122.006 180.119 122.006C181.945 122.006 182.966 123.052 182.966 124.928V131.112H181.521V125.26C181.521 123.94 180.915 123.285 179.654 123.285C178.409 123.285 177.587 124.223 177.587 125.36V131.112H176.142V125.036C176.142 123.974 175.412 123.285 174.283 123.285C173.113 123.285 172.224 124.306 172.224 125.567V131.112H170.78ZM188.814 131.27C186.258 131.27 184.714 129.477 184.714 126.671V126.663C184.714 123.899 186.291 122.006 188.723 122.006C191.155 122.006 192.633 123.816 192.633 126.489V127.053H186.191C186.233 128.904 187.254 129.983 188.848 129.983C190.06 129.983 190.807 129.411 191.047 128.871L191.081 128.796H192.525L192.508 128.863C192.201 130.075 190.923 131.27 188.814 131.27ZM188.715 123.293C187.387 123.293 186.374 124.198 186.216 125.899H191.164C191.014 124.131 190.035 123.293 188.715 123.293Z" fill="white"/>
<rect opacity="0.3" x="31.1797" y="305.321" width="21.8991" height="5.97248" rx="2.98624" fill="white" fill-opacity="0.2"/>
<rect opacity="0.3" x="84.9492" y="270.771" width="21.97" height="40.5224" rx="5.85866" fill="#D7BA50"/>
<rect opacity="0.3" x="138.789" y="187.773" width="21.97" height="123.52" rx="5.85866" fill="#2AC467"/>
<rect x="192.625" y="224.391" width="21.97" height="86.9035" rx="5.85866" fill="#2AC467"/>
<rect opacity="0.3" x="246.465" y="208.279" width="21.97" height="103.015" rx="5.85866" fill="#2AC467"/>
<g opacity="0.3">
<g clip-path="url(#clip1_2066_45934)">
<rect x="300.305" y="240.294" width="21.8986" height="70.8388" rx="6.99177" fill="#D7BA50"/>
<g clip-path="url(#clip2_2066_45934)">
<line y1="-1.99078" x2="58.0508" y2="-1.99078" transform="matrix(-0.819152 0.573576 -0.686642 -0.726996 331.426 299.249)" stroke="#737192" stroke-opacity="0.6" stroke-width="3.98157"/>
<line y1="-1.99078" x2="58.0508" y2="-1.99078" transform="matrix(-0.819152 0.573576 -0.686642 -0.726996 316.547 299.249)" stroke="#737192" stroke-opacity="0.6" stroke-width="3.98157"/>
<line y1="-1.99078" x2="58.0508" y2="-1.99078" transform="matrix(-0.819152 0.573576 -0.686642 -0.726996 301.664 299.249)" stroke="#737192" stroke-opacity="0.6" stroke-width="3.98157"/>
<line y1="-1.99078" x2="58.0508" y2="-1.99078" transform="matrix(-0.819152 0.573576 -0.686642 -0.726996 346.32 299.249)" stroke="#737192" stroke-opacity="0.6" stroke-width="3.98157"/>
</g>
<g clip-path="url(#clip3_2066_45934)">
<line y1="-1.99078" x2="58.0508" y2="-1.99078" transform="matrix(-0.819152 0.573576 -0.686642 -0.726996 331.426 288.797)" stroke="#737192" stroke-opacity="0.6" stroke-width="3.98157"/>
<line y1="-1.99078" x2="58.0508" y2="-1.99078" transform="matrix(-0.819152 0.573576 -0.686642 -0.726996 316.547 288.797)" stroke="#737192" stroke-opacity="0.6" stroke-width="3.98157"/>
<line y1="-1.99078" x2="58.0508" y2="-1.99078" transform="matrix(-0.819152 0.573576 -0.686642 -0.726996 301.664 288.797)" stroke="#737192" stroke-opacity="0.6" stroke-width="3.98157"/>
<line y1="-1.99078" x2="58.0508" y2="-1.99078" transform="matrix(-0.819152 0.573576 -0.686642 -0.726996 346.32 288.797)" stroke="#737192" stroke-opacity="0.6" stroke-width="3.98157"/>
</g>
<g clip-path="url(#clip4_2066_45934)">
<line y1="-1.99078" x2="58.0508" y2="-1.99078" transform="matrix(-0.819152 0.573576 -0.686642 -0.726996 331.426 278.346)" stroke="#737192" stroke-opacity="0.6" stroke-width="3.98157"/>
<line y1="-1.99078" x2="58.0508" y2="-1.99078" transform="matrix(-0.819152 0.573576 -0.686642 -0.726996 316.547 278.346)" stroke="#737192" stroke-opacity="0.6" stroke-width="3.98157"/>
<line y1="-1.99078" x2="58.0508" y2="-1.99078" transform="matrix(-0.819152 0.573576 -0.686642 -0.726996 301.664 278.346)" stroke="#737192" stroke-opacity="0.6" stroke-width="3.98157"/>
<line y1="-1.99078" x2="58.0508" y2="-1.99078" transform="matrix(-0.819152 0.573576 -0.686642 -0.726996 346.32 278.346)" stroke="#737192" stroke-opacity="0.6" stroke-width="3.98157"/>
</g>
<g clip-path="url(#clip5_2066_45934)">
<line y1="-1.99078" x2="58.0508" y2="-1.99078" transform="matrix(-0.819152 0.573576 -0.686642 -0.726996 331.426 267.892)" stroke="#737192" stroke-opacity="0.6" stroke-width="3.98157"/>
<line y1="-1.99078" x2="58.0508" y2="-1.99078" transform="matrix(-0.819152 0.573576 -0.686642 -0.726996 316.547 267.892)" stroke="#737192" stroke-opacity="0.6" stroke-width="3.98157"/>
<line y1="-1.99078" x2="58.0508" y2="-1.99078" transform="matrix(-0.819152 0.573576 -0.686642 -0.726996 301.664 267.892)" stroke="#737192" stroke-opacity="0.6" stroke-width="3.98157"/>
<line y1="-1.99078" x2="58.0508" y2="-1.99078" transform="matrix(-0.819152 0.573576 -0.686642 -0.726996 346.32 267.892)" stroke="#737192" stroke-opacity="0.6" stroke-width="3.98157"/>
</g>
<g clip-path="url(#clip6_2066_45934)">
<line y1="-1.99078" x2="58.0508" y2="-1.99078" transform="matrix(-0.819152 0.573576 -0.686642 -0.726996 331.426 257.442)" stroke="#737192" stroke-opacity="0.6" stroke-width="3.98157"/>
<line y1="-1.99078" x2="58.0508" y2="-1.99078" transform="matrix(-0.819152 0.573576 -0.686642 -0.726996 316.547 257.442)" stroke="#737192" stroke-opacity="0.6" stroke-width="3.98157"/>
<line y1="-1.99078" x2="58.0508" y2="-1.99078" transform="matrix(-0.819152 0.573576 -0.686642 -0.726996 301.664 257.442)" stroke="#737192" stroke-opacity="0.6" stroke-width="3.98157"/>
<line y1="-1.99078" x2="58.0508" y2="-1.99078" transform="matrix(-0.819152 0.573576 -0.686642 -0.726996 346.32 257.442)" stroke="#737192" stroke-opacity="0.6" stroke-width="3.98157"/>
</g>
<g clip-path="url(#clip7_2066_45934)">
<line y1="-1.99078" x2="58.0508" y2="-1.99078" transform="matrix(-0.819152 0.573576 -0.686642 -0.726996 331.426 246.991)" stroke="#737192" stroke-opacity="0.6" stroke-width="3.98157"/>
<line y1="-1.99078" x2="58.0508" y2="-1.99078" transform="matrix(-0.819152 0.573576 -0.686642 -0.726996 316.547 246.991)" stroke="#737192" stroke-opacity="0.6" stroke-width="3.98157"/>
<line y1="-1.99078" x2="58.0508" y2="-1.99078" transform="matrix(-0.819152 0.573576 -0.686642 -0.726996 301.664 246.991)" stroke="#737192" stroke-opacity="0.6" stroke-width="3.98157"/>
<line y1="-1.99078" x2="58.0508" y2="-1.99078" transform="matrix(-0.819152 0.573576 -0.686642 -0.726996 346.32 246.991)" stroke="#737192" stroke-opacity="0.6" stroke-width="3.98157"/>
</g>
<g clip-path="url(#clip8_2066_45934)">
<line y1="-1.99078" x2="58.0508" y2="-1.99078" transform="matrix(-0.819152 0.573576 -0.686642 -0.726996 331.426 236.538)" stroke="#737192" stroke-opacity="0.6" stroke-width="3.98157"/>
<line y1="-1.99078" x2="58.0508" y2="-1.99078" transform="matrix(-0.819152 0.573576 -0.686642 -0.726996 316.547 236.538)" stroke="#737192" stroke-opacity="0.6" stroke-width="3.98157"/>
<line y1="-1.99078" x2="58.0508" y2="-1.99078" transform="matrix(-0.819152 0.573576 -0.686642 -0.726996 301.664 236.538)" stroke="#737192" stroke-opacity="0.6" stroke-width="3.98157"/>
<line y1="-1.99078" x2="58.0508" y2="-1.99078" transform="matrix(-0.819152 0.573576 -0.686642 -0.726996 346.32 236.538)" stroke="#737192" stroke-opacity="0.6" stroke-width="3.98157"/>
</g>
</g>
</g>
<path d="M34.299 335.453C32.7194 335.453 31.8285 334.474 31.7337 333.166L31.7274 333.077H32.8647L32.871 333.141C32.9405 333.829 33.3891 334.404 34.2927 334.404C35.3036 334.404 35.847 333.804 35.847 332.692V326.121H36.9843V332.705C36.9843 334.43 35.986 335.453 34.299 335.453ZM41.0407 335.358C39.7454 335.358 38.7661 334.575 38.7661 333.336V333.324C38.7661 332.111 39.6633 331.409 41.2492 331.315L43.2016 331.195V330.575C43.2016 329.735 42.6898 329.28 41.6726 329.28C40.8575 329.28 40.3204 329.583 40.1435 330.114L40.1372 330.133H39.0378L39.0441 330.095C39.221 329.027 40.2572 328.307 41.7105 328.307C43.3722 328.307 44.301 329.16 44.301 330.575V335.238H43.2016V334.234H43.1005C42.6709 334.96 41.9569 335.358 41.0407 335.358ZM39.8908 333.311C39.8908 334 40.4784 334.404 41.2682 334.404C42.3865 334.404 43.2016 333.671 43.2016 332.698V332.079L41.3819 332.193C40.3457 332.256 39.8908 332.622 39.8908 333.299V333.311ZM46.3103 335.238V328.427H47.4097V329.451H47.5108C47.852 328.73 48.4901 328.307 49.4947 328.307C51.0238 328.307 51.8768 329.211 51.8768 330.828V335.238H50.7774V331.093C50.7774 329.868 50.2719 329.28 49.1851 329.28C48.0984 329.28 47.4097 330.013 47.4097 331.207V335.238H46.3103Z" fill="white" fill-opacity="0.3"/>
<path d="M84.862 335.238V326.121H90.3969V327.144H85.9993V330.278H90.0368V331.289H85.9993V335.238H84.862ZM94.9083 335.358C92.9622 335.358 91.787 333.994 91.787 331.858V331.852C91.787 329.748 92.9875 328.307 94.8388 328.307C96.6901 328.307 97.8147 329.684 97.8147 331.719V332.149H92.9117C92.9432 333.558 93.7204 334.379 94.9335 334.379C95.856 334.379 96.4247 333.943 96.6079 333.532L96.6332 333.475H97.7326L97.72 333.526C97.4862 334.448 96.5131 335.358 94.9083 335.358ZM94.8324 329.286C93.8215 329.286 93.0507 329.975 92.9306 331.27H96.6964C96.5826 329.925 95.8371 329.286 94.8324 329.286ZM102.907 335.358C101.96 335.358 101.201 334.91 100.784 334.152H100.683V335.238H99.5839V325.723H100.683V329.501H100.784C101.157 328.775 101.972 328.307 102.907 328.307C104.639 328.307 105.763 329.691 105.763 331.826V331.839C105.763 333.962 104.632 335.358 102.907 335.358ZM102.655 334.385C103.899 334.385 104.639 333.425 104.639 331.839V331.826C104.639 330.24 103.899 329.28 102.655 329.28C101.416 329.28 100.658 330.253 100.658 331.826V331.839C100.658 333.412 101.416 334.385 102.655 334.385Z" fill="white" fill-opacity="0.3"/>
<path d="M140.093 335.238V326.121H141.414L144.535 333.728H144.636L147.757 326.121H149.078V335.238H148.016V328.275H147.947L145.066 335.238H144.105L141.224 328.275H141.154V335.238H140.093ZM153.134 335.358C151.839 335.358 150.86 334.575 150.86 333.336V333.324C150.86 332.111 151.757 331.409 153.343 331.315L155.295 331.195V330.575C155.295 329.735 154.783 329.28 153.766 329.28C152.951 329.28 152.414 329.583 152.237 330.114L152.231 330.133H151.131L151.138 330.095C151.314 329.027 152.351 328.307 153.804 328.307C155.466 328.307 156.394 329.16 156.394 330.575V335.238H155.295V334.234H155.194C154.764 334.96 154.05 335.358 153.134 335.358ZM151.984 333.311C151.984 334 152.572 334.404 153.362 334.404C154.48 334.404 155.295 333.671 155.295 332.698V332.079L153.475 332.193C152.439 332.256 151.984 332.622 151.984 333.299V333.311ZM158.404 335.238V328.427H159.503V329.438H159.604C159.863 328.724 160.501 328.307 161.424 328.307C161.632 328.307 161.866 328.332 161.974 328.351V329.419C161.746 329.381 161.538 329.356 161.298 329.356C160.249 329.356 159.503 330.019 159.503 331.018V335.238H158.404Z" fill="white" fill-opacity="0.3"/>
<path d="M193.341 335.238L196.702 326.121H197.827L201.188 335.238H199.994L199.078 332.629H195.451L194.535 335.238H193.341ZM197.214 327.593L195.786 331.662H198.743L197.315 327.593H197.214ZM202.648 337.513V328.427H203.747V329.514H203.848C204.265 328.756 205.024 328.307 205.971 328.307C207.696 328.307 208.827 329.703 208.827 331.826V331.839C208.827 333.975 207.703 335.358 205.971 335.358C205.036 335.358 204.221 334.891 203.848 334.164H203.747V337.513H202.648ZM205.719 334.385C206.963 334.385 207.703 333.425 207.703 331.839V331.826C207.703 330.24 206.963 329.28 205.719 329.28C204.48 329.28 203.722 330.253 203.722 331.826V331.839C203.722 333.412 204.48 334.385 205.719 334.385ZM210.546 335.238V328.427H211.645V329.438H211.746C212.005 328.724 212.644 328.307 213.566 328.307C213.775 328.307 214.008 328.332 214.116 328.351V329.419C213.888 329.381 213.68 329.356 213.44 329.356C212.391 329.356 211.645 330.019 211.645 331.018V335.238H210.546Z" fill="white"/>
<path d="M245.785 335.238V326.121H247.106L250.227 333.728H250.328L253.45 326.121H254.77V335.238H253.709V328.275H253.639L250.758 335.238H249.798L246.916 328.275H246.847V335.238H245.785ZM258.827 335.358C257.531 335.358 256.552 334.575 256.552 333.336V333.324C256.552 332.111 257.449 331.409 259.035 331.315L260.987 331.195V330.575C260.987 329.735 260.476 329.28 259.458 329.28C258.643 329.28 258.106 329.583 257.929 330.114L257.923 330.133H256.824L256.83 330.095C257.007 329.027 258.043 328.307 259.496 328.307C261.158 328.307 262.087 329.16 262.087 330.575V335.238H260.987V334.234H260.886C260.457 334.96 259.743 335.358 258.827 335.358ZM257.677 333.311C257.677 334 258.264 334.404 259.054 334.404C260.172 334.404 260.987 333.671 260.987 332.698V332.079L259.168 332.193C258.132 332.256 257.677 332.622 257.677 333.299V333.311ZM264.425 337.627C264.279 337.627 264.09 337.614 263.938 337.589V336.685C264.071 336.71 264.241 336.717 264.393 336.717C265.019 336.717 265.398 336.432 265.644 335.649L265.77 335.245L263.249 328.427H264.425L266.295 334.031H266.396L268.26 328.427H269.416L266.756 335.655C266.194 337.184 265.631 337.627 264.425 337.627Z" fill="white" fill-opacity="0.3"/>
<path d="M304.966 335.453C303.386 335.453 302.495 334.474 302.4 333.166L302.394 333.077H303.531L303.538 333.141C303.607 333.829 304.056 334.404 304.959 334.404C305.97 334.404 306.514 333.804 306.514 332.692V326.121H307.651V332.705C307.651 334.43 306.653 335.453 304.966 335.453ZM312.118 335.358C310.57 335.358 309.774 334.448 309.774 332.837V328.427H310.873V332.572C310.873 333.798 311.316 334.385 312.402 334.385C313.603 334.385 314.241 333.652 314.241 332.458V328.427H315.34V335.238H314.241V334.221H314.14C313.805 334.948 313.116 335.358 312.118 335.358ZM317.394 335.238V328.427H318.493V329.451H318.594C318.936 328.73 319.574 328.307 320.578 328.307C322.107 328.307 322.96 329.211 322.96 330.828V335.238H321.861V331.093C321.861 329.868 321.355 329.28 320.269 329.28C319.182 329.28 318.493 330.013 318.493 331.207V335.238H317.394Z" fill="white" fill-opacity="0.3"/>
<path d="M204 222L204 121" stroke="url(#paint1_linear_2066_45934)" stroke-opacity="0.25" stroke-linecap="round" stroke-dasharray="2 2"/>
<g filter="url(#filter2_dd_2066_45934)">
<g clip-path="url(#clip9_2066_45934)">
<path d="M16 386.443C16 373.204 26.7323 362.472 39.9712 362.472H319.658C332.897 362.472 343.629 373.204 343.629 386.443V466.343C343.629 479.581 332.897 490.314 319.658 490.314H39.9712C26.7322 490.314 16 479.582 16 466.343V386.443Z" fill="white"/>
<g clip-path="url(#clip10_2066_45934)">
<path d="M42.1797 396.685C38.9709 396.685 36.7508 395.09 36.7508 392.777V392.758C36.7508 391.014 38.0474 389.727 39.857 389.372V389.316C38.2992 388.934 37.2452 387.805 37.2452 386.369V386.35C37.2452 384.27 39.2693 382.759 42.1797 382.759C45.0807 382.759 47.1142 384.27 47.1142 386.35V386.369C47.1142 387.805 46.0508 388.934 44.5024 389.316V389.372C46.3027 389.727 47.5993 391.014 47.5993 392.758V392.777C47.5993 395.09 45.3885 396.685 42.1797 396.685ZM42.1797 388.467C43.4483 388.467 44.3251 387.712 44.3251 386.63V386.611C44.3251 385.538 43.439 384.792 42.1797 384.792C40.9204 384.792 40.0249 385.538 40.0249 386.611V386.63C40.0249 387.712 40.9111 388.467 42.1797 388.467ZM42.1797 394.633C43.6442 394.633 44.6796 393.775 44.6796 392.59V392.572C44.6796 391.378 43.6628 390.51 42.1797 390.51C40.6965 390.51 39.6705 391.378 39.6705 392.572V392.59C39.6705 393.775 40.7059 394.633 42.1797 394.633ZM52.6542 389.923C50.714 389.923 49.5293 388.57 49.5293 386.397V386.387C49.5293 384.223 50.714 382.871 52.6542 382.871C54.5851 382.871 55.7698 384.223 55.7698 386.387V386.397C55.7698 388.57 54.5851 389.923 52.6542 389.923ZM54.0441 396.452H51.9639L60.4711 382.992H62.5419L54.0441 396.452ZM52.6542 388.374C53.4005 388.374 53.8109 387.674 53.8109 386.397V386.387C53.8109 385.119 53.4005 384.419 52.6542 384.419C51.8986 384.419 51.4789 385.119 51.4789 386.387V386.397C51.4789 387.674 51.8986 388.374 52.6542 388.374ZM61.861 396.573C59.9207 396.573 58.7361 395.221 58.7361 393.047V393.038C58.7361 390.874 59.9207 389.521 61.861 389.521C63.7919 389.521 64.9765 390.874 64.9765 393.038V393.047C64.9765 395.221 63.7919 396.573 61.861 396.573ZM61.861 395.025C62.6072 395.025 63.0176 394.325 63.0176 393.047V393.038C63.0176 391.769 62.6072 391.07 61.861 391.07C61.1054 391.07 60.6856 391.769 60.6856 393.038V393.047C60.6856 394.325 61.1054 395.025 61.861 395.025ZM75.7487 396.657C72.7078 396.657 70.7955 394.708 70.7955 391.452V391.434C70.7955 388.216 72.7544 386.247 75.7394 386.247C78.7337 386.247 80.7019 388.197 80.7019 391.434V391.452C80.7019 394.717 78.771 396.657 75.7487 396.657ZM75.758 394.521C77.0826 394.521 77.9315 393.402 77.9315 391.452V391.434C77.9315 389.503 77.064 388.383 75.7394 388.383C74.4241 388.383 73.566 389.503 73.566 391.434V391.452C73.566 393.411 74.4148 394.521 75.758 394.521ZM83.201 396.452V388.505H81.8391V386.453H83.201V385.65C83.201 383.691 84.1338 382.787 86.4938 382.787C86.9975 382.787 87.5478 382.833 87.865 382.899V384.699C87.6784 384.662 87.4172 384.652 87.1654 384.652C86.2606 384.652 85.8594 385.035 85.8594 385.753V386.453H87.8463V388.505H85.9247V396.452H83.201ZM95.363 399.745C94.8313 399.745 94.2903 399.68 93.9732 399.624V397.599C94.1691 397.637 94.4862 397.693 94.8873 397.693C95.6989 397.693 96.1466 397.46 96.3891 396.779L96.5104 396.452L92.9751 386.453H95.9694L98.0775 394.269H98.1521L100.27 386.453H103.143L99.7099 396.629C98.9263 398.989 97.5831 399.745 95.363 399.745ZM108.692 396.657C105.651 396.657 103.739 394.708 103.739 391.452V391.434C103.739 388.216 105.698 386.247 108.683 386.247C111.677 386.247 113.645 388.197 113.645 391.434V391.452C113.645 394.717 111.714 396.657 108.692 396.657ZM108.701 394.521C110.026 394.521 110.875 393.402 110.875 391.452V391.434C110.875 389.503 110.007 388.383 108.683 388.383C107.367 388.383 106.509 389.503 106.509 391.434V391.452C106.509 393.411 107.358 394.521 108.701 394.521ZM118.821 396.657C116.62 396.657 115.37 395.249 115.37 392.908V386.453H118.094V392.338C118.094 393.644 118.709 394.4 119.931 394.4C121.153 394.4 121.928 393.504 121.928 392.199V386.453H124.651V396.452H121.928V394.801H121.872C121.359 395.948 120.332 396.657 118.821 396.657ZM126.787 396.452V386.453H129.51V388.197H129.566C129.865 386.966 130.676 386.247 131.842 386.247C132.141 386.247 132.421 386.294 132.626 386.35V388.747C132.402 388.654 132.029 388.598 131.637 388.598C130.294 388.598 129.51 389.4 129.51 390.855V396.452H126.787ZM139.676 385.165C138.855 385.165 138.221 384.522 138.221 383.747C138.221 382.973 138.855 382.33 139.676 382.33C140.497 382.33 141.131 382.973 141.131 383.747C141.131 384.522 140.497 385.165 139.676 385.165ZM138.314 396.452V386.453H141.038V396.452H138.314ZM143.229 396.452V386.453H145.953V388.094H146.009C146.522 386.947 147.548 386.247 149.059 386.247C151.261 386.247 152.511 387.656 152.511 389.997V396.452H149.787V390.557C149.787 389.251 149.171 388.505 147.949 388.505C146.727 388.505 145.953 389.4 145.953 390.706V396.452H143.229ZM159.17 396.657C156.12 396.657 154.236 394.67 154.236 391.443V391.434C154.236 388.234 156.148 386.247 159.142 386.247C161.857 386.247 163.582 387.917 163.685 390.081V390.146H161.157L161.138 390.062C160.97 389.111 160.308 388.383 159.18 388.383C157.846 388.383 157.006 389.531 157.006 391.443V391.452C157.006 393.411 157.846 394.521 159.189 394.521C160.28 394.521 160.961 393.85 161.148 392.842L161.157 392.758H163.694V392.814C163.564 394.997 161.838 396.657 159.17 396.657ZM169.962 396.657C166.921 396.657 165.009 394.708 165.009 391.452V391.434C165.009 388.216 166.968 386.247 169.953 386.247C172.947 386.247 174.915 388.197 174.915 391.434V391.452C174.915 394.717 172.984 396.657 169.962 396.657ZM169.971 394.521C171.296 394.521 172.145 393.402 172.145 391.452V391.434C172.145 389.503 171.277 388.383 169.953 388.383C168.637 388.383 167.779 389.503 167.779 391.434V391.452C167.779 393.411 168.628 394.521 169.971 394.521ZM176.687 396.452V386.453H179.41V388.132H179.466C179.877 386.994 180.921 386.247 182.265 386.247C183.664 386.247 184.681 386.994 185.016 388.309H185.072C185.52 387.05 186.714 386.247 188.179 386.247C190.138 386.247 191.453 387.6 191.453 389.615V396.452H188.729V390.296C188.729 389.139 188.151 388.505 187.097 388.505C186.061 388.505 185.38 389.26 185.38 390.37V396.452H182.759V390.212C182.759 389.139 182.153 388.505 181.145 388.505C180.11 388.505 179.41 389.288 179.41 390.417V396.452H176.687ZM198.093 396.657C195.034 396.657 193.178 394.67 193.178 391.471V391.462C193.178 388.281 195.053 386.247 197.982 386.247C200.911 386.247 202.748 388.234 202.748 391.256V392.096H195.864C195.892 393.691 196.76 394.624 198.149 394.624C199.269 394.624 199.95 394.008 200.146 393.449L200.164 393.393H202.664L202.636 393.495C202.328 394.969 200.948 396.657 198.093 396.657ZM198.028 388.281C196.909 388.281 196.069 389.027 195.892 390.38H200.136C199.968 388.999 199.157 388.281 198.028 388.281ZM208.735 396.452V382.992H211.459V396.452H208.735ZM218.212 396.657C215.152 396.657 213.296 394.67 213.296 391.471V391.462C213.296 388.281 215.171 386.247 218.1 386.247C221.029 386.247 222.866 388.234 222.866 391.256V392.096H215.982C216.01 393.691 216.878 394.624 218.267 394.624C219.387 394.624 220.068 394.008 220.264 393.449L220.282 393.393H222.782L222.754 393.495C222.446 394.969 221.066 396.657 218.212 396.657ZM218.146 388.281C217.027 388.281 216.187 389.027 216.01 390.38H220.254C220.086 388.999 219.275 388.281 218.146 388.281ZM225.365 396.452V388.505H224.003V386.453H225.365V385.65C225.365 383.691 226.298 382.787 228.658 382.787C229.162 382.787 229.712 382.833 230.029 382.899V384.699C229.843 384.662 229.582 384.652 229.33 384.652C228.425 384.652 228.024 385.035 228.024 385.753V386.453H230.011V388.505H228.089V396.452H225.365ZM235.784 396.657C233.564 396.657 232.519 395.799 232.519 393.654V388.505H231.129V386.453H232.519V384.009H235.271V386.453H237.099V388.505H235.271V393.355C235.271 394.288 235.691 394.605 236.511 394.605C236.754 394.605 236.931 394.577 237.099 394.559V396.555C236.791 396.601 236.353 396.657 235.784 396.657Z" fill="#333333"/>
</g>
<path d="M40.3454 423.452V418.783L36.4954 412.601H38.0369L40.962 417.421H41.0823L44.0074 412.601H45.5489L41.6989 418.783V423.452H40.3454ZM49.2926 423.595C48.5256 423.595 47.8614 423.427 47.2999 423.091C46.7434 422.75 46.3123 422.267 46.0065 421.64C45.7058 421.013 45.5554 420.269 45.5554 419.407V419.392C45.5554 418.524 45.7058 417.777 46.0065 417.151C46.3123 416.524 46.7434 416.043 47.2999 415.707C47.8614 415.371 48.5256 415.203 49.2926 415.203C50.0646 415.203 50.7288 415.371 51.2852 415.707C51.8417 416.043 52.2703 416.524 52.5711 417.151C52.8769 417.777 53.0298 418.524 53.0298 419.392V419.407C53.0298 420.269 52.8769 421.013 52.5711 421.64C52.2703 422.267 51.8417 422.75 51.2852 423.091C50.7288 423.427 50.0646 423.595 49.2926 423.595ZM49.2926 422.437C49.8039 422.437 50.2375 422.317 50.5934 422.076C50.9494 421.835 51.2201 421.49 51.4056 421.038C51.5961 420.587 51.6913 420.043 51.6913 419.407V419.392C51.6913 418.75 51.5961 418.204 51.4056 417.752C51.2201 417.301 50.9494 416.958 50.5934 416.722C50.2375 416.482 49.8039 416.361 49.2926 416.361C48.7812 416.361 48.3476 416.482 47.9917 416.722C47.6358 416.958 47.3626 417.301 47.1721 417.752C46.9866 418.204 46.8938 418.75 46.8938 419.392V419.407C46.8938 420.043 46.9866 420.587 47.1721 421.038C47.3626 421.49 47.6358 421.835 47.9917 422.076C48.3476 422.317 48.7812 422.437 49.2926 422.437ZM57.7284 423.595C57.1168 423.595 56.603 423.48 56.1869 423.249C55.7708 423.014 55.4575 422.673 55.247 422.226C55.0414 421.775 54.9387 421.231 54.9387 420.595V415.346H56.2471V420.279C56.2471 421.006 56.3874 421.547 56.6681 421.903C56.9539 422.259 57.4201 422.437 58.0668 422.437C58.4227 422.437 58.736 422.384 59.0067 422.279C59.2824 422.174 59.513 422.023 59.6985 421.828C59.884 421.627 60.0219 421.387 60.1121 421.106C60.2073 420.82 60.255 420.499 60.255 420.144V415.346H61.5634V423.452H60.255V422.242H60.1346C60.0043 422.527 59.8263 422.773 59.6008 422.978C59.3752 423.179 59.1045 423.332 58.7887 423.437C58.4778 423.542 58.1244 423.595 57.7284 423.595ZM71.0283 423.595C70.4267 423.595 69.8953 423.505 69.4341 423.324C68.9729 423.139 68.602 422.881 68.3213 422.55C68.0455 422.219 67.8826 421.83 67.8325 421.384H69.171C69.2812 421.72 69.4968 421.991 69.8176 422.196C70.1385 422.402 70.5571 422.505 71.0734 422.505C71.4394 422.505 71.7602 422.452 72.0359 422.347C72.3166 422.236 72.5372 422.089 72.6976 421.903C72.858 421.713 72.9382 421.495 72.9382 421.249V421.234C72.9382 420.958 72.828 420.725 72.6074 420.535C72.3868 420.339 72.0259 420.181 71.5246 420.061L70.2688 419.76C69.7625 419.64 69.3464 419.484 69.0206 419.294C68.6947 419.098 68.4541 418.86 68.2987 418.579C68.1433 418.294 68.0656 417.958 68.0656 417.572V417.564C68.0656 417.113 68.1959 416.71 68.4566 416.354C68.7223 415.998 69.0832 415.717 69.5394 415.512C69.9956 415.306 70.5094 415.203 71.0809 415.203C71.6474 415.203 72.1487 415.293 72.5848 415.474C73.026 415.649 73.3794 415.9 73.6451 416.226C73.9158 416.552 74.0812 416.935 74.1414 417.376H72.8555C72.7703 417.056 72.5748 416.795 72.269 416.594C71.9632 416.394 71.5647 416.294 71.0734 416.294C70.7526 416.294 70.4668 416.346 70.2162 416.451C69.9655 416.552 69.7675 416.692 69.6221 416.873C69.4768 417.053 69.4041 417.264 69.4041 417.504V417.519C69.4041 417.7 69.4517 417.86 69.5469 418C69.6422 418.141 69.7901 418.264 69.9906 418.369C70.1911 418.474 70.4493 418.567 70.7651 418.647L72.0133 418.948C72.7753 419.133 73.3418 419.399 73.7128 419.745C74.0887 420.091 74.2767 420.555 74.2767 421.136V421.151C74.2767 421.632 74.1339 422.059 73.8481 422.429C73.5624 422.795 73.1739 423.081 72.6826 423.287C72.1963 423.492 71.6449 423.595 71.0283 423.595ZM76.2608 426.159V415.346H77.5692V416.639H77.6895C77.8549 416.339 78.063 416.083 78.3136 415.872C78.5643 415.657 78.85 415.491 79.1709 415.376C79.4917 415.261 79.8401 415.203 80.2161 415.203C80.9029 415.203 81.4994 415.379 82.0057 415.73C82.517 416.075 82.9131 416.562 83.1938 417.188C83.4745 417.815 83.6149 418.549 83.6149 419.392V419.407C83.6149 420.254 83.4745 420.991 83.1938 421.617C82.9131 422.244 82.517 422.73 82.0057 423.076C81.4994 423.422 80.9029 423.595 80.2161 423.595C79.8451 423.595 79.4942 423.537 79.1633 423.422C78.8375 423.302 78.5467 423.136 78.2911 422.926C78.0404 422.715 77.8399 422.465 77.6895 422.174H77.5692V426.159H76.2608ZM79.9153 422.437C80.4116 422.437 80.8352 422.317 81.1861 422.076C81.537 421.83 81.8052 421.482 81.9907 421.031C82.1812 420.575 82.2764 420.033 82.2764 419.407V419.392C82.2764 418.76 82.1812 418.219 81.9907 417.767C81.8052 417.316 81.537 416.97 81.1861 416.73C80.8352 416.484 80.4116 416.361 79.9153 416.361C79.424 416.361 79.0004 416.484 78.6445 416.73C78.2886 416.975 78.0154 417.324 77.8249 417.775C77.6344 418.226 77.5391 418.765 77.5391 419.392V419.407C77.5391 420.028 77.6344 420.567 77.8249 421.023C78.0154 421.475 78.2886 421.823 78.6445 422.069C79.0004 422.314 79.424 422.437 79.9153 422.437ZM88.9226 423.595C88.1506 423.595 87.4864 423.425 86.9299 423.084C86.3785 422.743 85.9524 422.262 85.6516 421.64C85.3558 421.013 85.208 420.276 85.208 419.429V419.422C85.208 418.585 85.3558 417.85 85.6516 417.218C85.9524 416.587 86.376 416.093 86.9224 415.737C87.4688 415.381 88.108 415.203 88.8399 415.203C89.5768 415.203 90.2084 415.374 90.7348 415.715C91.2662 416.055 91.6722 416.532 91.953 417.143C92.2387 417.75 92.3816 418.457 92.3816 419.264V419.775H85.8847V418.73H91.7124L91.0657 419.685V419.166C91.0657 418.529 90.9704 418.006 90.7799 417.594C90.5894 417.183 90.3263 416.878 89.9904 416.677C89.6545 416.472 89.2685 416.369 88.8324 416.369C88.3962 416.369 88.0052 416.477 87.6593 416.692C87.3184 416.903 87.0477 417.216 86.8472 417.632C86.6467 418.048 86.5464 418.559 86.5464 419.166V419.685C86.5464 420.261 86.6442 420.755 86.8397 421.166C87.0352 421.572 87.3134 421.886 87.6744 422.106C88.0353 422.322 88.4614 422.429 88.9527 422.429C89.3186 422.429 89.637 422.379 89.9077 422.279C90.1784 422.179 90.4014 422.051 90.5769 421.896C90.7524 421.74 90.8752 421.582 90.9454 421.422L90.9754 421.354H92.2838L92.2688 421.414C92.1986 421.69 92.0733 421.958 91.8928 422.219C91.7174 422.475 91.4893 422.708 91.2085 422.918C90.9278 423.124 90.5944 423.289 90.2084 423.415C89.8275 423.535 89.3988 423.595 88.9226 423.595ZM94.3657 423.452V415.346H95.6741V416.564H95.7944C95.9999 416.133 96.2957 415.8 96.6817 415.564C97.0677 415.324 97.559 415.203 98.1555 415.203C99.0679 415.203 99.7672 415.464 100.253 415.985C100.745 416.502 100.99 417.241 100.99 418.204V423.452H99.682V418.519C99.682 417.787 99.5266 417.246 99.2158 416.895C98.91 416.539 98.4337 416.361 97.787 416.361C97.3559 416.361 96.9825 416.454 96.6666 416.639C96.3508 416.825 96.1052 417.088 95.9297 417.429C95.7593 417.77 95.6741 418.178 95.6741 418.655V423.452H94.3657ZM106.193 423.512C105.361 423.512 104.757 423.344 104.381 423.008C104.01 422.673 103.824 422.119 103.824 421.347V416.429H102.546V415.346H103.824V413.248H105.178V415.346H106.952V416.429H105.178V421.016C105.178 421.492 105.268 421.835 105.448 422.046C105.629 422.252 105.93 422.354 106.351 422.354C106.466 422.354 106.564 422.352 106.644 422.347C106.729 422.342 106.832 422.334 106.952 422.324V423.437C106.827 423.457 106.702 423.475 106.576 423.49C106.451 423.505 106.323 423.512 106.193 423.512ZM115.793 423.452V414.105H115.673L112.913 416.106V414.677L115.801 412.601H117.147V423.452H115.793ZM120.935 423.527C120.67 423.527 120.439 423.432 120.244 423.242C120.053 423.046 119.958 422.815 119.958 422.55C119.958 422.279 120.053 422.049 120.244 421.858C120.439 421.668 120.67 421.572 120.935 421.572C121.206 421.572 121.437 421.668 121.627 421.858C121.818 422.049 121.913 422.279 121.913 422.55C121.913 422.815 121.818 423.046 121.627 423.242C121.437 423.432 121.206 423.527 120.935 423.527ZM124.311 423.452L129.183 413.917V413.812H123.378V412.601H130.559V413.857L125.732 423.452H124.311ZM132.581 423.452V422.52L136.25 418.549C136.712 418.048 137.073 417.635 137.333 417.309C137.594 416.978 137.777 416.68 137.882 416.414C137.987 416.148 138.04 415.857 138.04 415.542V415.527C138.04 415.146 137.957 414.805 137.792 414.504C137.627 414.203 137.391 413.965 137.085 413.79C136.779 413.614 136.413 413.526 135.987 413.526C135.556 413.526 135.178 413.617 134.852 413.797C134.526 413.973 134.273 414.221 134.092 414.542C133.912 414.857 133.822 415.228 133.822 415.654L133.814 415.669L132.521 415.662L132.506 415.654C132.511 415.013 132.666 414.444 132.972 413.947C133.278 413.446 133.699 413.055 134.235 412.774C134.772 412.489 135.386 412.346 136.078 412.346C136.709 412.346 137.278 412.479 137.784 412.744C138.291 413.005 138.689 413.363 138.98 413.82C139.276 414.276 139.424 414.797 139.424 415.384V415.399C139.424 415.81 139.351 416.206 139.206 416.587C139.065 416.968 138.815 417.391 138.454 417.858C138.093 418.319 137.584 418.888 136.927 419.565L134.122 422.46L134.461 421.835V422.46L134.13 422.234H139.604V423.452H132.581ZM145.393 423.708C144.721 423.708 144.122 423.575 143.596 423.309C143.07 423.044 142.646 422.683 142.325 422.226C142.009 421.765 141.824 421.246 141.769 420.67L141.761 420.587H143.062L143.07 420.647C143.115 420.993 143.24 421.309 143.446 421.595C143.656 421.876 143.929 422.099 144.265 422.264C144.606 422.429 144.987 422.512 145.408 422.512C145.889 422.512 146.313 422.407 146.679 422.196C147.045 421.981 147.331 421.685 147.536 421.309C147.742 420.933 147.845 420.502 147.845 420.016V420.001C147.845 419.519 147.739 419.093 147.529 418.722C147.323 418.346 147.04 418.053 146.679 417.843C146.318 417.632 145.902 417.527 145.431 417.527C145.07 417.527 144.736 417.582 144.431 417.692C144.13 417.802 143.862 417.968 143.626 418.188C143.531 418.279 143.441 418.376 143.355 418.482C143.275 418.587 143.2 418.705 143.13 418.835H141.957L142.528 412.601H148.566V413.812H143.596L143.228 417.482H143.348C143.508 417.236 143.706 417.03 143.942 416.865C144.177 416.7 144.441 416.574 144.731 416.489C145.027 416.399 145.338 416.354 145.664 416.354C146.346 416.354 146.95 416.512 147.476 416.827C148.002 417.138 148.416 417.567 148.717 418.113C149.018 418.655 149.168 419.276 149.168 419.978V419.993C149.168 420.72 149.005 421.364 148.679 421.926C148.358 422.482 147.915 422.918 147.348 423.234C146.782 423.55 146.13 423.708 145.393 423.708ZM161.859 423.294C161.122 423.294 160.428 423.189 159.776 422.978C159.124 422.768 158.548 422.447 158.046 422.016C157.545 421.585 157.152 421.038 156.866 420.377C156.58 419.715 156.437 418.933 156.437 418.031V418.016C156.437 417.113 156.58 416.331 156.866 415.669C157.152 415.008 157.545 414.461 158.046 414.03C158.553 413.599 159.132 413.281 159.783 413.075C160.435 412.865 161.127 412.759 161.859 412.759C162.139 412.759 162.44 412.774 162.761 412.804C163.082 412.83 163.32 412.87 163.475 412.925V414.143C163.31 414.103 163.069 414.07 162.754 414.045C162.438 414.02 162.139 414.008 161.859 414.008C161.282 414.008 160.748 414.088 160.257 414.248C159.766 414.409 159.337 414.654 158.971 414.985C158.61 415.316 158.33 415.735 158.129 416.241C157.929 416.747 157.828 417.346 157.828 418.038V418.053C157.828 418.74 157.929 419.334 158.129 419.835C158.335 420.337 158.618 420.753 158.979 421.083C159.345 421.409 159.771 421.652 160.257 421.813C160.748 421.968 161.282 422.046 161.859 422.046C162.139 422.046 162.438 422.036 162.754 422.016C163.069 421.996 163.31 421.961 163.475 421.911V423.129C163.32 423.184 163.082 423.227 162.761 423.257C162.44 423.282 162.139 423.294 161.859 423.294ZM154.978 419.55V418.647H162.092V419.55H154.978ZM154.978 417.369V416.467H162.092V417.369H154.978Z" fill="#333333"/>
<rect x="35.9766" y="447.828" width="85.0053" height="24.3158" rx="12.1579" fill="#DAAC36"/>
<path d="M52.4961 465.002C49.559 465.002 47.7286 463.005 47.7286 459.81V459.796C47.7286 456.608 49.573 454.611 52.4961 454.611C55.4263 454.611 57.2568 456.608 57.2568 459.796V459.81C57.2568 461.661 56.6443 463.116 55.5516 464.007L56.867 465.844H55.0853L54.2779 464.717C53.742 464.905 53.1434 465.002 52.4961 465.002ZM52.4961 463.443C52.7815 463.443 53.046 463.408 53.2965 463.346L52.0438 461.592H53.8255L54.5354 462.58C55.1061 461.947 55.4263 460.993 55.4263 459.81V459.796C55.4263 457.569 54.2918 456.17 52.4961 456.17C50.7074 456.17 49.566 457.562 49.566 459.796V459.81C49.566 462.044 50.7005 463.443 52.4961 463.443ZM61.0885 464.974C59.4668 464.974 58.5411 463.93 58.5411 462.218V457.451H60.2741V461.877C60.2741 462.921 60.7613 463.513 61.7497 463.513C62.7449 463.513 63.3783 462.796 63.3783 461.724V457.451H65.1113V464.828H63.3783V463.673H63.3435C62.9607 464.459 62.202 464.974 61.0885 464.974ZM67.5162 456.393C66.9733 456.393 66.5488 455.961 66.5488 455.446C66.5488 454.917 66.9733 454.493 67.5162 454.493C68.0591 454.493 68.4767 454.917 68.4767 455.446C68.4767 455.961 68.0591 456.393 67.5162 456.393ZM66.6462 464.828V457.451H68.3792V464.828H66.6462ZM72.6564 464.974C71.1113 464.974 70.3805 464.348 70.3805 462.831V458.787H69.3365V457.451H70.3805V455.578H72.1413V457.451H73.5124V458.787H72.1413V462.684C72.1413 463.408 72.4615 463.638 73.0949 463.638C73.2619 463.638 73.3941 463.617 73.5124 463.61V464.912C73.3106 464.939 73.0044 464.974 72.6564 464.974ZM77.8661 464.974C75.6529 464.974 74.3166 463.506 74.3166 461.16V461.153C74.3166 458.829 75.6738 457.297 77.7826 457.297C79.8915 457.297 81.2 458.78 81.2 461.007V461.564H76.0357C76.0635 462.858 76.7734 463.624 77.9009 463.624C78.764 463.624 79.3277 463.165 79.4948 462.671L79.5087 462.622H81.1304L81.1095 462.698C80.8798 463.833 79.794 464.974 77.8661 464.974ZM77.8035 458.655C76.8848 458.655 76.1957 459.274 76.0565 460.409H79.5156C79.3904 459.239 78.7222 458.655 77.8035 458.655ZM86.7336 464.828L84.7361 457.451H86.4761L87.7219 463.116H87.7567L89.1974 457.451H90.8608L92.3016 463.116H92.3433L93.5892 457.451H95.3013L93.3038 464.828H91.4803L90.0257 459.434H89.9909L88.5432 464.828H86.7336ZM99.3975 464.974C97.1842 464.974 95.8479 463.506 95.8479 461.16V461.153C95.8479 458.829 97.2051 457.297 99.314 457.297C101.423 457.297 102.731 458.78 102.731 461.007V461.564H97.567C97.5948 462.858 98.3048 463.624 99.4323 463.624C100.295 463.624 100.859 463.165 101.026 462.671L101.04 462.622H102.662L102.641 462.698C102.411 463.833 101.325 464.974 99.3975 464.974ZM99.3348 458.655C98.4161 458.655 97.7271 459.274 97.5879 460.409H101.047C100.922 459.239 100.254 458.655 99.3348 458.655ZM103.96 464.828V454.785H105.693V464.828H103.96ZM107.277 464.828V454.785H109.01V464.828H107.277Z" fill="white"/>
</g>
</g>
</g>
<defs>
<filter id="filter0_f_2066_45934" x="80.4922" y="-50.5029" width="560" height="560" filterUnits="userSpaceOnUse" color-interpolation-filters="sRGB">
<feFlood flood-opacity="0" result="BackgroundImageFix"/>
<feBlend mode="normal" in="SourceGraphic" in2="BackgroundImageFix" result="shape"/>
<feGaussianBlur stdDeviation="80" result="effect1_foregroundBlur_2066_45934"/>
</filter>
<filter id="filter1_f_2066_45934" x="80.4922" y="32.4961" width="560" height="560" filterUnits="userSpaceOnUse" color-interpolation-filters="sRGB">
<feFlood flood-opacity="0" result="BackgroundImageFix"/>
<feBlend mode="normal" in="SourceGraphic" in2="BackgroundImageFix" result="shape"/>
<feGaussianBlur stdDeviation="80" result="effect1_foregroundBlur_2066_45934"/>
</filter>
<filter id="filter2_dd_2066_45934" x="-2" y="348.472" width="363.629" height="163.842" filterUnits="userSpaceOnUse" color-interpolation-filters="sRGB">
<feFlood flood-opacity="0" result="BackgroundImageFix"/>
<feColorMatrix in="SourceAlpha" type="matrix" values="0 0 0 0 0 0 0 0 0 0 0 0 0 0 0 0 0 0 127 0" result="hardAlpha"/>
<feOffset dy="1.85101"/>
<feGaussianBlur stdDeviation="2.77652"/>
<feComposite in2="hardAlpha" operator="out"/>
<feColorMatrix type="matrix" values="0 0 0 0 0 0 0 0 0 0 0 0 0 0 0 0 0 0 0.04 0"/>
<feBlend mode="normal" in2="BackgroundImageFix" result="effect1_dropShadow_2066_45934"/>
<feColorMatrix in="SourceAlpha" type="matrix" values="0 0 0 0 0 0 0 0 0 0 0 0 0 0 0 0 0 0 127 0" result="hardAlpha"/>
<feOffset dy="4"/>
<feGaussianBlur stdDeviation="9"/>
<feColorMatrix type="matrix" values="0 0 0 0 0.203922 0 0 0 0 0.14902 0 0 0 0 0.415686 0 0 0 0.15 0"/>
<feBlend mode="normal" in2="effect1_dropShadow_2066_45934" result="effect2_dropShadow_2066_45934"/>
<feBlend mode="normal" in="SourceGraphic" in2="effect2_dropShadow_2066_45934" result="shape"/>
</filter>
<linearGradient id="paint0_linear_2066_45934" x1="180.981" y1="361.479" x2="180.981" y2="415.063" gradientUnits="userSpaceOnUse">
<stop stop-color="#222222"/>
<stop offset="0.0666667" stop-color="#242424" stop-opacity="0.991353"/>
<stop offset="0.133333" stop-color="#2A2A2A" stop-opacity="0.96449"/>
<stop offset="0.2" stop-color="#343434" stop-opacity="0.91834"/>
<stop offset="0.266667" stop-color="#434343" stop-opacity="0.852589"/>
<stop offset="0.333333" stop-color="#555555" stop-opacity="0.768225"/>
<stop offset="0.4" stop-color="#6B6B6B" stop-opacity="0.668116"/>
<stop offset="0.466667" stop-color="#848484" stop-opacity="0.557309"/>
<stop offset="0.533333" stop-color="#9D9D9D" stop-opacity="0.442691"/>
<stop offset="0.6" stop-color="#B6B6B6" stop-opacity="0.331884"/>
<stop offset="0.666667" stop-color="#CCCCCC" stop-opacity="0.231775"/>
<stop offset="0.733333" stop-color="#DEDEDE" stop-opacity="0.147411"/>
<stop offset="0.8" stop-color="#EDEDED" stop-opacity="0.0816599"/>
<stop offset="0.866667" stop-color="#F7F7F7" stop-opacity="0.03551"/>
<stop offset="0.933333" stop-color="#FDFDFD" stop-opacity="0.01"/>
<stop offset="1" stop-color="white" stop-opacity="0"/>
</linearGradient>
<linearGradient id="paint1_linear_2066_45934" x1="226.5" y1="222" x2="226.28" y2="108.707" gradientUnits="userSpaceOnUse">
<stop offset="0.683659" stop-color="white"/>
<stop offset="1" stop-color="white" stop-opacity="0"/>
</linearGradient>
<clipPath id="clip0_2066_45934">
<rect width="360" height="510" fill="white"/>
</clipPath>
<clipPath id="clip1_2066_45934">
<rect x="300.305" y="240.294" width="22" height="71" rx="5.97235" fill="white"/>
</clipPath>
<clipPath id="clip2_2066_45934">
<rect width="44.6931" height="10.4516" fill="white" transform="translate(286.367 302.176)"/>
</clipPath>
<clipPath id="clip3_2066_45934">
<rect width="44.6931" height="10.4516" fill="white" transform="translate(286.367 291.723)"/>
</clipPath>
<clipPath id="clip4_2066_45934">
<rect width="44.6931" height="10.4516" fill="white" transform="translate(286.367 281.272)"/>
</clipPath>
<clipPath id="clip5_2066_45934">
<rect width="44.6931" height="10.4516" fill="white" transform="translate(286.367 270.819)"/>
</clipPath>
<clipPath id="clip6_2066_45934">
<rect width="44.6931" height="10.4516" fill="white" transform="translate(286.367 260.37)"/>
</clipPath>
<clipPath id="clip7_2066_45934">
<rect width="44.6931" height="10.4516" fill="white" transform="translate(286.367 249.919)"/>
</clipPath>
<clipPath id="clip8_2066_45934">
<rect width="44.6931" height="10.4516" fill="white" transform="translate(286.367 239.466)"/>
</clipPath>
<clipPath id="clip9_2066_45934">
<path d="M16 386.443C16 373.204 26.7323 362.472 39.9712 362.472H319.658C332.897 362.472 343.629 373.204 343.629 386.443V466.343C343.629 479.581 332.897 490.314 319.658 490.314H39.9712C26.7322 490.314 16 479.582 16 466.343V386.443Z" fill="white"/>
</clipPath>
<clipPath id="clip10_2066_45934">
<rect width="291.673" height="23" fill="white" transform="translate(35.9766 378.452)"/>
</clipPath>
</defs>
</svg>
