<svg width="360" height="510" viewBox="0 0 360 510" fill="none" xmlns="http://www.w3.org/2000/svg">
<g clip-path="url(#clip0_2048_27105)">
<path d="M0 0H360V510H0V0Z" fill="white"/>
<g clip-path="url(#clip1_2048_27105)">
<rect width="360.49" height="589.046" transform="translate(0 -58.5693)" fill="white"/>
<mask id="mask0_2048_27105" style="mask-type:alpha" maskUnits="userSpaceOnUse" x="0" y="-72" width="362" height="489">
<rect y="-71.5039" width="361.962" height="487.567" fill="url(#paint0_linear_2048_27105)"/>
</mask>
<g mask="url(#mask0_2048_27105)">
<rect y="-71.5693" width="360.49" height="487.52" fill="#1B2471"/>
<g filter="url(#filter0_f_2048_27105)">
<circle cx="360.492" cy="230.497" r="120" fill="#6656A5"/>
</g>
<g filter="url(#filter1_f_2048_27105)">
<circle cx="360.492" cy="313.496" r="120" fill="#51EC77" fill-opacity="0.35"/>
</g>
</g>
<path d="M39.5293 70.3564C35.3398 70.3564 32.7324 67.5537 32.7324 63.0713V63.0518C32.7324 58.5693 35.3594 55.7764 39.5293 55.7764C43.709 55.7764 46.3262 58.5791 46.3262 63.0518V63.0713C46.3262 67.5537 43.7188 70.3564 39.5293 70.3564ZM39.5293 67.8564C41.873 67.8564 43.3184 65.9912 43.3184 63.0713V63.0518C43.3184 60.1123 41.8438 58.2764 39.5293 58.2764C37.2246 58.2764 35.7402 60.1025 35.7402 63.0518V63.0713C35.7402 66.0205 37.2148 67.8564 39.5293 67.8564ZM48.339 70.1123V59.6436H51.1906V61.3623H51.2492C51.7863 60.1611 52.8605 59.4287 54.4425 59.4287C56.7472 59.4287 58.0558 60.9033 58.0558 63.3545V70.1123H55.2042V63.9404C55.2042 62.5732 54.5597 61.792 53.2804 61.792C52.0011 61.792 51.1906 62.7295 51.1906 64.0967V70.1123H48.339ZM67.6479 70.2783C65.5483 70.2783 64.1323 68.96 64.1323 67.1143V67.0947C64.1323 65.1904 65.6069 64.0771 68.2045 63.9111L70.7924 63.7549V63.1104C70.7924 62.1826 70.187 61.6064 69.0737 61.6064C68.0092 61.6064 67.3647 62.1045 67.228 62.7783L67.2084 62.8662H64.601L64.6108 62.749C64.767 60.8154 66.4272 59.4287 69.1909 59.4287C71.8959 59.4287 73.644 60.8252 73.644 62.9346V70.1123H70.7924V68.5498H70.7338C70.1381 69.624 69.0249 70.2783 67.6479 70.2783ZM66.9545 66.9678C66.9545 67.7393 67.5893 68.1982 68.5756 68.1982C69.8549 68.1982 70.7924 67.3779 70.7924 66.2842V65.5322L68.6342 65.6689C67.5307 65.7373 66.9545 66.2061 66.9545 66.9482V66.9678ZM75.9107 70.1123V56.0205H78.7623V70.1123H75.9107ZM81.1072 70.1123V56.0205H83.9587V70.1123H81.1072ZM93.668 70.2783C91.5684 70.2783 90.1524 68.96 90.1524 67.1143V67.0947C90.1524 65.1904 91.627 64.0771 94.2247 63.9111L96.8125 63.7549V63.1104C96.8125 62.1826 96.2071 61.6064 95.0938 61.6064C94.0293 61.6064 93.3848 62.1045 93.2481 62.7783L93.2286 62.8662H90.6211L90.6309 62.749C90.7872 60.8154 92.4473 59.4287 95.211 59.4287C97.9161 59.4287 99.6641 60.8252 99.6641 62.9346V70.1123H96.8125V68.5498H96.754C96.1582 69.624 95.045 70.2783 93.668 70.2783ZM92.9747 66.9678C92.9747 67.7393 93.6094 68.1982 94.5957 68.1982C95.875 68.1982 96.8125 67.3779 96.8125 66.2842V65.5322L94.6543 65.6689C93.5508 65.7373 92.9747 66.2061 92.9747 66.9482V66.9678ZM106.648 70.3271C103.454 70.3271 101.482 68.2471 101.482 64.8682V64.8584C101.482 61.5088 103.484 59.4287 106.618 59.4287C109.46 59.4287 111.267 61.1768 111.374 63.4424V63.5107H108.728L108.708 63.4229C108.532 62.4268 107.839 61.665 106.657 61.665C105.261 61.665 104.382 62.8662 104.382 64.8682V64.8779C104.382 66.9287 105.261 68.0908 106.667 68.0908C107.81 68.0908 108.523 67.3877 108.718 66.333L108.728 66.2451H111.384V66.3037C111.247 68.5889 109.441 70.3271 106.648 70.3271ZM117.899 70.3271C114.705 70.3271 112.733 68.2471 112.733 64.8682V64.8584C112.733 61.5088 114.735 59.4287 117.869 59.4287C120.711 59.4287 122.518 61.1768 122.625 63.4424V63.5107H119.979L119.959 63.4229C119.784 62.4268 119.09 61.665 117.909 61.665C116.512 61.665 115.633 62.8662 115.633 64.8682V64.8779C115.633 66.9287 116.512 68.0908 117.918 68.0908C119.061 68.0908 119.774 67.3877 119.969 66.333L119.979 66.2451H122.635V66.3037C122.498 68.5889 120.692 70.3271 117.899 70.3271ZM129.169 70.3271C125.986 70.3271 123.984 68.2861 123.984 64.8779V64.8584C123.984 61.4893 126.035 59.4287 129.16 59.4287C132.294 59.4287 134.355 61.4697 134.355 64.8584V64.8779C134.355 68.2959 132.333 70.3271 129.169 70.3271ZM129.179 68.0908C130.566 68.0908 131.455 66.9189 131.455 64.8779V64.8584C131.455 62.8369 130.546 61.665 129.16 61.665C127.783 61.665 126.884 62.8369 126.884 64.8584V64.8779C126.884 66.9287 127.773 68.0908 129.179 68.0908ZM139.747 70.3271C137.442 70.3271 136.133 68.8525 136.133 66.4014V59.6436H138.985V65.8057C138.985 67.1729 139.63 67.9639 140.909 67.9639C142.188 67.9639 142.999 67.0264 142.999 65.6592V59.6436H145.85V70.1123H142.999V68.3838H142.94C142.403 69.585 141.329 70.3271 139.747 70.3271ZM148.058 70.1123V59.6436H150.91V61.3623H150.969C151.506 60.1611 152.58 59.4287 154.162 59.4287C156.467 59.4287 157.775 60.9033 157.775 63.3545V70.1123H154.924V63.9404C154.924 62.5732 154.279 61.792 153 61.792C151.721 61.792 150.91 62.7295 150.91 64.0967V70.1123H148.058ZM164.095 70.3271C161.77 70.3271 160.677 69.4287 160.677 67.1826V61.792H159.222V59.6436H160.677V57.085H163.558V59.6436H165.472V61.792H163.558V66.8701C163.558 67.8467 163.997 68.1787 164.856 68.1787C165.11 68.1787 165.296 68.1494 165.472 68.1299V70.2197C165.149 70.2686 164.69 70.3271 164.095 70.3271ZM171.703 70.3271C168.803 70.3271 167.191 68.9893 166.967 67.0068L166.957 66.9189H169.74L169.76 67.0068C169.945 67.8271 170.561 68.3057 171.703 68.3057C172.777 68.3057 173.432 67.8857 173.432 67.2119V67.2021C173.432 66.6455 173.08 66.3232 172.055 66.0986L170.277 65.7275C168.246 65.2979 167.221 64.2822 167.221 62.7197V62.71C167.221 60.7178 168.94 59.4287 171.606 59.4287C174.389 59.4287 175.941 60.9033 176.01 62.7393V62.8369H173.383L173.373 62.7588C173.275 62.0068 172.66 61.4404 171.606 61.4404C170.619 61.4404 170.004 61.8799 170.004 62.5537V62.5635C170.004 63.1006 170.365 63.4521 171.42 63.6768L173.197 64.0576C175.385 64.5166 176.283 65.376 176.283 66.9189V66.9287C176.283 68.9795 174.399 70.3271 171.703 70.3271Z" fill="white"/>
<path d="M41.3516 105.55C38.2207 105.55 35.7324 104.087 34.2832 101.188C33.5312 99.6572 33.1211 97.7021 33.1211 95.4053C33.1211 88.8701 36.2383 84.9326 41.3652 84.9326C44.6328 84.9326 46.9844 86.3135 47.9141 88.1592C48.1055 88.542 48.2012 88.8975 48.2012 89.2666C48.2012 90.1826 47.5586 90.8936 46.4785 90.8936C45.6582 90.8936 45.166 90.5381 44.5645 89.8408C43.6621 88.7061 42.7051 88.2002 41.3516 88.2002C38.5352 88.2002 37.0996 90.8799 37.0723 95.0908V95.2959H37.1543C37.9199 93.4639 39.8613 92.124 42.5273 92.124C46.3418 92.124 48.9531 94.8447 48.9531 98.5498C48.9531 102.638 45.7539 105.55 41.3516 105.55ZM41.2969 102.269C43.3203 102.269 44.9199 100.71 44.9336 98.7275C44.9336 96.6494 43.416 95.1729 41.3379 95.1729C39.2461 95.1729 37.6875 96.6357 37.6875 98.6455C37.6875 100.683 39.2734 102.269 41.2969 102.269ZM53.9335 105.276C52.7031 105.276 51.7324 104.292 51.7324 103.075C51.7324 101.845 52.7031 100.874 53.9335 100.874C55.1503 100.874 56.1347 101.845 56.1347 103.075C56.1347 104.292 55.1503 105.276 53.9335 105.276ZM65.039 105.399C63.8222 105.399 62.9882 104.579 62.9882 103.335V89.2119H62.9061L60.0214 91.2217C59.6386 91.4951 59.3515 91.5908 58.9276 91.5908C58.0936 91.5908 57.4784 90.9893 57.4784 90.1143C57.4784 89.4854 57.7245 89.0205 58.3671 88.5693L62.2772 85.8623C63.2343 85.2061 63.8905 85.083 64.7382 85.083C66.2011 85.083 67.0761 85.9717 67.0761 87.3936V103.335C67.0761 104.579 66.2558 105.399 65.039 105.399ZM83.1717 105.399C82.037 105.399 81.2166 104.702 81.2166 103.39V101.489H73.8612C72.3709 101.489 71.3729 100.56 71.3729 99.1787C71.3729 98.3311 71.619 97.5654 72.2342 96.4854C73.5877 94.0518 75.5565 91.0439 77.703 87.8584C79.0702 85.7666 80.0682 85.083 81.7362 85.083C83.828 85.083 85.1405 86.2178 85.1405 88.0635V98.1943H86.2616C87.3553 98.1943 87.9569 98.8779 87.9569 99.8486C87.9569 100.819 87.3416 101.489 86.2616 101.489H85.1405V103.39C85.1405 104.702 84.3065 105.399 83.1717 105.399ZM81.2987 98.3037V88.3779H81.2166C78.4002 92.4385 76.5819 95.2139 74.9823 98.1943V98.3037H81.2987ZM98.1053 105.55C94.9744 105.55 92.4861 104.087 91.0369 101.188C90.2849 99.6572 89.8748 97.7021 89.8748 95.4053C89.8748 88.8701 92.992 84.9326 98.1189 84.9326C101.387 84.9326 103.738 86.3135 104.668 88.1592C104.859 88.542 104.955 88.8975 104.955 89.2666C104.955 90.1826 104.312 90.8936 103.232 90.8936C102.412 90.8936 101.92 90.5381 101.318 89.8408C100.416 88.7061 99.4588 88.2002 98.1053 88.2002C95.2889 88.2002 93.8533 90.8799 93.826 95.0908V95.2959H93.908C94.6736 93.4639 96.615 92.124 99.281 92.124C103.095 92.124 105.707 94.8447 105.707 98.5498C105.707 102.638 102.508 105.55 98.1053 105.55ZM98.0506 102.269C100.074 102.269 101.674 100.71 101.687 98.7275C101.687 96.6494 100.17 95.1729 98.0916 95.1729C95.9998 95.1729 94.4412 96.6357 94.4412 98.6455C94.4412 100.683 96.0271 102.269 98.0506 102.269ZM110.742 101.462C111.781 101.462 112.451 102.063 112.451 103.048C112.451 103.308 112.424 103.567 112.355 103.854L111.248 108.462C111.043 109.378 110.564 109.802 109.621 109.802C108.664 109.802 108.131 109.173 108.172 108.325C108.172 108.216 108.185 108.147 108.199 108.106L108.896 103.116C109.033 101.968 109.703 101.462 110.742 101.462ZM123.324 105.55C119.564 105.55 117.254 103.923 116.324 101.981C116.105 101.53 116.009 101.093 116.009 100.683C116.009 99.6162 116.693 98.9463 117.828 98.9463C118.648 98.9463 119.168 99.2744 119.578 100.026C120.275 101.407 121.341 102.228 123.392 102.228C125.416 102.228 126.81 101.052 126.81 99.4111C126.824 97.4971 125.416 96.4307 123.023 96.4307H122.162C121.164 96.4307 120.59 95.8428 120.59 94.9541C120.59 94.0928 121.164 93.4912 122.162 93.4912H122.968C125.033 93.4912 126.373 92.3701 126.373 90.7568C126.373 89.1709 125.306 88.1182 123.31 88.1182C121.642 88.1182 120.631 88.8154 119.988 90.21C119.537 91.1397 119.058 91.4814 118.129 91.4814C116.98 91.4814 116.392 90.8115 116.392 89.8135C116.392 89.3486 116.488 88.9522 116.693 88.4873C117.568 86.5596 119.81 84.9463 123.297 84.9463C127.466 84.9463 130.283 87.0107 130.283 90.1689C130.283 92.6709 128.492 94.3115 126.168 94.79V94.8721C129.107 95.1455 131.007 96.8682 131.007 99.5889C131.007 103.171 127.904 105.55 123.324 105.55ZM141.634 105.55C136.63 105.55 133.582 101.599 133.582 95.2139C133.582 88.8428 136.658 84.9326 141.634 84.9326C146.611 84.9326 149.673 88.8291 149.673 95.2002C149.673 101.571 146.638 105.55 141.634 105.55ZM141.634 102.241C144.068 102.241 145.476 99.7393 145.476 95.2139C145.476 90.7158 144.054 88.2412 141.634 88.2412C139.228 88.2412 137.779 90.7295 137.779 95.2139C137.779 99.7393 139.201 102.241 141.634 102.241ZM158.376 97.7295C157.953 97.7295 157.679 97.4424 157.679 97.0459C157.679 96.6221 157.953 96.3623 158.376 96.3623H159.757C159.73 95.9932 159.716 95.624 159.716 95.2412C159.716 94.8857 159.73 94.5439 159.757 94.2158H158.376C157.953 94.2158 157.679 93.9287 157.679 93.5322C157.679 93.1084 157.953 92.8486 158.376 92.8486H159.921C160.769 88.1592 164.16 85.3975 168.726 85.3975C172.335 85.3975 175.001 86.9014 176.3 89.5127C176.56 89.9639 176.683 90.4287 176.683 90.8662C176.683 91.8232 175.986 92.4522 174.919 92.4522C174.058 92.4522 173.566 92.0693 173.06 91.2217C172.144 89.4854 170.599 88.7334 168.808 88.7334C166.361 88.7334 164.638 90.2647 163.996 92.8486H170.298C170.722 92.8486 170.996 93.1084 170.996 93.5322C170.996 93.9287 170.722 94.2158 170.298 94.2158H163.777C163.75 94.5439 163.736 94.8857 163.722 95.2275C163.736 95.624 163.75 96.0068 163.777 96.3623H170.298C170.722 96.3623 170.996 96.6221 170.996 97.0459C170.996 97.4424 170.722 97.7295 170.298 97.7295H164.023C164.666 100.272 166.388 101.763 168.822 101.763C170.64 101.763 172.212 101.147 173.101 99.3838C173.593 98.5361 174.044 98.1533 174.878 98.1533C176.013 98.1533 176.724 98.7822 176.724 99.7666C176.724 100.122 176.656 100.505 176.492 100.888C175.343 103.622 172.281 105.085 168.835 105.085C164.16 105.085 160.796 102.378 159.935 97.7295H158.376Z" fill="white"/>
<rect x="32" y="126.112" width="84.5554" height="28.2017" rx="14.1009" fill="white" fill-opacity="0.2"/>
<mask id="mask1_2048_27105" style="mask-type:alpha" maskUnits="userSpaceOnUse" x="39" y="132" width="16" height="16">
<path d="M47.332 132.615C51.5306 132.615 54.9346 136.019 54.9346 140.218C54.9343 144.416 51.5304 147.819 47.332 147.819C43.1338 147.819 39.7307 144.416 39.7305 140.218C39.7305 136.019 43.1336 132.615 47.332 132.615ZM47.1924 135.258C45.1056 135.258 43.5555 136.52 43.168 138.663H42.4619C42.2684 138.663 42.1437 138.782 42.1436 138.976C42.1436 139.157 42.2683 139.288 42.4619 139.288H43.0928C43.0803 139.438 43.0742 139.594 43.0742 139.757C43.0742 139.932 43.0803 140.101 43.0928 140.27H42.4619C42.2683 140.27 42.1436 140.388 42.1436 140.582C42.1437 140.763 42.2685 140.894 42.4619 140.895H43.1748C43.5686 143.019 45.1055 144.256 47.2422 144.256C48.8165 144.256 50.2163 143.587 50.7412 142.338C50.8162 142.163 50.8467 141.988 50.8467 141.825C50.8467 141.375 50.5223 141.088 50.0039 141.088C49.6228 141.088 49.4163 141.263 49.1914 141.65C48.7853 142.456 48.0663 142.737 47.2354 142.737C46.1235 142.737 45.3367 142.056 45.043 140.895H47.9102C48.1037 140.895 48.2293 140.763 48.2295 140.582C48.2295 140.388 48.1038 140.27 47.9102 140.27H44.9297C44.9172 140.107 44.9115 139.932 44.9053 139.751C44.9115 139.595 44.9172 139.438 44.9297 139.288H47.9102C48.1038 139.288 48.2295 139.157 48.2295 138.976C48.2294 138.782 48.1037 138.663 47.9102 138.663H45.0303C45.324 137.482 46.1112 136.783 47.2295 136.783C48.048 136.783 48.7542 137.126 49.1729 137.92C49.404 138.307 49.6289 138.482 50.0225 138.482C50.5097 138.482 50.828 138.195 50.8281 137.758C50.8281 137.558 50.772 137.345 50.6533 137.139C50.0597 135.946 48.8415 135.258 47.1924 135.258Z" fill="#D9D9D9"/>
</mask>
<g mask="url(#mask1_2048_27105)">
<rect x="39.7266" y="132.488" width="15.4497" height="15.4497" fill="white" fill-opacity="0.7"/>
</g>
<path d="M63.7811 144.213V143.353L66.4912 140.507C67.5718 139.381 67.883 138.962 67.883 138.3V138.283C67.883 137.486 67.3342 136.897 66.4402 136.897C65.5237 136.897 64.9126 137.497 64.9126 138.391L64.907 138.408H63.7188L63.7075 138.397C63.7132 136.903 64.8674 135.851 66.5081 135.851C68.0301 135.851 69.1504 136.818 69.1504 138.165V138.182C69.1504 139.11 68.7204 139.822 67.238 141.293L65.5067 143.019V143.132H69.2805V144.213H63.7811ZM71.7416 144.298C71.272 144.298 70.9099 143.936 70.9099 143.477C70.9099 143.013 71.272 142.651 71.7416 142.651C72.2112 142.651 72.5677 143.013 72.5677 143.477C72.5677 143.936 72.2112 144.298 71.7416 144.298ZM76.7828 135.851C78.4179 135.851 79.9625 137.005 79.9625 140.003V140.015C79.9625 142.781 78.7574 144.411 76.7375 144.411C75.2891 144.411 74.2141 143.562 73.9482 142.329L73.9312 142.261H75.1929L75.2099 142.318C75.4419 142.94 75.9737 143.336 76.7375 143.336C78.1124 143.336 78.6895 141.995 78.7517 140.366C78.7517 140.303 78.7574 140.241 78.7574 140.179H78.6442C78.35 140.835 77.6088 141.418 76.4999 141.418C74.944 141.418 73.8237 140.264 73.8237 138.702V138.691C73.8237 137.05 75.0685 135.851 76.7828 135.851ZM76.7771 140.394C77.7559 140.394 78.5084 139.681 78.5084 138.696V138.691C78.5084 137.695 77.7559 136.914 76.7941 136.914C75.8379 136.914 75.0741 137.678 75.0741 138.657V138.668C75.0741 139.67 75.7927 140.394 76.7771 140.394ZM81.5693 144.213V143.353L84.2794 140.507C85.3601 139.381 85.6713 138.962 85.6713 138.3V138.283C85.6713 137.486 85.1224 136.897 84.2285 136.897C83.3119 136.897 82.7009 137.497 82.7009 138.391L82.6952 138.408H81.5071L81.4958 138.397C81.5014 136.903 82.6556 135.851 84.2964 135.851C85.8184 135.851 86.9386 136.818 86.9386 138.165V138.182C86.9386 139.11 86.5086 139.822 85.0263 141.293L83.295 143.019V143.132H87.0687V144.213H81.5693ZM91.612 144.411C89.7279 144.411 88.5964 142.764 88.5964 140.134V140.122C88.5964 137.491 89.7279 135.851 91.612 135.851C93.4904 135.851 94.6276 137.491 94.6276 140.122V140.134C94.6276 142.764 93.4904 144.411 91.612 144.411ZM91.612 143.359C92.704 143.359 93.3489 142.131 93.3489 140.134V140.122C93.3489 138.125 92.704 136.909 91.612 136.909C90.5144 136.909 89.875 138.125 89.875 140.122V140.134C89.875 142.131 90.5144 143.359 91.612 143.359ZM99.2614 141.254V140.603H100.24C100.229 140.45 100.223 140.292 100.223 140.128V140.122C100.223 139.975 100.229 139.828 100.24 139.687H99.2614V139.036H100.336C100.766 137.141 102.373 136.167 104.535 136.167C104.948 136.167 105.44 136.213 105.734 136.298V137.661C105.434 137.599 104.998 137.559 104.597 137.559C103.352 137.559 102.435 138.051 102.062 139.036H105.123V139.687H101.909C101.892 139.828 101.887 139.975 101.887 140.128V140.134C101.887 140.303 101.892 140.456 101.915 140.603H105.123V141.254H102.073C102.447 142.227 103.363 142.697 104.636 142.697C105.004 142.697 105.474 142.674 105.757 142.617V143.992C105.468 144.06 105.01 144.094 104.574 144.094C102.39 144.094 100.789 143.138 100.342 141.254H99.2614Z" fill="white"/>
<rect x="124.281" y="126.112" width="80.5554" height="28.2017" rx="14.1009" fill="white" fill-opacity="0.2"/>
<mask id="mask2_2048_27105" style="mask-type:alpha" maskUnits="userSpaceOnUse" x="133" y="135" width="14" height="12">
<path d="M135.23 136.994H144.243V143.432H135.23V136.994Z" fill="url(#paint1_linear_2048_27105)"/>
<path fill-rule="evenodd" clip-rule="evenodd" d="M146.172 135.062H135.228C134.162 135.062 133.297 135.927 133.297 136.994V145.362H144.24C145.307 145.362 146.172 144.498 146.172 143.431V135.062ZM144.24 136.994H135.228V143.431H144.24V136.994ZM137.481 140.212C137.481 139.146 138.346 138.281 139.412 138.281H140.056C141.123 138.281 141.987 139.146 141.987 140.212C141.987 141.279 141.123 142.144 140.056 142.144H139.412C138.346 142.144 137.481 141.279 137.481 140.212ZM138.769 140.212C138.769 139.857 139.057 139.569 139.412 139.569H140.056C140.412 139.569 140.7 139.857 140.7 140.212C140.7 140.568 140.412 140.856 140.056 140.856H139.412C139.057 140.856 138.769 140.568 138.769 140.212Z" fill="black"/>
<path opacity="0.7" fill-rule="evenodd" clip-rule="evenodd" d="M137.162 145.363H135.23V146.651H135.874C136.585 146.651 137.162 146.074 137.162 145.363ZM144.243 145.363H142.312V146.651H142.955C143.666 146.651 144.243 146.074 144.243 145.363Z" fill="black"/>
</mask>
<g mask="url(#mask2_2048_27105)">
<path d="M132.008 132.488H147.457V147.938H132.008V132.488Z" fill="white" fill-opacity="0.7"/>
</g>
<path d="M158.06 144.213V137.356H157.963L155.91 138.821V137.576L158.06 136.049H159.327V144.213H158.06ZM162.292 144.298C161.822 144.298 161.46 143.936 161.46 143.477C161.46 143.013 161.822 142.651 162.292 142.651C162.761 142.651 163.118 143.013 163.118 143.477C163.118 143.936 162.761 144.298 162.292 144.298ZM166.58 144.213V137.356H166.484L164.43 138.821V137.576L166.58 136.049H167.848V144.213H166.58ZM173.041 144.411C171.157 144.411 170.026 142.764 170.026 140.134V140.122C170.026 137.491 171.157 135.851 173.041 135.851C174.92 135.851 176.057 137.491 176.057 140.122V140.134C176.057 142.764 174.92 144.411 173.041 144.411ZM173.041 143.359C174.133 143.359 174.778 142.131 174.778 140.134V140.122C174.778 138.125 174.133 136.909 173.041 136.909C171.944 136.909 171.305 138.125 171.305 140.122V140.134C171.305 142.131 171.944 143.359 173.041 143.359ZM180.516 144.411C178.909 144.411 177.8 143.409 177.687 142.086L177.681 142.012H178.869L178.875 142.057C178.982 142.776 179.633 143.347 180.527 143.347C181.534 143.347 182.235 142.629 182.235 141.605V141.593C182.235 140.586 181.523 139.873 180.538 139.873C180.04 139.873 179.616 140.02 179.293 140.315C179.146 140.445 179.016 140.603 178.92 140.79H177.828L178.235 136.049H182.982V137.124H179.231L178.982 139.726H179.078C179.424 139.177 180.063 138.861 180.815 138.861C182.349 138.861 183.446 140.003 183.446 141.571V141.582C183.446 143.257 182.235 144.411 180.516 144.411ZM187.876 141.271V140.603H188.946C188.929 140.45 188.923 140.292 188.923 140.134V140.122C188.923 139.964 188.929 139.805 188.946 139.653H187.876V138.985H189.048C189.5 137.078 191.124 136.167 193.087 136.167C193.506 136.167 194.038 136.213 194.298 136.292V137.373C194.032 137.31 193.529 137.271 193.11 137.271C191.786 137.271 190.756 137.825 190.366 138.985H193.41V139.653H190.219C190.202 139.805 190.19 139.97 190.19 140.134V140.145C190.19 140.303 190.202 140.456 190.219 140.603H193.41V141.271H190.36C190.745 142.442 191.78 142.991 193.121 142.991C193.529 142.991 194.043 142.963 194.304 142.895V143.975C194.055 144.06 193.529 144.094 193.104 144.094C191.113 144.094 189.5 143.178 189.048 141.271H187.876Z" fill="white"/>
<rect x="212.559" y="126.112" width="74.5554" height="28.2017" rx="14.1009" fill="white" fill-opacity="0.2"/>
<mask id="mask3_2048_27105" style="mask-type:alpha" maskUnits="userSpaceOnUse" x="221" y="133" width="14" height="13">
<path fill-rule="evenodd" clip-rule="evenodd" d="M225.117 135.064C225.117 134.353 225.694 133.776 226.405 133.776H226.727H229.301H229.623C230.334 133.776 230.911 134.353 230.911 135.064V136.029H230.589C229.989 136.029 229.485 135.619 229.342 135.064H226.686C226.543 135.619 226.039 136.029 225.439 136.029H225.117V135.064Z" fill="black"/>
<path fill-rule="evenodd" clip-rule="evenodd" d="M234.449 139.57H221.574V145.686H231.874C233.296 145.686 234.449 144.533 234.449 143.111V139.57ZM227.69 140.536C226.979 140.536 226.402 141.112 226.402 141.823V142.145H228.333C229.045 142.145 229.621 141.569 229.621 140.858V140.536H227.69Z" fill="url(#paint2_linear_2048_27105)"/>
<path d="M221.574 139.248C221.574 137.826 222.727 136.673 224.149 136.673H234.449V139.57H221.574V139.248Z" fill="black"/>
</mask>
<g mask="url(#mask3_2048_27105)">
<path d="M220.285 132.488H235.735V147.938H220.285V132.488Z" fill="white" fill-opacity="0.7"/>
</g>
<path d="M247.27 144.366C245.46 144.366 244.181 143.393 244.181 142.006V141.995C244.181 140.965 244.922 140.145 245.992 139.913V139.885C245.075 139.624 244.475 138.94 244.475 138.074V138.063C244.475 136.812 245.647 135.896 247.27 135.896C248.9 135.896 250.065 136.812 250.065 138.063V138.074C250.065 138.94 249.471 139.624 248.555 139.885V139.913C249.624 140.145 250.365 140.965 250.365 141.995V142.006C250.365 143.393 249.087 144.366 247.27 144.366ZM247.27 139.46C248.187 139.46 248.809 138.928 248.809 138.182V138.17C248.809 137.423 248.181 136.903 247.27 136.903C246.36 136.903 245.731 137.423 245.731 138.17V138.182C245.731 138.928 246.36 139.46 247.27 139.46ZM247.27 143.347C248.317 143.347 249.058 142.753 249.058 141.927V141.916C249.058 141.078 248.323 140.473 247.27 140.473C246.224 140.473 245.488 141.078 245.488 141.916V141.927C245.488 142.753 246.229 143.347 247.27 143.347ZM254.761 135.851C256.397 135.851 257.941 137.005 257.941 140.003V140.015C257.941 142.781 256.736 144.411 254.716 144.411C253.268 144.411 252.193 143.562 251.927 142.329L251.91 142.261H253.172L253.189 142.318C253.42 142.94 253.952 143.336 254.716 143.336C256.091 143.336 256.668 141.995 256.73 140.366C256.73 140.303 256.736 140.241 256.736 140.179H256.623C256.329 140.835 255.587 141.418 254.479 141.418C252.923 141.418 251.802 140.264 251.802 138.702V138.691C251.802 137.05 253.047 135.851 254.761 135.851ZM254.756 140.394C255.735 140.394 256.487 139.681 256.487 138.696V138.691C256.487 137.695 255.735 136.914 254.773 136.914C253.817 136.914 253.053 137.678 253.053 138.657V138.668C253.053 139.67 253.771 140.394 254.756 140.394ZM262.377 144.411C260.77 144.411 259.661 143.409 259.548 142.086L259.542 142.012H260.73L260.736 142.057C260.844 142.776 261.494 143.347 262.388 143.347C263.395 143.347 264.097 142.629 264.097 141.605V141.593C264.097 140.586 263.384 139.873 262.399 139.873C261.902 139.873 261.477 140.02 261.155 140.315C261.008 140.445 260.878 140.603 260.781 140.79H259.689L260.097 136.049H264.844V137.124H261.093L260.844 139.726H260.94C261.285 139.177 261.924 138.861 262.677 138.861C264.21 138.861 265.308 140.003 265.308 141.571V141.582C265.308 143.257 264.097 144.411 262.377 144.411ZM269.738 141.271V140.603H270.807C270.79 140.45 270.784 140.292 270.784 140.134V140.122C270.784 139.964 270.79 139.805 270.807 139.653H269.738V138.985H270.909C271.362 137.078 272.985 136.167 274.949 136.167C275.367 136.167 275.899 136.213 276.159 136.292V137.373C275.893 137.31 275.39 137.271 274.971 137.271C273.647 137.271 272.618 137.825 272.227 138.985H275.271V139.653H272.08C272.063 139.805 272.052 139.97 272.052 140.134V140.145C272.052 140.303 272.063 140.456 272.08 140.603H275.271V141.271H272.222C272.606 142.442 273.642 142.991 274.983 142.991C275.39 142.991 275.905 142.963 276.165 142.895V143.975C275.916 144.06 275.39 144.094 274.966 144.094C272.974 144.094 271.362 143.178 270.909 141.271H269.738Z" fill="white"/>
<rect x="294.84" y="126.112" width="73.5554" height="28.2017" rx="14.1009" fill="white" fill-opacity="0.2"/>
<mask id="mask4_2048_27105" style="mask-type:alpha" maskUnits="userSpaceOnUse" x="303" y="133" width="14" height="13">
<path fill-rule="evenodd" clip-rule="evenodd" d="M307.398 135.064C307.398 134.353 307.975 133.776 308.686 133.776H309.008H311.583H311.905C312.616 133.776 313.192 134.353 313.192 135.064V136.029H312.87C312.27 136.029 311.766 135.619 311.623 135.064H308.967C308.824 135.619 308.32 136.029 307.72 136.029H307.398V135.064Z" fill="black"/>
<path fill-rule="evenodd" clip-rule="evenodd" d="M316.73 139.57H303.855V145.686H314.155C315.577 145.686 316.73 144.533 316.73 143.111V139.57ZM309.971 140.536C309.26 140.536 308.683 141.112 308.683 141.823V142.145H310.615C311.326 142.145 311.902 141.569 311.902 140.858V140.536H309.971Z" fill="url(#paint3_linear_2048_27105)"/>
<path d="M303.855 139.248C303.855 137.826 305.008 136.673 306.43 136.673H316.73V139.57H303.855V139.248Z" fill="black"/>
</mask>
<g mask="url(#mask4_2048_27105)">
<path d="M302.566 132.488H318.016V147.938H302.566V132.488Z" fill="white" fill-opacity="0.7"/>
</g>
<path d="M326.966 144.213L330.564 137.208V137.118H326.287V136.049H331.849V137.146L328.296 144.213H326.966ZM336.137 144.366C334.327 144.366 333.048 143.393 333.048 142.006V141.995C333.048 140.965 333.789 140.145 334.859 139.913V139.885C333.942 139.624 333.342 138.94 333.342 138.074V138.063C333.342 136.812 334.514 135.896 336.137 135.896C337.767 135.896 338.932 136.812 338.932 138.063V138.074C338.932 138.94 338.338 139.624 337.422 139.885V139.913C338.491 140.145 339.232 140.965 339.232 141.995V142.006C339.232 143.393 337.954 144.366 336.137 144.366ZM336.137 139.46C337.054 139.46 337.676 138.928 337.676 138.182V138.17C337.676 137.423 337.048 136.903 336.137 136.903C335.226 136.903 334.598 137.423 334.598 138.17V138.182C334.598 138.928 335.226 139.46 336.137 139.46ZM336.137 143.347C337.184 143.347 337.925 142.753 337.925 141.927V141.916C337.925 141.078 337.19 140.473 336.137 140.473C335.091 140.473 334.355 141.078 334.355 141.916V141.927C334.355 142.753 335.096 143.347 336.137 143.347ZM343.702 144.411C341.818 144.411 340.686 142.764 340.686 140.134V140.122C340.686 137.491 341.818 135.851 343.702 135.851C345.58 135.851 346.718 137.491 346.718 140.122V140.134C346.718 142.764 345.58 144.411 343.702 144.411ZM343.702 143.359C344.794 143.359 345.439 142.131 345.439 140.134V140.122C345.439 138.125 344.794 136.909 343.702 136.909C342.604 136.909 341.965 138.125 341.965 140.122V140.134C341.965 142.131 342.604 143.359 343.702 143.359ZM351.182 141.271V140.603H352.251C352.234 140.45 352.228 140.292 352.228 140.134V140.122C352.228 139.964 352.234 139.805 352.251 139.653H351.182V138.985H352.353C352.805 137.078 354.429 136.167 356.392 136.167C356.811 136.167 357.343 136.213 357.603 136.292V137.373C357.337 137.31 356.834 137.271 356.415 137.271C355.091 137.271 354.061 137.825 353.671 138.985H356.715V139.653H353.524C353.507 139.805 353.496 139.97 353.496 140.134V140.145C353.496 140.303 353.507 140.456 353.524 140.603H356.715V141.271H353.665C354.05 142.442 355.086 142.991 356.426 142.991C356.834 142.991 357.349 142.963 357.609 142.895V143.975C357.36 144.06 356.834 144.094 356.409 144.094C354.418 144.094 352.805 143.178 352.353 141.271H351.182Z" fill="white"/>
<g clip-path="url(#clip2_2048_27105)">
<g clip-path="url(#clip3_2048_27105)">
<g clip-path="url(#clip4_2048_27105)">
<g opacity="0.45" filter="url(#filter2_d_2048_27105)">
<path d="M111.827 244.599C111.827 244.599 138.867 293.934 158.421 291.929L176.568 281.384L196.922 262.256L210.625 257.337L226.668 263.8L239.202 271.877L250.734 275.888H262.265C269.705 270.406 277.386 265.828 284.826 260.346L319.922 231.267V281.403L321.426 318.002H-0.449219L-0.449219 303.964L43.1694 271.877L86.3225 236.997L100.301 235.28L111.827 244.599Z" fill="url(#paint4_linear_2048_27105)" shape-rendering="crispEdges"/>
</g>
<path d="M-0.953125 303.964L40.66 273.381L81.5291 239.76C90.063 232.74 102.709 234.15 109.487 242.877L141.432 284.008C148.376 292.95 161.427 294.174 169.913 286.68L196.773 262.958C202.976 257.48 211.95 256.484 219.203 260.467L246.038 275.204C253.098 279.081 261.811 278.249 268.009 273.105L315.407 233.773" stroke="url(#paint5_linear_2048_27105)" stroke-width="3.01115" stroke-linecap="round"/>
</g>
<g clip-path="url(#clip5_2048_27105)">
<g opacity="0.2" filter="url(#filter3_d_2048_27105)">
<path d="M-26.0703 195.921L56.5075 162.986C56.5075 162.986 79.4722 149.521 91.4229 148.554C103.374 147.587 135.206 152.995 135.206 152.995L205.591 170.757L225.614 179.461L230.126 169.935L241.156 167.93L257.701 166.927L286.78 257.674L315.859 233.107L362.987 195.505L360.982 213.053V303.799H-26.0703V195.921Z" fill="url(#paint6_linear_2048_27105)" shape-rendering="crispEdges"/>
</g>
<path d="M-21.0586 230.598L42.227 204.83L79.4474 188.181C89.346 183.754 100.299 182.23 111.03 183.787L122.77 185.49C130.813 186.656 138.516 189.523 145.365 193.899L254.639 263.711C263.84 269.59 273.188 269.012 281.589 262.037C289.366 255.581 301.846 245.22 321.874 228.593L364.413 194.817" stroke="#3ED68B" stroke-width="3.01115" stroke-linecap="round" stroke-dasharray="6.02 6.02"/>
</g>
<circle cx="315.356" cy="232.103" r="6.01636" fill="#516792" stroke="#3ED68B" stroke-width="3.00818"/>
</g>
<path d="M35.3517 338.039C33.7647 338.039 32.8697 337.055 32.7745 335.741L32.7682 335.652H33.9107L33.9171 335.716C33.9869 336.408 34.4376 336.985 35.3453 336.985C36.3609 336.985 36.9068 336.382 36.9068 335.265V328.664H38.0494V335.278C38.0494 337.011 37.0465 338.039 35.3517 338.039ZM42.1246 337.944C40.8233 337.944 39.8394 337.157 39.8394 335.913V335.9C39.8394 334.681 40.7408 333.977 42.3341 333.881L44.2955 333.761V333.139C44.2955 332.294 43.7813 331.837 42.7594 331.837C41.9405 331.837 41.401 332.142 41.2232 332.675L41.2169 332.694H40.1124L40.1187 332.656C40.2965 331.583 41.3375 330.86 42.7975 330.86C44.4669 330.86 45.4 331.717 45.4 333.139V337.823H44.2955V336.814H44.1939C43.7623 337.544 43.045 337.944 42.1246 337.944ZM40.9693 335.887C40.9693 336.579 41.5597 336.985 42.3531 336.985C43.4767 336.985 44.2955 336.249 44.2955 335.271V334.649L42.4674 334.764C41.4264 334.827 40.9693 335.195 40.9693 335.875V335.887ZM47.4185 337.823V330.98H48.523V332.009H48.6246C48.9674 331.285 49.6085 330.86 50.6178 330.86C52.1539 330.86 53.0108 331.768 53.0108 333.393V337.823H51.9063V333.659C51.9063 332.428 51.3985 331.837 50.3067 331.837C49.2149 331.837 48.523 332.574 48.523 333.773V337.823H47.4185Z" fill="white" fill-opacity="0.7"/>
<path d="M85.9029 337.823V328.664H91.4635V329.692H87.0455V332.84H91.1017V333.856H87.0455V337.823H85.9029ZM95.9957 337.944C94.0406 337.944 92.86 336.573 92.86 334.427V334.421C92.86 332.307 94.066 330.86 95.9259 330.86C97.7857 330.86 98.9156 332.244 98.9156 334.288V334.719H93.9898C94.0216 336.135 94.8023 336.96 96.0211 336.96C96.9478 336.96 97.5191 336.522 97.7032 336.109L97.7286 336.052H98.8331L98.8204 336.103C98.5855 337.03 97.608 337.944 95.9957 337.944ZM95.9195 331.844C94.9039 331.844 94.1295 332.536 94.0089 333.837H97.7921C97.6778 332.485 96.9288 331.844 95.9195 331.844ZM104.032 337.944C103.08 337.944 102.318 337.493 101.899 336.731H101.797V337.823H100.693V328.264H101.797V332.06H101.899C102.274 331.33 103.092 330.86 104.032 330.86C105.771 330.86 106.901 332.25 106.901 334.396V334.408C106.901 336.541 105.765 337.944 104.032 337.944ZM103.778 336.966C105.028 336.966 105.771 336.001 105.771 334.408V334.396C105.771 332.802 105.028 331.837 103.778 331.837C102.534 331.837 101.772 332.815 101.772 334.396V334.408C101.772 335.989 102.534 336.966 103.778 336.966Z" fill="white" fill-opacity="0.7"/>
<path d="M141.144 337.823V328.664H142.471L145.607 336.306H145.708L148.844 328.664H150.17V337.823H149.104V330.828H149.034L146.14 337.823H145.175L142.28 330.828H142.211V337.823H141.144ZM154.246 337.944C152.944 337.944 151.961 337.157 151.961 335.913V335.9C151.961 334.681 152.862 333.977 154.455 333.881L156.417 333.761V333.139C156.417 332.294 155.902 331.837 154.88 331.837C154.062 331.837 153.522 332.142 153.344 332.675L153.338 332.694H152.233L152.24 332.656C152.418 331.583 153.459 330.86 154.919 330.86C156.588 330.86 157.521 331.717 157.521 333.139V337.823H156.417V336.814H156.315C155.883 337.544 155.166 337.944 154.246 337.944ZM153.09 335.887C153.09 336.579 153.681 336.985 154.474 336.985C155.598 336.985 156.417 336.249 156.417 335.271V334.649L154.588 334.764C153.547 334.827 153.09 335.195 153.09 335.875V335.887ZM159.54 337.823V330.98H160.644V331.996H160.746C161.006 331.279 161.647 330.86 162.574 330.86C162.783 330.86 163.018 330.885 163.126 330.904V331.977C162.898 331.939 162.688 331.914 162.447 331.914C161.393 331.914 160.644 332.58 160.644 333.583V337.823H159.54Z" fill="white" fill-opacity="0.7"/>
<path d="M194.393 337.823L197.77 328.664H198.9L202.277 337.823H201.077L200.157 335.202H196.513L195.593 337.823H194.393ZM198.284 330.143L196.85 334.23H199.82L198.386 330.143H198.284ZM203.743 340.108V330.98H204.848V332.072H204.949C205.368 331.311 206.13 330.86 207.082 330.86C208.815 330.86 209.951 332.263 209.951 334.396V334.408C209.951 336.554 208.821 337.944 207.082 337.944C206.143 337.944 205.324 337.474 204.949 336.744H204.848V340.108H203.743ZM206.828 336.966C208.079 336.966 208.821 336.001 208.821 334.408V334.396C208.821 332.802 208.079 331.837 206.828 331.837C205.584 331.837 204.822 332.815 204.822 334.396V334.408C204.822 335.989 205.584 336.966 206.828 336.966ZM211.678 337.823V330.98H212.782V331.996H212.884C213.144 331.279 213.785 330.86 214.712 330.86C214.921 330.86 215.156 330.885 215.264 330.904V331.977C215.036 331.939 214.826 331.914 214.585 331.914C213.531 331.914 212.782 332.58 212.782 333.583V337.823H211.678Z" fill="white" fill-opacity="0.7"/>
<path d="M246.338 337.823V328.664H247.665L250.801 336.306H250.902L254.038 328.664H255.365V337.823H254.298V330.828H254.229L251.334 337.823H250.369L247.475 330.828H247.405V337.823H246.338ZM259.44 337.944C258.139 337.944 257.155 337.157 257.155 335.913V335.9C257.155 334.681 258.056 333.977 259.65 333.881L261.611 333.761V333.139C261.611 332.294 261.097 331.837 260.075 331.837C259.256 331.837 258.716 332.142 258.539 332.675L258.532 332.694H257.428L257.434 332.656C257.612 331.583 258.653 330.86 260.113 330.86C261.782 330.86 262.715 331.717 262.715 333.139V337.823H261.611V336.814H261.509C261.078 337.544 260.36 337.944 259.44 337.944ZM258.285 335.887C258.285 336.579 258.875 336.985 259.669 336.985C260.792 336.985 261.611 336.249 261.611 335.271V334.649L259.783 334.764C258.742 334.827 258.285 335.195 258.285 335.875V335.887ZM265.064 340.223C264.918 340.223 264.728 340.21 264.575 340.185V339.277C264.709 339.302 264.88 339.309 265.032 339.309C265.661 339.309 266.042 339.023 266.289 338.236L266.416 337.83L263.883 330.98H265.064L266.943 336.611H267.045L268.917 330.98H270.079L267.406 338.242C266.841 339.778 266.276 340.223 265.064 340.223Z" fill="white" fill-opacity="0.7"/>
<path d="M305.939 338.039C304.352 338.039 303.457 337.055 303.362 335.741L303.356 335.652H304.498L304.504 335.716C304.574 336.408 305.025 336.985 305.933 336.985C306.948 336.985 307.494 336.382 307.494 335.265V328.664H308.637V335.278C308.637 337.011 307.634 338.039 305.939 338.039ZM313.125 337.944C311.569 337.944 310.77 337.03 310.77 335.411V330.98H311.874V335.145C311.874 336.376 312.318 336.966 313.41 336.966C314.616 336.966 315.257 336.23 315.257 335.03V330.98H316.362V337.823H315.257V336.801H315.156C314.819 337.531 314.128 337.944 313.125 337.944ZM318.425 337.823V330.98H319.529V332.009H319.631C319.974 331.285 320.615 330.86 321.624 330.86C323.16 330.86 324.017 331.768 324.017 333.393V337.823H322.913V333.659C322.913 332.428 322.405 331.837 321.313 331.837C320.221 331.837 319.529 332.574 319.529 333.773V337.823H318.425Z" fill="white" fill-opacity="0.7"/>
</g>
<g filter="url(#filter4_dd_2048_27105)">
<g clip-path="url(#clip6_2048_27105)">
<rect x="16" y="363.472" width="327.629" height="127.842" rx="23.9712" fill="white"/>
<g clip-path="url(#clip7_2048_27105)">
<path d="M37.0959 397.452V383.992H46.0135V386.315H39.913V389.542H45.6684V391.743H39.913V395.129H46.0135V397.452H37.0959ZM48.1768 397.452V387.453H50.9005V389.094H50.9565C51.4696 387.947 52.4956 387.247 54.0068 387.247C56.2082 387.247 57.4581 388.656 57.4581 390.997V397.452H54.7344V391.557C54.7344 390.251 54.1187 389.505 52.8967 389.505C51.6748 389.505 50.9005 390.4 50.9005 391.706V397.452H48.1768ZM64.1362 397.657C61.0952 397.657 59.183 395.708 59.183 392.452V392.434C59.183 389.216 61.1419 387.247 64.1268 387.247C67.1211 387.247 69.0893 389.197 69.0893 392.434V392.452C69.0893 395.717 67.1584 397.657 64.1362 397.657ZM64.1455 395.521C65.4701 395.521 66.3189 394.402 66.3189 392.452V392.434C66.3189 390.503 65.4514 389.383 64.1268 389.383C62.8116 389.383 61.9534 390.503 61.9534 392.434V392.452C61.9534 394.411 62.8023 395.521 64.1455 395.521ZM74.2656 397.657C72.0642 397.657 70.8142 396.249 70.8142 393.908V387.453H73.538V393.338C73.538 394.644 74.1536 395.4 75.3756 395.4C76.5976 395.4 77.3718 394.504 77.3718 393.199V387.453H80.0956V397.452H77.3718V395.801H77.3158C76.8028 396.948 75.7767 397.657 74.2656 397.657ZM86.9042 400.922C84.1524 400.922 82.4174 399.682 82.1562 398.077L82.1469 397.993H84.7961L84.824 398.058C85.0386 398.553 85.7662 398.982 86.9042 398.982C88.3127 398.982 89.059 398.254 89.059 397.135V395.605H89.003C88.4806 396.65 87.3613 397.312 85.9154 397.312C83.4155 397.312 81.8671 395.447 81.8671 392.34V392.331C81.8671 389.141 83.4342 387.247 85.9621 387.247C87.3706 387.247 88.462 387.994 89.003 389.16H89.059V387.453H91.7827V397.172C91.7827 399.402 89.9078 400.922 86.9042 400.922ZM86.8575 395.316C88.1915 395.316 89.0683 394.197 89.0683 392.406V392.396C89.0683 390.615 88.1821 389.505 86.8575 389.505C85.505 389.505 84.6375 390.605 84.6375 392.396V392.406C84.6375 394.206 85.4957 395.316 86.8575 395.316ZM94.002 397.452V383.992H96.7258V389.178H96.7817C97.2948 387.938 98.3488 387.247 99.8506 387.247C102.015 387.247 103.358 388.758 103.358 391.174V397.452H100.634V391.734C100.634 390.335 99.9439 389.505 98.7033 389.505C97.5 389.505 96.7258 390.419 96.7258 391.725V397.452H94.002ZM110.352 397.452V389.505H108.99V387.453H110.352V386.65C110.352 384.691 111.285 383.787 113.645 383.787C114.149 383.787 114.699 383.833 115.016 383.899V385.699C114.83 385.662 114.569 385.652 114.317 385.652C113.412 385.652 113.011 386.035 113.011 386.753V387.453H114.998V389.505H113.076V397.452H110.352ZM120.678 397.657C117.637 397.657 115.724 395.708 115.724 392.452V392.434C115.724 389.216 117.683 387.247 120.668 387.247C123.663 387.247 125.631 389.197 125.631 392.434V392.452C125.631 395.717 123.7 397.657 120.678 397.657ZM120.687 395.521C122.012 395.521 122.86 394.402 122.86 392.452V392.434C122.86 390.503 121.993 389.383 120.668 389.383C119.353 389.383 118.495 390.503 118.495 392.434V392.452C118.495 394.411 119.344 395.521 120.687 395.521ZM127.402 397.452V387.453H130.126V389.197H130.182C130.481 387.966 131.292 387.247 132.458 387.247C132.757 387.247 133.036 387.294 133.242 387.35V389.747C133.018 389.654 132.645 389.598 132.253 389.598C130.91 389.598 130.126 390.4 130.126 391.855V397.452H127.402ZM145.357 397.452V394.98H138.66V392.63L144.06 383.992H148.034V392.732H149.807V394.98H148.034V397.452H145.357ZM141.113 392.807H145.413V386.025H145.348L141.113 392.732V392.807ZM155.756 397.452V387.453H158.48V389.132H158.536C158.946 387.994 159.991 387.247 161.334 387.247C162.733 387.247 163.75 387.994 164.086 389.309H164.142C164.59 388.05 165.784 387.247 167.248 387.247C169.207 387.247 170.522 388.6 170.522 390.615V397.452H167.799V391.296C167.799 390.139 167.22 389.505 166.166 389.505C165.131 389.505 164.45 390.26 164.45 391.37V397.452H161.829V391.212C161.829 390.139 161.222 389.505 160.215 389.505C159.18 389.505 158.48 390.288 158.48 391.417V397.452H155.756ZM177.2 397.657C174.159 397.657 172.247 395.708 172.247 392.452V392.434C172.247 389.216 174.206 387.247 177.191 387.247C180.185 387.247 182.154 389.197 182.154 392.434V392.452C182.154 395.717 180.223 397.657 177.2 397.657ZM177.21 395.521C178.534 395.521 179.383 394.402 179.383 392.452V392.434C179.383 390.503 178.516 389.383 177.191 389.383C175.876 389.383 175.018 390.503 175.018 392.434V392.452C175.018 394.411 175.866 395.521 177.21 395.521ZM183.925 397.452V387.453H186.649V389.094H186.705C187.218 387.947 188.244 387.247 189.755 387.247C191.956 387.247 193.206 388.656 193.206 390.997V397.452H190.483V391.557C190.483 390.251 189.867 389.505 188.645 389.505C187.423 389.505 186.649 390.4 186.649 391.706V397.452H183.925ZM199.269 397.657C197.049 397.657 196.004 396.799 196.004 394.654V389.505H194.614V387.453H196.004V385.009H198.756V387.453H200.584V389.505H198.756V394.355C198.756 395.288 199.176 395.605 199.996 395.605C200.239 395.605 200.416 395.577 200.584 395.559V397.555C200.276 397.601 199.838 397.657 199.269 397.657ZM202.514 397.452V383.992H205.238V389.178H205.294C205.807 387.938 206.861 387.247 208.363 387.247C210.527 387.247 211.87 388.758 211.87 391.174V397.452H209.146V391.734C209.146 390.335 208.456 389.505 207.215 389.505C206.012 389.505 205.238 390.419 205.238 391.725V397.452H202.514ZM218.1 397.657C215.33 397.657 213.791 396.379 213.576 394.486L213.567 394.402H216.225L216.244 394.486C216.421 395.269 217.009 395.726 218.1 395.726C219.126 395.726 219.751 395.325 219.751 394.682V394.672C219.751 394.141 219.416 393.833 218.436 393.618L216.739 393.264C214.798 392.853 213.819 391.883 213.819 390.391V390.382C213.819 388.479 215.461 387.247 218.007 387.247C220.666 387.247 222.149 388.656 222.214 390.41V390.503H219.705L219.696 390.428C219.602 389.71 219.015 389.169 218.007 389.169C217.065 389.169 216.477 389.589 216.477 390.232V390.242C216.477 390.755 216.822 391.09 217.83 391.305L219.528 391.669C221.617 392.107 222.475 392.928 222.475 394.402V394.411C222.475 396.37 220.675 397.657 218.1 397.657Z" fill="#333333"/>
</g>
<path d="M39.6085 425.452L36.6533 414.601H38.067L40.2251 423.422H40.3153L42.7441 414.601H44.1127L46.5415 423.422H46.6317L48.7898 414.601H50.2035L47.2483 425.452H45.97L43.4735 416.887H43.3833L40.8868 425.452H39.6085ZM52.0823 425.452V417.346H53.3907V425.452H52.0823ZM52.744 415.782C52.4984 415.782 52.2853 415.694 52.1049 415.519C51.9294 415.338 51.8417 415.125 51.8417 414.88C51.8417 414.629 51.9294 414.416 52.1049 414.241C52.2853 414.065 52.4984 413.977 52.744 413.977C52.9947 413.977 53.2077 414.065 53.3832 414.241C53.5586 414.416 53.6464 414.629 53.6464 414.88C53.6464 415.125 53.5586 415.338 53.3832 415.519C53.2077 415.694 52.9947 415.782 52.744 415.782ZM58.6909 425.512C57.8587 425.512 57.2547 425.344 56.8787 425.008C56.5077 424.673 56.3222 424.119 56.3222 423.347V418.429H55.0439V417.346H56.3222V415.248H57.6758V417.346H59.4504V418.429H57.6758V423.016C57.6758 423.492 57.766 423.835 57.9465 424.046C58.1269 424.252 58.4277 424.354 58.8488 424.354C58.9641 424.354 59.0619 424.352 59.1421 424.347C59.2273 424.342 59.3301 424.334 59.4504 424.324V425.437C59.325 425.457 59.1997 425.475 59.0744 425.49C58.9491 425.505 58.8212 425.512 58.6909 425.512ZM61.4344 425.452V414.128H62.7428V418.564H62.8632C63.0687 418.133 63.3645 417.8 63.7505 417.564C64.1365 417.324 64.6277 417.203 65.2243 417.203C65.8309 417.203 66.3447 417.321 66.7658 417.557C67.1869 417.787 67.5077 418.126 67.7283 418.572C67.9489 419.018 68.0592 419.562 68.0592 420.204V425.452H66.7508V420.519C66.7508 419.787 66.5954 419.246 66.2845 418.895C65.9787 418.539 65.5025 418.361 64.8558 418.361C64.4247 418.361 64.0512 418.454 63.7354 418.639C63.4196 418.825 63.174 419.088 62.9985 419.429C62.8281 419.77 62.7428 420.178 62.7428 420.655V425.452H61.4344ZM75.3585 428.295C75.2732 428.295 75.178 428.29 75.0727 428.279C74.9674 428.274 74.8697 428.264 74.7794 428.249V427.174C74.8597 427.189 74.9474 427.199 75.0426 427.204C75.1379 427.209 75.2306 427.212 75.3209 427.212C75.6918 427.212 75.9951 427.116 76.2307 426.926C76.4713 426.735 76.6643 426.407 76.8097 425.941L76.9601 425.46L73.9598 417.346H75.3585L77.8549 424.836L77.3361 424.016H77.9527L77.4338 424.836L79.9228 417.346H81.2989L78.1332 425.948C77.9126 426.555 77.6795 427.029 77.4338 427.37C77.1882 427.711 76.9 427.949 76.5691 428.084C76.2432 428.224 75.8397 428.295 75.3585 428.295ZM86.0125 425.595C85.2456 425.595 84.5813 425.427 84.0199 425.091C83.4634 424.75 83.0323 424.267 82.7265 423.64C82.4257 423.013 82.2753 422.269 82.2753 421.407V421.392C82.2753 420.524 82.4257 419.777 82.7265 419.151C83.0323 418.524 83.4634 418.043 84.0199 417.707C84.5813 417.371 85.2456 417.203 86.0125 417.203C86.7845 417.203 87.4488 417.371 88.0052 417.707C88.5617 418.043 88.9903 418.524 89.2911 419.151C89.5969 419.777 89.7497 420.524 89.7497 421.392V421.407C89.7497 422.269 89.5969 423.013 89.2911 423.64C88.9903 424.267 88.5617 424.75 88.0052 425.091C87.4488 425.427 86.7845 425.595 86.0125 425.595ZM86.0125 424.437C86.5239 424.437 86.9575 424.317 87.3134 424.076C87.6693 423.835 87.94 423.49 88.1255 423.038C88.316 422.587 88.4113 422.043 88.4113 421.407V421.392C88.4113 420.75 88.316 420.204 88.1255 419.752C87.94 419.301 87.6693 418.958 87.3134 418.722C86.9575 418.482 86.5239 418.361 86.0125 418.361C85.5012 418.361 85.0676 418.482 84.7117 418.722C84.3557 418.958 84.0825 419.301 83.892 419.752C83.7066 420.204 83.6138 420.75 83.6138 421.392V421.407C83.6138 422.043 83.7066 422.587 83.892 423.038C84.0825 423.49 84.3557 423.835 84.7117 424.076C85.0676 424.317 85.5012 424.437 86.0125 424.437ZM94.4484 425.595C93.8368 425.595 93.323 425.48 92.9069 425.249C92.4908 425.014 92.1775 424.673 91.9669 424.226C91.7614 423.775 91.6586 423.231 91.6586 422.595V417.346H92.967V422.279C92.967 423.006 93.1074 423.547 93.3881 423.903C93.6739 424.259 94.1401 424.437 94.7868 424.437C95.1427 424.437 95.456 424.384 95.7267 424.279C96.0024 424.174 96.233 424.023 96.4185 423.828C96.604 423.627 96.7418 423.387 96.8321 423.106C96.9273 422.82 96.9749 422.499 96.9749 422.144V417.346H98.2833V425.452H96.9749V424.242H96.8546C96.7243 424.527 96.5463 424.773 96.3207 424.978C96.0952 425.179 95.8244 425.332 95.5086 425.437C95.1978 425.542 94.8444 425.595 94.4484 425.595ZM100.681 425.452V417.346H101.989V418.549H102.11C102.265 418.123 102.528 417.792 102.899 417.557C103.27 417.321 103.729 417.203 104.275 417.203C104.401 417.203 104.523 417.211 104.644 417.226C104.769 417.236 104.864 417.246 104.93 417.256V418.527C104.794 418.502 104.661 418.484 104.531 418.474C104.406 418.459 104.27 418.451 104.125 418.451C103.709 418.451 103.34 418.534 103.02 418.7C102.699 418.865 102.446 419.096 102.26 419.391C102.08 419.687 101.989 420.033 101.989 420.429V425.452H100.681ZM113.011 425.595C112.5 425.595 112.038 425.497 111.627 425.302C111.221 425.106 110.898 424.828 110.657 424.467C110.422 424.106 110.304 423.68 110.304 423.189V423.174C110.304 422.692 110.419 422.281 110.65 421.941C110.88 421.595 111.216 421.324 111.657 421.128C112.098 420.933 112.632 420.818 113.259 420.783L116.237 420.602V421.647L113.417 421.828C112.8 421.863 112.349 421.991 112.063 422.211C111.783 422.432 111.642 422.743 111.642 423.144V423.159C111.642 423.57 111.798 423.891 112.109 424.121C112.419 424.347 112.81 424.46 113.282 424.46C113.728 424.46 114.124 424.372 114.47 424.196C114.816 424.016 115.086 423.773 115.282 423.467C115.482 423.161 115.583 422.815 115.583 422.429V419.903C115.583 419.401 115.43 419.02 115.124 418.76C114.823 418.494 114.369 418.361 113.763 418.361C113.277 418.361 112.878 418.449 112.567 418.624C112.256 418.795 112.048 419.038 111.943 419.354L111.936 419.376H110.627L110.635 419.331C110.705 418.905 110.88 418.534 111.161 418.218C111.447 417.898 111.815 417.649 112.266 417.474C112.718 417.293 113.231 417.203 113.808 417.203C114.47 417.203 115.029 417.311 115.485 417.527C115.946 417.742 116.294 418.053 116.53 418.459C116.771 418.86 116.891 419.341 116.891 419.903V425.452H115.583V424.257H115.462C115.292 424.542 115.084 424.785 114.838 424.986C114.597 425.186 114.324 425.339 114.018 425.445C113.713 425.545 113.377 425.595 113.011 425.595ZM121.229 425.452L118.228 417.346H119.612L121.83 424.023H121.95L124.169 417.346H125.552L122.552 425.452H121.229ZM130.243 425.595C129.471 425.595 128.807 425.425 128.251 425.084C127.699 424.743 127.273 424.262 126.972 423.64C126.677 423.013 126.529 422.276 126.529 421.429V421.422C126.529 420.585 126.677 419.85 126.972 419.218C127.273 418.587 127.697 418.093 128.243 417.737C128.79 417.381 129.429 417.203 130.161 417.203C130.898 417.203 131.529 417.374 132.056 417.715C132.587 418.055 132.993 418.532 133.274 419.143C133.56 419.75 133.702 420.457 133.702 421.264V421.775H127.206V420.73H133.033L132.387 421.685V421.166C132.387 420.529 132.291 420.006 132.101 419.594C131.91 419.183 131.647 418.878 131.311 418.677C130.975 418.472 130.589 418.369 130.153 418.369C129.717 418.369 129.326 418.477 128.98 418.692C128.639 418.903 128.369 419.216 128.168 419.632C127.968 420.048 127.867 420.559 127.867 421.166V421.685C127.867 422.261 127.965 422.755 128.161 423.166C128.356 423.572 128.634 423.886 128.995 424.106C129.356 424.322 129.782 424.429 130.274 424.429C130.639 424.429 130.958 424.379 131.229 424.279C131.499 424.179 131.722 424.051 131.898 423.896C132.073 423.74 132.196 423.582 132.266 423.422L132.296 423.354H133.605L133.59 423.414C133.519 423.69 133.394 423.958 133.214 424.219C133.038 424.475 132.81 424.708 132.529 424.918C132.249 425.124 131.915 425.289 131.529 425.415C131.148 425.535 130.72 425.595 130.243 425.595ZM135.687 425.452V417.346H136.995V418.549H137.115C137.271 418.123 137.534 417.792 137.905 417.557C138.276 417.321 138.734 417.203 139.281 417.203C139.406 417.203 139.529 417.211 139.649 417.226C139.775 417.236 139.87 417.246 139.935 417.256V418.527C139.8 418.502 139.667 418.484 139.537 418.474C139.411 418.459 139.276 418.451 139.13 418.451C138.714 418.451 138.346 418.534 138.025 418.7C137.704 418.865 137.451 419.096 137.266 419.391C137.085 419.687 136.995 420.033 136.995 420.429V425.452H135.687ZM143.731 425.595C143.22 425.595 142.759 425.497 142.348 425.302C141.942 425.106 141.618 424.828 141.378 424.467C141.142 424.106 141.024 423.68 141.024 423.189V423.174C141.024 422.692 141.14 422.281 141.37 421.941C141.601 421.595 141.937 421.324 142.378 421.128C142.819 420.933 143.353 420.818 143.979 420.783L146.957 420.602V421.647L144.137 421.828C143.521 421.863 143.07 421.991 142.784 422.211C142.503 422.432 142.363 422.743 142.363 423.144V423.159C142.363 423.57 142.518 423.891 142.829 424.121C143.14 424.347 143.531 424.46 144.002 424.46C144.448 424.46 144.844 424.372 145.19 424.196C145.536 424.016 145.807 423.773 146.002 423.467C146.203 423.161 146.303 422.815 146.303 422.429V419.903C146.303 419.401 146.15 419.02 145.844 418.76C145.544 418.494 145.09 418.361 144.483 418.361C143.997 418.361 143.598 418.449 143.288 418.624C142.977 418.795 142.769 419.038 142.664 419.354L142.656 419.376H141.348L141.355 419.331C141.425 418.905 141.601 418.534 141.882 418.218C142.167 417.898 142.536 417.649 142.987 417.474C143.438 417.293 143.952 417.203 144.528 417.203C145.19 417.203 145.749 417.311 146.205 417.527C146.666 417.742 147.015 418.053 147.25 418.459C147.491 418.86 147.611 419.341 147.611 419.903V425.452H146.303V424.257H146.183C146.012 424.542 145.804 424.785 145.559 424.986C145.318 425.186 145.045 425.339 144.739 425.445C144.433 425.545 144.097 425.595 143.731 425.595ZM153.295 428.31C152.643 428.31 152.074 428.217 151.588 428.031C151.102 427.851 150.713 427.593 150.423 427.257C150.137 426.926 149.959 426.54 149.889 426.099L149.904 426.091H151.257L151.265 426.099C151.335 426.405 151.546 426.655 151.896 426.851C152.247 427.051 152.714 427.152 153.295 427.152C154.022 427.152 154.588 426.986 154.995 426.655C155.406 426.329 155.611 425.868 155.611 425.272V423.632H155.491C155.32 423.928 155.107 424.181 154.852 424.392C154.596 424.602 154.308 424.763 153.987 424.873C153.666 424.978 153.32 425.031 152.949 425.031C152.252 425.031 151.648 424.866 151.137 424.535C150.631 424.199 150.24 423.738 149.964 423.151C149.688 422.565 149.55 421.893 149.55 421.136V421.121C149.55 420.364 149.688 419.692 149.964 419.106C150.245 418.514 150.641 418.05 151.152 417.715C151.663 417.374 152.272 417.203 152.979 417.203C153.36 417.203 153.711 417.263 154.032 417.384C154.353 417.504 154.636 417.674 154.882 417.895C155.132 418.116 155.34 418.379 155.506 418.685H155.596V417.346H156.904V425.339C156.904 425.941 156.757 426.465 156.461 426.911C156.17 427.357 155.754 427.7 155.213 427.941C154.671 428.187 154.032 428.31 153.295 428.31ZM153.235 423.873C153.736 423.873 154.165 423.758 154.521 423.527C154.882 423.292 155.157 422.968 155.348 422.557C155.543 422.146 155.641 421.672 155.641 421.136V421.121C155.641 420.585 155.543 420.108 155.348 419.692C155.157 419.276 154.882 418.95 154.521 418.715C154.165 418.479 153.736 418.361 153.235 418.361C152.734 418.361 152.308 418.479 151.957 418.715C151.611 418.95 151.345 419.276 151.16 419.692C150.979 420.108 150.889 420.585 150.889 421.121V421.136C150.889 421.672 150.979 422.146 151.16 422.557C151.345 422.968 151.611 423.292 151.957 423.527C152.308 423.758 152.734 423.873 153.235 423.873ZM162.603 425.595C161.831 425.595 161.167 425.425 160.611 425.084C160.059 424.743 159.633 424.262 159.332 423.64C159.036 423.013 158.889 422.276 158.889 421.429V421.422C158.889 420.585 159.036 419.85 159.332 419.218C159.633 418.587 160.057 418.093 160.603 417.737C161.149 417.381 161.789 417.203 162.52 417.203C163.257 417.203 163.889 417.374 164.415 417.715C164.947 418.055 165.353 418.532 165.634 419.143C165.919 419.75 166.062 420.457 166.062 421.264V421.775H159.565V420.73H165.393L164.746 421.685V421.166C164.746 420.529 164.651 420.006 164.461 419.594C164.27 419.183 164.007 418.878 163.671 418.677C163.335 418.472 162.949 418.369 162.513 418.369C162.077 418.369 161.686 418.477 161.34 418.692C160.999 418.903 160.728 419.216 160.528 419.632C160.327 420.048 160.227 420.559 160.227 421.166V421.685C160.227 422.261 160.325 422.755 160.52 423.166C160.716 423.572 160.994 423.886 161.355 424.106C161.716 424.322 162.142 424.429 162.633 424.429C162.999 424.429 163.318 424.379 163.588 424.279C163.859 424.179 164.082 424.051 164.257 423.896C164.433 423.74 164.556 423.582 164.626 423.422L164.656 423.354H165.964L165.949 423.414C165.879 423.69 165.754 423.958 165.573 424.219C165.398 424.475 165.17 424.708 164.889 424.918C164.608 425.124 164.275 425.289 163.889 425.415C163.508 425.535 163.079 425.595 162.603 425.595ZM175.114 425.595C174.512 425.595 173.981 425.505 173.519 425.324C173.058 425.139 172.687 424.881 172.406 424.55C172.131 424.219 171.968 423.83 171.918 423.384H173.256C173.366 423.72 173.582 423.991 173.903 424.196C174.224 424.402 174.642 424.505 175.159 424.505C175.525 424.505 175.845 424.452 176.121 424.347C176.402 424.236 176.622 424.089 176.783 423.903C176.943 423.713 177.023 423.495 177.023 423.249V423.234C177.023 422.958 176.913 422.725 176.693 422.535C176.472 422.339 176.111 422.181 175.61 422.061L174.354 421.76C173.848 421.64 173.432 421.484 173.106 421.294C172.78 421.098 172.539 420.86 172.384 420.579C172.229 420.294 172.151 419.958 172.151 419.572V419.564C172.151 419.113 172.281 418.71 172.542 418.354C172.808 417.998 173.168 417.717 173.625 417.512C174.081 417.306 174.595 417.203 175.166 417.203C175.733 417.203 176.234 417.293 176.67 417.474C177.111 417.649 177.465 417.9 177.73 418.226C178.001 418.552 178.166 418.935 178.227 419.376H176.941C176.856 419.056 176.66 418.795 176.354 418.594C176.048 418.394 175.65 418.294 175.159 418.294C174.838 418.294 174.552 418.346 174.301 418.451C174.051 418.552 173.853 418.692 173.707 418.873C173.562 419.053 173.489 419.264 173.489 419.504V419.519C173.489 419.7 173.537 419.86 173.632 420C173.727 420.141 173.875 420.264 174.076 420.369C174.276 420.474 174.535 420.567 174.85 420.647L176.099 420.948C176.861 421.133 177.427 421.399 177.798 421.745C178.174 422.091 178.362 422.555 178.362 423.136V423.151C178.362 423.632 178.219 424.059 177.933 424.429C177.648 424.795 177.259 425.081 176.768 425.287C176.282 425.492 175.73 425.595 175.114 425.595ZM180.346 428.159V417.346H181.654V418.639H181.775C181.94 418.339 182.148 418.083 182.399 417.872C182.65 417.657 182.935 417.491 183.256 417.376C183.577 417.261 183.925 417.203 184.301 417.203C184.988 417.203 185.585 417.379 186.091 417.73C186.602 418.075 186.998 418.562 187.279 419.188C187.56 419.815 187.7 420.549 187.7 421.392V421.407C187.7 422.254 187.56 422.991 187.279 423.617C186.998 424.244 186.602 424.73 186.091 425.076C185.585 425.422 184.988 425.595 184.301 425.595C183.93 425.595 183.579 425.537 183.249 425.422C182.923 425.302 182.632 425.136 182.376 424.926C182.126 424.715 181.925 424.465 181.775 424.174H181.654V428.159H180.346ZM184.001 424.437C184.497 424.437 184.92 424.317 185.271 424.076C185.622 423.83 185.89 423.482 186.076 423.031C186.266 422.575 186.362 422.033 186.362 421.407V421.392C186.362 420.76 186.266 420.219 186.076 419.767C185.89 419.316 185.622 418.97 185.271 418.73C184.92 418.484 184.497 418.361 184.001 418.361C183.509 418.361 183.086 418.484 182.73 418.73C182.374 418.975 182.101 419.324 181.91 419.775C181.72 420.226 181.624 420.765 181.624 421.392V421.407C181.624 422.028 181.72 422.567 181.91 423.023C182.101 423.475 182.374 423.823 182.73 424.069C183.086 424.314 183.509 424.437 184.001 424.437ZM193.008 425.595C192.236 425.595 191.572 425.425 191.015 425.084C190.464 424.743 190.038 424.262 189.737 423.64C189.441 423.013 189.293 422.276 189.293 421.429V421.422C189.293 420.585 189.441 419.85 189.737 419.218C190.038 418.587 190.461 418.093 191.008 417.737C191.554 417.381 192.193 417.203 192.925 417.203C193.662 417.203 194.294 417.374 194.82 417.715C195.351 418.055 195.757 418.532 196.038 419.143C196.324 419.75 196.467 420.457 196.467 421.264V421.775H189.97V420.73H195.798L195.151 421.685V421.166C195.151 420.529 195.056 420.006 194.865 419.594C194.675 419.183 194.411 418.878 194.076 418.677C193.74 418.472 193.354 418.369 192.918 418.369C192.481 418.369 192.09 418.477 191.745 418.692C191.404 418.903 191.133 419.216 190.932 419.632C190.732 420.048 190.632 420.559 190.632 421.166V421.685C190.632 422.261 190.729 422.755 190.925 423.166C191.12 423.572 191.399 423.886 191.76 424.106C192.121 424.322 192.547 424.429 193.038 424.429C193.404 424.429 193.722 424.379 193.993 424.279C194.264 424.179 194.487 424.051 194.662 423.896C194.838 423.74 194.96 423.582 195.031 423.422L195.061 423.354H196.369L196.354 423.414C196.284 423.69 196.159 423.958 195.978 424.219C195.803 424.475 195.575 424.708 195.294 424.918C195.013 425.124 194.68 425.289 194.294 425.415C193.913 425.535 193.484 425.595 193.008 425.595ZM198.451 425.452V417.346H199.759V418.564H199.88C200.085 418.133 200.381 417.8 200.767 417.564C201.153 417.324 201.644 417.203 202.241 417.203C203.153 417.203 203.852 417.464 204.339 417.985C204.83 418.502 205.076 419.241 205.076 420.204V425.452H203.767V420.519C203.767 419.787 203.612 419.246 203.301 418.895C202.995 418.539 202.519 418.361 201.872 418.361C201.441 418.361 201.068 418.454 200.752 418.639C200.436 418.825 200.19 419.088 200.015 419.429C199.845 419.77 199.759 420.178 199.759 420.655V425.452H198.451ZM210.391 425.595C209.709 425.595 209.113 425.422 208.601 425.076C208.09 424.73 207.694 424.244 207.413 423.617C207.132 422.986 206.992 422.249 206.992 421.407V421.392C206.992 420.544 207.132 419.807 207.413 419.181C207.694 418.554 208.087 418.068 208.594 417.722C209.105 417.376 209.704 417.203 210.391 417.203C210.762 417.203 211.11 417.263 211.436 417.384C211.767 417.499 212.06 417.662 212.316 417.872C212.571 418.083 212.772 418.334 212.917 418.624H213.038V414.128H214.346V425.452H213.038V424.159H212.917C212.752 424.46 212.544 424.718 212.293 424.933C212.043 425.144 211.757 425.307 211.436 425.422C211.115 425.537 210.767 425.595 210.391 425.595ZM210.692 424.437C211.183 424.437 211.606 424.314 211.962 424.069C212.318 423.823 212.592 423.475 212.782 423.023C212.973 422.567 213.068 422.028 213.068 421.407V421.392C213.068 420.765 212.973 420.226 212.782 419.775C212.592 419.324 212.318 418.975 211.962 418.73C211.606 418.484 211.183 418.361 210.692 418.361C210.2 418.361 209.777 418.484 209.421 418.73C209.07 418.97 208.799 419.316 208.609 419.767C208.423 420.219 208.33 420.76 208.33 421.392V421.407C208.33 422.033 208.423 422.575 208.609 423.031C208.799 423.482 209.07 423.83 209.421 424.076C209.777 424.317 210.2 424.437 210.692 424.437ZM216.842 425.452V417.346H218.15V425.452H216.842ZM217.503 415.782C217.258 415.782 217.045 415.694 216.864 415.519C216.689 415.338 216.601 415.125 216.601 414.88C216.601 414.629 216.689 414.416 216.864 414.241C217.045 414.065 217.258 413.977 217.503 413.977C217.754 413.977 217.967 414.065 218.142 414.241C218.318 414.416 218.406 414.629 218.406 414.88C218.406 415.125 218.318 415.338 218.142 415.519C217.967 415.694 217.754 415.782 217.503 415.782ZM220.57 425.452V417.346H221.879V418.564H221.999C222.204 418.133 222.5 417.8 222.886 417.564C223.272 417.324 223.763 417.203 224.36 417.203C225.272 417.203 225.972 417.464 226.458 417.985C226.949 418.502 227.195 419.241 227.195 420.204V425.452H225.886V420.519C225.886 419.787 225.731 419.246 225.42 418.895C225.114 418.539 224.638 418.361 223.991 418.361C223.56 418.361 223.187 418.454 222.871 418.639C222.555 418.825 222.31 419.088 222.134 419.429C221.964 419.77 221.879 420.178 221.879 420.655V425.452H220.57ZM232.856 428.31C232.204 428.31 231.635 428.217 231.149 428.031C230.663 427.851 230.274 427.593 229.983 427.257C229.698 426.926 229.52 426.54 229.45 426.099L229.465 426.091H230.818L230.826 426.099C230.896 426.405 231.106 426.655 231.457 426.851C231.808 427.051 232.274 427.152 232.856 427.152C233.583 427.152 234.149 426.986 234.555 426.655C234.966 426.329 235.172 425.868 235.172 425.272V423.632H235.052C234.881 423.928 234.668 424.181 234.412 424.392C234.157 424.602 233.869 424.763 233.548 424.873C233.227 424.978 232.881 425.031 232.51 425.031C231.813 425.031 231.209 424.866 230.698 424.535C230.192 424.199 229.801 423.738 229.525 423.151C229.249 422.565 229.111 421.893 229.111 421.136V421.121C229.111 420.364 229.249 419.692 229.525 419.106C229.806 418.514 230.202 418.05 230.713 417.715C231.224 417.374 231.833 417.203 232.54 417.203C232.921 417.203 233.272 417.263 233.593 417.384C233.914 417.504 234.197 417.674 234.443 417.895C234.693 418.116 234.901 418.379 235.067 418.685H235.157V417.346H236.465V425.339C236.465 425.941 236.317 426.465 236.022 426.911C235.731 427.357 235.315 427.7 234.773 427.941C234.232 428.187 233.593 428.31 232.856 428.31ZM232.796 423.873C233.297 423.873 233.726 423.758 234.082 423.527C234.443 423.292 234.718 422.968 234.909 422.557C235.104 422.146 235.202 421.672 235.202 421.136V421.121C235.202 420.585 235.104 420.108 234.909 419.692C234.718 419.276 234.443 418.95 234.082 418.715C233.726 418.479 233.297 418.361 232.796 418.361C232.294 418.361 231.868 418.479 231.517 418.715C231.172 418.95 230.906 419.276 230.72 419.692C230.54 420.108 230.45 420.585 230.45 421.121V421.136C230.45 421.672 230.54 422.146 230.72 422.557C230.906 422.968 231.172 423.292 231.517 423.527C231.868 423.758 232.294 423.873 232.796 423.873ZM246.472 425.595C245.705 425.595 245.04 425.427 244.479 425.091C243.923 424.75 243.491 424.267 243.186 423.64C242.885 423.013 242.734 422.269 242.734 421.407V421.392C242.734 420.524 242.885 419.777 243.186 419.151C243.491 418.524 243.923 418.043 244.479 417.707C245.04 417.371 245.705 417.203 246.472 417.203C247.244 417.203 247.908 417.371 248.464 417.707C249.021 418.043 249.449 418.524 249.75 419.151C250.056 419.777 250.209 420.524 250.209 421.392V421.407C250.209 422.269 250.056 423.013 249.75 423.64C249.449 424.267 249.021 424.75 248.464 425.091C247.908 425.427 247.244 425.595 246.472 425.595ZM246.472 424.437C246.983 424.437 247.417 424.317 247.773 424.076C248.128 423.835 248.399 423.49 248.585 423.038C248.775 422.587 248.87 422.043 248.87 421.407V421.392C248.87 420.75 248.775 420.204 248.585 419.752C248.399 419.301 248.128 418.958 247.773 418.722C247.417 418.482 246.983 418.361 246.472 418.361C245.96 418.361 245.527 418.482 245.171 418.722C244.815 418.958 244.542 419.301 244.351 419.752C244.166 420.204 244.073 420.75 244.073 421.392V421.407C244.073 422.043 244.166 422.587 244.351 423.038C244.542 423.49 244.815 423.835 245.171 424.076C245.527 424.317 245.96 424.437 246.472 424.437ZM252.734 425.452V418.429H251.388V417.346H252.734V416.444C252.734 415.902 252.822 415.456 252.998 415.105C253.178 414.749 253.444 414.486 253.795 414.316C254.145 414.14 254.577 414.053 255.088 414.053C255.248 414.053 255.399 414.06 255.539 414.075C255.684 414.085 255.825 414.103 255.96 414.128V415.173C255.88 415.158 255.787 415.148 255.682 415.143C255.577 415.138 255.466 415.135 255.351 415.135C254.885 415.135 254.549 415.248 254.344 415.474C254.143 415.699 254.043 416.035 254.043 416.481V417.346H255.885V418.429H254.043V425.452H252.734ZM264.658 425.452V416.105H264.538L261.778 418.106V416.677L264.666 414.601H266.012V425.452H264.658ZM269.8 425.527C269.535 425.527 269.304 425.432 269.109 425.242C268.918 425.046 268.823 424.815 268.823 424.55C268.823 424.279 268.918 424.049 269.109 423.858C269.304 423.668 269.535 423.572 269.8 423.572C270.071 423.572 270.302 423.668 270.492 423.858C270.683 424.049 270.778 424.279 270.778 424.55C270.778 424.815 270.683 425.046 270.492 425.242C270.302 425.432 270.071 425.527 269.8 425.527ZM276.319 425.708C275.647 425.708 275.048 425.575 274.522 425.309C273.995 425.044 273.572 424.683 273.251 424.226C272.935 423.765 272.75 423.246 272.694 422.67L272.687 422.587H273.988L273.995 422.647C274.04 422.993 274.166 423.309 274.371 423.595C274.582 423.876 274.855 424.099 275.191 424.264C275.532 424.429 275.913 424.512 276.334 424.512C276.815 424.512 277.239 424.407 277.605 424.196C277.971 423.981 278.256 423.685 278.462 423.309C278.667 422.933 278.77 422.502 278.77 422.016V422.001C278.77 421.519 278.665 421.093 278.454 420.722C278.249 420.346 277.966 420.053 277.605 419.843C277.244 419.632 276.828 419.527 276.356 419.527C275.995 419.527 275.662 419.582 275.356 419.692C275.055 419.802 274.787 419.968 274.552 420.188C274.456 420.279 274.366 420.376 274.281 420.482C274.201 420.587 274.126 420.705 274.055 420.835H272.882L273.454 414.601H279.492V415.812H274.522L274.153 419.482H274.273C274.434 419.236 274.632 419.03 274.868 418.865C275.103 418.7 275.366 418.574 275.657 418.489C275.953 418.399 276.264 418.354 276.589 418.354C277.271 418.354 277.875 418.512 278.402 418.827C278.928 419.138 279.342 419.567 279.642 420.113C279.943 420.655 280.094 421.276 280.094 421.978V421.993C280.094 422.72 279.931 423.364 279.605 423.926C279.284 424.482 278.84 424.918 278.274 425.234C277.707 425.55 277.056 425.708 276.319 425.708ZM282.228 425.452V424.52L285.898 420.549C286.359 420.048 286.72 419.635 286.98 419.309C287.241 418.978 287.424 418.68 287.529 418.414C287.635 418.148 287.687 417.857 287.687 417.542V417.527C287.687 417.146 287.605 416.805 287.439 416.504C287.274 416.203 287.038 415.965 286.732 415.79C286.426 415.614 286.06 415.526 285.634 415.526C285.203 415.526 284.825 415.617 284.499 415.797C284.173 415.973 283.92 416.221 283.739 416.542C283.559 416.857 283.469 417.228 283.469 417.654L283.461 417.669L282.168 417.662L282.153 417.654C282.158 417.013 282.313 416.444 282.619 415.947C282.925 415.446 283.346 415.055 283.882 414.774C284.419 414.489 285.033 414.346 285.725 414.346C286.356 414.346 286.925 414.479 287.432 414.744C287.938 415.005 288.336 415.363 288.627 415.82C288.923 416.276 289.071 416.797 289.071 417.384V417.399C289.071 417.81 288.998 418.206 288.853 418.587C288.712 418.968 288.462 419.391 288.101 419.858C287.74 420.319 287.231 420.888 286.574 421.565L283.77 424.46L284.108 423.835V424.46L283.777 424.234H289.251V425.452H282.228ZM295.108 425.708C294.306 425.708 293.619 425.477 293.048 425.016C292.481 424.555 292.045 423.901 291.739 423.053C291.433 422.201 291.28 421.194 291.28 420.031V420.016C291.28 418.853 291.433 417.847 291.739 417C292.045 416.153 292.481 415.499 293.048 415.038C293.619 414.576 294.306 414.346 295.108 414.346C295.91 414.346 296.597 414.576 297.168 415.038C297.74 415.499 298.178 416.153 298.484 417C298.795 417.847 298.95 418.853 298.95 420.016V420.031C298.95 421.194 298.795 422.201 298.484 423.053C298.178 423.901 297.74 424.555 297.168 425.016C296.597 425.477 295.91 425.708 295.108 425.708ZM295.108 424.527C295.629 424.527 296.073 424.344 296.439 423.978C296.81 423.612 297.093 423.094 297.289 422.422C297.489 421.75 297.589 420.953 297.589 420.031V420.016C297.589 419.093 297.489 418.299 297.289 417.632C297.093 416.96 296.81 416.444 296.439 416.083C296.073 415.717 295.629 415.534 295.108 415.534C294.592 415.534 294.148 415.717 293.777 416.083C293.411 416.444 293.13 416.96 292.935 417.632C292.739 418.299 292.642 419.093 292.642 420.016V420.031C292.642 420.953 292.739 421.75 292.935 422.422C293.13 423.094 293.411 423.612 293.777 423.978C294.148 424.344 294.592 424.527 295.108 424.527ZM311.686 425.294C310.949 425.294 310.255 425.189 309.603 424.978C308.952 424.768 308.375 424.447 307.874 424.016C307.373 423.585 306.979 423.038 306.693 422.377C306.408 421.715 306.265 420.933 306.265 420.031V420.016C306.265 419.113 306.408 418.331 306.693 417.669C306.979 417.008 307.373 416.461 307.874 416.03C308.38 415.599 308.959 415.281 309.611 415.075C310.263 414.865 310.954 414.759 311.686 414.759C311.967 414.759 312.268 414.774 312.589 414.804C312.909 414.83 313.148 414.87 313.303 414.925V416.143C313.138 416.103 312.897 416.07 312.581 416.045C312.265 416.02 311.967 416.008 311.686 416.008C311.11 416.008 310.576 416.088 310.085 416.248C309.593 416.409 309.165 416.654 308.799 416.985C308.438 417.316 308.157 417.735 307.957 418.241C307.756 418.747 307.656 419.346 307.656 420.038V420.053C307.656 420.74 307.756 421.334 307.957 421.835C308.162 422.337 308.445 422.753 308.806 423.083C309.172 423.409 309.598 423.652 310.085 423.813C310.576 423.968 311.11 424.046 311.686 424.046C311.967 424.046 312.265 424.036 312.581 424.016C312.897 423.996 313.138 423.961 313.303 423.911V425.129C313.148 425.184 312.909 425.227 312.589 425.257C312.268 425.282 311.967 425.294 311.686 425.294ZM304.806 421.55V420.647H311.919V421.55H304.806ZM304.806 419.369V418.467H311.919V419.369H304.806Z" fill="#333333"/>
<rect x="35.9766" y="448.828" width="84.2521" height="25.6271" rx="12.8136" fill="#57B74E"/>
<path d="M48.0459 466.229V456.352H49.8117V466.229H48.0459ZM54.9272 466.263C53.2093 466.263 52.5043 465.688 52.5043 464.244V460.069H51.3408V458.748H52.5043V456.913H54.2359V458.748H55.817V460.069H54.2359V463.84C54.2359 464.586 54.5302 464.901 55.2421 464.901C55.4816 464.901 55.6117 464.894 55.817 464.873V466.187C55.5706 466.235 55.2557 466.263 54.9272 466.263ZM57.7088 460.466L58.3042 456.352H60.0632L58.8791 460.466H57.7088ZM64.1931 466.379C62.2904 466.379 61.1405 465.503 60.9968 464.237V464.223H62.6873L62.6942 464.237C62.8721 464.757 63.3718 465.12 64.2205 465.12C65.0692 465.12 65.6578 464.736 65.6578 464.175V464.162C65.6578 463.723 65.3293 463.436 64.508 463.251L63.2965 462.977C61.8729 462.663 61.1953 461.992 61.1953 460.89V460.883C61.1953 459.535 62.4273 458.604 64.1931 458.604C66.0137 458.604 67.102 459.507 67.2115 460.719V460.732H65.6099L65.6031 460.712C65.4799 460.24 64.9871 459.856 64.1863 459.856C63.4265 459.856 62.879 460.226 62.879 460.787V460.794C62.879 461.232 63.1938 461.499 64.0015 461.684L65.2129 461.951C66.6776 462.279 67.3689 462.902 67.3689 463.99V464.004C67.3689 465.428 66.0343 466.379 64.1931 466.379ZM77.0523 466.475C74.1914 466.475 72.4118 464.483 72.4118 461.294V461.28C72.4118 458.125 74.2119 456.106 77.0249 456.106C79.3041 456.106 80.9468 457.413 81.2821 459.343L81.289 459.412H79.5368L79.5163 459.343C79.1946 458.262 78.2911 457.632 77.0249 457.632C75.3001 457.632 74.2119 459.035 74.2119 461.266V461.28C74.2119 463.546 75.3207 464.949 77.0797 464.949C78.5854 464.949 79.6121 464.011 79.6326 462.608L79.6395 462.403H77.2713V461.054H81.3711V462.286C81.3711 464.839 79.6874 466.475 77.0523 466.475ZM83.1602 466.229V458.748H84.8645V459.897H84.9808C85.2341 459.097 85.9185 458.624 86.9041 458.624C87.1642 458.624 87.4311 458.659 87.5954 458.707V460.233C87.3216 460.178 87.041 460.137 86.7467 460.137C85.6105 460.137 84.8645 460.815 84.8645 461.882V466.229H83.1602ZM91.9169 466.379C89.6925 466.379 88.3441 464.887 88.3441 462.505V462.498C88.3441 460.144 89.7062 458.604 91.8348 458.604C93.9634 458.604 95.2775 460.096 95.2775 462.355V462.916H90.0484C90.0689 464.257 90.7944 465.038 91.9511 465.038C92.8751 465.038 93.4021 464.572 93.5664 464.23L93.5869 464.182H95.2091L95.1885 464.244C94.949 465.209 93.9497 466.379 91.9169 466.379ZM91.8553 459.939C90.9039 459.939 90.1921 460.582 90.0621 461.773H93.6143C93.498 460.548 92.8067 459.939 91.8553 459.939ZM98.9351 466.352C97.5115 466.352 96.478 465.476 96.478 464.114V464.1C96.478 462.765 97.4978 461.985 99.3184 461.875L101.242 461.759V461.116C101.242 460.37 100.756 459.959 99.8386 459.959C99.0583 459.959 98.5518 460.24 98.3807 460.732L98.3739 460.76H96.7655L96.7723 460.698C96.9366 459.439 98.1412 458.604 99.9207 458.604C101.844 458.604 102.925 459.535 102.925 461.116V466.229H101.242V465.202H101.125C100.715 465.927 99.9207 466.352 98.9351 466.352ZM98.1617 464.031C98.1617 464.668 98.7024 465.044 99.4553 465.044C100.482 465.044 101.242 464.374 101.242 463.484V462.882L99.558 462.991C98.6066 463.053 98.1617 463.402 98.1617 464.018V464.031ZM107.829 466.263C106.111 466.263 105.406 465.688 105.406 464.244V460.069H104.242V458.748H105.406V456.913H107.137V458.748H108.718V460.069H107.137V463.84C107.137 464.586 107.432 464.901 108.144 464.901C108.383 464.901 108.513 464.894 108.718 464.873V466.187C108.472 466.235 108.157 466.263 107.829 466.263Z" fill="white"/>
</g>
</g>
</g>
</g>
<defs>
<filter id="filter0_f_2048_27105" x="80.4922" y="-49.5029" width="560" height="560" filterUnits="userSpaceOnUse" color-interpolation-filters="sRGB">
<feFlood flood-opacity="0" result="BackgroundImageFix"/>
<feBlend mode="normal" in="SourceGraphic" in2="BackgroundImageFix" result="shape"/>
<feGaussianBlur stdDeviation="80" result="effect1_foregroundBlur_2048_27105"/>
</filter>
<filter id="filter1_f_2048_27105" x="80.4922" y="33.4961" width="560" height="560" filterUnits="userSpaceOnUse" color-interpolation-filters="sRGB">
<feFlood flood-opacity="0" result="BackgroundImageFix"/>
<feBlend mode="normal" in="SourceGraphic" in2="BackgroundImageFix" result="shape"/>
<feGaussianBlur stdDeviation="80" result="effect1_foregroundBlur_2048_27105"/>
</filter>
<filter id="filter2_d_2048_27105" x="-15.7225" y="212.939" width="352.422" height="117.282" filterUnits="userSpaceOnUse" color-interpolation-filters="sRGB">
<feFlood flood-opacity="0" result="BackgroundImageFix"/>
<feColorMatrix in="SourceAlpha" type="matrix" values="0 0 0 0 0 0 0 0 0 0 0 0 0 0 0 0 0 0 127 0" result="hardAlpha"/>
<feOffset dy="-3.05466"/>
<feGaussianBlur stdDeviation="7.63666"/>
<feComposite in2="hardAlpha" operator="out"/>
<feColorMatrix type="matrix" values="0 0 0 0 0.258824 0 0 0 0 0.545098 0 0 0 0 0.976471 0 0 0 0.05 0"/>
<feBlend mode="normal" in2="BackgroundImageFix" result="effect1_dropShadow_2048_27105"/>
<feBlend mode="normal" in="SourceGraphic" in2="effect1_dropShadow_2048_27105" result="shape"/>
</filter>
<filter id="filter3_d_2048_27105" x="-41.2871" y="130.178" width="419.492" height="185.795" filterUnits="userSpaceOnUse" color-interpolation-filters="sRGB">
<feFlood flood-opacity="0" result="BackgroundImageFix"/>
<feColorMatrix in="SourceAlpha" type="matrix" values="0 0 0 0 0 0 0 0 0 0 0 0 0 0 0 0 0 0 127 0" result="hardAlpha"/>
<feOffset dy="-3.04335"/>
<feGaussianBlur stdDeviation="7.60838"/>
<feComposite in2="hardAlpha" operator="out"/>
<feColorMatrix type="matrix" values="0 0 0 0 0.258824 0 0 0 0 0.545098 0 0 0 0 0.976471 0 0 0 0.05 0"/>
<feBlend mode="normal" in2="BackgroundImageFix" result="effect1_dropShadow_2048_27105"/>
<feBlend mode="normal" in="SourceGraphic" in2="effect1_dropShadow_2048_27105" result="shape"/>
</filter>
<filter id="filter4_dd_2048_27105" x="-2" y="349.472" width="363.629" height="163.842" filterUnits="userSpaceOnUse" color-interpolation-filters="sRGB">
<feFlood flood-opacity="0" result="BackgroundImageFix"/>
<feColorMatrix in="SourceAlpha" type="matrix" values="0 0 0 0 0 0 0 0 0 0 0 0 0 0 0 0 0 0 127 0" result="hardAlpha"/>
<feOffset dy="1.85101"/>
<feGaussianBlur stdDeviation="2.77652"/>
<feComposite in2="hardAlpha" operator="out"/>
<feColorMatrix type="matrix" values="0 0 0 0 0 0 0 0 0 0 0 0 0 0 0 0 0 0 0.04 0"/>
<feBlend mode="normal" in2="BackgroundImageFix" result="effect1_dropShadow_2048_27105"/>
<feColorMatrix in="SourceAlpha" type="matrix" values="0 0 0 0 0 0 0 0 0 0 0 0 0 0 0 0 0 0 127 0" result="hardAlpha"/>
<feOffset dy="4"/>
<feGaussianBlur stdDeviation="9"/>
<feColorMatrix type="matrix" values="0 0 0 0 0.203922 0 0 0 0 0.14902 0 0 0 0 0.415686 0 0 0 0.15 0"/>
<feBlend mode="normal" in2="effect1_dropShadow_2048_27105" result="effect2_dropShadow_2048_27105"/>
<feBlend mode="normal" in="SourceGraphic" in2="effect2_dropShadow_2048_27105" result="shape"/>
</filter>
<linearGradient id="paint0_linear_2048_27105" x1="180.981" y1="362.479" x2="180.981" y2="416.063" gradientUnits="userSpaceOnUse">
<stop stop-color="#222222"/>
<stop offset="0.0666667" stop-color="#242424" stop-opacity="0.991353"/>
<stop offset="0.133333" stop-color="#2A2A2A" stop-opacity="0.96449"/>
<stop offset="0.2" stop-color="#343434" stop-opacity="0.91834"/>
<stop offset="0.266667" stop-color="#434343" stop-opacity="0.852589"/>
<stop offset="0.333333" stop-color="#555555" stop-opacity="0.768225"/>
<stop offset="0.4" stop-color="#6B6B6B" stop-opacity="0.668116"/>
<stop offset="0.466667" stop-color="#848484" stop-opacity="0.557309"/>
<stop offset="0.533333" stop-color="#9D9D9D" stop-opacity="0.442691"/>
<stop offset="0.6" stop-color="#B6B6B6" stop-opacity="0.331884"/>
<stop offset="0.666667" stop-color="#CCCCCC" stop-opacity="0.231775"/>
<stop offset="0.733333" stop-color="#DEDEDE" stop-opacity="0.147411"/>
<stop offset="0.8" stop-color="#EDEDED" stop-opacity="0.0816599"/>
<stop offset="0.866667" stop-color="#F7F7F7" stop-opacity="0.03551"/>
<stop offset="0.933333" stop-color="#FDFDFD" stop-opacity="0.01"/>
<stop offset="1" stop-color="white" stop-opacity="0"/>
</linearGradient>
<linearGradient id="paint1_linear_2048_27105" x1="135.23" y1="136.994" x2="144.243" y2="143.432" gradientUnits="userSpaceOnUse">
<stop stop-opacity="0.4"/>
<stop offset="1" stop-opacity="0.2"/>
</linearGradient>
<linearGradient id="paint2_linear_2048_27105" x1="233.805" y1="145.992" x2="222.202" y2="139.059" gradientUnits="userSpaceOnUse">
<stop stop-opacity="0.8"/>
<stop offset="1" stop-opacity="0.4"/>
</linearGradient>
<linearGradient id="paint3_linear_2048_27105" x1="316.086" y1="145.992" x2="304.483" y2="139.059" gradientUnits="userSpaceOnUse">
<stop stop-opacity="0.8"/>
<stop offset="1" stop-opacity="0.4"/>
</linearGradient>
<linearGradient id="paint4_linear_2048_27105" x1="167.578" y1="315.112" x2="166.842" y2="230.882" gradientUnits="userSpaceOnUse">
<stop stop-color="#FD8A8A" stop-opacity="0"/>
<stop offset="0.427083" stop-color="#BBA24C" stop-opacity="0.5"/>
<stop offset="1" stop-color="#3ED68B" stop-opacity="0.9"/>
<stop offset="1" stop-color="#43D689" stop-opacity="0.8"/>
</linearGradient>
<linearGradient id="paint5_linear_2048_27105" x1="157.438" y1="236.016" x2="157.438" y2="310.076" gradientUnits="userSpaceOnUse">
<stop offset="0.266743" stop-color="#38C17E"/>
<stop offset="0.911458" stop-color="#EBC234"/>
</linearGradient>
<linearGradient id="paint6_linear_2048_27105" x1="178.29" y1="316.376" x2="174.999" y2="147.768" gradientUnits="userSpaceOnUse">
<stop stop-color="#FD8A8A" stop-opacity="0"/>
<stop offset="0.216873" stop-color="#BBA24C" stop-opacity="0.5"/>
<stop offset="0.523538" stop-color="#3ED68B" stop-opacity="0.9"/>
<stop offset="1" stop-color="#43D689" stop-opacity="0.8"/>
</linearGradient>
<clipPath id="clip0_2048_27105">
<path d="M0 0H360V510H0V0Z" fill="white"/>
</clipPath>
<clipPath id="clip1_2048_27105">
<rect width="360.49" height="589.046" fill="white" transform="translate(0 -58.5693)"/>
</clipPath>
<clipPath id="clip2_2048_27105">
<rect width="360.981" height="148.327" fill="white" transform="translate(0 192.496)"/>
</clipPath>
<clipPath id="clip3_2048_27105">
<rect width="360.981" height="120.327" fill="white" transform="translate(0 192.496)"/>
</clipPath>
<clipPath id="clip4_2048_27105">
<rect width="341.924" height="165.282" fill="white" transform="translate(-26.0195 156.563)"/>
</clipPath>
<clipPath id="clip5_2048_27105">
<rect width="46.1254" height="200.545" fill="white" transform="translate(315.855 105.259)"/>
</clipPath>
<clipPath id="clip6_2048_27105">
<rect x="16" y="363.472" width="327.629" height="127.842" rx="23.9712" fill="white"/>
</clipPath>
<clipPath id="clip7_2048_27105">
<rect width="291.673" height="23" fill="white" transform="translate(35.9766 379.452)"/>
</clipPath>
</defs>
</svg>
