<svg width="360" height="510" viewBox="0 0 360 510" fill="none" xmlns="http://www.w3.org/2000/svg">
<g clip-path="url(#clip0_2048_27326)">
<path d="M0 0H360V510H0V0Z" fill="white"/>
<mask id="mask0_2048_27326" style="mask-type:alpha" maskUnits="userSpaceOnUse" x="0" y="-73" width="362" height="489">
<rect y="-72.5039" width="361.962" height="487.567" fill="url(#paint0_linear_2048_27326)"/>
</mask>
<g mask="url(#mask0_2048_27326)">
<rect y="-72.5693" width="360.49" height="487.52" fill="#1B2471"/>
<g filter="url(#filter0_f_2048_27326)">
<circle cx="360.492" cy="229.497" r="120" fill="#6656A5"/>
</g>
<g filter="url(#filter1_f_2048_27326)">
<circle cx="360.492" cy="312.496" r="120" fill="#E9E19A" fill-opacity="0.35"/>
</g>
</g>
<path d="M33.1719 69.1123V55.0205H36.1211V66.6807H42.2832V69.1123H33.1719ZM48.7492 69.3271C45.546 69.3271 43.6027 67.2471 43.6027 63.8975V63.8877C43.6027 60.5576 45.5656 58.4287 48.632 58.4287C51.6984 58.4287 53.6222 60.5088 53.6222 63.6729V64.5518H46.4152C46.4445 66.2217 47.3527 67.1982 48.8078 67.1982C49.9796 67.1982 50.6925 66.5537 50.8976 65.9678L50.9171 65.9092H53.5343L53.505 66.0166C53.1828 67.5596 51.7375 69.3271 48.7492 69.3271ZM48.6808 60.5576C47.5089 60.5576 46.63 61.3389 46.4445 62.7549H50.8878C50.7121 61.3096 49.8625 60.5576 48.6808 60.5576ZM56.2112 69.1123V60.792H54.7854V58.6436H56.2112V57.8037C56.2112 55.7529 57.1878 54.8057 59.6585 54.8057C60.1858 54.8057 60.762 54.8545 61.094 54.9229V56.8076C60.8987 56.7686 60.6253 56.7588 60.3616 56.7588C59.4144 56.7588 58.9944 57.1592 58.9944 57.9111V58.6436H61.0745V60.792H59.0628V69.1123H56.2112ZM67.0913 69.3271C64.767 69.3271 63.6733 68.4287 63.6733 66.1826V60.792H62.2182V58.6436H63.6733V56.085H66.5541V58.6436H68.4682V60.792H66.5541V65.8701C66.5541 66.8467 66.9936 67.1787 67.853 67.1787C68.1069 67.1787 68.2924 67.1494 68.4682 67.1299V69.2197C68.1459 69.2686 67.687 69.3271 67.0913 69.3271ZM77.8259 69.2783C75.7263 69.2783 74.3103 67.96 74.3103 66.1143V66.0947C74.3103 64.1904 75.7849 63.0771 78.3826 62.9111L80.9705 62.7549V62.1104C80.9705 61.1826 80.365 60.6064 79.2517 60.6064C78.1873 60.6064 77.5427 61.1045 77.406 61.7783L77.3865 61.8662H74.7791L74.7888 61.749C74.9451 59.8154 76.6052 58.4287 79.3689 58.4287C82.074 58.4287 83.822 59.8252 83.822 61.9346V69.1123H80.9705V67.5498H80.9119C80.3162 68.624 79.2029 69.2783 77.8259 69.2783ZM77.1326 65.9678C77.1326 66.7393 77.7673 67.1982 78.7537 67.1982C80.033 67.1982 80.9705 66.3779 80.9705 65.2842V64.5322L78.8123 64.6689C77.7087 64.7373 77.1326 65.2061 77.1326 65.9482V65.9678ZM86.7821 69.1123V60.792H85.3563V58.6436H86.7821V57.8037C86.7821 55.7529 87.7587 54.8057 90.2294 54.8057C90.7567 54.8057 91.3329 54.8545 91.6649 54.9229V56.8076C91.4696 56.7686 91.1962 56.7588 90.9325 56.7588C89.9853 56.7588 89.5653 57.1592 89.5653 57.9111V58.6436H91.6454V60.792H89.6337V69.1123H86.7821ZM97.6622 69.3271C95.3379 69.3271 94.2442 68.4287 94.2442 66.1826V60.792H92.7891V58.6436H94.2442V56.085H97.125V58.6436H99.0391V60.792H97.125V65.8701C97.125 66.8467 97.5645 67.1787 98.4239 67.1787C98.6778 67.1787 98.8633 67.1494 99.0391 67.1299V69.2197C98.7168 69.2686 98.2579 69.3271 97.6622 69.3271ZM105.573 69.3271C102.37 69.3271 100.427 67.2471 100.427 63.8975V63.8877C100.427 60.5576 102.39 58.4287 105.456 58.4287C108.523 58.4287 110.446 60.5088 110.446 63.6729V64.5518H103.239C103.269 66.2217 104.177 67.1982 105.632 67.1982C106.804 67.1982 107.517 66.5537 107.722 65.9678L107.741 65.9092H110.359L110.329 66.0166C110.007 67.5596 108.562 69.3271 105.573 69.3271ZM105.505 60.5576C104.333 60.5576 103.454 61.3389 103.269 62.7549H107.712C107.536 61.3096 106.687 60.5576 105.505 60.5576ZM112.274 69.1123V58.6436H115.125V60.4697H115.184C115.496 59.1807 116.346 58.4287 117.567 58.4287C117.879 58.4287 118.172 58.4775 118.387 58.5361V61.0459C118.153 60.9482 117.762 60.8896 117.352 60.8896C115.946 60.8896 115.125 61.7295 115.125 63.2529V69.1123H112.274ZM128.536 69.3271C125.635 69.3271 124.024 67.9893 123.799 66.0068L123.79 65.9189H126.573L126.592 66.0068C126.778 66.8271 127.393 67.3057 128.536 67.3057C129.61 67.3057 130.264 66.8857 130.264 66.2119V66.2021C130.264 65.6455 129.913 65.3232 128.887 65.0986L127.11 64.7275C125.079 64.2979 124.053 63.2822 124.053 61.7197V61.71C124.053 59.7178 125.772 58.4287 128.438 58.4287C131.221 58.4287 132.774 59.9033 132.842 61.7393V61.8369H130.215L130.206 61.7588C130.108 61.0068 129.493 60.4404 128.438 60.4404C127.452 60.4404 126.837 60.8799 126.837 61.5537V61.5635C126.837 62.1006 127.198 62.4521 128.253 62.6768L130.03 63.0576C132.217 63.5166 133.116 64.376 133.116 65.9189V65.9287C133.116 67.9795 131.231 69.3271 128.536 69.3271ZM134.875 72.5303V58.6436H137.726V60.4697H137.795C138.361 59.2002 139.504 58.4287 140.988 58.4287C143.644 58.4287 145.265 60.46 145.265 63.8682V63.8779C145.265 67.2764 143.644 69.3271 141.027 69.3271C139.533 69.3271 138.351 68.5654 137.785 67.3252H137.726V72.5303H134.875ZM140.051 66.9639C141.467 66.9639 142.365 65.7822 142.365 63.8779V63.8682C142.365 61.9541 141.467 60.792 140.051 60.792C138.664 60.792 137.717 61.9834 137.717 63.8779V63.8877C137.717 65.7725 138.664 66.9639 140.051 66.9639ZM151.868 69.3271C148.665 69.3271 146.722 67.2471 146.722 63.8975V63.8877C146.722 60.5576 148.685 58.4287 151.751 58.4287C154.817 58.4287 156.741 60.5088 156.741 63.6729V64.5518H149.534C149.563 66.2217 150.472 67.1982 151.927 67.1982C153.099 67.1982 153.811 66.5537 154.017 65.9678L154.036 65.9092H156.653L156.624 66.0166C156.302 67.5596 154.856 69.3271 151.868 69.3271ZM151.8 60.5576C150.628 60.5576 149.749 61.3389 149.563 62.7549H154.007C153.831 61.3096 152.981 60.5576 151.8 60.5576ZM158.568 69.1123V58.6436H161.42V60.3623H161.479C162.016 59.1611 163.09 58.4287 164.672 58.4287C166.977 58.4287 168.285 59.9033 168.285 62.3545V69.1123H165.434V62.9404C165.434 61.5732 164.789 60.792 163.51 60.792C162.231 60.792 161.42 61.7295 161.42 63.0967V69.1123H158.568ZM174.322 69.3271C171.685 69.3271 170.064 67.2764 170.064 63.8779V63.8682C170.064 60.46 171.685 58.4287 174.322 58.4287C175.806 58.4287 176.978 59.1904 177.544 60.46H177.603V55.0205H180.454V69.1123H177.603V67.3252H177.544C176.988 68.5654 175.835 69.3271 174.322 69.3271ZM175.279 66.9639C176.665 66.9639 177.613 65.7725 177.613 63.8779V63.8682C177.613 61.9834 176.656 60.792 175.279 60.792C173.863 60.792 172.964 61.9541 172.964 63.8682V63.8779C172.964 65.7822 173.853 66.9639 175.279 66.9639ZM184.196 57.2959C183.336 57.2959 182.672 56.6221 182.672 55.8115C182.672 55.001 183.336 54.3271 184.196 54.3271C185.055 54.3271 185.719 55.001 185.719 55.8115C185.719 56.6221 185.055 57.2959 184.196 57.2959ZM182.77 69.1123V58.6436H185.621V69.1123H182.77ZM187.888 69.1123V58.6436H190.74V60.3623H190.798C191.335 59.1611 192.41 58.4287 193.992 58.4287C196.296 58.4287 197.605 59.9033 197.605 62.3545V69.1123H194.753V62.9404C194.753 61.5732 194.109 60.792 192.83 60.792C191.55 60.792 190.74 61.7295 190.74 63.0967V69.1123H187.888ZM204.657 72.7451C201.776 72.7451 199.96 71.4463 199.686 69.7666L199.676 69.6787H202.45L202.479 69.7471C202.704 70.2646 203.466 70.7139 204.657 70.7139C206.132 70.7139 206.913 69.9521 206.913 68.7803V67.1787H206.854C206.307 68.2725 205.135 68.9658 203.622 68.9658C201.005 68.9658 199.383 67.0127 199.383 63.7607V63.751C199.383 60.4111 201.024 58.4287 203.671 58.4287C205.145 58.4287 206.288 59.21 206.854 60.4307H206.913V58.6436H209.764V68.8193C209.764 71.1533 207.801 72.7451 204.657 72.7451ZM204.608 66.876C206.005 66.876 206.923 65.7041 206.923 63.8291V63.8193C206.923 61.9541 205.995 60.792 204.608 60.792C203.192 60.792 202.284 61.9443 202.284 63.8193V63.8291C202.284 65.7139 203.182 66.876 204.608 66.876Z" fill="white"/>
<path d="M40.3672 104.399C39.1504 104.399 38.3164 103.579 38.3164 102.335V88.2119H38.2344L35.3496 90.2217C34.9668 90.4951 34.6797 90.5908 34.2559 90.5908C33.4219 90.5908 32.8066 89.9893 32.8066 89.1143C32.8066 88.4854 33.0527 88.0205 33.6953 87.5693L37.6055 84.8623C38.5625 84.2061 39.2187 84.083 40.0664 84.083C41.5293 84.083 42.4043 84.9717 42.4043 86.3936V102.335C42.4043 103.579 41.584 104.399 40.3672 104.399ZM54.7128 104.55C51.582 104.55 48.8476 103.087 47.8632 100.995C47.6582 100.558 47.5351 100.134 47.5351 99.6416C47.5351 98.5889 48.1914 97.96 49.2578 97.96C50.0781 97.96 50.5976 98.2471 51.0624 98.9854C51.7734 100.407 52.9355 101.269 54.7128 101.269C56.8593 101.269 58.4042 99.7236 58.4042 97.5908C58.4042 95.5127 56.873 94.0361 54.7265 94.0361C53.5507 94.0361 52.5664 94.542 51.8691 95.2119C51.0624 95.9639 50.6523 96.1689 49.7363 96.1689C48.3828 96.1689 47.7402 95.2256 47.7949 94.1182C47.7949 94.0635 47.7949 94.0225 47.8085 93.9541L48.3828 86.7217C48.5195 85.0537 49.3808 84.3838 50.9804 84.3838H59.6347C60.6601 84.3838 61.33 85.0264 61.33 86.0244C61.33 87.0225 60.6738 87.665 59.6347 87.665H51.8417L51.3769 93.1475H51.4589C52.2656 91.876 53.8789 91.083 55.8886 91.083C59.6621 91.083 62.3417 93.7354 62.3417 97.4951C62.3417 101.706 59.2109 104.55 54.7128 104.55ZM72.7226 104.55C67.7186 104.55 64.6698 100.599 64.6698 94.2139C64.6698 87.8428 67.746 83.9326 72.7226 83.9326C77.6991 83.9326 80.7616 87.8291 80.7616 94.2002C80.7616 100.571 77.7265 104.55 72.7226 104.55ZM72.7226 101.241C75.1561 101.241 76.5643 98.7393 76.5643 94.2139C76.5643 89.7158 75.1425 87.2412 72.7226 87.2412C70.3163 87.2412 68.8671 89.7295 68.8671 94.2139C68.8671 98.7393 70.289 101.241 72.7226 101.241ZM85.4686 100.462C86.5077 100.462 87.1776 101.063 87.1776 102.048C87.1776 102.308 87.1502 102.567 87.0819 102.854L85.9745 107.462C85.7694 108.378 85.2909 108.802 84.3475 108.802C83.3905 108.802 82.8573 108.173 82.8983 107.325C82.8983 107.216 82.912 107.147 82.9256 107.106L83.6229 102.116C83.7596 100.968 84.4295 100.462 85.4686 100.462ZM98.4607 104.55C95.3299 104.55 92.5955 103.087 91.6111 100.995C91.406 100.558 91.283 100.134 91.283 99.6416C91.283 98.5889 91.9392 97.96 93.0056 97.96C93.826 97.96 94.3455 98.2471 94.8103 98.9854C95.5213 100.407 96.6834 101.269 98.4607 101.269C100.607 101.269 102.152 99.7236 102.152 97.5908C102.152 95.5127 100.621 94.0361 98.4744 94.0361C97.2986 94.0361 96.3142 94.542 95.617 95.2119C94.8103 95.9639 94.4002 96.1689 93.4842 96.1689C92.1306 96.1689 91.4881 95.2256 91.5428 94.1182C91.5428 94.0635 91.5428 94.0225 91.5564 93.9541L92.1306 86.7217C92.2674 85.0537 93.1287 84.3838 94.7283 84.3838H103.383C104.408 84.3838 105.078 85.0264 105.078 86.0244C105.078 87.0225 104.422 87.665 103.383 87.665H95.5896L95.1248 93.1475H95.2068C96.0135 91.876 97.6267 91.083 99.6365 91.083C103.41 91.083 106.09 93.7354 106.09 97.4951C106.09 101.706 102.959 104.55 98.4607 104.55ZM116.47 104.55C111.467 104.55 108.418 100.599 108.418 94.2139C108.418 87.8428 111.494 83.9326 116.47 83.9326C121.447 83.9326 124.51 87.8291 124.51 94.2002C124.51 100.571 121.474 104.55 116.47 104.55ZM116.47 101.241C118.904 101.241 120.312 98.7393 120.312 94.2139C120.312 89.7158 118.89 87.2412 116.47 87.2412C114.064 87.2412 112.615 89.7295 112.615 94.2139C112.615 98.7393 114.037 101.241 116.47 101.241ZM133.213 96.7295C132.789 96.7295 132.515 96.4424 132.515 96.0459C132.515 95.6221 132.789 95.3623 133.213 95.3623H134.593C134.566 94.9932 134.552 94.624 134.552 94.2412C134.552 93.8857 134.566 93.5439 134.593 93.2158H133.213C132.789 93.2158 132.515 92.9287 132.515 92.5322C132.515 92.1084 132.789 91.8486 133.213 91.8486H134.757C135.605 87.1592 138.996 84.3975 143.562 84.3975C147.172 84.3975 149.838 85.9014 151.136 88.5127C151.396 88.9639 151.519 89.4287 151.519 89.8662C151.519 90.8232 150.822 91.4522 149.755 91.4522C148.894 91.4522 148.402 91.0693 147.896 90.2217C146.98 88.4854 145.435 87.7334 143.644 87.7334C141.197 87.7334 139.474 89.2647 138.832 91.8486H145.134C145.558 91.8486 145.832 92.1084 145.832 92.5322C145.832 92.9287 145.558 93.2158 145.134 93.2158H138.613C138.586 93.5439 138.572 93.8857 138.558 94.2275C138.572 94.624 138.586 95.0068 138.613 95.3623H145.134C145.558 95.3623 145.832 95.6221 145.832 96.0459C145.832 96.4424 145.558 96.7295 145.134 96.7295H138.859C139.502 99.2725 141.224 100.763 143.658 100.763C145.476 100.763 147.048 100.147 147.937 98.3838C148.429 97.5361 148.88 97.1533 149.714 97.1533C150.849 97.1533 151.56 97.7822 151.56 98.7666C151.56 99.1221 151.492 99.5049 151.328 99.8877C150.179 102.622 147.117 104.085 143.672 104.085C138.996 104.085 135.632 101.378 134.771 96.7295H133.213Z" fill="white"/>
<rect x="31.1797" y="305.321" width="21.8991" height="5.97248" rx="2.98624" fill="white" fill-opacity="0.2"/>
<rect x="84.9492" y="270.771" width="21.97" height="40.5224" rx="5.85866" fill="#D7BA50"/>
<rect x="138.789" y="187.773" width="21.97" height="123.52" rx="5.85866" fill="#2AC467"/>
<rect x="192.625" y="224.391" width="21.97" height="86.9035" rx="5.85866" fill="#2AC467"/>
<rect x="246.465" y="208.279" width="21.97" height="103.015" rx="5.85866" fill="#2AC467"/>
<g clip-path="url(#clip1_2048_27326)">
<rect x="300.305" y="240.294" width="21.8986" height="70.8388" rx="6.99177" fill="#D7BA50"/>
<g clip-path="url(#clip2_2048_27326)">
<line y1="-1.99078" x2="58.0508" y2="-1.99078" transform="matrix(-0.819152 0.573576 -0.686642 -0.726996 331.426 299.249)" stroke="#737192" stroke-opacity="0.6" stroke-width="3.98157"/>
<line y1="-1.99078" x2="58.0508" y2="-1.99078" transform="matrix(-0.819152 0.573576 -0.686642 -0.726996 316.547 299.249)" stroke="#737192" stroke-opacity="0.6" stroke-width="3.98157"/>
<line y1="-1.99078" x2="58.0508" y2="-1.99078" transform="matrix(-0.819152 0.573576 -0.686642 -0.726996 301.664 299.249)" stroke="#737192" stroke-opacity="0.6" stroke-width="3.98157"/>
<line y1="-1.99078" x2="58.0508" y2="-1.99078" transform="matrix(-0.819152 0.573576 -0.686642 -0.726996 346.32 299.249)" stroke="#737192" stroke-opacity="0.6" stroke-width="3.98157"/>
</g>
<g clip-path="url(#clip3_2048_27326)">
<line y1="-1.99078" x2="58.0508" y2="-1.99078" transform="matrix(-0.819152 0.573576 -0.686642 -0.726996 331.426 288.797)" stroke="#737192" stroke-opacity="0.6" stroke-width="3.98157"/>
<line y1="-1.99078" x2="58.0508" y2="-1.99078" transform="matrix(-0.819152 0.573576 -0.686642 -0.726996 316.547 288.797)" stroke="#737192" stroke-opacity="0.6" stroke-width="3.98157"/>
<line y1="-1.99078" x2="58.0508" y2="-1.99078" transform="matrix(-0.819152 0.573576 -0.686642 -0.726996 301.664 288.797)" stroke="#737192" stroke-opacity="0.6" stroke-width="3.98157"/>
<line y1="-1.99078" x2="58.0508" y2="-1.99078" transform="matrix(-0.819152 0.573576 -0.686642 -0.726996 346.32 288.797)" stroke="#737192" stroke-opacity="0.6" stroke-width="3.98157"/>
</g>
<g clip-path="url(#clip4_2048_27326)">
<line y1="-1.99078" x2="58.0508" y2="-1.99078" transform="matrix(-0.819152 0.573576 -0.686642 -0.726996 331.426 278.346)" stroke="#737192" stroke-opacity="0.6" stroke-width="3.98157"/>
<line y1="-1.99078" x2="58.0508" y2="-1.99078" transform="matrix(-0.819152 0.573576 -0.686642 -0.726996 316.547 278.346)" stroke="#737192" stroke-opacity="0.6" stroke-width="3.98157"/>
<line y1="-1.99078" x2="58.0508" y2="-1.99078" transform="matrix(-0.819152 0.573576 -0.686642 -0.726996 301.664 278.346)" stroke="#737192" stroke-opacity="0.6" stroke-width="3.98157"/>
<line y1="-1.99078" x2="58.0508" y2="-1.99078" transform="matrix(-0.819152 0.573576 -0.686642 -0.726996 346.32 278.346)" stroke="#737192" stroke-opacity="0.6" stroke-width="3.98157"/>
</g>
<g clip-path="url(#clip5_2048_27326)">
<line y1="-1.99078" x2="58.0508" y2="-1.99078" transform="matrix(-0.819152 0.573576 -0.686642 -0.726996 331.426 267.892)" stroke="#737192" stroke-opacity="0.6" stroke-width="3.98157"/>
<line y1="-1.99078" x2="58.0508" y2="-1.99078" transform="matrix(-0.819152 0.573576 -0.686642 -0.726996 316.547 267.892)" stroke="#737192" stroke-opacity="0.6" stroke-width="3.98157"/>
<line y1="-1.99078" x2="58.0508" y2="-1.99078" transform="matrix(-0.819152 0.573576 -0.686642 -0.726996 301.664 267.892)" stroke="#737192" stroke-opacity="0.6" stroke-width="3.98157"/>
<line y1="-1.99078" x2="58.0508" y2="-1.99078" transform="matrix(-0.819152 0.573576 -0.686642 -0.726996 346.32 267.892)" stroke="#737192" stroke-opacity="0.6" stroke-width="3.98157"/>
</g>
<g clip-path="url(#clip6_2048_27326)">
<line y1="-1.99078" x2="58.0508" y2="-1.99078" transform="matrix(-0.819152 0.573576 -0.686642 -0.726996 331.426 257.442)" stroke="#737192" stroke-opacity="0.6" stroke-width="3.98157"/>
<line y1="-1.99078" x2="58.0508" y2="-1.99078" transform="matrix(-0.819152 0.573576 -0.686642 -0.726996 316.547 257.442)" stroke="#737192" stroke-opacity="0.6" stroke-width="3.98157"/>
<line y1="-1.99078" x2="58.0508" y2="-1.99078" transform="matrix(-0.819152 0.573576 -0.686642 -0.726996 301.664 257.442)" stroke="#737192" stroke-opacity="0.6" stroke-width="3.98157"/>
<line y1="-1.99078" x2="58.0508" y2="-1.99078" transform="matrix(-0.819152 0.573576 -0.686642 -0.726996 346.32 257.442)" stroke="#737192" stroke-opacity="0.6" stroke-width="3.98157"/>
</g>
<g clip-path="url(#clip7_2048_27326)">
<line y1="-1.99078" x2="58.0508" y2="-1.99078" transform="matrix(-0.819152 0.573576 -0.686642 -0.726996 331.426 246.991)" stroke="#737192" stroke-opacity="0.6" stroke-width="3.98157"/>
<line y1="-1.99078" x2="58.0508" y2="-1.99078" transform="matrix(-0.819152 0.573576 -0.686642 -0.726996 316.547 246.991)" stroke="#737192" stroke-opacity="0.6" stroke-width="3.98157"/>
<line y1="-1.99078" x2="58.0508" y2="-1.99078" transform="matrix(-0.819152 0.573576 -0.686642 -0.726996 301.664 246.991)" stroke="#737192" stroke-opacity="0.6" stroke-width="3.98157"/>
<line y1="-1.99078" x2="58.0508" y2="-1.99078" transform="matrix(-0.819152 0.573576 -0.686642 -0.726996 346.32 246.991)" stroke="#737192" stroke-opacity="0.6" stroke-width="3.98157"/>
</g>
<g clip-path="url(#clip8_2048_27326)">
<line y1="-1.99078" x2="58.0508" y2="-1.99078" transform="matrix(-0.819152 0.573576 -0.686642 -0.726996 331.426 236.538)" stroke="#737192" stroke-opacity="0.6" stroke-width="3.98157"/>
<line y1="-1.99078" x2="58.0508" y2="-1.99078" transform="matrix(-0.819152 0.573576 -0.686642 -0.726996 316.547 236.538)" stroke="#737192" stroke-opacity="0.6" stroke-width="3.98157"/>
<line y1="-1.99078" x2="58.0508" y2="-1.99078" transform="matrix(-0.819152 0.573576 -0.686642 -0.726996 301.664 236.538)" stroke="#737192" stroke-opacity="0.6" stroke-width="3.98157"/>
<line y1="-1.99078" x2="58.0508" y2="-1.99078" transform="matrix(-0.819152 0.573576 -0.686642 -0.726996 346.32 236.538)" stroke="#737192" stroke-opacity="0.6" stroke-width="3.98157"/>
</g>
</g>
<path d="M34.299 335.453C32.7194 335.453 31.8285 334.474 31.7337 333.166L31.7274 333.077H32.8647L32.871 333.141C32.9405 333.829 33.3891 334.404 34.2927 334.404C35.3036 334.404 35.847 333.804 35.847 332.692V326.121H36.9843V332.705C36.9843 334.43 35.986 335.453 34.299 335.453ZM41.0407 335.358C39.7454 335.358 38.7661 334.575 38.7661 333.336V333.324C38.7661 332.111 39.6633 331.409 41.2492 331.315L43.2016 331.195V330.575C43.2016 329.735 42.6898 329.28 41.6726 329.28C40.8575 329.28 40.3204 329.583 40.1435 330.114L40.1372 330.133H39.0378L39.0441 330.095C39.221 329.027 40.2572 328.307 41.7105 328.307C43.3722 328.307 44.301 329.16 44.301 330.575V335.238H43.2016V334.234H43.1005C42.6709 334.96 41.9569 335.358 41.0407 335.358ZM39.8908 333.311C39.8908 334 40.4784 334.404 41.2682 334.404C42.3865 334.404 43.2016 333.671 43.2016 332.698V332.079L41.3819 332.193C40.3457 332.256 39.8908 332.622 39.8908 333.299V333.311ZM46.3103 335.238V328.427H47.4097V329.451H47.5108C47.852 328.73 48.4901 328.307 49.4947 328.307C51.0238 328.307 51.8768 329.211 51.8768 330.828V335.238H50.7774V331.093C50.7774 329.868 50.2719 329.28 49.1851 329.28C48.0984 329.28 47.4097 330.013 47.4097 331.207V335.238H46.3103Z" fill="white" fill-opacity="0.7"/>
<path d="M84.862 335.238V326.121H90.3969V327.144H85.9993V330.278H90.0368V331.289H85.9993V335.238H84.862ZM94.9083 335.358C92.9622 335.358 91.787 333.994 91.787 331.858V331.852C91.787 329.748 92.9875 328.307 94.8388 328.307C96.6901 328.307 97.8147 329.684 97.8147 331.719V332.149H92.9117C92.9432 333.558 93.7204 334.379 94.9335 334.379C95.856 334.379 96.4247 333.943 96.6079 333.532L96.6332 333.475H97.7326L97.72 333.526C97.4862 334.448 96.5131 335.358 94.9083 335.358ZM94.8324 329.286C93.8215 329.286 93.0507 329.975 92.9306 331.27H96.6964C96.5826 329.925 95.8371 329.286 94.8324 329.286ZM102.907 335.358C101.96 335.358 101.201 334.91 100.784 334.152H100.683V335.238H99.5839V325.723H100.683V329.501H100.784C101.157 328.775 101.972 328.307 102.907 328.307C104.639 328.307 105.763 329.691 105.763 331.826V331.839C105.763 333.962 104.632 335.358 102.907 335.358ZM102.655 334.385C103.899 334.385 104.639 333.425 104.639 331.839V331.826C104.639 330.24 103.899 329.28 102.655 329.28C101.416 329.28 100.658 330.253 100.658 331.826V331.839C100.658 333.412 101.416 334.385 102.655 334.385Z" fill="white" fill-opacity="0.7"/>
<path d="M140.093 335.238V326.121H141.414L144.535 333.728H144.636L147.757 326.121H149.078V335.238H148.016V328.275H147.947L145.066 335.238H144.105L141.224 328.275H141.154V335.238H140.093ZM153.134 335.358C151.839 335.358 150.86 334.575 150.86 333.336V333.324C150.86 332.111 151.757 331.409 153.343 331.315L155.295 331.195V330.575C155.295 329.735 154.783 329.28 153.766 329.28C152.951 329.28 152.414 329.583 152.237 330.114L152.231 330.133H151.131L151.138 330.095C151.314 329.027 152.351 328.307 153.804 328.307C155.466 328.307 156.394 329.16 156.394 330.575V335.238H155.295V334.234H155.194C154.764 334.96 154.05 335.358 153.134 335.358ZM151.984 333.311C151.984 334 152.572 334.404 153.362 334.404C154.48 334.404 155.295 333.671 155.295 332.698V332.079L153.475 332.193C152.439 332.256 151.984 332.622 151.984 333.299V333.311ZM158.404 335.238V328.427H159.503V329.438H159.604C159.863 328.724 160.501 328.307 161.424 328.307C161.632 328.307 161.866 328.332 161.974 328.351V329.419C161.746 329.381 161.538 329.356 161.298 329.356C160.249 329.356 159.503 330.019 159.503 331.018V335.238H158.404Z" fill="white" fill-opacity="0.7"/>
<path d="M193.341 335.238L196.702 326.121H197.827L201.188 335.238H199.994L199.078 332.629H195.451L194.535 335.238H193.341ZM197.214 327.593L195.786 331.662H198.743L197.315 327.593H197.214ZM202.648 337.513V328.427H203.747V329.514H203.848C204.265 328.756 205.024 328.307 205.971 328.307C207.696 328.307 208.827 329.703 208.827 331.826V331.839C208.827 333.975 207.703 335.358 205.971 335.358C205.036 335.358 204.221 334.891 203.848 334.164H203.747V337.513H202.648ZM205.719 334.385C206.963 334.385 207.703 333.425 207.703 331.839V331.826C207.703 330.24 206.963 329.28 205.719 329.28C204.48 329.28 203.722 330.253 203.722 331.826V331.839C203.722 333.412 204.48 334.385 205.719 334.385ZM210.546 335.238V328.427H211.645V329.438H211.746C212.005 328.724 212.644 328.307 213.566 328.307C213.775 328.307 214.008 328.332 214.116 328.351V329.419C213.888 329.381 213.68 329.356 213.44 329.356C212.391 329.356 211.645 330.019 211.645 331.018V335.238H210.546Z" fill="white" fill-opacity="0.7"/>
<path d="M245.785 335.238V326.121H247.106L250.227 333.728H250.328L253.45 326.121H254.77V335.238H253.709V328.275H253.639L250.758 335.238H249.798L246.916 328.275H246.847V335.238H245.785ZM258.827 335.358C257.531 335.358 256.552 334.575 256.552 333.336V333.324C256.552 332.111 257.449 331.409 259.035 331.315L260.987 331.195V330.575C260.987 329.735 260.476 329.28 259.458 329.28C258.643 329.28 258.106 329.583 257.929 330.114L257.923 330.133H256.824L256.83 330.095C257.007 329.027 258.043 328.307 259.496 328.307C261.158 328.307 262.087 329.16 262.087 330.575V335.238H260.987V334.234H260.886C260.457 334.96 259.743 335.358 258.827 335.358ZM257.677 333.311C257.677 334 258.264 334.404 259.054 334.404C260.172 334.404 260.987 333.671 260.987 332.698V332.079L259.168 332.193C258.132 332.256 257.677 332.622 257.677 333.299V333.311ZM264.425 337.627C264.279 337.627 264.09 337.614 263.938 337.589V336.685C264.071 336.71 264.241 336.717 264.393 336.717C265.019 336.717 265.398 336.432 265.644 335.649L265.77 335.245L263.249 328.427H264.425L266.295 334.031H266.396L268.26 328.427H269.416L266.756 335.655C266.194 337.184 265.631 337.627 264.425 337.627Z" fill="white" fill-opacity="0.7"/>
<path d="M304.966 335.453C303.386 335.453 302.495 334.474 302.4 333.166L302.394 333.077H303.531L303.538 333.141C303.607 333.829 304.056 334.404 304.959 334.404C305.97 334.404 306.514 333.804 306.514 332.692V326.121H307.651V332.705C307.651 334.43 306.653 335.453 304.966 335.453ZM312.118 335.358C310.57 335.358 309.774 334.448 309.774 332.837V328.427H310.873V332.572C310.873 333.798 311.316 334.385 312.402 334.385C313.603 334.385 314.241 333.652 314.241 332.458V328.427H315.34V335.238H314.241V334.221H314.14C313.805 334.948 313.116 335.358 312.118 335.358ZM317.394 335.238V328.427H318.493V329.451H318.594C318.936 328.73 319.574 328.307 320.578 328.307C322.107 328.307 322.96 329.211 322.96 330.828V335.238H321.861V331.093C321.861 329.868 321.355 329.28 320.269 329.28C319.182 329.28 318.493 330.013 318.493 331.207V335.238H317.394Z" fill="white" fill-opacity="0.7"/>
<g filter="url(#filter2_dd_2048_27326)">
<g clip-path="url(#clip9_2048_27326)">
<path d="M16 386.443C16 373.204 26.7323 362.472 39.9712 362.472H319.658C332.897 362.472 343.629 373.204 343.629 386.443V466.343C343.629 479.581 332.897 490.314 319.658 490.314H39.9712C26.7322 490.314 16 479.582 16 466.343V386.443Z" fill="white"/>
<g clip-path="url(#clip10_2048_27326)">
<path d="M42.1797 396.685C38.9709 396.685 36.7508 395.09 36.7508 392.777V392.758C36.7508 391.014 38.0474 389.727 39.857 389.372V389.316C38.2992 388.934 37.2452 387.805 37.2452 386.369V386.35C37.2452 384.27 39.2693 382.759 42.1797 382.759C45.0807 382.759 47.1142 384.27 47.1142 386.35V386.369C47.1142 387.805 46.0508 388.934 44.5024 389.316V389.372C46.3027 389.727 47.5993 391.014 47.5993 392.758V392.777C47.5993 395.09 45.3885 396.685 42.1797 396.685ZM42.1797 388.467C43.4483 388.467 44.3251 387.712 44.3251 386.63V386.611C44.3251 385.538 43.439 384.792 42.1797 384.792C40.9204 384.792 40.0249 385.538 40.0249 386.611V386.63C40.0249 387.712 40.9111 388.467 42.1797 388.467ZM42.1797 394.633C43.6442 394.633 44.6796 393.775 44.6796 392.59V392.572C44.6796 391.378 43.6628 390.51 42.1797 390.51C40.6965 390.51 39.6705 391.378 39.6705 392.572V392.59C39.6705 393.775 40.7059 394.633 42.1797 394.633ZM52.6542 389.923C50.714 389.923 49.5293 388.57 49.5293 386.397V386.387C49.5293 384.223 50.714 382.871 52.6542 382.871C54.5851 382.871 55.7698 384.223 55.7698 386.387V386.397C55.7698 388.57 54.5851 389.923 52.6542 389.923ZM54.0441 396.452H51.9639L60.4711 382.992H62.5419L54.0441 396.452ZM52.6542 388.374C53.4005 388.374 53.8109 387.674 53.8109 386.397V386.387C53.8109 385.119 53.4005 384.419 52.6542 384.419C51.8986 384.419 51.4789 385.119 51.4789 386.387V386.397C51.4789 387.674 51.8986 388.374 52.6542 388.374ZM61.861 396.573C59.9207 396.573 58.7361 395.221 58.7361 393.047V393.038C58.7361 390.874 59.9207 389.521 61.861 389.521C63.7919 389.521 64.9765 390.874 64.9765 393.038V393.047C64.9765 395.221 63.7919 396.573 61.861 396.573ZM61.861 395.025C62.6072 395.025 63.0176 394.325 63.0176 393.047V393.038C63.0176 391.769 62.6072 391.07 61.861 391.07C61.1054 391.07 60.6856 391.769 60.6856 393.038V393.047C60.6856 394.325 61.1054 395.025 61.861 395.025ZM75.7487 396.657C72.7078 396.657 70.7955 394.708 70.7955 391.452V391.434C70.7955 388.216 72.7544 386.247 75.7394 386.247C78.7337 386.247 80.7019 388.197 80.7019 391.434V391.452C80.7019 394.717 78.771 396.657 75.7487 396.657ZM75.758 394.521C77.0826 394.521 77.9315 393.402 77.9315 391.452V391.434C77.9315 389.503 77.064 388.383 75.7394 388.383C74.4241 388.383 73.566 389.503 73.566 391.434V391.452C73.566 393.411 74.4148 394.521 75.758 394.521ZM83.201 396.452V388.505H81.8391V386.453H83.201V385.65C83.201 383.691 84.1338 382.787 86.4938 382.787C86.9975 382.787 87.5478 382.833 87.865 382.899V384.699C87.6784 384.662 87.4172 384.652 87.1654 384.652C86.2606 384.652 85.8594 385.035 85.8594 385.753V386.453H87.8463V388.505H85.9247V396.452H83.201ZM95.363 399.745C94.8313 399.745 94.2903 399.68 93.9732 399.624V397.599C94.1691 397.637 94.4862 397.693 94.8873 397.693C95.6989 397.693 96.1466 397.46 96.3891 396.779L96.5104 396.452L92.9751 386.453H95.9694L98.0775 394.269H98.1521L100.27 386.453H103.143L99.7099 396.629C98.9263 398.989 97.5831 399.745 95.363 399.745ZM108.692 396.657C105.651 396.657 103.739 394.708 103.739 391.452V391.434C103.739 388.216 105.698 386.247 108.683 386.247C111.677 386.247 113.645 388.197 113.645 391.434V391.452C113.645 394.717 111.714 396.657 108.692 396.657ZM108.701 394.521C110.026 394.521 110.875 393.402 110.875 391.452V391.434C110.875 389.503 110.007 388.383 108.683 388.383C107.367 388.383 106.509 389.503 106.509 391.434V391.452C106.509 393.411 107.358 394.521 108.701 394.521ZM118.821 396.657C116.62 396.657 115.37 395.249 115.37 392.908V386.453H118.094V392.338C118.094 393.644 118.709 394.4 119.931 394.4C121.153 394.4 121.928 393.504 121.928 392.199V386.453H124.651V396.452H121.928V394.801H121.872C121.359 395.948 120.332 396.657 118.821 396.657ZM126.787 396.452V386.453H129.51V388.197H129.566C129.865 386.966 130.676 386.247 131.842 386.247C132.141 386.247 132.421 386.294 132.626 386.35V388.747C132.402 388.654 132.029 388.598 131.637 388.598C130.294 388.598 129.51 389.4 129.51 390.855V396.452H126.787ZM139.676 385.165C138.855 385.165 138.221 384.522 138.221 383.747C138.221 382.973 138.855 382.33 139.676 382.33C140.497 382.33 141.131 382.973 141.131 383.747C141.131 384.522 140.497 385.165 139.676 385.165ZM138.314 396.452V386.453H141.038V396.452H138.314ZM143.229 396.452V386.453H145.953V388.094H146.009C146.522 386.947 147.548 386.247 149.059 386.247C151.261 386.247 152.511 387.656 152.511 389.997V396.452H149.787V390.557C149.787 389.251 149.171 388.505 147.949 388.505C146.727 388.505 145.953 389.4 145.953 390.706V396.452H143.229ZM159.17 396.657C156.12 396.657 154.236 394.67 154.236 391.443V391.434C154.236 388.234 156.148 386.247 159.142 386.247C161.857 386.247 163.582 387.917 163.685 390.081V390.146H161.157L161.138 390.062C160.97 389.111 160.308 388.383 159.18 388.383C157.846 388.383 157.006 389.531 157.006 391.443V391.452C157.006 393.411 157.846 394.521 159.189 394.521C160.28 394.521 160.961 393.85 161.148 392.842L161.157 392.758H163.694V392.814C163.564 394.997 161.838 396.657 159.17 396.657ZM169.962 396.657C166.921 396.657 165.009 394.708 165.009 391.452V391.434C165.009 388.216 166.968 386.247 169.953 386.247C172.947 386.247 174.915 388.197 174.915 391.434V391.452C174.915 394.717 172.984 396.657 169.962 396.657ZM169.971 394.521C171.296 394.521 172.145 393.402 172.145 391.452V391.434C172.145 389.503 171.277 388.383 169.953 388.383C168.637 388.383 167.779 389.503 167.779 391.434V391.452C167.779 393.411 168.628 394.521 169.971 394.521ZM176.687 396.452V386.453H179.41V388.132H179.466C179.877 386.994 180.921 386.247 182.265 386.247C183.664 386.247 184.681 386.994 185.016 388.309H185.072C185.52 387.05 186.714 386.247 188.179 386.247C190.138 386.247 191.453 387.6 191.453 389.615V396.452H188.729V390.296C188.729 389.139 188.151 388.505 187.097 388.505C186.061 388.505 185.38 389.26 185.38 390.37V396.452H182.759V390.212C182.759 389.139 182.153 388.505 181.145 388.505C180.11 388.505 179.41 389.288 179.41 390.417V396.452H176.687ZM198.093 396.657C195.034 396.657 193.178 394.67 193.178 391.471V391.462C193.178 388.281 195.053 386.247 197.982 386.247C200.911 386.247 202.748 388.234 202.748 391.256V392.096H195.864C195.892 393.691 196.76 394.624 198.149 394.624C199.269 394.624 199.95 394.008 200.146 393.449L200.164 393.393H202.664L202.636 393.495C202.328 394.969 200.948 396.657 198.093 396.657ZM198.028 388.281C196.909 388.281 196.069 389.027 195.892 390.38H200.136C199.968 388.999 199.157 388.281 198.028 388.281ZM208.735 396.452V382.992H211.459V396.452H208.735ZM218.212 396.657C215.152 396.657 213.296 394.67 213.296 391.471V391.462C213.296 388.281 215.171 386.247 218.1 386.247C221.029 386.247 222.866 388.234 222.866 391.256V392.096H215.982C216.01 393.691 216.878 394.624 218.267 394.624C219.387 394.624 220.068 394.008 220.264 393.449L220.282 393.393H222.782L222.754 393.495C222.446 394.969 221.066 396.657 218.212 396.657ZM218.146 388.281C217.027 388.281 216.187 389.027 216.01 390.38H220.254C220.086 388.999 219.275 388.281 218.146 388.281ZM225.365 396.452V388.505H224.003V386.453H225.365V385.65C225.365 383.691 226.298 382.787 228.658 382.787C229.162 382.787 229.712 382.833 230.029 382.899V384.699C229.843 384.662 229.582 384.652 229.33 384.652C228.425 384.652 228.024 385.035 228.024 385.753V386.453H230.011V388.505H228.089V396.452H225.365ZM235.784 396.657C233.564 396.657 232.519 395.799 232.519 393.654V388.505H231.129V386.453H232.519V384.009H235.271V386.453H237.099V388.505H235.271V393.355C235.271 394.288 235.691 394.605 236.511 394.605C236.754 394.605 236.931 394.577 237.099 394.559V396.555C236.791 396.601 236.353 396.657 235.784 396.657Z" fill="#333333"/>
</g>
<path d="M37.3602 423.452V412.601H38.7137V423.452H37.3602ZM41.8106 423.452V416.429H40.4646V415.346H41.8106V414.444C41.8106 413.902 41.8984 413.456 42.0738 413.105C42.2543 412.749 42.52 412.486 42.8709 412.316C43.2218 412.14 43.6529 412.053 44.1642 412.053C44.3247 412.053 44.4751 412.06 44.6154 412.075C44.7608 412.085 44.9012 412.103 45.0365 412.128V413.173C44.9563 413.158 44.8636 413.148 44.7583 413.143C44.653 413.138 44.5427 413.135 44.4274 413.135C43.9612 413.135 43.6253 413.248 43.4198 413.474C43.2193 413.699 43.119 414.035 43.119 414.481V415.346H44.9613V416.429H43.119V423.452H41.8106ZM51.7794 426.295C51.6941 426.295 51.5989 426.29 51.4936 426.279C51.3884 426.274 51.2906 426.264 51.2004 426.249V425.174C51.2806 425.189 51.3683 425.199 51.4635 425.204C51.5588 425.209 51.6515 425.212 51.7418 425.212C52.1127 425.212 52.416 425.116 52.6516 424.926C52.8923 424.735 53.0853 424.407 53.2306 423.941L53.381 423.46L50.3807 415.346H51.7794L54.2759 422.836L53.757 422.016H54.3736L53.8548 422.836L56.3437 415.346H57.7198L54.5541 423.948C54.3335 424.555 54.1004 425.029 53.8548 425.37C53.6091 425.711 53.3209 425.949 52.99 426.084C52.6642 426.224 52.2606 426.295 51.7794 426.295ZM62.4335 423.595C61.6665 423.595 61.0022 423.427 60.4408 423.091C59.8843 422.75 59.4532 422.267 59.1474 421.64C58.8466 421.013 58.6963 420.269 58.6963 419.407V419.392C58.6963 418.524 58.8466 417.777 59.1474 417.151C59.4532 416.524 59.8843 416.043 60.4408 415.707C61.0022 415.371 61.6665 415.203 62.4335 415.203C63.2055 415.203 63.8697 415.371 64.4261 415.707C64.9826 416.043 65.4112 416.524 65.712 417.151C66.0178 417.777 66.1707 418.524 66.1707 419.392V419.407C66.1707 420.269 66.0178 421.013 65.712 421.64C65.4112 422.267 64.9826 422.75 64.4261 423.091C63.8697 423.427 63.2055 423.595 62.4335 423.595ZM62.4335 422.437C62.9448 422.437 63.3784 422.317 63.7343 422.076C64.0903 421.835 64.361 421.49 64.5464 421.038C64.7369 420.587 64.8322 420.043 64.8322 419.407V419.392C64.8322 418.75 64.7369 418.204 64.5464 417.752C64.361 417.301 64.0903 416.958 63.7343 416.722C63.3784 416.482 62.9448 416.361 62.4335 416.361C61.9221 416.361 61.4885 416.482 61.1326 416.722C60.7767 416.958 60.5034 417.301 60.313 417.752C60.1275 418.204 60.0347 418.75 60.0347 419.392V419.407C60.0347 420.043 60.1275 420.587 60.313 421.038C60.5034 421.49 60.7767 421.835 61.1326 422.076C61.4885 422.317 61.9221 422.437 62.4335 422.437ZM70.8693 423.595C70.2577 423.595 69.7439 423.48 69.3278 423.249C68.9117 423.014 68.5984 422.673 68.3878 422.226C68.1823 421.775 68.0795 421.231 68.0795 420.595V415.346H69.3879V420.279C69.3879 421.006 69.5283 421.547 69.809 421.903C70.0948 422.259 70.561 422.437 71.2077 422.437C71.5636 422.437 71.8769 422.384 72.1476 422.279C72.4233 422.174 72.6539 422.023 72.8394 421.828C73.0249 421.627 73.1627 421.387 73.253 421.106C73.3482 420.82 73.3959 420.499 73.3959 420.144V415.346H74.7043V423.452H73.3959V422.242H73.2755C73.1452 422.527 72.9672 422.773 72.7417 422.978C72.5161 423.179 72.2454 423.332 71.9295 423.437C71.6187 423.542 71.2653 423.595 70.8693 423.595ZM84.1692 423.595C83.5676 423.595 83.0362 423.505 82.575 423.324C82.1138 423.139 81.7429 422.881 81.4621 422.55C81.1864 422.219 81.0235 421.83 80.9734 421.384H82.3119C82.4221 421.72 82.6377 421.991 82.9585 422.196C83.2794 422.402 83.698 422.505 84.2143 422.505C84.5802 422.505 84.9011 422.452 85.1768 422.347C85.4575 422.236 85.6781 422.089 85.8385 421.903C85.9989 421.713 86.0791 421.495 86.0791 421.249V421.234C86.0791 420.958 85.9689 420.725 85.7483 420.535C85.5277 420.339 85.1668 420.181 84.6655 420.061L83.4097 419.76C82.9034 419.64 82.4873 419.484 82.1615 419.294C81.8356 419.098 81.595 418.86 81.4396 418.579C81.2842 418.294 81.2065 417.958 81.2065 417.572V417.564C81.2065 417.113 81.3368 416.71 81.5975 416.354C81.8632 415.998 82.2241 415.717 82.6803 415.512C83.1365 415.306 83.6503 415.203 84.2218 415.203C84.7883 415.203 85.2896 415.293 85.7257 415.474C86.1669 415.649 86.5203 415.9 86.786 416.226C87.0567 416.552 87.2221 416.935 87.2823 417.376H85.9964C85.9112 417.056 85.7157 416.795 85.4099 416.594C85.1041 416.394 84.7056 416.294 84.2143 416.294C83.8935 416.294 83.6077 416.346 83.3571 416.451C83.1064 416.552 82.9084 416.692 82.763 416.873C82.6176 417.053 82.545 417.264 82.545 417.504V417.519C82.545 417.7 82.5926 417.86 82.6878 418C82.7831 418.141 82.931 418.264 83.1315 418.369C83.332 418.474 83.5902 418.567 83.906 418.647L85.1542 418.948C85.9162 419.133 86.4827 419.399 86.8536 419.745C87.2296 420.091 87.4176 420.555 87.4176 421.136V421.151C87.4176 421.632 87.2747 422.059 86.989 422.429C86.7033 422.795 86.3147 423.081 85.8235 423.287C85.3372 423.492 84.7858 423.595 84.1692 423.595ZM89.4017 426.159V415.346H90.7101V416.639H90.8304C90.9958 416.339 91.2039 416.083 91.4545 415.872C91.7052 415.657 91.9909 415.491 92.3117 415.376C92.6326 415.261 92.981 415.203 93.357 415.203C94.0437 415.203 94.6403 415.379 95.1466 415.73C95.6579 416.075 96.054 416.562 96.3347 417.188C96.6154 417.815 96.7558 418.549 96.7558 419.392V419.407C96.7558 420.254 96.6154 420.991 96.3347 421.617C96.054 422.244 95.6579 422.73 95.1466 423.076C94.6403 423.422 94.0437 423.595 93.357 423.595C92.986 423.595 92.6351 423.537 92.3042 423.422C91.9784 423.302 91.6876 423.136 91.432 422.926C91.1813 422.715 90.9808 422.465 90.8304 422.174H90.7101V426.159H89.4017ZM93.0562 422.437C93.5525 422.437 93.9761 422.317 94.327 422.076C94.6779 421.83 94.9461 421.482 95.1316 421.031C95.3221 420.575 95.4173 420.033 95.4173 419.407V419.392C95.4173 418.76 95.3221 418.219 95.1316 417.767C94.9461 417.316 94.6779 416.97 94.327 416.73C93.9761 416.484 93.5525 416.361 93.0562 416.361C92.5649 416.361 92.1413 416.484 91.7854 416.73C91.4295 416.975 91.1562 417.324 90.9658 417.775C90.7753 418.226 90.68 418.765 90.68 419.392V419.407C90.68 420.028 90.7753 420.567 90.9658 421.023C91.1562 421.475 91.4295 421.823 91.7854 422.069C92.1413 422.314 92.5649 422.437 93.0562 422.437ZM102.063 423.595C101.291 423.595 100.627 423.425 100.071 423.084C99.5194 422.743 99.0933 422.262 98.7925 421.64C98.4967 421.013 98.3488 420.276 98.3488 419.429V419.422C98.3488 418.585 98.4967 417.85 98.7925 417.218C99.0933 416.587 99.5169 416.093 100.063 415.737C100.61 415.381 101.249 415.203 101.981 415.203C102.718 415.203 103.349 415.374 103.876 415.715C104.407 416.055 104.813 416.532 105.094 417.143C105.38 417.75 105.522 418.457 105.522 419.264V419.775H99.0256V418.73H104.853L104.207 419.685V419.166C104.207 418.529 104.111 418.006 103.921 417.594C103.73 417.183 103.467 416.878 103.131 416.677C102.795 416.472 102.409 416.369 101.973 416.369C101.537 416.369 101.146 416.477 100.8 416.692C100.459 416.903 100.189 417.216 99.9881 417.632C99.7876 418.048 99.6873 418.559 99.6873 419.166V419.685C99.6873 420.261 99.7851 420.755 99.9806 421.166C100.176 421.572 100.454 421.886 100.815 422.106C101.176 422.322 101.602 422.429 102.094 422.429C102.46 422.429 102.778 422.379 103.049 422.279C103.319 422.179 103.542 422.051 103.718 421.896C103.893 421.74 104.016 421.582 104.086 421.422L104.116 421.354H105.425L105.41 421.414C105.34 421.69 105.214 421.958 105.034 422.219C104.858 422.475 104.63 422.708 104.349 422.918C104.069 423.124 103.735 423.289 103.349 423.415C102.968 423.535 102.54 423.595 102.063 423.595ZM107.507 423.452V415.346H108.815V416.564H108.935C109.141 416.133 109.437 415.8 109.823 415.564C110.209 415.324 110.7 415.203 111.296 415.203C112.209 415.203 112.908 415.464 113.394 415.985C113.886 416.502 114.131 417.241 114.131 418.204V423.452H112.823V418.519C112.823 417.787 112.667 417.246 112.357 416.895C112.051 416.539 111.575 416.361 110.928 416.361C110.497 416.361 110.123 416.454 109.808 416.639C109.492 416.825 109.246 417.088 109.071 417.429C108.9 417.77 108.815 418.178 108.815 418.655V423.452H107.507ZM119.446 423.595C118.765 423.595 118.168 423.422 117.657 423.076C117.146 422.73 116.749 422.244 116.469 421.617C116.188 420.986 116.048 420.249 116.048 419.407V419.392C116.048 418.544 116.188 417.807 116.469 417.181C116.749 416.554 117.143 416.068 117.649 415.722C118.161 415.376 118.76 415.203 119.446 415.203C119.817 415.203 120.166 415.263 120.492 415.384C120.823 415.499 121.116 415.662 121.371 415.872C121.627 416.083 121.828 416.334 121.973 416.624H122.093V412.128H123.402V423.452H122.093V422.159H121.973C121.808 422.46 121.6 422.718 121.349 422.933C121.098 423.144 120.813 423.307 120.492 423.422C120.171 423.537 119.822 423.595 119.446 423.595ZM119.747 422.437C120.239 422.437 120.662 422.314 121.018 422.069C121.374 421.823 121.647 421.475 121.838 421.023C122.028 420.567 122.123 420.028 122.123 419.407V419.392C122.123 418.765 122.028 418.226 121.838 417.775C121.647 417.324 121.374 416.975 121.018 416.73C120.662 416.484 120.239 416.361 119.747 416.361C119.256 416.361 118.832 416.484 118.476 416.73C118.126 416.97 117.855 417.316 117.664 417.767C117.479 418.219 117.386 418.76 117.386 419.392V419.407C117.386 420.033 117.479 420.575 117.664 421.031C117.855 421.482 118.126 421.83 118.476 422.076C118.832 422.317 119.256 422.437 119.747 422.437ZM132.799 423.452V414.105H132.679L129.919 416.106V414.677L132.807 412.601H134.153V423.452H132.799ZM140.806 423.708C140.134 423.708 139.535 423.575 139.009 423.309C138.483 423.044 138.059 422.683 137.738 422.226C137.422 421.765 137.237 421.246 137.182 420.67L137.174 420.587H138.475L138.483 420.647C138.528 420.993 138.653 421.309 138.859 421.595C139.069 421.876 139.342 422.099 139.678 422.264C140.019 422.429 140.4 422.512 140.821 422.512C141.303 422.512 141.726 422.407 142.092 422.196C142.458 421.981 142.744 421.685 142.949 421.309C143.155 420.933 143.258 420.502 143.258 420.016V420.001C143.258 419.519 143.152 419.093 142.942 418.722C142.736 418.346 142.453 418.053 142.092 417.843C141.731 417.632 141.315 417.527 140.844 417.527C140.483 417.527 140.15 417.582 139.844 417.692C139.543 417.802 139.275 417.968 139.039 418.188C138.944 418.279 138.854 418.376 138.768 418.482C138.688 418.587 138.613 418.705 138.543 418.835H137.37L137.941 412.601H143.979V413.812H139.009L138.641 417.482H138.761C138.921 417.236 139.119 417.03 139.355 416.865C139.591 416.7 139.854 416.574 140.145 416.489C140.44 416.399 140.751 416.354 141.077 416.354C141.759 416.354 142.363 416.512 142.889 416.827C143.416 417.138 143.829 417.567 144.13 418.113C144.431 418.655 144.581 419.276 144.581 419.978V419.993C144.581 420.72 144.418 421.364 144.092 421.926C143.771 422.482 143.328 422.918 142.761 423.234C142.195 423.55 141.543 423.708 140.806 423.708ZM150.347 423.708C149.545 423.708 148.859 423.477 148.287 423.016C147.721 422.555 147.284 421.901 146.979 421.053C146.673 420.201 146.52 419.194 146.52 418.031V418.016C146.52 416.853 146.673 415.847 146.979 415C147.284 414.153 147.721 413.499 148.287 413.038C148.859 412.576 149.545 412.346 150.347 412.346C151.15 412.346 151.836 412.576 152.408 413.038C152.979 413.499 153.418 414.153 153.724 415C154.035 415.847 154.19 416.853 154.19 418.016V418.031C154.19 419.194 154.035 420.201 153.724 421.053C153.418 421.901 152.979 422.555 152.408 423.016C151.836 423.477 151.15 423.708 150.347 423.708ZM150.347 422.527C150.869 422.527 151.312 422.344 151.678 421.978C152.049 421.612 152.333 421.094 152.528 420.422C152.729 419.75 152.829 418.953 152.829 418.031V418.016C152.829 417.093 152.729 416.299 152.528 415.632C152.333 414.96 152.049 414.444 151.678 414.083C151.312 413.717 150.869 413.534 150.347 413.534C149.831 413.534 149.387 413.717 149.016 414.083C148.651 414.444 148.37 414.96 148.174 415.632C147.979 416.299 147.881 417.093 147.881 418.016V418.031C147.881 418.953 147.979 419.75 148.174 420.422C148.37 421.094 148.651 421.612 149.016 421.978C149.387 422.344 149.831 422.527 150.347 422.527ZM160.077 423.633C159.31 423.633 158.63 423.5 158.039 423.234C157.447 422.968 156.981 422.602 156.64 422.136C156.304 421.665 156.136 421.126 156.136 420.52V420.504C156.136 420.058 156.234 419.645 156.43 419.264C156.625 418.883 156.898 418.559 157.249 418.294C157.6 418.023 158.006 417.835 158.467 417.73V417.7C157.876 417.514 157.405 417.208 157.054 416.782C156.703 416.356 156.527 415.857 156.527 415.286V415.271C156.527 414.724 156.68 414.238 156.986 413.812C157.292 413.381 157.713 413.043 158.249 412.797C158.786 412.546 159.395 412.421 160.077 412.421C160.763 412.421 161.372 412.546 161.904 412.797C162.44 413.043 162.861 413.381 163.167 413.812C163.473 414.238 163.626 414.724 163.626 415.271V415.286C163.626 415.857 163.45 416.356 163.099 416.782C162.754 417.208 162.282 417.514 161.686 417.7V417.73C162.152 417.835 162.558 418.023 162.904 418.294C163.255 418.559 163.528 418.883 163.724 419.264C163.919 419.645 164.017 420.058 164.017 420.504V420.52C164.017 421.126 163.849 421.665 163.513 422.136C163.177 422.602 162.711 422.968 162.114 423.234C161.523 423.5 160.844 423.633 160.077 423.633ZM160.077 422.452C160.578 422.452 161.019 422.367 161.4 422.196C161.786 422.021 162.089 421.783 162.31 421.482C162.53 421.176 162.641 420.828 162.641 420.437V420.422C162.641 420.026 162.53 419.675 162.31 419.369C162.094 419.063 161.794 418.823 161.408 418.647C161.022 418.472 160.578 418.384 160.077 418.384C159.575 418.384 159.132 418.472 158.746 418.647C158.36 418.823 158.056 419.063 157.836 419.369C157.62 419.675 157.512 420.026 157.512 420.422V420.437C157.512 420.828 157.623 421.176 157.843 421.482C158.064 421.783 158.367 422.021 158.753 422.196C159.139 422.367 159.58 422.452 160.077 422.452ZM160.077 417.196C160.513 417.196 160.896 417.121 161.227 416.97C161.558 416.815 161.816 416.602 162.002 416.331C162.187 416.06 162.28 415.75 162.28 415.399V415.384C162.28 415.033 162.187 414.722 162.002 414.451C161.816 414.181 161.558 413.97 161.227 413.82C160.896 413.664 160.513 413.587 160.077 413.587C159.64 413.587 159.257 413.664 158.926 413.82C158.595 413.97 158.337 414.181 158.152 414.451C157.966 414.722 157.873 415.033 157.873 415.384V415.399C157.873 415.75 157.966 416.06 158.152 416.331C158.337 416.602 158.595 416.815 158.926 416.97C159.257 417.121 159.64 417.196 160.077 417.196ZM176.715 423.294C175.978 423.294 175.284 423.189 174.632 422.978C173.981 422.768 173.404 422.447 172.903 422.016C172.401 421.585 172.008 421.038 171.722 420.377C171.436 419.715 171.294 418.933 171.294 418.031V418.016C171.294 417.113 171.436 416.331 171.722 415.669C172.008 415.008 172.401 414.461 172.903 414.03C173.409 413.599 173.988 413.281 174.64 413.075C175.291 412.865 175.983 412.759 176.715 412.759C176.996 412.759 177.297 412.774 177.618 412.804C177.938 412.83 178.176 412.87 178.332 412.925V414.143C178.166 414.103 177.926 414.07 177.61 414.045C177.294 414.02 176.996 414.008 176.715 414.008C176.139 414.008 175.605 414.088 175.114 414.248C174.622 414.409 174.194 414.654 173.828 414.985C173.467 415.316 173.186 415.735 172.985 416.241C172.785 416.747 172.685 417.346 172.685 418.038V418.053C172.685 418.74 172.785 419.334 172.985 419.835C173.191 420.337 173.474 420.753 173.835 421.083C174.201 421.409 174.627 421.652 175.114 421.813C175.605 421.968 176.139 422.046 176.715 422.046C176.996 422.046 177.294 422.036 177.61 422.016C177.926 421.996 178.166 421.961 178.332 421.911V423.129C178.176 423.184 177.938 423.227 177.618 423.257C177.297 423.282 176.996 423.294 176.715 423.294ZM169.835 419.55V418.647H176.948V419.55H169.835ZM169.835 417.369V416.467H176.948V417.369H169.835ZM184.39 426.159V415.346H185.699V416.639H185.819C185.985 416.339 186.193 416.083 186.443 415.872C186.694 415.657 186.98 415.491 187.301 415.376C187.621 415.261 187.97 415.203 188.346 415.203C189.033 415.203 189.629 415.379 190.135 415.73C190.647 416.075 191.043 416.562 191.323 417.188C191.604 417.815 191.745 418.549 191.745 419.392V419.407C191.745 420.254 191.604 420.991 191.323 421.617C191.043 422.244 190.647 422.73 190.135 423.076C189.629 423.422 189.033 423.595 188.346 423.595C187.975 423.595 187.624 423.537 187.293 423.422C186.967 423.302 186.676 423.136 186.421 422.926C186.17 422.715 185.97 422.465 185.819 422.174H185.699V426.159H184.39ZM188.045 422.437C188.541 422.437 188.965 422.317 189.316 422.076C189.667 421.83 189.935 421.482 190.12 421.031C190.311 420.575 190.406 420.033 190.406 419.407V419.392C190.406 418.76 190.311 418.219 190.12 417.767C189.935 417.316 189.667 416.97 189.316 416.73C188.965 416.484 188.541 416.361 188.045 416.361C187.554 416.361 187.13 416.484 186.774 416.73C186.418 416.975 186.145 417.324 185.955 417.775C185.764 418.226 185.669 418.765 185.669 419.392V419.407C185.669 420.028 185.764 420.567 185.955 421.023C186.145 421.475 186.418 421.823 186.774 422.069C187.13 422.314 187.554 422.437 188.045 422.437ZM197.052 423.595C196.28 423.595 195.616 423.425 195.06 423.084C194.508 422.743 194.082 422.262 193.781 421.64C193.485 421.013 193.338 420.276 193.338 419.429V419.422C193.338 418.585 193.485 417.85 193.781 417.218C194.082 416.587 194.506 416.093 195.052 415.737C195.598 415.381 196.238 415.203 196.97 415.203C197.706 415.203 198.338 415.374 198.864 415.715C199.396 416.055 199.802 416.532 200.083 417.143C200.368 417.75 200.511 418.457 200.511 419.264V419.775H194.014V418.73H199.842L199.195 419.685V419.166C199.195 418.529 199.1 418.006 198.91 417.594C198.719 417.183 198.456 416.878 198.12 416.677C197.784 416.472 197.398 416.369 196.962 416.369C196.526 416.369 196.135 416.477 195.789 416.692C195.448 416.903 195.177 417.216 194.977 417.632C194.776 418.048 194.676 418.559 194.676 419.166V419.685C194.676 420.261 194.774 420.755 194.969 421.166C195.165 421.572 195.443 421.886 195.804 422.106C196.165 422.322 196.591 422.429 197.082 422.429C197.448 422.429 197.767 422.379 198.037 422.279C198.308 422.179 198.531 422.051 198.707 421.896C198.882 421.74 199.005 421.582 199.075 421.422L199.105 421.354H200.413L200.398 421.414C200.328 421.69 200.203 421.958 200.022 422.219C199.847 422.475 199.619 422.708 199.338 422.918C199.057 423.124 198.724 423.289 198.338 423.415C197.957 423.535 197.528 423.595 197.052 423.595ZM202.495 423.452V415.346H203.804V416.549H203.924C204.079 416.123 204.343 415.792 204.714 415.557C205.085 415.321 205.543 415.203 206.09 415.203C206.215 415.203 206.338 415.211 206.458 415.226C206.583 415.236 206.679 415.246 206.744 415.256V416.527C206.608 416.502 206.476 416.484 206.345 416.474C206.22 416.459 206.085 416.451 205.939 416.451C205.523 416.451 205.155 416.534 204.834 416.7C204.513 416.865 204.26 417.096 204.074 417.391C203.894 417.687 203.804 418.033 203.804 418.429V423.452H202.495ZM212.599 423.452V415.346H213.908V416.579H214.028C214.209 416.143 214.484 415.805 214.855 415.564C215.231 415.324 215.685 415.203 216.216 415.203C216.582 415.203 216.911 415.263 217.201 415.384C217.492 415.504 217.743 415.672 217.953 415.888C218.164 416.098 218.332 416.344 218.457 416.624H218.577C218.723 416.339 218.918 416.091 219.164 415.88C219.41 415.664 219.693 415.499 220.014 415.384C220.34 415.263 220.688 415.203 221.059 415.203C221.61 415.203 222.077 415.306 222.458 415.512C222.844 415.717 223.137 416.018 223.337 416.414C223.538 416.805 223.638 417.284 223.638 417.85V423.452H222.33V418.151C222.33 417.75 222.267 417.419 222.142 417.158C222.021 416.893 221.836 416.695 221.585 416.564C221.335 416.429 221.019 416.361 220.638 416.361C220.262 416.361 219.933 416.446 219.653 416.617C219.372 416.787 219.154 417.015 218.999 417.301C218.843 417.582 218.765 417.895 218.765 418.241V423.452H217.457V417.948C217.457 417.627 217.387 417.349 217.246 417.113C217.111 416.873 216.916 416.687 216.66 416.557C216.409 416.426 216.114 416.361 215.773 416.361C215.422 416.361 215.103 416.454 214.818 416.639C214.537 416.825 214.314 417.076 214.148 417.391C213.988 417.702 213.908 418.048 213.908 418.429V423.452H212.599ZM229.284 423.595C228.517 423.595 227.853 423.427 227.291 423.091C226.735 422.75 226.304 422.267 225.998 421.64C225.697 421.013 225.547 420.269 225.547 419.407V419.392C225.547 418.524 225.697 417.777 225.998 417.151C226.304 416.524 226.735 416.043 227.291 415.707C227.853 415.371 228.517 415.203 229.284 415.203C230.056 415.203 230.72 415.371 231.277 415.707C231.833 416.043 232.262 416.524 232.563 417.151C232.868 417.777 233.021 418.524 233.021 419.392V419.407C233.021 420.269 232.868 421.013 232.563 421.64C232.262 422.267 231.833 422.75 231.277 423.091C230.72 423.427 230.056 423.595 229.284 423.595ZM229.284 422.437C229.795 422.437 230.229 422.317 230.585 422.076C230.941 421.835 231.212 421.49 231.397 421.038C231.588 420.587 231.683 420.043 231.683 419.407V419.392C231.683 418.75 231.588 418.204 231.397 417.752C231.212 417.301 230.941 416.958 230.585 416.722C230.229 416.482 229.795 416.361 229.284 416.361C228.773 416.361 228.339 416.482 227.983 416.722C227.627 416.958 227.354 417.301 227.164 417.752C226.978 418.204 226.885 418.75 226.885 419.392V419.407C226.885 420.043 226.978 420.587 227.164 421.038C227.354 421.49 227.627 421.835 227.983 422.076C228.339 422.317 228.773 422.437 229.284 422.437ZM235.005 423.452V415.346H236.314V416.564H236.434C236.64 416.133 236.935 415.8 237.321 415.564C237.707 415.324 238.199 415.203 238.795 415.203C239.708 415.203 240.407 415.464 240.893 415.985C241.385 416.502 241.63 417.241 241.63 418.204V423.452H240.322V418.519C240.322 417.787 240.166 417.246 239.856 416.895C239.55 416.539 239.074 416.361 238.427 416.361C237.996 416.361 237.622 416.454 237.306 416.639C236.991 416.825 236.745 417.088 236.57 417.429C236.399 417.77 236.314 418.178 236.314 418.655V423.452H235.005ZM246.833 423.512C246 423.512 245.396 423.344 245.02 423.008C244.649 422.673 244.464 422.119 244.464 421.347V416.429H243.186V415.346H244.464V413.248H245.817V415.346H247.592V416.429H245.817V421.016C245.817 421.492 245.908 421.835 246.088 422.046C246.269 422.252 246.569 422.354 246.99 422.354C247.106 422.354 247.204 422.352 247.284 422.347C247.369 422.342 247.472 422.334 247.592 422.324V423.437C247.467 423.457 247.341 423.475 247.216 423.49C247.091 423.505 246.963 423.512 246.833 423.512ZM249.576 423.452V412.128H250.885V416.564H251.005C251.21 416.133 251.506 415.8 251.892 415.564C252.278 415.324 252.769 415.203 253.366 415.203C253.973 415.203 254.486 415.321 254.907 415.557C255.329 415.787 255.649 416.126 255.87 416.572C256.091 417.018 256.201 417.562 256.201 418.204V423.452H254.892V418.519C254.892 417.787 254.737 417.246 254.426 416.895C254.12 416.539 253.644 416.361 252.998 416.361C252.566 416.361 252.193 416.454 251.877 416.639C251.561 416.825 251.316 417.088 251.14 417.429C250.97 417.77 250.885 418.178 250.885 418.655V423.452H249.576Z" fill="#333333"/>
<rect x="35.9766" y="447.828" width="85.0053" height="24.3158" rx="12.1579" fill="#DAAC36"/>
<path d="M52.4961 465.002C49.559 465.002 47.7286 463.005 47.7286 459.81V459.796C47.7286 456.608 49.573 454.611 52.4961 454.611C55.4263 454.611 57.2568 456.608 57.2568 459.796V459.81C57.2568 461.661 56.6443 463.116 55.5516 464.007L56.867 465.844H55.0853L54.2779 464.717C53.742 464.905 53.1434 465.002 52.4961 465.002ZM52.4961 463.443C52.7815 463.443 53.046 463.408 53.2965 463.346L52.0438 461.592H53.8255L54.5354 462.58C55.1061 461.947 55.4263 460.993 55.4263 459.81V459.796C55.4263 457.569 54.2918 456.17 52.4961 456.17C50.7074 456.17 49.566 457.562 49.566 459.796V459.81C49.566 462.044 50.7005 463.443 52.4961 463.443ZM61.0885 464.974C59.4668 464.974 58.5411 463.93 58.5411 462.218V457.451H60.2741V461.877C60.2741 462.921 60.7613 463.513 61.7497 463.513C62.7449 463.513 63.3783 462.796 63.3783 461.724V457.451H65.1113V464.828H63.3783V463.673H63.3435C62.9607 464.459 62.202 464.974 61.0885 464.974ZM67.5162 456.393C66.9733 456.393 66.5488 455.961 66.5488 455.446C66.5488 454.917 66.9733 454.493 67.5162 454.493C68.0591 454.493 68.4767 454.917 68.4767 455.446C68.4767 455.961 68.0591 456.393 67.5162 456.393ZM66.6462 464.828V457.451H68.3792V464.828H66.6462ZM72.6564 464.974C71.1113 464.974 70.3805 464.348 70.3805 462.831V458.787H69.3365V457.451H70.3805V455.578H72.1413V457.451H73.5124V458.787H72.1413V462.684C72.1413 463.408 72.4615 463.638 73.0949 463.638C73.2619 463.638 73.3941 463.617 73.5124 463.61V464.912C73.3106 464.939 73.0044 464.974 72.6564 464.974ZM77.8661 464.974C75.6529 464.974 74.3166 463.506 74.3166 461.16V461.153C74.3166 458.829 75.6738 457.297 77.7826 457.297C79.8915 457.297 81.2 458.78 81.2 461.007V461.564H76.0357C76.0635 462.858 76.7734 463.624 77.9009 463.624C78.764 463.624 79.3277 463.165 79.4948 462.671L79.5087 462.622H81.1304L81.1095 462.698C80.8798 463.833 79.794 464.974 77.8661 464.974ZM77.8035 458.655C76.8848 458.655 76.1957 459.274 76.0565 460.409H79.5156C79.3904 459.239 78.7222 458.655 77.8035 458.655ZM86.7336 464.828L84.7361 457.451H86.4761L87.7219 463.116H87.7567L89.1974 457.451H90.8608L92.3016 463.116H92.3433L93.5892 457.451H95.3013L93.3038 464.828H91.4803L90.0257 459.434H89.9909L88.5432 464.828H86.7336ZM99.3975 464.974C97.1842 464.974 95.8479 463.506 95.8479 461.16V461.153C95.8479 458.829 97.2051 457.297 99.314 457.297C101.423 457.297 102.731 458.78 102.731 461.007V461.564H97.567C97.5948 462.858 98.3048 463.624 99.4323 463.624C100.295 463.624 100.859 463.165 101.026 462.671L101.04 462.622H102.662L102.641 462.698C102.411 463.833 101.325 464.974 99.3975 464.974ZM99.3348 458.655C98.4161 458.655 97.7271 459.274 97.5879 460.409H101.047C100.922 459.239 100.254 458.655 99.3348 458.655ZM103.96 464.828V454.785H105.693V464.828H103.96ZM107.277 464.828V454.785H109.01V464.828H107.277Z" fill="white"/>
</g>
</g>
</g>
<defs>
<filter id="filter0_f_2048_27326" x="80.4922" y="-50.5029" width="560" height="560" filterUnits="userSpaceOnUse" color-interpolation-filters="sRGB">
<feFlood flood-opacity="0" result="BackgroundImageFix"/>
<feBlend mode="normal" in="SourceGraphic" in2="BackgroundImageFix" result="shape"/>
<feGaussianBlur stdDeviation="80" result="effect1_foregroundBlur_2048_27326"/>
</filter>
<filter id="filter1_f_2048_27326" x="80.4922" y="32.4961" width="560" height="560" filterUnits="userSpaceOnUse" color-interpolation-filters="sRGB">
<feFlood flood-opacity="0" result="BackgroundImageFix"/>
<feBlend mode="normal" in="SourceGraphic" in2="BackgroundImageFix" result="shape"/>
<feGaussianBlur stdDeviation="80" result="effect1_foregroundBlur_2048_27326"/>
</filter>
<filter id="filter2_dd_2048_27326" x="-2" y="348.472" width="363.629" height="163.842" filterUnits="userSpaceOnUse" color-interpolation-filters="sRGB">
<feFlood flood-opacity="0" result="BackgroundImageFix"/>
<feColorMatrix in="SourceAlpha" type="matrix" values="0 0 0 0 0 0 0 0 0 0 0 0 0 0 0 0 0 0 127 0" result="hardAlpha"/>
<feOffset dy="1.85101"/>
<feGaussianBlur stdDeviation="2.77652"/>
<feComposite in2="hardAlpha" operator="out"/>
<feColorMatrix type="matrix" values="0 0 0 0 0 0 0 0 0 0 0 0 0 0 0 0 0 0 0.04 0"/>
<feBlend mode="normal" in2="BackgroundImageFix" result="effect1_dropShadow_2048_27326"/>
<feColorMatrix in="SourceAlpha" type="matrix" values="0 0 0 0 0 0 0 0 0 0 0 0 0 0 0 0 0 0 127 0" result="hardAlpha"/>
<feOffset dy="4"/>
<feGaussianBlur stdDeviation="9"/>
<feColorMatrix type="matrix" values="0 0 0 0 0.203922 0 0 0 0 0.14902 0 0 0 0 0.415686 0 0 0 0.15 0"/>
<feBlend mode="normal" in2="effect1_dropShadow_2048_27326" result="effect2_dropShadow_2048_27326"/>
<feBlend mode="normal" in="SourceGraphic" in2="effect2_dropShadow_2048_27326" result="shape"/>
</filter>
<linearGradient id="paint0_linear_2048_27326" x1="180.981" y1="361.479" x2="180.981" y2="415.063" gradientUnits="userSpaceOnUse">
<stop stop-color="#222222"/>
<stop offset="0.0666667" stop-color="#242424" stop-opacity="0.991353"/>
<stop offset="0.133333" stop-color="#2A2A2A" stop-opacity="0.96449"/>
<stop offset="0.2" stop-color="#343434" stop-opacity="0.91834"/>
<stop offset="0.266667" stop-color="#434343" stop-opacity="0.852589"/>
<stop offset="0.333333" stop-color="#555555" stop-opacity="0.768225"/>
<stop offset="0.4" stop-color="#6B6B6B" stop-opacity="0.668116"/>
<stop offset="0.466667" stop-color="#848484" stop-opacity="0.557309"/>
<stop offset="0.533333" stop-color="#9D9D9D" stop-opacity="0.442691"/>
<stop offset="0.6" stop-color="#B6B6B6" stop-opacity="0.331884"/>
<stop offset="0.666667" stop-color="#CCCCCC" stop-opacity="0.231775"/>
<stop offset="0.733333" stop-color="#DEDEDE" stop-opacity="0.147411"/>
<stop offset="0.8" stop-color="#EDEDED" stop-opacity="0.0816599"/>
<stop offset="0.866667" stop-color="#F7F7F7" stop-opacity="0.03551"/>
<stop offset="0.933333" stop-color="#FDFDFD" stop-opacity="0.01"/>
<stop offset="1" stop-color="white" stop-opacity="0"/>
</linearGradient>
<clipPath id="clip0_2048_27326">
<path d="M0 0H360V510H0V0Z" fill="white"/>
</clipPath>
<clipPath id="clip1_2048_27326">
<rect x="300.305" y="240.294" width="22" height="71" rx="5.97235" fill="white"/>
</clipPath>
<clipPath id="clip2_2048_27326">
<rect width="44.6931" height="10.4516" fill="white" transform="translate(286.367 302.176)"/>
</clipPath>
<clipPath id="clip3_2048_27326">
<rect width="44.6931" height="10.4516" fill="white" transform="translate(286.367 291.723)"/>
</clipPath>
<clipPath id="clip4_2048_27326">
<rect width="44.6931" height="10.4516" fill="white" transform="translate(286.367 281.272)"/>
</clipPath>
<clipPath id="clip5_2048_27326">
<rect width="44.6931" height="10.4516" fill="white" transform="translate(286.367 270.819)"/>
</clipPath>
<clipPath id="clip6_2048_27326">
<rect width="44.6931" height="10.4516" fill="white" transform="translate(286.367 260.37)"/>
</clipPath>
<clipPath id="clip7_2048_27326">
<rect width="44.6931" height="10.4516" fill="white" transform="translate(286.367 249.919)"/>
</clipPath>
<clipPath id="clip8_2048_27326">
<rect width="44.6931" height="10.4516" fill="white" transform="translate(286.367 239.466)"/>
</clipPath>
<clipPath id="clip9_2048_27326">
<path d="M16 386.443C16 373.204 26.7323 362.472 39.9712 362.472H319.658C332.897 362.472 343.629 373.204 343.629 386.443V466.343C343.629 479.581 332.897 490.314 319.658 490.314H39.9712C26.7322 490.314 16 479.582 16 466.343V386.443Z" fill="white"/>
</clipPath>
<clipPath id="clip10_2048_27326">
<rect width="291.673" height="23" fill="white" transform="translate(35.9766 378.452)"/>
</clipPath>
</defs>
</svg>
