<svg width="360" height="294" viewBox="0 0 360 294" fill="none" xmlns="http://www.w3.org/2000/svg">
<g clip-path="url(#clip0_2048_27922)">
<g filter="url(#filter0_d_2048_27922)">
<path d="M0 18.432C0 11.9802 0 8.75429 1.2556 6.29003C2.36007 4.1224 4.1224 2.36007 6.29003 1.2556C8.75429 0 11.9802 0 18.432 0H341.568C348.02 0 351.246 0 353.71 1.2556C355.878 2.36007 357.64 4.1224 358.744 6.29003C360 8.75429 360 11.9802 360 18.432V470H0V18.432Z" fill="white"/>
<path d="M0 18.432C0 11.9802 0 8.75429 1.2556 6.29003C2.36007 4.1224 4.1224 2.36007 6.29003 1.2556C8.75429 0 11.9802 0 18.432 0H341.568C348.02 0 351.246 0 353.71 1.2556C355.878 2.36007 357.64 4.1224 358.744 6.29003C360 8.75429 360 11.9802 360 18.432V23.04H0V18.432Z" fill="white"/>
<rect x="164.641" y="9.59961" width="30.72" height="3.84" rx="1.92" fill="#001024" fill-opacity="0.22"/>
<rect width="360" height="271.84" transform="translate(0 23.04)" fill="white"/>
<rect opacity="0.4" x="18" y="38.4004" width="5" height="75.84" rx="2.5" fill="#999FA7"/>
<path d="M39.4526 62.4004V50.4224H42.3247L45.6367 59.188H45.7861L49.0898 50.4224H51.9619V62.4004H49.729V54.249H49.563L46.4917 62.4004H44.9229L41.8516 54.249H41.6855V62.4004H39.4526ZM58.3002 62.5913C55.4863 62.5913 53.7929 60.8066 53.7929 57.835V57.8184C53.7929 54.8716 55.5112 53.062 58.3002 53.062C61.0893 53.062 62.8076 54.8633 62.8076 57.8184V57.835C62.8076 60.8149 61.1142 62.5913 58.3002 62.5913ZM58.3002 60.6904C59.5869 60.6904 60.3256 59.6362 60.3256 57.835V57.8184C60.3256 56.0337 59.5786 54.9629 58.3002 54.9629C57.0136 54.9629 56.2749 56.0337 56.2749 57.8184V57.835C56.2749 59.6362 57.0053 60.6904 58.3002 60.6904ZM64.3896 62.4004V53.2612H66.8134V54.6807H66.9628C67.2533 53.6929 68.0834 53.1118 69.2704 53.1118C69.5941 53.1118 69.9345 53.1616 70.1752 53.228V55.3447C69.81 55.2617 69.4364 55.2036 69.0629 55.2036C67.685 55.2036 66.8134 55.9922 66.8134 57.2871V62.4004H64.3896ZM75.202 62.5913C72.4213 62.5913 70.7362 60.7734 70.7362 57.8433V57.835C70.7362 54.9297 72.4379 53.062 75.1024 53.062C77.767 53.062 79.4271 54.8882 79.4271 57.6523V58.4077H73.1351C73.16 59.9102 73.9652 60.7817 75.2518 60.7817C76.3143 60.7817 76.9037 60.2173 77.0697 59.8687L77.0946 59.8188H79.3524L79.3358 59.9019C79.0536 61.0474 77.8749 62.5913 75.202 62.5913ZM75.1439 54.8799C74.0897 54.8799 73.3094 55.5938 73.16 56.8887H77.1029C76.9535 55.5605 76.1981 54.8799 75.1439 54.8799ZM88.8001 62.4336C86.5755 62.4336 85.679 61.7114 85.679 59.9351V55.0874H84.2678V53.2612H85.679V51.0781H88.1277V53.2612H90.012V55.0874H88.1277V59.3789C88.1277 60.2007 88.4763 60.5659 89.2981 60.5659C89.6135 60.5659 89.7796 60.5493 90.012 60.5244V62.3257C89.7132 62.3838 89.2649 62.4336 88.8001 62.4336ZM91.7185 62.4004V49.7666H94.1423V54.6724H94.2917C94.7068 53.6846 95.6115 53.062 96.9148 53.062C98.9485 53.062 100.044 54.3071 100.044 56.4902V62.4004H97.6203V57.0381C97.6203 55.7515 97.0891 55.0708 95.9436 55.0708C94.823 55.0708 94.1423 55.876 94.1423 57.1128V62.4004H91.7185ZM104.49 62.5415C102.747 62.5415 101.51 61.4624 101.51 59.8022V59.7856C101.51 58.1421 102.78 57.1792 105.054 57.0464L107.262 56.9136V56.1582C107.262 55.3696 106.723 54.9214 105.727 54.9214C104.855 54.9214 104.299 55.2285 104.108 55.7681L104.091 55.8013H101.85L101.859 55.7266C102.049 54.1245 103.56 53.062 105.86 53.062C108.283 53.062 109.653 54.2075 109.653 56.1582V62.4004H107.262V61.1885H107.113C106.648 62.0352 105.685 62.5415 104.49 62.5415ZM103.876 59.6528C103.876 60.3501 104.465 60.7734 105.303 60.7734C106.424 60.7734 107.262 60.0347 107.262 59.0718V58.3994L105.42 58.5156C104.382 58.582 103.876 58.9722 103.876 59.6362V59.6528ZM111.633 62.4004V53.2612H114.057V54.6724H114.207C114.622 53.6846 115.526 53.062 116.83 53.062C118.863 53.062 119.959 54.3071 119.959 56.4902V62.4004H117.535V57.0381C117.535 55.7515 117.004 55.0708 115.859 55.0708C114.738 55.0708 114.057 55.876 114.057 57.1128V62.4004H111.633ZM125.904 62.4004V60.7153L129.764 56.9053C131.449 55.27 131.905 54.6641 131.905 53.8257V53.8008C131.905 52.7798 131.208 52.0659 130.063 52.0659C128.892 52.0659 128.087 52.8462 128.087 53.9834V54.0249H125.771L125.763 53.9917C125.763 51.6924 127.556 50.1152 130.179 50.1152C132.644 50.1152 134.371 51.5264 134.371 53.5933V53.6182C134.371 54.9795 133.665 56.1084 131.482 58.1255L129.266 60.1924V60.3833H134.545V62.4004H125.904ZM141.058 62.7075C138.103 62.7075 136.301 60.2837 136.301 56.4155V56.3989C136.301 52.5225 138.103 50.1152 141.058 50.1152C144.021 50.1152 145.814 52.5225 145.814 56.3989V56.4155C145.814 60.2837 144.021 62.7075 141.058 62.7075ZM141.058 60.7236C142.477 60.7236 143.282 59.1216 143.282 56.4155V56.3989C143.282 53.6846 142.477 52.0991 141.058 52.0991C139.646 52.0991 138.841 53.6846 138.841 56.3989V56.4155C138.841 59.1216 139.646 60.7236 141.058 60.7236ZM150.376 56.9883C148.624 56.9883 147.545 55.6934 147.545 53.6182V53.6099C147.545 51.5347 148.624 50.248 150.376 50.248C152.136 50.248 153.206 51.5347 153.206 53.6099V53.6182C153.206 55.6934 152.136 56.9883 150.376 56.9883ZM152.219 62.4004H150.301L158.361 50.4224H160.279L152.219 62.4004ZM150.376 55.6602C151.106 55.6602 151.513 54.9214 151.513 53.6182V53.6099C151.513 52.2983 151.106 51.5762 150.376 51.5762C149.654 51.5762 149.247 52.2983 149.247 53.6099V53.6182C149.247 54.9214 149.654 55.6602 150.376 55.6602ZM160.196 62.5747C158.444 62.5747 157.365 61.2798 157.365 59.2046V59.1963C157.365 57.1211 158.444 55.8345 160.196 55.8345C161.956 55.8345 163.026 57.1211 163.026 59.1963V59.2046C163.026 61.2798 161.956 62.5747 160.196 62.5747ZM160.196 61.2466C160.926 61.2466 161.333 60.5078 161.333 59.2046V59.1963C161.333 57.8848 160.926 57.1626 160.196 57.1626C159.474 57.1626 159.067 57.8848 159.067 59.1963V59.2046C159.067 60.5078 159.474 61.2466 160.196 61.2466ZM172.964 62.5913C170.15 62.5913 168.456 60.8066 168.456 57.835V57.8184C168.456 54.8716 170.175 53.062 172.964 53.062C175.753 53.062 177.471 54.8633 177.471 57.8184V57.835C177.471 60.8149 175.778 62.5913 172.964 62.5913ZM172.964 60.6904C174.25 60.6904 174.989 59.6362 174.989 57.835V57.8184C174.989 56.0337 174.242 54.9629 172.964 54.9629C171.677 54.9629 170.938 56.0337 170.938 57.8184V57.835C170.938 59.6362 171.669 60.6904 172.964 60.6904ZM179.759 62.4004V55.0874H178.281V53.2612H179.759V52.4062C179.759 50.5884 180.688 49.6753 182.896 49.6753C183.386 49.6753 183.793 49.7085 184.141 49.7666V51.3853C183.992 51.3604 183.735 51.3354 183.419 51.3354C182.481 51.3354 182.133 51.7754 182.133 52.5723V53.2612H184.067V55.0874H182.182V62.4004H179.759ZM190.825 51.8584C190.078 51.8584 189.455 51.2607 189.455 50.5137C189.455 49.7583 190.078 49.1606 190.825 49.1606C191.572 49.1606 192.186 49.7583 192.186 50.5137C192.186 51.2607 191.572 51.8584 190.825 51.8584ZM189.605 62.4004V53.2612H192.029V62.4004H189.605ZM194.075 62.4004V53.2612H196.499V54.6724H196.649C197.064 53.6846 197.968 53.062 199.272 53.062C201.305 53.062 202.401 54.3071 202.401 56.4902V62.4004H199.977V57.0381C199.977 55.7515 199.446 55.0708 198.3 55.0708C197.18 55.0708 196.499 55.876 196.499 57.1128V62.4004H194.075ZM208.382 62.5913C205.527 62.5913 203.908 60.8564 203.908 57.8184V57.8018C203.908 54.7969 205.519 53.062 208.382 53.062C210.806 53.062 212.242 54.3818 212.458 56.4238V56.4487H210.2L210.192 56.4321C210.034 55.5439 209.428 54.9629 208.391 54.9629C207.088 54.9629 206.374 55.9756 206.374 57.8018V57.8184C206.374 59.6694 207.096 60.6904 208.391 60.6904C209.387 60.6904 209.976 60.2173 210.192 59.3042L210.209 59.271H212.45L212.442 59.3208C212.193 61.313 210.765 62.5913 208.382 62.5913ZM218.016 62.5913C215.202 62.5913 213.509 60.8066 213.509 57.835V57.8184C213.509 54.8716 215.227 53.062 218.016 53.062C220.805 53.062 222.524 54.8633 222.524 57.8184V57.835C222.524 60.8149 220.83 62.5913 218.016 62.5913ZM218.016 60.6904C219.303 60.6904 220.042 59.6362 220.042 57.835V57.8184C220.042 56.0337 219.295 54.9629 218.016 54.9629C216.73 54.9629 215.991 56.0337 215.991 57.8184V57.835C215.991 59.6362 216.721 60.6904 218.016 60.6904ZM224.105 62.4004V53.2612H226.529V54.689H226.679C227.069 53.6597 228.015 53.062 229.21 53.062C230.456 53.062 231.377 53.6929 231.751 54.7471H231.9C232.315 53.7344 233.377 53.062 234.656 53.062C236.474 53.062 237.611 54.2407 237.611 56.125V62.4004H235.187V56.731C235.187 55.627 234.689 55.0708 233.676 55.0708C232.697 55.0708 232.066 55.793 232.066 56.7808V62.4004H229.642V56.623C229.642 55.6436 229.086 55.0708 228.14 55.0708C227.193 55.0708 226.529 55.8428 226.529 56.8887V62.4004H224.105ZM243.584 62.5913C240.803 62.5913 239.118 60.7734 239.118 57.8433V57.835C239.118 54.9297 240.82 53.062 243.484 53.062C246.149 53.062 247.809 54.8882 247.809 57.6523V58.4077H241.517C241.542 59.9102 242.347 60.7817 243.634 60.7817C244.696 60.7817 245.286 60.2173 245.452 59.8687L245.477 59.8188H247.734L247.718 59.9019C247.436 61.0474 246.257 62.5913 243.584 62.5913ZM243.526 54.8799C242.472 54.8799 241.691 55.5938 241.542 56.8887H245.485C245.335 55.5605 244.58 54.8799 243.526 54.8799ZM254.625 51.8584C253.878 51.8584 253.256 51.2607 253.256 50.5137C253.256 49.7583 253.878 49.1606 254.625 49.1606C255.372 49.1606 255.987 49.7583 255.987 50.5137C255.987 51.2607 255.372 51.8584 254.625 51.8584ZM253.405 62.4004V53.2612H255.829V62.4004H253.405ZM257.876 62.4004V53.2612H260.3V54.6724H260.449C260.864 53.6846 261.769 53.062 263.072 53.062C265.106 53.062 266.202 54.3071 266.202 56.4902V62.4004H263.778V57.0381C263.778 55.7515 263.246 55.0708 262.101 55.0708C260.98 55.0708 260.3 55.876 260.3 57.1128V62.4004H257.876ZM270.299 62.4004L267.119 53.2612H269.718L271.61 60.1343H271.76L273.636 53.2612H276.184L273.021 62.4004H270.299ZM281.061 62.5913C278.281 62.5913 276.595 60.7734 276.595 57.8433V57.835C276.595 54.9297 278.297 53.062 280.962 53.062C283.626 53.062 285.286 54.8882 285.286 57.6523V58.4077H278.994C279.019 59.9102 279.824 60.7817 281.111 60.7817C282.174 60.7817 282.763 60.2173 282.929 59.8687L282.954 59.8188H285.212L285.195 59.9019C284.913 61.0474 283.734 62.5913 281.061 62.5913ZM281.003 54.8799C279.949 54.8799 279.169 55.5938 279.019 56.8887H282.962C282.813 55.5605 282.057 54.8799 281.003 54.8799ZM290.512 62.5913C288.03 62.5913 286.619 61.479 286.445 59.9102L286.437 59.877H288.819L288.836 59.9102C289.027 60.4746 289.583 60.8813 290.537 60.8813C291.467 60.8813 292.098 60.4829 292.098 59.877V59.8604C292.098 59.3706 291.733 59.0635 290.803 58.856L289.276 58.5322C287.532 58.1587 286.669 57.3037 286.669 55.9341V55.9258C286.669 54.2075 288.196 53.062 290.479 53.062C292.878 53.062 294.206 54.2573 294.306 55.7266V55.7598H292.056L292.048 55.7183C291.915 55.2285 291.376 54.772 290.471 54.772C289.633 54.772 289.035 55.1621 289.035 55.7764V55.7847C289.035 56.2744 289.375 56.5566 290.321 56.7642L291.841 57.0879C293.667 57.478 294.522 58.2417 294.522 59.5947V59.603C294.522 61.4126 292.853 62.5913 290.512 62.5913ZM299.856 62.4336C297.631 62.4336 296.735 61.7114 296.735 59.9351V55.0874H295.323V53.2612H296.735V51.0781H299.183V53.2612H301.068V55.0874H299.183V59.3789C299.183 60.2007 299.532 60.5659 300.354 60.5659C300.669 60.5659 300.835 60.5493 301.068 60.5244V62.3257C300.769 62.3838 300.32 62.4336 299.856 62.4336ZM306.642 62.5913C303.861 62.5913 302.176 60.7734 302.176 57.8433V57.835C302.176 54.9297 303.878 53.062 306.543 53.062C309.207 53.062 310.867 54.8882 310.867 57.6523V58.4077H304.575C304.6 59.9102 305.405 60.7817 306.692 60.7817C307.754 60.7817 308.344 60.2173 308.51 59.8687L308.535 59.8188H310.793L310.776 59.9019C310.494 61.0474 309.315 62.5913 306.642 62.5913ZM306.584 54.8799C305.53 54.8799 304.75 55.5938 304.6 56.8887H308.543C308.394 55.5605 307.638 54.8799 306.584 54.8799ZM315.72 62.5415C313.437 62.5415 312.009 60.7568 312.009 57.835V57.8184C312.009 54.8799 313.404 53.1118 315.72 53.1118C316.973 53.1118 317.994 53.7261 318.451 54.7222H318.6V49.7666H321.024V62.4004H318.6V60.981H318.451C317.978 61.9688 317.006 62.5415 315.72 62.5415ZM316.542 60.5327C317.828 60.5327 318.625 59.52 318.625 57.8433V57.8267C318.625 56.1499 317.82 55.1206 316.542 55.1206C315.263 55.1206 314.475 56.1499 314.475 57.8184V57.835C314.475 59.52 315.263 60.5327 316.542 60.5327Z" fill="#9299A2"/>
<path d="M39.2075 83.2402V73.7705H42.83C44.5691 73.7705 45.6322 74.6827 45.6322 76.1265V76.1396C45.6322 77.1174 44.9103 78.0099 43.9981 78.174V78.279C45.2909 78.443 46.1113 79.329 46.1113 80.5759V80.589C46.1113 82.2493 44.9169 83.2402 42.9022 83.2402H39.2075ZM42.5806 74.814H40.3888V77.8524H42.2788C43.7094 77.8524 44.4378 77.3405 44.4378 76.343V76.3299C44.4378 75.3718 43.7553 74.814 42.5806 74.814ZM42.6134 78.8696H40.3888V82.1968H42.725C44.1491 82.1968 44.8972 81.6193 44.8972 80.5299V80.5168C44.8972 79.4274 44.1228 78.8696 42.6134 78.8696ZM50.4838 83.3649C48.4625 83.3649 47.2419 81.9474 47.2419 79.7293V79.7227C47.2419 77.5374 48.4888 76.0412 50.4116 76.0412C52.3344 76.0412 53.5025 77.4718 53.5025 79.5849V80.0312H48.41C48.4428 81.4946 49.25 82.3477 50.51 82.3477C51.4681 82.3477 52.0588 81.8949 52.2491 81.4684L52.2753 81.4093H53.4172L53.4041 81.4618C53.1613 82.4199 52.1506 83.3649 50.4838 83.3649ZM50.405 77.0584C49.355 77.0584 48.5544 77.7737 48.4297 79.119H52.3409C52.2228 77.7212 51.4484 77.0584 50.405 77.0584ZM61.3484 83.3649C59.3666 83.3649 58.1 81.9277 58.1 79.6834V79.6702C58.1 77.4718 59.36 76.0412 61.3419 76.0412C63.0613 76.0412 64.0916 77.0321 64.3016 78.2921L64.3081 78.3315H63.1728L63.1663 78.3118C62.9891 77.6162 62.3591 77.0518 61.3419 77.0518C60.0688 77.0518 59.2681 78.0755 59.2681 79.6702V79.6834C59.2681 81.3109 60.0819 82.3543 61.3419 82.3543C62.2934 82.3543 62.8972 81.9343 63.1597 81.1468L63.1728 81.1074L64.3016 81.1009L64.2884 81.173C63.9997 82.4527 63.0481 83.3649 61.3484 83.3649ZM67.6175 83.3649C66.2722 83.3649 65.255 82.5512 65.255 81.2649V81.2518C65.255 79.9918 66.1869 79.2634 67.8341 79.1649L69.8619 79.0402V78.3971C69.8619 77.5243 69.3303 77.0518 68.2738 77.0518C67.4272 77.0518 66.8694 77.3668 66.6856 77.918L66.6791 77.9377H65.5372L65.5438 77.8984C65.7275 76.7893 66.8038 76.0412 68.3131 76.0412C70.0391 76.0412 71.0038 76.9271 71.0038 78.3971V83.2402H69.8619V82.1968H69.7569C69.3106 82.9515 68.5691 83.3649 67.6175 83.3649ZM66.4231 81.2387C66.4231 81.954 67.0334 82.374 67.8538 82.374C69.0153 82.374 69.8619 81.6127 69.8619 80.6021V79.959L67.9719 80.0771C66.8956 80.1427 66.4231 80.5234 66.4231 81.2255V81.2387ZM72.7906 83.2402V76.1659H73.9325V77.2159H74.0375C74.3066 76.4743 74.9694 76.0412 75.9275 76.0412C76.1441 76.0412 76.3869 76.0674 76.4984 76.0871V77.1962C76.2622 77.1568 76.0456 77.1305 75.7963 77.1305C74.7069 77.1305 73.9325 77.8196 73.9325 78.8565V83.2402H72.7906ZM80.3 83.3649C78.2788 83.3649 77.0581 81.9474 77.0581 79.7293V79.7227C77.0581 77.5374 78.305 76.0412 80.2278 76.0412C82.1506 76.0412 83.3188 77.4718 83.3188 79.5849V80.0312H78.2263C78.2591 81.4946 79.0663 82.3477 80.3263 82.3477C81.2844 82.3477 81.875 81.8949 82.0653 81.4684L82.0916 81.4093H83.2334L83.2203 81.4618C82.9775 82.4199 81.9669 83.3649 80.3 83.3649ZM80.2213 77.0584C79.1713 77.0584 78.3706 77.7737 78.2459 79.119H82.1572C82.0391 77.7212 81.2647 77.0584 80.2213 77.0584ZM85.2631 83.2402V77.1109H84.0884V76.1659H85.2631V75.3784C85.2631 73.9674 85.9719 73.2915 87.3172 73.2915C87.5928 73.2915 87.8422 73.3112 88.0784 73.3571V74.2693C87.9406 74.243 87.7503 74.2365 87.5469 74.2365C86.7331 74.2365 86.405 74.6368 86.405 75.4112V76.1659H88.0128V77.1109H86.405V83.2402H85.2631ZM91.7291 83.3649C90.1213 83.3649 89.2944 82.4199 89.2944 80.7465V76.1659H90.4363V80.4709C90.4363 81.744 90.8956 82.3543 92.0244 82.3543C93.2713 82.3543 93.9341 81.593 93.9341 80.3527V76.1659H95.0759V83.2402H93.9341V82.1837H93.8291C93.4813 82.9384 92.7659 83.3649 91.7291 83.3649ZM96.9744 83.2402V73.3571H98.1163V83.2402H96.9744ZM99.7194 85.6487L100.29 81.9146H101.596L100.566 85.6487H99.7194ZM107.782 74.8009C107.349 74.8009 106.994 74.4465 106.994 74.0134C106.994 73.5802 107.349 73.2259 107.782 73.2259C108.215 73.2259 108.569 73.5802 108.569 74.0134C108.569 74.4465 108.215 74.8009 107.782 74.8009ZM107.204 83.2402V76.1659H108.346V83.2402H107.204ZM110.199 83.2402V76.1659H111.341V77.229H111.446C111.8 76.4809 112.463 76.0412 113.506 76.0412C115.094 76.0412 115.98 76.9796 115.98 78.6596V83.2402H114.838V78.9352C114.838 77.6621 114.313 77.0518 113.185 77.0518C112.056 77.0518 111.341 77.813 111.341 79.0534V83.2402H110.199ZM119.487 83.2402L116.868 76.1659H118.076L120.012 81.9934H120.117L122.053 76.1659H123.26L120.642 83.2402H119.487ZM127.094 83.3649C125.073 83.3649 123.853 81.9474 123.853 79.7293V79.7227C123.853 77.5374 125.099 76.0412 127.022 76.0412C128.945 76.0412 130.113 77.4718 130.113 79.5849V80.0312H125.021C125.053 81.4946 125.861 82.3477 127.121 82.3477C128.079 82.3477 128.669 81.8949 128.86 81.4684L128.886 81.4093H130.028L130.015 81.4618C129.772 82.4199 128.761 83.3649 127.094 83.3649ZM127.016 77.0584C125.966 77.0584 125.165 77.7737 125.04 79.119H128.952C128.833 77.7212 128.059 77.0584 127.016 77.0584ZM134.013 83.3649C132.438 83.3649 131.355 82.6037 131.224 81.4355H132.392C132.583 82.0262 133.147 82.4134 134.053 82.4134C135.004 82.4134 135.68 81.9605 135.68 81.3174V81.3043C135.68 80.8252 135.319 80.4905 134.446 80.2805L133.35 80.018C132.025 79.703 131.428 79.1255 131.428 78.1084V78.1018C131.428 76.9271 132.556 76.0412 134.059 76.0412C135.542 76.0412 136.573 76.7827 136.73 77.9377H135.608C135.457 77.3799 134.906 76.9927 134.053 76.9927C133.213 76.9927 132.596 77.4259 132.596 78.0493V78.0624C132.596 78.5415 132.95 78.8434 133.783 79.0468L134.873 79.3093C136.205 79.6309 136.848 80.2084 136.848 81.219V81.2321C136.848 82.4921 135.621 83.3649 134.013 83.3649ZM140.768 83.2927C139.311 83.2927 138.701 82.7546 138.701 81.4027V77.1109H137.585V76.1659H138.701V74.3349H139.882V76.1659H141.431V77.1109H139.882V81.114C139.882 81.9474 140.171 82.2821 140.906 82.2821C141.109 82.2821 141.221 82.2755 141.431 82.2559V83.2271C141.208 83.2665 140.991 83.2927 140.768 83.2927ZM143.441 74.8009C143.008 74.8009 142.653 74.4465 142.653 74.0134C142.653 73.5802 143.008 73.2259 143.441 73.2259C143.874 73.2259 144.228 73.5802 144.228 74.0134C144.228 74.4465 143.874 74.8009 143.441 74.8009ZM142.863 83.2402V76.1659H144.005V83.2402H142.863ZM145.858 83.2402V76.1659H146.999V77.229H147.104C147.459 76.4809 148.122 76.0412 149.165 76.0412C150.753 76.0412 151.639 76.9796 151.639 78.6596V83.2402H150.497V78.9352C150.497 77.6621 149.972 77.0518 148.843 77.0518C147.715 77.0518 146.999 77.813 146.999 79.0534V83.2402H145.858ZM156.32 85.734C154.614 85.734 153.524 84.9662 153.347 83.8046L153.36 83.798H154.542L154.548 83.8046C154.673 84.3427 155.303 84.7234 156.32 84.7234C157.587 84.7234 158.341 84.1262 158.341 83.0827V81.6521H158.236C157.79 82.433 156.989 82.8727 156.018 82.8727C154.187 82.8727 153.052 81.4552 153.052 79.4734V79.4602C153.052 77.4784 154.194 76.0412 156.044 76.0412C157.042 76.0412 157.816 76.5334 158.249 77.334H158.328V76.1659H159.47V83.1418C159.47 84.7234 158.249 85.734 156.32 85.734ZM156.268 81.8621C157.58 81.8621 158.368 80.8777 158.368 79.4734V79.4602C158.368 78.0559 157.573 77.0518 156.268 77.0518C154.955 77.0518 154.22 78.0559 154.22 79.4602V79.4734C154.22 80.8777 154.955 81.8621 156.268 81.8621ZM167.992 83.3977C166.036 83.3977 164.77 82.3084 164.645 80.8121L164.638 80.7334H165.774L165.78 80.799C165.872 81.7309 166.732 82.374 167.992 82.374C169.232 82.374 170.079 81.6784 170.079 80.6743V80.6612C170.079 79.4996 169.245 78.8499 167.92 78.8499H166.732V77.8524H167.867C168.996 77.8524 169.783 77.1568 169.783 76.2118V76.1987C169.783 75.2077 169.134 74.6368 167.979 74.6368C166.863 74.6368 166.069 75.2274 165.971 76.1855L165.964 76.2512H164.829L164.835 76.1855C164.986 74.6434 166.207 73.613 167.979 73.613C169.783 73.613 170.971 74.6171 170.971 76.0543V76.0674C170.971 77.2355 170.144 78.0362 168.963 78.2855V78.3118C170.341 78.4299 171.28 79.2896 171.28 80.6349V80.648C171.28 82.2296 169.888 83.3977 167.992 83.3977ZM173.29 83.2402L177.542 74.919V74.8271H172.476V73.7705H178.743V74.8665L174.53 83.2402H173.29ZM183.785 83.2402V81.278H179.172V80.2018C180.451 78.0559 181.902 75.7459 183.227 73.7705H184.94V80.2215H186.285V81.278H184.94V83.2402H183.785ZM180.379 80.228H183.792V74.8665H183.713C182.65 76.4546 181.409 78.4102 180.379 80.1493V80.228ZM190.758 79.8343V79.0468H192.051C192.038 78.8762 192.031 78.6924 192.031 78.5087V78.4955C192.031 78.2987 192.038 78.1149 192.057 77.9312H190.758V77.1437H192.182C192.72 74.9255 194.61 73.9084 196.763 73.9084C197.255 73.9084 197.898 73.9609 198.174 74.0527V75.1159C197.885 75.0437 197.255 74.9977 196.763 74.9977C195.181 74.9977 193.915 75.6802 193.442 77.1437H196.966V77.9312H193.278C193.258 78.1149 193.245 78.3118 193.245 78.5152V78.5284C193.245 78.7055 193.252 78.8827 193.272 79.0468H196.966V79.8343H193.422C193.882 81.324 195.162 82.013 196.763 82.013C197.255 82.013 197.885 81.9802 198.174 81.8949V82.958C197.905 83.0565 197.255 83.1024 196.763 83.1024C194.591 83.1024 192.701 82.0655 192.176 79.8343H190.758ZM202.942 83.2402V76.1659H204.084V77.2421H204.189C204.504 76.4809 205.173 76.0412 206.098 76.0412C207.057 76.0412 207.726 76.5465 208.054 77.2815H208.159C208.54 76.5334 209.347 76.0412 210.325 76.0412C211.768 76.0412 212.576 76.868 212.576 78.3512V83.2402H211.434V78.6137C211.434 77.5702 210.955 77.0518 209.957 77.0518C208.973 77.0518 208.323 77.7934 208.323 78.6924V83.2402H207.181V78.4365C207.181 77.5965 206.604 77.0518 205.711 77.0518C204.786 77.0518 204.084 77.859 204.084 78.8565V83.2402H202.942ZM216.279 83.3649C214.933 83.3649 213.916 82.5512 213.916 81.2649V81.2518C213.916 79.9918 214.848 79.2634 216.495 79.1649L218.523 79.0402V78.3971C218.523 77.5243 217.992 77.0518 216.935 77.0518C216.088 77.0518 215.531 77.3668 215.347 77.918L215.34 77.9377H214.198L214.205 77.8984C214.389 76.7893 215.465 76.0412 216.974 76.0412C218.7 76.0412 219.665 76.9271 219.665 78.3971V83.2402H218.523V82.1968H218.418C217.972 82.9515 217.23 83.3649 216.279 83.3649ZM215.084 81.2387C215.084 81.954 215.695 82.374 216.515 82.374C217.677 82.374 218.523 81.6127 218.523 80.6021V79.959L216.633 80.0771C215.557 80.1427 215.084 80.5234 215.084 81.2255V81.2387ZM221.793 85.7209C221.642 85.7209 221.445 85.7077 221.288 85.6815V84.743C221.426 84.7693 221.603 84.7759 221.76 84.7759C222.41 84.7759 222.804 84.4805 223.06 83.6668L223.191 83.2468L220.573 76.1659H221.793L223.736 81.9868H223.841L225.777 76.1659H226.978L224.215 83.6734C223.631 85.2615 223.047 85.7209 221.793 85.7209ZM235.184 83.3649C234.2 83.3649 233.413 82.899 232.979 82.1115H232.874V83.2402H231.733V73.3571H232.874V77.2815H232.979C233.367 76.5268 234.213 76.0412 235.184 76.0412C236.983 76.0412 238.151 77.4784 238.151 79.6965V79.7096C238.151 81.9146 236.976 83.3649 235.184 83.3649ZM234.922 82.3543C236.215 82.3543 236.983 81.3568 236.983 79.7096V79.6965C236.983 78.0493 236.215 77.0518 234.922 77.0518C233.636 77.0518 232.848 78.0624 232.848 79.6965V79.7096C232.848 81.3437 233.636 82.3543 234.922 82.3543ZM242.51 83.3649C240.489 83.3649 239.268 81.9474 239.268 79.7293V79.7227C239.268 77.5374 240.515 76.0412 242.438 76.0412C244.361 76.0412 245.529 77.4718 245.529 79.5849V80.0312H240.436C240.469 81.4946 241.276 82.3477 242.536 82.3477C243.494 82.3477 244.085 81.8949 244.275 81.4684L244.302 81.4093H245.443L245.43 81.4618C245.188 82.4199 244.177 83.3649 242.51 83.3649ZM242.431 77.0584C241.381 77.0584 240.581 77.7737 240.456 79.119H244.367C244.249 77.7212 243.475 77.0584 242.431 77.0584ZM252.423 83.3649C251.078 83.3649 250.061 82.5512 250.061 81.2649V81.2518C250.061 79.9918 250.993 79.2634 252.64 79.1649L254.668 79.0402V78.3971C254.668 77.5243 254.136 77.0518 253.079 77.0518C252.233 77.0518 251.675 77.3668 251.491 77.918L251.485 77.9377H250.343L250.349 77.8984C250.533 76.7893 251.609 76.0412 253.119 76.0412C254.845 76.0412 255.809 76.9271 255.809 78.3971V83.2402H254.668V82.1968H254.563C254.116 82.9515 253.375 83.3649 252.423 83.3649ZM251.229 81.2387C251.229 81.954 251.839 82.374 252.659 82.374C253.821 82.374 254.668 81.6127 254.668 80.6021V79.959L252.778 80.0771C251.701 80.1427 251.229 80.5234 251.229 81.2255V81.2387ZM261.142 83.2402V73.3571H262.284V83.2402H261.142ZM266.118 83.3649C264.773 83.3649 263.756 82.5512 263.756 81.2649V81.2518C263.756 79.9918 264.688 79.2634 266.335 79.1649L268.363 79.0402V78.3971C268.363 77.5243 267.831 77.0518 266.774 77.0518C265.928 77.0518 265.37 77.3668 265.186 77.918L265.18 77.9377H264.038L264.044 77.8984C264.228 76.7893 265.304 76.0412 266.814 76.0412C268.54 76.0412 269.504 76.9271 269.504 78.3971V83.2402H268.363V82.1968H268.258C267.811 82.9515 267.07 83.3649 266.118 83.3649ZM264.924 81.2387C264.924 81.954 265.534 82.374 266.354 82.374C267.516 82.374 268.363 81.6127 268.363 80.6021V79.959L266.473 80.0771C265.396 80.1427 264.924 80.5234 264.924 81.2255V81.2387ZM271.291 83.2402V76.1659H272.433V77.2159H272.538C272.807 76.4743 273.47 76.0412 274.428 76.0412C274.645 76.0412 274.888 76.0674 274.999 76.0871V77.1962C274.763 77.1568 274.546 77.1305 274.297 77.1305C273.208 77.1305 272.433 77.8196 272.433 78.8565V83.2402H271.291ZM278.827 85.734C277.121 85.734 276.031 84.9662 275.854 83.8046L275.867 83.798H277.048L277.055 83.8046C277.18 84.3427 277.81 84.7234 278.827 84.7234C280.093 84.7234 280.848 84.1262 280.848 83.0827V81.6521H280.743C280.297 82.433 279.496 82.8727 278.525 82.8727C276.694 82.8727 275.559 81.4552 275.559 79.4734V79.4602C275.559 77.4784 276.701 76.0412 278.551 76.0412C279.549 76.0412 280.323 76.5334 280.756 77.334H280.835V76.1659H281.977V83.1418C281.977 84.7234 280.756 85.734 278.827 85.734ZM278.774 81.8621C280.087 81.8621 280.874 80.8777 280.874 79.4734V79.4602C280.874 78.0559 280.08 77.0518 278.774 77.0518C277.462 77.0518 276.727 78.0559 276.727 79.4602V79.4734C276.727 80.8777 277.462 81.8621 278.774 81.8621ZM286.691 83.3649C284.669 83.3649 283.449 81.9474 283.449 79.7293V79.7227C283.449 77.5374 284.696 76.0412 286.618 76.0412C288.541 76.0412 289.709 77.4718 289.709 79.5849V80.0312H284.617C284.65 81.4946 285.457 82.3477 286.717 82.3477C287.675 82.3477 288.266 81.8949 288.456 81.4684L288.482 81.4093H289.624L289.611 81.4618C289.368 82.4199 288.358 83.3649 286.691 83.3649ZM286.612 77.0584C285.562 77.0584 284.761 77.7737 284.637 79.119H288.548C288.43 77.7212 287.655 77.0584 286.612 77.0584ZM296.604 83.3649C295.258 83.3649 294.241 82.5512 294.241 81.2649V81.2518C294.241 79.9918 295.173 79.2634 296.82 79.1649L298.848 79.0402V78.3971C298.848 77.5243 298.317 77.0518 297.26 77.0518C296.413 77.0518 295.856 77.3668 295.672 77.918L295.665 77.9377H294.523L294.53 77.8984C294.714 76.7893 295.79 76.0412 297.299 76.0412C299.025 76.0412 299.99 76.9271 299.99 78.3971V83.2402H298.848V82.1968H298.743C298.297 82.9515 297.555 83.3649 296.604 83.3649ZM295.409 81.2387C295.409 81.954 296.02 82.374 296.84 82.374C298.002 82.374 298.848 81.6127 298.848 80.6021V79.959L296.958 80.0771C295.882 80.1427 295.409 80.5234 295.409 81.2255V81.2387ZM301.777 83.2402V76.1659H302.919V77.2421H303.024C303.339 76.4809 304.008 76.0412 304.933 76.0412C305.892 76.0412 306.561 76.5465 306.889 77.2815H306.994C307.375 76.5334 308.182 76.0412 309.16 76.0412C310.603 76.0412 311.411 76.868 311.411 78.3512V83.2402H310.269V78.6137C310.269 77.5702 309.79 77.0518 308.792 77.0518C307.808 77.0518 307.158 77.7934 307.158 78.6924V83.2402H306.016V78.4365C306.016 77.5965 305.439 77.0518 304.546 77.0518C303.621 77.0518 302.919 77.859 302.919 78.8565V83.2402H301.777ZM316.078 83.3649C314.064 83.3649 312.817 81.9737 312.817 79.7096V79.6965C312.817 77.4259 314.064 76.0412 316.078 76.0412C318.093 76.0412 319.34 77.4259 319.34 79.6965V79.7096C319.34 81.9737 318.093 83.3649 316.078 83.3649ZM316.078 82.3543C317.417 82.3543 318.172 81.3765 318.172 79.7096V79.6965C318.172 78.023 317.417 77.0518 316.078 77.0518C314.74 77.0518 313.985 78.023 313.985 79.6965V79.7096C313.985 81.3765 314.74 82.3543 316.078 82.3543ZM323.181 83.3649C321.573 83.3649 320.746 82.4199 320.746 80.7465V76.1659H321.888V80.4709C321.888 81.744 322.347 82.3543 323.476 82.3543C324.723 82.3543 325.386 81.593 325.386 80.3527V76.1659H326.528V83.2402H325.386V82.1837H325.281C324.933 82.9384 324.218 83.3649 323.181 83.3649ZM328.361 83.2402V76.1659H329.503V77.229H329.608C329.962 76.4809 330.625 76.0412 331.668 76.0412C333.256 76.0412 334.142 76.9796 334.142 78.6596V83.2402H333V78.9352C333 77.6621 332.475 77.0518 331.347 77.0518C330.218 77.0518 329.503 77.813 329.503 79.0534V83.2402H328.361ZM338.423 83.2927C336.966 83.2927 336.356 82.7546 336.356 81.4027V77.1109H335.24V76.1659H336.356V74.3349H337.537V76.1659H339.086V77.1109H337.537V81.114C337.537 81.9474 337.826 82.2821 338.561 82.2821C338.764 82.2821 338.876 82.2755 339.086 82.2559V83.2271C338.863 83.2665 338.646 83.2927 338.423 83.2927ZM39.5356 99.2402V93.1109H38.3609V92.1659H39.5356V91.3784C39.5356 89.9674 40.2444 89.2915 41.5897 89.2915C41.8653 89.2915 42.1147 89.3112 42.3509 89.3571V90.2693C42.2131 90.243 42.0228 90.2365 41.8194 90.2365C41.0056 90.2365 40.6775 90.6368 40.6775 91.4112V92.1659H42.2853V93.1109H40.6775V99.2402H39.5356ZM46.2378 99.3649C44.2231 99.3649 42.9762 97.9737 42.9762 95.7096V95.6965C42.9762 93.4259 44.2231 92.0412 46.2378 92.0412C48.2525 92.0412 49.4994 93.4259 49.4994 95.6965V95.7096C49.4994 97.9737 48.2525 99.3649 46.2378 99.3649ZM46.2378 98.3543C47.5766 98.3543 48.3313 97.3765 48.3313 95.7096V95.6965C48.3313 94.023 47.5766 93.0518 46.2378 93.0518C44.8991 93.0518 44.1444 94.023 44.1444 95.6965V95.7096C44.1444 97.3765 44.8991 98.3543 46.2378 98.3543ZM50.9712 99.2402V92.1659H52.1131V93.2159H52.2181C52.4872 92.4743 53.15 92.0412 54.1081 92.0412C54.3247 92.0412 54.5675 92.0674 54.6791 92.0871V93.1962C54.4428 93.1568 54.2263 93.1305 53.9769 93.1305C52.8875 93.1305 52.1131 93.8196 52.1131 94.8565V99.2402H50.9712ZM61.6981 99.3649C60.1231 99.3649 59.0403 98.6037 58.9091 97.4355H60.0772C60.2675 98.0262 60.8319 98.4134 61.7375 98.4134C62.6891 98.4134 63.365 97.9605 63.365 97.3174V97.3043C63.365 96.8252 63.0041 96.4905 62.1313 96.2805L61.0353 96.018C59.7097 95.703 59.1125 95.1255 59.1125 94.1084V94.1018C59.1125 92.9271 60.2412 92.0412 61.7441 92.0412C63.2272 92.0412 64.2575 92.7827 64.415 93.9377H63.2928C63.1419 93.3799 62.5906 92.9927 61.7375 92.9927C60.8975 92.9927 60.2806 93.4259 60.2806 94.0493V94.0624C60.2806 94.5415 60.635 94.8434 61.4684 95.0468L62.5578 95.3093C63.89 95.6309 64.5331 96.2084 64.5331 97.219V97.2321C64.5331 98.4921 63.3059 99.3649 61.6981 99.3649ZM68.9122 99.3649C66.8975 99.3649 65.6506 97.9737 65.6506 95.7096V95.6965C65.6506 93.4259 66.8975 92.0412 68.9122 92.0412C70.9269 92.0412 72.1738 93.4259 72.1738 95.6965V95.7096C72.1738 97.9737 70.9269 99.3649 68.9122 99.3649ZM68.9122 98.3543C70.2509 98.3543 71.0056 97.3765 71.0056 95.7096V95.6965C71.0056 94.023 70.2509 93.0518 68.9122 93.0518C67.5734 93.0518 66.8188 94.023 66.8188 95.6965V95.7096C66.8188 97.3765 67.5734 98.3543 68.9122 98.3543ZM73.6456 99.2402V92.1659H74.7875V93.2421H74.8925C75.2075 92.4809 75.8769 92.0412 76.8022 92.0412C77.7603 92.0412 78.4297 92.5465 78.7578 93.2815H78.8628C79.2434 92.5334 80.0506 92.0412 81.0284 92.0412C82.4722 92.0412 83.2794 92.868 83.2794 94.3512V99.2402H82.1375V94.6137C82.1375 93.5702 81.6584 93.0518 80.6609 93.0518C79.6766 93.0518 79.0269 93.7934 79.0269 94.6924V99.2402H77.885V94.4365C77.885 93.5965 77.3075 93.0518 76.415 93.0518C75.4897 93.0518 74.7875 93.859 74.7875 94.8565V99.2402H73.6456ZM87.9275 99.3649C85.9063 99.3649 84.6856 97.9474 84.6856 95.7293V95.7227C84.6856 93.5374 85.9325 92.0412 87.8553 92.0412C89.7781 92.0412 90.9463 93.4718 90.9463 95.5849V96.0312H85.8538C85.8866 97.4946 86.6938 98.3477 87.9538 98.3477C88.9119 98.3477 89.5025 97.8949 89.6928 97.4684L89.7191 97.4093H90.8609L90.8478 97.4618C90.605 98.4199 89.5944 99.3649 87.9275 99.3649ZM87.8488 93.0584C86.7988 93.0584 85.9981 93.7737 85.8734 95.119H89.7847C89.6666 93.7212 88.8922 93.0584 87.8488 93.0584ZM92.1294 101.649L92.7003 97.9146H94.0063L92.9759 101.649H92.1294ZM102.016 99.3649C100.441 99.3649 99.3584 98.6037 99.2272 97.4355H100.395C100.586 98.0262 101.15 98.4134 102.056 98.4134C103.007 98.4134 103.683 97.9605 103.683 97.3174V97.3043C103.683 96.8252 103.322 96.4905 102.449 96.2805L101.353 96.018C100.028 95.703 99.4306 95.1255 99.4306 94.1084V94.1018C99.4306 92.9271 100.559 92.0412 102.062 92.0412C103.545 92.0412 104.576 92.7827 104.733 93.9377H103.611C103.46 93.3799 102.909 92.9927 102.056 92.9927C101.216 92.9927 100.599 93.4259 100.599 94.0493V94.0624C100.599 94.5415 100.953 94.8434 101.787 95.0468L102.876 95.3093C104.208 95.6309 104.851 96.2084 104.851 97.219V97.2321C104.851 98.4921 103.624 99.3649 102.016 99.3649ZM109.23 99.3649C107.216 99.3649 105.969 97.9737 105.969 95.7096V95.6965C105.969 93.4259 107.216 92.0412 109.23 92.0412C111.245 92.0412 112.492 93.4259 112.492 95.6965V95.7096C112.492 97.9737 111.245 99.3649 109.23 99.3649ZM109.23 98.3543C110.569 98.3543 111.324 97.3765 111.324 95.7096V95.6965C111.324 94.023 110.569 93.0518 109.23 93.0518C107.892 93.0518 107.137 94.023 107.137 95.6965V95.7096C107.137 97.3765 107.892 98.3543 109.23 98.3543ZM120.331 99.3649C118.31 99.3649 117.089 97.9474 117.089 95.7293V95.7227C117.089 93.5374 118.336 92.0412 120.259 92.0412C122.182 92.0412 123.35 93.4718 123.35 95.5849V96.0312H118.258C118.29 97.4946 119.098 98.3477 120.358 98.3477C121.316 98.3477 121.906 97.8949 122.097 97.4684L122.123 97.4093H123.265L123.252 97.4618C123.009 98.4199 121.998 99.3649 120.331 99.3649ZM120.253 93.0584C119.203 93.0584 118.402 93.7737 118.277 95.119H122.188C122.07 93.7212 121.296 93.0584 120.253 93.0584ZM124.822 99.2402V92.1659H125.964V93.229H126.069C126.423 92.4809 127.086 92.0412 128.129 92.0412C129.718 92.0412 130.603 92.9796 130.603 94.6596V99.2402H129.462V94.9352C129.462 93.6621 128.937 93.0518 127.808 93.0518C126.679 93.0518 125.964 93.813 125.964 95.0534V99.2402H124.822ZM134.799 99.3649C133.224 99.3649 132.141 98.6037 132.01 97.4355H133.178C133.368 98.0262 133.933 98.4134 134.838 98.4134C135.79 98.4134 136.466 97.9605 136.466 97.3174V97.3043C136.466 96.8252 136.105 96.4905 135.232 96.2805L134.136 96.018C132.81 95.703 132.213 95.1255 132.213 94.1084V94.1018C132.213 92.9271 133.342 92.0412 134.845 92.0412C136.328 92.0412 137.358 92.7827 137.516 93.9377H136.393C136.243 93.3799 135.691 92.9927 134.838 92.9927C133.998 92.9927 133.381 93.4259 133.381 94.0493V94.0624C133.381 94.5415 133.736 94.8434 134.569 95.0468L135.658 95.3093C136.991 95.6309 137.634 96.2084 137.634 97.219V97.2321C137.634 98.4921 136.407 99.3649 134.799 99.3649ZM141.475 99.3649C139.867 99.3649 139.04 98.4199 139.04 96.7465V92.1659H140.182V96.4709C140.182 97.744 140.641 98.3543 141.77 98.3543C143.017 98.3543 143.68 97.593 143.68 96.3527V92.1659H144.822V99.2402H143.68V98.1837H143.575C143.227 98.9384 142.512 99.3649 141.475 99.3649ZM146.654 99.2402V92.1659H147.796V93.2159H147.901C148.17 92.4743 148.833 92.0412 149.791 92.0412C150.008 92.0412 150.251 92.0674 150.362 92.0871V93.1962C150.126 93.1568 149.909 93.1305 149.66 93.1305C148.571 93.1305 147.796 93.8196 147.796 94.8565V99.2402H146.654ZM154.164 99.3649C152.143 99.3649 150.922 97.9474 150.922 95.7293V95.7227C150.922 93.5374 152.169 92.0412 154.092 92.0412C156.014 92.0412 157.183 93.4718 157.183 95.5849V96.0312H152.09C152.123 97.4946 152.93 98.3477 154.19 98.3477C155.148 98.3477 155.739 97.8949 155.929 97.4684L155.955 97.4093H157.097L157.084 97.4618C156.841 98.4199 155.831 99.3649 154.164 99.3649ZM154.085 93.0584C153.035 93.0584 152.234 93.7737 152.11 95.119H156.021C155.903 93.7212 155.128 93.0584 154.085 93.0584ZM162.738 90.8009C162.305 90.8009 161.951 90.4465 161.951 90.0134C161.951 89.5802 162.305 89.2259 162.738 89.2259C163.171 89.2259 163.526 89.5802 163.526 90.0134C163.526 90.4465 163.171 90.8009 162.738 90.8009ZM162.161 99.2402V92.1659H163.303V99.2402H162.161ZM167.668 99.2927C166.212 99.2927 165.601 98.7546 165.601 97.4027V93.1109H164.486V92.1659H165.601V90.3349H166.783V92.1659H168.331V93.1109H166.783V97.114C166.783 97.9474 167.071 98.2821 167.806 98.2821C168.01 98.2821 168.121 98.2755 168.331 98.2559V99.2271C168.108 99.2665 167.892 99.2927 167.668 99.2927ZM173.69 99.2402V93.1109H172.515V92.1659H173.69V91.3784C173.69 89.9674 174.399 89.2915 175.744 89.2915C176.02 89.2915 176.269 89.3112 176.505 89.3571V90.2693C176.367 90.243 176.177 90.2365 175.974 90.2365C175.16 90.2365 174.832 90.6368 174.832 91.4112V92.1659H176.44V93.1109H174.832V99.2402H173.69ZM178.391 90.8009C177.958 90.8009 177.603 90.4465 177.603 90.0134C177.603 89.5802 177.958 89.2259 178.391 89.2259C178.824 89.2259 179.178 89.5802 179.178 90.0134C179.178 90.4465 178.824 90.8009 178.391 90.8009ZM177.813 99.2402V92.1659H178.955V99.2402H177.813ZM183.321 99.2927C181.864 99.2927 181.254 98.7546 181.254 97.4027V93.1109H180.138V92.1659H181.254V90.3349H182.435V92.1659H183.984V93.1109H182.435V97.114C182.435 97.9474 182.724 98.2821 183.459 98.2821C183.662 98.2821 183.774 98.2755 183.984 98.2559V99.2271C183.761 99.2665 183.544 99.2927 183.321 99.2927ZM187.687 99.3649C186.112 99.3649 185.029 98.6037 184.898 97.4355H186.066C186.256 98.0262 186.821 98.4134 187.726 98.4134C188.678 98.4134 189.354 97.9605 189.354 97.3174V97.3043C189.354 96.8252 188.993 96.4905 188.12 96.2805L187.024 96.018C185.698 95.703 185.101 95.1255 185.101 94.1084V94.1018C185.101 92.9271 186.23 92.0412 187.733 92.0412C189.216 92.0412 190.246 92.7827 190.404 93.9377H189.282C189.131 93.3799 188.579 92.9927 187.726 92.9927C186.886 92.9927 186.269 93.4259 186.269 94.0493V94.0624C186.269 94.5415 186.624 94.8434 187.457 95.0468L188.547 95.3093C189.879 95.6309 190.522 96.2084 190.522 97.219V97.2321C190.522 98.4921 189.295 99.3649 187.687 99.3649ZM196.078 101.721C195.927 101.721 195.73 101.708 195.572 101.681V100.743C195.71 100.769 195.887 100.776 196.045 100.776C196.694 100.776 197.088 100.481 197.344 99.6668L197.475 99.2468L194.857 92.1659H196.078L198.02 97.9868H198.125L200.061 92.1659H201.262L198.499 99.6734C197.915 101.261 197.331 101.721 196.078 101.721ZM205.116 99.3649C203.101 99.3649 201.854 97.9737 201.854 95.7096V95.6965C201.854 93.4259 203.101 92.0412 205.116 92.0412C207.131 92.0412 208.378 93.4259 208.378 95.6965V95.7096C208.378 97.9737 207.131 99.3649 205.116 99.3649ZM205.116 98.3543C206.455 98.3543 207.209 97.3765 207.209 95.7096V95.6965C207.209 94.023 206.455 93.0518 205.116 93.0518C203.777 93.0518 203.023 94.023 203.023 95.6965V95.7096C203.023 97.3765 203.777 98.3543 205.116 98.3543ZM212.218 99.3649C210.611 99.3649 209.784 98.4199 209.784 96.7465V92.1659H210.926V96.4709C210.926 97.744 211.385 98.3543 212.514 98.3543C213.761 98.3543 214.423 97.593 214.423 96.3527V92.1659H215.565V99.2402H214.423V98.1837H214.318C213.971 98.9384 213.255 99.3649 212.218 99.3649ZM217.398 99.2402V92.1659H218.54V93.2159H218.645C218.914 92.4743 219.577 92.0412 220.535 92.0412C220.752 92.0412 220.994 92.0674 221.106 92.0871V93.1962C220.87 93.1568 220.653 93.1305 220.404 93.1305C219.314 93.1305 218.54 93.8196 218.54 94.8565V99.2402H217.398ZM226.169 99.2402V93.1109H224.995V92.1659H226.169V91.3784C226.169 89.9674 226.878 89.2915 228.223 89.2915C228.499 89.2915 228.748 89.3112 228.985 89.3571V90.2693C228.847 90.243 228.657 90.2365 228.453 90.2365C227.639 90.2365 227.311 90.6368 227.311 91.4112V92.1659H228.919V93.1109H227.311V99.2402H226.169ZM230.87 90.8009C230.437 90.8009 230.083 90.4465 230.083 90.0134C230.083 89.5802 230.437 89.2259 230.87 89.2259C231.303 89.2259 231.658 89.5802 231.658 90.0134C231.658 90.4465 231.303 90.8009 230.87 90.8009ZM230.293 99.2402V92.1659H231.434V99.2402H230.293ZM233.287 99.2402V92.1659H234.429V93.229H234.534C234.888 92.4809 235.551 92.0412 236.594 92.0412C238.183 92.0412 239.068 92.9796 239.068 94.6596V99.2402H237.927V94.9352C237.927 93.6621 237.402 93.0518 236.273 93.0518C235.144 93.0518 234.429 93.813 234.429 95.0534V99.2402H233.287ZM242.778 99.3649C241.433 99.3649 240.416 98.5512 240.416 97.2649V97.2518C240.416 95.9918 241.348 95.2634 242.995 95.1649L245.023 95.0402V94.3971C245.023 93.5243 244.491 93.0518 243.434 93.0518C242.588 93.0518 242.03 93.3668 241.846 93.918L241.84 93.9377H240.698L240.704 93.8984C240.888 92.7893 241.964 92.0412 243.474 92.0412C245.2 92.0412 246.164 92.9271 246.164 94.3971V99.2402H245.023V98.1968H244.918C244.471 98.9515 243.73 99.3649 242.778 99.3649ZM241.584 97.2387C241.584 97.954 242.194 98.374 243.014 98.374C244.176 98.374 245.023 97.6127 245.023 96.6021V95.959L243.133 96.0771C242.056 96.1427 241.584 96.5234 241.584 97.2255V97.2387ZM247.951 99.2402V92.1659H249.093V93.229H249.198C249.553 92.4809 250.215 92.0412 251.259 92.0412C252.847 92.0412 253.733 92.9796 253.733 94.6596V99.2402H252.591V94.9352C252.591 93.6621 252.066 93.0518 250.937 93.0518C249.808 93.0518 249.093 93.813 249.093 95.0534V99.2402H247.951ZM258.394 99.3649C256.412 99.3649 255.146 97.9277 255.146 95.6834V95.6702C255.146 93.4718 256.406 92.0412 258.387 92.0412C260.107 92.0412 261.137 93.0321 261.347 94.2921L261.354 94.3315H260.218L260.212 94.3118C260.035 93.6162 259.405 93.0518 258.387 93.0518C257.114 93.0518 256.314 94.0755 256.314 95.6702V95.6834C256.314 97.3109 257.127 98.3543 258.387 98.3543C259.339 98.3543 259.943 97.9343 260.205 97.1468L260.218 97.1074L261.347 97.1009L261.334 97.173C261.045 98.4527 260.094 99.3649 258.394 99.3649ZM263.324 90.8009C262.891 90.8009 262.537 90.4465 262.537 90.0134C262.537 89.5802 262.891 89.2259 263.324 89.2259C263.758 89.2259 264.112 89.5802 264.112 90.0134C264.112 90.4465 263.758 90.8009 263.324 90.8009ZM262.747 99.2402V92.1659H263.889V99.2402H262.747ZM267.684 99.3649C266.338 99.3649 265.321 98.5512 265.321 97.2649V97.2518C265.321 95.9918 266.253 95.2634 267.9 95.1649L269.928 95.0402V94.3971C269.928 93.5243 269.397 93.0518 268.34 93.0518C267.493 93.0518 266.936 93.3668 266.752 93.918L266.745 93.9377H265.603L265.61 93.8984C265.794 92.7893 266.87 92.0412 268.379 92.0412C270.105 92.0412 271.07 92.9271 271.07 94.3971V99.2402H269.928V98.1968H269.823C269.377 98.9515 268.635 99.3649 267.684 99.3649ZM266.489 97.2387C266.489 97.954 267.1 98.374 267.92 98.374C269.082 98.374 269.928 97.6127 269.928 96.6021V95.959L268.038 96.0771C266.962 96.1427 266.489 96.5234 266.489 97.2255V97.2387ZM272.923 99.2402V89.3571H274.064V99.2402H272.923ZM281.864 99.3649C280.289 99.3649 279.207 98.6037 279.075 97.4355H280.243C280.434 98.0262 280.998 98.4134 281.904 98.4134C282.855 98.4134 283.531 97.9605 283.531 97.3174V97.3043C283.531 96.8252 283.17 96.4905 282.298 96.2805L281.202 96.018C279.876 95.703 279.279 95.1255 279.279 94.1084V94.1018C279.279 92.9271 280.408 92.0412 281.91 92.0412C283.393 92.0412 284.424 92.7827 284.581 93.9377H283.459C283.308 93.3799 282.757 92.9927 281.904 92.9927C281.064 92.9927 280.447 93.4259 280.447 94.0493V94.0624C280.447 94.5415 280.801 94.8434 281.635 95.0468L282.724 95.3093C284.056 95.6309 284.699 96.2084 284.699 97.219V97.2321C284.699 98.4921 283.472 99.3649 281.864 99.3649ZM286.775 90.8009C286.342 90.8009 285.988 90.4465 285.988 90.0134C285.988 89.5802 286.342 89.2259 286.775 89.2259C287.208 89.2259 287.563 89.5802 287.563 90.0134C287.563 90.4465 287.208 90.8009 286.775 90.8009ZM286.198 99.2402V92.1659H287.339V99.2402H286.198ZM291.705 99.2927C290.248 99.2927 289.638 98.7546 289.638 97.4027V93.1109H288.523V92.1659H289.638V90.3349H290.819V92.1659H292.368V93.1109H290.819V97.114C290.819 97.9474 291.108 98.2821 291.843 98.2821C292.047 98.2821 292.158 98.2755 292.368 98.2559V99.2271C292.145 99.2665 291.928 99.2927 291.705 99.2927ZM296.143 99.3649C294.536 99.3649 293.709 98.4199 293.709 96.7465V92.1659H294.851V96.4709C294.851 97.744 295.31 98.3543 296.439 98.3543C297.686 98.3543 298.348 97.593 298.348 96.3527V92.1659H299.49V99.2402H298.348V98.1837H298.243C297.896 98.9384 297.18 99.3649 296.143 99.3649ZM303.266 99.3649C301.92 99.3649 300.903 98.5512 300.903 97.2649V97.2518C300.903 95.9918 301.835 95.2634 303.482 95.1649L305.51 95.0402V94.3971C305.51 93.5243 304.978 93.0518 303.922 93.0518C303.075 93.0518 302.518 93.3668 302.334 93.918L302.327 93.9377H301.185L301.192 93.8984C301.376 92.7893 302.452 92.0412 303.961 92.0412C305.687 92.0412 306.652 92.9271 306.652 94.3971V99.2402H305.51V98.1968H305.405C304.959 98.9515 304.217 99.3649 303.266 99.3649ZM302.071 97.2387C302.071 97.954 302.682 98.374 303.502 98.374C304.663 98.374 305.51 97.6127 305.51 96.6021V95.959L303.62 96.0771C302.544 96.1427 302.071 96.5234 302.071 97.2255V97.2387ZM310.952 99.2927C309.495 99.2927 308.885 98.7546 308.885 97.4027V93.1109H307.769V92.1659H308.885V90.3349H310.066V92.1659H311.615V93.1109H310.066V97.114C310.066 97.9474 310.355 98.2821 311.09 98.2821C311.293 98.2821 311.405 98.2755 311.615 98.2559V99.2271C311.392 99.2665 311.175 99.2927 310.952 99.2927ZM313.625 90.8009C313.192 90.8009 312.838 90.4465 312.838 90.0134C312.838 89.5802 313.192 89.2259 313.625 89.2259C314.058 89.2259 314.413 89.5802 314.413 90.0134C314.413 90.4465 314.058 90.8009 313.625 90.8009ZM313.048 99.2402V92.1659H314.189V99.2402H313.048ZM318.949 99.3649C316.934 99.3649 315.688 97.9737 315.688 95.7096V95.6965C315.688 93.4259 316.934 92.0412 318.949 92.0412C320.964 92.0412 322.211 93.4259 322.211 95.6965V95.7096C322.211 97.9737 320.964 99.3649 318.949 99.3649ZM318.949 98.3543C320.288 98.3543 321.043 97.3765 321.043 95.7096V95.6965C321.043 94.023 320.288 93.0518 318.949 93.0518C317.61 93.0518 316.856 94.023 316.856 95.6965V95.7096C316.856 97.3765 317.61 98.3543 318.949 98.3543ZM323.683 99.2402V92.1659H324.824V93.229H324.929C325.284 92.4809 325.947 92.0412 326.99 92.0412C328.578 92.0412 329.464 92.9796 329.464 94.6596V99.2402H328.322V94.9352C328.322 93.6621 327.797 93.0518 326.668 93.0518C325.54 93.0518 324.824 93.813 324.824 95.0534V99.2402H323.683ZM332.163 99.3059C331.697 99.3059 331.31 98.9187 331.31 98.4527C331.31 97.9802 331.697 97.5996 332.163 97.5996C332.636 97.5996 333.016 97.9802 333.016 98.4527C333.016 98.9187 332.636 99.3059 332.163 99.3059Z" fill="#9299A2"/>
<rect x="18" y="119.24" width="5" height="71.76" rx="2.5" fill="#00C950"/>
<path d="M42.3406 147.24V136.309H42.2844L38.8344 138.653V136.14L42.3313 133.712H45.1438V147.24H42.3406ZM49.2492 147.24L55.0711 136.018V135.962H48.1898V133.712H57.8648V135.99L52.2211 147.24H49.2492ZM62.8702 140.678C60.9202 140.678 59.7296 139.318 59.7296 137.134V137.125C59.7296 134.95 60.9202 133.59 62.8702 133.59C64.8109 133.59 66.0015 134.95 66.0015 137.125V137.134C66.0015 139.318 64.8109 140.678 62.8702 140.678ZM64.2671 147.24H62.1765L70.7265 133.712H72.8077L64.2671 147.24ZM62.8702 139.121C63.6202 139.121 64.0327 138.418 64.0327 137.134V137.125C64.0327 135.85 63.6202 135.146 62.8702 135.146C62.1109 135.146 61.689 135.85 61.689 137.125V137.134C61.689 138.418 62.1109 139.121 62.8702 139.121ZM72.1234 147.362C70.1734 147.362 68.9827 146.003 68.9827 143.818V143.809C68.9827 141.634 70.1734 140.275 72.1234 140.275C74.064 140.275 75.2546 141.634 75.2546 143.809V143.818C75.2546 146.003 74.064 147.362 72.1234 147.362ZM72.1234 145.806C72.8734 145.806 73.2859 145.103 73.2859 143.818V143.809C73.2859 142.534 72.8734 141.831 72.1234 141.831C71.364 141.831 70.9421 142.534 70.9421 143.809V143.818C70.9421 145.103 71.364 145.806 72.1234 145.806ZM86.0811 147.446C83.0248 147.446 81.1029 145.487 81.1029 142.215V142.196C81.1029 138.962 83.0717 136.984 86.0717 136.984C89.0811 136.984 91.0592 138.943 91.0592 142.196V142.215C91.0592 145.496 89.1186 147.446 86.0811 147.446ZM86.0904 145.3C87.4217 145.3 88.2748 144.175 88.2748 142.215V142.196C88.2748 140.256 87.4029 139.131 86.0717 139.131C84.7498 139.131 83.8873 140.256 83.8873 142.196V142.215C83.8873 144.184 84.7404 145.3 86.0904 145.3ZM93.5709 147.24V139.253H92.2021V137.19H93.5709V136.384C93.5709 134.415 94.5084 133.506 96.8803 133.506C97.3865 133.506 97.9396 133.553 98.2584 133.618V135.428C98.0709 135.39 97.8084 135.381 97.5553 135.381C96.6459 135.381 96.2428 135.765 96.2428 136.487V137.19H98.2396V139.253H96.3084V147.24H93.5709ZM105.644 135.896C104.819 135.896 104.182 135.25 104.182 134.471C104.182 133.693 104.819 133.046 105.644 133.046C106.469 133.046 107.107 133.693 107.107 134.471C107.107 135.25 106.469 135.896 105.644 135.896ZM104.275 147.24V137.19H107.013V147.24H104.275ZM109.215 147.24V137.19H111.953V138.84H112.009C112.525 137.687 113.556 136.984 115.075 136.984C117.287 136.984 118.543 138.4 118.543 140.753V147.24H115.806V141.315C115.806 140.003 115.187 139.253 113.959 139.253C112.731 139.253 111.953 140.153 111.953 141.465V147.24H109.215ZM125.236 147.446C122.171 147.446 120.277 145.45 120.277 142.206V142.196C120.277 138.981 122.199 136.984 125.208 136.984C127.936 136.984 129.671 138.662 129.774 140.837V140.903H127.233L127.214 140.818C127.046 139.862 126.38 139.131 125.246 139.131C123.905 139.131 123.061 140.284 123.061 142.206V142.215C123.061 144.184 123.905 145.3 125.255 145.3C126.352 145.3 127.036 144.625 127.224 143.612L127.233 143.528H129.783V143.584C129.652 145.778 127.918 147.446 125.236 147.446ZM136.082 147.446C133.026 147.446 131.104 145.487 131.104 142.215V142.196C131.104 138.962 133.073 136.984 136.073 136.984C139.082 136.984 141.061 138.943 141.061 142.196V142.215C141.061 145.496 139.12 147.446 136.082 147.446ZM136.092 145.3C137.423 145.3 138.276 144.175 138.276 142.215V142.196C138.276 140.256 137.404 139.131 136.073 139.131C134.751 139.131 133.889 140.256 133.889 142.196V142.215C133.889 144.184 134.742 145.3 136.092 145.3ZM142.841 147.24V137.19H145.578V138.878H145.635C146.047 137.734 147.097 136.984 148.447 136.984C149.853 136.984 150.875 137.734 151.213 139.056H151.269C151.719 137.79 152.919 136.984 154.391 136.984C156.36 136.984 157.682 138.343 157.682 140.368V147.24H154.944V141.053C154.944 139.89 154.363 139.253 153.303 139.253C152.263 139.253 151.578 140.012 151.578 141.128V147.24H148.944V140.968C148.944 139.89 148.335 139.253 147.322 139.253C146.282 139.253 145.578 140.04 145.578 141.175V147.24H142.841ZM164.356 147.446C161.281 147.446 159.415 145.45 159.415 142.234V142.225C159.415 139.028 161.299 136.984 164.243 136.984C167.187 136.984 169.034 138.981 169.034 142.018V142.862H162.115C162.143 144.465 163.015 145.403 164.412 145.403C165.537 145.403 166.221 144.784 166.418 144.221L166.437 144.165H168.949L168.921 144.268C168.612 145.75 167.224 147.446 164.356 147.446ZM164.29 139.028C163.165 139.028 162.321 139.778 162.143 141.137H166.409C166.24 139.75 165.424 139.028 164.29 139.028ZM176.41 135.896C175.585 135.896 174.948 135.25 174.948 134.471C174.948 133.693 175.585 133.046 176.41 133.046C177.235 133.046 177.873 133.693 177.873 134.471C177.873 135.25 177.235 135.896 176.41 135.896ZM175.042 147.24V137.19H177.779V147.24H175.042ZM179.981 147.24V137.19H182.719V138.84H182.775C183.291 137.687 184.322 136.984 185.841 136.984C188.053 136.984 189.31 138.4 189.31 140.753V147.24H186.572V141.315C186.572 140.003 185.953 139.253 184.725 139.253C183.497 139.253 182.719 140.153 182.719 141.465V147.24H179.981ZM194.006 147.24L190.527 137.19H193.452L195.552 144.821H195.609L197.681 137.19H200.54L197.09 147.24H194.006ZM206.08 147.446C203.005 147.446 201.139 145.45 201.139 142.234V142.225C201.139 139.028 203.023 136.984 205.967 136.984C208.911 136.984 210.758 138.981 210.758 142.018V142.862H203.839C203.867 144.465 204.739 145.403 206.136 145.403C207.261 145.403 207.945 144.784 208.142 144.221L208.161 144.165H210.673L210.645 144.268C210.336 145.75 208.948 147.446 206.08 147.446ZM206.014 139.028C204.889 139.028 204.045 139.778 203.867 141.137H208.133C207.964 139.75 207.148 139.028 206.014 139.028ZM216.673 147.446C213.888 147.446 212.341 146.162 212.126 144.259L212.116 144.175H214.788L214.807 144.259C214.985 145.046 215.576 145.506 216.673 145.506C217.704 145.506 218.332 145.103 218.332 144.456V144.446C218.332 143.912 217.995 143.603 217.01 143.387L215.304 143.031C213.354 142.618 212.37 141.643 212.37 140.143V140.134C212.37 138.221 214.02 136.984 216.579 136.984C219.251 136.984 220.741 138.4 220.807 140.162V140.256H218.285L218.276 140.181C218.182 139.459 217.591 138.915 216.579 138.915C215.632 138.915 215.041 139.337 215.041 139.984V139.993C215.041 140.509 215.388 140.846 216.401 141.062L218.107 141.428C220.207 141.868 221.07 142.693 221.07 144.175V144.184C221.07 146.153 219.26 147.446 216.673 147.446ZM226.778 147.446C224.547 147.446 223.497 146.584 223.497 144.428V139.253H222.1V137.19H223.497V134.734H226.262V137.19H228.1V139.253H226.262V144.128C226.262 145.065 226.684 145.384 227.509 145.384C227.753 145.384 227.931 145.356 228.1 145.337V147.343C227.791 147.39 227.35 147.446 226.778 147.446ZM234.399 147.446C231.324 147.446 229.459 145.45 229.459 142.234V142.225C229.459 139.028 231.343 136.984 234.287 136.984C237.23 136.984 239.077 138.981 239.077 142.018V142.862H232.159C232.187 144.465 233.059 145.403 234.455 145.403C235.58 145.403 236.265 144.784 236.462 144.221L236.48 144.165H238.993L238.965 144.268C238.655 145.75 237.268 147.446 234.399 147.446ZM234.334 139.028C233.209 139.028 232.365 139.778 232.187 141.137H236.452C236.284 139.75 235.468 139.028 234.334 139.028ZM244.58 147.446C242.048 147.446 240.492 145.478 240.492 142.215V142.206C240.492 138.934 242.048 136.984 244.58 136.984C246.005 136.984 247.13 137.715 247.673 138.934H247.73V133.712H250.467V147.24H247.73V145.525H247.673C247.139 146.715 246.033 147.446 244.58 147.446ZM245.498 145.178C246.83 145.178 247.739 144.034 247.739 142.215V142.206C247.739 140.396 246.82 139.253 245.498 139.253C244.139 139.253 243.276 140.368 243.276 142.206V142.215C243.276 144.043 244.13 145.178 245.498 145.178Z" fill="#333333"/>
<path d="M42.4392 173V168.255L38.5272 161.975H40.0935L43.0657 166.872H43.188L46.1602 161.975H47.7265L43.8145 168.255V173H42.4392ZM51.1838 173.145C48.8381 173.145 47.3864 171.525 47.3864 168.889V168.874C47.3864 166.23 48.8381 164.618 51.1838 164.618C53.5295 164.618 54.9812 166.23 54.9812 168.874V168.889C54.9812 171.525 53.5295 173.145 51.1838 173.145ZM51.1838 171.969C52.7425 171.969 53.6211 170.83 53.6211 168.889V168.874C53.6211 166.926 52.7425 165.795 51.1838 165.795C49.6251 165.795 48.7464 166.926 48.7464 168.874V168.889C48.7464 170.83 49.6251 171.969 51.1838 171.969ZM59.4088 173.145C57.5369 173.145 56.5741 172.045 56.5741 170.097V164.763H57.9036V169.776C57.9036 171.258 58.4385 171.969 59.7526 171.969C61.2044 171.969 61.9761 171.082 61.9761 169.638V164.763H63.3055V173H61.9761V171.77H61.8538C61.4489 172.649 60.616 173.145 59.4088 173.145ZM70.1055 163.174C69.6012 163.174 69.1886 162.762 69.1886 162.257C69.1886 161.753 69.6012 161.34 70.1055 161.34C70.6098 161.34 71.0223 161.753 71.0223 162.257C71.0223 162.762 70.6098 163.174 70.1055 163.174ZM69.4331 173V164.763H70.7626V173H69.4331ZM72.8751 173V164.763H74.2046V166.001H74.3268C74.7394 165.13 75.5111 164.618 76.726 164.618C78.575 164.618 79.6065 165.711 79.6065 167.667V173H78.277V167.988C78.277 166.505 77.6658 165.795 76.3516 165.795C75.0374 165.795 74.2046 166.681 74.2046 168.125V173H72.8751ZM83.6444 173L80.5958 164.763H82.0017L84.2557 171.548H84.3779L86.6319 164.763H88.0378L84.9892 173H83.6444ZM92.4578 173.145C90.1045 173.145 88.6833 171.495 88.6833 168.912V168.905C88.6833 166.36 90.135 164.618 92.3738 164.618C94.6125 164.618 95.9725 166.284 95.9725 168.744V169.264H90.0434C90.0816 170.968 91.0214 171.961 92.4884 171.961C93.6039 171.961 94.2915 171.434 94.5131 170.937L94.5437 170.868H95.8732L95.8579 170.929C95.5752 172.045 94.3985 173.145 92.4578 173.145ZM92.3661 165.803C91.1436 165.803 90.2115 166.635 90.0663 168.202H94.6201C94.4826 166.574 93.581 165.803 92.3661 165.803ZM100.469 173.145C98.6351 173.145 97.3744 172.259 97.2216 170.899H98.5817C98.8032 171.586 99.4603 172.037 100.515 172.037C101.623 172.037 102.41 171.51 102.41 170.761V170.746C102.41 170.188 101.989 169.799 100.973 169.554L99.6972 169.248C98.1538 168.882 97.4585 168.209 97.4585 167.025V167.017C97.4585 165.65 98.7727 164.618 100.522 164.618C102.249 164.618 103.449 165.482 103.632 166.826H102.326C102.15 166.177 101.508 165.726 100.515 165.726C99.5367 165.726 98.8185 166.23 98.8185 166.956V166.972C98.8185 167.529 99.2311 167.881 100.201 168.118L101.47 168.423C103.021 168.798 103.77 169.47 103.77 170.647V170.662C103.77 172.129 102.341 173.145 100.469 173.145ZM108.289 173.061C106.593 173.061 105.882 172.435 105.882 170.861V165.864H104.583V164.763H105.882V162.632H107.257V164.763H109.061V165.864H107.257V170.524C107.257 171.495 107.594 171.884 108.449 171.884C108.686 171.884 108.816 171.877 109.061 171.854V172.985C108.801 173.031 108.549 173.061 108.289 173.061ZM113.893 173.145C111.54 173.145 110.119 171.495 110.119 168.912V168.905C110.119 166.36 111.571 164.618 113.809 164.618C116.048 164.618 117.408 166.284 117.408 168.744V169.264H111.479C111.517 170.968 112.457 171.961 113.924 171.961C115.039 171.961 115.727 171.434 115.949 170.937L115.979 170.868H117.309L117.293 170.929C117.011 172.045 115.834 173.145 113.893 173.145ZM113.802 165.803C112.579 165.803 111.647 166.635 111.502 168.202H116.056C115.918 166.574 115.016 165.803 113.802 165.803ZM122.118 173.145C120.032 173.145 118.665 171.457 118.665 168.889V168.874C118.665 166.292 120.025 164.618 122.118 164.618C123.249 164.618 124.235 165.184 124.686 166.062H124.808V161.493H126.137V173H124.808V171.686H124.686C124.181 172.603 123.264 173.145 122.118 173.145ZM122.424 171.969C123.921 171.969 124.838 170.792 124.838 168.889V168.874C124.838 166.972 123.921 165.795 122.424 165.795C120.919 165.795 120.025 166.956 120.025 168.874V168.889C120.025 170.807 120.919 171.969 122.424 171.969ZM136.047 173.183C133.77 173.183 132.295 171.915 132.15 170.173L132.143 170.081H133.464L133.472 170.158C133.579 171.243 134.58 171.991 136.047 171.991C137.491 171.991 138.477 171.182 138.477 170.013V169.997C138.477 168.645 137.506 167.888 135.963 167.888H134.58V166.727H135.902C137.216 166.727 138.133 165.917 138.133 164.817V164.802C138.133 163.648 137.376 162.983 136.032 162.983C134.733 162.983 133.808 163.671 133.694 164.786L133.686 164.863H132.364L132.372 164.786C132.548 162.991 133.969 161.791 136.032 161.791C138.133 161.791 139.516 162.96 139.516 164.634V164.649C139.516 166.009 138.553 166.941 137.178 167.231V167.262C138.782 167.399 139.875 168.4 139.875 169.967V169.982C139.875 171.823 138.255 173.183 136.047 173.183ZM144.409 173V163.503H144.287L141.483 165.535V164.083L144.417 161.975H145.785V173H144.409ZM152.268 173.26C149.83 173.26 148.379 171.036 148.379 167.491V167.476C148.379 163.931 149.83 161.715 152.268 161.715C154.705 161.715 156.172 163.931 156.172 167.476V167.491C156.172 171.036 154.705 173.26 152.268 173.26ZM152.268 172.06C153.849 172.06 154.789 170.303 154.789 167.491V167.476C154.789 164.664 153.849 162.922 152.268 162.922C150.686 162.922 149.762 164.664 149.762 167.476V167.491C149.762 170.303 150.686 172.06 152.268 172.06ZM161.429 169.035V168.118H162.934C162.919 167.919 162.911 167.705 162.911 167.491V167.476C162.911 167.247 162.919 167.033 162.941 166.819H161.429V165.902H163.087C163.713 163.319 165.914 162.135 168.42 162.135C168.993 162.135 169.742 162.196 170.063 162.303V163.541C169.726 163.457 168.993 163.403 168.42 163.403C166.578 163.403 165.104 164.198 164.554 165.902H168.657V166.819H164.363C164.34 167.033 164.324 167.262 164.324 167.499V167.514C164.324 167.72 164.332 167.927 164.355 168.118H168.657V169.035H164.531C165.066 170.769 166.555 171.571 168.42 171.571C168.993 171.571 169.726 171.533 170.063 171.434V172.671C169.749 172.786 168.993 172.84 168.42 172.84C165.891 172.84 163.69 171.632 163.079 169.035H161.429ZM178.91 173.145C176.565 173.145 175.113 171.525 175.113 168.889V168.874C175.113 166.23 176.565 164.618 178.91 164.618C181.256 164.618 182.708 166.23 182.708 168.874V168.889C182.708 171.525 181.256 173.145 178.91 173.145ZM178.91 171.969C180.469 171.969 181.348 170.83 181.348 168.889V168.874C181.348 166.926 180.469 165.795 178.91 165.795C177.351 165.795 176.473 166.926 176.473 168.874V168.889C176.473 170.83 177.351 171.969 178.91 171.969ZM187.135 173.145C185.263 173.145 184.301 172.045 184.301 170.097V164.763H185.63V169.776C185.63 171.258 186.165 171.969 187.479 171.969C188.931 171.969 189.702 171.082 189.702 169.638V164.763H191.032V173H189.702V171.77H189.58C189.175 172.649 188.342 173.145 187.135 173.145ZM196.048 173.061C194.352 173.061 193.641 172.435 193.641 170.861V165.864H192.342V164.763H193.641V162.632H195.016V164.763H196.82V165.864H195.016V170.524C195.016 171.495 195.353 171.884 196.208 171.884C196.445 171.884 196.575 171.877 196.82 171.854V172.985C196.56 173.031 196.308 173.061 196.048 173.061ZM205.805 173.145C203.459 173.145 202.007 171.525 202.007 168.889V168.874C202.007 166.23 203.459 164.618 205.805 164.618C208.15 164.618 209.602 166.23 209.602 168.874V168.889C209.602 171.525 208.15 173.145 205.805 173.145ZM205.805 171.969C207.363 171.969 208.242 170.83 208.242 168.889V168.874C208.242 166.926 207.363 165.795 205.805 165.795C204.246 165.795 203.367 166.926 203.367 168.874V168.889C203.367 170.83 204.246 171.969 205.805 171.969ZM211.822 173V165.864H210.454V164.763H211.822V163.847C211.822 162.204 212.647 161.417 214.213 161.417C214.534 161.417 214.824 161.44 215.099 161.493V162.555C214.939 162.525 214.717 162.517 214.481 162.517C213.533 162.517 213.151 162.983 213.151 163.885V164.763H215.023V165.864H213.151V173H211.822ZM223.244 173V163.503H223.122L220.318 165.535V164.083L223.252 161.975H224.619V173H223.244ZM228.123 173.076C227.58 173.076 227.129 172.626 227.129 172.083C227.129 171.533 227.58 171.09 228.123 171.09C228.673 171.09 229.116 171.533 229.116 172.083C229.116 172.626 228.673 173.076 228.123 173.076ZM234.514 173.183C232.176 173.183 230.51 171.869 230.51 170.02V170.005C230.51 168.645 231.465 167.514 232.879 167.185V167.155C231.672 166.781 230.907 165.864 230.907 164.702V164.687C230.907 163.021 232.428 161.791 234.514 161.791C236.6 161.791 238.12 163.021 238.12 164.687V164.702C238.12 165.864 237.356 166.781 236.149 167.155V167.185C237.562 167.514 238.518 168.645 238.518 170.005V170.02C238.518 171.869 236.852 173.183 234.514 173.183ZM234.514 166.643C235.843 166.643 236.753 165.887 236.753 164.817V164.802C236.753 163.732 235.843 162.976 234.514 162.976C233.184 162.976 232.275 163.732 232.275 164.802V164.817C232.275 165.887 233.184 166.643 234.514 166.643ZM234.514 171.984C236.034 171.984 237.119 171.128 237.119 169.936V169.921C237.119 168.714 236.042 167.85 234.514 167.85C232.986 167.85 231.908 168.714 231.908 169.921V169.936C231.908 171.128 232.993 171.984 234.514 171.984ZM240.806 173L245.757 163.312V163.205H239.858V161.975H247.155V163.251L242.25 173H240.806ZM252.332 173.26C250.276 173.26 248.809 171.938 248.649 170.173L248.641 170.089H249.963L249.971 170.15C250.101 171.204 251.056 172.045 252.347 172.045C253.814 172.045 254.822 170.998 254.822 169.508V169.493C254.822 168.026 253.799 166.979 252.37 166.979C251.636 166.979 251.01 167.201 250.536 167.652C250.345 167.835 250.169 168.049 250.032 168.309H248.84L249.421 161.975H255.556V163.205H250.505L250.131 166.933H250.253C250.742 166.192 251.606 165.787 252.607 165.787C254.677 165.787 256.167 167.338 256.167 169.47V169.485C256.167 171.709 254.57 173.26 252.332 173.26ZM261.378 169.035V168.118H262.883C262.868 167.919 262.86 167.705 262.86 167.491V167.476C262.86 167.247 262.868 167.033 262.891 166.819H261.378V165.902H263.036C263.662 163.319 265.863 162.135 268.369 162.135C268.942 162.135 269.691 162.196 270.012 162.303V163.541C269.676 163.457 268.942 163.403 268.369 163.403C266.528 163.403 265.053 164.198 264.503 165.902H268.606V166.819H264.312C264.289 167.033 264.274 167.262 264.274 167.499V167.514C264.274 167.72 264.281 167.927 264.304 168.118H268.606V169.035H264.48C265.015 170.769 266.505 171.571 268.369 171.571C268.942 171.571 269.676 171.533 270.012 171.434V172.671C269.699 172.786 268.942 172.84 268.369 172.84C265.84 172.84 263.639 171.632 263.028 169.035H261.378ZM272.552 173.076C272.01 173.076 271.559 172.626 271.559 172.083C271.559 171.533 272.01 171.09 272.552 171.09C273.102 171.09 273.545 171.533 273.545 172.083C273.545 172.626 273.102 173.076 272.552 173.076Z" fill="#333333"/>
<rect opacity="0.4" x="18" y="196" width="5" height="75.84" rx="2.5" fill="#85BB2C"/>
<path d="M39.4526 220V208.022H41.9595V217.933H47.2886V220H39.4526ZM52.5312 220.191C49.7504 220.191 48.0654 218.373 48.0654 215.443V215.435C48.0654 212.529 49.767 210.662 52.4316 210.662C55.0961 210.662 56.7563 212.488 56.7563 215.252V216.007H50.4643C50.4892 217.51 51.2944 218.381 52.581 218.381C53.6435 218.381 54.2329 217.817 54.3989 217.468L54.4238 217.418H56.6816L56.665 217.501C56.3828 218.647 55.2041 220.191 52.5312 220.191ZM52.4731 212.479C51.4189 212.479 50.6386 213.193 50.4892 214.488H54.4321C54.2827 213.16 53.5273 212.479 52.4731 212.479ZM61.9823 220.191C59.5004 220.191 58.0893 219.079 57.9149 217.51L57.9066 217.477H60.289L60.3056 217.51C60.4965 218.074 61.0526 218.481 62.0072 218.481C62.9369 218.481 63.5678 218.083 63.5678 217.477V217.46C63.5678 216.97 63.2025 216.663 62.2729 216.456L60.7455 216.132C59.0023 215.758 58.1391 214.903 58.1391 213.534V213.525C58.1391 211.807 59.6664 210.662 61.9491 210.662C64.3481 210.662 65.6762 211.857 65.7758 213.326V213.359H63.5263L63.518 213.318C63.3852 212.828 62.8456 212.372 61.9408 212.372C61.1024 212.372 60.5048 212.762 60.5048 213.376V213.384C60.5048 213.874 60.8451 214.156 61.7914 214.364L63.3105 214.688C65.1366 215.078 65.9916 215.841 65.9916 217.194V217.203C65.9916 219.012 64.3232 220.191 61.9823 220.191ZM71.0516 220.191C68.5697 220.191 67.1586 219.079 66.9842 217.51L66.9759 217.477H69.3583L69.3749 217.51C69.5658 218.074 70.1219 218.481 71.0765 218.481C72.0062 218.481 72.6371 218.083 72.6371 217.477V217.46C72.6371 216.97 72.2718 216.663 71.3421 216.456L69.8148 216.132C68.0716 215.758 67.2084 214.903 67.2084 213.534V213.525C67.2084 211.807 68.7357 210.662 71.0184 210.662C73.4173 210.662 74.7455 211.857 74.8451 213.326V213.359H72.5956L72.5873 213.318C72.4545 212.828 71.9149 212.372 71.0101 212.372C70.1717 212.372 69.5741 212.762 69.5741 213.376V213.384C69.5741 213.874 69.9144 214.156 70.8607 214.364L72.3797 214.688C74.2059 215.078 75.0609 215.841 75.0609 217.194V217.203C75.0609 219.012 73.3924 220.191 71.0516 220.191ZM84.4339 220.033C82.2092 220.033 81.3128 219.311 81.3128 217.535V212.687H79.9016V210.861H81.3128V208.678H83.7615V210.861H85.6458V212.687H83.7615V216.979C83.7615 217.8 84.1101 218.166 84.9319 218.166C85.2473 218.166 85.4133 218.149 85.6458 218.124V219.925C85.3469 219.983 84.8987 220.033 84.4339 220.033ZM87.3523 220V207.366H89.7761V212.272H89.9255C90.3405 211.284 91.2453 210.662 92.5486 210.662C94.5822 210.662 95.678 211.907 95.678 214.09V220H93.2541V214.638C93.2541 213.351 92.7229 212.67 91.5774 212.67C90.4568 212.67 89.7761 213.476 89.7761 214.712V220H87.3523ZM100.124 220.141C98.3805 220.141 97.1437 219.062 97.1437 217.402V217.385C97.1437 215.742 98.4137 214.779 100.688 214.646L102.896 214.513V213.758C102.896 212.969 102.357 212.521 101.361 212.521C100.489 212.521 99.9328 212.828 99.7419 213.368L99.7253 213.401H97.4841L97.4924 213.326C97.6833 211.724 99.194 210.662 101.493 210.662C103.917 210.662 105.287 211.807 105.287 213.758V220H102.896V218.788H102.747C102.282 219.635 101.319 220.141 100.124 220.141ZM99.5094 217.252C99.5094 217.95 100.099 218.373 100.937 218.373C102.058 218.373 102.896 217.634 102.896 216.671V215.999L101.053 216.115C100.016 216.182 99.5094 216.572 99.5094 217.236V217.252ZM107.267 220V210.861H109.691V212.272H109.84C110.255 211.284 111.16 210.662 112.464 210.662C114.497 210.662 115.593 211.907 115.593 214.09V220H113.169V214.638C113.169 213.351 112.638 212.67 111.492 212.67C110.372 212.67 109.691 213.476 109.691 214.712V220H107.267ZM124.468 220V210.388H124.318L121.38 212.43V210.172L124.476 208.022H126.975V220H124.468ZM134.45 220.307C131.495 220.307 129.694 217.883 129.694 214.015V213.999C129.694 210.122 131.495 207.715 134.45 207.715C137.414 207.715 139.207 210.122 139.207 213.999V214.015C139.207 217.883 137.414 220.307 134.45 220.307ZM134.45 218.323C135.87 218.323 136.675 216.721 136.675 214.015V213.999C136.675 211.284 135.87 209.699 134.45 209.699C133.039 209.699 132.234 211.284 132.234 213.999V214.015C132.234 216.721 133.039 218.323 134.45 218.323ZM143.769 214.588C142.017 214.588 140.938 213.293 140.938 211.218V211.209C140.938 209.134 142.017 207.848 143.769 207.848C145.528 207.848 146.599 209.134 146.599 211.209V211.218C146.599 213.293 145.528 214.588 143.769 214.588ZM145.611 220H143.694L151.754 208.022H153.671L145.611 220ZM143.769 213.26C144.499 213.26 144.906 212.521 144.906 211.218V211.209C144.906 209.898 144.499 209.176 143.769 209.176C143.046 209.176 142.64 209.898 142.64 211.209V211.218C142.64 212.521 143.046 213.26 143.769 213.26ZM153.588 220.174C151.837 220.174 150.758 218.879 150.758 216.804V216.796C150.758 214.721 151.837 213.434 153.588 213.434C155.348 213.434 156.419 214.721 156.419 216.796V216.804C156.419 218.879 155.348 220.174 153.588 220.174ZM153.588 218.846C154.319 218.846 154.726 218.107 154.726 216.804V216.796C154.726 215.484 154.319 214.762 153.588 214.762C152.866 214.762 152.459 215.484 152.459 216.796V216.804C152.459 218.107 152.866 218.846 153.588 218.846ZM166.356 220.191C163.542 220.191 161.849 218.406 161.849 215.435V215.418C161.849 212.471 163.567 210.662 166.356 210.662C169.145 210.662 170.864 212.463 170.864 215.418V215.435C170.864 218.415 169.17 220.191 166.356 220.191ZM166.356 218.29C167.643 218.29 168.382 217.236 168.382 215.435V215.418C168.382 213.633 167.635 212.562 166.356 212.562C165.07 212.562 164.331 213.633 164.331 215.418V215.435C164.331 217.236 165.061 218.29 166.356 218.29ZM173.151 220V212.687H171.674V210.861H173.151V210.006C173.151 208.188 174.081 207.275 176.289 207.275C176.779 207.275 177.185 207.308 177.534 207.366V208.985C177.385 208.96 177.127 208.935 176.812 208.935C175.874 208.935 175.525 209.375 175.525 210.172V210.861H177.459V212.687H175.575V220H173.151ZM184.217 209.458C183.47 209.458 182.848 208.86 182.848 208.113C182.848 207.358 183.47 206.76 184.217 206.76C184.965 206.76 185.579 207.358 185.579 208.113C185.579 208.86 184.965 209.458 184.217 209.458ZM182.997 220V210.861H185.421V220H182.997ZM187.468 220V210.861H189.892V212.272H190.041C190.456 211.284 191.361 210.662 192.664 210.662C194.698 210.662 195.794 211.907 195.794 214.09V220H193.37V214.638C193.37 213.351 192.839 212.67 191.693 212.67C190.572 212.67 189.892 213.476 189.892 214.712V220H187.468ZM201.775 220.191C198.92 220.191 197.301 218.456 197.301 215.418V215.401C197.301 212.396 198.911 210.662 201.775 210.662C204.199 210.662 205.635 211.981 205.851 214.023V214.048H203.593L203.585 214.032C203.427 213.144 202.821 212.562 201.783 212.562C200.48 212.562 199.766 213.575 199.766 215.401V215.418C199.766 217.269 200.488 218.29 201.783 218.29C202.779 218.29 203.369 217.817 203.585 216.904L203.601 216.871H205.842L205.834 216.92C205.585 218.913 204.157 220.191 201.775 220.191ZM211.409 220.191C208.595 220.191 206.901 218.406 206.901 215.435V215.418C206.901 212.471 208.62 210.662 211.409 210.662C214.198 210.662 215.916 212.463 215.916 215.418V215.435C215.916 218.415 214.223 220.191 211.409 220.191ZM211.409 218.29C212.695 218.29 213.434 217.236 213.434 215.435V215.418C213.434 213.633 212.687 212.562 211.409 212.562C210.122 212.562 209.383 213.633 209.383 215.418V215.435C209.383 217.236 210.114 218.29 211.409 218.29ZM217.498 220V210.861H219.922V212.289H220.071C220.461 211.259 221.408 210.662 222.603 210.662C223.848 210.662 224.77 211.292 225.143 212.347H225.293C225.708 211.334 226.77 210.662 228.048 210.662C229.866 210.662 231.003 211.84 231.003 213.725V220H228.58V214.331C228.58 213.227 228.082 212.67 227.069 212.67C226.089 212.67 225.459 213.393 225.459 214.38V220H223.035V214.223C223.035 213.243 222.479 212.67 221.532 212.67C220.586 212.67 219.922 213.442 219.922 214.488V220H217.498ZM236.977 220.191C234.196 220.191 232.511 218.373 232.511 215.443V215.435C232.511 212.529 234.212 210.662 236.877 210.662C239.541 210.662 241.202 212.488 241.202 215.252V216.007H234.91C234.935 217.51 235.74 218.381 237.026 218.381C238.089 218.381 238.678 217.817 238.844 217.468L238.869 217.418H241.127L241.11 217.501C240.828 218.647 239.649 220.191 236.977 220.191ZM236.918 212.479C235.864 212.479 235.084 213.193 234.935 214.488H238.877C238.728 213.16 237.973 212.479 236.918 212.479ZM248.018 209.458C247.271 209.458 246.648 208.86 246.648 208.113C246.648 207.358 247.271 206.76 248.018 206.76C248.765 206.76 249.379 207.358 249.379 208.113C249.379 208.86 248.765 209.458 248.018 209.458ZM246.798 220V210.861H249.222V220H246.798ZM251.268 220V210.861H253.692V212.272H253.842C254.257 211.284 255.161 210.662 256.465 210.662C258.498 210.662 259.594 211.907 259.594 214.09V220H257.17V214.638C257.17 213.351 256.639 212.67 255.493 212.67C254.373 212.67 253.692 213.476 253.692 214.712V220H251.268ZM263.691 220L260.512 210.861H263.11L265.003 217.734H265.152L267.028 210.861H269.576L266.414 220H263.691ZM274.454 220.191C271.673 220.191 269.988 218.373 269.988 215.443V215.435C269.988 212.529 271.69 210.662 274.354 210.662C277.019 210.662 278.679 212.488 278.679 215.252V216.007H272.387C272.412 217.51 273.217 218.381 274.504 218.381C275.566 218.381 276.156 217.817 276.322 217.468L276.346 217.418H278.604L278.588 217.501C278.305 218.647 277.127 220.191 274.454 220.191ZM274.396 212.479C273.342 212.479 272.561 213.193 272.412 214.488H276.355C276.205 213.16 275.45 212.479 274.396 212.479ZM283.905 220.191C281.423 220.191 280.012 219.079 279.838 217.51L279.829 217.477H282.212L282.228 217.51C282.419 218.074 282.975 218.481 283.93 218.481C284.86 218.481 285.49 218.083 285.49 217.477V217.46C285.49 216.97 285.125 216.663 284.196 216.456L282.668 216.132C280.925 215.758 280.062 214.903 280.062 213.534V213.525C280.062 211.807 281.589 210.662 283.872 210.662C286.271 210.662 287.599 211.857 287.698 213.326V213.359H285.449L285.441 213.318C285.308 212.828 284.768 212.372 283.863 212.372C283.025 212.372 282.427 212.762 282.427 213.376V213.384C282.427 213.874 282.768 214.156 283.714 214.364L285.233 214.688C287.059 215.078 287.914 215.841 287.914 217.194V217.203C287.914 219.012 286.246 220.191 283.905 220.191ZM293.248 220.033C291.024 220.033 290.127 219.311 290.127 217.535V212.687H288.716V210.861H290.127V208.678H292.576V210.861H294.46V212.687H292.576V216.979C292.576 217.8 292.924 218.166 293.746 218.166C294.062 218.166 294.228 218.149 294.46 218.124V219.925C294.161 219.983 293.713 220.033 293.248 220.033ZM300.035 220.191C297.254 220.191 295.569 218.373 295.569 215.443V215.435C295.569 212.529 297.271 210.662 299.935 210.662C302.6 210.662 304.26 212.488 304.26 215.252V216.007H297.968C297.993 217.51 298.798 218.381 300.085 218.381C301.147 218.381 301.736 217.817 301.902 217.468L301.927 217.418H304.185L304.169 217.501C303.886 218.647 302.708 220.191 300.035 220.191ZM299.977 212.479C298.922 212.479 298.142 213.193 297.993 214.488H301.936C301.786 213.16 301.031 212.479 299.977 212.479ZM309.112 220.141C306.83 220.141 305.402 218.356 305.402 215.435V215.418C305.402 212.479 306.796 210.711 309.112 210.711C310.366 210.711 311.387 211.326 311.843 212.322H311.993V207.366H314.417V220H311.993V218.581H311.843C311.37 219.568 310.399 220.141 309.112 220.141ZM309.934 218.132C311.221 218.132 312.018 217.12 312.018 215.443V215.426C312.018 213.75 311.212 212.72 309.934 212.72C308.656 212.72 307.867 213.75 307.867 215.418V215.435C307.867 217.12 308.656 218.132 309.934 218.132Z" fill="#9299A2"/>
<path d="M41.1697 240.84L38.5906 231.37H39.8244L41.7078 239.068H41.7866L43.9063 231.37H45.1006L47.2203 239.068H47.2991L49.1825 231.37H50.4163L47.8372 240.84H46.7216L44.5428 233.365H44.4641L42.2853 240.84H41.1697ZM51.8092 240.84V230.957H52.9511V234.829H53.0561C53.4105 234.08 54.0733 233.641 55.1167 233.641C56.7049 233.641 57.5908 234.579 57.5908 236.259V240.84H56.4489V236.535C56.4489 235.262 55.9239 234.651 54.7952 234.651C53.6664 234.651 52.9511 235.413 52.9511 236.653V240.84H51.8092ZM62.2191 240.965C60.1978 240.965 58.9772 239.547 58.9772 237.329V237.322C58.9772 235.137 60.2241 233.641 62.1469 233.641C64.0697 233.641 65.2378 235.071 65.2378 237.185V237.631H60.1453C60.1781 239.094 60.9853 239.947 62.2453 239.947C63.2035 239.947 63.7941 239.495 63.9844 239.068L64.0106 239.009H65.1525L65.1394 239.061C64.8966 240.02 63.886 240.965 62.2191 240.965ZM62.1403 234.658C61.0903 234.658 60.2897 235.373 60.165 236.719H64.0763C63.9581 235.321 63.1838 234.658 62.1403 234.658ZM66.6833 240.84V233.765H67.8252V234.829H67.9302C68.2846 234.08 68.9474 233.641 69.9908 233.641C71.5789 233.641 72.4649 234.579 72.4649 236.259V240.84H71.323V236.535C71.323 235.262 70.798 234.651 69.6692 234.651C68.5405 234.651 67.8252 235.413 67.8252 236.653V240.84H66.6833ZM78.263 232.4C77.8299 232.4 77.4755 232.046 77.4755 231.613C77.4755 231.18 77.8299 230.825 78.263 230.825C78.6961 230.825 79.0505 231.18 79.0505 231.613C79.0505 232.046 78.6961 232.4 78.263 232.4ZM77.6855 240.84V233.765H78.8274V240.84H77.6855ZM80.6535 240.84V233.765H81.7954V234.829H81.9004C82.2547 234.08 82.9175 233.641 83.961 233.641C85.5491 233.641 86.435 234.579 86.435 236.259V240.84H85.2932V236.535C85.2932 235.262 84.7682 234.651 83.6394 234.651C82.5107 234.651 81.7954 235.413 81.7954 236.653V240.84H80.6535ZM89.9149 240.84L87.2965 233.765H88.504L90.4399 239.593H90.5449L92.4808 233.765H93.6883L91.0699 240.84H89.9149ZM97.4963 240.965C95.4751 240.965 94.2544 239.547 94.2544 237.329V237.322C94.2544 235.137 95.5013 233.641 97.4241 233.641C99.3469 233.641 100.515 235.071 100.515 237.185V237.631H95.4226C95.4554 239.094 96.2626 239.947 97.5226 239.947C98.4807 239.947 99.0713 239.495 99.2616 239.068L99.2879 239.009H100.43L100.417 239.061C100.174 240.02 99.1632 240.965 97.4963 240.965ZM97.4176 234.658C96.3676 234.658 95.5669 235.373 95.4422 236.719H99.3535C99.2354 235.321 98.461 234.658 97.4176 234.658ZM104.389 240.965C102.814 240.965 101.731 240.203 101.6 239.035H102.768C102.958 239.626 103.522 240.013 104.428 240.013C105.38 240.013 106.056 239.56 106.056 238.917V238.904C106.056 238.425 105.695 238.09 104.822 237.88L103.726 237.618C102.4 237.303 101.803 236.725 101.803 235.708V235.701C101.803 234.527 102.932 233.641 104.435 233.641C105.918 233.641 106.948 234.382 107.106 235.537H105.983C105.832 234.98 105.281 234.592 104.428 234.592C103.588 234.592 102.971 235.025 102.971 235.649V235.662C102.971 236.141 103.326 236.443 104.159 236.646L105.248 236.909C106.581 237.23 107.224 237.808 107.224 238.819V238.832C107.224 240.092 105.996 240.965 104.389 240.965ZM111.117 240.892C109.66 240.892 109.05 240.354 109.05 239.002V234.71H107.934V233.765H109.05V231.935H110.231V233.765H111.78V234.71H110.231V238.714C110.231 239.547 110.52 239.882 111.255 239.882C111.458 239.882 111.57 239.875 111.78 239.855V240.827C111.557 240.866 111.34 240.892 111.117 240.892ZM113.763 232.4C113.33 232.4 112.976 232.046 112.976 231.613C112.976 231.18 113.33 230.825 113.763 230.825C114.196 230.825 114.551 231.18 114.551 231.613C114.551 232.046 114.196 232.4 113.763 232.4ZM113.186 240.84V233.765H114.328V240.84H113.186ZM116.154 240.84V233.765H117.296V234.829H117.401C117.755 234.08 118.418 233.641 119.461 233.641C121.049 233.641 121.935 234.579 121.935 236.259V240.84H120.794V236.535C120.794 235.262 120.269 234.651 119.14 234.651C118.011 234.651 117.296 235.413 117.296 236.653V240.84H116.154ZM126.59 243.334C124.884 243.334 123.794 242.566 123.617 241.404L123.63 241.398H124.811L124.818 241.404C124.943 241.942 125.573 242.323 126.59 242.323C127.856 242.323 128.611 241.726 128.611 240.682V239.252H128.506C128.06 240.033 127.259 240.472 126.288 240.472C124.457 240.472 123.322 239.055 123.322 237.073V237.06C123.322 235.078 124.464 233.641 126.314 233.641C127.312 233.641 128.086 234.133 128.519 234.934H128.598V233.765H129.74V240.741C129.74 242.323 128.519 243.334 126.59 243.334ZM126.537 239.462C127.85 239.462 128.637 238.477 128.637 237.073V237.06C128.637 235.655 127.843 234.651 126.537 234.651C125.225 234.651 124.49 235.655 124.49 237.06V237.073C124.49 238.477 125.225 239.462 126.537 239.462ZM138.222 240.997C136.214 240.997 134.783 239.869 134.783 238.28V238.267C134.783 237.099 135.604 236.128 136.818 235.846V235.82C135.781 235.498 135.125 234.71 135.125 233.713V233.7C135.125 232.269 136.431 231.213 138.222 231.213C140.014 231.213 141.32 232.269 141.32 233.7V233.713C141.32 234.71 140.663 235.498 139.627 235.82V235.846C140.841 236.128 141.661 237.099 141.661 238.267V238.28C141.661 239.869 140.23 240.997 138.222 240.997ZM138.222 235.38C139.364 235.38 140.145 234.73 140.145 233.811V233.798C140.145 232.88 139.364 232.23 138.222 232.23C137.08 232.23 136.299 232.88 136.299 233.798V233.811C136.299 234.73 137.08 235.38 138.222 235.38ZM138.222 239.967C139.528 239.967 140.46 239.232 140.46 238.208V238.195C140.46 237.158 139.535 236.417 138.222 236.417C136.91 236.417 135.984 237.158 135.984 238.195V238.208C135.984 239.232 136.916 239.967 138.222 239.967ZM142.503 243.248L143.074 239.514H144.379L143.349 243.248H142.503ZM150.379 240.84V238.878H145.766V237.801C147.046 235.655 148.496 233.345 149.822 231.37H151.534V237.821H152.88V238.878H151.534V240.84H150.379ZM146.973 237.828H150.386V232.466H150.307C149.244 234.054 148.004 236.01 146.973 237.749V237.828ZM154.378 240.84V240.026L157.58 236.561C158.788 235.255 159.142 234.763 159.142 233.936V233.923C159.142 232.925 158.466 232.177 157.35 232.177C156.215 232.177 155.46 232.919 155.46 234.035L155.454 234.048L154.325 234.041L154.312 234.035C154.319 232.355 155.618 231.147 157.429 231.147C159.083 231.147 160.349 232.269 160.349 233.798V233.811C160.349 234.894 159.884 235.682 158.171 237.447L156.018 239.672V239.777H160.507V240.84H154.378ZM165.332 241.063C163.239 241.063 161.992 239.153 161.992 236.108V236.095C161.992 233.05 163.239 231.147 165.332 231.147C167.426 231.147 168.686 233.05 168.686 236.095V236.108C168.686 239.153 167.426 241.063 165.332 241.063ZM165.332 240.033C166.691 240.033 167.498 238.523 167.498 236.108V236.095C167.498 233.68 166.691 232.184 165.332 232.184C163.974 232.184 163.18 233.68 163.18 236.095V236.108C163.18 238.523 163.974 240.033 165.332 240.033ZM173.322 239.357V238.569H174.635V237.309H173.322V236.522H174.635V231.567H177.634C179.412 231.567 180.554 232.781 180.554 234.435V234.448C180.554 236.121 179.399 237.309 177.621 237.309H175.816V238.569H178.539V239.357H175.816V240.643H174.635V239.357H173.322ZM175.816 236.259H177.325C178.677 236.259 179.34 235.577 179.34 234.448V234.435C179.34 233.313 178.684 232.617 177.325 232.617H175.816V236.259ZM188.262 240.965C186.247 240.965 185 239.573 185 237.309V237.296C185 235.025 186.247 233.641 188.262 233.641C190.277 233.641 191.523 235.025 191.523 237.296V237.309C191.523 239.573 190.277 240.965 188.262 240.965ZM188.262 239.954C189.601 239.954 190.355 238.976 190.355 237.309V237.296C190.355 235.623 189.601 234.651 188.262 234.651C186.923 234.651 186.168 235.623 186.168 237.296V237.309C186.168 238.976 186.923 239.954 188.262 239.954ZM192.969 240.84V233.765H194.111V234.815H194.216C194.485 234.074 195.148 233.641 196.106 233.641C196.322 233.641 196.565 233.667 196.677 233.687V234.796C196.44 234.756 196.224 234.73 195.975 234.73C194.885 234.73 194.111 235.419 194.111 236.456V240.84H192.969ZM201.28 240.84V230.957H202.422V240.84H201.28ZM207.175 240.965C205.154 240.965 203.933 239.547 203.933 237.329V237.322C203.933 235.137 205.18 233.641 207.103 233.641C209.026 233.641 210.194 235.071 210.194 237.185V237.631H205.102C205.134 239.094 205.942 239.947 207.202 239.947C208.16 239.947 208.75 239.495 208.941 239.068L208.967 239.009H210.109L210.096 239.061C209.853 240.02 208.842 240.965 207.175 240.965ZM207.097 234.658C206.047 234.658 205.246 235.373 205.121 236.719H209.033C208.914 235.321 208.14 234.658 207.097 234.658ZM214.068 240.965C212.493 240.965 211.41 240.203 211.279 239.035H212.447C212.637 239.626 213.201 240.013 214.107 240.013C215.059 240.013 215.735 239.56 215.735 238.917V238.904C215.735 238.425 215.374 238.09 214.501 237.88L213.405 237.618C212.079 237.303 211.482 236.725 211.482 235.708V235.701C211.482 234.527 212.611 233.641 214.114 233.641C215.597 233.641 216.627 234.382 216.785 235.537H215.662C215.511 234.98 214.96 234.592 214.107 234.592C213.267 234.592 212.65 235.025 212.65 235.649V235.662C212.65 236.141 213.005 236.443 213.838 236.646L214.927 236.909C216.26 237.23 216.903 237.808 216.903 238.819V238.832C216.903 240.092 215.675 240.965 214.068 240.965ZM220.645 240.965C219.07 240.965 217.987 240.203 217.856 239.035H219.024C219.214 239.626 219.779 240.013 220.684 240.013C221.636 240.013 222.312 239.56 222.312 238.917V238.904C222.312 238.425 221.951 238.09 221.078 237.88L219.982 237.618C218.657 237.303 218.059 236.725 218.059 235.708V235.701C218.059 234.527 219.188 233.641 220.691 233.641C222.174 233.641 223.204 234.382 223.362 235.537H222.24C222.089 234.98 221.538 234.592 220.684 234.592C219.844 234.592 219.228 235.025 219.228 235.649V235.662C219.228 236.141 219.582 236.443 220.415 236.646L221.505 236.909C222.837 237.23 223.48 237.808 223.48 238.819V238.832C223.48 240.092 222.253 240.965 220.645 240.965ZM230.893 240.892C229.436 240.892 228.825 240.354 228.825 239.002V234.71H227.71V233.765H228.825V231.935H230.007V233.765H231.555V234.71H230.007V238.714C230.007 239.547 230.295 239.882 231.03 239.882C231.234 239.882 231.345 239.875 231.555 239.855V240.827C231.332 240.866 231.116 240.892 230.893 240.892ZM235.737 240.965C233.723 240.965 232.476 239.573 232.476 237.309V237.296C232.476 235.025 233.723 233.641 235.737 233.641C237.752 233.641 238.999 235.025 238.999 237.296V237.309C238.999 239.573 237.752 240.965 235.737 240.965ZM235.737 239.954C237.076 239.954 237.831 238.976 237.831 237.309V237.296C237.831 235.623 237.076 234.651 235.737 234.651C234.399 234.651 233.644 235.623 233.644 237.296V237.309C233.644 238.976 234.399 239.954 235.737 239.954ZM245.841 240.965C244.495 240.965 243.478 240.151 243.478 238.865V238.851C243.478 237.591 244.41 236.863 246.057 236.765L248.085 236.64V235.997C248.085 235.124 247.553 234.651 246.497 234.651C245.65 234.651 245.092 234.966 244.909 235.518L244.902 235.537H243.76L243.767 235.498C243.951 234.389 245.027 233.641 246.536 233.641C248.262 233.641 249.227 234.527 249.227 235.997V240.84H248.085V239.796H247.98C247.534 240.551 246.792 240.965 245.841 240.965ZM244.646 238.838C244.646 239.554 245.256 239.974 246.077 239.974C247.238 239.974 248.085 239.212 248.085 238.202V237.559L246.195 237.677C245.119 237.742 244.646 238.123 244.646 238.825V238.838ZM257.958 240.965C256.974 240.965 256.186 240.499 255.753 239.711H255.648V240.84H254.506V230.957H255.648V234.881H255.753C256.141 234.126 256.987 233.641 257.958 233.641C259.756 233.641 260.925 235.078 260.925 237.296V237.309C260.925 239.514 259.75 240.965 257.958 240.965ZM257.696 239.954C258.989 239.954 259.756 238.956 259.756 237.309V237.296C259.756 235.649 258.989 234.651 257.696 234.651C256.41 234.651 255.622 235.662 255.622 237.296V237.309C255.622 238.943 256.41 239.954 257.696 239.954ZM262.37 240.84V233.765H263.512V234.815H263.617C263.886 234.074 264.549 233.641 265.507 233.641C265.724 233.641 265.966 233.667 266.078 233.687V234.796C265.842 234.756 265.625 234.73 265.376 234.73C264.286 234.73 263.512 235.419 263.512 236.456V240.84H262.37ZM269.873 240.965C267.858 240.965 266.611 239.573 266.611 237.309V237.296C266.611 235.025 267.858 233.641 269.873 233.641C271.887 233.641 273.134 235.025 273.134 237.296V237.309C273.134 239.573 271.887 240.965 269.873 240.965ZM269.873 239.954C271.211 239.954 271.966 238.976 271.966 237.309V237.296C271.966 235.623 271.211 234.651 269.873 234.651C268.534 234.651 267.779 235.623 267.779 237.296V237.309C267.779 238.976 268.534 239.954 269.873 239.954ZM274.645 240.84V230.957H275.787V236.856H275.892L278.95 233.765H280.335L277.251 236.738L280.539 240.84H279.101L276.45 237.513L275.787 238.156V240.84H274.645ZM284.11 240.965C282.089 240.965 280.868 239.547 280.868 237.329V237.322C280.868 235.137 282.115 233.641 284.038 233.641C285.961 233.641 287.129 235.071 287.129 237.185V237.631H282.037C282.069 239.094 282.877 239.947 284.137 239.947C285.095 239.947 285.685 239.495 285.876 239.068L285.902 239.009H287.044L287.031 239.061C286.788 240.02 285.777 240.965 284.11 240.965ZM284.032 234.658C282.982 234.658 282.181 235.373 282.056 236.719H285.967C285.849 235.321 285.075 234.658 284.032 234.658ZM288.574 240.84V233.765H289.716V234.815H289.821C290.09 234.074 290.753 233.641 291.711 233.641C291.928 233.641 292.171 233.667 292.282 233.687V234.796C292.046 234.756 291.829 234.73 291.58 234.73C290.491 234.73 289.716 235.419 289.716 236.456V240.84H288.574ZM295.309 240.965C293.964 240.965 292.947 240.151 292.947 238.865V238.851C292.947 237.591 293.879 236.863 295.526 236.765L297.554 236.64V235.997C297.554 235.124 297.022 234.651 295.966 234.651C295.119 234.651 294.561 234.966 294.377 235.518L294.371 235.537H293.229L293.236 235.498C293.419 234.389 294.496 233.641 296.005 233.641C297.731 233.641 298.696 234.527 298.696 235.997V240.84H297.554V239.796H297.449C297.002 240.551 296.261 240.965 295.309 240.965ZM294.115 238.838C294.115 239.554 294.725 239.974 295.546 239.974C296.707 239.974 297.554 239.212 297.554 238.202V237.559L295.664 237.677C294.587 237.742 294.115 238.123 294.115 238.825V238.838ZM303.37 243.334C301.664 243.334 300.574 242.566 300.397 241.404L300.41 241.398H301.591L301.598 241.404C301.723 241.942 302.353 242.323 303.37 242.323C304.636 242.323 305.391 241.726 305.391 240.682V239.252H305.286C304.84 240.033 304.039 240.472 303.068 240.472C301.237 240.472 300.102 239.055 300.102 237.073V237.06C300.102 235.078 301.244 233.641 303.094 233.641C304.092 233.641 304.866 234.133 305.299 234.934H305.378V233.765H306.52V240.741C306.52 242.323 305.299 243.334 303.37 243.334ZM303.317 239.462C304.63 239.462 305.417 238.477 305.417 237.073V237.06C305.417 235.655 304.623 234.651 303.317 234.651C302.005 234.651 301.27 235.655 301.27 237.06V237.073C301.27 238.477 302.005 239.462 303.317 239.462ZM311.207 240.965C309.186 240.965 307.965 239.547 307.965 237.329V237.322C307.965 235.137 309.212 233.641 311.135 233.641C313.058 233.641 314.226 235.071 314.226 237.185V237.631H309.133C309.166 239.094 309.973 239.947 311.233 239.947C312.192 239.947 312.782 239.495 312.972 239.068L312.999 239.009H314.141L314.127 239.061C313.885 240.02 312.874 240.965 311.207 240.965ZM311.128 234.658C310.078 234.658 309.278 235.373 309.153 236.719H313.064C312.946 235.321 312.172 234.658 311.128 234.658ZM41.0056 256.965C39.6603 256.965 38.6431 256.151 38.6431 254.865V254.851C38.6431 253.591 39.575 252.863 41.2222 252.765L43.25 252.64V251.997C43.25 251.124 42.7184 250.651 41.6619 250.651C40.8153 250.651 40.2575 250.966 40.0738 251.518L40.0672 251.537H38.9253L38.9319 251.498C39.1156 250.389 40.1919 249.641 41.7013 249.641C43.4272 249.641 44.3919 250.527 44.3919 251.997V256.84H43.25V255.796H43.145C42.6988 256.551 41.9572 256.965 41.0056 256.965ZM39.8113 254.838C39.8113 255.554 40.4216 255.974 41.2419 255.974C42.4034 255.974 43.25 255.212 43.25 254.202V253.559L41.36 253.677C40.2838 253.742 39.8113 254.123 39.8113 254.825V254.838ZM49.0464 256.965C47.0645 256.965 45.798 255.527 45.798 253.283V253.27C45.798 251.071 47.058 249.641 49.0399 249.641C50.7592 249.641 51.7895 250.632 51.9995 251.892L52.0061 251.931H50.8708L50.8642 251.911C50.687 251.216 50.057 250.651 49.0399 250.651C47.7667 250.651 46.9661 251.675 46.9661 253.27V253.283C46.9661 254.91 47.7799 255.954 49.0399 255.954C49.9914 255.954 50.5952 255.534 50.8577 254.746L50.8708 254.707L51.9995 254.7L51.9864 254.773C51.6977 256.052 50.7461 256.965 49.0464 256.965ZM56.2406 256.965C54.2588 256.965 52.9922 255.527 52.9922 253.283V253.27C52.9922 251.071 54.2522 249.641 56.2341 249.641C57.9535 249.641 58.9838 250.632 59.1938 251.892L59.2003 251.931H58.065L58.0585 251.911C57.8813 251.216 57.2513 250.651 56.2341 250.651C54.961 250.651 54.1603 251.675 54.1603 253.27V253.283C54.1603 254.91 54.9741 255.954 56.2341 255.954C57.1856 255.954 57.7894 255.534 58.0519 254.746L58.065 254.707L59.1938 254.7L59.1806 254.773C58.8919 256.052 57.9403 256.965 56.2406 256.965ZM63.448 256.965C61.4333 256.965 60.1864 255.573 60.1864 253.309V253.296C60.1864 251.025 61.4333 249.641 63.448 249.641C65.4627 249.641 66.7095 251.025 66.7095 253.296V253.309C66.7095 255.573 65.4627 256.965 63.448 256.965ZM63.448 255.954C64.7867 255.954 65.5414 254.976 65.5414 253.309V253.296C65.5414 251.623 64.7867 250.651 63.448 250.651C62.1092 250.651 61.3545 251.623 61.3545 253.296V253.309C61.3545 254.976 62.1092 255.954 63.448 255.954ZM70.5241 256.965C68.9163 256.965 68.0894 256.02 68.0894 254.346V249.765H69.2313V254.07C69.2313 255.344 69.6906 255.954 70.8194 255.954C72.0663 255.954 72.7291 255.193 72.7291 253.952V249.765H73.871V256.84H72.7291V255.783H72.6241C72.2763 256.538 71.561 256.965 70.5241 256.965ZM75.6774 256.84V249.765H76.8193V250.829H76.9243C77.2786 250.08 77.9414 249.641 78.9849 249.641C80.573 249.641 81.4589 250.579 81.4589 252.259V256.84H80.3171V252.535C80.3171 251.262 79.7921 250.651 78.6633 250.651C77.5346 250.651 76.8193 251.413 76.8193 252.653V256.84H75.6774ZM85.7132 256.892C84.2563 256.892 83.646 256.354 83.646 255.002V250.71H82.5304V249.765H83.646V247.935H84.8272V249.765H86.376V250.71H84.8272V254.714C84.8272 255.547 85.116 255.882 85.851 255.882C86.0544 255.882 86.166 255.875 86.376 255.855V256.827C86.1529 256.866 85.9363 256.892 85.7132 256.892ZM88.6877 256.905C88.2218 256.905 87.8346 256.518 87.8346 256.052C87.8346 255.58 88.2218 255.199 88.6877 255.199C89.1602 255.199 89.5408 255.58 89.5408 256.052C89.5408 256.518 89.1602 256.905 88.6877 256.905Z" fill="#9299A2"/>
</g>
</g>
<defs>
<filter id="filter0_d_2048_27922" x="-32.64" y="-26.88" width="425.28" height="535.28" filterUnits="userSpaceOnUse" color-interpolation-filters="sRGB">
<feFlood flood-opacity="0" result="BackgroundImageFix"/>
<feColorMatrix in="SourceAlpha" type="matrix" values="0 0 0 0 0 0 0 0 0 0 0 0 0 0 0 0 0 0 127 0" result="hardAlpha"/>
<feOffset dy="5.76"/>
<feGaussianBlur stdDeviation="16.32"/>
<feColorMatrix type="matrix" values="0 0 0 0 0 0 0 0 0 0 0 0 0 0 0 0 0 0 0.12 0"/>
<feBlend mode="normal" in2="BackgroundImageFix" result="effect1_dropShadow_2048_27922"/>
<feBlend mode="normal" in="SourceGraphic" in2="effect1_dropShadow_2048_27922" result="shape"/>
</filter>
<clipPath id="clip0_2048_27922">
<rect width="360" height="294" fill="white"/>
</clipPath>
</defs>
</svg>
