<svg width="360" height="290" viewBox="0 0 360 290" fill="none" xmlns="http://www.w3.org/2000/svg">
<g clip-path="url(#clip0_2048_27546)">
<g filter="url(#filter0_d_2048_27546)">
<path d="M0 18.432C0 11.9802 0 8.75429 1.2556 6.29003C2.36007 4.1224 4.1224 2.36007 6.29003 1.2556C8.75429 0 11.9802 0 18.432 0H341.568C348.02 0 351.246 0 353.71 1.2556C355.878 2.36007 357.64 4.1224 358.744 6.29003C360 8.75429 360 11.9802 360 18.432V470H0V18.432Z" fill="white"/>
<path d="M0 18.432C0 11.9802 0 8.75429 1.2556 6.29003C2.36007 4.1224 4.1224 2.36007 6.29003 1.2556C8.75429 0 11.9802 0 18.432 0H341.568C348.02 0 351.246 0 353.71 1.2556C355.878 2.36007 357.64 4.1224 358.744 6.29003C360 8.75429 360 11.9802 360 18.432V23.04H0V18.432Z" fill="white"/>
<rect x="164.641" y="9.59961" width="30.72" height="3.84" rx="1.92" fill="#001024" fill-opacity="0.22"/>
<rect width="360" height="267.4" transform="translate(0 23.04)" fill="white"/>
<rect opacity="0.4" x="18" y="38.4004" width="5" height="60" rx="2.5" fill="#00C950"/>
<path d="M39.4526 62.4805V50.5024H42.3247L45.6367 59.2681H45.7861L49.0898 50.5024H51.9619V62.4805H49.729V54.3291H49.563L46.4917 62.4805H44.9229L41.8516 54.3291H41.6855V62.4805H39.4526ZM58.3002 62.6714C55.4863 62.6714 53.7929 60.8867 53.7929 57.915V57.8984C53.7929 54.9517 55.5112 53.1421 58.3002 53.1421C61.0893 53.1421 62.8076 54.9434 62.8076 57.8984V57.915C62.8076 60.895 61.1142 62.6714 58.3002 62.6714ZM58.3002 60.7705C59.5869 60.7705 60.3256 59.7163 60.3256 57.915V57.8984C60.3256 56.1138 59.5786 55.043 58.3002 55.043C57.0136 55.043 56.2749 56.1138 56.2749 57.8984V57.915C56.2749 59.7163 57.0053 60.7705 58.3002 60.7705ZM64.3896 62.4805V53.3413H66.8134V54.7607H66.9628C67.2533 53.7729 68.0834 53.1919 69.2704 53.1919C69.5941 53.1919 69.9345 53.2417 70.1752 53.3081V55.4248C69.81 55.3418 69.4364 55.2837 69.0629 55.2837C67.685 55.2837 66.8134 56.0723 66.8134 57.3672V62.4805H64.3896ZM75.202 62.6714C72.4213 62.6714 70.7362 60.8535 70.7362 57.9233V57.915C70.7362 55.0098 72.4379 53.1421 75.1024 53.1421C77.767 53.1421 79.4271 54.9683 79.4271 57.7324V58.4878H73.1351C73.16 59.9902 73.9652 60.8618 75.2518 60.8618C76.3143 60.8618 76.9037 60.2974 77.0697 59.9487L77.0946 59.8989H79.3524L79.3358 59.9819C79.0536 61.1274 77.8749 62.6714 75.202 62.6714ZM75.1439 54.96C74.0897 54.96 73.3094 55.6738 73.16 56.9688H77.1029C76.9535 55.6406 76.1981 54.96 75.1439 54.96ZM88.8001 62.5137C86.5755 62.5137 85.679 61.7915 85.679 60.0151V55.1675H84.2678V53.3413H85.679V51.1582H88.1277V53.3413H90.012V55.1675H88.1277V59.459C88.1277 60.2808 88.4763 60.646 89.2981 60.646C89.6135 60.646 89.7796 60.6294 90.012 60.6045V62.4058C89.7132 62.4639 89.2649 62.5137 88.8001 62.5137ZM91.7185 62.4805V49.8467H94.1423V54.7524H94.2917C94.7068 53.7646 95.6115 53.1421 96.9148 53.1421C98.9485 53.1421 100.044 54.3872 100.044 56.5703V62.4805H97.6203V57.1182C97.6203 55.8315 97.0891 55.1509 95.9436 55.1509C94.823 55.1509 94.1423 55.9561 94.1423 57.1929V62.4805H91.7185ZM104.49 62.6216C102.747 62.6216 101.51 61.5425 101.51 59.8823V59.8657C101.51 58.2222 102.78 57.2593 105.054 57.1265L107.262 56.9937V56.2383C107.262 55.4497 106.723 55.0015 105.727 55.0015C104.855 55.0015 104.299 55.3086 104.108 55.8481L104.091 55.8813H101.85L101.859 55.8066C102.049 54.2046 103.56 53.1421 105.86 53.1421C108.283 53.1421 109.653 54.2876 109.653 56.2383V62.4805H107.262V61.2686H107.113C106.648 62.1152 105.685 62.6216 104.49 62.6216ZM103.876 59.7329C103.876 60.4302 104.465 60.8535 105.303 60.8535C106.424 60.8535 107.262 60.1147 107.262 59.1519V58.4795L105.42 58.5957C104.382 58.6621 103.876 59.0522 103.876 59.7163V59.7329ZM111.633 62.4805V53.3413H114.057V54.7524H114.207C114.622 53.7646 115.526 53.1421 116.83 53.1421C118.863 53.1421 119.959 54.3872 119.959 56.5703V62.4805H117.535V57.1182C117.535 55.8315 117.004 55.1509 115.859 55.1509C114.738 55.1509 114.057 55.9561 114.057 57.1929V62.4805H111.633ZM130.444 62.7876C127.879 62.7876 126.186 61.2603 126.045 59.2598L126.037 59.1436H128.311L128.328 59.2017C128.502 60.0815 129.324 60.7871 130.453 60.7871C131.739 60.7871 132.636 59.8823 132.636 58.5957V58.5791C132.636 57.3008 131.731 56.4126 130.461 56.4126C129.855 56.4126 129.34 56.5869 128.942 56.9272C128.718 57.1099 128.519 57.334 128.386 57.5913H126.236L126.792 50.5024H134.279V52.4946H128.743L128.444 55.9062H128.593C129.075 55.1011 130.004 54.603 131.15 54.603C133.383 54.603 134.993 56.2466 134.993 58.5293V58.5459C134.993 61.0693 133.134 62.7876 130.444 62.7876ZM141.406 62.7876C138.451 62.7876 136.65 60.3638 136.65 56.4956V56.479C136.65 52.6025 138.451 50.1953 141.406 50.1953C144.37 50.1953 146.163 52.6025 146.163 56.479V56.4956C146.163 60.3638 144.37 62.7876 141.406 62.7876ZM141.406 60.8037C142.826 60.8037 143.631 59.2017 143.631 56.4956V56.479C143.631 53.7646 142.826 52.1792 141.406 52.1792C139.995 52.1792 139.19 53.7646 139.19 56.479V56.4956C139.19 59.2017 139.995 60.8037 141.406 60.8037ZM150.725 57.0684C148.973 57.0684 147.894 55.7734 147.894 53.6982V53.6899C147.894 51.6147 148.973 50.3281 150.725 50.3281C152.484 50.3281 153.555 51.6147 153.555 53.6899V53.6982C153.555 55.7734 152.484 57.0684 150.725 57.0684ZM152.567 62.4805H150.65L158.71 50.5024H160.627L152.567 62.4805ZM150.725 55.7402C151.455 55.7402 151.862 55.0015 151.862 53.6982V53.6899C151.862 52.3784 151.455 51.6562 150.725 51.6562C150.002 51.6562 149.596 52.3784 149.596 53.6899V53.6982C149.596 55.0015 150.002 55.7402 150.725 55.7402ZM160.544 62.6548C158.793 62.6548 157.714 61.3599 157.714 59.2847V59.2764C157.714 57.2012 158.793 55.9146 160.544 55.9146C162.304 55.9146 163.375 57.2012 163.375 59.2764V59.2847C163.375 61.3599 162.304 62.6548 160.544 62.6548ZM160.544 61.3267C161.275 61.3267 161.682 60.5879 161.682 59.2847V59.2764C161.682 57.9648 161.275 57.2427 160.544 57.2427C159.822 57.2427 159.415 57.9648 159.415 59.2764V59.2847C159.415 60.5879 159.822 61.3267 160.544 61.3267ZM173.312 62.6714C170.498 62.6714 168.805 60.8867 168.805 57.915V57.8984C168.805 54.9517 170.523 53.1421 173.312 53.1421C176.101 53.1421 177.82 54.9434 177.82 57.8984V57.915C177.82 60.895 176.126 62.6714 173.312 62.6714ZM173.312 60.7705C174.599 60.7705 175.338 59.7163 175.338 57.915V57.8984C175.338 56.1138 174.591 55.043 173.312 55.043C172.026 55.043 171.287 56.1138 171.287 57.8984V57.915C171.287 59.7163 172.017 60.7705 173.312 60.7705ZM180.107 62.4805V55.1675H178.63V53.3413H180.107V52.4863C180.107 50.6685 181.037 49.7554 183.245 49.7554C183.735 49.7554 184.141 49.7886 184.49 49.8467V51.4653C184.341 51.4404 184.083 51.4155 183.768 51.4155C182.83 51.4155 182.481 51.8555 182.481 52.6523V53.3413H184.415V55.1675H182.531V62.4805H180.107ZM191.174 51.9385C190.426 51.9385 189.804 51.3408 189.804 50.5938C189.804 49.8384 190.426 49.2407 191.174 49.2407C191.921 49.2407 192.535 49.8384 192.535 50.5938C192.535 51.3408 191.921 51.9385 191.174 51.9385ZM189.953 62.4805V53.3413H192.377V62.4805H189.953ZM194.424 62.4805V53.3413H196.848V54.7524H196.997C197.412 53.7646 198.317 53.1421 199.62 53.1421C201.654 53.1421 202.75 54.3872 202.75 56.5703V62.4805H200.326V57.1182C200.326 55.8315 199.795 55.1509 198.649 55.1509C197.528 55.1509 196.848 55.9561 196.848 57.1929V62.4805H194.424ZM208.731 62.6714C205.876 62.6714 204.257 60.9365 204.257 57.8984V57.8818C204.257 54.877 205.867 53.1421 208.731 53.1421C211.155 53.1421 212.591 54.4619 212.807 56.5039V56.5288H210.549L210.541 56.5122C210.383 55.624 209.777 55.043 208.739 55.043C207.436 55.043 206.722 56.0557 206.722 57.8818V57.8984C206.722 59.7495 207.444 60.7705 208.739 60.7705C209.735 60.7705 210.325 60.2974 210.541 59.3843L210.557 59.3511H212.798L212.79 59.4009C212.541 61.3931 211.113 62.6714 208.731 62.6714ZM218.365 62.6714C215.551 62.6714 213.857 60.8867 213.857 57.915V57.8984C213.857 54.9517 215.576 53.1421 218.365 53.1421C221.154 53.1421 222.872 54.9434 222.872 57.8984V57.915C222.872 60.895 221.179 62.6714 218.365 62.6714ZM218.365 60.7705C219.651 60.7705 220.39 59.7163 220.39 57.915V57.8984C220.39 56.1138 219.643 55.043 218.365 55.043C217.078 55.043 216.339 56.1138 216.339 57.8984V57.915C216.339 59.7163 217.07 60.7705 218.365 60.7705ZM224.454 62.4805V53.3413H226.878V54.769H227.027C227.418 53.7397 228.364 53.1421 229.559 53.1421C230.804 53.1421 231.726 53.7729 232.099 54.8271H232.249C232.664 53.8145 233.726 53.1421 235.004 53.1421C236.822 53.1421 237.96 54.3208 237.96 56.2051V62.4805H235.536V56.811C235.536 55.707 235.038 55.1509 234.025 55.1509C233.045 55.1509 232.415 55.873 232.415 56.8608V62.4805H229.991V56.7031C229.991 55.7236 229.435 55.1509 228.488 55.1509C227.542 55.1509 226.878 55.9229 226.878 56.9688V62.4805H224.454ZM243.933 62.6714C241.152 62.6714 239.467 60.8535 239.467 57.9233V57.915C239.467 55.0098 241.168 53.1421 243.833 53.1421C246.498 53.1421 248.158 54.9683 248.158 57.7324V58.4878H241.866C241.891 59.9902 242.696 60.8618 243.982 60.8618C245.045 60.8618 245.634 60.2974 245.8 59.9487L245.825 59.8989H248.083L248.066 59.9819C247.784 61.1274 246.605 62.6714 243.933 62.6714ZM243.874 54.96C242.82 54.96 242.04 55.6738 241.891 56.9688H245.833C245.684 55.6406 244.929 54.96 243.874 54.96ZM255.472 62.4805L253.032 53.3413H255.48L256.842 59.957H256.991L258.593 53.3413H260.901L262.511 59.957H262.661L264.022 53.3413H266.421L263.989 62.4805H261.415L259.78 56.1055H259.631L258.012 62.4805H255.472ZM271.431 62.6714C268.617 62.6714 266.924 60.8867 266.924 57.915V57.8984C266.924 54.9517 268.642 53.1421 271.431 53.1421C274.22 53.1421 275.938 54.9434 275.938 57.8984V57.915C275.938 60.895 274.245 62.6714 271.431 62.6714ZM271.431 60.7705C272.718 60.7705 273.456 59.7163 273.456 57.915V57.8984C273.456 56.1138 272.709 55.043 271.431 55.043C270.144 55.043 269.406 56.1138 269.406 57.8984V57.915C269.406 59.7163 270.136 60.7705 271.431 60.7705ZM280.542 62.6714C278.492 62.6714 277.437 61.4263 277.437 59.2515V53.3413H279.861V58.6953C279.861 59.9902 280.351 60.6626 281.496 60.6626C282.692 60.6626 283.339 59.8574 283.339 58.6206V53.3413H285.763V62.4805H283.339V61.0693H283.19C282.775 62.0654 281.845 62.6714 280.542 62.6714ZM287.885 62.4805V49.8467H290.308V62.4805H287.885ZM295.684 62.6216C293.401 62.6216 291.973 60.8369 291.973 57.915V57.8984C291.973 54.96 293.368 53.1919 295.684 53.1919C296.937 53.1919 297.958 53.8062 298.415 54.8022H298.564V49.8467H300.988V62.4805H298.564V61.061H298.415C297.942 62.0488 296.97 62.6216 295.684 62.6216ZM296.506 60.6128C297.792 60.6128 298.589 59.6001 298.589 57.9233V57.9067C298.589 56.23 297.784 55.2007 296.506 55.2007C295.227 55.2007 294.439 56.23 294.439 57.8984V57.915C294.439 59.6001 295.227 60.6128 296.506 60.6128ZM307.173 62.4805V49.8467H309.597V62.4805H307.173ZM315.728 62.6714C312.947 62.6714 311.262 60.8535 311.262 57.9233V57.915C311.262 55.0098 312.964 53.1421 315.628 53.1421C318.293 53.1421 319.953 54.9683 319.953 57.7324V58.4878H313.661C313.686 59.9902 314.491 60.8618 315.778 60.8618C316.84 60.8618 317.43 60.2974 317.596 59.9487L317.621 59.8989H319.878L319.862 59.9819C319.58 61.1274 318.401 62.6714 315.728 62.6714ZM315.67 54.96C314.616 54.96 313.836 55.6738 313.686 56.9688H317.629C317.48 55.6406 316.724 54.96 315.67 54.96ZM322.249 62.4805V55.1675H320.771V53.3413H322.249V52.4863C322.249 50.6685 323.179 49.7554 325.387 49.7554C325.876 49.7554 326.283 49.7886 326.632 49.8467V51.4653C326.482 51.4404 326.225 51.4155 325.91 51.4155C324.972 51.4155 324.623 51.8555 324.623 52.6523V53.3413H326.557V55.1675H324.673V62.4805H322.249ZM331.966 62.5137C329.741 62.5137 328.845 61.7915 328.845 60.0151V55.1675H327.434V53.3413H328.845V51.1582H331.293V53.3413H333.178V55.1675H331.293V59.459C331.293 60.2808 331.642 60.646 332.464 60.646C332.779 60.646 332.945 60.6294 333.178 60.6045V62.4058C332.879 62.4639 332.431 62.5137 331.966 62.5137Z" fill="#9299A2"/>
<path d="M39.2075 83.3203V73.8506H40.3888V83.3203H39.2075ZM42.9015 83.3203V77.1909H41.7268V76.2459H42.9015V75.4584C42.9015 74.0475 43.6102 73.3716 44.9555 73.3716C45.2312 73.3716 45.4805 73.3912 45.7168 73.4372V74.3494C45.579 74.3231 45.3887 74.3166 45.1852 74.3166C44.3715 74.3166 44.0434 74.7169 44.0434 75.4912V76.2459H45.6512V77.1909H44.0434V83.3203H42.9015ZM51.2213 85.8009C51.0704 85.8009 50.8735 85.7878 50.716 85.7616V84.8231C50.8538 84.8494 51.031 84.8559 51.1885 84.8559C51.8382 84.8559 52.2319 84.5606 52.4879 83.7469L52.6191 83.3269L50.0007 76.2459H51.2213L53.1638 82.0669H53.2688L55.2047 76.2459H56.4057L53.6429 83.7534C53.0588 85.3416 52.4747 85.8009 51.2213 85.8009ZM60.3293 83.445C58.3147 83.445 57.0678 82.0537 57.0678 79.7897V79.7766C57.0678 77.5059 58.3147 76.1212 60.3293 76.1212C62.344 76.1212 63.5909 77.5059 63.5909 79.7766V79.7897C63.5909 82.0537 62.344 83.445 60.3293 83.445ZM60.3293 82.4344C61.6681 82.4344 62.4228 81.4566 62.4228 79.7897V79.7766C62.4228 78.1031 61.6681 77.1319 60.3293 77.1319C58.9906 77.1319 58.2359 78.1031 58.2359 79.7766V79.7897C58.2359 81.4566 58.9906 82.4344 60.3293 82.4344ZM67.5014 83.445C65.8936 83.445 65.0668 82.5 65.0668 80.8266V76.2459H66.2086V80.5509C66.2086 81.8241 66.668 82.4344 67.7968 82.4344C69.0436 82.4344 69.7064 81.6731 69.7064 80.4328V76.2459H70.8483V83.3203H69.7064V82.2637H69.6014C69.2536 83.0184 68.5383 83.445 67.5014 83.445ZM76.366 83.3203V73.4372H77.5078V83.3203H76.366ZM82.3568 83.445C80.3356 83.445 79.1149 82.0275 79.1149 79.8094V79.8028C79.1149 77.6175 80.3618 76.1212 82.2846 76.1212C84.2074 76.1212 85.3756 77.5519 85.3756 79.665V80.1112H80.2831C80.3159 81.5747 81.1231 82.4278 82.3831 82.4278C83.3412 82.4278 83.9318 81.975 84.1221 81.5484L84.1484 81.4894H85.2902L85.2771 81.5419C85.0343 82.5 84.0237 83.445 82.3568 83.445ZM82.2781 77.1384C81.2281 77.1384 80.4274 77.8537 80.3027 79.1991H84.214C84.0959 77.8012 83.3215 77.1384 82.2781 77.1384ZM87.3895 83.3203V77.1909H86.2148V76.2459H87.3895V75.4584C87.3895 74.0475 88.0983 73.3716 89.4436 73.3716C89.7192 73.3716 89.9686 73.3912 90.2048 73.4372V74.3494C90.067 74.3231 89.8767 74.3166 89.6733 74.3166C88.8595 74.3166 88.5314 74.7169 88.5314 75.4912V76.2459H90.1392V77.1909H88.5314V83.3203H87.3895ZM94.0694 83.3728C92.6126 83.3728 92.0023 82.8347 92.0023 81.4828V77.1909H90.8866V76.2459H92.0023V74.415H93.1835V76.2459H94.7323V77.1909H93.1835V81.1941C93.1835 82.0275 93.4723 82.3622 94.2073 82.3622C94.4107 82.3622 94.5223 82.3556 94.7323 82.3359V83.3072C94.5091 83.3466 94.2926 83.3728 94.0694 83.3728ZM99.7577 83.3203V76.2459H100.9V77.3222H101.005C101.32 76.5609 101.989 76.1212 102.914 76.1212C103.872 76.1212 104.542 76.6266 104.87 77.3616H104.975C105.356 76.6134 106.163 76.1212 107.141 76.1212C108.584 76.1212 109.391 76.9481 109.391 78.4312V83.3203H108.25V78.6937C108.25 77.6503 107.771 77.1319 106.773 77.1319C105.789 77.1319 105.139 77.8734 105.139 78.7725V83.3203H103.997V78.5166C103.997 77.6766 103.42 77.1319 102.527 77.1319C101.602 77.1319 100.9 77.9391 100.9 78.9366V83.3203H99.7577ZM114.129 83.445C112.114 83.445 110.867 82.0537 110.867 79.7897V79.7766C110.867 77.5059 112.114 76.1212 114.129 76.1212C116.144 76.1212 117.39 77.5059 117.39 79.7766V79.7897C117.39 82.0537 116.144 83.445 114.129 83.445ZM114.129 82.4344C115.468 82.4344 116.222 81.4566 116.222 79.7897V79.7766C116.222 78.1031 115.468 77.1319 114.129 77.1319C112.79 77.1319 112.035 78.1031 112.035 79.7766V79.7897C112.035 81.4566 112.79 82.4344 114.129 82.4344ZM118.932 83.3203V76.2459H120.074V77.2959H120.179C120.448 76.5544 121.111 76.1212 122.069 76.1212C122.285 76.1212 122.528 76.1475 122.64 76.1672V77.2762C122.403 77.2369 122.187 77.2106 121.938 77.2106C120.848 77.2106 120.074 77.8997 120.074 78.9366V83.3203H118.932ZM126.511 83.445C124.49 83.445 123.269 82.0275 123.269 79.8094V79.8028C123.269 77.6175 124.516 76.1212 126.439 76.1212C128.361 76.1212 129.53 77.5519 129.53 79.665V80.1112H124.437C124.47 81.5747 125.277 82.4278 126.537 82.4278C127.495 82.4278 128.086 81.975 128.276 81.5484L128.302 81.4894H129.444L129.431 81.5419C129.188 82.5 128.178 83.445 126.511 83.445ZM126.432 77.1384C125.382 77.1384 124.581 77.8537 124.457 79.1991H128.368C128.25 77.8012 127.476 77.1384 126.432 77.1384ZM137.134 83.3728C135.677 83.3728 135.067 82.8347 135.067 81.4828V77.1909H133.951V76.2459H135.067V74.415H136.248V76.2459H137.797V77.1909H136.248V81.1941C136.248 82.0275 136.537 82.3622 137.272 82.3622C137.475 82.3622 137.587 82.3556 137.797 82.3359V83.3072C137.574 83.3466 137.357 83.3728 137.134 83.3728ZM139.338 83.3203V73.4372H140.48V77.3091H140.585C140.94 76.5609 141.602 76.1212 142.646 76.1212C144.234 76.1212 145.12 77.0597 145.12 78.7397V83.3203H143.978V79.0153C143.978 77.7422 143.453 77.1319 142.324 77.1319C141.196 77.1319 140.48 77.8931 140.48 79.1334V83.3203H139.338ZM148.899 83.445C147.554 83.445 146.537 82.6312 146.537 81.345V81.3319C146.537 80.0719 147.469 79.3434 149.116 79.245L151.144 79.1203V78.4772C151.144 77.6044 150.612 77.1319 149.556 77.1319C148.709 77.1319 148.151 77.4469 147.967 77.9981L147.961 78.0178H146.819L146.826 77.9784C147.009 76.8694 148.086 76.1212 149.595 76.1212C151.321 76.1212 152.286 77.0072 152.286 78.4772V83.3203H151.144V82.2769H151.039C150.592 83.0316 149.851 83.445 148.899 83.445ZM147.705 81.3187C147.705 82.0341 148.315 82.4541 149.136 82.4541C150.297 82.4541 151.144 81.6928 151.144 80.6822V80.0391L149.254 80.1572C148.177 80.2228 147.705 80.6034 147.705 81.3056V81.3187ZM154.142 83.3203V76.2459H155.284V77.3091H155.389C155.743 76.5609 156.406 76.1212 157.45 76.1212C159.038 76.1212 159.924 77.0597 159.924 78.7397V83.3203H158.782V79.0153C158.782 77.7422 158.257 77.1319 157.128 77.1319C155.999 77.1319 155.284 77.8931 155.284 79.1334V83.3203H154.142ZM168.401 73.6275C170.133 73.6275 171.964 74.8481 171.964 78.4116V78.4247C171.964 81.6534 170.619 83.5434 168.322 83.5434C166.734 83.5434 165.553 82.6116 165.231 81.2137L165.212 81.1284H166.399L166.426 81.2006C166.714 81.9947 167.377 82.4869 168.335 82.4869C170.055 82.4869 170.757 80.8069 170.829 78.8316C170.836 78.7594 170.836 78.6806 170.836 78.6084H170.711C170.363 79.3828 169.471 80.0719 168.191 80.0719C166.412 80.0719 165.087 78.72 165.087 76.9022V76.8891C165.087 74.9991 166.491 73.6275 168.401 73.6275ZM168.394 79.0416C169.622 79.0416 170.553 78.1425 170.553 76.9087V76.9022C170.553 75.6553 169.615 74.6709 168.414 74.6709C167.226 74.6709 166.275 75.6356 166.275 76.8628V76.8759C166.275 78.1359 167.167 79.0416 168.394 79.0416ZM176.853 83.4778C174.897 83.4778 173.63 82.3884 173.506 80.8922L173.499 80.8134H174.635L174.641 80.8791C174.733 81.8109 175.593 82.4541 176.853 82.4541C178.093 82.4541 178.94 81.7584 178.94 80.7544V80.7412C178.94 79.5797 178.106 78.93 176.78 78.93H175.593V77.9325H176.728C177.857 77.9325 178.644 77.2369 178.644 76.2919V76.2787C178.644 75.2878 177.995 74.7169 176.84 74.7169C175.724 74.7169 174.93 75.3075 174.831 76.2656L174.825 76.3312H173.69L173.696 76.2656C173.847 74.7234 175.068 73.6931 176.84 73.6931C178.644 73.6931 179.832 74.6972 179.832 76.1344V76.1475C179.832 77.3156 179.005 78.1162 177.824 78.3656V78.3919C179.202 78.51 180.14 79.3697 180.14 80.715V80.7281C180.14 82.3097 178.749 83.4778 176.853 83.4778ZM184.924 73.6275C186.656 73.6275 188.487 74.8481 188.487 78.4116V78.4247C188.487 81.6534 187.142 83.5434 184.845 83.5434C183.257 83.5434 182.076 82.6116 181.754 81.2137L181.734 81.1284H182.922L182.949 81.2006C183.237 81.9947 183.9 82.4869 184.858 82.4869C186.578 82.4869 187.28 80.8069 187.352 78.8316C187.359 78.7594 187.359 78.6806 187.359 78.6084H187.234C186.886 79.3828 185.994 80.0719 184.714 80.0719C182.935 80.0719 181.61 78.72 181.61 76.9022V76.8891C181.61 74.9991 183.014 73.6275 184.924 73.6275ZM184.917 79.0416C186.144 79.0416 187.076 78.1425 187.076 76.9087V76.9022C187.076 75.6553 186.138 74.6709 184.937 74.6709C183.749 74.6709 182.798 75.6356 182.798 76.8628V76.8759C182.798 78.1359 183.69 79.0416 184.917 79.0416ZM193.171 79.9144V79.1269H194.464C194.451 78.9562 194.445 78.7725 194.445 78.5887V78.5756C194.445 78.3787 194.451 78.195 194.471 78.0112H193.171V77.2237H194.596C195.134 75.0056 197.024 73.9884 199.176 73.9884C199.668 73.9884 200.311 74.0409 200.587 74.1328V75.1959C200.298 75.1237 199.668 75.0778 199.176 75.0778C197.595 75.0778 196.328 75.7603 195.856 77.2237H199.38V78.0112H195.691C195.672 78.195 195.659 78.3919 195.659 78.5953V78.6084C195.659 78.7856 195.665 78.9628 195.685 79.1269H199.38V79.9144H195.836C196.295 81.4041 197.575 82.0931 199.176 82.0931C199.668 82.0931 200.298 82.0603 200.587 81.975V83.0381C200.318 83.1366 199.668 83.1825 199.176 83.1825C197.004 83.1825 195.114 82.1456 194.589 79.9144H193.171ZM202.877 83.3859C202.411 83.3859 202.024 82.9987 202.024 82.5328C202.024 82.0603 202.411 81.6797 202.877 81.6797C203.349 81.6797 203.73 82.0603 203.73 82.5328C203.73 82.9987 203.349 83.3859 202.877 83.3859Z" fill="#9299A2"/>
<rect opacity="0.4" x="18" y="103.4" width="5" height="60" rx="2.5" fill="#57B74E"/>
<path d="M42.1421 127.48V117.868H41.9927L39.0542 119.91V117.652L42.1504 115.502H44.6489V127.48H42.1421ZM52.1245 127.788C49.1694 127.788 47.3681 125.364 47.3681 121.496V121.479C47.3681 117.603 49.1694 115.195 52.1245 115.195C55.0878 115.195 56.8808 117.603 56.8808 121.479V121.496C56.8808 125.364 55.0878 127.788 52.1245 127.788ZM52.1245 125.804C53.5439 125.804 54.3491 124.202 54.3491 121.496V121.479C54.3491 118.765 53.5439 117.179 52.1245 117.179C50.7133 117.179 49.9082 118.765 49.9082 121.479V121.496C49.9082 124.202 50.7133 125.804 52.1245 125.804ZM61.4428 122.068C59.6913 122.068 58.6122 120.773 58.6122 118.698V118.69C58.6122 116.615 59.6913 115.328 61.4428 115.328C63.2025 115.328 64.2733 116.615 64.2733 118.69V118.698C64.2733 120.773 63.2025 122.068 61.4428 122.068ZM63.2856 127.48H61.3681L69.4281 115.502H71.3456L63.2856 127.48ZM61.4428 120.74C62.1732 120.74 62.58 120.001 62.58 118.698V118.69C62.58 117.378 62.1732 116.656 61.4428 116.656C60.7206 116.656 60.3139 117.378 60.3139 118.69V118.698C60.3139 120.001 60.7206 120.74 61.4428 120.74ZM71.2626 127.655C69.5111 127.655 68.432 126.36 68.432 124.285V124.276C68.432 122.201 69.5111 120.915 71.2626 120.915C73.0224 120.915 74.0932 122.201 74.0932 124.276V124.285C74.0932 126.36 73.0224 127.655 71.2626 127.655ZM71.2626 126.327C71.9931 126.327 72.3998 125.588 72.3998 124.285V124.276C72.3998 122.965 71.9931 122.243 71.2626 122.243C70.5404 122.243 70.1337 122.965 70.1337 124.276V124.285C70.1337 125.588 70.5404 126.327 71.2626 126.327ZM75.3763 123.737V121.554H84.8309V123.737H75.3763ZM90.804 127.788C88.2391 127.788 86.5457 126.26 86.4046 124.26L86.3963 124.144H88.6707L88.6873 124.202C88.8616 125.082 89.6834 125.787 90.8123 125.787C92.0989 125.787 92.9954 124.882 92.9954 123.596V123.579C92.9954 122.301 92.0906 121.413 90.8206 121.413C90.2147 121.413 89.7 121.587 89.3016 121.927C89.0775 122.11 88.8782 122.334 88.7454 122.591H86.5955L87.1517 115.502H94.639V117.495H89.1024L88.8035 120.906H88.9529C89.4344 120.101 90.3641 119.603 91.5096 119.603C93.7425 119.603 95.3528 121.247 95.3528 123.529V123.546C95.3528 126.069 93.4935 127.788 90.804 127.788ZM101.766 127.788C98.8108 127.788 97.0095 125.364 97.0095 121.496V121.479C97.0095 117.603 98.8108 115.195 101.766 115.195C104.729 115.195 106.522 117.603 106.522 121.479V121.496C106.522 125.364 104.729 127.788 101.766 127.788ZM101.766 125.804C103.185 125.804 103.99 124.202 103.99 121.496V121.479C103.99 118.765 103.185 117.179 101.766 117.179C100.355 117.179 99.5496 118.765 99.5496 121.479V121.496C99.5496 124.202 100.355 125.804 101.766 125.804ZM111.084 122.068C109.333 122.068 108.254 120.773 108.254 118.698V118.69C108.254 116.615 109.333 115.328 111.084 115.328C112.844 115.328 113.915 116.615 113.915 118.69V118.698C113.915 120.773 112.844 122.068 111.084 122.068ZM112.927 127.48H111.009L119.07 115.502H120.987L112.927 127.48ZM111.084 120.74C111.815 120.74 112.221 120.001 112.221 118.698V118.69C112.221 117.378 111.815 116.656 111.084 116.656C110.362 116.656 109.955 117.378 109.955 118.69V118.698C109.955 120.001 110.362 120.74 111.084 120.74ZM120.904 127.655C119.153 127.655 118.073 126.36 118.073 124.285V124.276C118.073 122.201 119.153 120.915 120.904 120.915C122.664 120.915 123.735 122.201 123.735 124.276V124.285C123.735 126.36 122.664 127.655 120.904 127.655ZM120.904 126.327C121.634 126.327 122.041 125.588 122.041 124.285V124.276C122.041 122.965 121.634 122.243 120.904 122.243C120.182 122.243 119.775 122.965 119.775 124.276V124.285C119.775 125.588 120.182 126.327 120.904 126.327ZM133.672 127.671C130.858 127.671 129.165 125.887 129.165 122.915V122.898C129.165 119.952 130.883 118.142 133.672 118.142C136.461 118.142 138.179 119.943 138.179 122.898V122.915C138.179 125.895 136.486 127.671 133.672 127.671ZM133.672 125.771C134.959 125.771 135.697 124.716 135.697 122.915V122.898C135.697 121.114 134.95 120.043 133.672 120.043C132.385 120.043 131.647 121.114 131.647 122.898V122.915C131.647 124.716 132.377 125.771 133.672 125.771ZM140.467 127.48V120.167H138.989V118.341H140.467V117.486C140.467 115.668 141.397 114.755 143.605 114.755C144.094 114.755 144.501 114.789 144.85 114.847V116.465C144.7 116.44 144.443 116.416 144.128 116.416C143.19 116.416 142.841 116.855 142.841 117.652V118.341H144.775V120.167H142.891V127.48H140.467ZM151.533 116.938C150.786 116.938 150.164 116.341 150.164 115.594C150.164 114.838 150.786 114.241 151.533 114.241C152.28 114.241 152.895 114.838 152.895 115.594C152.895 116.341 152.28 116.938 151.533 116.938ZM150.313 127.48V118.341H152.737V127.48H150.313ZM154.784 127.48V118.341H157.207V119.752H157.357C157.772 118.765 158.677 118.142 159.98 118.142C162.014 118.142 163.109 119.387 163.109 121.57V127.48H160.685V122.118C160.685 120.832 160.154 120.151 159.009 120.151C157.888 120.151 157.207 120.956 157.207 122.193V127.48H154.784ZM169.091 127.671C166.235 127.671 164.617 125.937 164.617 122.898V122.882C164.617 119.877 166.227 118.142 169.091 118.142C171.515 118.142 172.951 119.462 173.166 121.504V121.529H170.909L170.9 121.512C170.743 120.624 170.137 120.043 169.099 120.043C167.796 120.043 167.082 121.056 167.082 122.882V122.898C167.082 124.75 167.804 125.771 169.099 125.771C170.095 125.771 170.684 125.297 170.9 124.384L170.917 124.351H173.158L173.15 124.401C172.901 126.393 171.473 127.671 169.091 127.671ZM178.724 127.671C175.91 127.671 174.217 125.887 174.217 122.915V122.898C174.217 119.952 175.935 118.142 178.724 118.142C181.514 118.142 183.232 119.943 183.232 122.898V122.915C183.232 125.895 181.538 127.671 178.724 127.671ZM178.724 125.771C180.011 125.771 180.75 124.716 180.75 122.915V122.898C180.75 121.114 180.003 120.043 178.724 120.043C177.438 120.043 176.699 121.114 176.699 122.898V122.915C176.699 124.716 177.43 125.771 178.724 125.771ZM184.814 127.48V118.341H187.238V119.769H187.387C187.777 118.74 188.723 118.142 189.919 118.142C191.164 118.142 192.085 118.773 192.459 119.827H192.608C193.023 118.814 194.086 118.142 195.364 118.142C197.182 118.142 198.319 119.321 198.319 121.205V127.48H195.895V121.811C195.895 120.707 195.397 120.151 194.385 120.151C193.405 120.151 192.774 120.873 192.774 121.861V127.48H190.35V121.703C190.35 120.724 189.794 120.151 188.848 120.151C187.902 120.151 187.238 120.923 187.238 121.969V127.48H184.814ZM204.292 127.671C201.511 127.671 199.826 125.854 199.826 122.923V122.915C199.826 120.01 201.528 118.142 204.193 118.142C206.857 118.142 208.517 119.968 208.517 122.732V123.488H202.225C202.25 124.99 203.055 125.862 204.342 125.862C205.405 125.862 205.994 125.297 206.16 124.949L206.185 124.899H208.443L208.426 124.982C208.144 126.127 206.965 127.671 204.292 127.671ZM204.234 119.96C203.18 119.96 202.4 120.674 202.25 121.969H206.193C206.044 120.641 205.288 119.96 204.234 119.96ZM215.832 127.48L213.391 118.341H215.84L217.201 124.957H217.351L218.953 118.341H221.26L222.871 124.957H223.02L224.382 118.341H226.78L224.348 127.48H221.775L220.14 121.105H219.99L218.372 127.48H215.832ZM231.791 127.671C228.977 127.671 227.283 125.887 227.283 122.915V122.898C227.283 119.952 229.002 118.142 231.791 118.142C234.58 118.142 236.298 119.943 236.298 122.898V122.915C236.298 125.895 234.605 127.671 231.791 127.671ZM231.791 125.771C233.077 125.771 233.816 124.716 233.816 122.915V122.898C233.816 121.114 233.069 120.043 231.791 120.043C230.504 120.043 229.765 121.114 229.765 122.898V122.915C229.765 124.716 230.496 125.771 231.791 125.771ZM240.901 127.671C238.851 127.671 237.797 126.426 237.797 124.251V118.341H240.221V123.695C240.221 124.99 240.711 125.663 241.856 125.663C243.051 125.663 243.699 124.857 243.699 123.621V118.341H246.123V127.48H243.699V126.069H243.549C243.134 127.065 242.205 127.671 240.901 127.671ZM248.244 127.48V114.847H250.668V127.48H248.244ZM256.043 127.622C253.761 127.622 252.333 125.837 252.333 122.915V122.898C252.333 119.96 253.728 118.192 256.043 118.192C257.297 118.192 258.318 118.806 258.774 119.802H258.924V114.847H261.348V127.48H258.924V126.061H258.774C258.301 127.049 257.33 127.622 256.043 127.622ZM256.865 125.613C258.152 125.613 258.949 124.6 258.949 122.923V122.907C258.949 121.23 258.144 120.201 256.865 120.201C255.587 120.201 254.798 121.23 254.798 122.898V122.915C254.798 124.6 255.587 125.613 256.865 125.613ZM267.533 127.48V114.847H269.957V127.48H267.533ZM276.088 127.671C273.307 127.671 271.622 125.854 271.622 122.923V122.915C271.622 120.01 273.324 118.142 275.988 118.142C278.653 118.142 280.313 119.968 280.313 122.732V123.488H274.021C274.046 124.99 274.851 125.862 276.138 125.862C277.2 125.862 277.789 125.297 277.955 124.949L277.98 124.899H280.238L280.222 124.982C279.939 126.127 278.761 127.671 276.088 127.671ZM276.03 119.96C274.975 119.96 274.195 120.674 274.046 121.969H277.989C277.839 120.641 277.084 119.96 276.03 119.96ZM282.609 127.48V120.167H281.131V118.341H282.609V117.486C282.609 115.668 283.538 114.755 285.746 114.755C286.236 114.755 286.643 114.789 286.992 114.847V116.465C286.842 116.44 286.585 116.416 286.269 116.416C285.331 116.416 284.983 116.855 284.983 117.652V118.341H286.917V120.167H285.033V127.48H282.609ZM292.325 127.514C290.101 127.514 289.204 126.792 289.204 125.015V120.167H287.793V118.341H289.204V116.158H291.653V118.341H293.537V120.167H291.653V124.459C291.653 125.281 292.002 125.646 292.823 125.646C293.139 125.646 293.305 125.629 293.537 125.604V127.406C293.239 127.464 292.79 127.514 292.325 127.514Z" fill="#9299A2"/>
<path d="M39.2075 148.32V138.851H40.3888V148.32H39.2075ZM42.9015 148.32V142.191H41.7268V141.246H42.9015V140.458C42.9015 139.047 43.6102 138.372 44.9555 138.372C45.2312 138.372 45.4805 138.391 45.7168 138.437V139.349C45.579 139.323 45.3887 139.317 45.1852 139.317C44.3715 139.317 44.0434 139.717 44.0434 140.491V141.246H45.6512V142.191H44.0434V148.32H42.9015ZM51.2213 150.801C51.0704 150.801 50.8735 150.788 50.716 150.762V149.823C50.8538 149.849 51.031 149.856 51.1885 149.856C51.8382 149.856 52.2319 149.561 52.4879 148.747L52.6191 148.327L50.0007 141.246H51.2213L53.1638 147.067H53.2688L55.2047 141.246H56.4057L53.6429 148.753C53.0588 150.342 52.4747 150.801 51.2213 150.801ZM60.3293 148.445C58.3147 148.445 57.0678 147.054 57.0678 144.79V144.777C57.0678 142.506 58.3147 141.121 60.3293 141.121C62.344 141.121 63.5909 142.506 63.5909 144.777V144.79C63.5909 147.054 62.344 148.445 60.3293 148.445ZM60.3293 147.434C61.6681 147.434 62.4228 146.457 62.4228 144.79V144.777C62.4228 143.103 61.6681 142.132 60.3293 142.132C58.9906 142.132 58.2359 143.103 58.2359 144.777V144.79C58.2359 146.457 58.9906 147.434 60.3293 147.434ZM67.5014 148.445C65.8936 148.445 65.0668 147.5 65.0668 145.827V141.246H66.2086V145.551C66.2086 146.824 66.668 147.434 67.7968 147.434C69.0436 147.434 69.7064 146.673 69.7064 145.433V141.246H70.8483V148.32H69.7064V147.264H69.6014C69.2536 148.018 68.5383 148.445 67.5014 148.445ZM76.366 148.32V138.437H77.5078V148.32H76.366ZM82.3568 148.445C80.3356 148.445 79.1149 147.027 79.1149 144.809V144.803C79.1149 142.617 80.3618 141.121 82.2846 141.121C84.2074 141.121 85.3756 142.552 85.3756 144.665V145.111H80.2831C80.3159 146.575 81.1231 147.428 82.3831 147.428C83.3412 147.428 83.9318 146.975 84.1221 146.548L84.1484 146.489H85.2902L85.2771 146.542C85.0343 147.5 84.0237 148.445 82.3568 148.445ZM82.2781 142.138C81.2281 142.138 80.4274 142.854 80.3027 144.199H84.214C84.0959 142.801 83.3215 142.138 82.2781 142.138ZM87.3895 148.32V142.191H86.2148V141.246H87.3895V140.458C87.3895 139.047 88.0983 138.372 89.4436 138.372C89.7192 138.372 89.9686 138.391 90.2048 138.437V139.349C90.067 139.323 89.8767 139.317 89.6733 139.317C88.8595 139.317 88.5314 139.717 88.5314 140.491V141.246H90.1392V142.191H88.5314V148.32H87.3895ZM94.0694 148.373C92.6126 148.373 92.0023 147.835 92.0023 146.483V142.191H90.8866V141.246H92.0023V139.415H93.1835V141.246H94.7323V142.191H93.1835V146.194C93.1835 147.027 93.4723 147.362 94.2073 147.362C94.4107 147.362 94.5223 147.356 94.7323 147.336V148.307C94.5091 148.347 94.2926 148.373 94.0694 148.373ZM103.275 148.445C102.291 148.445 101.503 147.979 101.07 147.192H100.965V148.32H99.8233V138.437H100.965V142.362H101.07C101.457 141.607 102.304 141.121 103.275 141.121C105.073 141.121 106.241 142.558 106.241 144.777V144.79C106.241 146.995 105.067 148.445 103.275 148.445ZM103.013 147.434C104.306 147.434 105.073 146.437 105.073 144.79V144.777C105.073 143.129 104.306 142.132 103.013 142.132C101.726 142.132 100.939 143.142 100.939 144.777V144.79C100.939 146.424 101.726 147.434 103.013 147.434ZM110.67 148.445C108.649 148.445 107.429 147.027 107.429 144.809V144.803C107.429 142.617 108.675 141.121 110.598 141.121C112.521 141.121 113.689 142.552 113.689 144.665V145.111H108.597C108.629 146.575 109.437 147.428 110.697 147.428C111.655 147.428 112.245 146.975 112.436 146.548L112.462 146.489H113.604L113.591 146.542C113.348 147.5 112.337 148.445 110.67 148.445ZM110.592 142.138C109.542 142.138 108.741 142.854 108.616 144.199H112.528C112.409 142.801 111.635 142.138 110.592 142.138ZM117.744 148.373C116.287 148.373 115.677 147.835 115.677 146.483V142.191H114.561V141.246H115.677V139.415H116.858V141.246H118.407V142.191H116.858V146.194C116.858 147.027 117.147 147.362 117.882 147.362C118.085 147.362 118.197 147.356 118.407 147.336V148.307C118.184 148.347 117.967 148.373 117.744 148.373ZM121.248 148.32L119.266 141.246H120.408L121.799 146.903H121.904L123.486 141.246H124.568L126.15 146.903H126.255L127.646 141.246H128.782L126.8 148.32H125.651L124.07 142.847H123.965L122.39 148.32H121.248ZM132.685 148.445C130.664 148.445 129.444 147.027 129.444 144.809V144.803C129.444 142.617 130.69 141.121 132.613 141.121C134.536 141.121 135.704 142.552 135.704 144.665V145.111H130.612C130.645 146.575 131.452 147.428 132.712 147.428C133.67 147.428 134.26 146.975 134.451 146.548L134.477 146.489H135.619L135.606 146.542C135.363 147.5 134.352 148.445 132.685 148.445ZM132.607 142.138C131.557 142.138 130.756 142.854 130.631 144.199H134.543C134.425 142.801 133.65 142.138 132.607 142.138ZM140.133 148.445C138.112 148.445 136.891 147.027 136.891 144.809V144.803C136.891 142.617 138.138 141.121 140.061 141.121C141.984 141.121 143.152 142.552 143.152 144.665V145.111H138.059C138.092 146.575 138.899 147.428 140.159 147.428C141.118 147.428 141.708 146.975 141.899 146.548L141.925 146.489H143.067L143.054 146.542C142.811 147.5 141.8 148.445 140.133 148.445ZM140.054 142.138C139.004 142.138 138.204 142.854 138.079 144.199H141.99C141.872 142.801 141.098 142.138 140.054 142.138ZM144.693 148.32V141.246H145.835V142.309H145.94C146.295 141.561 146.957 141.121 148.001 141.121C149.589 141.121 150.475 142.06 150.475 143.74V148.32H149.333V144.015C149.333 142.742 148.808 142.132 147.679 142.132C146.551 142.132 145.835 142.893 145.835 144.133V148.32H144.693ZM158.171 148.32V140.163H158.066L155.658 141.909V140.662L158.178 138.851H159.353V148.32H158.171ZM165.094 148.478C163.086 148.478 161.655 147.349 161.655 145.761V145.748C161.655 144.58 162.476 143.608 163.69 143.326V143.3C162.653 142.978 161.997 142.191 161.997 141.193V141.18C161.997 139.75 163.303 138.693 165.094 138.693C166.886 138.693 168.192 139.75 168.192 141.18V141.193C168.192 142.191 167.535 142.978 166.498 143.3V143.326C167.713 143.608 168.533 144.58 168.533 145.748V145.761C168.533 147.349 167.102 148.478 165.094 148.478ZM165.094 142.86C166.236 142.86 167.017 142.211 167.017 141.292V141.279C167.017 140.36 166.236 139.71 165.094 139.71C163.952 139.71 163.171 140.36 163.171 141.279V141.292C163.171 142.211 163.952 142.86 165.094 142.86ZM165.094 147.447C166.4 147.447 167.332 146.712 167.332 145.689V145.676C167.332 144.639 166.407 143.897 165.094 143.897C163.782 143.897 162.856 144.639 162.856 145.676V145.689C162.856 146.712 163.788 147.447 165.094 147.447ZM173.447 148.478C171.439 148.478 170.009 147.349 170.009 145.761V145.748C170.009 144.58 170.829 143.608 172.043 143.326V143.3C171.006 142.978 170.35 142.191 170.35 141.193V141.18C170.35 139.75 171.656 138.693 173.447 138.693C175.239 138.693 176.545 139.75 176.545 141.18V141.193C176.545 142.191 175.889 142.978 174.852 143.3V143.326C176.066 143.608 176.886 144.58 176.886 145.748V145.761C176.886 147.349 175.456 148.478 173.447 148.478ZM173.447 142.86C174.589 142.86 175.37 142.211 175.37 141.292V141.279C175.37 140.36 174.589 139.71 173.447 139.71C172.306 139.71 171.525 140.36 171.525 141.279V141.292C171.525 142.211 172.306 142.86 173.447 142.86ZM173.447 147.447C174.753 147.447 175.685 146.712 175.685 145.689V145.676C175.685 144.639 174.76 143.897 173.447 143.897C172.135 143.897 171.21 144.639 171.21 145.676V145.689C171.21 146.712 172.142 147.447 173.447 147.447ZM181.584 144.914V144.127H182.876C182.863 143.956 182.857 143.772 182.857 143.589V143.576C182.857 143.379 182.863 143.195 182.883 143.011H181.584V142.224H183.008C183.546 140.006 185.436 138.988 187.588 138.988C188.08 138.988 188.724 139.041 188.999 139.133V140.196C188.71 140.124 188.08 140.078 187.588 140.078C186.007 140.078 184.74 140.76 184.268 142.224H187.792V143.011H184.104C184.084 143.195 184.071 143.392 184.071 143.595V143.608C184.071 143.786 184.077 143.963 184.097 144.127H187.792V144.914H184.248C184.707 146.404 185.987 147.093 187.588 147.093C188.08 147.093 188.71 147.06 188.999 146.975V148.038C188.73 148.137 188.08 148.182 187.588 148.182C185.416 148.182 183.526 147.146 183.001 144.914H181.584ZM195.849 148.445C194.504 148.445 193.486 147.631 193.486 146.345V146.332C193.486 145.072 194.418 144.343 196.066 144.245L198.093 144.12V143.477C198.093 142.604 197.562 142.132 196.505 142.132C195.659 142.132 195.101 142.447 194.917 142.998L194.911 143.018H193.769L193.775 142.978C193.959 141.869 195.035 141.121 196.545 141.121C198.271 141.121 199.235 142.007 199.235 143.477V148.32H198.093V147.277H197.988C197.542 148.032 196.801 148.445 195.849 148.445ZM194.655 146.319C194.655 147.034 195.265 147.454 196.085 147.454C197.247 147.454 198.093 146.693 198.093 145.682V145.039L196.203 145.157C195.127 145.223 194.655 145.603 194.655 146.306V146.319ZM201.092 148.32V141.246H202.234V142.309H202.339C202.693 141.561 203.356 141.121 204.399 141.121C205.987 141.121 206.873 142.06 206.873 143.74V148.32H205.731V144.015C205.731 142.742 205.206 142.132 204.078 142.132C202.949 142.132 202.234 142.893 202.234 144.133V148.32H201.092ZM211.322 148.445C209.53 148.445 208.356 146.995 208.356 144.79V144.777C208.356 142.558 209.524 141.121 211.322 141.121C212.293 141.121 213.14 141.607 213.527 142.362H213.632V138.437H214.774V148.32H213.632V147.192H213.527C213.094 147.979 212.306 148.445 211.322 148.445ZM211.584 147.434C212.871 147.434 213.658 146.424 213.658 144.79V144.777C213.658 143.142 212.871 142.132 211.584 142.132C210.292 142.132 209.524 143.129 209.524 144.777V144.79C209.524 146.437 210.292 147.434 211.584 147.434ZM223.376 138.627C225.108 138.627 226.939 139.848 226.939 143.412V143.425C226.939 146.653 225.594 148.543 223.297 148.543C221.709 148.543 220.528 147.612 220.206 146.214L220.186 146.128H221.374L221.401 146.201C221.689 146.995 222.352 147.487 223.31 147.487C225.03 147.487 225.732 145.807 225.804 143.832C225.811 143.759 225.811 143.681 225.811 143.608H225.686C225.338 144.383 224.446 145.072 223.166 145.072C221.387 145.072 220.062 143.72 220.062 141.902V141.889C220.062 139.999 221.466 138.627 223.376 138.627ZM223.369 144.042C224.596 144.042 225.528 143.142 225.528 141.909V141.902C225.528 140.655 224.59 139.671 223.389 139.671C222.201 139.671 221.25 140.636 221.25 141.863V141.876C221.25 143.136 222.142 144.042 223.369 144.042ZM231.828 148.478C229.872 148.478 228.605 147.388 228.481 145.892L228.474 145.813H229.609L229.616 145.879C229.708 146.811 230.568 147.454 231.828 147.454C233.068 147.454 233.914 146.758 233.914 145.754V145.741C233.914 144.58 233.081 143.93 231.755 143.93H230.568V142.932H231.703C232.832 142.932 233.619 142.237 233.619 141.292V141.279C233.619 140.288 232.969 139.717 231.814 139.717C230.699 139.717 229.905 140.307 229.806 141.266L229.8 141.331H228.664L228.671 141.266C228.822 139.723 230.043 138.693 231.814 138.693C233.619 138.693 234.807 139.697 234.807 141.134V141.147C234.807 142.316 233.98 143.116 232.799 143.366V143.392C234.177 143.51 235.115 144.37 235.115 145.715V145.728C235.115 147.31 233.724 148.478 231.828 148.478ZM239.899 138.627C241.631 138.627 243.462 139.848 243.462 143.412V143.425C243.462 146.653 242.117 148.543 239.82 148.543C238.232 148.543 237.051 147.612 236.729 146.214L236.709 146.128H237.897L237.923 146.201C238.212 146.995 238.875 147.487 239.833 147.487C241.553 147.487 242.255 145.807 242.327 143.832C242.333 143.759 242.333 143.681 242.333 143.608H242.209C241.861 144.383 240.968 145.072 239.689 145.072C237.91 145.072 236.585 143.72 236.585 141.902V141.889C236.585 139.999 237.989 138.627 239.899 138.627ZM239.892 144.042C241.119 144.042 242.051 143.142 242.051 141.909V141.902C242.051 140.655 241.113 139.671 239.912 139.671C238.724 139.671 237.773 140.636 237.773 141.863V141.876C237.773 143.136 238.665 144.042 239.892 144.042ZM248.146 144.914V144.127H249.439C249.426 143.956 249.42 143.772 249.42 143.589V143.576C249.42 143.379 249.426 143.195 249.446 143.011H248.146V142.224H249.57C250.109 140.006 251.999 138.988 254.151 138.988C254.643 138.988 255.286 139.041 255.562 139.133V140.196C255.273 140.124 254.643 140.078 254.151 140.078C252.57 140.078 251.303 140.76 250.83 142.224H254.355V143.011H250.666C250.647 143.195 250.634 143.392 250.634 143.595V143.608C250.634 143.786 250.64 143.963 250.66 144.127H254.355V144.914H250.811C251.27 146.404 252.55 147.093 254.151 147.093C254.643 147.093 255.273 147.06 255.562 146.975V148.038C255.293 148.137 254.643 148.182 254.151 148.182C251.979 148.182 250.089 147.146 249.564 144.914H248.146ZM257.852 148.386C257.386 148.386 256.999 147.999 256.999 147.533C256.999 147.06 257.386 146.68 257.852 146.68C258.324 146.68 258.705 147.06 258.705 147.533C258.705 147.999 258.324 148.386 257.852 148.386Z" fill="#9299A2"/>
<rect x="18" y="168.4" width="5" height="99" rx="2.5" fill="#FCD375"/>
<path d="M44.2344 200.635C41.0094 200.635 38.7781 199.032 38.7781 196.707V196.688C38.7781 194.935 40.0813 193.641 41.9 193.285V193.229C40.3344 192.844 39.275 191.71 39.275 190.266V190.247C39.275 188.157 41.3094 186.638 44.2344 186.638C47.15 186.638 49.1938 188.157 49.1938 190.247V190.266C49.1938 191.71 48.125 192.844 46.5688 193.229V193.285C48.3781 193.641 49.6813 194.935 49.6813 196.688V196.707C49.6813 199.032 47.4594 200.635 44.2344 200.635ZM44.2344 192.375C45.5094 192.375 46.3906 191.616 46.3906 190.529V190.51C46.3906 189.432 45.5 188.682 44.2344 188.682C42.9688 188.682 42.0688 189.432 42.0688 190.51V190.529C42.0688 191.616 42.9594 192.375 44.2344 192.375ZM44.2344 198.572C45.7063 198.572 46.7469 197.71 46.7469 196.519V196.5C46.7469 195.3 45.725 194.429 44.2344 194.429C42.7438 194.429 41.7125 195.3 41.7125 196.5V196.519C41.7125 197.71 42.7531 198.572 44.2344 198.572ZM54.7617 193.838C52.8117 193.838 51.6211 192.479 51.6211 190.294V190.285C51.6211 188.11 52.8117 186.75 54.7617 186.75C56.7023 186.75 57.8929 188.11 57.8929 190.285V190.294C57.8929 192.479 56.7023 193.838 54.7617 193.838ZM56.1586 200.4H54.0679L62.6179 186.872H64.6992L56.1586 200.4ZM54.7617 192.282C55.5117 192.282 55.9242 191.579 55.9242 190.294V190.285C55.9242 189.01 55.5117 188.307 54.7617 188.307C54.0023 188.307 53.5804 189.01 53.5804 190.285V190.294C53.5804 191.579 54.0023 192.282 54.7617 192.282ZM64.0148 200.522C62.0648 200.522 60.8742 199.163 60.8742 196.979V196.969C60.8742 194.794 62.0648 193.435 64.0148 193.435C65.9554 193.435 67.1461 194.794 67.1461 196.969V196.979C67.1461 199.163 65.9554 200.522 64.0148 200.522ZM64.0148 198.966C64.7648 198.966 65.1773 198.263 65.1773 196.979V196.969C65.1773 195.694 64.7648 194.991 64.0148 194.991C63.2554 194.991 62.8336 195.694 62.8336 196.969V196.979C62.8336 198.263 63.2554 198.966 64.0148 198.966ZM77.9725 200.607C74.9163 200.607 72.9944 198.647 72.9944 195.375V195.357C72.9944 192.122 74.9632 190.144 77.9632 190.144C80.9725 190.144 82.9507 192.104 82.9507 195.357V195.375C82.9507 198.657 81.01 200.607 77.9725 200.607ZM77.9819 198.46C79.3132 198.46 80.1663 197.335 80.1663 195.375V195.357C80.1663 193.416 79.2944 192.291 77.9632 192.291C76.6413 192.291 75.7788 193.416 75.7788 195.357V195.375C75.7788 197.344 76.6319 198.46 77.9819 198.46ZM85.4623 200.4V192.413H84.0936V190.35H85.4623V189.544C85.4623 187.575 86.3998 186.666 88.7717 186.666C89.278 186.666 89.8311 186.713 90.1498 186.779V188.588C89.9623 188.55 89.6998 188.541 89.4467 188.541C88.5373 188.541 88.1342 188.925 88.1342 189.647V190.35H90.1311V192.413H88.1998V200.4H85.4623ZM97.6857 203.71C97.1513 203.71 96.6076 203.644 96.2888 203.588V201.554C96.4857 201.591 96.8044 201.647 97.2076 201.647C98.0232 201.647 98.4732 201.413 98.7169 200.729L98.8388 200.4L95.2857 190.35H98.2951L100.414 198.207H100.489L102.617 190.35H105.504L102.054 200.579C101.267 202.95 99.9169 203.71 97.6857 203.71ZM111.082 200.607C108.025 200.607 106.104 198.647 106.104 195.375V195.357C106.104 192.122 108.072 190.144 111.072 190.144C114.082 190.144 116.06 192.104 116.06 195.357V195.375C116.06 198.657 114.119 200.607 111.082 200.607ZM111.091 198.46C112.422 198.46 113.275 197.335 113.275 195.375V195.357C113.275 193.416 112.404 192.291 111.072 192.291C109.75 192.291 108.888 193.416 108.888 195.357V195.375C108.888 197.344 109.741 198.46 111.091 198.46ZM121.262 200.607C119.05 200.607 117.793 199.191 117.793 196.838V190.35H120.531V196.266C120.531 197.579 121.15 198.338 122.378 198.338C123.606 198.338 124.384 197.438 124.384 196.125V190.35H127.122V200.4H124.384V198.741H124.328C123.812 199.894 122.781 200.607 121.262 200.607ZM129.268 200.4V190.35H132.005V192.104H132.061C132.361 190.866 133.177 190.144 134.349 190.144C134.649 190.144 134.93 190.191 135.136 190.247V192.657C134.911 192.563 134.536 192.507 134.143 192.507C132.793 192.507 132.005 193.313 132.005 194.775V200.4H129.268ZM142.222 189.057C141.397 189.057 140.76 188.41 140.76 187.632C140.76 186.854 141.397 186.207 142.222 186.207C143.047 186.207 143.685 186.854 143.685 187.632C143.685 188.41 143.047 189.057 142.222 189.057ZM140.853 200.4V190.35H143.591V200.4H140.853ZM145.793 200.4V190.35H148.531V192H148.587C149.103 190.847 150.134 190.144 151.653 190.144C153.865 190.144 155.121 191.56 155.121 193.913V200.4H152.384V194.475C152.384 193.163 151.765 192.413 150.537 192.413C149.309 192.413 148.531 193.313 148.531 194.625V200.4H145.793ZM161.814 200.607C158.749 200.607 156.855 198.61 156.855 195.366V195.357C156.855 192.141 158.777 190.144 161.786 190.144C164.514 190.144 166.249 191.822 166.352 193.997V194.063H163.811L163.792 193.979C163.624 193.022 162.958 192.291 161.824 192.291C160.483 192.291 159.639 193.444 159.639 195.366V195.375C159.639 197.344 160.483 198.46 161.833 198.46C162.93 198.46 163.614 197.785 163.802 196.772L163.811 196.688H166.361V196.744C166.23 198.938 164.496 200.607 161.814 200.607ZM172.66 200.607C169.604 200.607 167.682 198.647 167.682 195.375V195.357C167.682 192.122 169.651 190.144 172.651 190.144C175.66 190.144 177.638 192.104 177.638 195.357V195.375C177.638 198.657 175.698 200.607 172.66 200.607ZM172.67 198.46C174.001 198.46 174.854 197.335 174.854 195.375V195.357C174.854 193.416 173.982 192.291 172.651 192.291C171.329 192.291 170.467 193.416 170.467 195.357V195.375C170.467 197.344 171.32 198.46 172.67 198.46ZM179.419 200.4V190.35H182.156V192.038H182.213C182.625 190.894 183.675 190.144 185.025 190.144C186.431 190.144 187.453 190.894 187.791 192.216H187.847C188.297 190.95 189.497 190.144 190.969 190.144C192.938 190.144 194.26 191.504 194.26 193.529V200.4H191.522V194.213C191.522 193.05 190.941 192.413 189.881 192.413C188.841 192.413 188.156 193.172 188.156 194.288V200.4H185.522V194.129C185.522 193.05 184.913 192.413 183.9 192.413C182.86 192.413 182.156 193.2 182.156 194.335V200.4H179.419ZM200.934 200.607C197.859 200.607 195.993 198.61 195.993 195.394V195.385C195.993 192.188 197.877 190.144 200.821 190.144C203.765 190.144 205.612 192.141 205.612 195.179V196.022H198.693C198.721 197.625 199.593 198.563 200.99 198.563C202.115 198.563 202.799 197.944 202.996 197.382L203.015 197.325H205.527L205.499 197.429C205.19 198.91 203.802 200.607 200.934 200.607ZM200.868 192.188C199.743 192.188 198.899 192.938 198.721 194.297H202.987C202.818 192.91 202.002 192.188 200.868 192.188ZM211.629 200.4V186.872H214.366V200.4H211.629ZM221.153 200.607C218.078 200.607 216.212 198.61 216.212 195.394V195.385C216.212 192.188 218.097 190.144 221.041 190.144C223.984 190.144 225.831 192.141 225.831 195.179V196.022H218.912C218.941 197.625 219.812 198.563 221.209 198.563C222.334 198.563 223.019 197.944 223.216 197.382L223.234 197.325H225.747L225.719 197.429C225.409 198.91 224.022 200.607 221.153 200.607ZM221.087 192.188C219.962 192.188 219.119 192.938 218.941 194.297H223.206C223.037 192.91 222.222 192.188 221.087 192.188ZM228.343 200.4V192.413H226.974V190.35H228.343V189.544C228.343 187.575 229.28 186.666 231.652 186.666C232.159 186.666 232.712 186.713 233.03 186.779V188.588C232.843 188.55 232.58 188.541 232.327 188.541C231.418 188.541 231.015 188.925 231.015 189.647V190.35H233.012V192.413H231.08V200.4H228.343ZM238.814 200.607C236.583 200.607 235.533 199.744 235.533 197.588V192.413H234.136V190.35H235.533V187.894H238.298V190.35H240.136V192.413H238.298V197.288C238.298 198.225 238.72 198.544 239.545 198.544C239.789 198.544 239.967 198.516 240.136 198.497V200.504C239.826 200.55 239.386 200.607 238.814 200.607Z" fill="#333333"/>
<path d="M44.0361 230.66C40.8729 230.66 38.978 228.414 38.978 224.892V224.876C38.978 221.339 40.9187 219.115 44.0361 219.115C47.1687 219.115 49.0942 221.346 49.0942 224.876V224.892C49.0942 228.406 47.184 230.66 44.0361 230.66ZM44.0361 229.392C46.2977 229.392 47.6883 227.619 47.6883 224.892V224.876C47.6883 222.126 46.2901 220.384 44.0361 220.384C41.7897 220.384 40.3839 222.126 40.3839 224.876V224.892C40.3839 227.619 41.7439 229.392 44.0361 229.392ZM53.6746 230.546C51.8027 230.546 50.84 229.445 50.84 227.497V222.164H52.1694V227.176C52.1694 228.658 52.7043 229.369 54.0185 229.369C55.4702 229.369 56.2419 228.483 56.2419 227.039V222.164H57.5714V230.4H56.2419V229.17H56.1196C55.7147 230.049 54.8819 230.546 53.6746 230.546ZM62.5873 230.462C60.8911 230.462 60.1805 229.835 60.1805 228.261V223.264H58.8816V222.164H60.1805V220.032H61.5558V222.164H63.359V223.264H61.5558V227.925C61.5558 228.895 61.892 229.285 62.7478 229.285C62.9846 229.285 63.1145 229.277 63.359 229.254V230.385C63.0992 230.431 62.8471 230.462 62.5873 230.462ZM72.3442 230.546C69.9985 230.546 68.5468 228.926 68.5468 226.29V226.274C68.5468 223.631 69.9985 222.019 72.3442 222.019C74.6898 222.019 76.1416 223.631 76.1416 226.274V226.29C76.1416 228.926 74.6898 230.546 72.3442 230.546ZM72.3442 229.369C73.9029 229.369 74.7815 228.23 74.7815 226.29V226.274C74.7815 224.326 73.9029 223.195 72.3442 223.195C70.7855 223.195 69.9068 224.326 69.9068 226.274V226.29C69.9068 228.23 70.7855 229.369 72.3442 229.369ZM78.3611 230.4V223.264H76.9934V222.164H78.3611V221.247C78.3611 219.604 79.1862 218.817 80.7526 218.817C81.0735 218.817 81.3638 218.84 81.6389 218.894V219.956C81.4784 219.925 81.2569 219.917 81.02 219.917C80.0726 219.917 79.6905 220.384 79.6905 221.285V222.164H81.5625V223.264H79.6905V230.4H78.3611ZM89.7836 230.4V220.903H89.6613L86.8572 222.936V221.484L89.7912 219.375H91.1589V230.4H89.7836ZM94.662 230.477C94.1195 230.477 93.6687 230.026 93.6687 229.484C93.6687 228.933 94.1195 228.49 94.662 228.49C95.2121 228.49 95.6553 228.933 95.6553 229.484C95.6553 230.026 95.2121 230.477 94.662 230.477ZM101.053 230.584C98.7153 230.584 97.0496 229.27 97.0496 227.421V227.405C97.0496 226.045 98.0047 224.914 99.4182 224.586V224.555C98.211 224.181 97.4469 223.264 97.4469 222.103V222.087C97.4469 220.422 98.9674 219.192 101.053 219.192C103.139 219.192 104.66 220.422 104.66 222.087V222.103C104.66 223.264 103.896 224.181 102.688 224.555V224.586C104.102 224.914 105.057 226.045 105.057 227.405V227.421C105.057 229.27 103.391 230.584 101.053 230.584ZM101.053 224.043C102.383 224.043 103.292 223.287 103.292 222.217V222.202C103.292 221.132 102.383 220.376 101.053 220.376C99.7238 220.376 98.8146 221.132 98.8146 222.202V222.217C98.8146 223.287 99.7238 224.043 101.053 224.043ZM101.053 229.384C102.574 229.384 103.659 228.528 103.659 227.337V227.321C103.659 226.114 102.581 225.251 101.053 225.251C99.5252 225.251 98.4478 226.114 98.4478 227.321V227.337C98.4478 228.528 99.5328 229.384 101.053 229.384ZM107.345 230.4L112.296 220.712V220.605H106.398V219.375H113.695V220.651L108.789 230.4H107.345ZM118.871 230.66C116.816 230.66 115.349 229.338 115.188 227.573L115.181 227.489H116.502L116.51 227.55C116.64 228.605 117.595 229.445 118.886 229.445C120.353 229.445 121.362 228.399 121.362 226.909V226.893C121.362 225.426 120.338 224.38 118.909 224.38C118.176 224.38 117.549 224.601 117.075 225.052C116.884 225.235 116.709 225.449 116.571 225.709H115.379L115.96 219.375H122.095V220.605H117.045L116.671 224.334H116.793C117.282 223.593 118.145 223.188 119.146 223.188C121.217 223.188 122.707 224.739 122.707 226.87V226.886C122.707 229.109 121.11 230.66 118.871 230.66ZM127.917 226.435V225.518H129.422C129.407 225.319 129.4 225.105 129.4 224.892V224.876C129.4 224.647 129.407 224.433 129.43 224.219H127.917V223.302H129.575C130.202 220.72 132.402 219.535 134.908 219.535C135.482 219.535 136.23 219.597 136.551 219.704V220.941C136.215 220.857 135.482 220.804 134.908 220.804C133.067 220.804 131.592 221.598 131.042 223.302H135.145V224.219H130.851C130.828 224.433 130.813 224.662 130.813 224.899V224.914C130.813 225.121 130.821 225.327 130.844 225.518H135.145V226.435H131.019C131.554 228.169 133.044 228.972 134.908 228.972C135.482 228.972 136.215 228.933 136.551 228.834V230.072C136.238 230.186 135.482 230.24 134.908 230.24C132.379 230.24 130.179 229.033 129.568 226.435H127.917ZM137.67 233.204L138.335 228.857H139.856L138.656 233.204H137.67ZM146.969 233.289C146.793 233.289 146.564 233.273 146.381 233.243V232.15C146.541 232.181 146.747 232.188 146.931 232.188C147.687 232.188 148.146 231.844 148.444 230.897L148.596 230.408L145.548 222.164H146.969L149.23 228.941H149.353L151.607 222.164H153.005L149.788 230.905C149.108 232.754 148.428 233.289 146.969 233.289ZM157.448 230.546C155.102 230.546 153.65 228.926 153.65 226.29V226.274C153.65 223.631 155.102 222.019 157.448 222.019C159.794 222.019 161.245 223.631 161.245 226.274V226.29C161.245 228.926 159.794 230.546 157.448 230.546ZM157.448 229.369C159.007 229.369 159.885 228.23 159.885 226.29V226.274C159.885 224.326 159.007 223.195 157.448 223.195C155.889 223.195 155.011 224.326 155.011 226.274V226.29C155.011 228.23 155.889 229.369 157.448 229.369ZM165.673 230.546C163.801 230.546 162.838 229.445 162.838 227.497V222.164H164.168V227.176C164.168 228.658 164.703 229.369 166.017 229.369C167.468 229.369 168.24 228.483 168.24 227.039V222.164H169.57V230.4H168.24V229.17H168.118C167.713 230.049 166.88 230.546 165.673 230.546ZM175.743 230.4V218.894H177.073V223.402H177.195C177.607 222.531 178.379 222.019 179.594 222.019C181.443 222.019 182.474 223.111 182.474 225.067V230.4H181.145V225.388C181.145 223.906 180.534 223.195 179.22 223.195C177.905 223.195 177.073 224.082 177.073 225.526V230.4H175.743ZM186.749 230.546C185.183 230.546 183.999 229.598 183.999 228.101V228.085C183.999 226.618 185.084 225.77 187.001 225.656L189.362 225.51V224.762C189.362 223.745 188.743 223.195 187.513 223.195C186.528 223.195 185.878 223.562 185.664 224.204L185.657 224.227H184.327L184.335 224.181C184.549 222.89 185.802 222.019 187.559 222.019C189.569 222.019 190.692 223.05 190.692 224.762V230.4H189.362V229.186H189.24C188.721 230.064 187.857 230.546 186.749 230.546ZM185.359 228.07C185.359 228.903 186.069 229.392 187.024 229.392C188.377 229.392 189.362 228.506 189.362 227.329V226.58L187.162 226.718C185.909 226.794 185.359 227.237 185.359 228.055V228.07ZM194.753 230.4L191.704 222.164H193.11L195.364 228.949H195.486L197.74 222.164H199.146L196.097 230.4H194.753ZM203.566 230.546C201.213 230.546 199.792 228.895 199.792 226.313V226.305C199.792 223.761 201.243 222.019 203.482 222.019C205.721 222.019 207.081 223.684 207.081 226.145V226.664H201.152C201.19 228.368 202.13 229.361 203.597 229.361C204.712 229.361 205.4 228.834 205.621 228.337L205.652 228.269H206.981L206.966 228.33C206.683 229.445 205.507 230.546 203.566 230.546ZM203.474 223.203C202.252 223.203 201.32 224.036 201.175 225.602H205.728C205.591 223.975 204.689 223.203 203.474 223.203ZM215.585 230.546C213.751 230.546 212.49 229.659 212.337 228.299H213.697C213.919 228.987 214.576 229.438 215.63 229.438C216.738 229.438 217.525 228.91 217.525 228.162V228.146C217.525 227.589 217.105 227.199 216.089 226.954L214.813 226.649C213.269 226.282 212.574 225.61 212.574 224.425V224.418C212.574 223.05 213.888 222.019 215.638 222.019C217.365 222.019 218.564 222.882 218.748 224.227H217.441C217.265 223.577 216.624 223.127 215.63 223.127C214.652 223.127 213.934 223.631 213.934 224.357V224.372C213.934 224.93 214.347 225.281 215.317 225.518L216.585 225.824C218.136 226.198 218.885 226.87 218.885 228.047V228.062C218.885 229.529 217.456 230.546 215.585 230.546ZM220.555 233.151V222.164H221.884V223.478H222.006C222.511 222.561 223.428 222.019 224.574 222.019C226.66 222.019 228.027 223.707 228.027 226.274V226.29C228.027 228.872 226.667 230.546 224.574 230.546C223.443 230.546 222.457 229.98 222.006 229.101H221.884V233.151H220.555ZM224.268 229.369C225.773 229.369 226.667 228.208 226.667 226.29V226.274C226.667 224.357 225.773 223.195 224.268 223.195C222.77 223.195 221.854 224.372 221.854 226.274V226.29C221.854 228.192 222.77 229.369 224.268 229.369ZM233.074 230.546C230.72 230.546 229.299 228.895 229.299 226.313V226.305C229.299 223.761 230.751 222.019 232.99 222.019C235.228 222.019 236.588 223.684 236.588 226.145V226.664H230.659C230.697 228.368 231.637 229.361 233.104 229.361C234.22 229.361 234.907 228.834 235.129 228.337L235.16 228.269H236.489L236.474 228.33C236.191 229.445 235.014 230.546 233.074 230.546ZM232.982 223.203C231.76 223.203 230.827 224.036 230.682 225.602H235.236C235.098 223.975 234.197 223.203 232.982 223.203ZM238.258 230.4V222.164H239.587V223.402H239.709C240.122 222.531 240.894 222.019 242.109 222.019C243.958 222.019 244.989 223.111 244.989 225.067V230.4H243.66V225.388C243.66 223.906 243.048 223.195 241.734 223.195C240.42 223.195 239.587 224.082 239.587 225.526V230.4H238.258ZM249.929 230.462C248.232 230.462 247.522 229.835 247.522 228.261V223.264H246.223V222.164H247.522V220.032H248.897V222.164H250.7V223.264H248.897V227.925C248.897 228.895 249.233 229.285 250.089 229.285C250.326 229.285 250.456 229.277 250.7 229.254V230.385C250.441 230.431 250.188 230.462 249.929 230.462ZM258.99 230.4V220.903H258.868L256.064 222.936V221.484L258.998 219.375H260.366V230.4H258.99ZM263.869 230.477C263.326 230.477 262.875 230.026 262.875 229.484C262.875 228.933 263.326 228.49 263.869 228.49C264.419 228.49 264.862 228.933 264.862 229.484C264.862 230.026 264.419 230.477 263.869 230.477ZM266.952 230.4L271.903 220.712V220.605H266.004V219.375H273.301V220.651L268.396 230.4H266.952ZM275.009 230.4V229.453L278.737 225.419C280.143 223.898 280.556 223.325 280.556 222.362V222.347C280.556 221.186 279.769 220.315 278.47 220.315C277.148 220.315 276.269 221.178 276.269 222.477L276.262 222.492L274.947 222.485L274.932 222.477C274.94 220.521 276.453 219.115 278.561 219.115C280.487 219.115 281.961 220.422 281.961 222.202V222.217C281.961 223.478 281.419 224.395 279.425 226.45L276.919 229.04V229.163H282.145V230.4H275.009ZM287.68 230.66C285.625 230.66 284.158 229.338 283.998 227.573L283.99 227.489H285.312L285.319 227.55C285.449 228.605 286.404 229.445 287.696 229.445C289.163 229.445 290.171 228.399 290.171 226.909V226.893C290.171 225.426 289.147 224.38 287.719 224.38C286.985 224.38 286.359 224.601 285.885 225.052C285.694 225.235 285.518 225.449 285.381 225.709H284.189L284.769 219.375H290.905V220.605H285.854L285.48 224.334H285.602C286.091 223.593 286.955 223.188 287.955 223.188C290.026 223.188 291.516 224.739 291.516 226.87V226.886C291.516 229.109 289.919 230.66 287.68 230.66ZM296.727 226.435V225.518H298.232C298.217 225.319 298.209 225.105 298.209 224.892V224.876C298.209 224.647 298.217 224.433 298.24 224.219H296.727V223.302H298.385C299.011 220.72 301.212 219.535 303.718 219.535C304.291 219.535 305.04 219.597 305.361 219.704V220.941C305.024 220.857 304.291 220.804 303.718 220.804C301.876 220.804 300.402 221.598 299.852 223.302H303.955V224.219H299.661C299.638 224.433 299.622 224.662 299.622 224.899V224.914C299.622 225.121 299.63 225.327 299.653 225.518H303.955V226.435H299.829C300.364 228.169 301.854 228.972 303.718 228.972C304.291 228.972 305.024 228.933 305.361 228.834V230.072C305.047 230.186 304.291 230.24 303.718 230.24C301.189 230.24 298.988 229.033 298.377 226.435H296.727ZM41.4994 249.546C39.9331 249.546 38.7488 248.598 38.7488 247.101V247.085C38.7488 245.618 39.8337 244.77 41.7515 244.656L44.1125 244.51V243.762C44.1125 242.745 43.4936 242.195 42.2635 242.195C41.2778 242.195 40.6284 242.562 40.4144 243.204L40.4068 243.227H39.0773L39.085 243.181C39.2989 241.89 40.552 241.019 42.3093 241.019C44.3188 241.019 45.442 242.05 45.442 243.762V249.4H44.1125V248.186H43.9902C43.4707 249.064 42.6073 249.546 41.4994 249.546ZM40.1088 247.07C40.1088 247.903 40.8194 248.392 41.7745 248.392C43.1269 248.392 44.1125 247.506 44.1125 246.329V245.58L41.912 245.718C40.6589 245.794 40.1088 246.237 40.1088 247.055V247.07ZM47.4781 249.4V241.164H48.8076V242.402H48.9298C49.3424 241.531 50.1141 241.019 51.329 241.019C53.178 241.019 54.2095 242.111 54.2095 244.067V249.4H52.88V244.388C52.88 242.906 52.2688 242.195 50.9546 242.195C49.6404 242.195 48.8076 243.082 48.8076 244.526V249.4H47.4781ZM59.2636 249.546C57.1778 249.546 55.8101 247.857 55.8101 245.29V245.274C55.8101 242.692 57.1701 241.019 59.2636 241.019C60.3945 241.019 61.3801 241.584 61.8309 242.463H61.9531V237.894H63.2826V249.4H61.9531V248.086H61.8309C61.3266 249.003 60.4097 249.546 59.2636 249.546ZM59.5693 248.369C61.0668 248.369 61.9837 247.192 61.9837 245.29V245.274C61.9837 243.372 61.0668 242.195 59.5693 242.195C58.0641 242.195 57.1701 243.357 57.1701 245.274V245.29C57.1701 247.208 58.0641 248.369 59.5693 248.369ZM69.5248 249.4V237.894H70.8543V242.402H70.9765C71.3891 241.531 72.1608 241.019 73.3757 241.019C75.2247 241.019 76.2562 242.111 76.2562 244.067V249.4H74.9267V244.388C74.9267 242.906 74.3155 242.195 73.0013 242.195C71.6871 242.195 70.8543 243.082 70.8543 244.526V249.4H69.5248ZM80.531 249.546C78.9647 249.546 77.7804 248.598 77.7804 247.101V247.085C77.7804 245.618 78.8653 244.77 80.7831 244.656L83.1441 244.51V243.762C83.1441 242.745 82.5252 242.195 81.2951 242.195C80.3094 242.195 79.66 242.562 79.446 243.204L79.4384 243.227H78.1089L78.1166 243.181C78.3305 241.89 79.5836 241.019 81.3409 241.019C83.3504 241.019 84.4736 242.05 84.4736 243.762V249.4H83.1441V248.186H83.0218C82.5023 249.064 81.6389 249.546 80.531 249.546ZM79.1404 247.07C79.1404 247.903 79.851 248.392 80.8061 248.392C82.1585 248.392 83.1441 247.506 83.1441 246.329V245.58L80.9436 245.718C79.6905 245.794 79.1404 246.237 79.1404 247.055V247.07ZM88.5344 249.4L85.4858 241.164H86.8917L89.1457 247.949H89.2679L91.5219 241.164H92.9278L89.8792 249.4H88.5344ZM97.3478 249.546C94.9945 249.546 93.5733 247.895 93.5733 245.313V245.305C93.5733 242.761 95.025 241.019 97.2638 241.019C99.5025 241.019 100.862 242.684 100.862 245.145V245.664H94.9334C94.9716 247.368 95.9114 248.361 97.3784 248.361C98.4939 248.361 99.1815 247.834 99.4031 247.337L99.4337 247.269H100.763L100.748 247.33C100.465 248.445 99.2885 249.546 97.3478 249.546ZM97.2561 242.203C96.0336 242.203 95.1015 243.036 94.9563 244.602H99.5101C99.3726 242.975 98.471 242.203 97.2561 242.203ZM109.229 249.4V239.903H109.107L106.302 241.936V240.484L109.236 238.375H110.604V249.4H109.229ZM117.018 249.66C114.963 249.66 113.496 248.338 113.335 246.573L113.328 246.489H114.65L114.657 246.55C114.787 247.605 115.742 248.445 117.034 248.445C118.501 248.445 119.509 247.399 119.509 245.909V245.893C119.509 244.426 118.485 243.38 117.056 243.38C116.323 243.38 115.696 243.601 115.223 244.052C115.032 244.235 114.856 244.449 114.718 244.709H113.526L114.107 238.375H120.243V239.605H115.192L114.818 243.334H114.94C115.429 242.593 116.292 242.188 117.293 242.188C119.364 242.188 120.854 243.739 120.854 245.87V245.886C120.854 248.109 119.257 249.66 117.018 249.66ZM126.366 249.66C123.929 249.66 122.477 247.437 122.477 243.892V243.876C122.477 240.331 123.929 238.115 126.366 238.115C128.804 238.115 130.271 240.331 130.271 243.876V243.892C130.271 247.437 128.804 249.66 126.366 249.66ZM126.366 248.461C127.948 248.461 128.888 246.703 128.888 243.892V243.876C128.888 241.064 127.948 239.322 126.366 239.322C124.785 239.322 123.86 241.064 123.86 243.876V243.892C123.86 246.703 124.785 248.461 126.366 248.461ZM135.527 245.435V244.518H137.033C137.017 244.319 137.01 244.105 137.01 243.892V243.876C137.01 243.647 137.017 243.433 137.04 243.219H135.527V242.302H137.185C137.812 239.72 140.012 238.535 142.519 238.535C143.092 238.535 143.84 238.597 144.161 238.704V239.941C143.825 239.857 143.092 239.804 142.519 239.804C140.677 239.804 139.202 240.598 138.652 242.302H142.755V243.219H138.461C138.438 243.433 138.423 243.662 138.423 243.899V243.914C138.423 244.121 138.431 244.327 138.454 244.518H142.755V245.435H138.629C139.164 247.169 140.654 247.972 142.519 247.972C143.092 247.972 143.825 247.933 144.161 247.834V249.072C143.848 249.186 143.092 249.24 142.519 249.24C139.989 249.24 137.789 248.033 137.178 245.435H135.527ZM149.701 249.4V237.894H151.03V249.4H149.701ZM156.55 249.546C154.197 249.546 152.776 247.895 152.776 245.313V245.305C152.776 242.761 154.227 241.019 156.466 241.019C158.705 241.019 160.065 242.684 160.065 245.145V245.664H154.136C154.174 247.368 155.114 248.361 156.581 248.361C157.696 248.361 158.384 247.834 158.606 247.337L158.636 247.269H159.966L159.95 247.33C159.668 248.445 158.491 249.546 156.55 249.546ZM156.459 242.203C155.236 242.203 154.304 243.036 154.159 244.602H158.713C158.575 242.975 157.673 242.203 156.459 242.203ZM162.284 249.4V242.264H160.917V241.164H162.284V240.247C162.284 238.604 163.11 237.817 164.676 237.817C164.997 237.817 165.287 237.84 165.562 237.894V238.956C165.402 238.925 165.18 238.917 164.943 238.917C163.996 238.917 163.614 239.384 163.614 240.285V241.164H165.486V242.264H163.614V249.4H162.284ZM169.936 249.462C168.24 249.462 167.53 248.835 167.53 247.261V242.264H166.231V241.164H167.53V239.032H168.905V241.164H170.708V242.264H168.905V246.925C168.905 247.895 169.241 248.285 170.097 248.285C170.334 248.285 170.464 248.277 170.708 248.254V249.385C170.448 249.431 170.196 249.462 169.936 249.462ZM173.386 249.477C172.844 249.477 172.393 249.026 172.393 248.484C172.393 247.933 172.844 247.49 173.386 247.49C173.936 247.49 174.379 247.933 174.379 248.484C174.379 249.026 173.936 249.477 173.386 249.477Z" fill="#333333"/>
</g>
</g>
<defs>
<filter id="filter0_d_2048_27546" x="-32.64" y="-26.88" width="425.28" height="535.28" filterUnits="userSpaceOnUse" color-interpolation-filters="sRGB">
<feFlood flood-opacity="0" result="BackgroundImageFix"/>
<feColorMatrix in="SourceAlpha" type="matrix" values="0 0 0 0 0 0 0 0 0 0 0 0 0 0 0 0 0 0 127 0" result="hardAlpha"/>
<feOffset dy="5.76"/>
<feGaussianBlur stdDeviation="16.32"/>
<feColorMatrix type="matrix" values="0 0 0 0 0 0 0 0 0 0 0 0 0 0 0 0 0 0 0.12 0"/>
<feBlend mode="normal" in2="BackgroundImageFix" result="effect1_dropShadow_2048_27546"/>
<feBlend mode="normal" in="SourceGraphic" in2="effect1_dropShadow_2048_27546" result="shape"/>
</filter>
<clipPath id="clip0_2048_27546">
<rect width="360" height="290" fill="white"/>
</clipPath>
</defs>
</svg>
