<svg width="1194" height="1196" viewBox="0 0 1194 1196" fill="none" xmlns="http://www.w3.org/2000/svg">
<path d="M303.26 103.711C303.26 105.829 302.76 107.827 301.761 109.706C300.762 111.584 299.163 113.123 296.965 114.322C294.767 115.481 291.949 116.061 288.512 116.061H280.958V132.967H274.124V91.3012H288.512C291.709 91.3012 294.407 91.8607 296.605 92.9798C298.843 94.0589 300.502 95.5377 301.581 97.4161C302.7 99.2945 303.26 101.393 303.26 103.711ZM288.512 110.485C291.11 110.485 293.048 109.906 294.327 108.747C295.606 107.548 296.246 105.869 296.246 103.711C296.246 99.1547 293.668 96.8766 288.512 96.8766H280.958V110.485H288.512ZM307.5 116.3C307.5 112.983 308.179 110.046 309.538 107.488C310.937 104.93 312.815 102.952 315.173 101.553C317.572 100.114 320.209 99.3945 323.087 99.3945C325.685 99.3945 327.943 99.914 329.861 100.953C331.82 101.952 333.378 103.211 334.537 104.73V99.934H341.432V132.967H334.537V128.051C333.378 129.609 331.8 130.908 329.801 131.947C327.803 132.987 325.525 133.506 322.967 133.506C320.129 133.506 317.532 132.787 315.173 131.348C312.815 129.869 310.937 127.831 309.538 125.233C308.179 122.595 307.5 119.618 307.5 116.3ZM334.537 116.42C334.537 114.142 334.058 112.164 333.099 110.485C332.179 108.807 330.96 107.528 329.442 106.648C327.923 105.769 326.284 105.33 324.526 105.33C322.767 105.33 321.129 105.769 319.61 106.648C318.091 107.488 316.852 108.747 315.893 110.425C314.974 112.064 314.514 114.022 314.514 116.3C314.514 118.579 314.974 120.577 315.893 122.295C316.852 124.014 318.091 125.333 319.61 126.252C321.169 127.131 322.807 127.571 324.526 127.571C326.284 127.571 327.923 127.131 329.442 126.252C330.96 125.373 332.179 124.094 333.099 122.415C334.058 120.697 334.537 118.698 334.537 116.42ZM380.144 99.934L359.88 148.494H352.806L359.521 132.427L346.512 99.934H354.125L363.417 125.113L373.069 99.934H380.144ZM425.288 99.3945C427.886 99.3945 430.204 99.934 432.242 101.013C434.32 102.092 435.939 103.691 437.098 105.809C438.297 107.927 438.897 110.485 438.897 113.483V132.967H432.122V114.502C432.122 111.544 431.383 109.286 429.904 107.728C428.425 106.129 426.407 105.33 423.849 105.33C421.291 105.33 419.253 106.129 417.734 107.728C416.255 109.286 415.516 111.544 415.516 114.502V132.967H408.742V114.502C408.742 111.544 408.002 109.286 406.523 107.728C405.045 106.129 403.026 105.33 400.469 105.33C397.911 105.33 395.872 106.129 394.354 107.728C392.875 109.286 392.135 111.544 392.135 114.502V132.967H385.301V99.934H392.135V103.711C393.255 102.352 394.673 101.293 396.392 100.534C398.11 99.7742 399.949 99.3945 401.907 99.3945C404.545 99.3945 406.903 99.954 408.981 101.073C411.06 102.192 412.658 103.811 413.777 105.929C414.777 103.931 416.335 102.352 418.454 101.193C420.572 99.994 422.85 99.3945 425.288 99.3945ZM477.868 115.641C477.868 116.88 477.788 117.999 477.628 118.998H452.389C452.589 121.636 453.568 123.754 455.327 125.353C457.085 126.952 459.243 127.751 461.801 127.751C465.478 127.751 468.076 126.212 469.595 123.135H476.969C475.97 126.172 474.151 128.67 471.513 130.628C468.915 132.547 465.678 133.506 461.801 133.506C458.644 133.506 455.806 132.807 453.288 131.408C450.81 129.969 448.852 127.971 447.413 125.413C446.014 122.815 445.315 119.817 445.315 116.42C445.315 113.023 445.994 110.046 447.353 107.488C448.752 104.89 450.691 102.892 453.168 101.493C455.686 100.094 458.564 99.3945 461.801 99.3945C464.919 99.3945 467.696 100.074 470.134 101.433C472.572 102.792 474.471 104.71 475.83 107.188C477.188 109.626 477.868 112.444 477.868 115.641ZM470.734 113.483C470.694 110.965 469.795 108.947 468.036 107.428C466.278 105.909 464.099 105.15 461.502 105.15C459.143 105.15 457.125 105.909 455.447 107.428C453.768 108.907 452.769 110.925 452.449 113.483H470.734ZM501.26 99.3945C503.858 99.3945 506.176 99.934 508.214 101.013C510.292 102.092 511.911 103.691 513.07 105.809C514.229 107.927 514.808 110.485 514.808 113.483V132.967H508.034V114.502C508.034 111.544 507.295 109.286 505.816 107.728C504.337 106.129 502.319 105.33 499.761 105.33C497.203 105.33 495.165 106.129 493.646 107.728C492.167 109.286 491.428 111.544 491.428 114.502V132.967H484.594V99.934H491.428V103.711C492.547 102.352 493.966 101.293 495.684 100.534C497.443 99.7742 499.301 99.3945 501.26 99.3945ZM531.499 105.509V123.794C531.499 125.033 531.779 125.932 532.339 126.492C532.938 127.012 533.937 127.271 535.336 127.271H539.533V132.967H534.137C531.06 132.967 528.702 132.247 527.063 130.808C525.424 129.37 524.605 127.031 524.605 123.794V105.509H520.708V99.934H524.605V91.7208H531.499V99.934H539.533V105.509H531.499ZM575.253 105.509H569.138V132.967H562.244V105.509H558.347V99.934H562.244V97.596C562.244 93.7991 563.243 91.0414 565.242 89.3228C567.28 87.5643 570.457 86.685 574.774 86.685V92.3803C572.695 92.3803 571.237 92.78 570.397 93.5793C569.558 94.3387 569.138 95.6776 569.138 97.596V99.934H575.253V105.509ZM595.638 133.506C592.521 133.506 589.703 132.807 587.185 131.408C584.667 129.969 582.689 127.971 581.25 125.413C579.811 122.815 579.092 119.817 579.092 116.42C579.092 113.063 579.831 110.086 581.31 107.488C582.789 104.89 584.807 102.892 587.365 101.493C589.923 100.094 592.781 99.3945 595.938 99.3945C599.095 99.3945 601.953 100.094 604.511 101.493C607.069 102.892 609.087 104.89 610.566 107.488C612.044 110.086 612.784 113.063 612.784 116.42C612.784 119.778 612.025 122.755 610.506 125.353C608.987 127.951 606.909 129.969 604.271 131.408C601.673 132.807 598.796 133.506 595.638 133.506ZM595.638 127.571C597.397 127.571 599.035 127.151 600.554 126.312C602.113 125.473 603.372 124.214 604.331 122.535C605.29 120.857 605.77 118.818 605.77 116.42C605.77 114.022 605.31 112.004 604.391 110.365C603.472 108.687 602.253 107.428 600.734 106.588C599.215 105.749 597.577 105.33 595.818 105.33C594.059 105.33 592.421 105.749 590.902 106.588C589.423 107.428 588.244 108.687 587.365 110.365C586.486 112.004 586.046 114.022 586.046 116.42C586.046 119.977 586.945 122.735 588.744 124.693C590.582 126.612 592.88 127.571 595.638 127.571ZM626.374 104.73C627.373 103.051 628.692 101.753 630.331 100.833C632.01 99.8741 633.988 99.3945 636.266 99.3945V106.469H634.528C631.85 106.469 629.811 107.148 628.413 108.507C627.054 109.866 626.374 112.224 626.374 115.581V132.967H619.54V99.934H626.374V104.73ZM666.095 105.509V123.794C666.095 125.033 666.374 125.932 666.934 126.492C667.533 127.012 668.533 127.271 669.931 127.271H674.128V132.967H668.732C665.655 132.967 663.297 132.247 661.658 130.808C660.02 129.37 659.2 127.031 659.2 123.794V105.509H655.304V99.934H659.2V91.7208H666.095V99.934H674.128V105.509H666.095ZM697.513 99.3945C700.031 99.3945 702.269 99.934 704.227 101.013C706.225 102.092 707.784 103.691 708.903 105.809C710.062 107.927 710.642 110.485 710.642 113.483V132.967H703.867V114.502C703.867 111.544 703.128 109.286 701.649 107.728C700.17 106.129 698.152 105.33 695.594 105.33C693.036 105.33 690.998 106.129 689.479 107.728C688.001 109.286 687.261 111.544 687.261 114.502V132.967H680.427V88.6034H687.261V103.771C688.42 102.372 689.879 101.293 691.638 100.534C693.436 99.7742 695.394 99.3945 697.513 99.3945ZM749.634 115.641C749.634 116.88 749.554 117.999 749.394 118.998H724.155C724.355 121.636 725.334 123.754 727.093 125.353C728.851 126.952 731.01 127.751 733.567 127.751C737.244 127.751 739.842 126.212 741.361 123.135H748.735C747.736 126.172 745.917 128.67 743.279 130.628C740.682 132.547 737.444 133.506 733.567 133.506C730.41 133.506 727.572 132.807 725.055 131.408C722.577 129.969 720.618 127.971 719.179 125.413C717.781 122.815 717.081 119.817 717.081 116.42C717.081 113.023 717.761 110.046 719.119 107.488C720.518 104.89 722.457 102.892 724.935 101.493C727.453 100.094 730.33 99.3945 733.567 99.3945C736.685 99.3945 739.463 100.074 741.901 101.433C744.339 102.792 746.237 104.71 747.596 107.188C748.955 109.626 749.634 112.444 749.634 115.641ZM742.5 113.483C742.46 110.965 741.561 108.947 739.802 107.428C738.044 105.909 735.866 105.15 733.268 105.15C730.91 105.15 728.891 105.909 727.213 107.428C725.534 108.907 724.535 110.925 724.215 113.483H742.5ZM786.261 133.506C783.143 133.506 780.326 132.807 777.808 131.408C775.29 129.969 773.312 127.971 771.873 125.413C770.434 122.815 769.715 119.817 769.715 116.42C769.715 113.063 770.454 110.086 771.933 107.488C773.412 104.89 775.43 102.892 777.988 101.493C780.546 100.094 783.403 99.3945 786.561 99.3945C789.718 99.3945 792.576 100.094 795.133 101.493C797.691 102.892 799.71 104.89 801.188 107.488C802.667 110.086 803.407 113.063 803.407 116.42C803.407 119.778 802.647 122.755 801.129 125.353C799.61 127.951 797.532 129.969 794.894 131.408C792.296 132.807 789.418 133.506 786.261 133.506ZM786.261 127.571C788.019 127.571 789.658 127.151 791.177 126.312C792.735 125.473 793.994 124.214 794.954 122.535C795.913 120.857 796.392 118.818 796.392 116.42C796.392 114.022 795.933 112.004 795.014 110.365C794.094 108.687 792.875 107.428 791.357 106.588C789.838 105.749 788.199 105.33 786.441 105.33C784.682 105.33 783.044 105.749 781.525 106.588C780.046 107.428 778.867 108.687 777.988 110.365C777.108 112.004 776.669 114.022 776.669 116.42C776.669 119.977 777.568 122.735 779.367 124.693C781.205 126.612 783.503 127.571 786.261 127.571ZM816.997 104.73C817.996 103.051 819.315 101.753 820.954 100.833C822.632 99.8741 824.611 99.3945 826.889 99.3945V106.469H825.15C822.473 106.469 820.434 107.148 819.035 108.507C817.677 109.866 816.997 112.224 816.997 115.581V132.967H810.163V99.934H816.997V104.73ZM830.893 116.3C830.893 112.983 831.572 110.046 832.931 107.488C834.33 104.93 836.208 102.952 838.566 101.553C840.964 100.114 843.622 99.3945 846.54 99.3945C848.698 99.3945 850.816 99.8741 852.895 100.833C855.013 101.753 856.691 102.991 857.93 104.55V88.6034H864.825V132.967H857.93V127.991C856.811 129.589 855.253 130.908 853.254 131.947C851.296 132.987 849.038 133.506 846.48 133.506C843.602 133.506 840.964 132.787 838.566 131.348C836.208 129.869 834.33 127.831 832.931 125.233C831.572 122.595 830.893 119.618 830.893 116.3ZM857.93 116.42C857.93 114.142 857.451 112.164 856.492 110.485C855.572 108.807 854.353 107.528 852.835 106.648C851.316 105.769 849.677 105.33 847.919 105.33C846.16 105.33 844.522 105.769 843.003 106.648C841.484 107.488 840.245 108.747 839.286 110.425C838.367 112.064 837.907 114.022 837.907 116.3C837.907 118.579 838.367 120.577 839.286 122.295C840.245 124.014 841.484 125.333 843.003 126.252C844.561 127.131 846.2 127.571 847.919 127.571C849.677 127.571 851.316 127.131 852.835 126.252C854.353 125.373 855.572 124.094 856.492 122.415C857.451 120.697 857.93 118.698 857.93 116.42ZM904.076 115.641C904.076 116.88 903.996 117.999 903.836 118.998H878.597C878.797 121.636 879.776 123.754 881.535 125.353C883.293 126.952 885.452 127.751 888.009 127.751C891.686 127.751 894.284 126.212 895.803 123.135H903.177C902.178 126.172 900.359 128.67 897.721 130.628C895.123 132.547 891.886 133.506 888.009 133.506C884.852 133.506 882.014 132.807 879.496 131.408C877.019 129.969 875.06 127.971 873.621 125.413C872.223 122.815 871.523 119.817 871.523 116.42C871.523 113.023 872.203 110.046 873.561 107.488C874.96 104.89 876.899 102.892 879.377 101.493C881.894 100.094 884.772 99.3945 888.009 99.3945C891.127 99.3945 893.904 100.074 896.342 101.433C898.78 102.792 900.679 104.71 902.038 107.188C903.397 109.626 904.076 112.444 904.076 115.641ZM896.942 113.483C896.902 110.965 896.003 108.947 894.244 107.428C892.486 105.909 890.307 105.15 887.71 105.15C885.352 105.15 883.333 105.909 881.655 107.428C879.976 108.907 878.977 110.925 878.657 113.483H896.942ZM917.636 104.73C918.635 103.051 919.954 101.753 921.593 100.833C923.271 99.8741 925.25 99.3945 927.528 99.3945V106.469H925.789C923.111 106.469 921.073 107.148 919.674 108.507C918.315 109.866 917.636 112.224 917.636 115.581V132.967H910.802V99.934H917.636V104.73Z" fill="#0A2540" fill-opacity="0.9"/>
<g clip-path="url(#clip0_2307_16026)">
<g filter="url(#filter0_ddd_2307_16026)">
<path d="M68.9517 227.504C68.9517 217.7 76.8998 209.752 86.7042 209.752H1110.24C1120.04 209.752 1127.99 217.7 1127.99 227.504V271.436C1127.99 281.24 1120.04 289.188 1110.24 289.188H86.7043C76.8999 289.188 68.9517 281.24 68.9517 271.436V227.504Z" fill="white"/>
</g>
<path d="M567.625 234.79C568.728 233.411 569.476 231.559 569.279 229.667C567.664 229.747 565.695 230.732 564.554 232.112C563.53 233.294 562.624 235.224 562.86 237.037C564.672 237.194 566.482 236.131 567.625 234.79Z" fill="black"/>
<path d="M569.256 237.389C566.625 237.232 564.388 238.882 563.132 238.882C561.875 238.882 559.951 237.468 557.87 237.506C555.161 237.546 552.648 239.077 551.274 241.513C548.447 246.385 550.528 253.613 553.277 257.581C554.612 259.544 556.221 261.706 558.341 261.628C560.344 261.55 561.129 260.331 563.564 260.331C565.997 260.331 566.704 261.628 568.824 261.589C571.023 261.55 572.398 259.625 573.733 257.66C575.264 255.422 575.891 253.261 575.931 253.142C575.891 253.103 571.691 251.491 571.652 246.659C571.612 242.613 574.95 240.689 575.107 240.57C573.222 237.782 570.277 237.468 569.256 237.389Z" fill="black"/>
<path d="M595.488 231.917C601.206 231.917 605.189 235.858 605.189 241.597C605.189 247.356 601.125 251.319 595.345 251.319H589.014V261.387H584.439V231.917H595.488ZM589.014 247.479H594.263C598.245 247.479 600.512 245.335 600.512 241.618C600.512 237.901 598.245 235.777 594.283 235.777H589.014V247.479Z" fill="black"/>
<path d="M606.321 255.28C606.321 251.501 609.201 249.337 614.51 249.01L620.208 248.662V247.029C620.208 244.639 618.636 243.332 615.838 243.332C613.53 243.332 611.855 244.517 611.508 246.334H607.383C607.506 242.515 611.1 239.738 615.96 239.738C621.189 239.738 624.599 242.475 624.599 246.722V261.386H620.372V257.853H620.27C619.065 260.161 616.41 261.61 613.53 261.61C609.282 261.61 606.321 259.078 606.321 255.28ZM620.208 253.38V251.726L615.123 252.053C612.264 252.236 610.773 253.298 610.773 255.157C610.773 256.954 612.325 258.119 614.755 258.119C617.86 258.119 620.208 256.137 620.208 253.38Z" fill="black"/>
<path d="M628.487 269.269V265.736C628.773 265.776 629.467 265.817 629.834 265.817C631.857 265.817 633 264.96 633.695 262.754L634.103 261.447L626.363 240.003H631.142L636.533 257.403H636.635L642.027 240.003H646.684L638.657 262.529C636.819 267.696 634.716 269.391 630.263 269.391C629.916 269.391 628.793 269.351 628.487 269.269Z" fill="black"/>
<g filter="url(#filter1_ddd_2307_16026)">
<path d="M68.9517 325.586C68.9517 315.782 76.8998 307.834 86.7042 307.834H1110.24C1120.04 307.834 1127.99 315.782 1127.99 325.586V369.517C1127.99 379.322 1120.04 387.27 1110.24 387.27H86.7043C76.8999 387.27 68.9517 379.322 68.9517 369.517V325.586Z" fill="white"/>
</g>
<path fill-rule="evenodd" clip-rule="evenodd" d="M595.64 333.583V343.62H601.902C603.396 343.62 604.629 343.123 605.604 342.133C606.606 341.144 607.108 339.965 607.108 338.6C607.108 337.263 606.606 336.096 605.604 335.104C604.629 334.087 603.394 333.58 601.904 333.58H595.64V333.583ZM595.64 347.153V358.798H591.898V330.047H601.821C604.345 330.047 606.483 330.88 608.247 332.537C610.036 334.195 610.93 336.219 610.93 338.6C610.93 341.036 610.036 343.072 608.247 344.701C606.51 346.338 604.369 347.151 601.821 347.151H595.64V347.153V347.153ZM614.713 352.774C614.713 353.739 615.125 354.543 615.953 355.185C616.784 355.828 617.81 356.168 618.861 356.147C620.434 356.147 621.835 355.572 623.07 354.423C624.302 353.271 624.92 351.919 624.92 350.368C623.751 349.456 622.127 349.003 620.039 349.003C618.52 349.003 617.251 349.366 616.237 350.089C615.22 350.811 614.713 351.706 614.713 352.774ZM619.552 338.48C622.32 338.48 624.501 339.21 626.103 340.668C627.701 342.128 628.499 344.13 628.499 346.671V358.798H624.922V356.067H624.758C623.215 358.316 621.152 359.44 618.577 359.44C616.381 359.44 614.542 358.798 613.067 357.512C611.589 356.228 610.849 354.621 610.849 352.695C610.849 350.659 611.628 349.042 613.187 347.837C614.747 346.632 616.827 346.029 619.429 346.029C621.652 346.029 623.482 346.431 624.917 347.234V346.389C624.917 345.105 624.403 344.012 623.374 343.118C622.378 342.233 621.087 341.753 619.755 341.771C617.665 341.771 616.014 342.643 614.794 344.385L611.496 342.332C613.314 339.762 615.997 338.478 619.549 338.478L619.552 338.48ZM649.038 339.122L636.55 367.469H632.689L637.324 357.551L629.109 339.122H633.176L639.113 353.259H639.196L644.971 339.122H649.038Z" fill="black"/>
<path fill-rule="evenodd" clip-rule="evenodd" d="M580.521 344.646C580.521 343.485 580.423 342.362 580.232 341.289H564.454V347.65H573.492C573.305 348.67 572.912 349.641 572.337 350.504C571.763 351.368 571.019 352.105 570.15 352.672V356.803H575.543C578.703 353.927 580.521 349.673 580.521 344.646" fill="#4285F4"/>
<path fill-rule="evenodd" clip-rule="evenodd" d="M564.454 360.794C568.969 360.794 572.771 359.329 575.542 356.805L570.15 352.672C568.648 353.672 566.715 354.255 564.454 354.255C560.088 354.255 556.383 351.349 555.06 347.434H549.504V351.692C550.914 354.44 553.057 356.744 555.696 358.35C558.334 359.956 561.365 360.802 564.454 360.794" fill="#34A853"/>
<path fill-rule="evenodd" clip-rule="evenodd" d="M555.059 347.426C554.362 345.377 554.362 343.154 555.059 341.105V336.844H549.503C548.328 339.141 547.717 341.684 547.719 344.263C547.717 346.842 548.328 349.385 549.503 351.682L555.059 347.424V347.426Z" fill="#FABB05"/>
<path fill-rule="evenodd" clip-rule="evenodd" d="M564.454 334.289C566.919 334.289 569.129 335.127 570.873 336.766V336.769L575.648 332.055C572.747 329.389 568.965 327.75 564.452 327.75C561.363 327.742 558.333 328.588 555.695 330.194C553.057 331.801 550.915 334.105 549.504 336.852L555.061 341.108C556.384 337.195 560.088 334.289 564.454 334.289Z" fill="#E94235"/>
<g filter="url(#filter2_ddd_2307_16026)">
<rect x="68.9544" y="405.916" width="1059.12" height="197.836" rx="17.7525" fill="white"/>
<rect x="70.0639" y="407.026" width="1056.9" height="195.616" rx="16.643" stroke="#0A2540" stroke-opacity="0.1" stroke-width="2.21907"/>
</g>
<path fill-rule="evenodd" clip-rule="evenodd" d="M1063.92 504.257L1044.78 523.19L1047.93 526.307L1070.16 504.218L1047.93 482.176L1044.79 485.296L1063.92 504.257Z" fill="#0A2540" fill-opacity="0.5"/>
<path d="M256.765 491.038H245.556V461.25H256.086C258.633 461.25 260.683 461.942 262.234 463.325C263.798 464.708 264.581 466.557 264.581 468.871C264.581 471.767 263.281 473.914 260.683 475.31C262.402 475.879 263.714 476.79 264.619 478.044C265.524 479.285 265.977 480.785 265.977 482.543C265.977 485.116 265.143 487.178 263.475 488.73C261.781 490.268 259.545 491.038 256.765 491.038ZM255.757 465.07H249.997V473.72H255.795C257.14 473.72 258.213 473.325 259.015 472.537C259.816 471.735 260.217 470.662 260.217 469.317C260.217 468.024 259.81 466.997 258.995 466.234C258.181 465.458 257.101 465.07 255.757 465.07ZM256.591 477.656H249.997V487.217H256.629C258.09 487.217 259.26 486.797 260.14 485.957C261.032 485.103 261.478 483.966 261.478 482.543C261.478 481.082 261.032 479.906 260.14 479.014C259.26 478.109 258.077 477.656 256.591 477.656ZM286.824 491.038H283.12L282.926 487.818C282.151 488.943 281.155 489.822 279.94 490.456C278.737 491.076 277.432 491.387 276.022 491.387C274.161 491.387 272.642 490.876 271.465 489.855C270.289 488.833 269.7 487.456 269.7 485.724C269.7 483.759 270.418 482.298 271.853 481.341C273.236 480.423 275.059 479.699 277.322 479.169L282.771 477.967C282.616 476.79 282.151 475.911 281.375 475.329C280.599 474.734 279.584 474.437 278.33 474.437C275.602 474.437 273.973 475.575 273.443 477.85L269.662 477.133C269.985 475.284 270.941 473.791 272.532 472.653C274.122 471.515 276.132 470.946 278.563 470.946C281.097 470.946 283.107 471.632 284.594 473.002C286.081 474.36 286.824 476.202 286.824 478.529V491.038ZM273.831 485.433C273.831 486.222 274.083 486.836 274.587 487.275C275.105 487.715 275.809 487.935 276.701 487.935C277.761 487.935 278.744 487.708 279.649 487.256C280.567 486.803 281.33 486.086 281.937 485.103C282.545 484.121 282.849 482.951 282.849 481.593V481.147L277.399 482.427C276.197 482.712 275.298 483.08 274.704 483.532C274.122 483.985 273.831 484.618 273.831 485.433ZM296.676 491.038H292.584V471.295H296.385L296.56 473.72C298.15 471.871 300.186 470.946 302.669 470.946C304.905 470.946 306.754 471.664 308.215 473.099C309.676 474.534 310.406 476.557 310.406 479.169V491.038H306.276V479.712C306.276 478.122 305.849 476.9 304.996 476.047C304.155 475.181 303.063 474.747 301.718 474.747C301.059 474.747 300.438 474.844 299.857 475.038C299.288 475.232 298.758 475.53 298.266 475.93C297.775 476.331 297.387 476.881 297.103 477.579C296.818 478.277 296.676 479.085 296.676 480.003V491.038ZM322.43 478.122L328.558 471.295H333.445L325.611 479.964L333.872 491.038H328.946L322.314 482.097H320.219V491.038H316.127V461.25H320.219V478.122H322.43ZM349.677 476.144C349.677 477.669 349.897 479.104 350.337 480.449C350.776 481.781 351.403 482.957 352.218 483.979C353.045 485 354.092 485.808 355.359 486.403C356.639 486.997 358.055 487.295 359.607 487.295C362.089 487.295 364.132 486.61 365.735 485.239C367.286 483.92 368.288 482.265 368.741 480.274L373.027 481.457C372.328 484.457 370.764 486.862 368.333 488.672C365.903 490.482 362.981 491.387 359.568 491.387C357.331 491.387 355.288 490.992 353.44 490.204C351.604 489.415 350.072 488.335 348.843 486.965C347.628 485.595 346.691 483.985 346.031 482.136C345.372 480.274 345.042 478.277 345.042 476.144C345.042 474.023 345.378 472.039 346.051 470.19C346.723 468.341 347.673 466.732 348.902 465.361C350.13 463.978 351.675 462.892 353.537 462.103C355.398 461.302 357.46 460.901 359.723 460.901C363.162 460.901 366.026 461.799 368.314 463.596C370.564 465.368 372.031 467.721 372.716 470.655L368.469 471.858C368.043 469.815 367.047 468.16 365.483 466.893C363.931 465.626 361.972 464.993 359.607 464.993C357.59 464.993 355.812 465.51 354.273 466.544C352.748 467.578 351.597 468.936 350.821 470.617C350.059 472.285 349.677 474.127 349.677 476.144ZM393.525 491.038H389.821L389.627 487.818C388.851 488.943 387.856 489.822 386.64 490.456C385.438 491.076 384.132 491.387 382.723 491.387C380.861 491.387 379.342 490.876 378.166 489.855C376.989 488.833 376.401 487.456 376.401 485.724C376.401 483.759 377.118 482.298 378.554 481.341C379.937 480.423 381.76 479.699 384.022 479.169L389.472 477.967C389.317 476.79 388.851 475.911 388.076 475.329C387.3 474.734 386.285 474.437 385.031 474.437C382.303 474.437 380.674 475.575 380.144 477.85L376.362 477.133C376.685 475.284 377.642 473.791 379.232 472.653C380.823 471.515 382.833 470.946 385.264 470.946C387.798 470.946 389.808 471.632 391.295 473.002C392.782 474.36 393.525 476.202 393.525 478.529V491.038ZM380.532 485.433C380.532 486.222 380.784 486.836 381.288 487.275C381.805 487.715 382.51 487.935 383.402 487.935C384.462 487.935 385.445 487.708 386.35 487.256C387.268 486.803 388.03 486.086 388.638 485.103C389.246 484.121 389.549 482.951 389.549 481.593V481.147L384.1 482.427C382.898 482.712 381.999 483.08 381.404 483.532C380.823 483.985 380.532 484.618 380.532 485.433ZM403.377 491.038H399.285V471.295H403.163L403.377 473.991C403.971 473.06 404.754 472.33 405.723 471.8C406.693 471.257 407.805 470.985 409.059 470.985C409.641 470.985 410.287 471.076 410.998 471.257L410.436 475.271C409.802 475.09 409.13 475 408.419 475C407.01 475 405.814 475.517 404.831 476.551C403.862 477.585 403.377 478.988 403.377 480.759V491.038ZM433.184 461.25V491.038H429.344L429.189 488.303C428.387 489.286 427.411 490.049 426.26 490.592C425.123 491.122 423.888 491.387 422.556 491.387C419.764 491.387 417.45 490.417 415.614 488.478C413.778 486.538 412.86 484.095 412.86 481.147C412.86 478.212 413.778 475.782 415.614 473.855C417.463 471.916 419.777 470.946 422.556 470.946C425.142 470.946 427.308 471.923 429.053 473.875V461.25H433.184ZM423.099 474.709C421.354 474.709 419.925 475.31 418.814 476.512C417.702 477.702 417.146 479.247 417.146 481.147C417.146 483.061 417.702 484.618 418.814 485.821C419.925 487.023 421.354 487.624 423.099 487.624C424.858 487.624 426.286 487.023 427.385 485.821C428.497 484.618 429.053 483.061 429.053 481.147C429.053 479.234 428.504 477.682 427.405 476.493C426.306 475.303 424.871 474.709 423.099 474.709Z" fill="#0A2540"/>
<path d="M247.89 543.815H245.175V518.992H248.197L257.004 530.208L265.667 518.992H268.689V543.815H265.974V522.839L257.231 534.022H256.6L247.89 522.903V543.815ZM287.662 543.815H285.286L285.205 540.664C284.526 541.731 283.643 542.566 282.555 543.169C281.477 543.772 280.314 544.074 279.064 544.074C277.523 544.074 276.279 543.67 275.331 542.862C274.393 542.054 273.925 540.96 273.925 539.581C273.925 538.019 274.523 536.839 275.719 536.042C276.871 535.288 278.439 534.658 280.421 534.151L285.14 533.052C285.033 531.889 284.602 531.005 283.848 530.402C283.104 529.788 282.134 529.481 280.939 529.481C279.721 529.481 278.714 529.761 277.917 530.321C277.13 530.881 276.597 531.695 276.317 532.761L273.925 532.293C274.237 530.752 275.034 529.529 276.317 528.624C277.599 527.719 279.172 527.267 281.036 527.267C283.072 527.267 284.683 527.827 285.868 528.947C287.064 530.057 287.662 531.571 287.662 533.489V543.815ZM276.607 539.355C276.607 540.109 276.855 540.718 277.351 541.181C277.857 541.634 278.547 541.86 279.419 541.86C280.971 541.86 282.318 541.289 283.46 540.147C284.602 539.005 285.173 537.459 285.173 535.509V535.137L280.421 536.301C279.129 536.635 278.17 537.033 277.545 537.497C276.92 537.96 276.607 538.579 276.607 539.355ZM298.037 544.074C296.076 544.074 294.514 543.638 293.35 542.765C292.197 541.882 291.475 540.653 291.185 539.08L293.786 538.547C293.937 539.581 294.384 540.4 295.128 541.003C295.871 541.596 296.884 541.892 298.166 541.892C299.308 541.892 300.219 541.666 300.897 541.214C301.587 540.761 301.932 540.104 301.932 539.242C301.932 539.026 301.91 538.827 301.867 538.644C301.824 538.45 301.743 538.283 301.625 538.143C301.506 537.992 301.393 537.863 301.285 537.755C301.188 537.647 301.027 537.545 300.8 537.448C300.585 537.351 300.407 537.276 300.267 537.222C300.138 537.168 299.922 537.109 299.621 537.044C299.33 536.969 299.109 536.915 298.958 536.882C298.818 536.85 298.57 536.802 298.215 536.737C297.859 536.672 297.611 536.629 297.471 536.608C297.051 536.521 296.739 536.462 296.534 536.43C296.34 536.387 296.044 536.317 295.645 536.22C295.257 536.123 294.961 536.037 294.756 535.961C294.551 535.875 294.287 535.762 293.964 535.622C293.641 535.471 293.388 535.32 293.205 535.169C293.032 535.019 292.838 534.835 292.623 534.62C292.407 534.394 292.24 534.151 292.122 533.893C292.014 533.634 291.923 533.338 291.847 533.004C291.772 532.659 291.734 532.293 291.734 531.905C291.734 530.558 292.294 529.448 293.415 528.576C294.535 527.703 296.006 527.267 297.827 527.267C299.604 527.267 301.043 527.649 302.142 528.414C303.241 529.168 303.919 530.219 304.178 531.565L301.673 532.066C301.264 530.278 299.971 529.384 297.794 529.384C296.695 529.384 295.85 529.605 295.257 530.046C294.675 530.488 294.384 531.075 294.384 531.808C294.384 532.681 294.794 533.262 295.613 533.553C296.464 533.855 297.412 534.097 298.457 534.281C298.92 534.367 299.243 534.431 299.427 534.474C299.621 534.507 299.933 534.577 300.364 534.685C300.806 534.781 301.129 534.868 301.334 534.943C301.538 535.019 301.818 535.132 302.174 535.282C302.54 535.433 302.815 535.584 302.998 535.735C303.181 535.886 303.391 536.08 303.628 536.317C303.876 536.554 304.059 536.802 304.178 537.06C304.296 537.319 304.399 537.626 304.485 537.981C304.571 538.326 304.614 538.703 304.614 539.113C304.614 540.578 304.038 541.774 302.885 542.7C301.743 543.616 300.127 544.074 298.037 544.074ZM306.15 529.788V529.158L310.982 524.649H311.58V527.525H317.672V529.788H311.58V538.789C311.58 539.791 311.811 540.529 312.275 541.003C312.749 541.467 313.465 541.698 314.424 541.698C315.103 541.698 315.932 541.51 316.913 541.133L317.511 543.282C316.282 543.81 315.124 544.074 314.036 544.074C312.431 544.074 311.186 543.648 310.303 542.797C309.419 541.946 308.978 540.75 308.978 539.21V529.788H306.15ZM319.595 535.573C319.595 533.171 320.366 531.188 321.906 529.626C323.447 528.053 325.392 527.267 327.741 527.267C330.068 527.267 331.953 527.972 333.397 529.384C334.851 530.806 335.579 532.637 335.579 534.878C335.579 534.889 335.546 535.331 335.482 536.204H322.246C322.386 538.024 322.941 539.409 323.91 540.357C324.891 541.294 326.189 541.763 327.805 541.763C329.238 541.763 330.407 541.461 331.312 540.858C332.217 540.244 332.815 539.398 333.106 538.321L335.482 538.789C335.137 540.384 334.264 541.666 332.864 542.636C331.463 543.595 329.777 544.074 327.805 544.074C325.327 544.074 323.339 543.282 321.842 541.698C320.344 540.104 319.595 538.062 319.595 535.573ZM331.409 530.757C330.429 529.906 329.206 529.481 327.741 529.481C326.275 529.481 325.036 529.912 324.024 530.774C323.011 531.625 322.44 532.718 322.31 534.054H333.009C332.923 532.708 332.389 531.609 331.409 530.757ZM342.35 543.815H339.764V527.525H342.318L342.382 530.111C342.856 529.238 343.519 528.549 344.37 528.042C345.232 527.525 346.212 527.267 347.311 527.267C347.861 527.267 348.4 527.342 348.927 527.493L348.54 530.046C348.012 529.896 347.457 529.82 346.875 529.82C345.593 529.82 344.516 530.31 343.643 531.291C342.781 532.271 342.35 533.623 342.35 535.347V543.815ZM354.891 531.275C353.835 532.363 353.307 533.796 353.307 535.573C353.307 537.351 353.824 538.816 354.858 539.969C355.871 541.122 357.186 541.698 358.802 541.698C360.17 541.698 361.301 541.337 362.196 540.616C363.09 539.883 363.666 538.908 363.925 537.69L366.414 538.127C366.123 539.818 365.282 541.23 363.892 542.361C362.524 543.503 360.827 544.074 358.802 544.074C356.431 544.074 354.471 543.271 352.919 541.666C351.368 540.05 350.592 538.019 350.592 535.573C350.592 533.182 351.373 531.199 352.935 529.626C354.498 528.053 356.453 527.267 358.802 527.267C360.763 527.267 362.406 527.784 363.731 528.818C365.067 529.852 365.929 531.242 366.317 532.988L363.795 533.456C363.505 532.293 362.923 531.366 362.05 530.677C361.188 529.987 360.116 529.642 358.834 529.642C357.218 529.642 355.904 530.186 354.891 531.275ZM382.591 543.815H380.215L380.134 540.664C379.455 541.731 378.572 542.566 377.484 543.169C376.406 543.772 375.243 544.074 373.993 544.074C372.452 544.074 371.208 543.67 370.26 542.862C369.322 542.054 368.854 540.96 368.854 539.581C368.854 538.019 369.452 536.839 370.648 536.042C371.8 535.288 373.368 534.658 375.35 534.151L380.069 533.052C379.962 531.889 379.531 531.005 378.777 530.402C378.033 529.788 377.064 529.481 375.868 529.481C374.65 529.481 373.643 529.761 372.846 530.321C372.059 530.881 371.526 531.695 371.246 532.761L368.854 532.293C369.166 530.752 369.964 529.529 371.246 528.624C372.528 527.719 374.101 527.267 375.965 527.267C378.001 527.267 379.612 527.827 380.797 528.947C381.993 530.057 382.591 531.571 382.591 533.489V543.815ZM371.537 539.355C371.537 540.109 371.784 540.718 372.28 541.181C372.786 541.634 373.476 541.86 374.349 541.86C375.9 541.86 377.247 541.289 378.389 540.147C379.531 539.005 380.102 537.459 380.102 535.509V535.137L375.35 536.301C374.058 536.635 373.099 537.033 372.474 537.497C371.849 537.96 371.537 538.579 371.537 539.355ZM390.283 543.815H387.697V527.525H390.251L390.315 530.111C390.79 529.238 391.452 528.549 392.303 528.042C393.165 527.525 394.146 527.267 395.245 527.267C395.794 527.267 396.333 527.342 396.861 527.493L396.473 530.046C395.945 529.896 395.39 529.82 394.808 529.82C393.526 529.82 392.449 530.31 391.576 531.291C390.714 532.271 390.283 533.623 390.283 535.347V543.815ZM414.945 518.992V543.815H412.456L412.391 541.165C411.702 542.092 410.851 542.808 409.838 543.314C408.836 543.821 407.737 544.074 406.541 544.074C404.235 544.074 402.323 543.282 400.804 541.698C399.285 540.104 398.525 538.084 398.525 535.638C398.525 533.225 399.285 531.226 400.804 529.642C402.323 528.059 404.235 527.267 406.541 527.267C407.715 527.267 408.804 527.52 409.805 528.026C410.818 528.522 411.669 529.217 412.359 530.111V518.992H414.945ZM406.8 529.642C405.173 529.642 403.848 530.197 402.824 531.307C401.768 532.427 401.24 533.871 401.24 535.638C401.24 537.426 401.768 538.881 402.824 540.001C403.837 541.133 405.162 541.698 406.8 541.698C408.448 541.698 409.784 541.138 410.807 540.018C411.842 538.886 412.359 537.426 412.359 535.638C412.359 533.86 411.842 532.417 410.807 531.307C409.784 530.197 408.448 529.642 406.8 529.642ZM423.381 540.502L420.811 548.777H418.678L420.245 540.502H423.381ZM438.653 543.815H435.938V518.992H438.96L447.767 530.208L456.43 518.992H459.452V543.815H456.737V522.839L447.994 534.022H447.363L438.653 522.903V543.815ZM478.425 543.815H476.049L475.968 540.664C475.289 541.731 474.406 542.566 473.318 543.169C472.24 543.772 471.077 544.074 469.827 544.074C468.286 544.074 467.042 543.67 466.094 542.862C465.157 542.054 464.688 540.96 464.688 539.581C464.688 538.019 465.286 536.839 466.482 536.042C467.635 535.288 469.202 534.658 471.185 534.151L475.904 533.052C475.796 531.889 475.365 531.005 474.611 530.402C473.867 529.788 472.898 529.481 471.702 529.481C470.484 529.481 469.477 529.761 468.68 530.321C467.893 530.881 467.36 531.695 467.08 532.761L464.688 532.293C465 530.752 465.798 529.529 467.08 528.624C468.362 527.719 469.935 527.267 471.799 527.267C473.835 527.267 475.446 527.827 476.631 528.947C477.827 530.057 478.425 531.571 478.425 533.489V543.815ZM467.371 539.355C467.371 540.109 467.618 540.718 468.114 541.181C468.62 541.634 469.31 541.86 470.183 541.86C471.734 541.86 473.081 541.289 474.223 540.147C475.365 539.005 475.936 537.459 475.936 535.509V535.137L471.185 536.301C469.892 536.635 468.933 537.033 468.308 537.497C467.683 537.96 467.371 538.579 467.371 539.355ZM482.239 535.573C482.239 533.171 483.009 531.188 484.55 529.626C486.09 528.053 488.035 527.267 490.384 527.267C492.711 527.267 494.596 527.972 496.04 529.384C497.494 530.806 498.222 532.637 498.222 534.878C498.222 534.889 498.189 535.331 498.125 536.204H484.889C485.029 538.024 485.584 539.409 486.554 540.357C487.534 541.294 488.832 541.763 490.448 541.763C491.881 541.763 493.05 541.461 493.955 540.858C494.86 540.244 495.458 539.398 495.749 538.321L498.125 538.789C497.78 540.384 496.907 541.666 495.507 542.636C494.106 543.595 492.42 544.074 490.448 544.074C487.97 544.074 485.983 543.282 484.485 541.698C482.987 540.104 482.239 538.062 482.239 535.573ZM494.052 530.757C493.072 529.906 491.849 529.481 490.384 529.481C488.918 529.481 487.679 529.912 486.667 530.774C485.654 531.625 485.083 532.718 484.954 534.054H495.652C495.566 532.708 495.033 531.609 494.052 530.757ZM507.676 544.074C505.715 544.074 504.153 543.638 502.989 542.765C501.836 541.882 501.115 540.653 500.824 539.08L503.426 538.547C503.576 539.581 504.023 540.4 504.767 541.003C505.51 541.596 506.523 541.892 507.805 541.892C508.947 541.892 509.858 541.666 510.536 541.214C511.226 540.761 511.571 540.104 511.571 539.242C511.571 539.026 511.549 538.827 511.506 538.644C511.463 538.45 511.382 538.283 511.264 538.143C511.145 537.992 511.032 537.863 510.924 537.755C510.827 537.647 510.666 537.545 510.439 537.448C510.224 537.351 510.046 537.276 509.906 537.222C509.777 537.168 509.561 537.109 509.26 537.044C508.969 536.969 508.748 536.915 508.597 536.882C508.457 536.85 508.209 536.802 507.854 536.737C507.498 536.672 507.25 536.629 507.11 536.608C506.69 536.521 506.378 536.462 506.173 536.43C505.979 536.387 505.683 536.317 505.284 536.22C504.896 536.123 504.6 536.037 504.395 535.961C504.19 535.875 503.927 535.762 503.603 535.622C503.28 535.471 503.027 535.32 502.844 535.169C502.671 535.019 502.477 534.835 502.262 534.62C502.046 534.394 501.879 534.151 501.761 533.893C501.653 533.634 501.562 533.338 501.486 533.004C501.411 532.659 501.373 532.293 501.373 531.905C501.373 530.558 501.933 529.448 503.054 528.576C504.174 527.703 505.645 527.267 507.466 527.267C509.243 527.267 510.682 527.649 511.781 528.414C512.88 529.168 513.558 530.219 513.817 531.565L511.312 532.066C510.903 530.278 509.61 529.384 507.433 529.384C506.334 529.384 505.489 529.605 504.896 530.046C504.314 530.488 504.023 531.075 504.023 531.808C504.023 532.681 504.433 533.262 505.252 533.553C506.103 533.855 507.051 534.097 508.096 534.281C508.559 534.367 508.883 534.431 509.066 534.474C509.26 534.507 509.572 534.577 510.003 534.685C510.445 534.781 510.768 534.868 510.973 534.943C511.177 535.019 511.457 535.132 511.813 535.282C512.179 535.433 512.454 535.584 512.637 535.735C512.82 535.886 513.03 536.08 513.267 536.317C513.515 536.554 513.698 536.802 513.817 537.06C513.935 537.319 514.038 537.626 514.124 537.981C514.21 538.326 514.253 538.703 514.253 539.113C514.253 540.578 513.677 541.774 512.524 542.7C511.382 543.616 509.766 544.074 507.676 544.074ZM515.789 529.788V529.158L520.621 524.649H521.219V527.525H527.311V529.788H521.219V538.789C521.219 539.791 521.45 540.529 521.914 541.003C522.388 541.467 523.104 541.698 524.063 541.698C524.742 541.698 525.571 541.51 526.552 541.133L527.15 543.282C525.921 543.81 524.763 544.074 523.675 544.074C522.07 544.074 520.825 543.648 519.942 542.797C519.058 541.946 518.617 540.75 518.617 539.21V529.788H515.789ZM533.113 543.815H530.527V527.525H533.081L533.145 530.111C533.619 529.238 534.282 528.549 535.133 528.042C535.995 527.525 536.976 527.267 538.074 527.267C538.624 527.267 539.163 527.342 539.691 527.493L539.303 530.046C538.775 529.896 538.22 529.82 537.638 529.82C536.356 529.82 535.279 530.31 534.406 531.291C533.544 532.271 533.113 533.623 533.113 535.347V543.815ZM543.731 529.642C545.315 528.059 547.324 527.267 549.759 527.267C552.194 527.267 554.203 528.059 555.787 529.642C557.371 531.226 558.162 533.225 558.162 535.638C558.162 538.084 557.371 540.104 555.787 541.698C554.203 543.282 552.194 544.074 549.759 544.074C547.324 544.074 545.315 543.282 543.731 541.698C542.147 540.104 541.355 538.084 541.355 535.638C541.355 533.225 542.147 531.226 543.731 529.642ZM549.759 529.642C548.121 529.642 546.764 530.197 545.686 531.307C544.609 532.417 544.07 533.86 544.07 535.638C544.07 537.437 544.609 538.892 545.686 540.001C546.753 541.133 548.11 541.698 549.759 541.698C551.396 541.698 552.765 541.133 553.864 540.001C554.93 538.87 555.464 537.416 555.464 535.638C555.464 533.882 554.93 532.438 553.864 531.307C552.754 530.197 551.386 529.642 549.759 529.642ZM565.306 540.502L562.736 548.777H560.603L562.17 540.502H565.306ZM583.535 543.815L574.663 518.992H577.636L585.345 540.632L593.021 518.992H595.947L587.01 543.815H583.535ZM602.314 521.934C602.314 522.44 602.136 522.866 601.781 523.21C601.436 523.555 601.01 523.727 600.504 523.727C599.998 523.727 599.572 523.555 599.227 523.21C598.882 522.866 598.71 522.44 598.71 521.934C598.71 521.406 598.877 520.98 599.211 520.657C599.556 520.323 599.987 520.156 600.504 520.156C601.021 520.156 601.452 520.323 601.797 520.657C602.142 520.98 602.314 521.406 602.314 521.934ZM601.797 543.815H599.211V527.525H601.797V543.815ZM612.495 544.074C610.534 544.074 608.972 543.638 607.809 542.765C606.656 541.882 605.934 540.653 605.643 539.08L608.245 538.547C608.396 539.581 608.843 540.4 609.586 541.003C610.33 541.596 611.343 541.892 612.625 541.892C613.767 541.892 614.677 541.666 615.356 541.214C616.045 540.761 616.39 540.104 616.39 539.242C616.39 539.026 616.369 538.827 616.325 538.644C616.282 538.45 616.202 538.283 616.083 538.143C615.965 537.992 615.851 537.863 615.744 537.755C615.647 537.647 615.485 537.545 615.259 537.448C615.043 537.351 614.866 537.276 614.726 537.222C614.596 537.168 614.381 537.109 614.079 537.044C613.788 536.969 613.567 536.915 613.416 536.882C613.276 536.85 613.029 536.802 612.673 536.737C612.318 536.672 612.07 536.629 611.93 536.608C611.51 536.521 611.197 536.462 610.992 536.43C610.798 536.387 610.502 536.317 610.104 536.22C609.716 536.123 609.419 536.037 609.215 535.961C609.01 535.875 608.746 535.762 608.423 535.622C608.1 535.471 607.846 535.32 607.663 535.169C607.491 535.019 607.297 534.835 607.081 534.62C606.866 534.394 606.699 534.151 606.58 533.893C606.473 533.634 606.381 533.338 606.306 533.004C606.23 532.659 606.193 532.293 606.193 531.905C606.193 530.558 606.753 529.448 607.873 528.576C608.994 527.703 610.464 527.267 612.285 527.267C614.063 527.267 615.501 527.649 616.6 528.414C617.699 529.168 618.378 530.219 618.636 531.565L616.132 532.066C615.722 530.278 614.429 529.384 612.253 529.384C611.154 529.384 610.308 529.605 609.716 530.046C609.134 530.488 608.843 531.075 608.843 531.808C608.843 532.681 609.252 533.262 610.071 533.553C610.922 533.855 611.87 534.097 612.916 534.281C613.379 534.367 613.702 534.431 613.885 534.474C614.079 534.507 614.392 534.577 614.822 534.685C615.264 534.781 615.587 534.868 615.792 534.943C615.997 535.019 616.277 535.132 616.633 535.282C616.999 535.433 617.274 535.584 617.457 535.735C617.64 535.886 617.85 536.08 618.087 536.317C618.335 536.554 618.518 536.802 618.636 537.06C618.755 537.319 618.857 537.626 618.944 537.981C619.03 538.326 619.073 538.703 619.073 539.113C619.073 540.578 618.496 541.774 617.344 542.7C616.202 543.616 614.585 544.074 612.495 544.074ZM635.508 543.815H633.133L633.052 540.664C632.373 541.731 631.49 542.566 630.402 543.169C629.324 543.772 628.161 544.074 626.911 544.074C625.37 544.074 624.126 543.67 623.178 542.862C622.24 542.054 621.772 540.96 621.772 539.581C621.772 538.019 622.37 536.839 623.566 536.042C624.718 535.288 626.286 534.658 628.268 534.151L632.987 533.052C632.88 531.889 632.449 531.005 631.694 530.402C630.951 529.788 629.981 529.481 628.786 529.481C627.568 529.481 626.561 529.761 625.763 530.321C624.977 530.881 624.444 531.695 624.163 532.761L621.772 532.293C622.084 530.752 622.881 529.529 624.163 528.624C625.446 527.719 627.019 527.267 628.882 527.267C630.919 527.267 632.529 527.827 633.715 528.947C634.91 530.057 635.508 531.571 635.508 533.489V543.815ZM624.454 539.355C624.454 540.109 624.702 540.718 625.198 541.181C625.704 541.634 626.394 541.86 627.266 541.86C628.818 541.86 630.165 541.289 631.307 540.147C632.449 539.005 633.02 537.459 633.02 535.509V535.137L628.268 536.301C626.975 536.635 626.017 537.033 625.392 537.497C624.767 537.96 624.454 538.579 624.454 539.355Z" fill="#0A2540" fill-opacity="0.7"/>
<circle cx="168.256" cy="506.45" r="45.2332" stroke="white" stroke-opacity="0.3" stroke-width="2.2065"/>
<g clip-path="url(#clip1_2307_16026)">
<circle cx="168.244" cy="505.987" r="44.13" fill="#262626"/>
<path d="M190.292 518.14C190.291 521.186 187.821 523.656 184.775 523.656H151.679C148.633 523.656 146.163 521.186 146.163 518.14V503.798H190.292V518.14ZM150.581 517.03H161.613V512.617H150.581V517.03ZM184.775 490.552C187.821 490.552 190.291 493.021 190.292 496.067V499.377H146.163V496.067C146.163 493.021 148.633 490.552 151.679 490.552H184.775Z" fill="white"/>
</g>
<g filter="url(#filter3_ddd_2307_16026)">
<rect x="68.9544" y="621.405" width="1059.12" height="197.836" rx="17.7525" fill="white"/>
<rect x="70.0639" y="622.514" width="1056.9" height="195.616" rx="16.643" stroke="#0A2540" stroke-opacity="0.1" stroke-width="2.21907"/>
</g>
<path fill-rule="evenodd" clip-rule="evenodd" d="M1063.92 719.749L1044.78 738.683L1047.93 741.799L1070.16 719.711L1047.93 697.668L1044.79 700.788L1063.92 719.749Z" fill="#0A2540" fill-opacity="0.5"/>
<path d="M257.075 706.504H252.634V693.51L241.832 676.716H246.991L254.923 689.263L262.913 676.716H267.877L257.075 693.51V706.504ZM276.604 686.412C279.604 686.412 282.08 687.382 284.032 689.321C285.997 691.248 286.98 693.678 286.98 696.613C286.98 699.574 285.997 702.024 284.032 703.963C282.08 705.89 279.604 706.853 276.604 706.853C273.618 706.853 271.142 705.883 269.177 703.944C267.224 702.004 266.248 699.561 266.248 696.613C266.248 693.678 267.231 691.248 269.196 689.321C271.161 687.382 273.631 686.412 276.604 686.412ZM276.604 690.175C274.807 690.175 273.346 690.769 272.221 691.959C271.097 693.148 270.534 694.7 270.534 696.613C270.534 698.527 271.097 700.085 272.221 701.287C273.346 702.489 274.807 703.09 276.604 703.09C278.401 703.09 279.862 702.489 280.987 701.287C282.125 700.085 282.694 698.527 282.694 696.613C282.694 694.7 282.131 693.148 281.006 691.959C279.882 690.769 278.414 690.175 276.604 690.175ZM300.419 686.412C303.418 686.412 305.894 687.382 307.846 689.321C309.812 691.248 310.794 693.678 310.794 696.613C310.794 699.574 309.812 702.024 307.846 703.963C305.894 705.89 303.418 706.853 300.419 706.853C297.432 706.853 294.957 705.883 292.991 703.944C291.039 702.004 290.063 699.561 290.063 696.613C290.063 693.678 291.046 691.248 293.011 689.321C294.976 687.382 297.445 686.412 300.419 686.412ZM300.419 690.175C298.622 690.175 297.161 690.769 296.036 691.959C294.911 693.148 294.349 694.7 294.349 696.613C294.349 698.527 294.911 700.085 296.036 701.287C297.161 702.489 298.622 703.09 300.419 703.09C302.216 703.09 303.677 702.489 304.802 701.287C305.939 700.085 306.508 698.527 306.508 696.613C306.508 694.7 305.946 693.148 304.821 691.959C303.696 690.769 302.229 690.175 300.419 690.175ZM320.782 706.504H316.535V676.716H321.266L331.002 689.263L340.524 676.716H345.256V706.504H340.97V682.708L331.312 695.256H330.401L320.782 682.864V706.504ZM361.313 686.412C364.313 686.412 366.788 687.382 368.741 689.321C370.706 691.248 371.688 693.678 371.688 696.613C371.688 699.574 370.706 702.024 368.741 703.963C366.788 705.89 364.313 706.853 361.313 706.853C358.327 706.853 355.851 705.883 353.886 703.944C351.933 702.004 350.957 699.561 350.957 696.613C350.957 693.678 351.94 691.248 353.905 689.321C355.87 687.382 358.34 686.412 361.313 686.412ZM361.313 690.175C359.516 690.175 358.055 690.769 356.93 691.959C355.806 693.148 355.243 694.7 355.243 696.613C355.243 698.527 355.806 700.085 356.93 701.287C358.055 702.489 359.516 703.09 361.313 703.09C363.11 703.09 364.571 702.489 365.696 701.287C366.834 700.085 367.403 698.527 367.403 696.613C367.403 694.7 366.84 693.148 365.715 691.959C364.591 690.769 363.123 690.175 361.313 690.175ZM380.415 706.504H376.323V686.762H380.124L380.299 689.186C381.889 687.337 383.925 686.412 386.408 686.412C388.644 686.412 390.493 687.13 391.954 688.565C393.415 690 394.146 692.024 394.146 694.635V706.504H390.015V695.178C390.015 693.588 389.588 692.366 388.735 691.513C387.895 690.647 386.802 690.213 385.457 690.213C384.798 690.213 384.178 690.31 383.596 690.504C383.027 690.698 382.497 690.996 382.006 691.396C381.514 691.797 381.126 692.347 380.842 693.045C380.558 693.743 380.415 694.551 380.415 695.469V706.504ZM398.315 696.613C398.315 693.665 399.259 691.228 401.146 689.302C403.047 687.376 405.465 686.412 408.399 686.412C411.231 686.412 413.545 687.272 415.342 688.992C417.126 690.698 418.018 692.935 418.018 695.702C418.018 695.922 417.993 696.258 417.941 696.71C417.889 697.15 417.857 697.46 417.844 697.641H402.523C402.691 699.49 403.306 700.886 404.366 701.83C405.439 702.774 406.809 703.246 408.477 703.246C409.964 703.246 411.199 702.942 412.181 702.334C413.177 701.714 413.81 700.88 414.082 699.832L417.902 700.511C417.45 702.515 416.364 704.06 414.644 705.146C412.912 706.284 410.856 706.853 408.477 706.853C405.4 706.853 402.937 705.896 401.088 703.983C399.239 702.069 398.315 699.613 398.315 696.613ZM408.438 689.864C406.861 689.864 405.555 690.265 404.521 691.067C403.487 691.855 402.86 692.935 402.64 694.305H413.965C413.745 692.935 413.144 691.855 412.162 691.067C411.179 690.265 409.938 689.864 408.438 689.864ZM428.161 706.387L419.647 686.762H424.224L430.294 701.151L435.782 686.762H440.068L428.956 715.25H424.69L428.161 706.387Z" fill="#0A2540"/>
<path d="M250.007 755.653L256.633 742.385H257.328L264.018 755.621L268.753 734.434H271.565L266.038 759.257H262.952L256.972 747.379L251.041 759.257H248.003L242.476 734.434H245.288L250.007 755.653ZM287.726 759.257H285.351L285.27 756.106C284.591 757.172 283.707 758.007 282.619 758.611C281.542 759.214 280.378 759.516 279.129 759.516C277.588 759.516 276.344 759.112 275.395 758.304C274.458 757.496 273.989 756.402 273.989 755.023C273.989 753.461 274.587 752.281 275.783 751.484C276.936 750.73 278.504 750.099 280.486 749.593L285.205 748.494C285.097 747.33 284.666 746.447 283.912 745.844C283.169 745.229 282.199 744.922 281.003 744.922C279.786 744.922 278.778 745.202 277.981 745.763C277.195 746.323 276.661 747.136 276.381 748.203L273.989 747.734C274.302 746.194 275.099 744.971 276.381 744.066C277.663 743.161 279.236 742.708 281.1 742.708C283.136 742.708 284.747 743.269 285.932 744.389C287.128 745.499 287.726 747.013 287.726 748.93V759.257ZM276.672 754.797C276.672 755.551 276.92 756.16 277.416 756.623C277.922 757.075 278.611 757.302 279.484 757.302C281.036 757.302 282.382 756.731 283.524 755.589C284.666 754.447 285.237 752.9 285.237 750.95V750.579L280.486 751.742C279.193 752.076 278.234 752.475 277.609 752.938C276.985 753.401 276.672 754.021 276.672 754.797ZM295.419 759.257H292.833V734.434H295.419V759.257ZM303.435 759.257H300.849V734.434H303.435V759.257ZM307.572 751.015C307.572 748.612 308.342 746.63 309.883 745.068C311.423 743.495 313.368 742.708 315.717 742.708C318.044 742.708 319.929 743.414 321.373 744.825C322.828 746.248 323.555 748.079 323.555 750.32C323.555 750.331 323.523 750.773 323.458 751.645H310.222C310.362 753.466 310.917 754.851 311.887 755.799C312.867 756.736 314.165 757.205 315.781 757.205C317.214 757.205 318.383 756.903 319.288 756.3C320.193 755.686 320.791 754.84 321.082 753.762L323.458 754.231C323.113 755.826 322.24 757.108 320.84 758.077C319.439 759.036 317.753 759.516 315.781 759.516C313.303 759.516 311.316 758.724 309.818 757.14C308.321 755.545 307.572 753.504 307.572 751.015ZM319.385 746.199C318.405 745.348 317.182 744.922 315.717 744.922C314.252 744.922 313.013 745.353 312 746.215C310.987 747.066 310.416 748.16 310.287 749.496H320.985C320.899 748.149 320.366 747.05 319.385 746.199ZM325.316 745.229V744.599L330.148 740.09H330.746V742.967H336.839V745.229H330.746V754.231C330.746 755.233 330.978 755.971 331.441 756.445C331.915 756.908 332.632 757.14 333.591 757.14C334.27 757.14 335.099 756.951 336.08 756.574L336.677 758.724C335.449 759.252 334.291 759.516 333.203 759.516C331.598 759.516 330.353 759.09 329.47 758.239C328.586 757.388 328.145 756.192 328.145 754.651V745.229H325.316ZM359.804 759.257H357.428L357.347 756.106C356.669 757.172 355.785 758.007 354.697 758.611C353.619 759.214 352.456 759.516 351.206 759.516C349.665 759.516 348.421 759.112 347.473 758.304C346.536 757.496 346.067 756.402 346.067 755.023C346.067 753.461 346.665 752.281 347.861 751.484C349.014 750.73 350.581 750.099 352.564 749.593L357.283 748.494C357.175 747.33 356.744 746.447 355.99 745.844C355.246 745.229 354.277 744.922 353.081 744.922C351.863 744.922 350.856 745.202 350.059 745.763C349.272 746.323 348.739 747.136 348.459 748.203L346.067 747.734C346.379 746.194 347.177 744.971 348.459 744.066C349.741 743.161 351.314 742.708 353.178 742.708C355.214 742.708 356.825 743.269 358.01 744.389C359.206 745.499 359.804 747.013 359.804 748.93V759.257ZM348.75 754.797C348.75 755.551 348.997 756.16 349.493 756.623C349.999 757.075 350.689 757.302 351.562 757.302C353.113 757.302 354.46 756.731 355.602 755.589C356.744 754.447 357.315 752.9 357.315 750.95V750.579L352.564 751.742C351.271 752.076 350.312 752.475 349.687 752.938C349.062 753.401 348.75 754.021 348.75 754.797ZM367.496 759.257H364.911V742.967H367.399L367.464 745.423C368.035 744.583 368.768 743.92 369.662 743.436C370.567 742.951 371.596 742.708 372.749 742.708C373.966 742.708 375.049 742.956 375.997 743.452C376.945 743.947 377.705 744.718 378.276 745.763C378.857 746.797 379.148 748.041 379.148 749.496V759.257H376.563V749.722C376.563 748.246 376.169 747.115 375.383 746.328C374.596 745.531 373.557 745.132 372.264 745.132C371.003 745.132 369.899 745.558 368.951 746.409C367.981 747.282 367.496 748.575 367.496 750.288V759.257ZM399.333 734.434V759.257H396.844L396.78 756.607C396.09 757.533 395.239 758.25 394.226 758.756C393.224 759.262 392.125 759.516 390.93 759.516C388.624 759.516 386.712 758.724 385.192 757.14C383.673 755.545 382.914 753.525 382.914 751.08C382.914 748.666 383.673 746.668 385.192 745.084C386.712 743.5 388.624 742.708 390.93 742.708C392.104 742.708 393.192 742.962 394.194 743.468C395.207 743.963 396.058 744.658 396.748 745.553V734.434H399.333ZM391.188 745.084C389.561 745.084 388.236 745.639 387.213 746.749C386.157 747.869 385.629 749.313 385.629 751.08C385.629 752.868 386.157 754.323 387.213 755.443C388.225 756.574 389.551 757.14 391.188 757.14C392.837 757.14 394.173 756.58 395.196 755.459C396.23 754.328 396.748 752.868 396.748 751.08C396.748 749.302 396.23 747.858 395.196 746.749C394.173 745.639 392.837 745.084 391.188 745.084ZM414.621 759.257H412.036V734.434H414.621V759.257ZM423.154 737.375C423.154 737.882 422.977 738.307 422.621 738.652C422.276 738.997 421.851 739.169 421.344 739.169C420.838 739.169 420.412 738.997 420.068 738.652C419.723 738.307 419.551 737.882 419.551 737.375C419.551 736.847 419.718 736.422 420.052 736.099C420.396 735.765 420.827 735.598 421.344 735.598C421.862 735.598 422.292 735.765 422.637 736.099C422.982 736.422 423.154 736.847 423.154 737.375ZM422.637 759.257H420.052V742.967H422.637V759.257ZM430.653 759.257H428.067V742.967H430.556L430.621 745.423C431.192 744.583 431.924 743.92 432.819 743.436C433.724 742.951 434.753 742.708 435.905 742.708C437.123 742.708 438.206 742.956 439.154 743.452C440.102 743.947 440.861 744.718 441.432 745.763C442.014 746.797 442.305 748.041 442.305 749.496V759.257H439.719V749.722C439.719 748.246 439.326 747.115 438.54 746.328C437.753 745.531 436.713 745.132 435.42 745.132C434.16 745.132 433.056 745.558 432.108 746.409C431.138 747.282 430.653 748.575 430.653 750.288V759.257ZM452.195 749.06L457.819 742.967H461.003L454.345 750.223L461.423 759.257H458.288L452.131 751.581H449.949V759.257H447.363V734.434H449.949V749.06H452.195ZM462.458 751.015C462.458 748.612 463.228 746.63 464.769 745.068C466.309 743.495 468.254 742.708 470.603 742.708C472.93 742.708 474.815 743.414 476.259 744.825C477.714 746.248 478.441 748.079 478.441 750.32C478.441 750.331 478.408 750.773 478.344 751.645H465.108C465.248 753.466 465.803 754.851 466.773 755.799C467.753 756.736 469.051 757.205 470.667 757.205C472.1 757.205 473.269 756.903 474.174 756.3C475.079 755.686 475.677 754.84 475.968 753.762L478.344 754.231C477.999 755.826 477.126 757.108 475.726 758.077C474.325 759.036 472.639 759.516 470.667 759.516C468.189 759.516 466.202 758.724 464.704 757.14C463.206 755.545 462.458 753.504 462.458 751.015ZM474.271 746.199C473.291 745.348 472.068 744.922 470.603 744.922C469.137 744.922 467.898 745.353 466.886 746.215C465.873 747.066 465.302 748.16 465.173 749.496H475.871C475.785 748.149 475.252 747.05 474.271 746.199ZM497.753 734.434V759.257H495.264L495.2 756.607C494.51 757.533 493.659 758.25 492.646 758.756C491.644 759.262 490.545 759.516 489.349 759.516C487.044 759.516 485.131 758.724 483.612 757.14C482.093 755.545 481.334 753.525 481.334 751.08C481.334 748.666 482.093 746.668 483.612 745.084C485.131 743.5 487.044 742.708 489.349 742.708C490.524 742.708 491.612 742.962 492.614 743.468C493.627 743.963 494.478 744.658 495.167 745.553V734.434H497.753ZM489.608 745.084C487.981 745.084 486.656 745.639 485.632 746.749C484.577 747.869 484.049 749.313 484.049 751.08C484.049 752.868 484.577 754.323 485.632 755.443C486.645 756.574 487.97 757.14 489.608 757.14C491.256 757.14 492.592 756.58 493.616 755.459C494.65 754.328 495.167 752.868 495.167 751.08C495.167 749.302 494.65 747.858 493.616 746.749C492.592 745.639 491.256 745.084 489.608 745.084ZM513.461 746.716C512.406 747.804 511.878 749.237 511.878 751.015C511.878 752.793 512.395 754.258 513.429 755.411C514.442 756.564 515.756 757.14 517.372 757.14C518.741 757.14 519.872 756.779 520.766 756.057C521.66 755.325 522.237 754.35 522.495 753.132L524.984 753.568C524.693 755.26 523.853 756.671 522.463 757.803C521.095 758.945 519.398 759.516 517.372 759.516C515.002 759.516 513.041 758.713 511.49 757.108C509.938 755.492 509.163 753.461 509.163 751.015C509.163 748.623 509.944 746.641 511.506 745.068C513.068 743.495 515.024 742.708 517.372 742.708C519.333 742.708 520.976 743.225 522.301 744.26C523.637 745.294 524.499 746.684 524.887 748.429L522.366 748.898C522.075 747.734 521.493 746.808 520.621 746.118C519.759 745.429 518.687 745.084 517.405 745.084C515.789 745.084 514.474 745.628 513.461 746.716ZM541.161 759.257H538.786L538.705 756.106C538.026 757.172 537.142 758.007 536.054 758.611C534.977 759.214 533.813 759.516 532.564 759.516C531.023 759.516 529.779 759.112 528.83 758.304C527.893 757.496 527.424 756.402 527.424 755.023C527.424 753.461 528.022 752.281 529.218 751.484C530.371 750.73 531.939 750.099 533.921 749.593L538.64 748.494C538.532 747.33 538.101 746.447 537.347 745.844C536.604 745.229 535.634 744.922 534.438 744.922C533.221 744.922 532.213 745.202 531.416 745.763C530.63 746.323 530.096 747.136 529.816 748.203L527.424 747.734C527.737 746.194 528.534 744.971 529.816 744.066C531.098 743.161 532.671 742.708 534.535 742.708C536.571 742.708 538.182 743.269 539.367 744.389C540.563 745.499 541.161 747.013 541.161 748.93V759.257ZM530.107 754.797C530.107 755.551 530.355 756.16 530.851 756.623C531.357 757.075 532.046 757.302 532.919 757.302C534.471 757.302 535.817 756.731 536.959 755.589C538.101 754.447 538.672 752.9 538.672 750.95V750.579L533.921 751.742C532.628 752.076 531.669 752.475 531.044 752.938C530.42 753.401 530.107 754.021 530.107 754.797ZM548.854 759.257H546.268V742.967H548.821L548.886 745.553C549.36 744.68 550.023 743.99 550.874 743.484C551.736 742.967 552.716 742.708 553.815 742.708C554.365 742.708 554.903 742.784 555.431 742.935L555.043 745.488C554.515 745.337 553.961 745.262 553.379 745.262C552.097 745.262 551.019 745.752 550.147 746.732C549.285 747.713 548.854 749.065 548.854 750.789V759.257ZM573.515 734.434V759.257H571.026L570.962 756.607C570.272 757.533 569.421 758.25 568.408 758.756C567.406 759.262 566.308 759.516 565.112 759.516C562.806 759.516 560.894 758.724 559.374 757.14C557.855 755.545 557.096 753.525 557.096 751.08C557.096 748.666 557.855 746.668 559.374 745.084C560.894 743.5 562.806 742.708 565.112 742.708C566.286 742.708 567.374 742.962 568.376 743.468C569.389 743.963 570.24 744.658 570.93 745.553V734.434H573.515ZM565.37 745.084C563.743 745.084 562.418 745.639 561.395 746.749C560.339 747.869 559.811 749.313 559.811 751.08C559.811 752.868 560.339 754.323 561.395 755.443C562.407 756.574 563.733 757.14 565.37 757.14C567.019 757.14 568.355 756.58 569.378 755.459C570.412 754.328 570.93 752.868 570.93 751.08C570.93 749.302 570.412 747.858 569.378 746.749C568.355 745.639 567.019 745.084 565.37 745.084ZM584.214 759.516C582.253 759.516 580.691 759.079 579.527 758.207C578.374 757.323 577.652 756.095 577.362 754.522L579.963 753.989C580.114 755.023 580.561 755.842 581.305 756.445C582.048 757.038 583.061 757.334 584.343 757.334C585.485 757.334 586.396 757.108 587.074 756.655C587.764 756.203 588.109 755.545 588.109 754.684C588.109 754.468 588.087 754.269 588.044 754.086C588.001 753.892 587.92 753.725 587.802 753.585C587.683 753.434 587.57 753.304 587.462 753.197C587.365 753.089 587.204 752.987 586.977 752.89C586.762 752.793 586.584 752.717 586.444 752.663C586.315 752.61 586.099 752.55 585.798 752.486C585.507 752.41 585.286 752.356 585.135 752.324C584.995 752.292 584.747 752.243 584.392 752.179C584.036 752.114 583.788 752.071 583.648 752.049C583.228 751.963 582.916 751.904 582.711 751.872C582.517 751.828 582.221 751.758 581.822 751.661C581.434 751.564 581.138 751.478 580.933 751.403C580.728 751.317 580.464 751.204 580.141 751.064C579.818 750.913 579.565 750.762 579.382 750.611C579.209 750.46 579.015 750.277 578.8 750.062C578.584 749.835 578.417 749.593 578.299 749.334C578.191 749.076 578.1 748.779 578.024 748.445C577.949 748.101 577.911 747.734 577.911 747.347C577.911 746 578.471 744.89 579.592 744.017C580.712 743.145 582.183 742.708 584.004 742.708C585.781 742.708 587.22 743.091 588.319 743.856C589.418 744.61 590.096 745.66 590.355 747.007L587.85 747.508C587.441 745.72 586.148 744.825 583.971 744.825C582.872 744.825 582.027 745.046 581.434 745.488C580.852 745.93 580.561 746.517 580.561 747.25C580.561 748.122 580.971 748.704 581.79 748.995C582.641 749.297 583.589 749.539 584.634 749.722C585.097 749.808 585.42 749.873 585.604 749.916C585.798 749.948 586.11 750.018 586.541 750.126C586.983 750.223 587.306 750.309 587.511 750.385C587.715 750.46 587.995 750.573 588.351 750.724C588.717 750.875 588.992 751.026 589.175 751.177C589.358 751.327 589.568 751.521 589.805 751.758C590.053 751.995 590.236 752.243 590.355 752.502C590.473 752.76 590.576 753.067 590.662 753.423C590.748 753.768 590.791 754.145 590.791 754.554C590.791 756.02 590.215 757.215 589.062 758.142C587.92 759.058 586.304 759.516 584.214 759.516Z" fill="#0A2540" fill-opacity="0.7"/>
<circle cx="168.256" cy="721.935" r="45.2332" stroke="white" stroke-opacity="0.3" stroke-width="2.2065"/>
<g clip-path="url(#clip2_2307_16026)">
<path d="M212.744 720.975C212.744 745.697 192.723 765.714 168.009 765.714C143.292 765.714 123.248 745.697 123.248 720.975C123.248 696.254 143.292 676.218 168.009 676.218C192.724 676.218 212.744 696.254 212.744 720.975Z" fill="#015FCE"/>
<path fill-rule="evenodd" clip-rule="evenodd" d="M154.833 720.951C154.865 708.634 164.785 698.592 177.251 698.592C189.596 698.592 199.811 708.666 199.67 721.01C199.67 733.354 189.596 743.428 177.251 743.428C164.927 743.428 154.865 733.527 154.833 721.069V737.752H146.888L136.672 705.118H154.833V720.951ZM168.88 721.01C168.88 725.55 172.711 729.381 177.251 729.381C181.934 729.381 185.623 725.55 185.623 721.01C185.623 716.469 181.792 712.639 177.251 712.639C172.711 712.639 168.88 716.469 168.88 721.01Z" fill="white"/>
</g>
<g filter="url(#filter4_ddd_2307_16026)">
<rect x="68.9544" y="836.893" width="1059.12" height="197.836" rx="17.7525" fill="white"/>
<rect x="70.0639" y="838.003" width="1056.9" height="195.616" rx="16.643" stroke="#0A2540" stroke-opacity="0.1" stroke-width="2.21907"/>
</g>
<path fill-rule="evenodd" clip-rule="evenodd" d="M1063.92 935.235L1044.78 954.168L1047.93 957.285L1070.16 935.196L1047.93 913.153L1044.79 916.273L1063.92 935.235Z" fill="#0A2540" fill-opacity="0.5"/>
<path d="M265.215 899.485L260.93 900.706C260.684 899.258 259.979 898.075 258.816 897.157C257.652 896.24 256.211 895.781 254.491 895.781C252.668 895.781 251.227 896.143 250.166 896.867C249.106 897.591 248.576 898.58 248.576 899.834C248.576 900.428 248.692 900.959 248.925 901.424C249.171 901.889 249.488 902.277 249.875 902.588C250.263 902.885 250.761 903.156 251.369 903.402C251.989 903.648 252.597 903.855 253.192 904.023C253.799 904.178 254.51 904.352 255.325 904.546C255.596 904.598 255.797 904.643 255.926 904.682C256.56 904.837 257.096 904.973 257.536 905.089C257.975 905.206 258.499 905.361 259.107 905.555C259.714 905.736 260.225 905.917 260.639 906.098C261.065 906.279 261.531 906.511 262.035 906.796C262.552 907.067 262.979 907.358 263.315 907.669C263.664 907.966 264.013 908.321 264.362 908.735C264.711 909.136 264.989 909.569 265.196 910.034C265.403 910.5 265.571 911.03 265.7 911.625C265.83 912.219 265.894 912.859 265.894 913.545C265.894 916.298 264.86 918.458 262.791 920.022C260.736 921.573 258.021 922.349 254.646 922.349C251.181 922.349 248.453 921.541 246.462 919.925C244.471 918.309 243.359 916.234 243.127 913.7L247.49 912.517C247.736 914.34 248.479 915.768 249.72 916.803C250.974 917.837 252.694 918.354 254.879 918.354C256.637 918.354 258.15 917.979 259.417 917.229C260.658 916.467 261.279 915.329 261.279 913.816C261.279 912.226 260.632 911.101 259.339 910.442C258.111 909.847 256.547 909.317 254.646 908.852C253.948 908.696 253.392 908.574 252.978 908.483C252.565 908.38 252.022 908.237 251.349 908.056C250.677 907.862 250.128 907.681 249.701 907.513C249.287 907.345 248.796 907.126 248.227 906.854C247.658 906.583 247.193 906.305 246.831 906.02C246.482 905.723 246.107 905.367 245.706 904.953C245.318 904.54 245.014 904.1 244.794 903.635C244.575 903.169 244.394 902.633 244.251 902.025C244.109 901.417 244.038 900.771 244.038 900.086C244.038 898.379 244.517 896.899 245.473 895.645C246.43 894.378 247.703 893.434 249.294 892.813C250.884 892.18 252.668 891.863 254.646 891.863C257.452 891.863 259.798 892.542 261.686 893.899C263.586 895.257 264.763 897.119 265.215 899.485ZM274.97 922H271.169V892.212H275.261V904.876C276.063 903.932 277.026 903.202 278.151 902.685C279.288 902.167 280.51 901.909 281.816 901.909C284.57 901.909 286.865 902.878 288.7 904.818C290.536 906.744 291.454 909.175 291.454 912.11C291.454 915.057 290.536 917.501 288.7 919.44C286.865 921.379 284.57 922.349 281.816 922.349C280.484 922.349 279.243 922.078 278.092 921.535C276.955 920.979 275.972 920.209 275.145 919.227L274.97 922ZM281.215 905.671C279.443 905.671 278.008 906.266 276.909 907.455C275.81 908.645 275.261 910.196 275.261 912.11C275.261 914.023 275.81 915.581 276.909 916.783C278.021 917.986 279.456 918.587 281.215 918.587C282.96 918.587 284.389 917.986 285.501 916.783C286.612 915.581 287.168 914.023 287.168 912.11C287.168 910.209 286.612 908.664 285.501 907.475C284.389 906.272 282.96 905.671 281.215 905.671ZM294.557 912.11C294.557 909.162 295.501 906.725 297.388 904.798C299.289 902.872 301.707 901.909 304.641 901.909C307.473 901.909 309.787 902.769 311.584 904.488C313.368 906.195 314.26 908.431 314.26 911.198C314.26 911.418 314.235 911.754 314.183 912.207C314.131 912.646 314.099 912.956 314.086 913.137H298.765C298.933 914.986 299.548 916.382 300.608 917.326C301.681 918.27 303.051 918.742 304.719 918.742C306.206 918.742 307.441 918.438 308.423 917.83C309.419 917.21 310.052 916.376 310.324 915.329L314.144 916.008C313.692 918.011 312.606 919.556 310.886 920.642C309.154 921.78 307.098 922.349 304.719 922.349C301.642 922.349 299.179 921.392 297.33 919.479C295.481 917.565 294.557 915.109 294.557 912.11ZM304.68 905.361C303.103 905.361 301.797 905.762 300.763 906.563C299.729 907.352 299.102 908.431 298.882 909.802H310.207C309.987 908.431 309.386 907.352 308.404 906.563C307.421 905.762 306.18 905.361 304.68 905.361ZM323.123 922H319.031V902.258H322.91L323.123 904.953C323.718 904.023 324.5 903.292 325.47 902.762C326.439 902.219 327.551 901.948 328.805 901.948C329.387 901.948 330.033 902.038 330.745 902.219L330.182 906.233C329.549 906.052 328.876 905.962 328.165 905.962C326.756 905.962 325.56 906.479 324.578 907.513C323.608 908.548 323.123 909.95 323.123 911.722V922ZM346.472 922H335.263V892.212H345.794C348.341 892.212 350.39 892.904 351.941 894.287C353.506 895.671 354.288 897.519 354.288 899.834C354.288 902.73 352.988 904.876 350.39 906.272C352.109 906.841 353.421 907.753 354.326 909.007C355.232 910.248 355.684 911.748 355.684 913.506C355.684 916.079 354.85 918.141 353.182 919.692C351.489 921.231 349.252 922 346.472 922ZM345.464 896.033H339.704V904.682H345.503C346.847 904.682 347.92 904.288 348.722 903.499C349.523 902.697 349.924 901.624 349.924 900.28C349.924 898.987 349.517 897.959 348.703 897.196C347.888 896.421 346.808 896.033 345.464 896.033ZM346.298 908.619H339.704V918.18H346.337C347.798 918.18 348.968 917.759 349.847 916.919C350.739 916.066 351.185 914.928 351.185 913.506C351.185 912.045 350.739 910.868 349.847 909.976C348.968 909.071 347.785 908.619 346.298 908.619ZM376.532 922H372.827L372.634 918.781C371.858 919.906 370.862 920.785 369.647 921.418C368.445 922.039 367.139 922.349 365.73 922.349C363.868 922.349 362.349 921.838 361.172 920.817C359.996 919.796 359.407 918.419 359.407 916.686C359.407 914.721 360.125 913.26 361.56 912.303C362.943 911.386 364.766 910.662 367.029 910.131L372.478 908.929C372.323 907.753 371.858 906.873 371.082 906.292C370.306 905.697 369.291 905.4 368.037 905.4C365.309 905.4 363.68 906.537 363.15 908.813L359.369 908.095C359.692 906.246 360.649 904.753 362.239 903.615C363.829 902.478 365.84 901.909 368.27 901.909C370.804 901.909 372.815 902.594 374.301 903.964C375.788 905.322 376.532 907.164 376.532 909.491V922ZM363.538 916.395C363.538 917.184 363.79 917.798 364.295 918.238C364.812 918.677 365.516 918.897 366.408 918.897C367.469 918.897 368.451 918.671 369.356 918.218C370.274 917.766 371.037 917.048 371.645 916.066C372.252 915.083 372.556 913.913 372.556 912.556V912.11L367.107 913.389C365.904 913.674 365.006 914.042 364.411 914.495C363.829 914.947 363.538 915.581 363.538 916.395ZM386.383 922H382.291V902.258H386.092L386.267 904.682C387.857 902.833 389.893 901.909 392.376 901.909C394.612 901.909 396.461 902.626 397.922 904.061C399.383 905.497 400.114 907.52 400.114 910.131V922H395.983V910.674C395.983 909.084 395.556 907.862 394.703 907.009C393.862 906.143 392.77 905.71 391.425 905.71C390.766 905.71 390.145 905.807 389.564 906.001C388.995 906.195 388.465 906.492 387.973 906.893C387.482 907.294 387.094 907.843 386.81 908.541C386.525 909.239 386.383 910.047 386.383 910.965V922ZM412.137 909.084L418.265 902.258H423.152L415.318 910.927L423.579 922H418.653L412.021 913.06H409.926V922H405.834V892.212H409.926V909.084H412.137Z" fill="#0A2540"/>
<path d="M260.899 956.063L258.217 956.791C257.99 955.379 257.338 954.248 256.261 953.397C255.194 952.546 253.842 952.12 252.205 952.12C250.47 952.12 249.096 952.47 248.084 953.17C247.071 953.86 246.565 954.824 246.565 956.063C246.565 956.645 246.688 957.168 246.936 957.631C247.195 958.083 247.475 958.45 247.777 958.73C248.089 958.999 248.585 959.263 249.263 959.522C249.953 959.78 250.502 959.963 250.912 960.071C251.321 960.168 251.989 960.324 252.916 960.54C253.034 960.572 253.126 960.594 253.19 960.604C253.869 960.755 254.462 960.895 254.968 961.025C255.475 961.154 256.029 961.326 256.633 961.542C257.247 961.757 257.769 961.984 258.2 962.221C258.631 962.458 259.062 962.759 259.493 963.126C259.924 963.492 260.269 963.891 260.528 964.321C260.797 964.752 261.012 965.264 261.174 965.857C261.346 966.439 261.433 967.08 261.433 967.78C261.433 969.999 260.608 971.75 258.96 973.032C257.322 974.314 255.157 974.955 252.463 974.955C251.267 974.955 250.168 974.831 249.166 974.584C248.164 974.336 247.292 973.991 246.548 973.549C245.816 973.108 245.18 972.58 244.641 971.966C244.113 971.341 243.704 970.662 243.413 969.929C243.122 969.197 242.939 968.416 242.864 967.586L245.643 966.859C245.794 968.518 246.468 969.859 247.663 970.883C248.87 971.906 250.502 972.418 252.56 972.418C254.284 972.418 255.712 972.03 256.843 971.255C257.985 970.468 258.556 969.374 258.556 967.974C258.556 967.36 258.443 966.816 258.217 966.342C258.001 965.857 257.726 965.458 257.392 965.146C257.058 964.833 256.595 964.553 256.002 964.305C255.421 964.047 254.866 963.847 254.338 963.707C253.81 963.567 253.142 963.411 252.334 963.239C251.558 963.066 250.96 962.932 250.54 962.835C250.131 962.738 249.57 962.581 248.859 962.366C248.159 962.14 247.61 961.924 247.211 961.72C246.812 961.504 246.36 961.219 245.853 960.863C245.347 960.497 244.959 960.109 244.69 959.699C244.431 959.279 244.205 958.773 244.011 958.18C243.817 957.588 243.72 956.936 243.72 956.225C243.72 954.867 244.097 953.682 244.851 952.669C245.616 951.657 246.64 950.897 247.922 950.391C249.204 949.874 250.653 949.615 252.269 949.615C254.607 949.615 256.552 950.197 258.103 951.36C259.655 952.513 260.587 954.081 260.899 956.063ZM269.836 974.697H267.121V949.874H270.143L278.951 961.089L287.613 949.874H290.635V974.697H287.92V953.72L279.177 964.903H278.547L269.836 953.785V974.697ZM313.907 956.063L311.224 956.791C310.998 955.379 310.346 954.248 309.269 953.397C308.202 952.546 306.85 952.12 305.212 952.12C303.478 952.12 302.104 952.47 301.091 953.17C300.079 953.86 299.572 954.824 299.572 956.063C299.572 956.645 299.696 957.168 299.944 957.631C300.202 958.083 300.483 958.45 300.784 958.73C301.097 958.999 301.592 959.263 302.271 959.522C302.961 959.78 303.51 959.963 303.919 960.071C304.329 960.168 304.997 960.324 305.923 960.54C306.042 960.572 306.134 960.594 306.198 960.604C306.877 960.755 307.469 960.895 307.976 961.025C308.482 961.154 309.037 961.326 309.64 961.542C310.255 961.757 310.777 961.984 311.208 962.221C311.639 962.458 312.07 962.759 312.501 963.126C312.932 963.492 313.277 963.891 313.535 964.321C313.805 964.752 314.02 965.264 314.182 965.857C314.354 966.439 314.44 967.08 314.44 967.78C314.44 969.999 313.616 971.75 311.968 973.032C310.33 974.314 308.164 974.955 305.471 974.955C304.275 974.955 303.176 974.831 302.174 974.584C301.172 974.336 300.299 973.991 299.556 973.549C298.823 973.108 298.188 972.58 297.649 971.966C297.121 971.341 296.712 970.662 296.421 969.929C296.13 969.197 295.947 968.416 295.871 967.586L298.651 966.859C298.802 968.518 299.475 969.859 300.671 970.883C301.878 971.906 303.51 972.418 305.568 972.418C307.292 972.418 308.719 972.03 309.851 971.255C310.993 970.468 311.564 969.374 311.564 967.974C311.564 967.36 311.45 966.816 311.224 966.342C311.009 965.857 310.734 965.458 310.4 965.146C310.066 964.833 309.603 964.553 309.01 964.305C308.428 964.047 307.874 963.847 307.346 963.707C306.818 963.567 306.15 963.411 305.342 963.239C304.566 963.066 303.968 962.932 303.548 962.835C303.138 962.738 302.578 962.581 301.867 962.366C301.167 962.14 300.617 961.924 300.219 961.72C299.82 961.504 299.368 961.219 298.861 960.863C298.355 960.497 297.967 960.109 297.698 959.699C297.439 959.279 297.213 958.773 297.019 958.18C296.825 957.588 296.728 956.936 296.728 956.225C296.728 954.867 297.105 953.682 297.859 952.669C298.624 951.657 299.648 950.897 300.93 950.391C302.212 949.874 303.661 949.615 305.277 949.615C307.615 949.615 309.56 950.197 311.111 951.36C312.663 952.513 313.594 954.081 313.907 956.063ZM327.434 960.524C329.017 958.94 331.027 958.148 333.462 958.148C335.896 958.148 337.906 958.94 339.49 960.524C341.073 962.107 341.865 964.106 341.865 966.519C341.865 968.965 341.073 970.985 339.49 972.58C337.906 974.163 335.896 974.955 333.462 974.955C331.027 974.955 329.017 974.163 327.434 972.58C325.85 970.985 325.058 968.965 325.058 966.519C325.058 964.106 325.85 962.107 327.434 960.524ZM333.462 960.524C331.824 960.524 330.466 961.079 329.389 962.188C328.312 963.298 327.773 964.742 327.773 966.519C327.773 968.319 328.312 969.773 329.389 970.883C330.456 972.014 331.813 972.58 333.462 972.58C335.099 972.58 336.468 972.014 337.566 970.883C338.633 969.752 339.166 968.297 339.166 966.519C339.166 964.763 338.633 963.32 337.566 962.188C336.457 961.079 335.088 960.524 333.462 960.524ZM348.588 974.697H346.002V958.407H348.556L348.62 960.992C349.095 960.12 349.757 959.43 350.608 958.924C351.47 958.407 352.451 958.148 353.55 958.148C354.099 958.148 354.638 958.223 355.166 958.374L354.778 960.928C354.25 960.777 353.695 960.701 353.113 960.701C351.831 960.701 350.754 961.192 349.881 962.172C349.019 963.153 348.588 964.505 348.588 966.228V974.697ZM366.478 960.524C368.062 958.94 370.071 958.148 372.506 958.148C374.941 958.148 376.951 958.94 378.534 960.524C380.118 962.107 380.91 964.106 380.91 966.519C380.91 968.965 380.118 970.985 378.534 972.58C376.951 974.163 374.941 974.955 372.506 974.955C370.071 974.955 368.062 974.163 366.478 972.58C364.895 970.985 364.103 968.965 364.103 966.519C364.103 964.106 364.895 962.107 366.478 960.524ZM372.506 960.524C370.869 960.524 369.511 961.079 368.434 962.188C367.356 963.298 366.818 964.742 366.818 966.519C366.818 968.319 367.356 969.773 368.434 970.883C369.5 972.014 370.858 972.58 372.506 972.58C374.144 972.58 375.512 972.014 376.611 970.883C377.678 969.752 378.211 968.297 378.211 966.519C378.211 964.763 377.678 963.32 376.611 962.188C375.501 961.079 374.133 960.524 372.506 960.524ZM387.633 974.697H385.047V958.407H387.536L387.601 960.863C388.172 960.023 388.904 959.36 389.798 958.875C390.703 958.39 391.732 958.148 392.885 958.148C394.103 958.148 395.185 958.396 396.134 958.891C397.082 959.387 397.841 960.157 398.412 961.202C398.994 962.237 399.285 963.481 399.285 964.936V974.697H396.699V965.162C396.699 963.686 396.306 962.555 395.519 961.768C394.733 960.971 393.693 960.572 392.4 960.572C391.14 960.572 390.035 960.998 389.087 961.849C388.118 962.722 387.633 964.014 387.633 965.727V974.697ZM406.929 974.697H404.343V949.874H406.929V974.697ZM415.462 952.815C415.462 953.321 415.284 953.747 414.929 954.092C414.584 954.436 414.158 954.609 413.652 954.609C413.146 954.609 412.72 954.436 412.375 954.092C412.03 953.747 411.858 953.321 411.858 952.815C411.858 952.287 412.025 951.861 412.359 951.538C412.704 951.204 413.135 951.037 413.652 951.037C414.169 951.037 414.6 951.204 414.945 951.538C415.29 951.861 415.462 952.287 415.462 952.815ZM414.945 974.697H412.359V958.407H414.945V974.697ZM422.961 974.697H420.375V958.407H422.864L422.928 960.863C423.499 960.023 424.232 959.36 425.126 958.875C426.031 958.39 427.06 958.148 428.213 958.148C429.43 958.148 430.513 958.396 431.461 958.891C432.409 959.387 433.169 960.157 433.74 961.202C434.322 962.237 434.613 963.481 434.613 964.936V974.697H432.027V965.162C432.027 963.686 431.634 962.555 430.847 961.768C430.061 960.971 429.021 960.572 427.728 960.572C426.467 960.572 425.363 960.998 424.415 961.849C423.445 962.722 422.961 964.014 422.961 965.727V974.697ZM438.378 966.455C438.378 964.052 439.148 962.07 440.689 960.508C442.23 958.935 444.174 958.148 446.523 958.148C448.85 958.148 450.736 958.854 452.179 960.265C453.634 961.687 454.361 963.519 454.361 965.76C454.361 965.771 454.329 966.212 454.264 967.085H441.028C441.169 968.906 441.723 970.29 442.693 971.238C443.673 972.176 444.972 972.644 446.588 972.644C448.021 972.644 449.19 972.343 450.095 971.739C451 971.125 451.598 970.279 451.889 969.202L454.264 969.671C453.919 971.265 453.047 972.547 451.646 973.517C450.246 974.476 448.559 974.955 446.588 974.955C444.11 974.955 442.122 974.163 440.624 972.58C439.127 970.985 438.378 968.944 438.378 966.455ZM450.192 961.639C449.211 960.788 447.988 960.362 446.523 960.362C445.058 960.362 443.819 960.793 442.806 961.655C441.793 962.506 441.222 963.6 441.093 964.936H451.792C451.705 963.589 451.172 962.49 450.192 961.639ZM468.308 974.697H465.819V949.874H468.405V961.122C469.095 960.174 469.946 959.441 470.958 958.924C471.971 958.407 473.092 958.148 474.32 958.148C476.582 958.148 478.468 958.94 479.976 960.524C481.485 962.107 482.239 964.106 482.239 966.519C482.239 968.954 481.485 970.969 479.976 972.564C478.468 974.158 476.582 974.955 474.32 974.955C473.092 974.955 471.966 974.691 470.942 974.163C469.919 973.625 469.062 972.876 468.373 971.917L468.308 974.697ZM473.964 960.524C472.316 960.524 470.98 961.079 469.956 962.188C468.922 963.341 468.405 964.785 468.405 966.519C468.405 968.276 468.922 969.73 469.956 970.883C470.969 972.014 472.305 972.58 473.964 972.58C475.57 972.58 476.906 972.014 477.972 970.883C479.007 969.73 479.524 968.276 479.524 966.519C479.524 964.785 479.007 963.341 477.972 962.188C476.895 961.079 475.559 960.524 473.964 960.524ZM498.852 974.697H496.476L496.396 971.545C495.717 972.612 494.833 973.447 493.745 974.05C492.668 974.654 491.504 974.955 490.255 974.955C488.714 974.955 487.469 974.551 486.521 973.743C485.584 972.935 485.115 971.842 485.115 970.463C485.115 968.9 485.713 967.721 486.909 966.923C488.062 966.169 489.63 965.539 491.612 965.033L496.331 963.934C496.223 962.77 495.792 961.887 495.038 961.283C494.295 960.669 493.325 960.362 492.129 960.362C490.912 960.362 489.904 960.642 489.107 961.202C488.321 961.763 487.787 962.576 487.507 963.643L485.115 963.174C485.428 961.633 486.225 960.411 487.507 959.506C488.789 958.601 490.362 958.148 492.226 958.148C494.262 958.148 495.873 958.708 497.058 959.829C498.254 960.938 498.852 962.452 498.852 964.37V974.697ZM487.798 970.236C487.798 970.991 488.046 971.599 488.541 972.063C489.048 972.515 489.737 972.741 490.61 972.741C492.161 972.741 493.508 972.17 494.65 971.028C495.792 969.886 496.363 968.34 496.363 966.39V966.018L491.612 967.182C490.319 967.516 489.36 967.915 488.735 968.378C488.111 968.841 487.798 969.461 487.798 970.236ZM506.545 974.697H503.959V958.407H506.448L506.512 960.863C507.083 960.023 507.816 959.36 508.71 958.875C509.615 958.39 510.644 958.148 511.797 958.148C513.014 958.148 514.097 958.396 515.045 958.891C515.993 959.387 516.753 960.157 517.324 961.202C517.906 962.237 518.197 963.481 518.197 964.936V974.697H515.611V965.162C515.611 963.686 515.218 962.555 514.431 961.768C513.645 960.971 512.605 960.572 511.312 960.572C510.052 960.572 508.947 960.998 507.999 961.849C507.03 962.722 506.545 964.014 506.545 965.727V974.697ZM528.087 964.499L533.711 958.407H536.895L530.237 965.663L537.315 974.697H534.18L528.022 967.02H525.841V974.697H523.255V949.874H525.841V964.499H528.087ZM543.327 952.815C543.327 953.321 543.149 953.747 542.794 954.092C542.449 954.436 542.023 954.609 541.517 954.609C541.01 954.609 540.585 954.436 540.24 954.092C539.895 953.747 539.723 953.321 539.723 952.815C539.723 952.287 539.89 951.861 540.224 951.538C540.569 951.204 541 951.037 541.517 951.037C542.034 951.037 542.465 951.204 542.81 951.538C543.154 951.861 543.327 952.287 543.327 952.815ZM542.81 974.697H540.224V958.407H542.81V974.697ZM550.826 974.697H548.24V958.407H550.729L550.793 960.863C551.364 960.023 552.097 959.36 552.991 958.875C553.896 958.39 554.925 958.148 556.078 958.148C557.295 958.148 558.378 958.396 559.326 958.891C560.274 959.387 561.034 960.157 561.605 961.202C562.187 962.237 562.478 963.481 562.478 964.936V974.697H559.892V965.162C559.892 963.686 559.499 962.555 558.712 961.768C557.926 960.971 556.886 960.572 555.593 960.572C554.332 960.572 553.228 960.998 552.28 961.849C551.31 962.722 550.826 964.014 550.826 965.727V974.697ZM566.243 966.487C566.243 964.084 566.997 962.097 568.506 960.524C570.014 958.94 571.932 958.148 574.259 958.148C575.455 958.148 576.554 958.401 577.556 958.908C578.568 959.414 579.419 960.13 580.109 961.057L580.174 958.407H582.695V974.535C582.695 976.852 581.957 978.715 580.481 980.127C579.005 981.538 577.038 982.244 574.582 982.244C572.438 982.244 570.676 981.732 569.297 980.709C567.929 979.685 567.132 978.365 566.906 976.749L569.556 976.248C569.75 977.347 570.278 978.22 571.14 978.866C572.012 979.523 573.16 979.852 574.582 979.852C576.23 979.852 577.556 979.4 578.558 978.495C579.57 977.6 580.077 976.334 580.077 974.697V971.917C579.387 972.811 578.536 973.517 577.523 974.034C576.511 974.541 575.422 974.794 574.259 974.794C571.932 974.794 570.014 974.007 568.506 972.434C566.997 970.861 566.243 968.879 566.243 966.487ZM568.958 966.487C568.958 968.232 569.475 969.66 570.509 970.77C571.544 971.869 572.891 972.418 574.55 972.418C576.198 972.418 577.534 971.863 578.558 970.754C579.57 969.665 580.077 968.243 580.077 966.487C580.077 964.742 579.57 963.309 578.558 962.188C577.534 961.079 576.198 960.524 574.55 960.524C572.88 960.524 571.533 961.079 570.509 962.188C569.475 963.341 568.958 964.774 568.958 966.487Z" fill="#0A2540" fill-opacity="0.7"/>
<circle cx="168.236" cy="936.959" r="44.1312" fill="#21A038"/>
<path d="M179.714 920.149L184.863 916.354C180.157 912.543 174.283 910.469 168.228 910.48V910.483C164.754 910.48 161.312 911.163 158.102 912.492C155.201 913.694 152.54 915.402 150.243 917.534C147.603 919.973 145.488 922.927 144.029 926.214C142.528 929.594 141.754 933.251 141.757 936.949C141.757 936.954 141.757 936.959 141.757 936.964C141.755 940.441 142.438 943.883 143.769 947.095C144.954 949.954 146.631 952.58 148.722 954.854C151.179 957.54 154.165 959.689 157.493 961.167C160.774 962.623 164.317 963.394 167.904 963.435C168.015 963.437 168.126 963.437 168.237 963.437C171.714 963.441 175.156 962.758 178.368 961.427C181.174 960.264 183.755 958.626 185.999 956.589L186.003 956.593C188.75 954.114 190.945 951.084 192.446 947.702C193.947 944.319 194.72 940.659 194.715 936.958C194.718 935.367 194.579 933.779 194.299 932.213L188.6 936.413V936.958C188.602 939.803 188.005 942.617 186.85 945.217C185.832 947.507 184.399 949.587 182.628 951.352L182.626 951.35C182.419 951.558 182.207 951.761 181.992 951.96L181.892 952.05C180.167 953.616 178.184 954.876 176.027 955.771C173.558 956.796 170.911 957.323 168.237 957.322C167.918 957.322 167.598 957.314 167.279 957.299L167.219 957.295C164.722 957.171 162.267 956.588 159.978 955.571C157.687 954.553 155.608 953.121 153.842 951.351L153.846 951.347C151.952 949.461 150.449 947.218 149.424 944.749C148.4 942.279 147.873 939.632 147.874 936.958C147.874 936.942 147.874 936.926 147.875 936.91C147.875 936.686 147.879 936.463 147.887 936.242C147.977 933.642 148.567 931.081 149.625 928.7C150.643 926.41 152.074 924.332 153.843 922.567L153.847 922.57C155.733 920.675 157.976 919.172 160.446 918.147C162.915 917.122 165.563 916.595 168.237 916.596C168.578 916.596 168.917 916.609 169.254 916.625L169.254 916.62C172.994 916.805 176.616 918.023 179.714 920.149Z" fill="white"/>
<path d="M192.362 926.033C191.512 924.162 190.447 922.395 189.189 920.769L168.242 936.212L158.162 929.893V937.495L168.242 943.814L192.362 926.033Z" fill="white"/>
<circle cx="168.251" cy="937.415" r="45.2332" stroke="white" stroke-opacity="0.3" stroke-width="2.2065"/>
<g opacity="0.7">
<path d="M485.494 1095.65C472.111 1095.65 461.466 1106.44 461.466 1119.67C461.466 1133.06 472.263 1143.7 485.494 1143.7C498.725 1143.7 509.523 1132.9 509.523 1119.67C509.523 1106.44 498.725 1095.65 485.494 1095.65ZM485.494 1128.49C480.628 1128.49 476.521 1124.39 476.521 1119.52C476.521 1114.65 480.628 1110.55 485.494 1110.55C490.361 1110.55 494.467 1114.65 494.467 1119.52C494.315 1124.54 490.361 1128.49 485.494 1128.49Z" fill="#0A2540" fill-opacity="0.5"/>
<path d="M461.326 1102.49V1137.47H452.81L441.86 1102.49H461.326Z" fill="#0A2540" fill-opacity="0.5"/>
<path d="M545.66 1108.86L540.326 1122.08C540.231 1122.27 540.184 1122.5 540.09 1122.69L539.995 1123.07L539.901 1122.69C539.854 1122.46 539.759 1122.27 539.665 1122.03L534.378 1108.86H527.485L536.597 1131.43L532.82 1140.02H539.665L552.505 1108.86H545.66Z" fill="#0A2540" fill-opacity="0.55"/>
<path d="M570.487 1109.06C567.466 1108.02 564.067 1108.17 560.951 1109.58C558.921 1110.48 557.175 1112.04 555.994 1114.02C554.956 1115.77 554.437 1117.84 554.437 1120.16C554.437 1122.52 554.956 1124.59 555.994 1126.34C557.033 1128.09 558.496 1129.5 560.29 1130.45C562.131 1131.44 564.256 1131.91 566.333 1131.91C567.466 1131.91 568.552 1131.77 569.637 1131.49C570.581 1131.25 571.478 1130.87 572.375 1130.4C574.216 1129.41 575.727 1127.99 576.718 1126.29C577.757 1124.55 578.276 1122.42 578.276 1120.11C578.276 1115.01 575.302 1110.76 570.487 1109.06ZM572.281 1120.39C572.187 1122.42 571.526 1124.03 570.298 1125.11C569.354 1125.96 568.032 1126.39 566.38 1126.44C564.681 1126.39 563.406 1125.92 562.462 1125.11C561.234 1124.03 560.573 1122.42 560.479 1120.39C560.385 1118.17 561.282 1116.19 562.934 1115.01C563.878 1114.35 565.011 1113.97 566.38 1113.93C567.749 1113.97 568.882 1114.3 569.826 1115.01C571.478 1116.19 572.375 1118.13 572.281 1120.39Z" fill="#0A2540" fill-opacity="0.55"/>
<path d="M598.394 1109.06C595.373 1108.02 591.974 1108.17 588.858 1109.58C586.828 1110.48 585.081 1112.04 583.901 1114.02C582.863 1115.77 582.343 1117.84 582.343 1120.16C582.343 1122.52 582.863 1124.59 583.901 1126.34C584.94 1128.09 586.403 1129.5 588.197 1130.45C590.038 1131.44 592.162 1131.91 594.24 1131.91C595.372 1131.91 596.458 1131.77 597.544 1131.49C598.488 1131.25 599.385 1130.87 600.282 1130.4C602.123 1129.41 603.634 1127.99 604.625 1126.29C605.664 1124.55 606.183 1122.42 606.183 1120.11C606.183 1115.01 603.209 1110.76 598.394 1109.06ZM600.188 1120.39C600.093 1122.42 599.432 1124.03 598.205 1125.11C597.261 1125.96 595.939 1126.39 594.287 1126.44C592.587 1126.39 591.313 1125.92 590.369 1125.11C589.141 1124.03 588.48 1122.42 588.386 1120.39C588.291 1118.17 589.188 1116.19 590.841 1115.01C591.785 1114.35 592.918 1113.97 594.287 1113.93C595.656 1113.97 596.789 1114.3 597.733 1115.01C599.385 1116.19 600.282 1118.13 600.188 1120.39Z" fill="#0A2540" fill-opacity="0.55"/>
<path d="M748.365 1109.06L743.125 1122.14C743.031 1122.33 742.983 1122.56 742.936 1122.75L742.842 1123.13L742.747 1122.75C742.7 1122.52 742.606 1122.33 742.511 1122.14L737.224 1109.06H730.426L739.443 1131.39L735.713 1139.89H742.464L755.163 1109.06H748.365V1109.06Z" fill="#0A2540" fill-opacity="0.55"/>
<path d="M697.874 1110.28C696.694 1109.38 695.136 1108.81 693.39 1108.62C690.368 1108.29 687.536 1109.33 685.553 1111.41V1109.05H679.322V1131.38H685.506V1119.72C685.553 1117.07 685.978 1116.41 686.45 1115.71C687.205 1114.53 688.622 1113.82 690.274 1113.82C691.926 1113.82 693.437 1114.62 694.145 1115.85C694.664 1116.74 694.759 1117.92 694.759 1118.54C694.759 1120.57 694.759 1131.38 694.759 1131.38H700.943V1117.78C700.943 1114.29 699.951 1111.83 697.874 1110.28Z" fill="#0A2540" fill-opacity="0.55"/>
<path d="M667.41 1109.24C664.435 1108.21 661.084 1108.4 657.968 1109.76C655.985 1110.66 654.239 1112.22 653.106 1114.15C652.067 1115.9 651.548 1117.93 651.548 1120.2C651.548 1122.51 652.067 1124.59 653.106 1126.33C654.144 1128.08 655.56 1129.45 657.354 1130.39C659.148 1131.34 661.273 1131.86 663.35 1131.86C664.435 1131.86 665.568 1131.72 666.607 1131.43C667.551 1131.2 668.448 1130.82 669.298 1130.35C671.139 1129.36 672.602 1127.94 673.594 1126.29C674.632 1124.54 675.152 1122.46 675.152 1120.15C675.104 1115.1 672.177 1110.9 667.41 1109.24ZM669.156 1120.43C669.062 1122.42 668.401 1124.02 667.173 1125.06C666.229 1125.91 664.955 1126.33 663.302 1126.38C661.65 1126.33 660.376 1125.86 659.431 1125.06C658.204 1124.02 657.543 1122.42 657.449 1120.43C657.354 1118.21 658.251 1116.28 659.856 1115.1C660.8 1114.44 661.933 1114.06 663.255 1114.06C664.624 1114.11 665.757 1114.44 666.701 1115.1C668.401 1116.28 669.251 1118.21 669.156 1120.43Z" fill="#0A2540" fill-opacity="0.55"/>
<path d="M644.43 1110.24C643.25 1109.34 641.692 1108.78 639.945 1108.59C639.568 1108.54 639.19 1108.54 638.812 1108.54C636.358 1108.59 634.233 1109.63 632.439 1111.7L632.109 1112.08H631.448C630.976 1111.37 630.41 1110.71 629.749 1110.19C628.568 1109.29 627.011 1108.73 625.264 1108.54C622.384 1108.26 620.071 1109.15 618.041 1111.32V1108.96H611.857V1131.29H618.041V1119.73V1119.49C618.136 1117.04 618.372 1116.47 618.844 1115.76C619.599 1114.58 620.968 1113.87 622.432 1113.87C623.942 1113.87 625.311 1114.63 626.019 1115.86C626.586 1116.8 626.586 1117.89 626.539 1118.97V1131.44H632.817V1119.44C632.864 1117.23 633.148 1116.42 633.62 1115.67C634.375 1114.49 635.744 1113.78 637.255 1113.83C638.718 1113.87 639.993 1114.63 640.701 1115.86C641.126 1116.56 641.267 1117.51 641.267 1118.17C641.267 1118.45 641.267 1118.74 641.267 1118.97V1131.39H647.451V1117.79C647.451 1116.52 647.31 1115.38 647.027 1114.35C646.649 1112.6 645.752 1111.23 644.43 1110.24Z" fill="#0A2540" fill-opacity="0.55"/>
<path d="M724.349 1124.49C723.358 1125.43 721.328 1127.08 718.401 1127.18C715.946 1127.27 714.105 1126.61 712.831 1125.24C712.217 1124.58 711.792 1123.78 711.509 1122.83L728.645 1122.88L728.692 1122.74C728.881 1121.89 728.929 1121.04 728.929 1120.14C728.929 1119.44 728.787 1118.3 728.409 1116.98C727.654 1114.48 726.143 1112.4 724.208 1110.89C721.989 1109.24 719.817 1108.81 719.251 1108.72C714.814 1107.96 709.762 1109.99 707.213 1114.05C705.419 1116.89 705.466 1119.77 705.514 1120.71C705.561 1121.7 705.702 1125.19 708.346 1128.07C711.509 1131.57 715.946 1131.76 717.363 1131.8C723.452 1132.04 727.607 1128.22 728.504 1127.32L724.349 1124.49ZM713.633 1115.14C714.577 1114.48 715.663 1114.1 717.032 1114.1C718.401 1114.15 719.534 1114.48 720.431 1115.14C721.375 1115.85 722.131 1116.79 722.508 1117.97H711.556C711.934 1116.79 712.642 1115.8 713.633 1115.14Z" fill="#0A2540" fill-opacity="0.55"/>
</g>
<g filter="url(#filter5_d_2307_16026)">
<g clip-path="url(#clip3_2307_16026)">
<rect x="1172.03" y="209.753" width="1059.12" height="783.349" rx="17.6718" fill="white"/>
</g>
<rect x="1173.14" y="210.857" width="1056.91" height="781.14" rx="16.5673" stroke="#0A2540" stroke-opacity="0.05" stroke-width="2.20897"/>
</g>
</g>
<defs>
<filter id="filter0_ddd_2307_16026" x="44.3586" y="190.131" width="1108.22" height="128.622" filterUnits="userSpaceOnUse" color-interpolation-filters="sRGB">
<feFlood flood-opacity="0" result="BackgroundImageFix"/>
<feColorMatrix in="SourceAlpha" type="matrix" values="0 0 0 0 0 0 0 0 0 0 0 0 0 0 0 0 0 0 127 0" result="hardAlpha"/>
<feMorphology radius="2.21907" operator="dilate" in="SourceAlpha" result="effect1_dropShadow_2307_16026"/>
<feOffset dy="4.972"/>
<feGaussianBlur stdDeviation="11.187"/>
<feColorMatrix type="matrix" values="0 0 0 0 0 0 0 0 0 0 0 0 0 0 0 0 0 0 0.08 0"/>
<feBlend mode="normal" in2="BackgroundImageFix" result="effect1_dropShadow_2307_16026"/>
<feColorMatrix in="SourceAlpha" type="matrix" values="0 0 0 0 0 0 0 0 0 0 0 0 0 0 0 0 0 0 127 0" result="hardAlpha"/>
<feOffset dy="4.43813"/>
<feGaussianBlur stdDeviation="4.43813"/>
<feColorMatrix type="matrix" values="0 0 0 0 0 0 0 0 0 0.0313726 0 0 0 0 0.196078 0 0 0 0.04 0"/>
<feBlend mode="normal" in2="effect1_dropShadow_2307_16026" result="effect2_dropShadow_2307_16026"/>
<feColorMatrix in="SourceAlpha" type="matrix" values="0 0 0 0 0 0 0 0 0 0 0 0 0 0 0 0 0 0 127 0" result="hardAlpha"/>
<feOffset/>
<feGaussianBlur stdDeviation="2.21907"/>
<feColorMatrix type="matrix" values="0 0 0 0 0 0 0 0 0 0.0313726 0 0 0 0 0.196078 0 0 0 0.04 0"/>
<feBlend mode="normal" in2="effect2_dropShadow_2307_16026" result="effect3_dropShadow_2307_16026"/>
<feBlend mode="normal" in="SourceGraphic" in2="effect3_dropShadow_2307_16026" result="shape"/>
</filter>
<filter id="filter1_ddd_2307_16026" x="44.3586" y="288.213" width="1108.22" height="128.622" filterUnits="userSpaceOnUse" color-interpolation-filters="sRGB">
<feFlood flood-opacity="0" result="BackgroundImageFix"/>
<feColorMatrix in="SourceAlpha" type="matrix" values="0 0 0 0 0 0 0 0 0 0 0 0 0 0 0 0 0 0 127 0" result="hardAlpha"/>
<feMorphology radius="2.21907" operator="dilate" in="SourceAlpha" result="effect1_dropShadow_2307_16026"/>
<feOffset dy="4.972"/>
<feGaussianBlur stdDeviation="11.187"/>
<feColorMatrix type="matrix" values="0 0 0 0 0 0 0 0 0 0 0 0 0 0 0 0 0 0 0.08 0"/>
<feBlend mode="normal" in2="BackgroundImageFix" result="effect1_dropShadow_2307_16026"/>
<feColorMatrix in="SourceAlpha" type="matrix" values="0 0 0 0 0 0 0 0 0 0 0 0 0 0 0 0 0 0 127 0" result="hardAlpha"/>
<feOffset dy="4.43813"/>
<feGaussianBlur stdDeviation="4.43813"/>
<feColorMatrix type="matrix" values="0 0 0 0 0 0 0 0 0 0.0313726 0 0 0 0 0.196078 0 0 0 0.04 0"/>
<feBlend mode="normal" in2="effect1_dropShadow_2307_16026" result="effect2_dropShadow_2307_16026"/>
<feColorMatrix in="SourceAlpha" type="matrix" values="0 0 0 0 0 0 0 0 0 0 0 0 0 0 0 0 0 0 127 0" result="hardAlpha"/>
<feOffset/>
<feGaussianBlur stdDeviation="2.21907"/>
<feColorMatrix type="matrix" values="0 0 0 0 0 0 0 0 0 0.0313726 0 0 0 0 0.196078 0 0 0 0.04 0"/>
<feBlend mode="normal" in2="effect2_dropShadow_2307_16026" result="effect3_dropShadow_2307_16026"/>
<feBlend mode="normal" in="SourceGraphic" in2="effect3_dropShadow_2307_16026" result="shape"/>
</filter>
<filter id="filter2_ddd_2307_16026" x="40.1065" y="383.725" width="1116.82" height="255.531" filterUnits="userSpaceOnUse" color-interpolation-filters="sRGB">
<feFlood flood-opacity="0" result="BackgroundImageFix"/>
<feColorMatrix in="SourceAlpha" type="matrix" values="0 0 0 0 0 0 0 0 0 0 0 0 0 0 0 0 0 0 127 0" result="hardAlpha"/>
<feMorphology radius="2.21907" operator="dilate" in="SourceAlpha" result="effect1_dropShadow_2307_16026"/>
<feOffset dy="6.6572"/>
<feGaussianBlur stdDeviation="13.3144"/>
<feColorMatrix type="matrix" values="0 0 0 0 0 0 0 0 0 0 0 0 0 0 0 0 0 0 0.08 0"/>
<feBlend mode="normal" in2="BackgroundImageFix" result="effect1_dropShadow_2307_16026"/>
<feColorMatrix in="SourceAlpha" type="matrix" values="0 0 0 0 0 0 0 0 0 0 0 0 0 0 0 0 0 0 127 0" result="hardAlpha"/>
<feOffset dy="4.43813"/>
<feGaussianBlur stdDeviation="4.43813"/>
<feColorMatrix type="matrix" values="0 0 0 0 0 0 0 0 0 0.0313726 0 0 0 0 0.196078 0 0 0 0.04 0"/>
<feBlend mode="normal" in2="effect1_dropShadow_2307_16026" result="effect2_dropShadow_2307_16026"/>
<feColorMatrix in="SourceAlpha" type="matrix" values="0 0 0 0 0 0 0 0 0 0 0 0 0 0 0 0 0 0 127 0" result="hardAlpha"/>
<feOffset/>
<feGaussianBlur stdDeviation="2.21907"/>
<feColorMatrix type="matrix" values="0 0 0 0 0 0 0 0 0 0.0313726 0 0 0 0 0.196078 0 0 0 0.04 0"/>
<feBlend mode="normal" in2="effect2_dropShadow_2307_16026" result="effect3_dropShadow_2307_16026"/>
<feBlend mode="normal" in="SourceGraphic" in2="effect3_dropShadow_2307_16026" result="shape"/>
</filter>
<filter id="filter3_ddd_2307_16026" x="40.1065" y="599.214" width="1116.82" height="255.531" filterUnits="userSpaceOnUse" color-interpolation-filters="sRGB">
<feFlood flood-opacity="0" result="BackgroundImageFix"/>
<feColorMatrix in="SourceAlpha" type="matrix" values="0 0 0 0 0 0 0 0 0 0 0 0 0 0 0 0 0 0 127 0" result="hardAlpha"/>
<feMorphology radius="2.21907" operator="dilate" in="SourceAlpha" result="effect1_dropShadow_2307_16026"/>
<feOffset dy="6.6572"/>
<feGaussianBlur stdDeviation="13.3144"/>
<feColorMatrix type="matrix" values="0 0 0 0 0 0 0 0 0 0 0 0 0 0 0 0 0 0 0.08 0"/>
<feBlend mode="normal" in2="BackgroundImageFix" result="effect1_dropShadow_2307_16026"/>
<feColorMatrix in="SourceAlpha" type="matrix" values="0 0 0 0 0 0 0 0 0 0 0 0 0 0 0 0 0 0 127 0" result="hardAlpha"/>
<feOffset dy="4.43813"/>
<feGaussianBlur stdDeviation="4.43813"/>
<feColorMatrix type="matrix" values="0 0 0 0 0 0 0 0 0 0.0313726 0 0 0 0 0.196078 0 0 0 0.04 0"/>
<feBlend mode="normal" in2="effect1_dropShadow_2307_16026" result="effect2_dropShadow_2307_16026"/>
<feColorMatrix in="SourceAlpha" type="matrix" values="0 0 0 0 0 0 0 0 0 0 0 0 0 0 0 0 0 0 127 0" result="hardAlpha"/>
<feOffset/>
<feGaussianBlur stdDeviation="2.21907"/>
<feColorMatrix type="matrix" values="0 0 0 0 0 0 0 0 0 0.0313726 0 0 0 0 0.196078 0 0 0 0.04 0"/>
<feBlend mode="normal" in2="effect2_dropShadow_2307_16026" result="effect3_dropShadow_2307_16026"/>
<feBlend mode="normal" in="SourceGraphic" in2="effect3_dropShadow_2307_16026" result="shape"/>
</filter>
<filter id="filter4_ddd_2307_16026" x="40.1065" y="814.702" width="1116.82" height="255.531" filterUnits="userSpaceOnUse" color-interpolation-filters="sRGB">
<feFlood flood-opacity="0" result="BackgroundImageFix"/>
<feColorMatrix in="SourceAlpha" type="matrix" values="0 0 0 0 0 0 0 0 0 0 0 0 0 0 0 0 0 0 127 0" result="hardAlpha"/>
<feMorphology radius="2.21907" operator="dilate" in="SourceAlpha" result="effect1_dropShadow_2307_16026"/>
<feOffset dy="6.6572"/>
<feGaussianBlur stdDeviation="13.3144"/>
<feColorMatrix type="matrix" values="0 0 0 0 0.0392157 0 0 0 0 0.145098 0 0 0 0 0.25098 0 0 0 0.08 0"/>
<feBlend mode="normal" in2="BackgroundImageFix" result="effect1_dropShadow_2307_16026"/>
<feColorMatrix in="SourceAlpha" type="matrix" values="0 0 0 0 0 0 0 0 0 0 0 0 0 0 0 0 0 0 127 0" result="hardAlpha"/>
<feOffset dy="4.43813"/>
<feGaussianBlur stdDeviation="4.43813"/>
<feColorMatrix type="matrix" values="0 0 0 0 0.0392157 0 0 0 0 0.145098 0 0 0 0 0.25098 0 0 0 0.04 0"/>
<feBlend mode="normal" in2="effect1_dropShadow_2307_16026" result="effect2_dropShadow_2307_16026"/>
<feColorMatrix in="SourceAlpha" type="matrix" values="0 0 0 0 0 0 0 0 0 0 0 0 0 0 0 0 0 0 127 0" result="hardAlpha"/>
<feOffset/>
<feGaussianBlur stdDeviation="2.21907"/>
<feColorMatrix type="matrix" values="0 0 0 0 0.0392157 0 0 0 0 0.145098 0 0 0 0 0.25098 0 0 0 0.04 0"/>
<feBlend mode="normal" in2="effect2_dropShadow_2307_16026" result="effect3_dropShadow_2307_16026"/>
<feBlend mode="normal" in="SourceGraphic" in2="effect3_dropShadow_2307_16026" result="shape"/>
</filter>
<filter id="filter5_d_2307_16026" x="1142.8" y="187.266" width="1117.58" height="841.814" filterUnits="userSpaceOnUse" color-interpolation-filters="sRGB">
<feFlood flood-opacity="0" result="BackgroundImageFix"/>
<feColorMatrix in="SourceAlpha" type="matrix" values="0 0 0 0 0 0 0 0 0 0 0 0 0 0 0 0 0 0 127 0" result="hardAlpha"/>
<feMorphology radius="2.24866" operator="dilate" in="SourceAlpha" result="effect1_dropShadow_2307_16026"/>
<feOffset dy="6.74598"/>
<feGaussianBlur stdDeviation="13.492"/>
<feColorMatrix type="matrix" values="0 0 0 0 0.0392157 0 0 0 0 0.145098 0 0 0 0 0.25098 0 0 0 0.08 0"/>
<feBlend mode="normal" in2="BackgroundImageFix" result="effect1_dropShadow_2307_16026"/>
<feBlend mode="normal" in="SourceGraphic" in2="effect1_dropShadow_2307_16026" result="shape"/>
</filter>
<clipPath id="clip0_2307_16026">
<rect width="1099.09" height="937.221" fill="white" transform="translate(48.9684 209.753)"/>
</clipPath>
<clipPath id="clip1_2307_16026">
<rect width="88.26" height="88.26" fill="white" transform="translate(124.113 461.856)"/>
</clipPath>
<clipPath id="clip2_2307_16026">
<rect x="123.248" y="676.218" width="89.4961" height="89.4961" rx="43.505" fill="white"/>
</clipPath>
<clipPath id="clip3_2307_16026">
<rect x="1172.03" y="209.753" width="1059.12" height="783.349" rx="17.6718" fill="white"/>
</clipPath>
</defs>
</svg>
