<svg width="254" height="39" viewBox="0 0 254 39" fill="none" xmlns="http://www.w3.org/2000/svg">
<path d="M35.3852 0C24.5358 0 15.9055 8.75353 15.9055 19.4797C15.9055 30.3291 24.659 38.9593 35.3852 38.9593C46.1113 38.9593 54.8648 30.2058 54.8648 19.4797C54.8648 8.75353 46.1113 0 35.3852 0ZM35.3852 26.6304C31.4399 26.6304 28.1111 23.3016 28.1111 19.3564C28.1111 15.4111 31.4399 12.0823 35.3852 12.0823C39.3304 12.0823 42.6592 15.4111 42.6592 19.3564C42.5359 23.4249 39.3304 26.6304 35.3852 26.6304Z" fill="white"/>
<path d="M15.781 5.5481V33.9046H8.87681L0 5.5481H15.781Z" fill="white"/>
<path d="M84.1572 10.7156L79.8327 21.4313C79.7561 21.5844 79.7179 21.7757 79.6413 21.9288L79.5648 22.235L79.4882 21.9288C79.45 21.7375 79.3734 21.5844 79.2969 21.393L75.0106 10.7156H69.4231L76.8093 29.0089L73.7477 35.9741H79.2969L89.7064 10.7156H84.1572Z" fill="white"/>
<path d="M104.287 10.8688C101.838 10.0268 99.0823 10.1417 96.5565 11.2898C94.9108 12.0169 93.4948 13.2798 92.5381 14.8872C91.6961 16.3032 91.2751 17.9871 91.2751 19.8624C91.2751 21.7759 91.6961 23.4598 92.5381 24.8758C93.38 26.2918 94.5664 27.4399 96.0207 28.2053C97.5132 29.009 99.2354 29.3917 100.919 29.3917C101.838 29.3917 102.718 29.2769 103.598 29.0473C104.364 28.8559 105.091 28.5497 105.818 28.167C107.31 27.3634 108.535 26.2152 109.339 24.8375C110.181 23.4215 110.602 21.6993 110.602 19.8241C110.602 15.6909 108.191 12.2465 104.287 10.8688ZM105.741 20.0537C105.665 21.6993 105.129 23.0005 104.134 23.8808C103.369 24.5696 102.297 24.9141 100.958 24.9523C99.5798 24.9141 98.5465 24.5313 97.7811 23.8808C96.7861 23.0005 96.2503 21.6993 96.1738 20.0537C96.0972 18.255 96.8244 16.6476 98.1638 15.6909C98.9292 15.1551 99.8477 14.8489 100.958 14.8107C102.067 14.8489 102.986 15.1168 103.751 15.6909C105.091 16.6476 105.818 18.2167 105.741 20.0537Z" fill="white"/>
<path d="M126.904 10.8688C124.455 10.0268 121.7 10.1417 119.174 11.2898C117.528 12.0169 116.112 13.2798 115.155 14.8872C114.313 16.3032 113.892 17.9871 113.892 19.8624C113.892 21.7759 114.313 23.4598 115.155 24.8758C115.997 26.2918 117.184 27.4399 118.638 28.2053C120.131 29.009 121.853 29.3917 123.537 29.3917C124.455 29.3917 125.335 29.2769 126.216 29.0473C126.981 28.8559 127.708 28.5497 128.435 28.167C129.928 27.3634 131.152 26.2152 131.956 24.8375C132.798 23.4215 133.219 21.6993 133.219 19.8241C133.219 15.6909 130.808 12.2465 126.904 10.8688ZM128.359 20.0537C128.282 21.6993 127.746 23.0005 126.751 23.8808C125.986 24.5696 124.914 24.9141 123.575 24.9523C122.197 24.9141 121.164 24.5313 120.398 23.8808C119.403 23.0005 118.868 21.6993 118.791 20.0537C118.715 18.255 119.442 16.6476 120.781 15.6909C121.547 15.1551 122.465 14.8489 123.575 14.8107C124.685 14.8489 125.603 15.1168 126.369 15.6909C127.708 16.6476 128.435 18.2167 128.359 20.0537Z" fill="white"/>
<path d="M248.489 10.8683L244.241 21.4692C244.165 21.6223 244.126 21.8136 244.088 21.9667L244.011 22.2729L243.935 21.9667C243.897 21.7754 243.82 21.6223 243.744 21.4692L239.457 10.8683H233.946L241.256 28.9702L238.233 35.8589H243.705L254 10.8683H248.489Z" fill="white"/>
<path d="M207.543 11.864C206.586 11.1369 205.323 10.6776 203.907 10.5246C201.458 10.2567 199.162 11.0986 197.554 12.7825V10.869H192.503V28.9709H197.516V19.5181C197.554 17.375 197.899 16.8392 198.282 16.2651C198.894 15.3084 200.042 14.7343 201.381 14.7343C202.721 14.7343 203.946 15.3849 204.52 16.3799C204.941 17.1071 205.017 18.0638 205.017 18.5614C205.017 20.207 205.017 28.9709 205.017 28.9709H210.031V17.949C210.031 15.117 209.227 13.127 207.543 11.864Z" fill="white"/>
<path d="M182.856 11.0219C180.445 10.1799 177.728 10.333 175.202 11.4428C173.595 12.17 172.179 13.4329 171.26 15.002C170.418 16.418 169.997 18.0636 169.997 19.9006C169.997 21.7759 170.418 23.4598 171.26 24.8758C172.102 26.2918 173.25 27.4016 174.705 28.167C176.159 28.9324 177.881 29.3534 179.565 29.3534C180.445 29.3534 181.364 29.2386 182.206 29.009C182.971 28.8176 183.698 28.5115 184.387 28.1288C185.88 27.3251 187.066 26.177 187.87 24.8375C188.712 23.4215 189.133 21.7376 189.133 19.8623C189.094 15.7674 186.721 12.3613 182.856 11.0219ZM184.272 20.092C184.196 21.6993 183.66 23.0005 182.665 23.8425C181.899 24.5313 180.866 24.8758 179.527 24.914C178.187 24.8758 177.154 24.4931 176.388 23.8425C175.393 23.0005 174.858 21.6993 174.781 20.092C174.705 18.2933 175.432 16.7242 176.733 15.7674C177.498 15.2316 178.417 14.9255 179.488 14.9255C180.598 14.9637 181.517 15.2316 182.282 15.7674C183.66 16.7242 184.349 18.2933 184.272 20.092Z" fill="white"/>
<path d="M164.219 11.8257C163.262 11.0985 161.999 10.6393 160.583 10.4862C160.277 10.4479 159.971 10.4479 159.665 10.4479C157.675 10.4862 155.953 11.3282 154.498 13.0121L154.23 13.3182H153.695C153.312 12.7442 152.853 12.2084 152.317 11.7874C151.36 11.0603 150.097 10.601 148.681 10.4479C146.347 10.2183 144.471 10.9455 142.826 12.7059V10.7924H137.812V28.8943H142.826V19.518V19.3267C142.902 17.3366 143.094 16.8774 143.476 16.3033C144.089 15.3466 145.199 14.7725 146.385 14.7725C147.61 14.7725 148.719 15.3848 149.294 16.3799C149.753 17.1453 149.753 18.0255 149.714 18.9057V29.0091H154.804V19.2884C154.843 17.4897 155.072 16.8391 155.455 16.2268C156.067 15.27 157.177 14.696 158.402 14.7342C159.588 14.7725 160.622 15.3848 161.196 16.3799C161.54 16.9539 161.655 17.7193 161.655 18.2551C161.655 18.4847 161.655 18.7144 161.655 18.9057V28.9708H166.668V17.949C166.668 16.9156 166.553 15.9972 166.324 15.1552C166.018 13.7392 165.291 12.6294 164.219 11.8257Z" fill="white"/>
<path d="M229.01 23.3834C228.207 24.1488 226.561 25.4883 224.188 25.5648C222.198 25.6414 220.706 25.1056 219.672 23.9958C219.175 23.46 218.83 22.8094 218.601 22.044L232.493 22.0822L232.531 21.9674C232.684 21.2785 232.722 20.5897 232.722 19.8625C232.722 19.2885 232.608 18.37 232.301 17.2984C231.689 15.2701 230.464 13.5862 228.895 12.3615C227.097 11.0221 225.336 10.6776 224.877 10.6011C221.28 9.98876 217.185 11.6344 215.118 14.9256C213.664 17.2219 213.702 19.5564 213.74 20.3218C213.779 21.1255 213.893 23.9575 216.037 26.292C218.601 29.124 222.198 29.2771 223.346 29.3153C228.283 29.5067 231.651 26.4068 232.378 25.6796L229.01 23.3834ZM220.323 15.8059C221.088 15.2701 221.968 14.9639 223.078 14.9639C224.188 15.0022 225.107 15.2701 225.834 15.8059C226.599 16.3799 227.211 17.1453 227.518 18.1021H218.639C218.945 17.1453 219.519 16.3417 220.323 15.8059Z" fill="white"/>
</svg>
