<svg width="360" height="510" viewBox="0 0 360 510" fill="none" xmlns="http://www.w3.org/2000/svg">
<g clip-path="url(#clip0_2048_27191)">
<path d="M0 0H360V510H0V0Z" fill="white"/>
<g clip-path="url(#clip1_2048_27191)">
<rect width="360.49" height="589.046" transform="translate(0 -58.5693)" fill="white"/>
<mask id="mask0_2048_27191" style="mask-type:alpha" maskUnits="userSpaceOnUse" x="0" y="-72" width="362" height="489">
<rect y="-71.5039" width="361.962" height="487.567" fill="url(#paint0_linear_2048_27191)"/>
</mask>
<g mask="url(#mask0_2048_27191)">
<rect y="-71.5693" width="360.49" height="487.52" fill="#1B2471"/>
<g filter="url(#filter0_f_2048_27191)">
<circle cx="360.492" cy="230.497" r="120" fill="#6656A5"/>
</g>
<g filter="url(#filter1_f_2048_27191)">
<circle cx="360.492" cy="313.496" r="120" fill="#51EC77" fill-opacity="0.35"/>
</g>
</g>
<path d="M33.1719 70.1123V56.0205H38.9922C42.1562 56.0205 44.0312 57.7002 44.0312 60.5322V60.5518C44.0312 62.4072 43.0449 63.9502 41.4824 64.5654L44.4512 70.1123H41.1113L38.4844 65.0049H36.1211V70.1123H33.1719ZM36.1211 62.7686H38.6699C40.1348 62.7686 41.0137 61.9385 41.0137 60.5518V60.5322C41.0137 59.1846 40.0859 58.3252 38.6309 58.3252H36.1211V62.7686ZM50.7609 70.3271C47.5578 70.3271 45.6144 68.2471 45.6144 64.8975V64.8877C45.6144 61.5576 47.5773 59.4287 50.6437 59.4287C53.7101 59.4287 55.6339 61.5088 55.6339 64.6729V65.5518H48.4269C48.4562 67.2217 49.3644 68.1982 50.8195 68.1982C51.9914 68.1982 52.7042 67.5537 52.9093 66.9678L52.9289 66.9092H55.546L55.5167 67.0166C55.1945 68.5596 53.7492 70.3271 50.7609 70.3271ZM50.6925 61.5576C49.5207 61.5576 48.6417 62.3389 48.4562 63.7549H52.8996C52.7238 62.3096 51.8742 61.5576 50.6925 61.5576ZM58.2229 70.1123V61.792H56.7972V59.6436H58.2229V58.8037C58.2229 56.7529 59.1995 55.8057 61.6702 55.8057C62.1976 55.8057 62.7737 55.8545 63.1058 55.9229V57.8076C62.9104 57.7686 62.637 57.7588 62.3733 57.7588C61.4261 57.7588 61.0062 58.1592 61.0062 58.9111V59.6436H63.0862V61.792H61.0745V70.1123H58.2229ZM66.4272 58.2959C65.5678 58.2959 64.9038 57.6221 64.9038 56.8115C64.9038 56.001 65.5678 55.3271 66.4272 55.3271C67.2866 55.3271 67.9506 56.001 67.9506 56.8115C67.9506 57.6221 67.2866 58.2959 66.4272 58.2959ZM65.0014 70.1123V59.6436H67.853V70.1123H65.0014ZM70.1881 70.1123V56.0205H73.0396V70.1123H70.1881ZM75.3845 70.1123V56.0205H78.2361V70.1123H75.3845ZM86.3145 58.2959C85.4551 58.2959 84.7911 57.6221 84.7911 56.8115C84.7911 56.001 85.4551 55.3271 86.3145 55.3271C87.1739 55.3271 87.8379 56.001 87.8379 56.8115C87.8379 57.6221 87.1739 58.2959 86.3145 58.2959ZM84.8887 70.1123V59.6436H87.7403V70.1123H84.8887ZM90.007 70.1123V59.6436H92.8586V61.3623H92.9172C93.4543 60.1611 94.5285 59.4287 96.1105 59.4287C98.4152 59.4287 99.7238 60.9033 99.7238 63.3545V70.1123H96.8723V63.9404C96.8723 62.5732 96.2277 61.792 94.9484 61.792C93.6691 61.792 92.8586 62.7295 92.8586 64.0967V70.1123H90.007ZM104.588 70.1123L100.965 59.6436H104.012L106.2 67.5928H106.258L108.416 59.6436H111.395L107.801 70.1123H104.588ZM117.138 70.3271C113.935 70.3271 111.992 68.2471 111.992 64.8975V64.8877C111.992 61.5576 113.955 59.4287 117.021 59.4287C120.087 59.4287 122.011 61.5088 122.011 64.6729V65.5518H114.804C114.833 67.2217 115.742 68.1982 117.197 68.1982C118.369 68.1982 119.082 67.5537 119.287 66.9678L119.306 66.9092H121.923L121.894 67.0166C121.572 68.5596 120.126 70.3271 117.138 70.3271ZM117.07 61.5576C115.898 61.5576 115.019 62.3389 114.833 63.7549H119.277C119.101 62.3096 118.251 61.5576 117.07 61.5576ZM128.145 70.3271C125.245 70.3271 123.633 68.9893 123.409 67.0068L123.399 66.9189H126.182L126.202 67.0068C126.387 67.8271 127.003 68.3057 128.145 68.3057C129.219 68.3057 129.874 67.8857 129.874 67.2119V67.2021C129.874 66.6455 129.522 66.3232 128.497 66.0986L126.719 65.7275C124.688 65.2979 123.663 64.2822 123.663 62.7197V62.71C123.663 60.7178 125.381 59.4287 128.048 59.4287C130.831 59.4287 132.383 60.9033 132.452 62.7393V62.8369H129.825L129.815 62.7588C129.717 62.0068 129.102 61.4404 128.048 61.4404C127.061 61.4404 126.446 61.8799 126.446 62.5537V62.5635C126.446 63.1006 126.807 63.4521 127.862 63.6768L129.639 64.0576C131.827 64.5166 132.725 65.376 132.725 66.9189V66.9287C132.725 68.9795 130.84 70.3271 128.145 70.3271ZM138.644 70.3271C136.32 70.3271 135.226 69.4287 135.226 67.1826V61.792H133.771V59.6436H135.226V57.085H138.107V59.6436H140.021V61.792H138.107V66.8701C138.107 67.8467 138.547 68.1787 139.406 68.1787C139.66 68.1787 139.846 68.1494 140.021 68.1299V70.2197C139.699 70.2686 139.24 70.3271 138.644 70.3271ZM141.946 70.1123V59.6436H144.798V61.4014H144.856C145.286 60.21 146.38 59.4287 147.786 59.4287C149.251 59.4287 150.315 60.21 150.667 61.5869H150.726C151.194 60.2686 152.444 59.4287 153.977 59.4287C156.028 59.4287 157.405 60.8447 157.405 62.9541V70.1123H154.554V63.667C154.554 62.4561 153.948 61.792 152.845 61.792C151.761 61.792 151.048 62.583 151.048 63.7451V70.1123H148.304V63.5791C148.304 62.4561 147.669 61.792 146.614 61.792C145.53 61.792 144.798 62.6123 144.798 63.7939V70.1123H141.946ZM164.33 70.3271C161.127 70.3271 159.184 68.2471 159.184 64.8975V64.8877C159.184 61.5576 161.147 59.4287 164.213 59.4287C167.279 59.4287 169.203 61.5088 169.203 64.6729V65.5518H161.996C162.025 67.2217 162.934 68.1982 164.389 68.1982C165.561 68.1982 166.274 67.5537 166.479 66.9678L166.498 66.9092H169.115L169.086 67.0166C168.764 68.5596 167.318 70.3271 164.33 70.3271ZM164.262 61.5576C163.09 61.5576 162.211 62.3389 162.025 63.7549H166.469C166.293 62.3096 165.443 61.5576 164.262 61.5576ZM171.031 70.1123V59.6436H173.882V61.3623H173.941C174.478 60.1611 175.552 59.4287 177.134 59.4287C179.439 59.4287 180.747 60.9033 180.747 63.3545V70.1123H177.896V63.9404C177.896 62.5732 177.251 61.792 175.972 61.792C174.693 61.792 173.882 62.7295 173.882 64.0967V70.1123H171.031ZM187.067 70.3271C184.743 70.3271 183.649 69.4287 183.649 67.1826V61.792H182.194V59.6436H183.649V57.085H186.53V59.6436H188.444V61.792H186.53V66.8701C186.53 67.8467 186.969 68.1787 187.829 68.1787C188.082 68.1787 188.268 68.1494 188.444 68.1299V70.2197C188.121 70.2686 187.662 70.3271 187.067 70.3271Z" fill="white"/>
<path d="M40.7227 105.55C36.9629 105.55 34.6523 103.923 33.7227 101.981C33.5039 101.53 33.4082 101.093 33.4082 100.683C33.4082 99.6162 34.0918 98.9463 35.2266 98.9463C36.0469 98.9463 36.5664 99.2744 36.9766 100.026C37.6738 101.407 38.7402 102.228 40.791 102.228C42.8145 102.228 44.209 101.052 44.209 99.4111C44.2227 97.4971 42.8145 96.4307 40.4219 96.4307H39.5605C38.5625 96.4307 37.9883 95.8428 37.9883 94.9541C37.9883 94.0928 38.5625 93.4912 39.5605 93.4912H40.3672C42.4316 93.4912 43.7715 92.3701 43.7715 90.7568C43.7715 89.1709 42.7051 88.1182 40.709 88.1182C39.041 88.1182 38.0293 88.8154 37.3867 90.21C36.9355 91.1397 36.457 91.4814 35.5273 91.4814C34.3789 91.4814 33.791 90.8115 33.791 89.8135C33.791 89.3486 33.8867 88.9522 34.0918 88.4873C34.9668 86.5596 37.209 84.9463 40.6953 84.9463C44.8652 84.9463 47.6816 87.0107 47.6816 90.1689C47.6816 92.6709 45.8906 94.3115 43.5664 94.79V94.8721C46.5059 95.1455 48.4062 96.8682 48.4062 99.5889C48.4062 103.171 45.3027 105.55 40.7227 105.55ZM58.2949 105.399C57.0781 105.399 56.2441 104.579 56.2441 103.335V89.2119H56.1621L53.2773 91.2217C52.8945 91.4951 52.6074 91.5908 52.1835 91.5908C51.3496 91.5908 50.7343 90.9893 50.7343 90.1143C50.7343 89.4854 50.9804 89.0205 51.623 88.5693L55.5332 85.8623C56.4902 85.2061 57.1464 85.083 57.9941 85.083C59.457 85.083 60.332 85.9717 60.332 87.3936V103.335C60.332 104.579 59.5117 105.399 58.2949 105.399ZM72.8593 105.55C67.8554 105.55 64.8065 101.599 64.8065 95.2139C64.8065 88.8428 67.8827 84.9326 72.8593 84.9326C77.8358 84.9326 80.8983 88.8291 80.8983 95.2002C80.8983 101.571 77.8632 105.55 72.8593 105.55ZM72.8593 102.241C75.2929 102.241 76.7011 99.7393 76.7011 95.2139C76.7011 90.7158 75.2792 88.2412 72.8593 88.2412C70.453 88.2412 69.0038 90.7295 69.0038 95.2139C69.0038 99.7393 70.4257 102.241 72.8593 102.241ZM85.6053 101.462C86.6444 101.462 87.3143 102.063 87.3143 103.048C87.3143 103.308 87.287 103.567 87.2186 103.854L86.1112 108.462C85.9061 109.378 85.4276 109.802 84.4842 109.802C83.5272 109.802 82.994 109.173 83.035 108.325C83.035 108.216 83.0487 108.147 83.0623 108.106L83.7596 103.116C83.8963 101.968 84.5662 101.462 85.6053 101.462ZM96.656 105.399C95.4392 105.399 94.6053 104.579 94.6053 103.335V89.2119H94.5232L91.6385 91.2217C91.2556 91.4951 90.9685 91.5908 90.5447 91.5908C89.7107 91.5908 89.0955 90.9893 89.0955 90.1143C89.0955 89.4854 89.3416 89.0205 89.9842 88.5693L93.8943 85.8623C94.8514 85.2061 95.5076 85.083 96.3553 85.083C97.8181 85.083 98.6931 85.9717 98.6931 87.3936V103.335C98.6931 104.579 97.8728 105.399 96.656 105.399ZM111.22 105.55C106.217 105.55 103.168 101.599 103.168 95.2139C103.168 88.8428 106.244 84.9326 111.22 84.9326C116.197 84.9326 119.26 88.8291 119.26 95.2002C119.26 101.571 116.224 105.55 111.22 105.55ZM111.22 102.241C113.654 102.241 115.062 99.7393 115.062 95.2139C115.062 90.7158 113.64 88.2412 111.22 88.2412C108.814 88.2412 107.365 90.7295 107.365 95.2139C107.365 99.7393 108.787 102.241 111.22 102.241ZM127.963 97.7295C127.539 97.7295 127.265 97.4424 127.265 97.0459C127.265 96.6221 127.539 96.3623 127.963 96.3623H129.343C129.316 95.9932 129.302 95.624 129.302 95.2412C129.302 94.8857 129.316 94.5439 129.343 94.2158H127.963C127.539 94.2158 127.265 93.9287 127.265 93.5322C127.265 93.1084 127.539 92.8486 127.963 92.8486H129.507C130.355 88.1592 133.746 85.3975 138.312 85.3975C141.922 85.3975 144.588 86.9014 145.886 89.5127C146.146 89.9639 146.269 90.4287 146.269 90.8662C146.269 91.8232 145.572 92.4522 144.505 92.4522C143.644 92.4522 143.152 92.0693 142.646 91.2217C141.73 89.4854 140.185 88.7334 138.394 88.7334C135.947 88.7334 134.224 90.2647 133.582 92.8486H139.884C140.308 92.8486 140.582 93.1084 140.582 93.5322C140.582 93.9287 140.308 94.2158 139.884 94.2158H133.363C133.336 94.5439 133.322 94.8857 133.308 95.2275C133.322 95.624 133.336 96.0068 133.363 96.3623H139.884C140.308 96.3623 140.582 96.6221 140.582 97.0459C140.582 97.4424 140.308 97.7295 139.884 97.7295H133.609C134.252 100.272 135.974 101.763 138.408 101.763C140.226 101.763 141.798 101.147 142.687 99.3838C143.179 98.5361 143.63 98.1533 144.464 98.1533C145.599 98.1533 146.31 98.7822 146.31 99.7666C146.31 100.122 146.242 100.505 146.078 100.888C144.929 103.622 141.867 105.085 138.422 105.085C133.746 105.085 130.382 102.378 129.521 97.7295H127.963Z" fill="white"/>
<rect x="31.1797" y="282.294" width="22" height="30" rx="5.97235" fill="#D7BA50"/>
<rect x="85.0039" y="258.294" width="22" height="54" rx="5.85866" fill="#2AC467"/>
<rect x="138.828" y="238.294" width="22" height="74" rx="5.85866" fill="#2AC467"/>
<rect x="192.656" y="272.294" width="22" height="40" rx="5.85866" fill="#D7BA50"/>
<rect x="246.48" y="261.294" width="22" height="51" rx="5.85866" fill="#D7BA50"/>
<g clip-path="url(#clip2_2048_27191)">
<rect x="300.305" y="189.294" width="21.8986" height="122.839" rx="6.99177" fill="#2AC467"/>
<g clip-path="url(#clip3_2048_27191)">
<line y1="-1.99078" x2="58.0508" y2="-1.99078" transform="matrix(-0.819152 0.573576 -0.686642 -0.726996 331.426 300.249)" stroke="#547091" stroke-opacity="0.6" stroke-width="3.98157"/>
<line y1="-1.99078" x2="58.0508" y2="-1.99078" transform="matrix(-0.819152 0.573576 -0.686642 -0.726996 316.547 300.249)" stroke="#547091" stroke-opacity="0.6" stroke-width="3.98157"/>
<line y1="-1.99078" x2="58.0508" y2="-1.99078" transform="matrix(-0.819152 0.573576 -0.686642 -0.726996 301.664 300.249)" stroke="#547091" stroke-opacity="0.6" stroke-width="3.98157"/>
<line y1="-1.99078" x2="58.0508" y2="-1.99078" transform="matrix(-0.819152 0.573576 -0.686642 -0.726996 346.32 300.249)" stroke="#547091" stroke-opacity="0.6" stroke-width="3.98157"/>
</g>
<g clip-path="url(#clip4_2048_27191)">
<line y1="-1.99078" x2="58.0508" y2="-1.99078" transform="matrix(-0.819152 0.573576 -0.686642 -0.726996 331.426 289.797)" stroke="#547091" stroke-opacity="0.6" stroke-width="3.98157"/>
<line y1="-1.99078" x2="58.0508" y2="-1.99078" transform="matrix(-0.819152 0.573576 -0.686642 -0.726996 316.547 289.797)" stroke="#547091" stroke-opacity="0.6" stroke-width="3.98157"/>
<line y1="-1.99078" x2="58.0508" y2="-1.99078" transform="matrix(-0.819152 0.573576 -0.686642 -0.726996 301.664 289.797)" stroke="#547091" stroke-opacity="0.6" stroke-width="3.98157"/>
<line y1="-1.99078" x2="58.0508" y2="-1.99078" transform="matrix(-0.819152 0.573576 -0.686642 -0.726996 346.32 289.797)" stroke="#547091" stroke-opacity="0.6" stroke-width="3.98157"/>
</g>
<g clip-path="url(#clip5_2048_27191)">
<line y1="-1.99078" x2="58.0508" y2="-1.99078" transform="matrix(-0.819152 0.573576 -0.686642 -0.726996 331.426 279.346)" stroke="#547091" stroke-opacity="0.6" stroke-width="3.98157"/>
<line y1="-1.99078" x2="58.0508" y2="-1.99078" transform="matrix(-0.819152 0.573576 -0.686642 -0.726996 316.547 279.346)" stroke="#547091" stroke-opacity="0.6" stroke-width="3.98157"/>
<line y1="-1.99078" x2="58.0508" y2="-1.99078" transform="matrix(-0.819152 0.573576 -0.686642 -0.726996 301.664 279.346)" stroke="#547091" stroke-opacity="0.6" stroke-width="3.98157"/>
<line y1="-1.99078" x2="58.0508" y2="-1.99078" transform="matrix(-0.819152 0.573576 -0.686642 -0.726996 346.32 279.346)" stroke="#547091" stroke-opacity="0.6" stroke-width="3.98157"/>
</g>
<g clip-path="url(#clip6_2048_27191)">
<line y1="-1.99078" x2="58.0508" y2="-1.99078" transform="matrix(-0.819152 0.573576 -0.686642 -0.726996 331.426 268.892)" stroke="#547091" stroke-opacity="0.6" stroke-width="3.98157"/>
<line y1="-1.99078" x2="58.0508" y2="-1.99078" transform="matrix(-0.819152 0.573576 -0.686642 -0.726996 316.547 268.892)" stroke="#547091" stroke-opacity="0.6" stroke-width="3.98157"/>
<line y1="-1.99078" x2="58.0508" y2="-1.99078" transform="matrix(-0.819152 0.573576 -0.686642 -0.726996 301.664 268.892)" stroke="#547091" stroke-opacity="0.6" stroke-width="3.98157"/>
<line y1="-1.99078" x2="58.0508" y2="-1.99078" transform="matrix(-0.819152 0.573576 -0.686642 -0.726996 346.32 268.892)" stroke="#547091" stroke-opacity="0.6" stroke-width="3.98157"/>
</g>
<g clip-path="url(#clip7_2048_27191)">
<line y1="-1.99078" x2="58.0508" y2="-1.99078" transform="matrix(-0.819152 0.573576 -0.686642 -0.726996 331.426 258.442)" stroke="#547091" stroke-opacity="0.6" stroke-width="3.98157"/>
<line y1="-1.99078" x2="58.0508" y2="-1.99078" transform="matrix(-0.819152 0.573576 -0.686642 -0.726996 316.547 258.442)" stroke="#547091" stroke-opacity="0.6" stroke-width="3.98157"/>
<line y1="-1.99078" x2="58.0508" y2="-1.99078" transform="matrix(-0.819152 0.573576 -0.686642 -0.726996 301.664 258.442)" stroke="#547091" stroke-opacity="0.6" stroke-width="3.98157"/>
<line y1="-1.99078" x2="58.0508" y2="-1.99078" transform="matrix(-0.819152 0.573576 -0.686642 -0.726996 346.32 258.442)" stroke="#547091" stroke-opacity="0.6" stroke-width="3.98157"/>
</g>
<g clip-path="url(#clip8_2048_27191)">
<line y1="-1.99078" x2="58.0508" y2="-1.99078" transform="matrix(-0.819152 0.573576 -0.686642 -0.726996 331.426 247.991)" stroke="#547091" stroke-opacity="0.6" stroke-width="3.98157"/>
<line y1="-1.99078" x2="58.0508" y2="-1.99078" transform="matrix(-0.819152 0.573576 -0.686642 -0.726996 316.547 247.991)" stroke="#547091" stroke-opacity="0.6" stroke-width="3.98157"/>
<line y1="-1.99078" x2="58.0508" y2="-1.99078" transform="matrix(-0.819152 0.573576 -0.686642 -0.726996 301.664 247.991)" stroke="#547091" stroke-opacity="0.6" stroke-width="3.98157"/>
<line y1="-1.99078" x2="58.0508" y2="-1.99078" transform="matrix(-0.819152 0.573576 -0.686642 -0.726996 346.32 247.991)" stroke="#547091" stroke-opacity="0.6" stroke-width="3.98157"/>
</g>
<g clip-path="url(#clip9_2048_27191)">
<line y1="-1.99078" x2="58.0508" y2="-1.99078" transform="matrix(-0.819152 0.573576 -0.686642 -0.726996 331.426 237.538)" stroke="#547091" stroke-opacity="0.6" stroke-width="3.98157"/>
<line y1="-1.99078" x2="58.0508" y2="-1.99078" transform="matrix(-0.819152 0.573576 -0.686642 -0.726996 316.547 237.538)" stroke="#547091" stroke-opacity="0.6" stroke-width="3.98157"/>
<line y1="-1.99078" x2="58.0508" y2="-1.99078" transform="matrix(-0.819152 0.573576 -0.686642 -0.726996 301.664 237.538)" stroke="#547091" stroke-opacity="0.6" stroke-width="3.98157"/>
<line y1="-1.99078" x2="58.0508" y2="-1.99078" transform="matrix(-0.819152 0.573576 -0.686642 -0.726996 346.32 237.538)" stroke="#547091" stroke-opacity="0.6" stroke-width="3.98157"/>
</g>
<g clip-path="url(#clip10_2048_27191)">
<line y1="-1.99078" x2="58.0508" y2="-1.99078" transform="matrix(-0.819152 0.573576 -0.686642 -0.726996 331.426 227.086)" stroke="#547091" stroke-opacity="0.6" stroke-width="3.98157"/>
<line y1="-1.99078" x2="58.0508" y2="-1.99078" transform="matrix(-0.819152 0.573576 -0.686642 -0.726996 316.547 227.086)" stroke="#547091" stroke-opacity="0.6" stroke-width="3.98157"/>
<line y1="-1.99078" x2="58.0508" y2="-1.99078" transform="matrix(-0.819152 0.573576 -0.686642 -0.726996 301.664 227.086)" stroke="#547091" stroke-opacity="0.6" stroke-width="3.98157"/>
<line y1="-1.99078" x2="58.0508" y2="-1.99078" transform="matrix(-0.819152 0.573576 -0.686642 -0.726996 346.32 227.086)" stroke="#547091" stroke-opacity="0.6" stroke-width="3.98157"/>
</g>
<g clip-path="url(#clip11_2048_27191)">
<line y1="-1.99078" x2="58.0508" y2="-1.99078" transform="matrix(-0.819152 0.573576 -0.686642 -0.726996 331.426 216.638)" stroke="#547091" stroke-opacity="0.6" stroke-width="3.98157"/>
<line y1="-1.99078" x2="58.0508" y2="-1.99078" transform="matrix(-0.819152 0.573576 -0.686642 -0.726996 316.547 216.638)" stroke="#547091" stroke-opacity="0.6" stroke-width="3.98157"/>
<line y1="-1.99078" x2="58.0508" y2="-1.99078" transform="matrix(-0.819152 0.573576 -0.686642 -0.726996 301.664 216.638)" stroke="#547091" stroke-opacity="0.6" stroke-width="3.98157"/>
<line y1="-1.99078" x2="58.0508" y2="-1.99078" transform="matrix(-0.819152 0.573576 -0.686642 -0.726996 346.32 216.638)" stroke="#547091" stroke-opacity="0.6" stroke-width="3.98157"/>
</g>
<g clip-path="url(#clip12_2048_27191)">
<line y1="-1.99078" x2="58.0508" y2="-1.99078" transform="matrix(-0.819152 0.573576 -0.686642 -0.726996 331.426 206.186)" stroke="#547091" stroke-opacity="0.6" stroke-width="3.98157"/>
<line y1="-1.99078" x2="58.0508" y2="-1.99078" transform="matrix(-0.819152 0.573576 -0.686642 -0.726996 316.547 206.186)" stroke="#547091" stroke-opacity="0.6" stroke-width="3.98157"/>
<line y1="-1.99078" x2="58.0508" y2="-1.99078" transform="matrix(-0.819152 0.573576 -0.686642 -0.726996 301.664 206.186)" stroke="#547091" stroke-opacity="0.6" stroke-width="3.98157"/>
<line y1="-1.99078" x2="58.0508" y2="-1.99078" transform="matrix(-0.819152 0.573576 -0.686642 -0.726996 346.32 206.186)" stroke="#547091" stroke-opacity="0.6" stroke-width="3.98157"/>
</g>
<g clip-path="url(#clip13_2048_27191)">
<line y1="-1.99078" x2="58.0508" y2="-1.99078" transform="matrix(-0.819152 0.573576 -0.686642 -0.726996 331.426 195.733)" stroke="#547091" stroke-opacity="0.6" stroke-width="3.98157"/>
<line y1="-1.99078" x2="58.0508" y2="-1.99078" transform="matrix(-0.819152 0.573576 -0.686642 -0.726996 316.547 195.733)" stroke="#547091" stroke-opacity="0.6" stroke-width="3.98157"/>
<line y1="-1.99078" x2="58.0508" y2="-1.99078" transform="matrix(-0.819152 0.573576 -0.686642 -0.726996 301.664 195.733)" stroke="#547091" stroke-opacity="0.6" stroke-width="3.98157"/>
<line y1="-1.99078" x2="58.0508" y2="-1.99078" transform="matrix(-0.819152 0.573576 -0.686642 -0.726996 346.32 195.733)" stroke="#547091" stroke-opacity="0.6" stroke-width="3.98157"/>
</g>
<g clip-path="url(#clip14_2048_27191)">
<line y1="-1.99078" x2="58.0508" y2="-1.99078" transform="matrix(-0.819152 0.573576 -0.686642 -0.726996 331.426 185.281)" stroke="#547091" stroke-opacity="0.6" stroke-width="3.98157"/>
<line y1="-1.99078" x2="58.0508" y2="-1.99078" transform="matrix(-0.819152 0.573576 -0.686642 -0.726996 316.547 185.281)" stroke="#547091" stroke-opacity="0.6" stroke-width="3.98157"/>
<line y1="-1.99078" x2="58.0508" y2="-1.99078" transform="matrix(-0.819152 0.573576 -0.686642 -0.726996 301.664 185.281)" stroke="#547091" stroke-opacity="0.6" stroke-width="3.98157"/>
<line y1="-1.99078" x2="58.0508" y2="-1.99078" transform="matrix(-0.819152 0.573576 -0.686642 -0.726996 346.32 185.281)" stroke="#547091" stroke-opacity="0.6" stroke-width="3.98157"/>
</g>
</g>
<path d="M34.299 336.453C32.7194 336.453 31.8285 335.474 31.7337 334.166L31.7274 334.077H32.8647L32.871 334.141C32.9405 334.829 33.3891 335.404 34.2927 335.404C35.3036 335.404 35.847 334.804 35.847 333.692V327.121H36.9843V333.705C36.9843 335.43 35.986 336.453 34.299 336.453ZM41.0407 336.358C39.7454 336.358 38.7661 335.575 38.7661 334.336V334.324C38.7661 333.111 39.6633 332.409 41.2492 332.315L43.2016 332.195V331.575C43.2016 330.735 42.6898 330.28 41.6726 330.28C40.8575 330.28 40.3204 330.583 40.1435 331.114L40.1372 331.133H39.0378L39.0441 331.095C39.221 330.027 40.2572 329.307 41.7105 329.307C43.3722 329.307 44.301 330.16 44.301 331.575V336.238H43.2016V335.234H43.1005C42.6709 335.96 41.9569 336.358 41.0407 336.358ZM39.8908 334.311C39.8908 335 40.4784 335.404 41.2682 335.404C42.3865 335.404 43.2016 334.671 43.2016 333.698V333.079L41.3819 333.193C40.3457 333.256 39.8908 333.622 39.8908 334.299V334.311ZM46.3103 336.238V329.427H47.4097V330.451H47.5108C47.852 329.73 48.4901 329.307 49.4947 329.307C51.0238 329.307 51.8768 330.211 51.8768 331.828V336.238H50.7774V332.093C50.7774 330.868 50.2719 330.28 49.1851 330.28C48.0984 330.28 47.4097 331.013 47.4097 332.207V336.238H46.3103Z" fill="white" fill-opacity="0.7"/>
<path d="M84.862 336.238V327.121H90.3969V328.144H85.9993V331.278H90.0368V332.289H85.9993V336.238H84.862ZM94.9083 336.358C92.9622 336.358 91.787 334.994 91.787 332.858V332.852C91.787 330.748 92.9875 329.307 94.8388 329.307C96.6901 329.307 97.8147 330.684 97.8147 332.719V333.149H92.9117C92.9432 334.558 93.7204 335.379 94.9335 335.379C95.856 335.379 96.4247 334.943 96.6079 334.532L96.6332 334.475H97.7326L97.72 334.526C97.4862 335.448 96.5131 336.358 94.9083 336.358ZM94.8324 330.286C93.8215 330.286 93.0507 330.975 92.9306 332.27H96.6964C96.5826 330.925 95.8371 330.286 94.8324 330.286ZM102.907 336.358C101.96 336.358 101.201 335.91 100.784 335.152H100.683V336.238H99.5839V326.723H100.683V330.501H100.784C101.157 329.775 101.972 329.307 102.907 329.307C104.639 329.307 105.763 330.691 105.763 332.826V332.839C105.763 334.962 104.632 336.358 102.907 336.358ZM102.655 335.385C103.899 335.385 104.639 334.425 104.639 332.839V332.826C104.639 331.24 103.899 330.28 102.655 330.28C101.416 330.28 100.658 331.253 100.658 332.826V332.839C100.658 334.412 101.416 335.385 102.655 335.385Z" fill="white" fill-opacity="0.7"/>
<path d="M140.093 336.238V327.121H141.414L144.535 334.728H144.636L147.757 327.121H149.078V336.238H148.016V329.275H147.947L145.066 336.238H144.105L141.224 329.275H141.154V336.238H140.093ZM153.134 336.358C151.839 336.358 150.86 335.575 150.86 334.336V334.324C150.86 333.111 151.757 332.409 153.343 332.315L155.295 332.195V331.575C155.295 330.735 154.783 330.28 153.766 330.28C152.951 330.28 152.414 330.583 152.237 331.114L152.231 331.133H151.131L151.138 331.095C151.314 330.027 152.351 329.307 153.804 329.307C155.466 329.307 156.394 330.16 156.394 331.575V336.238H155.295V335.234H155.194C154.764 335.96 154.05 336.358 153.134 336.358ZM151.984 334.311C151.984 335 152.572 335.404 153.362 335.404C154.48 335.404 155.295 334.671 155.295 333.698V333.079L153.475 333.193C152.439 333.256 151.984 333.622 151.984 334.299V334.311ZM158.404 336.238V329.427H159.503V330.438H159.604C159.863 329.724 160.501 329.307 161.424 329.307C161.632 329.307 161.866 329.332 161.974 329.351V330.419C161.746 330.381 161.538 330.356 161.298 330.356C160.249 330.356 159.503 331.019 159.503 332.018V336.238H158.404Z" fill="white" fill-opacity="0.7"/>
<path d="M193.341 336.238L196.702 327.121H197.827L201.188 336.238H199.994L199.078 333.629H195.451L194.535 336.238H193.341ZM197.214 328.593L195.786 332.662H198.743L197.315 328.593H197.214ZM202.648 338.513V329.427H203.747V330.514H203.848C204.265 329.756 205.024 329.307 205.971 329.307C207.696 329.307 208.827 330.703 208.827 332.826V332.839C208.827 334.975 207.703 336.358 205.971 336.358C205.036 336.358 204.221 335.891 203.848 335.164H203.747V338.513H202.648ZM205.719 335.385C206.963 335.385 207.703 334.425 207.703 332.839V332.826C207.703 331.24 206.963 330.28 205.719 330.28C204.48 330.28 203.722 331.253 203.722 332.826V332.839C203.722 334.412 204.48 335.385 205.719 335.385ZM210.546 336.238V329.427H211.645V330.438H211.746C212.005 329.724 212.644 329.307 213.566 329.307C213.775 329.307 214.008 329.332 214.116 329.351V330.419C213.888 330.381 213.68 330.356 213.44 330.356C212.391 330.356 211.645 331.019 211.645 332.018V336.238H210.546Z" fill="white" fill-opacity="0.7"/>
<path d="M245.785 336.238V327.121H247.106L250.227 334.728H250.328L253.45 327.121H254.77V336.238H253.709V329.275H253.639L250.758 336.238H249.798L246.916 329.275H246.847V336.238H245.785ZM258.827 336.358C257.531 336.358 256.552 335.575 256.552 334.336V334.324C256.552 333.111 257.449 332.409 259.035 332.315L260.987 332.195V331.575C260.987 330.735 260.476 330.28 259.458 330.28C258.643 330.28 258.106 330.583 257.929 331.114L257.923 331.133H256.824L256.83 331.095C257.007 330.027 258.043 329.307 259.496 329.307C261.158 329.307 262.087 330.16 262.087 331.575V336.238H260.987V335.234H260.886C260.457 335.96 259.743 336.358 258.827 336.358ZM257.677 334.311C257.677 335 258.264 335.404 259.054 335.404C260.172 335.404 260.987 334.671 260.987 333.698V333.079L259.168 333.193C258.132 333.256 257.677 333.622 257.677 334.299V334.311ZM264.425 338.627C264.279 338.627 264.09 338.614 263.938 338.589V337.685C264.071 337.71 264.241 337.717 264.393 337.717C265.019 337.717 265.398 337.432 265.644 336.649L265.77 336.245L263.249 329.427H264.425L266.295 335.031H266.396L268.26 329.427H269.416L266.756 336.655C266.194 338.184 265.631 338.627 264.425 338.627Z" fill="white" fill-opacity="0.7"/>
<path d="M304.966 336.453C303.386 336.453 302.495 335.474 302.4 334.166L302.394 334.077H303.531L303.538 334.141C303.607 334.829 304.056 335.404 304.959 335.404C305.97 335.404 306.514 334.804 306.514 333.692V327.121H307.651V333.705C307.651 335.43 306.653 336.453 304.966 336.453ZM312.118 336.358C310.57 336.358 309.774 335.448 309.774 333.837V329.427H310.873V333.572C310.873 334.798 311.316 335.385 312.402 335.385C313.603 335.385 314.241 334.652 314.241 333.458V329.427H315.34V336.238H314.241V335.221H314.14C313.805 335.948 313.116 336.358 312.118 336.358ZM317.394 336.238V329.427H318.493V330.451H318.594C318.936 329.73 319.574 329.307 320.578 329.307C322.107 329.307 322.96 330.211 322.96 331.828V336.238H321.861V332.093C321.861 330.868 321.355 330.28 320.269 330.28C319.182 330.28 318.493 331.013 318.493 332.207V336.238H317.394Z" fill="white" fill-opacity="0.7"/>
<g filter="url(#filter2_dd_2048_27191)">
<g clip-path="url(#clip15_2048_27191)">
<path d="M16 387.443C16 374.204 26.7323 363.472 39.9712 363.472H319.658C332.897 363.472 343.629 374.204 343.629 387.443V467.343C343.629 480.581 332.897 491.314 319.658 491.314H39.9712C26.7322 491.314 16 480.582 16 467.343V387.443Z" fill="white"/>
<g clip-path="url(#clip16_2048_27191)">
<path d="M37.0959 397.938V384.477H39.913V397.938H37.0959ZM42.2815 397.938V387.938H45.0053V389.58H45.0612C45.5743 388.432 46.6003 387.733 48.1115 387.733C50.3129 387.733 51.5628 389.141 51.5628 391.483V397.938H48.8391V392.042C48.8391 390.736 48.2234 389.99 47.0014 389.99C45.7795 389.99 45.0053 390.886 45.0053 392.191V397.938H42.2815ZM56.2353 397.938L52.7747 387.938H55.685L57.7745 395.531H57.8304L59.8919 387.938H62.737L59.3043 397.938H56.2353ZM68.249 398.143C65.1894 398.143 63.3331 396.156 63.3331 392.956V392.947C63.3331 389.766 65.2081 387.733 68.1371 387.733C71.0661 387.733 72.9037 389.72 72.9037 392.742V393.581H66.0196C66.0476 395.176 66.9151 396.109 68.305 396.109C69.4243 396.109 70.1053 395.494 70.3012 394.934L70.3198 394.878H72.8197L72.7917 394.981C72.4839 396.454 71.1034 398.143 68.249 398.143ZM68.1837 389.766C67.0643 389.766 66.2248 390.512 66.0476 391.865H70.2918C70.1239 390.484 69.3124 389.766 68.1837 389.766ZM78.7888 398.143C76.0184 398.143 74.4793 396.865 74.2647 394.971L74.2554 394.887H76.9139L76.9325 394.971C77.1098 395.755 77.6974 396.212 78.7888 396.212C79.8149 396.212 80.4399 395.811 80.4399 395.167V395.158C80.4399 394.626 80.1041 394.318 79.1246 394.104L77.4269 393.749C75.4867 393.339 74.5073 392.369 74.5073 390.876V390.867C74.5073 388.964 76.149 387.733 78.6955 387.733C81.354 387.733 82.8372 389.141 82.9025 390.895V390.988H80.3932L80.3839 390.914C80.2906 390.195 79.703 389.654 78.6955 389.654C77.7534 389.654 77.1657 390.074 77.1657 390.718V390.727C77.1657 391.24 77.5109 391.576 78.5183 391.79L80.216 392.154C82.3055 392.593 83.1637 393.413 83.1637 394.887V394.897C83.1637 396.855 81.3633 398.143 78.7888 398.143ZM88.8436 398.143C86.6235 398.143 85.5788 397.285 85.5788 395.139V389.99H84.1889V387.938H85.5788V385.494H88.3306V387.938H90.1588V389.99H88.3306V394.841C88.3306 395.773 88.7503 396.091 89.5712 396.091C89.8137 396.091 89.9909 396.063 90.1588 396.044V398.04C89.851 398.087 89.4126 398.143 88.8436 398.143ZM96.4264 398.143C93.3669 398.143 91.5106 396.156 91.5106 392.956V392.947C91.5106 389.766 93.3855 387.733 96.3145 387.733C99.2435 387.733 101.081 389.72 101.081 392.742V393.581H94.197C94.225 395.176 95.0925 396.109 96.4824 396.109C97.6018 396.109 98.2827 395.494 98.4786 394.934L98.4973 394.878H100.997L100.969 394.981C100.661 396.454 99.2808 398.143 96.4264 398.143ZM96.3611 389.766C95.2418 389.766 94.4023 390.512 94.225 391.865H98.4693C98.3014 390.484 97.4898 389.766 96.3611 389.766ZM106.556 398.143C104.037 398.143 102.489 396.184 102.489 392.938V392.928C102.489 389.673 104.037 387.733 106.556 387.733C107.974 387.733 109.093 388.46 109.634 389.673H109.69V384.477H112.414V397.938H109.69V396.23H109.634C109.102 397.415 108.002 398.143 106.556 398.143ZM107.47 395.885C108.795 395.885 109.699 394.747 109.699 392.938V392.928C109.699 391.128 108.785 389.99 107.47 389.99C106.117 389.99 105.259 391.1 105.259 392.928V392.938C105.259 394.757 106.108 395.885 107.47 395.885ZM122.179 397.938V387.061H122.123L118.69 389.393V386.893L122.169 384.477H124.968V397.938H122.179ZM129.053 397.938L134.845 386.772V386.716H127.998V384.477H137.625V386.744L132.009 397.938H129.053ZM142.605 391.408C140.665 391.408 139.48 390.055 139.48 387.882V387.873C139.48 385.708 140.665 384.356 142.605 384.356C144.536 384.356 145.721 385.708 145.721 387.873V387.882C145.721 390.055 144.536 391.408 142.605 391.408ZM143.995 397.938H141.915L150.422 384.477H152.493L143.995 397.938ZM142.605 389.859C143.352 389.859 143.762 389.16 143.762 387.882V387.873C143.762 386.604 143.352 385.904 142.605 385.904C141.85 385.904 141.43 386.604 141.43 387.873V387.882C141.43 389.16 141.85 389.859 142.605 389.859ZM151.812 398.059C149.872 398.059 148.687 396.706 148.687 394.533V394.523C148.687 392.359 149.872 391.007 151.812 391.007C153.743 391.007 154.928 392.359 154.928 394.523V394.533C154.928 396.706 153.743 398.059 151.812 398.059ZM151.812 396.51C152.558 396.51 152.969 395.811 152.969 394.533V394.523C152.969 393.255 152.558 392.555 151.812 392.555C151.056 392.555 150.637 393.255 150.637 394.523V394.533C150.637 395.811 151.056 396.51 151.812 396.51ZM165.7 398.143C162.659 398.143 160.747 396.193 160.747 392.938V392.919C160.747 389.701 162.705 387.733 165.69 387.733C168.685 387.733 170.653 389.682 170.653 392.919V392.938C170.653 396.202 168.722 398.143 165.7 398.143ZM165.709 396.007C167.034 396.007 167.883 394.887 167.883 392.938V392.919C167.883 390.988 167.015 389.869 165.69 389.869C164.375 389.869 163.517 390.988 163.517 392.919V392.938C163.517 394.897 164.366 396.007 165.709 396.007ZM173.152 397.938V389.99H171.79V387.938H173.152V387.136C173.152 385.177 174.085 384.272 176.445 384.272C176.949 384.272 177.499 384.319 177.816 384.384V386.184C177.629 386.147 177.368 386.138 177.116 386.138C176.212 386.138 175.811 386.52 175.811 387.238V387.938H177.797V389.99H175.876V397.938H173.152ZM185.165 386.651C184.344 386.651 183.71 386.007 183.71 385.233C183.71 384.459 184.344 383.815 185.165 383.815C185.986 383.815 186.62 384.459 186.62 385.233C186.62 386.007 185.986 386.651 185.165 386.651ZM183.803 397.938V387.938H186.527V397.938H183.803ZM188.718 397.938V387.938H191.442V389.58H191.498C192.011 388.432 193.037 387.733 194.548 387.733C196.749 387.733 197.999 389.141 197.999 391.483V397.938H195.276V392.042C195.276 390.736 194.66 389.99 193.438 389.99C192.216 389.99 191.442 390.886 191.442 392.191V397.938H188.718ZM204.659 398.143C201.608 398.143 199.724 396.156 199.724 392.928V392.919C199.724 389.72 201.636 387.733 204.631 387.733C207.345 387.733 209.071 389.402 209.174 391.566V391.632H206.646L206.627 391.548C206.459 390.596 205.797 389.869 204.668 389.869C203.334 389.869 202.495 391.016 202.495 392.928V392.938C202.495 394.897 203.334 396.007 204.677 396.007C205.769 396.007 206.45 395.335 206.636 394.328L206.646 394.244H209.183V394.3C209.052 396.482 207.327 398.143 204.659 398.143ZM215.45 398.143C212.41 398.143 210.497 396.193 210.497 392.938V392.919C210.497 389.701 212.456 387.733 215.441 387.733C218.435 387.733 220.404 389.682 220.404 392.919V392.938C220.404 396.202 218.473 398.143 215.45 398.143ZM215.46 396.007C216.784 396.007 217.633 394.887 217.633 392.938V392.919C217.633 390.988 216.766 389.869 215.441 389.869C214.126 389.869 213.268 390.988 213.268 392.919V392.938C213.268 394.897 214.117 396.007 215.46 396.007ZM222.175 397.938V387.938H224.899V389.617H224.955C225.365 388.479 226.41 387.733 227.753 387.733C229.152 387.733 230.169 388.479 230.505 389.794H230.561C231.009 388.535 232.203 387.733 233.667 387.733C235.626 387.733 236.941 389.085 236.941 391.1V397.938H234.218V391.781C234.218 390.624 233.639 389.99 232.585 389.99C231.55 389.99 230.869 390.746 230.869 391.856V397.938H228.248V391.697C228.248 390.624 227.641 389.99 226.634 389.99C225.598 389.99 224.899 390.774 224.899 391.902V397.938H222.175ZM243.582 398.143C240.522 398.143 238.666 396.156 238.666 392.956V392.947C238.666 389.766 240.541 387.733 243.47 387.733C246.399 387.733 248.237 389.72 248.237 392.742V393.581H241.353C241.381 395.176 242.248 396.109 243.638 396.109C244.757 396.109 245.438 395.494 245.634 394.934L245.653 394.878H248.153L248.125 394.981C247.817 396.454 246.436 398.143 243.582 398.143ZM243.517 389.766C242.397 389.766 241.558 390.512 241.381 391.865H245.625C245.457 390.484 244.645 389.766 243.517 389.766Z" fill="#333333"/>
</g>
<path d="M40.18 425.485V415.853H36.6834V414.635H45.0301V415.853H41.5335V425.485H40.18ZM46.9841 425.485V414.161H48.2925V418.597H48.4128C48.6183 418.166 48.9141 417.833 49.3001 417.597C49.6861 417.357 50.1774 417.236 50.7739 417.236C51.3805 417.236 51.8943 417.354 52.3154 417.59C52.7365 417.82 53.0573 418.159 53.2779 418.605C53.4985 419.051 53.6088 419.595 53.6088 420.237V425.485H52.3004V420.553C52.3004 419.821 52.145 419.279 51.8342 418.928C51.5284 418.572 51.0521 418.394 50.4055 418.394C49.9743 418.394 49.6009 418.487 49.285 418.673C48.9692 418.858 48.7236 419.121 48.5481 419.462C48.3777 419.803 48.2925 420.212 48.2925 420.688V425.485H46.9841ZM58.157 425.628C57.6457 425.628 57.1845 425.53 56.7734 425.335C56.3674 425.139 56.044 424.861 55.8034 424.5C55.5678 424.139 55.45 423.713 55.45 423.222V423.207C55.45 422.726 55.5653 422.315 55.7959 421.974C56.0265 421.628 56.3624 421.357 56.8035 421.162C57.2446 420.966 57.7785 420.851 58.4052 420.816L61.3829 420.635V421.68L58.5631 421.861C57.9465 421.896 57.4953 422.024 57.2096 422.244C56.9288 422.465 56.7885 422.776 56.7885 423.177V423.192C56.7885 423.603 56.9439 423.924 57.2547 424.154C57.5655 424.38 57.9565 424.493 58.4277 424.493C58.8739 424.493 59.2699 424.405 59.6158 424.23C59.9617 424.049 60.2324 423.806 60.4279 423.5C60.6284 423.194 60.7287 422.849 60.7287 422.463V419.936C60.7287 419.435 60.5758 419.054 60.27 418.793C59.9692 418.527 59.5155 418.394 58.909 418.394C58.4227 418.394 58.0242 418.482 57.7134 418.658C57.4026 418.828 57.1945 419.071 57.0892 419.387L57.0817 419.41H55.7733L55.7808 419.364C55.851 418.938 56.0265 418.567 56.3072 418.252C56.593 417.931 56.9614 417.683 57.4126 417.507C57.8638 417.327 58.3776 417.236 58.9541 417.236C59.6158 417.236 60.1748 417.344 60.6309 417.56C61.0921 417.775 61.4405 418.086 61.6762 418.492C61.9168 418.893 62.0371 419.374 62.0371 419.936V425.485H60.7287V424.29H60.6084C60.4379 424.575 60.2299 424.819 59.9843 425.019C59.7436 425.22 59.4704 425.373 59.1646 425.478C58.8588 425.578 58.523 425.628 58.157 425.628ZM67.2621 425.546C66.4299 425.546 65.8259 425.378 65.4499 425.042C65.0789 424.706 64.8934 424.152 64.8934 423.38V418.462H63.6151V417.379H64.8934V415.281H66.2469V417.379H68.0216V418.462H66.2469V423.049C66.2469 423.525 66.3372 423.869 66.5176 424.079C66.6981 424.285 66.9989 424.388 67.42 424.388C67.5353 424.388 67.633 424.385 67.7133 424.38C67.7985 424.375 67.9012 424.367 68.0216 424.357V425.47C67.8962 425.49 67.7709 425.508 67.6456 425.523C67.5203 425.538 67.3924 425.546 67.2621 425.546ZM70.4568 418.913L70.2989 414.635H71.6975L71.5396 418.913H70.4568ZM77.2383 425.628C76.6368 425.628 76.1054 425.538 75.6442 425.358C75.183 425.172 74.812 424.914 74.5313 424.583C74.2556 424.252 74.0927 423.864 74.0425 423.417H75.381C75.4913 423.753 75.7069 424.024 76.0277 424.23C76.3485 424.435 76.7671 424.538 77.2835 424.538C77.6494 424.538 77.9702 424.485 78.246 424.38C78.5267 424.27 78.7473 424.122 78.9077 423.936C79.0681 423.746 79.1483 423.528 79.1483 423.282V423.267C79.1483 422.991 79.038 422.758 78.8174 422.568C78.5969 422.372 78.2359 422.214 77.7346 422.094L76.4789 421.793C75.9725 421.673 75.5565 421.518 75.2306 421.327C74.9048 421.132 74.6641 420.893 74.5087 420.613C74.3533 420.327 74.2756 419.991 74.2756 419.605V419.598C74.2756 419.146 74.406 418.743 74.6667 418.387C74.9323 418.031 75.2933 417.75 75.7495 417.545C76.2057 417.339 76.7195 417.236 77.291 417.236C77.8574 417.236 78.3587 417.327 78.7949 417.507C79.236 417.683 79.5894 417.933 79.8551 418.259C80.1258 418.585 80.2913 418.968 80.3514 419.41H79.0656C78.9804 419.089 78.7849 418.828 78.4791 418.628C78.1733 418.427 77.7747 418.327 77.2835 418.327C76.9626 418.327 76.6769 418.379 76.4262 418.485C76.1756 418.585 75.9776 418.725 75.8322 418.906C75.6868 419.086 75.6141 419.297 75.6141 419.537V419.552C75.6141 419.733 75.6617 419.893 75.757 420.034C75.8522 420.174 76.0001 420.297 76.2006 420.402C76.4012 420.507 76.6593 420.6 76.9752 420.68L78.2234 420.981C78.9854 421.167 79.5518 421.432 79.9228 421.778C80.2988 422.124 80.4868 422.588 80.4868 423.169V423.184C80.4868 423.666 80.3439 424.092 80.0582 424.463C79.7724 424.829 79.3839 425.114 78.8926 425.32C78.4064 425.525 77.8549 425.628 77.2383 425.628ZM90.5833 425.741C90.087 425.741 89.5958 425.646 89.1095 425.455C88.6283 425.265 88.1896 424.956 87.7936 424.53C87.4026 424.104 87.0893 423.543 86.8536 422.846C86.618 422.144 86.5002 421.282 86.5002 420.259V420.244C86.5002 419.011 86.6657 417.958 86.9965 417.086C87.3274 416.209 87.8036 415.54 88.4252 415.078C89.0468 414.612 89.7963 414.379 90.6736 414.379C91.2801 414.379 91.8266 414.492 92.3128 414.717C92.8041 414.938 93.2127 415.249 93.5385 415.65C93.8694 416.046 94.095 416.512 94.2153 417.048L94.2378 417.146H92.8768L92.8467 417.063C92.7364 416.758 92.5785 416.497 92.373 416.281C92.1725 416.061 91.9268 415.89 91.6361 415.77C91.3503 415.65 91.0245 415.59 90.6585 415.59C90.0018 415.59 89.4679 415.783 89.0569 416.169C88.6458 416.55 88.34 417.058 88.1395 417.695C87.944 418.327 87.8312 419.021 87.8011 419.778C87.7961 419.843 87.7936 419.911 87.7936 419.981C87.7936 420.046 87.7936 420.114 87.7936 420.184L88.1169 421.989C88.1169 422.465 88.2247 422.896 88.4403 423.282C88.6608 423.668 88.9566 423.976 89.3276 424.207C89.6985 424.433 90.1121 424.545 90.5683 424.545C91.0245 424.545 91.4381 424.435 91.809 424.215C92.18 423.989 92.4732 423.686 92.6888 423.305C92.9094 422.924 93.0197 422.5 93.0197 422.034V422.019C93.0197 421.538 92.9144 421.111 92.7038 420.741C92.4983 420.365 92.2126 420.071 91.8466 419.861C91.4807 419.645 91.0621 419.537 90.5909 419.537C90.1246 419.537 89.7036 419.643 89.3276 419.853C88.9566 420.064 88.6608 420.355 88.4403 420.725C88.2247 421.091 88.1169 421.51 88.1169 421.981V421.989H87.6733V420.034H87.9365C88.0718 419.738 88.2723 419.462 88.538 419.207C88.8037 418.951 89.1296 418.745 89.5156 418.59C89.9016 418.435 90.3377 418.357 90.824 418.357C91.5057 418.357 92.1148 418.515 92.6512 418.831C93.1876 419.146 93.6087 419.578 93.9145 420.124C94.2253 420.67 94.3807 421.292 94.3807 421.989V422.004C94.3807 422.726 94.2153 423.367 93.8844 423.929C93.5586 424.49 93.1099 424.934 92.5384 425.26C91.9669 425.581 91.3152 425.741 90.5833 425.741ZM100.072 425.741C99.4002 425.741 98.8011 425.608 98.2747 425.342C97.7484 425.077 97.3248 424.716 97.0039 424.26C96.6881 423.798 96.5026 423.28 96.4475 422.703L96.44 422.62H97.7408L97.7484 422.681C97.7935 423.026 97.9188 423.342 98.1243 423.628C98.3349 423.909 98.6081 424.132 98.944 424.297C99.2849 424.463 99.6658 424.545 100.087 424.545C100.568 424.545 100.992 424.44 101.358 424.23C101.724 424.014 102.009 423.718 102.215 423.342C102.421 422.966 102.523 422.535 102.523 422.049V422.034C102.523 421.553 102.418 421.127 102.207 420.756C102.002 420.38 101.719 420.086 101.358 419.876C100.997 419.665 100.581 419.56 100.11 419.56C99.7486 419.56 99.4152 419.615 99.1094 419.725C98.8086 419.836 98.5404 420.001 98.3048 420.222C98.2096 420.312 98.1193 420.41 98.0341 420.515C97.9539 420.62 97.8787 420.738 97.8085 420.868H96.6355L97.207 414.635H103.245V415.845H98.2747L97.9063 419.515H98.0266C98.187 419.269 98.385 419.064 98.6206 418.898C98.8562 418.733 99.1194 418.607 99.4102 418.522C99.706 418.432 100.017 418.387 100.343 418.387C101.024 418.387 101.628 418.545 102.155 418.861C102.681 419.171 103.095 419.6 103.396 420.146C103.696 420.688 103.847 421.31 103.847 422.011V422.026C103.847 422.753 103.684 423.397 103.358 423.959C103.037 424.515 102.593 424.951 102.027 425.267C101.461 425.583 100.809 425.741 100.072 425.741ZM116.538 425.327C115.801 425.327 115.106 425.222 114.455 425.012C113.803 424.801 113.226 424.48 112.725 424.049C112.224 423.618 111.83 423.072 111.545 422.41C111.259 421.748 111.116 420.966 111.116 420.064V420.049C111.116 419.146 111.259 418.364 111.545 417.703C111.83 417.041 112.224 416.494 112.725 416.063C113.231 415.632 113.81 415.314 114.462 415.108C115.114 414.898 115.806 414.793 116.538 414.793C116.818 414.793 117.119 414.808 117.44 414.838C117.761 414.863 117.999 414.903 118.154 414.958V416.176C117.989 416.136 117.748 416.103 117.432 416.078C117.117 416.053 116.818 416.041 116.538 416.041C115.961 416.041 115.427 416.121 114.936 416.281C114.445 416.442 114.016 416.688 113.65 417.018C113.289 417.349 113.008 417.768 112.808 418.274C112.607 418.78 112.507 419.379 112.507 420.071V420.086C112.507 420.773 112.607 421.367 112.808 421.868C113.013 422.37 113.297 422.786 113.658 423.117C114.023 423.443 114.45 423.686 114.936 423.846C115.427 424.001 115.961 424.079 116.538 424.079C116.818 424.079 117.117 424.069 117.432 424.049C117.748 424.029 117.989 423.994 118.154 423.944V425.162C117.999 425.217 117.761 425.26 117.44 425.29C117.119 425.315 116.818 425.327 116.538 425.327ZM109.657 421.583V420.68H116.771V421.583H109.657ZM109.657 419.402V418.5H116.771V419.402H109.657ZM124.213 425.485V417.379H125.521V418.613H125.641C125.822 418.176 126.098 417.838 126.469 417.597C126.845 417.357 127.298 417.236 127.83 417.236C128.196 417.236 128.524 417.297 128.815 417.417C129.105 417.537 129.356 417.705 129.567 417.921C129.777 418.131 129.945 418.377 130.071 418.658H130.191C130.336 418.372 130.532 418.124 130.777 417.913C131.023 417.698 131.306 417.532 131.627 417.417C131.953 417.297 132.301 417.236 132.672 417.236C133.224 417.236 133.69 417.339 134.071 417.545C134.457 417.75 134.75 418.051 134.951 418.447C135.151 418.838 135.251 419.317 135.251 419.883V425.485H133.943V420.184C133.943 419.783 133.88 419.452 133.755 419.192C133.635 418.926 133.449 418.728 133.199 418.597C132.948 418.462 132.632 418.394 132.251 418.394C131.875 418.394 131.547 418.48 131.266 418.65C130.985 418.821 130.767 419.049 130.612 419.334C130.457 419.615 130.379 419.928 130.379 420.274V425.485H129.07V419.981C129.07 419.66 129 419.382 128.86 419.146C128.725 418.906 128.529 418.72 128.273 418.59C128.023 418.46 127.727 418.394 127.386 418.394C127.035 418.394 126.717 418.487 126.431 418.673C126.15 418.858 125.927 419.109 125.762 419.425C125.601 419.735 125.521 420.081 125.521 420.462V425.485H124.213ZM140.898 425.628C140.131 425.628 139.466 425.46 138.905 425.124C138.348 424.784 137.917 424.3 137.612 423.673C137.311 423.047 137.16 422.302 137.16 421.44V421.425C137.16 420.558 137.311 419.811 137.612 419.184C137.917 418.557 138.348 418.076 138.905 417.74C139.466 417.404 140.131 417.236 140.898 417.236C141.67 417.236 142.334 417.404 142.89 417.74C143.447 418.076 143.875 418.557 144.176 419.184C144.482 419.811 144.635 420.558 144.635 421.425V421.44C144.635 422.302 144.482 423.047 144.176 423.673C143.875 424.3 143.447 424.784 142.89 425.124C142.334 425.46 141.67 425.628 140.898 425.628ZM140.898 424.47C141.409 424.47 141.842 424.35 142.198 424.109C142.554 423.869 142.825 423.523 143.011 423.072C143.201 422.62 143.296 422.076 143.296 421.44V421.425C143.296 420.783 143.201 420.237 143.011 419.786C142.825 419.334 142.554 418.991 142.198 418.755C141.842 418.515 141.409 418.394 140.898 418.394C140.386 418.394 139.953 418.515 139.597 418.755C139.241 418.991 138.968 419.334 138.777 419.786C138.592 420.237 138.499 420.783 138.499 421.425V421.44C138.499 422.076 138.592 422.62 138.777 423.072C138.968 423.523 139.241 423.869 139.597 424.109C139.953 424.35 140.386 424.47 140.898 424.47ZM146.619 425.485V417.379H147.927V418.582H148.048C148.203 418.156 148.466 417.825 148.837 417.59C149.208 417.354 149.667 417.236 150.213 417.236C150.338 417.236 150.461 417.244 150.582 417.259C150.707 417.269 150.802 417.279 150.867 417.289V418.56C150.732 418.535 150.599 418.517 150.469 418.507C150.343 418.492 150.208 418.485 150.063 418.485C149.647 418.485 149.278 418.567 148.957 418.733C148.637 418.898 148.383 419.129 148.198 419.425C148.017 419.72 147.927 420.066 147.927 420.462V425.485H146.619ZM155.521 425.628C154.749 425.628 154.085 425.458 153.528 425.117C152.977 424.776 152.551 424.295 152.25 423.673C151.954 423.047 151.806 422.31 151.806 421.462V421.455C151.806 420.618 151.954 419.883 152.25 419.252C152.551 418.62 152.974 418.126 153.521 417.77C154.067 417.414 154.706 417.236 155.438 417.236C156.175 417.236 156.807 417.407 157.333 417.748C157.864 418.089 158.271 418.565 158.551 419.176C158.837 419.783 158.98 420.49 158.98 421.297V421.808H152.483V420.763H158.311L157.664 421.718V421.199C157.664 420.563 157.569 420.039 157.378 419.628C157.188 419.217 156.925 418.911 156.589 418.71C156.253 418.505 155.867 418.402 155.431 418.402C154.995 418.402 154.603 418.51 154.258 418.725C153.917 418.936 153.646 419.249 153.445 419.665C153.245 420.081 153.145 420.593 153.145 421.199V421.718C153.145 422.295 153.242 422.788 153.438 423.199C153.633 423.605 153.912 423.919 154.273 424.139C154.634 424.355 155.06 424.463 155.551 424.463C155.917 424.463 156.235 424.413 156.506 424.312C156.777 424.212 157 424.084 157.175 423.929C157.351 423.773 157.473 423.615 157.544 423.455L157.574 423.387H158.882L158.867 423.448C158.797 423.723 158.672 423.991 158.491 424.252C158.316 424.508 158.088 424.741 157.807 424.951C157.526 425.157 157.193 425.322 156.807 425.448C156.426 425.568 155.997 425.628 155.521 425.628ZM168.129 425.546C167.297 425.546 166.693 425.378 166.317 425.042C165.946 424.706 165.76 424.152 165.76 423.38V418.462H164.482V417.379H165.76V415.281H167.114V417.379H168.888V418.462H167.114V423.049C167.114 423.525 167.204 423.869 167.385 424.079C167.565 424.285 167.866 424.388 168.287 424.388C168.402 424.388 168.5 424.385 168.58 424.38C168.665 424.375 168.768 424.367 168.888 424.357V425.47C168.763 425.49 168.638 425.508 168.512 425.523C168.387 425.538 168.259 425.546 168.129 425.546ZM170.872 425.485V414.161H172.181V418.597H172.301C172.507 418.166 172.803 417.833 173.189 417.597C173.575 417.357 174.066 417.236 174.662 417.236C175.269 417.236 175.783 417.354 176.204 417.59C176.625 417.82 176.946 418.159 177.166 418.605C177.387 419.051 177.497 419.595 177.497 420.237V425.485H176.189V420.553C176.189 419.821 176.033 419.279 175.723 418.928C175.417 418.572 174.941 418.394 174.294 418.394C173.863 418.394 173.489 418.487 173.173 418.673C172.858 418.858 172.612 419.121 172.437 419.462C172.266 419.803 172.181 420.212 172.181 420.688V425.485H170.872ZM182.045 425.628C181.534 425.628 181.073 425.53 180.662 425.335C180.256 425.139 179.932 424.861 179.692 424.5C179.456 424.139 179.338 423.713 179.338 423.222V423.207C179.338 422.726 179.454 422.315 179.684 421.974C179.915 421.628 180.251 421.357 180.692 421.162C181.133 420.966 181.667 420.851 182.294 420.816L185.271 420.635V421.68L182.452 421.861C181.835 421.896 181.384 422.024 181.098 422.244C180.817 422.465 180.677 422.776 180.677 423.177V423.192C180.677 423.603 180.832 423.924 181.143 424.154C181.454 424.38 181.845 424.493 182.316 424.493C182.762 424.493 183.158 424.405 183.504 424.23C183.85 424.049 184.121 423.806 184.316 423.5C184.517 423.194 184.617 422.849 184.617 422.463V419.936C184.617 419.435 184.464 419.054 184.158 418.793C183.858 418.527 183.404 418.394 182.797 418.394C182.311 418.394 181.913 418.482 181.602 418.658C181.291 418.828 181.083 419.071 180.978 419.387L180.97 419.41H179.662L179.669 419.364C179.739 418.938 179.915 418.567 180.196 418.252C180.481 417.931 180.85 417.683 181.301 417.507C181.752 417.327 182.266 417.236 182.843 417.236C183.504 417.236 184.063 417.344 184.519 417.56C184.981 417.775 185.329 418.086 185.565 418.492C185.805 418.893 185.926 419.374 185.926 419.936V425.485H184.617V424.29H184.497C184.326 424.575 184.118 424.819 183.873 425.019C183.632 425.22 183.359 425.373 183.053 425.478C182.747 425.578 182.411 425.628 182.045 425.628ZM188.271 425.485V417.379H189.579V418.597H189.699C189.905 418.166 190.201 417.833 190.587 417.597C190.973 417.357 191.464 417.236 192.06 417.236C192.973 417.236 193.672 417.497 194.158 418.018C194.65 418.535 194.895 419.274 194.895 420.237V425.485H193.587V420.553C193.587 419.821 193.431 419.279 193.121 418.928C192.815 418.572 192.339 418.394 191.692 418.394C191.261 418.394 190.887 418.487 190.572 418.673C190.256 418.858 190.01 419.121 189.835 419.462C189.664 419.803 189.579 420.212 189.579 420.688V425.485H188.271ZM204.217 425.628C203.606 425.628 203.092 425.513 202.676 425.282C202.26 425.047 201.946 424.706 201.736 424.26C201.53 423.808 201.428 423.265 201.428 422.628V417.379H202.736V422.312C202.736 423.039 202.876 423.58 203.157 423.936C203.443 424.292 203.909 424.47 204.556 424.47C204.912 424.47 205.225 424.418 205.496 424.312C205.771 424.207 206.002 424.057 206.187 423.861C206.373 423.661 206.511 423.42 206.601 423.139C206.696 422.854 206.744 422.533 206.744 422.177V417.379H208.052V425.485H206.744V424.275H206.624C206.493 424.56 206.315 424.806 206.09 425.012C205.864 425.212 205.593 425.365 205.278 425.47C204.967 425.576 204.613 425.628 204.217 425.628ZM213.232 425.628C212.631 425.628 212.099 425.538 211.638 425.358C211.177 425.172 210.806 424.914 210.525 424.583C210.249 424.252 210.086 423.864 210.036 423.417H211.375C211.485 423.753 211.701 424.024 212.021 424.23C212.342 424.435 212.761 424.538 213.277 424.538C213.643 424.538 213.964 424.485 214.24 424.38C214.52 424.27 214.741 424.122 214.901 423.936C215.062 423.746 215.142 423.528 215.142 423.282V423.267C215.142 422.991 215.032 422.758 214.811 422.568C214.591 422.372 214.23 422.214 213.728 422.094L212.473 421.793C211.966 421.673 211.55 421.518 211.224 421.327C210.899 421.132 210.658 420.893 210.503 420.613C210.347 420.327 210.269 419.991 210.269 419.605V419.598C210.269 419.146 210.4 418.743 210.66 418.387C210.926 418.031 211.287 417.75 211.743 417.545C212.199 417.339 212.713 417.236 213.285 417.236C213.851 417.236 214.353 417.327 214.789 417.507C215.23 417.683 215.583 417.933 215.849 418.259C216.12 418.585 216.285 418.968 216.345 419.41H215.059C214.974 419.089 214.779 418.828 214.473 418.628C214.167 418.427 213.769 418.327 213.277 418.327C212.956 418.327 212.671 418.379 212.42 418.485C212.169 418.585 211.971 418.725 211.826 418.906C211.681 419.086 211.608 419.297 211.608 419.537V419.552C211.608 419.733 211.656 419.893 211.751 420.034C211.846 420.174 211.994 420.297 212.194 420.402C212.395 420.507 212.653 420.6 212.969 420.68L214.217 420.981C214.979 421.167 215.546 421.432 215.917 421.778C216.293 422.124 216.481 422.588 216.481 423.169V423.184C216.481 423.666 216.338 424.092 216.052 424.463C215.766 424.829 215.378 425.114 214.886 425.32C214.4 425.525 213.849 425.628 213.232 425.628ZM221.179 425.628C220.568 425.628 220.054 425.513 219.638 425.282C219.222 425.047 218.908 424.706 218.698 424.26C218.492 423.808 218.389 423.265 218.389 422.628V417.379H219.698V422.312C219.698 423.039 219.838 423.58 220.119 423.936C220.405 424.292 220.871 424.47 221.518 424.47C221.873 424.47 222.187 424.418 222.458 424.312C222.733 424.207 222.964 424.057 223.149 423.861C223.335 423.661 223.473 423.42 223.563 423.139C223.658 422.854 223.706 422.533 223.706 422.177V417.379H225.014V425.485H223.706V424.275H223.585C223.455 424.56 223.277 424.806 223.052 425.012C222.826 425.212 222.555 425.365 222.239 425.47C221.929 425.576 221.575 425.628 221.179 425.628ZM229.638 425.628C229.126 425.628 228.665 425.53 228.254 425.335C227.848 425.139 227.525 424.861 227.284 424.5C227.048 424.139 226.931 423.713 226.931 423.222V423.207C226.931 422.726 227.046 422.315 227.276 421.974C227.507 421.628 227.843 421.357 228.284 421.162C228.725 420.966 229.259 420.851 229.886 420.816L232.863 420.635V421.68L230.044 421.861C229.427 421.896 228.976 422.024 228.69 422.244C228.409 422.465 228.269 422.776 228.269 423.177V423.192C228.269 423.603 228.424 423.924 228.735 424.154C229.046 424.38 229.437 424.493 229.908 424.493C230.354 424.493 230.75 424.405 231.096 424.23C231.442 424.049 231.713 423.806 231.908 423.5C232.109 423.194 232.209 422.849 232.209 422.463V419.936C232.209 419.435 232.056 419.054 231.751 418.793C231.45 418.527 230.996 418.394 230.39 418.394C229.903 418.394 229.505 418.482 229.194 418.658C228.883 418.828 228.675 419.071 228.57 419.387L228.562 419.41H227.254L227.261 419.364C227.332 418.938 227.507 418.567 227.788 418.252C228.074 417.931 228.442 417.683 228.893 417.507C229.344 417.327 229.858 417.236 230.435 417.236C231.096 417.236 231.655 417.344 232.112 417.56C232.573 417.775 232.921 418.086 233.157 418.492C233.397 418.893 233.518 419.374 233.518 419.936V425.485H232.209V424.29H232.089C231.919 424.575 231.71 424.819 231.465 425.019C231.224 425.22 230.951 425.373 230.645 425.478C230.339 425.578 230.004 425.628 229.638 425.628ZM235.938 425.485V414.161H237.246V425.485H235.938Z" fill="#333333"/>
<rect x="36.9961" y="448.828" width="107.804" height="24.9485" rx="12.4742" fill="#00C950"/>
<mask id="mask1_2048_27191" style="mask-type:alpha" maskUnits="userSpaceOnUse" x="43" y="456" width="13" height="14">
<path d="M43.6875 464.119L46.6032 458.023C47.1882 456.799 48.4238 456.021 49.7799 456.021H53.899L51.0822 460.598H55.4406C55.6367 460.598 55.727 460.842 55.5781 460.97L46.6868 468.591C46.3418 468.887 45.9023 469.049 45.4479 469.049L47.2088 464.119H43.6875Z" fill="url(#paint1_linear_2048_27191)"/>
</mask>
<g mask="url(#mask1_2048_27191)">
<path d="M41.2227 452.852H58.1248V469.754H41.2227V452.852Z" fill="#FCD375"/>
</g>
<path d="M63.9081 465.773V456.097H65.6381V465.773H63.9081ZM70.6498 465.807C68.9667 465.807 68.2761 465.244 68.2761 463.829V459.738H67.1361V458.444H68.2761V456.647H69.9726V458.444H71.5216V459.738H69.9726V463.433C69.9726 464.164 70.2609 464.473 70.9583 464.473C71.193 464.473 71.3204 464.466 71.5216 464.446V465.733C71.2802 465.78 70.9717 465.807 70.6498 465.807ZM73.375 460.127L73.9583 456.097H75.6817L74.5216 460.127H73.375ZM79.7278 465.921C77.8636 465.921 76.7371 465.063 76.5963 463.822V463.809H78.2526L78.2593 463.822C78.4336 464.332 78.9231 464.687 79.7546 464.687C80.5861 464.687 81.1628 464.312 81.1628 463.762V463.748C81.1628 463.319 80.8409 463.038 80.0362 462.857L78.8494 462.588C77.4546 462.28 76.7907 461.623 76.7907 460.543V460.536C76.7907 459.215 77.9978 458.303 79.7278 458.303C81.5115 458.303 82.5776 459.189 82.6849 460.375V460.389H81.1158L81.1091 460.369C80.9884 459.906 80.5056 459.531 79.7211 459.531C78.9768 459.531 78.4403 459.893 78.4403 460.443V460.449C78.4403 460.878 78.7488 461.14 79.54 461.321L80.7269 461.582C82.1619 461.904 82.8392 462.515 82.8392 463.581V463.594C82.8392 464.989 81.5316 465.921 79.7278 465.921ZM88.0145 468.208V458.444H89.6842V459.591H89.7982C90.2005 458.793 90.9985 458.324 92.0244 458.324C93.8617 458.324 95.0352 459.785 95.0352 462.105V462.119C95.0352 464.452 93.8818 465.894 92.0244 465.894C91.0186 465.894 90.1804 465.398 89.7982 464.607H89.6842V468.208H88.0145ZM91.5014 464.486C92.6413 464.486 93.332 463.587 93.332 462.119V462.105C93.332 460.63 92.6413 459.732 91.5014 459.732C90.3681 459.732 89.664 460.63 89.664 462.099V462.112C89.664 463.581 90.3681 464.486 91.5014 464.486ZM99.772 465.921C97.5927 465.921 96.2717 464.459 96.2717 462.126V462.119C96.2717 459.812 97.6061 458.303 99.6915 458.303C101.777 458.303 103.064 459.765 103.064 461.978V462.528H97.9414C97.9615 463.842 98.6723 464.607 99.8055 464.607C100.711 464.607 101.227 464.151 101.388 463.815L101.408 463.768H102.997L102.977 463.829C102.743 464.774 101.764 465.921 99.772 465.921ZM99.7116 459.611C98.7796 459.611 98.0822 460.241 97.9548 461.408H101.435C101.321 460.208 100.644 459.611 99.7116 459.611ZM104.65 465.773V458.444H106.319V459.571H106.433C106.681 458.786 107.352 458.324 108.318 458.324C108.572 458.324 108.834 458.357 108.995 458.404V459.899C108.727 459.846 108.452 459.805 108.163 459.805C107.05 459.805 106.319 460.469 106.319 461.515V465.773H104.65ZM111.15 465.773V459.738H109.95V458.444H111.15V457.72C111.15 456.258 111.888 455.541 113.524 455.541C113.879 455.541 114.181 455.561 114.449 455.608V456.775C114.322 456.754 114.114 456.741 113.879 456.741C113.095 456.741 112.793 457.117 112.793 457.814V458.444H114.382V459.738H112.82V465.773H111.15ZM118.777 465.921C116.598 465.921 115.277 464.459 115.277 462.126V462.119C115.277 459.812 116.611 458.303 118.696 458.303C120.782 458.303 122.069 459.765 122.069 461.978V462.528H116.946C116.966 463.842 117.677 464.607 118.81 464.607C119.716 464.607 120.232 464.151 120.393 463.815L120.413 463.768H122.002L121.982 463.829C121.747 464.774 120.768 465.921 118.777 465.921ZM118.716 459.611C117.784 459.611 117.087 460.241 116.96 461.408H120.44C120.326 460.208 119.649 459.611 118.716 459.611ZM126.799 465.921C124.593 465.921 123.292 464.493 123.292 462.099V462.085C123.292 459.718 124.587 458.303 126.793 458.303C128.677 458.303 129.803 459.35 129.991 460.865V460.892H128.415L128.409 460.872C128.254 460.161 127.711 459.651 126.799 459.651C125.659 459.651 124.989 460.55 124.989 462.085V462.099C124.989 463.654 125.666 464.566 126.799 464.566C127.664 464.566 128.194 464.171 128.402 463.4L128.415 463.373L129.991 463.366L129.978 463.42C129.736 464.922 128.657 465.921 126.799 465.921ZM134.473 465.807C132.79 465.807 132.099 465.244 132.099 463.829V459.738H130.959V458.444H132.099V456.647H133.796V458.444H135.345V459.738H133.796V463.433C133.796 464.164 134.084 464.473 134.782 464.473C135.016 464.473 135.144 464.466 135.345 464.446V465.733C135.103 465.78 134.795 465.807 134.473 465.807Z" fill="white"/>
</g>
</g>
</g>
</g>
<defs>
<filter id="filter0_f_2048_27191" x="80.4922" y="-49.5029" width="560" height="560" filterUnits="userSpaceOnUse" color-interpolation-filters="sRGB">
<feFlood flood-opacity="0" result="BackgroundImageFix"/>
<feBlend mode="normal" in="SourceGraphic" in2="BackgroundImageFix" result="shape"/>
<feGaussianBlur stdDeviation="80" result="effect1_foregroundBlur_2048_27191"/>
</filter>
<filter id="filter1_f_2048_27191" x="80.4922" y="33.4961" width="560" height="560" filterUnits="userSpaceOnUse" color-interpolation-filters="sRGB">
<feFlood flood-opacity="0" result="BackgroundImageFix"/>
<feBlend mode="normal" in="SourceGraphic" in2="BackgroundImageFix" result="shape"/>
<feGaussianBlur stdDeviation="80" result="effect1_foregroundBlur_2048_27191"/>
</filter>
<filter id="filter2_dd_2048_27191" x="-2" y="349.472" width="363.629" height="163.842" filterUnits="userSpaceOnUse" color-interpolation-filters="sRGB">
<feFlood flood-opacity="0" result="BackgroundImageFix"/>
<feColorMatrix in="SourceAlpha" type="matrix" values="0 0 0 0 0 0 0 0 0 0 0 0 0 0 0 0 0 0 127 0" result="hardAlpha"/>
<feOffset dy="1.85101"/>
<feGaussianBlur stdDeviation="2.77652"/>
<feComposite in2="hardAlpha" operator="out"/>
<feColorMatrix type="matrix" values="0 0 0 0 0 0 0 0 0 0 0 0 0 0 0 0 0 0 0.04 0"/>
<feBlend mode="normal" in2="BackgroundImageFix" result="effect1_dropShadow_2048_27191"/>
<feColorMatrix in="SourceAlpha" type="matrix" values="0 0 0 0 0 0 0 0 0 0 0 0 0 0 0 0 0 0 127 0" result="hardAlpha"/>
<feOffset dy="4"/>
<feGaussianBlur stdDeviation="9"/>
<feColorMatrix type="matrix" values="0 0 0 0 0.203922 0 0 0 0 0.14902 0 0 0 0 0.415686 0 0 0 0.15 0"/>
<feBlend mode="normal" in2="effect1_dropShadow_2048_27191" result="effect2_dropShadow_2048_27191"/>
<feBlend mode="normal" in="SourceGraphic" in2="effect2_dropShadow_2048_27191" result="shape"/>
</filter>
<linearGradient id="paint0_linear_2048_27191" x1="180.981" y1="362.479" x2="180.981" y2="416.063" gradientUnits="userSpaceOnUse">
<stop stop-color="#222222"/>
<stop offset="0.0666667" stop-color="#242424" stop-opacity="0.991353"/>
<stop offset="0.133333" stop-color="#2A2A2A" stop-opacity="0.96449"/>
<stop offset="0.2" stop-color="#343434" stop-opacity="0.91834"/>
<stop offset="0.266667" stop-color="#434343" stop-opacity="0.852589"/>
<stop offset="0.333333" stop-color="#555555" stop-opacity="0.768225"/>
<stop offset="0.4" stop-color="#6B6B6B" stop-opacity="0.668116"/>
<stop offset="0.466667" stop-color="#848484" stop-opacity="0.557309"/>
<stop offset="0.533333" stop-color="#9D9D9D" stop-opacity="0.442691"/>
<stop offset="0.6" stop-color="#B6B6B6" stop-opacity="0.331884"/>
<stop offset="0.666667" stop-color="#CCCCCC" stop-opacity="0.231775"/>
<stop offset="0.733333" stop-color="#DEDEDE" stop-opacity="0.147411"/>
<stop offset="0.8" stop-color="#EDEDED" stop-opacity="0.0816599"/>
<stop offset="0.866667" stop-color="#F7F7F7" stop-opacity="0.03551"/>
<stop offset="0.933333" stop-color="#FDFDFD" stop-opacity="0.01"/>
<stop offset="1" stop-color="white" stop-opacity="0"/>
</linearGradient>
<linearGradient id="paint1_linear_2048_27191" x1="49.6737" y1="457.781" x2="55.1578" y2="466.591" gradientUnits="userSpaceOnUse">
<stop/>
<stop offset="1" stop-opacity="0.7"/>
</linearGradient>
<clipPath id="clip0_2048_27191">
<path d="M0 0H360V510H0V0Z" fill="white"/>
</clipPath>
<clipPath id="clip1_2048_27191">
<rect width="360.49" height="589.046" fill="white" transform="translate(0 -58.5693)"/>
</clipPath>
<clipPath id="clip2_2048_27191">
<rect x="300.305" y="189.294" width="22" height="123" rx="5.97235" fill="white"/>
</clipPath>
<clipPath id="clip3_2048_27191">
<rect width="44.6931" height="10.4516" fill="white" transform="translate(286.367 303.176)"/>
</clipPath>
<clipPath id="clip4_2048_27191">
<rect width="44.6931" height="10.4516" fill="white" transform="translate(286.367 292.723)"/>
</clipPath>
<clipPath id="clip5_2048_27191">
<rect width="44.6931" height="10.4516" fill="white" transform="translate(286.367 282.272)"/>
</clipPath>
<clipPath id="clip6_2048_27191">
<rect width="44.6931" height="10.4516" fill="white" transform="translate(286.367 271.819)"/>
</clipPath>
<clipPath id="clip7_2048_27191">
<rect width="44.6931" height="10.4516" fill="white" transform="translate(286.367 261.37)"/>
</clipPath>
<clipPath id="clip8_2048_27191">
<rect width="44.6931" height="10.4516" fill="white" transform="translate(286.367 250.919)"/>
</clipPath>
<clipPath id="clip9_2048_27191">
<rect width="44.6931" height="10.4516" fill="white" transform="translate(286.367 240.466)"/>
</clipPath>
<clipPath id="clip10_2048_27191">
<rect width="44.6931" height="10.4516" fill="white" transform="translate(286.367 230.015)"/>
</clipPath>
<clipPath id="clip11_2048_27191">
<rect width="44.6931" height="10.4516" fill="white" transform="translate(286.367 219.562)"/>
</clipPath>
<clipPath id="clip12_2048_27191">
<rect width="44.6931" height="10.4516" fill="white" transform="translate(286.367 209.111)"/>
</clipPath>
<clipPath id="clip13_2048_27191">
<rect width="44.6931" height="10.4516" fill="white" transform="translate(286.367 198.66)"/>
</clipPath>
<clipPath id="clip14_2048_27191">
<rect width="44.6931" height="10.4516" fill="white" transform="translate(286.367 188.208)"/>
</clipPath>
<clipPath id="clip15_2048_27191">
<path d="M16 387.443C16 374.204 26.7323 363.472 39.9712 363.472H319.658C332.897 363.472 343.629 374.204 343.629 387.443V467.343C343.629 480.581 332.897 491.314 319.658 491.314H39.9712C26.7322 491.314 16 480.582 16 467.343V387.443Z" fill="white"/>
</clipPath>
<clipPath id="clip16_2048_27191">
<rect width="251.721" height="23.9712" fill="white" transform="translate(35.9766 379.452)"/>
</clipPath>
</defs>
</svg>
