<svg width="1186" height="1180" viewBox="0 0 1186 1180" fill="none" xmlns="http://www.w3.org/2000/svg">
<g filter="url(#filter0_ddd_2386_7401)">
<path d="M33 48.4739C33 37.1664 42.1665 27.9999 53.474 27.9999H1131.64C1142.95 27.9999 1152.11 37.1664 1152.11 48.4739V99.1396C1152.11 110.447 1142.95 119.614 1131.64 119.614H53.474C42.1665 119.614 33 110.447 33 99.1396V48.4739Z" fill="white"/>
<path d="M53.4736 29.0028H1131.64C1142.39 29.0028 1151.11 37.72 1151.11 48.4735V99.1395C1151.11 109.893 1142.39 118.611 1131.64 118.611H53.4736C42.7201 118.611 34.0029 109.893 34.0029 99.1395V48.4735C34.0031 37.7201 42.7202 29.003 53.4736 29.0028Z" stroke="#EBEBEB" stroke-width="2.00538"/>
</g>
<path d="M555.981 56.8765C557.253 55.2857 558.116 53.1497 557.888 50.9669C556.026 51.0596 553.755 52.1952 552.439 53.7873C551.258 55.1507 550.213 57.3761 550.485 59.4674C552.575 59.6486 554.663 58.4227 555.981 56.8765Z" fill="black"/>
<path d="M557.862 59.8734C554.828 59.6927 552.248 61.5955 550.799 61.5955C549.349 61.5955 547.13 59.9645 544.73 60.0085C541.607 60.0543 538.708 61.8205 537.123 64.6294C533.863 70.2488 536.263 78.5843 539.433 83.161C540.973 85.4252 542.828 87.9183 545.273 87.8287C547.583 87.7381 548.489 86.3329 551.297 86.3329C554.103 86.3329 554.918 87.8287 557.364 87.7834C559.9 87.7381 561.485 85.518 563.025 83.2517C564.791 80.6705 565.514 78.1783 565.56 78.0415C565.514 77.9962 560.67 76.1377 560.625 70.565C560.579 65.8989 564.428 63.6795 564.609 63.5419C562.436 60.327 559.039 59.9645 557.862 59.8734Z" fill="black"/>
<path d="M588.115 53.5616C594.71 53.5616 599.303 58.1076 599.303 64.7261C599.303 71.3683 594.616 75.9381 587.95 75.9381H580.649V87.5495H575.373V53.5616H588.115ZM580.649 71.5096H586.702C591.295 71.5096 593.909 69.0367 593.909 64.7498C593.909 60.4633 591.295 58.0135 586.726 58.0135H580.649V71.5096Z" fill="black"/>
<path d="M600.609 80.5066C600.609 76.1488 603.93 73.6521 610.053 73.2755L616.625 72.8747V70.9907C616.625 68.2348 614.811 66.7274 611.585 66.7274C608.923 66.7274 606.991 68.0935 606.591 70.1897H601.833C601.975 65.7851 606.12 62.5822 611.726 62.5822C617.756 62.5822 621.689 65.7383 621.689 70.6372V87.5486H616.813V83.4742H616.696C615.306 86.1356 612.244 87.8076 608.923 87.8076C604.024 87.8076 600.609 84.8872 600.609 80.5066ZM616.625 78.3159V76.4078L610.76 76.7848C607.463 76.9966 605.743 78.2214 605.743 80.3649C605.743 82.4375 607.533 83.7805 610.336 83.7805C613.916 83.7805 616.625 81.4952 616.625 78.3159Z" fill="black"/>
<path d="M626.173 96.6392V92.5648C626.503 92.6112 627.304 92.6584 627.728 92.6584C630.06 92.6584 631.378 91.6698 632.179 89.1257L632.651 87.6182L623.724 62.8871H629.235L635.453 82.9542H635.571L641.789 62.8871H647.16L637.903 88.8667C635.783 94.8256 633.357 96.7809 628.222 96.7809C627.822 96.7809 626.526 96.7337 626.173 96.6392Z" fill="black"/>
<g filter="url(#filter1_ddd_2386_7401)">
<path d="M33 161.591C33 150.283 42.1665 141.117 53.474 141.117H1131.64C1142.95 141.117 1152.11 150.283 1152.11 161.591V212.257C1152.11 223.564 1142.95 232.731 1131.64 232.731H53.474C42.1665 232.731 33 223.564 33 212.257V161.591Z" fill="white"/>
<path d="M53.4736 142.12H1131.64C1142.39 142.12 1151.11 150.837 1151.11 161.591V212.257C1151.11 223.01 1142.39 231.728 1131.64 231.728H53.4736C42.7201 231.728 34.0029 223.01 34.0029 212.257V161.591C34.0031 150.837 42.7202 142.12 53.4736 142.12Z" stroke="#EBEBEB" stroke-width="2.00538"/>
</g>
<path fill-rule="evenodd" clip-rule="evenodd" d="M588.29 170.813V182.39H595.512C597.236 182.39 598.657 181.816 599.782 180.674C600.937 179.533 601.517 178.174 601.517 176.6C601.517 175.057 600.937 173.712 599.782 172.568C598.657 171.395 597.233 170.81 595.515 170.81H588.29V170.813ZM588.29 186.464V199.894H583.975V166.736H595.419C598.329 166.736 600.796 167.696 602.831 169.607C604.893 171.519 605.925 173.853 605.925 176.6C605.925 179.409 604.893 181.757 602.831 183.636C600.827 185.523 598.358 186.461 595.419 186.461H588.29V186.464V186.464ZM610.287 192.946C610.287 194.059 610.762 194.986 611.717 195.727C612.676 196.468 613.859 196.86 615.071 196.837C616.885 196.837 618.501 196.173 619.926 194.848C621.347 193.52 622.059 191.96 622.059 190.171C620.711 189.12 618.838 188.597 616.43 188.597C614.678 188.597 613.215 189.016 612.045 189.849C610.872 190.683 610.287 191.714 610.287 192.946ZM615.868 176.461C619.061 176.461 621.576 177.304 623.424 178.985C625.266 180.669 626.187 182.977 626.187 185.908V199.894H622.062V196.744H621.872C620.092 199.338 617.713 200.635 614.743 200.635C612.212 200.635 610.09 199.894 608.389 198.411C606.685 196.93 605.831 195.077 605.831 192.856C605.831 190.508 606.73 188.643 608.527 187.252C610.327 185.862 612.726 185.167 615.727 185.167C618.289 185.167 620.4 185.631 622.056 186.557V185.583C622.056 184.102 621.463 182.842 620.276 181.81C619.127 180.79 617.639 180.235 616.102 180.256C613.692 180.256 611.788 181.262 610.381 183.271L606.577 180.903C608.674 177.939 611.768 176.459 615.865 176.459L615.868 176.461ZM649.874 177.202L635.472 209.894H631.019L636.365 198.456L626.891 177.202H631.581L638.428 193.506H638.524L645.184 177.202H649.874Z" fill="black"/>
<path fill-rule="evenodd" clip-rule="evenodd" d="M570.854 183.572C570.854 182.233 570.741 180.939 570.52 179.701H552.323V187.036H562.747C562.531 188.213 562.078 189.333 561.415 190.329C560.753 191.325 559.895 192.175 558.893 192.829V197.593H565.112C568.757 194.275 570.854 189.37 570.854 183.572" fill="#4285F4"/>
<path fill-rule="evenodd" clip-rule="evenodd" d="M552.323 202.196C557.531 202.196 561.916 200.506 565.112 197.595L558.893 192.829C557.16 193.981 554.931 194.654 552.323 194.654C547.288 194.654 543.015 191.303 541.49 186.787H535.081V191.698C536.708 194.867 539.18 197.525 542.222 199.377C545.265 201.23 548.761 202.205 552.323 202.196" fill="#34A853"/>
<path fill-rule="evenodd" clip-rule="evenodd" d="M541.489 186.779C540.685 184.415 540.685 181.852 541.489 179.489V174.575H535.08C533.726 177.224 533.021 180.156 533.023 183.131C533.021 186.106 533.726 189.038 535.08 191.687L541.489 186.776V186.779Z" fill="#FABB05"/>
<path fill-rule="evenodd" clip-rule="evenodd" d="M552.323 171.628C555.166 171.628 557.715 172.594 559.727 174.484V174.487L565.234 169.051C561.888 165.976 557.525 164.086 552.321 164.086C548.759 164.077 545.264 165.053 542.222 166.905C539.18 168.758 536.709 171.415 535.082 174.583L541.49 179.491C543.016 174.979 547.288 171.628 552.323 171.628Z" fill="#E94235"/>
<g filter="url(#filter2_ddd_2386_7401)">
<rect x="33.9586" y="254.235" width="1117.93" height="227.726" rx="20.4347" fill="white"/>
<rect x="35.2358" y="255.513" width="1115.37" height="225.172" rx="19.1575" stroke="#0A2540" stroke-opacity="0.1" stroke-width="2.55434"/>
</g>
<path fill-rule="evenodd" clip-rule="evenodd" d="M1078.04 367.434L1056.01 389.228L1059.63 392.815L1085.22 367.39L1059.63 342.017L1056.01 345.608L1078.04 367.434Z" fill="#0A2540" fill-opacity="0.5"/>
<path d="M250.146 351.476H237.243V317.188H249.364C252.296 317.188 254.655 317.984 256.441 319.577C258.242 321.169 259.142 323.297 259.142 325.961C259.142 329.295 257.646 331.765 254.655 333.372C256.634 334.027 258.145 335.076 259.187 336.52C260.228 337.949 260.749 339.675 260.749 341.699C260.749 344.66 259.789 347.034 257.87 348.82C255.92 350.591 253.345 351.476 250.146 351.476ZM248.985 321.586H242.355V331.542H249.03C250.577 331.542 251.813 331.088 252.735 330.18C253.658 329.257 254.119 328.022 254.119 326.474C254.119 324.986 253.651 323.803 252.713 322.925C251.775 322.032 250.533 321.586 248.985 321.586ZM249.945 336.073H242.355V347.079H249.99C251.671 347.079 253.018 346.595 254.03 345.628C255.057 344.645 255.57 343.336 255.57 341.699C255.57 340.017 255.057 338.663 254.03 337.636C253.018 336.594 251.656 336.073 249.945 336.073ZM284.747 351.476H280.483L280.26 347.771C279.367 349.065 278.221 350.077 276.822 350.807C275.438 351.521 273.935 351.878 272.313 351.878C270.17 351.878 268.421 351.29 267.067 350.115C265.712 348.939 265.035 347.354 265.035 345.36C265.035 343.098 265.861 341.416 267.513 340.315C269.106 339.258 271.204 338.425 273.808 337.815L280.081 336.431C279.902 335.076 279.367 334.064 278.474 333.395C277.581 332.71 276.413 332.368 274.969 332.368C271.829 332.368 269.954 333.677 269.344 336.297L264.991 335.471C265.363 333.343 266.464 331.624 268.294 330.314C270.125 329.004 272.439 328.35 275.237 328.35C278.154 328.35 280.468 329.138 282.179 330.716C283.891 332.278 284.747 334.399 284.747 337.078V351.476ZM269.79 345.025C269.79 345.933 270.08 346.64 270.661 347.146C271.256 347.652 272.067 347.905 273.094 347.905C274.314 347.905 275.445 347.644 276.487 347.123C277.544 346.602 278.422 345.776 279.121 344.645C279.821 343.514 280.17 342.168 280.17 340.605V340.092L273.898 341.565C272.514 341.892 271.479 342.316 270.795 342.837C270.125 343.358 269.79 344.087 269.79 345.025ZM296.087 351.476H291.377V328.751H295.752L295.953 331.542C297.783 329.414 300.127 328.35 302.985 328.35C305.559 328.35 307.687 329.176 309.369 330.827C311.051 332.479 311.892 334.808 311.892 337.815V351.476H307.137V338.44C307.137 336.609 306.646 335.203 305.663 334.221C304.696 333.223 303.438 332.725 301.891 332.725C301.132 332.725 300.417 332.837 299.748 333.06C299.093 333.283 298.483 333.625 297.917 334.087C297.352 334.548 296.905 335.18 296.578 335.984C296.25 336.788 296.087 337.718 296.087 338.774V351.476ZM325.732 336.609L332.786 328.751H338.411L329.393 338.73L338.902 351.476H333.232L325.598 341.185H323.187V351.476H318.477V317.188H323.187V336.609H325.732ZM357.096 334.332C357.096 336.088 357.349 337.74 357.855 339.288C358.361 340.821 359.083 342.175 360.02 343.351C360.973 344.526 362.178 345.457 363.636 346.141C365.11 346.826 366.739 347.168 368.525 347.168C371.383 347.168 373.734 346.379 375.579 344.802C377.365 343.284 378.519 341.379 379.039 339.087L383.973 340.449C383.169 343.901 381.368 346.669 378.571 348.753C375.773 350.836 372.409 351.878 368.481 351.878C365.906 351.878 363.555 351.424 361.426 350.516C359.313 349.609 357.55 348.366 356.136 346.788C354.737 345.211 353.658 343.358 352.899 341.23C352.14 339.087 351.761 336.788 351.761 334.332C351.761 331.892 352.148 329.607 352.921 327.479C353.695 325.351 354.789 323.498 356.203 321.921C357.617 320.328 359.395 319.078 361.538 318.17C363.681 317.248 366.055 316.786 368.659 316.786C372.618 316.786 375.914 317.821 378.548 319.889C381.138 321.928 382.827 324.637 383.616 328.015L378.727 329.399C378.236 327.047 377.09 325.142 375.289 323.684C373.503 322.226 371.249 321.496 368.525 321.496C366.204 321.496 364.157 322.092 362.386 323.282C360.63 324.473 359.306 326.035 358.413 327.97C357.535 329.89 357.096 332.011 357.096 334.332ZM407.568 351.476H403.305L403.081 347.771C402.188 349.065 401.043 350.077 399.644 350.807C398.26 351.521 396.757 351.878 395.134 351.878C392.991 351.878 391.243 351.29 389.888 350.115C388.534 348.939 387.857 347.354 387.857 345.36C387.857 343.098 388.683 341.416 390.335 340.315C391.927 339.258 394.026 338.425 396.63 337.815L402.903 336.431C402.724 335.076 402.188 334.064 401.296 333.395C400.403 332.71 399.234 332.368 397.791 332.368C394.651 332.368 392.776 333.677 392.165 336.297L387.812 335.471C388.184 333.343 389.286 331.624 391.116 330.314C392.947 329.004 395.261 328.35 398.059 328.35C400.976 328.35 403.29 329.138 405.001 330.716C406.713 332.278 407.568 334.399 407.568 337.078V351.476ZM392.612 345.025C392.612 345.933 392.902 346.64 393.482 347.146C394.078 347.652 394.889 347.905 395.916 347.905C397.136 347.905 398.267 347.644 399.309 347.123C400.365 346.602 401.243 345.776 401.943 344.645C402.642 343.514 402.992 342.168 402.992 340.605V340.092L396.719 341.565C395.335 341.892 394.301 342.316 393.616 342.837C392.947 343.358 392.612 344.087 392.612 345.025ZM418.908 351.476H414.198V328.751H418.663L418.908 331.854C419.593 330.783 420.493 329.942 421.61 329.332C422.726 328.707 424.006 328.394 425.449 328.394C426.119 328.394 426.863 328.498 427.681 328.707L427.034 333.328C426.305 333.119 425.531 333.015 424.712 333.015C423.09 333.015 421.714 333.61 420.583 334.801C419.467 335.992 418.908 337.606 418.908 339.645V351.476ZM453.219 317.188V351.476H448.799L448.621 348.329C447.698 349.46 446.574 350.338 445.25 350.963C443.94 351.573 442.519 351.878 440.986 351.878C437.771 351.878 435.108 350.762 432.994 348.53C430.881 346.297 429.824 343.485 429.824 340.092C429.824 336.713 430.881 333.915 432.994 331.698C435.122 329.466 437.786 328.35 440.986 328.35C443.962 328.35 446.455 329.473 448.464 331.72V317.188H453.219ZM441.611 332.68C439.602 332.68 437.958 333.372 436.678 334.756C435.398 336.125 434.758 337.904 434.758 340.092C434.758 342.294 435.398 344.087 436.678 345.471C437.958 346.855 439.602 347.547 441.611 347.547C443.635 347.547 445.279 346.855 446.544 345.471C447.824 344.087 448.464 342.294 448.464 340.092C448.464 337.889 447.832 336.103 446.567 334.734C445.302 333.365 443.65 332.68 441.611 332.68Z" fill="#0A2540"/>
<path d="M239.929 413.286H236.804V384.713H240.283L250.421 397.623L260.392 384.713H263.871V413.286H260.746V389.14L250.682 402.013H249.956L239.929 389.214V413.286ZM285.71 413.286H282.976L282.883 409.659C282.101 410.887 281.085 411.848 279.832 412.542C278.592 413.237 277.252 413.584 275.814 413.584C274.04 413.584 272.608 413.119 271.517 412.189C270.438 411.259 269.898 410 269.898 408.412C269.898 406.614 270.586 405.256 271.963 404.338C273.29 403.47 275.094 402.745 277.376 402.162L282.808 400.897C282.684 399.558 282.188 398.541 281.32 397.846C280.464 397.139 279.348 396.786 277.972 396.786C276.57 396.786 275.411 397.108 274.493 397.753C273.588 398.398 272.974 399.334 272.651 400.562L269.898 400.023C270.258 398.249 271.176 396.842 272.651 395.8C274.127 394.758 275.938 394.237 278.083 394.237C280.427 394.237 282.281 394.882 283.645 396.172C285.022 397.449 285.71 399.192 285.71 401.399V413.286ZM272.986 408.152C272.986 409.02 273.271 409.721 273.842 410.254C274.425 410.775 275.218 411.035 276.223 411.035C278.009 411.035 279.559 410.378 280.874 409.063C282.188 407.749 282.846 405.969 282.846 403.725V403.297L277.376 404.636C275.888 405.021 274.784 405.479 274.065 406.013C273.346 406.546 272.986 407.259 272.986 408.152ZM297.653 413.584C295.396 413.584 293.598 413.082 292.258 412.077C290.931 411.06 290.101 409.646 289.766 407.836L292.761 407.222C292.934 408.412 293.449 409.355 294.305 410.049C295.16 410.731 296.326 411.073 297.802 411.073C299.117 411.073 300.165 410.812 300.946 410.291C301.74 409.77 302.136 409.014 302.136 408.022C302.136 407.774 302.112 407.544 302.062 407.333C302.012 407.11 301.919 406.918 301.783 406.757C301.647 406.583 301.516 406.434 301.392 406.31C301.281 406.186 301.095 406.068 300.834 405.957C300.586 405.845 300.382 405.758 300.22 405.696C300.072 405.634 299.824 405.566 299.476 405.492C299.141 405.405 298.887 405.343 298.714 405.306C298.552 405.269 298.267 405.213 297.858 405.138C297.449 405.064 297.163 405.014 297.002 404.989C296.518 404.89 296.159 404.822 295.923 404.785C295.7 404.735 295.359 404.655 294.9 404.543C294.454 404.431 294.113 404.332 293.877 404.245C293.641 404.146 293.337 404.016 292.965 403.855C292.593 403.681 292.302 403.507 292.091 403.334C291.893 403.16 291.669 402.949 291.421 402.701C291.173 402.441 290.981 402.162 290.845 401.864C290.721 401.567 290.615 401.226 290.528 400.841C290.442 400.444 290.398 400.023 290.398 399.576C290.398 398.026 291.043 396.749 292.333 395.744C293.623 394.739 295.315 394.237 297.411 394.237C299.458 394.237 301.113 394.677 302.378 395.558C303.643 396.426 304.425 397.635 304.722 399.185L301.839 399.762C301.368 397.703 299.879 396.674 297.374 396.674C296.109 396.674 295.136 396.928 294.454 397.437C293.784 397.945 293.449 398.621 293.449 399.465C293.449 400.469 293.92 401.139 294.863 401.474C295.843 401.821 296.934 402.1 298.137 402.311C298.67 402.41 299.042 402.484 299.253 402.534C299.476 402.571 299.836 402.652 300.332 402.776C300.84 402.887 301.213 402.987 301.448 403.073C301.684 403.16 302.006 403.29 302.415 403.464C302.837 403.638 303.153 403.811 303.364 403.985C303.575 404.159 303.817 404.382 304.09 404.655C304.375 404.927 304.586 405.213 304.722 405.51C304.859 405.808 304.976 406.161 305.076 406.571C305.175 406.968 305.224 407.402 305.224 407.873C305.224 409.56 304.561 410.936 303.234 412.003C301.919 413.057 300.059 413.584 297.653 413.584ZM306.992 397.139V396.414L312.554 391.224H313.242V394.535H320.255V397.139H313.242V407.501C313.242 408.654 313.509 409.504 314.042 410.049C314.588 410.583 315.412 410.849 316.516 410.849C317.298 410.849 318.252 410.632 319.381 410.198L320.069 412.672C318.656 413.28 317.322 413.584 316.07 413.584C314.222 413.584 312.79 413.094 311.773 412.114C310.756 411.135 310.247 409.758 310.247 407.985V397.139H306.992ZM322.469 403.799C322.469 401.033 323.356 398.751 325.129 396.953C326.903 395.143 329.141 394.237 331.845 394.237C334.524 394.237 336.694 395.05 338.356 396.674C340.03 398.311 340.867 400.419 340.867 402.999C340.867 403.011 340.83 403.52 340.755 404.524H325.52C325.681 406.62 326.32 408.214 327.436 409.305C328.565 410.384 330.059 410.924 331.919 410.924C333.569 410.924 334.914 410.576 335.956 409.882C336.998 409.175 337.686 408.202 338.021 406.961L340.755 407.501C340.359 409.336 339.354 410.812 337.742 411.928C336.13 413.032 334.189 413.584 331.919 413.584C329.067 413.584 326.779 412.672 325.055 410.849C323.331 409.014 322.469 406.664 322.469 403.799ZM336.068 398.255C334.939 397.276 333.531 396.786 331.845 396.786C330.158 396.786 328.732 397.282 327.566 398.274C326.4 399.254 325.743 400.512 325.594 402.05H337.909C337.81 400.5 337.196 399.235 336.068 398.255ZM348.662 413.286H345.685V394.535H348.624L348.699 397.511C349.244 396.507 350.007 395.713 350.987 395.13C351.979 394.535 353.108 394.237 354.373 394.237C355.005 394.237 355.625 394.324 356.233 394.498L355.786 397.437C355.179 397.263 354.54 397.176 353.87 397.176C352.394 397.176 351.154 397.741 350.15 398.869C349.158 399.998 348.662 401.554 348.662 403.538V413.286ZM363.097 398.851C361.882 400.103 361.274 401.753 361.274 403.799C361.274 405.845 361.869 407.532 363.06 408.859C364.226 410.186 365.739 410.849 367.599 410.849C369.174 410.849 370.476 410.434 371.506 409.603C372.535 408.76 373.198 407.637 373.496 406.236L376.361 406.738C376.026 408.685 375.059 410.31 373.459 411.612C371.884 412.927 369.93 413.584 367.599 413.584C364.871 413.584 362.613 412.66 360.828 410.812C359.042 408.952 358.149 406.614 358.149 403.799C358.149 401.046 359.048 398.764 360.846 396.953C362.644 395.143 364.895 394.237 367.599 394.237C369.856 394.237 371.747 394.832 373.273 396.023C374.811 397.214 375.803 398.813 376.249 400.823L373.347 401.362C373.012 400.023 372.343 398.956 371.338 398.162C370.346 397.369 369.112 396.972 367.636 396.972C365.776 396.972 364.263 397.598 363.097 398.851ZM394.982 413.286H392.247L392.154 409.659C391.373 410.887 390.356 411.848 389.104 412.542C387.863 413.237 386.524 413.584 385.085 413.584C383.312 413.584 381.88 413.119 380.788 412.189C379.709 411.259 379.17 410 379.17 408.412C379.17 406.614 379.858 405.256 381.235 404.338C382.562 403.47 384.366 402.745 386.648 402.162L392.08 400.897C391.956 399.558 391.46 398.541 390.592 397.846C389.736 397.139 388.62 396.786 387.243 396.786C385.842 396.786 384.682 397.108 383.765 397.753C382.859 398.398 382.245 399.334 381.923 400.562L379.17 400.023C379.529 398.249 380.447 396.842 381.923 395.8C383.399 394.758 385.209 394.237 387.355 394.237C389.699 394.237 391.553 394.882 392.917 396.172C394.294 397.449 394.982 399.192 394.982 401.399V413.286ZM382.258 408.152C382.258 409.02 382.543 409.721 383.114 410.254C383.696 410.775 384.49 411.035 385.495 411.035C387.281 411.035 388.831 410.378 390.145 409.063C391.46 407.749 392.117 405.969 392.117 403.725V403.297L386.648 404.636C385.16 405.021 384.056 405.479 383.337 406.013C382.617 406.546 382.258 407.259 382.258 408.152ZM403.837 413.286H400.86V394.535H403.8L403.874 397.511C404.42 396.507 405.182 395.713 406.162 395.13C407.154 394.535 408.283 394.237 409.548 394.237C410.18 394.237 410.8 394.324 411.408 394.498L410.962 397.437C410.354 397.263 409.715 397.176 409.046 397.176C407.57 397.176 406.33 397.741 405.325 398.869C404.333 399.998 403.837 401.554 403.837 403.538V413.286ZM432.224 384.713V413.286H429.36L429.285 410.235C428.491 411.302 427.512 412.127 426.346 412.71C425.193 413.292 423.928 413.584 422.551 413.584C419.897 413.584 417.696 412.672 415.947 410.849C414.198 409.014 413.324 406.689 413.324 403.873C413.324 401.095 414.198 398.795 415.947 396.972C417.696 395.149 419.897 394.237 422.551 394.237C423.903 394.237 425.155 394.529 426.309 395.112C427.475 395.682 428.454 396.482 429.248 397.511V384.713H432.224ZM422.849 396.972C420.976 396.972 419.451 397.61 418.272 398.888C417.057 400.178 416.449 401.839 416.449 403.873C416.449 405.932 417.057 407.606 418.272 408.896C419.438 410.198 420.964 410.849 422.849 410.849C424.746 410.849 426.284 410.204 427.462 408.915C428.653 407.612 429.248 405.932 429.248 403.873C429.248 401.827 428.653 400.165 427.462 398.888C426.284 397.61 424.746 396.972 422.849 396.972ZM441.935 409.473L438.977 418.997H436.522L438.326 409.473H441.935ZM459.514 413.286H456.389V384.713H459.868L470.006 397.623L479.977 384.713H483.456V413.286H480.331V389.14L470.267 402.013H469.541L459.514 389.214V413.286ZM505.295 413.286H502.561L502.468 409.659C501.686 410.887 500.67 411.848 499.417 412.542C498.177 413.237 496.837 413.584 495.399 413.584C493.625 413.584 492.193 413.119 491.102 412.189C490.023 411.259 489.483 410 489.483 408.412C489.483 406.614 490.171 405.256 491.548 404.338C492.875 403.47 494.679 402.745 496.961 402.162L502.393 400.897C502.269 399.558 501.773 398.541 500.905 397.846C500.049 397.139 498.933 396.786 497.557 396.786C496.155 396.786 494.996 397.108 494.078 397.753C493.173 398.398 492.559 399.334 492.236 400.562L489.483 400.023C489.843 398.249 490.761 396.842 492.236 395.8C493.712 394.758 495.523 394.237 497.668 394.237C500.012 394.237 501.866 394.882 503.23 396.172C504.607 397.449 505.295 399.192 505.295 401.399V413.286ZM492.571 408.152C492.571 409.02 492.856 409.721 493.427 410.254C494.01 410.775 494.803 411.035 495.808 411.035C497.594 411.035 499.144 410.378 500.459 409.063C501.773 407.749 502.431 405.969 502.431 403.725V403.297L496.961 404.636C495.473 405.021 494.369 405.479 493.65 406.013C492.931 406.546 492.571 407.259 492.571 408.152ZM509.686 403.799C509.686 401.033 510.572 398.751 512.346 396.953C514.119 395.143 516.358 394.237 519.061 394.237C521.74 394.237 523.91 395.05 525.572 396.674C527.246 398.311 528.084 400.419 528.084 402.999C528.084 403.011 528.046 403.52 527.972 404.524H512.736C512.898 406.62 513.536 408.214 514.652 409.305C515.781 410.384 517.275 410.924 519.136 410.924C520.785 410.924 522.131 410.576 523.172 409.882C524.214 409.175 524.902 408.202 525.237 406.961L527.972 407.501C527.575 409.336 526.571 410.812 524.958 411.928C523.346 413.032 521.405 413.584 519.136 413.584C516.283 413.584 513.995 412.672 512.271 410.849C510.547 409.014 509.686 406.664 509.686 403.799ZM523.284 398.255C522.155 397.276 520.748 396.786 519.061 396.786C517.375 396.786 515.948 397.282 514.783 398.274C513.617 399.254 512.96 400.512 512.811 402.05H525.126C525.026 400.5 524.413 399.235 523.284 398.255ZM538.966 413.584C536.709 413.584 534.911 413.082 533.571 412.077C532.244 411.06 531.413 409.646 531.079 407.836L534.074 407.222C534.247 408.412 534.762 409.355 535.618 410.049C536.473 410.731 537.639 411.073 539.115 411.073C540.429 411.073 541.477 410.812 542.259 410.291C543.052 409.77 543.449 409.014 543.449 408.022C543.449 407.774 543.424 407.544 543.375 407.333C543.325 407.11 543.232 406.918 543.096 406.757C542.959 406.583 542.829 406.434 542.705 406.31C542.594 406.186 542.408 406.068 542.147 405.957C541.899 405.845 541.694 405.758 541.533 405.696C541.384 405.634 541.136 405.566 540.789 405.492C540.454 405.405 540.2 405.343 540.026 405.306C539.865 405.269 539.58 405.213 539.171 405.138C538.761 405.064 538.476 405.014 538.315 404.989C537.831 404.89 537.472 404.822 537.236 404.785C537.013 404.735 536.672 404.655 536.213 404.543C535.766 404.431 535.425 404.332 535.19 404.245C534.954 404.146 534.65 404.016 534.278 403.855C533.906 403.681 533.615 403.507 533.404 403.334C533.205 403.16 532.982 402.949 532.734 402.701C532.486 402.441 532.294 402.162 532.157 401.864C532.033 401.567 531.928 401.226 531.841 400.841C531.754 400.444 531.711 400.023 531.711 399.576C531.711 398.026 532.356 396.749 533.646 395.744C534.935 394.739 536.628 394.237 538.724 394.237C540.77 394.237 542.426 394.677 543.691 395.558C544.956 396.426 545.737 397.635 546.035 399.185L543.152 399.762C542.68 397.703 541.192 396.674 538.687 396.674C537.422 396.674 536.448 396.928 535.766 397.437C535.097 397.945 534.762 398.621 534.762 399.465C534.762 400.469 535.233 401.139 536.176 401.474C537.155 401.821 538.247 402.1 539.45 402.311C539.983 402.41 540.355 402.484 540.566 402.534C540.789 402.571 541.149 402.652 541.645 402.776C542.153 402.887 542.525 402.987 542.761 403.073C542.997 403.16 543.319 403.29 543.728 403.464C544.15 403.638 544.466 403.811 544.677 403.985C544.888 404.159 545.13 404.382 545.403 404.655C545.688 404.927 545.899 405.213 546.035 405.51C546.171 405.808 546.289 406.161 546.388 406.571C546.488 406.968 546.537 407.402 546.537 407.873C546.537 409.56 545.874 410.936 544.547 412.003C543.232 413.057 541.372 413.584 538.966 413.584ZM548.305 397.139V396.414L553.867 391.224H554.555V394.535H561.568V397.139H554.555V407.501C554.555 408.654 554.822 409.504 555.355 410.049C555.901 410.583 556.725 410.849 557.829 410.849C558.61 410.849 559.565 410.632 560.694 410.198L561.382 412.672C559.968 413.28 558.635 413.584 557.383 413.584C555.535 413.584 554.102 413.094 553.085 412.114C552.068 411.135 551.56 409.758 551.56 407.985V397.139H548.305ZM568.247 413.286H565.27V394.535H568.209L568.284 397.511C568.829 396.507 569.592 395.713 570.572 395.13C571.564 394.535 572.693 394.237 573.958 394.237C574.59 394.237 575.21 394.324 575.818 394.498L575.371 397.437C574.764 397.263 574.125 397.176 573.455 397.176C571.979 397.176 570.739 397.741 569.735 398.869C568.743 399.998 568.247 401.554 568.247 403.538V413.286ZM580.468 396.972C582.291 395.149 584.604 394.237 587.407 394.237C590.21 394.237 592.523 395.149 594.346 396.972C596.169 398.795 597.081 401.095 597.081 403.873C597.081 406.689 596.169 409.014 594.346 410.849C592.523 412.672 590.21 413.584 587.407 413.584C584.604 413.584 582.291 412.672 580.468 410.849C578.645 409.014 577.734 406.689 577.734 403.873C577.734 401.095 578.645 398.795 580.468 396.972ZM587.407 396.972C585.522 396.972 583.96 397.61 582.719 398.888C581.479 400.165 580.859 401.827 580.859 403.873C580.859 405.944 581.479 407.619 582.719 408.896C583.947 410.198 585.51 410.849 587.407 410.849C589.292 410.849 590.867 410.198 592.132 408.896C593.36 407.594 593.974 405.92 593.974 403.873C593.974 401.852 593.36 400.19 592.132 398.888C590.855 397.61 589.28 396.972 587.407 396.972ZM605.303 409.473L602.345 418.997H599.89L601.694 409.473H605.303ZM626.287 413.286L616.074 384.713H619.497L628.37 409.622L637.206 384.713H640.573L630.286 413.286H626.287ZM647.903 388.098C647.903 388.681 647.698 389.171 647.289 389.568C646.892 389.965 646.402 390.163 645.819 390.163C645.236 390.163 644.747 389.965 644.35 389.568C643.953 389.171 643.754 388.681 643.754 388.098C643.754 387.491 643.947 387.001 644.331 386.629C644.728 386.244 645.224 386.052 645.819 386.052C646.415 386.052 646.911 386.244 647.308 386.629C647.704 387.001 647.903 387.491 647.903 388.098ZM647.308 413.286H644.331V394.535H647.308V413.286ZM659.622 413.584C657.365 413.584 655.567 413.082 654.228 412.077C652.901 411.06 652.07 409.646 651.735 407.836L654.73 407.222C654.904 408.412 655.418 409.355 656.274 410.049C657.13 410.731 658.295 411.073 659.771 411.073C661.086 411.073 662.134 410.812 662.915 410.291C663.709 409.77 664.106 409.014 664.106 408.022C664.106 407.774 664.081 407.544 664.031 407.333C663.982 407.11 663.889 406.918 663.752 406.757C663.616 406.583 663.486 406.434 663.362 406.31C663.25 406.186 663.064 406.068 662.803 405.957C662.555 405.845 662.351 405.758 662.19 405.696C662.041 405.634 661.793 405.566 661.446 405.492C661.111 405.405 660.856 405.343 660.683 405.306C660.522 405.269 660.236 405.213 659.827 405.138C659.418 405.064 659.133 405.014 658.971 404.989C658.488 404.89 658.128 404.822 657.892 404.785C657.669 404.735 657.328 404.655 656.869 404.543C656.423 404.431 656.082 404.332 655.846 404.245C655.61 404.146 655.307 404.016 654.935 403.855C654.563 403.681 654.271 403.507 654.06 403.334C653.862 403.16 653.639 402.949 653.391 402.701C653.143 402.441 652.95 402.162 652.814 401.864C652.69 401.567 652.584 401.226 652.498 400.841C652.411 400.444 652.367 400.023 652.367 399.576C652.367 398.026 653.012 396.749 654.302 395.744C655.592 394.739 657.285 394.237 659.381 394.237C661.427 394.237 663.083 394.677 664.348 395.558C665.612 396.426 666.394 397.635 666.691 399.185L663.808 399.762C663.337 397.703 661.849 396.674 659.343 396.674C658.078 396.674 657.105 396.928 656.423 397.437C655.753 397.945 655.418 398.621 655.418 399.465C655.418 400.469 655.89 401.139 656.832 401.474C657.812 401.821 658.903 402.1 660.106 402.311C660.639 402.41 661.011 402.484 661.222 402.534C661.446 402.571 661.805 402.652 662.301 402.776C662.81 402.887 663.182 402.987 663.417 403.073C663.653 403.16 663.975 403.29 664.385 403.464C664.806 403.638 665.123 403.811 665.333 403.985C665.544 404.159 665.786 404.382 666.059 404.655C666.344 404.927 666.555 405.213 666.691 405.51C666.828 405.808 666.946 406.161 667.045 406.571C667.144 406.968 667.194 407.402 667.194 407.873C667.194 409.56 666.53 410.936 665.203 412.003C663.889 413.057 662.028 413.584 659.622 413.584ZM686.113 413.286H683.378L683.285 409.659C682.504 410.887 681.487 411.848 680.234 412.542C678.994 413.237 677.655 413.584 676.216 413.584C674.443 413.584 673.01 413.119 671.919 412.189C670.84 411.259 670.3 410 670.3 408.412C670.3 406.614 670.989 405.256 672.365 404.338C673.692 403.47 675.497 402.745 677.779 402.162L683.211 400.897C683.087 399.558 682.59 398.541 681.722 397.846C680.867 397.139 679.75 396.786 678.374 396.786C676.972 396.786 675.813 397.108 674.895 397.753C673.99 398.398 673.376 399.334 673.054 400.562L670.3 400.023C670.66 398.249 671.578 396.842 673.054 395.8C674.529 394.758 676.34 394.237 678.486 394.237C680.829 394.237 682.683 394.882 684.048 396.172C685.424 397.449 686.113 399.192 686.113 401.399V413.286ZM673.388 408.152C673.388 409.02 673.674 409.721 674.244 410.254C674.827 410.775 675.621 411.035 676.625 411.035C678.411 411.035 679.961 410.378 681.276 409.063C682.59 407.749 683.248 405.969 683.248 403.725V403.297L677.779 404.636C676.29 405.021 675.187 405.479 674.467 406.013C673.748 406.546 673.388 407.259 673.388 408.152Z" fill="#0A2540" fill-opacity="0.7"/>
<circle cx="148.264" cy="369.959" r="52.0674" stroke="white" stroke-opacity="0.3" stroke-width="2.53987"/>
<g clip-path="url(#clip0_2386_7401)">
<circle cx="148.25" cy="369.426" r="50.7975" fill="#262626"/>
<path d="M173.629 383.414C173.628 386.921 170.786 389.764 167.279 389.764H129.182C125.676 389.764 122.833 386.921 122.833 383.414V366.906H173.629V383.414ZM127.918 382.137H140.617V377.057H127.918V382.137ZM167.279 351.658C170.786 351.658 173.629 354.501 173.629 358.008V361.818H122.833V358.008C122.833 354.501 125.676 351.659 129.182 351.658H167.279Z" fill="white"/>
</g>
<g filter="url(#filter3_ddd_2386_7401)">
<rect x="33.9592" y="504.213" width="1117" height="227.726" rx="20.4347" fill="white"/>
<rect x="35.2364" y="505.49" width="1114.45" height="225.172" rx="19.1575" stroke="#0A2540" stroke-opacity="0.1" stroke-width="2.55434"/>
</g>
<path fill-rule="evenodd" clip-rule="evenodd" d="M1078.04 617.416L1056.01 639.21L1059.63 642.798L1085.22 617.372L1059.63 591.999L1056.01 595.59L1078.04 617.416Z" fill="#0A2540" fill-opacity="0.5"/>
<path d="M250.503 601.428H245.391V586.471L232.957 567.14H238.895L248.025 581.583L257.222 567.14H262.937L250.503 586.471V601.428ZM272.982 578.301C276.435 578.301 279.285 579.417 281.532 581.65C283.794 583.867 284.925 586.665 284.925 590.043C284.925 593.451 283.794 596.271 281.532 598.504C279.285 600.721 276.435 601.83 272.982 601.83C269.545 601.83 266.695 600.714 264.433 598.481C262.185 596.249 261.062 593.436 261.062 590.043C261.062 586.665 262.193 583.867 264.455 581.65C266.717 579.417 269.559 578.301 272.982 578.301ZM272.982 582.632C270.914 582.632 269.232 583.316 267.937 584.686C266.643 586.055 265.995 587.841 265.995 590.043C265.995 592.246 266.643 594.039 267.937 595.423C269.232 596.807 270.914 597.499 272.982 597.499C275.051 597.499 276.733 596.807 278.027 595.423C279.337 594.039 279.992 592.246 279.992 590.043C279.992 587.841 279.344 586.055 278.05 584.686C276.755 583.316 275.066 582.632 272.982 582.632ZM300.395 578.301C303.848 578.301 306.698 579.417 308.945 581.65C311.207 583.867 312.338 586.665 312.338 590.043C312.338 593.451 311.207 596.271 308.945 598.504C306.698 600.721 303.848 601.83 300.395 601.83C296.957 601.83 294.107 600.714 291.845 598.481C289.598 596.249 288.475 593.436 288.475 590.043C288.475 586.665 289.606 583.867 291.868 581.65C294.13 579.417 296.972 578.301 300.395 578.301ZM300.395 582.632C298.326 582.632 296.645 583.316 295.35 584.686C294.055 586.055 293.408 587.841 293.408 590.043C293.408 592.246 294.055 594.039 295.35 595.423C296.645 596.807 298.326 597.499 300.395 597.499C302.464 597.499 304.145 596.807 305.44 595.423C306.75 594.039 307.405 592.246 307.405 590.043C307.405 587.841 306.757 586.055 305.462 584.686C304.168 583.316 302.479 582.632 300.395 582.632ZM323.834 601.428H318.946V567.14H324.392L335.599 581.583L346.559 567.14H352.006V601.428H347.073V574.038L335.956 588.481H334.907L323.834 574.216V601.428ZM370.49 578.301C373.942 578.301 376.792 579.417 379.039 581.65C381.301 583.867 382.433 586.665 382.433 590.043C382.433 593.451 381.301 596.271 379.039 598.504C376.792 600.721 373.942 601.83 370.49 601.83C367.052 601.83 364.202 600.714 361.94 598.481C359.693 596.249 358.569 593.436 358.569 590.043C358.569 586.665 359.7 583.867 361.962 581.65C364.224 579.417 367.067 578.301 370.49 578.301ZM370.49 582.632C368.421 582.632 366.739 583.316 365.445 584.686C364.15 586.055 363.503 587.841 363.503 590.043C363.503 592.246 364.15 594.039 365.445 595.423C366.739 596.807 368.421 597.499 370.49 597.499C372.558 597.499 374.24 596.807 375.535 595.423C376.844 594.039 377.499 592.246 377.499 590.043C377.499 587.841 376.852 586.055 375.557 584.686C374.262 583.316 372.573 582.632 370.49 582.632ZM392.478 601.428H387.768V578.703H392.143L392.344 581.493C394.174 579.365 396.518 578.301 399.376 578.301C401.95 578.301 404.078 579.127 405.76 580.779C407.442 582.431 408.283 584.76 408.283 587.766V601.428H403.528V588.391C403.528 586.561 403.037 585.154 402.055 584.172C401.087 583.175 399.83 582.677 398.282 582.677C397.523 582.677 396.809 582.788 396.139 583.011C395.484 583.235 394.874 583.577 394.308 584.038C393.743 584.5 393.296 585.132 392.969 585.936C392.642 586.739 392.478 587.67 392.478 588.726V601.428ZM413.082 590.043C413.082 586.65 414.169 583.845 416.341 581.627C418.529 579.41 421.312 578.301 424.69 578.301C427.949 578.301 430.613 579.291 432.682 581.27C434.736 583.235 435.762 585.809 435.762 588.994C435.762 589.247 435.733 589.634 435.673 590.155C435.614 590.661 435.576 591.018 435.562 591.226H417.926C418.12 593.354 418.827 594.962 420.047 596.048C421.282 597.135 422.86 597.678 424.779 597.678C426.491 597.678 427.912 597.328 429.043 596.629C430.189 595.914 430.918 594.954 431.231 593.749L435.628 594.53C435.108 596.837 433.858 598.615 431.878 599.865C429.884 601.175 427.518 601.83 424.779 601.83C421.238 601.83 418.402 600.729 416.274 598.526C414.146 596.323 413.082 593.496 413.082 590.043ZM424.735 582.275C422.919 582.275 421.416 582.736 420.226 583.659C419.035 584.567 418.313 585.809 418.06 587.387H431.097C430.844 585.809 430.152 584.567 429.021 583.659C427.89 582.736 426.461 582.275 424.735 582.275ZM447.437 601.294L437.638 578.703H442.906L449.893 595.267L456.21 578.703H461.144L448.353 611.496H443.442L447.437 601.294Z" fill="#0A2540"/>
<path d="M242.366 659.061L249.993 643.788H250.793L258.495 659.023L263.945 634.635H267.182L260.82 663.209H257.267L250.384 649.536L243.557 663.209H240.06L233.697 634.635H236.934L242.366 659.061ZM285.785 663.209H283.05L282.957 659.581C282.176 660.809 281.159 661.77 279.906 662.465C278.666 663.159 277.327 663.507 275.888 663.507C274.115 663.507 272.682 663.042 271.591 662.111C270.512 661.181 269.973 659.923 269.973 658.335C269.973 656.537 270.661 655.179 272.037 654.261C273.364 653.393 275.169 652.668 277.451 652.085L282.883 650.82C282.759 649.48 282.263 648.463 281.395 647.769C280.539 647.062 279.423 646.708 278.046 646.708C276.645 646.708 275.485 647.031 274.567 647.676C273.662 648.321 273.048 649.257 272.726 650.485L269.973 649.945C270.332 648.172 271.25 646.764 272.726 645.723C274.202 644.681 276.012 644.16 278.158 644.16C280.502 644.16 282.356 644.805 283.72 646.095C285.096 647.372 285.785 649.114 285.785 651.322V663.209ZM273.061 658.075C273.061 658.943 273.346 659.643 273.916 660.177C274.499 660.698 275.293 660.958 276.297 660.958C278.083 660.958 279.634 660.301 280.948 658.986C282.263 657.672 282.92 655.892 282.92 653.647V653.219L277.451 654.559C275.963 654.943 274.859 655.402 274.14 655.935C273.42 656.469 273.061 657.182 273.061 658.075ZM294.64 663.209H291.663V634.635H294.64V663.209ZM303.866 663.209H300.89V634.635H303.866V663.209ZM308.629 653.722C308.629 650.956 309.515 648.674 311.289 646.876C313.062 645.065 315.301 644.16 318.004 644.16C320.683 644.16 322.854 644.972 324.515 646.597C326.19 648.234 327.027 650.342 327.027 652.922C327.027 652.934 326.99 653.443 326.915 654.447H311.68C311.841 656.543 312.479 658.137 313.596 659.228C314.724 660.307 316.219 660.846 318.079 660.846C319.728 660.846 321.074 660.499 322.116 659.805C323.157 659.098 323.846 658.124 324.181 656.884L326.915 657.424C326.518 659.259 325.514 660.735 323.901 661.851C322.289 662.955 320.348 663.507 318.079 663.507C315.226 663.507 312.938 662.595 311.215 660.772C309.491 658.937 308.629 656.586 308.629 653.722ZM322.227 648.178C321.099 647.198 319.691 646.708 318.004 646.708C316.318 646.708 314.892 647.205 313.726 648.197C312.56 649.176 311.903 650.435 311.754 651.973H324.069C323.97 650.423 323.356 649.158 322.227 648.178ZM329.054 647.062V646.336L334.617 641.146H335.305V644.458H342.318V647.062H335.305V657.424C335.305 658.577 335.571 659.426 336.105 659.972C336.65 660.505 337.475 660.772 338.579 660.772C339.36 660.772 340.315 660.555 341.444 660.121L342.132 662.595C340.718 663.203 339.385 663.507 338.132 663.507C336.285 663.507 334.852 663.017 333.835 662.037C332.818 661.057 332.31 659.681 332.31 657.907V647.062H329.054ZM368.752 663.209H366.018L365.925 659.581C365.143 660.809 364.126 661.77 362.874 662.465C361.634 663.159 360.294 663.507 358.856 663.507C357.082 663.507 355.65 663.042 354.559 662.111C353.48 661.181 352.94 659.923 352.94 658.335C352.94 656.537 353.628 655.179 355.005 654.261C356.332 653.393 358.136 652.668 360.418 652.085L365.85 650.82C365.726 649.48 365.23 648.463 364.362 647.769C363.506 647.062 362.39 646.708 361.014 646.708C359.612 646.708 358.453 647.031 357.535 647.676C356.63 648.321 356.016 649.257 355.693 650.485L352.94 649.945C353.3 648.172 354.217 646.764 355.693 645.723C357.169 644.681 358.98 644.16 361.125 644.16C363.469 644.16 365.323 644.805 366.687 646.095C368.064 647.372 368.752 649.114 368.752 651.322V663.209ZM356.028 658.075C356.028 658.943 356.313 659.643 356.884 660.177C357.467 660.698 358.26 660.958 359.265 660.958C361.051 660.958 362.601 660.301 363.916 658.986C365.23 657.672 365.888 655.892 365.888 653.647V653.219L360.418 654.559C358.93 654.943 357.826 655.402 357.107 655.935C356.388 656.469 356.028 657.182 356.028 658.075ZM377.607 663.209H374.631V644.458H377.496L377.57 647.285C378.227 646.318 379.071 645.555 380.1 644.997C381.142 644.439 382.326 644.16 383.653 644.16C385.054 644.16 386.301 644.445 387.392 645.016C388.483 645.586 389.358 646.473 390.015 647.676C390.685 648.866 391.02 650.299 391.02 651.973V663.209H388.043V652.233C388.043 650.534 387.591 649.232 386.685 648.327C385.78 647.409 384.583 646.95 383.095 646.95C381.644 646.95 380.373 647.44 379.281 648.42C378.165 649.424 377.607 650.913 377.607 652.885V663.209ZM414.254 634.635V663.209H411.389L411.315 660.158C410.521 661.225 409.542 662.049 408.376 662.632C407.222 663.215 405.958 663.507 404.581 663.507C401.927 663.507 399.726 662.595 397.977 660.772C396.228 658.937 395.354 656.611 395.354 653.796C395.354 651.018 396.228 648.718 397.977 646.895C399.726 645.071 401.927 644.16 404.581 644.16C405.933 644.16 407.185 644.451 408.339 645.034C409.504 645.605 410.484 646.405 411.278 647.434V634.635H414.254ZM404.879 646.895C403.006 646.895 401.48 647.533 400.302 648.811C399.087 650.1 398.479 651.762 398.479 653.796C398.479 655.855 399.087 657.529 400.302 658.819C401.468 660.121 402.993 660.772 404.879 660.772C406.776 660.772 408.314 660.127 409.492 658.837C410.683 657.535 411.278 655.855 411.278 653.796C411.278 651.75 410.683 650.088 409.492 648.811C408.314 647.533 406.776 646.895 404.879 646.895ZM431.852 663.209H428.876V634.635H431.852V663.209ZM441.674 638.021C441.674 638.604 441.47 639.094 441.061 639.491C440.664 639.888 440.174 640.086 439.591 640.086C439.008 640.086 438.518 639.888 438.121 639.491C437.725 639.094 437.526 638.604 437.526 638.021C437.526 637.413 437.718 636.924 438.103 636.551C438.5 636.167 438.996 635.975 439.591 635.975C440.186 635.975 440.682 636.167 441.079 636.551C441.476 636.924 441.674 637.413 441.674 638.021ZM441.079 663.209H438.103V644.458H441.079V663.209ZM450.306 663.209H447.33V644.458H450.194L450.269 647.285C450.926 646.318 451.769 645.555 452.799 644.997C453.841 644.439 455.025 644.16 456.352 644.16C457.753 644.16 459 644.445 460.091 645.016C461.182 645.586 462.057 646.473 462.714 647.676C463.384 648.866 463.719 650.299 463.719 651.973V663.209H460.742V652.233C460.742 650.534 460.289 649.232 459.384 648.327C458.479 647.409 457.282 646.95 455.794 646.95C454.343 646.95 453.072 647.44 451.98 648.42C450.864 649.424 450.306 650.913 450.306 652.885V663.209ZM475.103 651.471L481.577 644.458H485.242L477.577 652.81L485.725 663.209H482.117L475.029 654.373H472.518V663.209H469.541V634.635H472.518V651.471H475.103ZM486.916 653.722C486.916 650.956 487.803 648.674 489.576 646.876C491.35 645.065 493.588 644.16 496.292 644.16C498.97 644.16 501.141 644.972 502.803 646.597C504.477 648.234 505.314 650.342 505.314 652.922C505.314 652.934 505.277 653.443 505.202 654.447H489.967C490.128 656.543 490.767 658.137 491.883 659.228C493.011 660.307 494.506 660.846 496.366 660.846C498.016 660.846 499.361 660.499 500.403 659.805C501.445 659.098 502.133 658.124 502.468 656.884L505.202 657.424C504.805 659.259 503.801 660.735 502.189 661.851C500.576 662.955 498.636 663.507 496.366 663.507C493.514 663.507 491.226 662.595 489.502 660.772C487.778 658.937 486.916 656.586 486.916 653.722ZM500.514 648.178C499.386 647.198 497.978 646.708 496.292 646.708C494.605 646.708 493.179 647.205 492.013 648.197C490.847 649.176 490.19 650.435 490.041 651.973H502.356C502.257 650.423 501.643 649.158 500.514 648.178ZM527.544 634.635V663.209H524.679L524.605 660.158C523.811 661.225 522.831 662.049 521.666 662.632C520.512 663.215 519.247 663.507 517.871 663.507C515.217 663.507 513.015 662.595 511.267 660.772C509.518 658.937 508.644 656.611 508.644 653.796C508.644 651.018 509.518 648.718 511.267 646.895C513.015 645.071 515.217 644.16 517.871 644.16C519.223 644.16 520.475 644.451 521.628 645.034C522.794 645.605 523.774 646.405 524.568 647.434V634.635H527.544ZM518.168 646.895C516.296 646.895 514.77 647.533 513.592 648.811C512.377 650.1 511.769 651.762 511.769 653.796C511.769 655.855 512.377 657.529 513.592 658.819C514.758 660.121 516.283 660.772 518.168 660.772C520.066 660.772 521.604 660.127 522.782 658.837C523.972 657.535 524.568 655.855 524.568 653.796C524.568 651.75 523.972 650.088 522.782 648.811C521.604 647.533 520.066 646.895 518.168 646.895ZM545.626 648.773C544.41 650.026 543.803 651.675 543.803 653.722C543.803 655.768 544.398 657.455 545.589 658.782C546.754 660.109 548.267 660.772 550.128 660.772C551.703 660.772 553.005 660.357 554.034 659.526C555.063 658.682 555.727 657.56 556.025 656.159L558.889 656.661C558.555 658.608 557.587 660.233 555.987 661.535C554.412 662.849 552.459 663.507 550.128 663.507C547.399 663.507 545.142 662.583 543.356 660.735C541.57 658.875 540.677 656.537 540.677 653.722C540.677 650.968 541.577 648.687 543.375 646.876C545.173 645.065 547.424 644.16 550.128 644.16C552.385 644.16 554.276 644.755 555.801 645.946C557.339 647.136 558.331 648.736 558.778 650.745L555.876 651.285C555.541 649.945 554.871 648.879 553.867 648.085C552.875 647.291 551.641 646.895 550.165 646.895C548.305 646.895 546.792 647.521 545.626 648.773ZM577.511 663.209H574.776L574.683 659.581C573.902 660.809 572.885 661.77 571.632 662.465C570.392 663.159 569.053 663.507 567.614 663.507C565.841 663.507 564.408 663.042 563.317 662.111C562.238 661.181 561.698 659.923 561.698 658.335C561.698 656.537 562.387 655.179 563.763 654.261C565.09 653.393 566.895 652.668 569.177 652.085L574.609 650.82C574.485 649.48 573.989 648.463 573.12 647.769C572.265 647.062 571.149 646.708 569.772 646.708C568.371 646.708 567.211 647.031 566.293 647.676C565.388 648.321 564.774 649.257 564.452 650.485L561.698 649.945C562.058 648.172 562.976 646.764 564.452 645.723C565.927 644.681 567.738 644.16 569.884 644.16C572.227 644.16 574.082 644.805 575.446 646.095C576.822 647.372 577.511 649.114 577.511 651.322V663.209ZM564.786 658.075C564.786 658.943 565.072 659.643 565.642 660.177C566.225 660.698 567.019 660.958 568.023 660.958C569.809 660.958 571.359 660.301 572.674 658.986C573.989 657.672 574.646 655.892 574.646 653.647V653.219L569.177 654.559C567.688 654.943 566.585 655.402 565.865 655.935C565.146 656.469 564.786 657.182 564.786 658.075ZM586.365 663.209H583.389V644.458H586.328L586.403 647.434C586.948 646.429 587.711 645.636 588.691 645.053C589.683 644.458 590.811 644.16 592.076 644.16C592.709 644.16 593.329 644.247 593.937 644.42L593.49 647.36C592.883 647.186 592.244 647.099 591.574 647.099C590.098 647.099 588.858 647.663 587.854 648.792C586.862 649.921 586.365 651.477 586.365 653.461V663.209ZM614.753 634.635V663.209H611.888L611.814 660.158C611.02 661.225 610.04 662.049 608.875 662.632C607.721 663.215 606.456 663.507 605.08 663.507C602.426 663.507 600.224 662.595 598.476 660.772C596.727 658.937 595.853 656.611 595.853 653.796C595.853 651.018 596.727 648.718 598.476 646.895C600.224 645.071 602.426 644.16 605.08 644.16C606.431 644.16 607.684 644.451 608.837 645.034C610.003 645.605 610.983 646.405 611.777 647.434V634.635H614.753ZM605.377 646.895C603.505 646.895 601.979 647.533 600.801 648.811C599.586 650.1 598.978 651.762 598.978 653.796C598.978 655.855 599.586 657.529 600.801 658.819C601.967 660.121 603.492 660.772 605.377 660.772C607.275 660.772 608.813 660.127 609.991 658.837C611.181 657.535 611.777 655.855 611.777 653.796C611.777 651.75 611.181 650.088 609.991 648.811C608.813 647.533 607.275 646.895 605.377 646.895ZM627.068 663.507C624.811 663.507 623.013 663.004 621.673 662C620.346 660.983 619.515 659.569 619.18 657.758L622.175 657.145C622.349 658.335 622.864 659.278 623.719 659.972C624.575 660.654 625.741 660.995 627.217 660.995C628.531 660.995 629.579 660.735 630.361 660.214C631.154 659.693 631.551 658.937 631.551 657.944C631.551 657.696 631.526 657.467 631.477 657.256C631.427 657.033 631.334 656.841 631.198 656.679C631.061 656.506 630.931 656.357 630.807 656.233C630.695 656.109 630.509 655.991 630.249 655.88C630.001 655.768 629.796 655.681 629.635 655.619C629.486 655.557 629.238 655.489 628.891 655.414C628.556 655.328 628.302 655.266 628.128 655.228C627.967 655.191 627.682 655.135 627.273 655.061C626.863 654.987 626.578 654.937 626.417 654.912C625.933 654.813 625.574 654.745 625.338 654.708C625.115 654.658 624.774 654.577 624.315 654.466C623.868 654.354 623.527 654.255 623.292 654.168C623.056 654.069 622.752 653.939 622.38 653.777C622.008 653.604 621.717 653.43 621.506 653.257C621.307 653.083 621.084 652.872 620.836 652.624C620.588 652.364 620.396 652.085 620.259 651.787C620.135 651.489 620.03 651.148 619.943 650.764C619.856 650.367 619.813 649.945 619.813 649.499C619.813 647.949 620.458 646.671 621.748 645.667C623.037 644.662 624.73 644.16 626.826 644.16C628.872 644.16 630.528 644.6 631.793 645.481C633.058 646.349 633.839 647.558 634.137 649.108L631.253 649.685C630.782 647.626 629.294 646.597 626.789 646.597C625.524 646.597 624.55 646.851 623.868 647.36C623.199 647.868 622.864 648.544 622.864 649.387C622.864 650.392 623.335 651.061 624.278 651.396C625.257 651.744 626.349 652.023 627.552 652.233C628.085 652.333 628.457 652.407 628.668 652.457C628.891 652.494 629.251 652.575 629.747 652.699C630.255 652.81 630.627 652.909 630.863 652.996C631.098 653.083 631.421 653.213 631.83 653.387C632.252 653.56 632.568 653.734 632.779 653.908C632.99 654.081 633.232 654.305 633.504 654.577C633.79 654.85 634 655.135 634.137 655.433C634.273 655.731 634.391 656.084 634.49 656.493C634.59 656.89 634.639 657.324 634.639 657.796C634.639 659.482 633.976 660.859 632.649 661.925C631.334 662.98 629.474 663.507 627.068 663.507Z" fill="#0A2540" fill-opacity="0.7"/>
<circle cx="148.264" cy="619.932" r="52.0674" stroke="white" stroke-opacity="0.3" stroke-width="2.53987"/>
<g clip-path="url(#clip1_2386_7401)">
<path d="M199.473 618.828C199.473 647.284 176.428 670.325 147.979 670.325C119.528 670.325 96.4548 647.284 96.4548 618.828C96.4548 590.371 119.528 567.308 147.979 567.308C176.428 567.308 199.473 590.371 199.473 618.828Z" fill="#015FCE"/>
<path fill-rule="evenodd" clip-rule="evenodd" d="M132.813 618.8C132.849 604.621 144.268 593.062 158.618 593.062C172.827 593.062 184.587 604.658 184.423 618.867C184.423 633.076 172.827 644.672 158.618 644.672C144.431 644.672 132.849 633.275 132.813 618.935V638.139H123.667L111.908 600.575H132.813V618.8ZM148.982 618.867C148.982 624.093 153.392 628.503 158.618 628.503C164.008 628.503 168.254 624.093 168.254 618.867C168.254 613.641 163.844 609.231 158.618 609.231C153.392 609.231 148.982 613.641 148.982 618.867Z" fill="white"/>
</g>
<g filter="url(#filter4_ddd_2386_7401)">
<rect x="33.9592" y="756.196" width="1117" height="227.726" rx="20.4347" fill="white"/>
<rect x="35.2364" y="757.473" width="1114.45" height="225.172" rx="19.1575" stroke="#0A2540" stroke-opacity="0.1" stroke-width="2.55434"/>
</g>
<path fill-rule="evenodd" clip-rule="evenodd" d="M1078.04 869.395L1056.01 891.189L1059.63 894.776L1085.22 869.35L1059.63 843.977L1056.01 847.569L1078.04 869.395Z" fill="#0A2540" fill-opacity="0.5"/>
<path d="M259.872 827.503L254.938 828.91C254.656 827.243 253.845 825.881 252.505 824.825C251.166 823.768 249.506 823.24 247.527 823.24C245.429 823.24 243.769 823.656 242.549 824.49C241.329 825.323 240.719 826.462 240.719 827.905C240.719 828.59 240.853 829.2 241.12 829.736C241.403 830.271 241.768 830.718 242.214 831.075C242.661 831.417 243.234 831.73 243.933 832.013C244.647 832.295 245.347 832.533 246.032 832.727C246.731 832.905 247.549 833.106 248.487 833.33C248.8 833.389 249.03 833.441 249.179 833.486C249.908 833.664 250.526 833.821 251.032 833.955C251.538 834.089 252.141 834.267 252.84 834.49C253.54 834.699 254.127 834.907 254.604 835.115C255.095 835.324 255.63 835.592 256.211 835.919C256.806 836.232 257.297 836.566 257.684 836.924C258.086 837.266 258.488 837.675 258.89 838.151C259.291 838.613 259.611 839.111 259.85 839.647C260.088 840.183 260.281 840.793 260.43 841.478C260.579 842.162 260.653 842.899 260.653 843.688C260.653 846.857 259.463 849.343 257.081 851.143C254.715 852.929 251.59 853.822 247.706 853.822C243.717 853.822 240.577 852.892 238.285 851.032C235.994 849.172 234.714 846.783 234.446 843.866L239.469 842.504C239.751 844.603 240.607 846.247 242.036 847.438C243.479 848.628 245.459 849.224 247.974 849.224C249.998 849.224 251.739 848.792 253.197 847.929C254.626 847.051 255.34 845.741 255.34 844C255.34 842.17 254.596 840.875 253.108 840.116C251.694 839.431 249.893 838.821 247.706 838.285C246.902 838.107 246.262 837.965 245.786 837.861C245.31 837.742 244.685 837.578 243.911 837.37C243.137 837.147 242.504 836.939 242.013 836.745C241.537 836.552 240.972 836.299 240.317 835.986C239.662 835.674 239.126 835.354 238.71 835.026C238.308 834.684 237.876 834.275 237.415 833.798C236.968 833.322 236.619 832.816 236.366 832.28C236.113 831.745 235.904 831.127 235.741 830.428C235.577 829.728 235.495 828.984 235.495 828.195C235.495 826.231 236.046 824.527 237.147 823.083C238.248 821.625 239.714 820.538 241.545 819.824C243.375 819.095 245.429 818.73 247.706 818.73C250.935 818.73 253.636 819.512 255.809 821.074C257.997 822.637 259.351 824.78 259.872 827.503ZM271.1 853.42H266.725V819.132H271.435V833.709C272.358 832.623 273.467 831.782 274.761 831.187C276.071 830.591 277.477 830.294 278.98 830.294C282.15 830.294 284.792 831.41 286.905 833.642C289.018 835.86 290.075 838.657 290.075 842.036C290.075 845.429 289.018 848.241 286.905 850.474C284.792 852.706 282.15 853.822 278.98 853.822C277.448 853.822 276.019 853.51 274.694 852.885C273.385 852.245 272.254 851.359 271.301 850.228L271.1 853.42ZM278.288 834.624C276.25 834.624 274.598 835.309 273.333 836.678C272.068 838.047 271.435 839.833 271.435 842.036C271.435 844.238 272.068 846.031 273.333 847.415C274.613 848.8 276.264 849.492 278.288 849.492C280.297 849.492 281.942 848.8 283.222 847.415C284.502 846.031 285.142 844.238 285.142 842.036C285.142 839.848 284.502 838.07 283.222 836.7C281.942 835.316 280.297 834.624 278.288 834.624ZM293.647 842.036C293.647 838.643 294.733 835.837 296.906 833.62C299.094 831.402 301.876 830.294 305.255 830.294C308.514 830.294 311.178 831.283 313.246 833.263C315.3 835.227 316.327 837.802 316.327 840.986C316.327 841.239 316.297 841.626 316.238 842.147C316.178 842.653 316.141 843.01 316.126 843.219H298.491C298.684 845.347 299.391 846.954 300.612 848.041C301.847 849.127 303.424 849.67 305.344 849.67C307.055 849.67 308.477 849.32 309.608 848.621C310.754 847.907 311.483 846.947 311.795 845.741L316.193 846.523C315.672 848.829 314.422 850.608 312.443 851.858C310.449 853.167 308.082 853.822 305.344 853.822C301.802 853.822 298.967 852.721 296.839 850.518C294.711 848.316 293.647 845.488 293.647 842.036ZM305.299 834.267C303.484 834.267 301.981 834.729 300.79 835.651C299.6 836.559 298.878 837.802 298.625 839.379H311.661C311.408 837.802 310.716 836.559 309.585 835.651C308.454 834.729 307.026 834.267 305.299 834.267ZM326.529 853.42H321.818V830.695H326.283L326.529 833.798C327.213 832.727 328.114 831.886 329.23 831.276C330.346 830.651 331.626 830.338 333.069 830.338C333.739 830.338 334.483 830.442 335.302 830.651L334.654 835.272C333.925 835.063 333.151 834.959 332.333 834.959C330.71 834.959 329.334 835.554 328.203 836.745C327.087 837.936 326.529 839.55 326.529 841.589V853.42ZM353.406 853.42H340.503V819.132H352.624C355.556 819.132 357.915 819.928 359.701 821.521C361.501 823.113 362.402 825.241 362.402 827.905C362.402 831.239 360.906 833.709 357.915 835.316C359.894 835.971 361.405 837.02 362.447 838.464C363.488 839.893 364.009 841.619 364.009 843.643C364.009 846.604 363.049 848.978 361.129 850.764C359.18 852.535 356.605 853.42 353.406 853.42ZM352.245 823.53H345.615V833.486H352.289C353.837 833.486 355.072 833.032 355.995 832.124C356.918 831.201 357.379 829.966 357.379 828.419C357.379 826.93 356.91 825.747 355.973 824.869C355.035 823.976 353.793 823.53 352.245 823.53ZM353.205 838.017H345.615V849.023H353.249C354.931 849.023 356.278 848.539 357.29 847.572C358.317 846.59 358.83 845.28 358.83 843.643C358.83 841.961 358.317 840.607 357.29 839.58C356.278 838.538 354.916 838.017 353.205 838.017ZM388.006 853.42H383.743L383.52 849.715C382.627 851.01 381.481 852.021 380.082 852.751C378.698 853.465 377.195 853.822 375.572 853.822C373.429 853.822 371.681 853.234 370.327 852.059C368.972 850.883 368.295 849.298 368.295 847.304C368.295 845.042 369.121 843.36 370.773 842.259C372.365 841.202 374.464 840.369 377.068 839.759L383.341 838.375C383.162 837.02 382.627 836.008 381.734 835.339C380.841 834.654 379.672 834.312 378.229 834.312C375.089 834.312 373.214 835.621 372.604 838.241L368.251 837.415C368.623 835.287 369.724 833.568 371.554 832.258C373.385 830.948 375.699 830.294 378.497 830.294C381.414 830.294 383.728 831.082 385.439 832.66C387.151 834.223 388.006 836.343 388.006 839.022V853.42ZM373.05 846.969C373.05 847.877 373.34 848.584 373.921 849.09C374.516 849.596 375.327 849.849 376.354 849.849C377.574 849.849 378.705 849.588 379.747 849.067C380.804 848.547 381.682 847.721 382.381 846.59C383.08 845.459 383.43 844.112 383.43 842.549V842.036L377.157 843.509C375.773 843.836 374.739 844.26 374.055 844.781C373.385 845.302 373.05 846.031 373.05 846.969ZM399.347 853.42H394.636V830.695H399.012L399.213 833.486C401.043 831.358 403.387 830.294 406.244 830.294C408.819 830.294 410.947 831.12 412.629 832.772C414.311 834.423 415.151 836.752 415.151 839.759V853.42H410.397V840.384C410.397 838.553 409.905 837.147 408.923 836.165C407.956 835.168 406.698 834.669 405.151 834.669C404.392 834.669 403.677 834.781 403.008 835.004C402.353 835.227 401.743 835.569 401.177 836.031C400.612 836.492 400.165 837.125 399.838 837.928C399.51 838.732 399.347 839.662 399.347 840.719V853.42ZM428.992 838.553L436.046 830.695H441.671L432.653 840.674L442.162 853.42H436.492L428.858 843.129H426.447V853.42H421.737V819.132H426.447V838.553H428.992Z" fill="#0A2540"/>
<path d="M254.904 893.688L251.816 894.525C251.555 892.9 250.805 891.598 249.565 890.618C248.337 889.639 246.781 889.149 244.896 889.149C242.899 889.149 241.318 889.552 240.152 890.358C238.986 891.152 238.403 892.261 238.403 893.688C238.403 894.357 238.546 894.959 238.831 895.492C239.129 896.013 239.451 896.435 239.798 896.757C240.158 897.067 240.729 897.371 241.51 897.669C242.304 897.966 242.936 898.177 243.407 898.301C243.879 898.413 244.647 898.593 245.714 898.841C245.85 898.878 245.956 898.903 246.03 898.915C246.812 899.089 247.494 899.25 248.077 899.399C248.659 899.548 249.298 899.746 249.993 899.994C250.7 900.242 251.301 900.502 251.797 900.775C252.293 901.048 252.789 901.395 253.285 901.817C253.781 902.239 254.178 902.698 254.476 903.194C254.786 903.69 255.034 904.279 255.22 904.961C255.418 905.631 255.518 906.368 255.518 907.175C255.518 909.729 254.569 911.745 252.671 913.22C250.786 914.696 248.294 915.434 245.193 915.434C243.817 915.434 242.552 915.291 241.398 915.006C240.245 914.721 239.24 914.324 238.385 913.816C237.541 913.307 236.81 912.7 236.19 911.993C235.582 911.273 235.111 910.492 234.776 909.649C234.441 908.805 234.23 907.906 234.143 906.951L237.343 906.114C237.516 908.024 238.292 909.568 239.668 910.746C241.057 911.924 242.936 912.514 245.305 912.514C247.289 912.514 248.932 912.067 250.234 911.174C251.549 910.269 252.206 909.01 252.206 907.398C252.206 906.691 252.076 906.065 251.816 905.519C251.568 904.961 251.251 904.502 250.867 904.142C250.483 903.783 249.949 903.46 249.267 903.175C248.597 902.877 247.959 902.648 247.351 902.487C246.743 902.325 245.974 902.146 245.044 901.947C244.151 901.749 243.463 901.594 242.979 901.482C242.508 901.371 241.863 901.191 241.045 900.943C240.239 900.682 239.606 900.434 239.147 900.199C238.688 899.951 238.168 899.622 237.585 899.213C237.002 898.791 236.555 898.345 236.245 897.873C235.948 897.39 235.687 896.807 235.464 896.125C235.241 895.443 235.129 894.692 235.129 893.874C235.129 892.311 235.563 890.947 236.431 889.781C237.312 888.615 238.49 887.741 239.966 887.158C241.442 886.563 243.11 886.265 244.97 886.265C247.661 886.265 249.9 886.935 251.685 888.274C253.471 889.601 254.544 891.406 254.904 893.688ZM265.191 915.136H262.066V886.563H265.544L275.683 899.473L285.654 886.563H289.132V915.136H286.007V890.99L275.943 903.863H275.218L265.191 891.065V915.136ZM315.92 893.688L312.832 894.525C312.572 892.9 311.821 891.598 310.581 890.618C309.354 889.639 307.797 889.149 305.912 889.149C303.915 889.149 302.334 889.552 301.168 890.358C300.003 891.152 299.42 892.261 299.42 893.688C299.42 894.357 299.562 894.959 299.848 895.492C300.145 896.013 300.468 896.435 300.815 896.757C301.175 897.067 301.745 897.371 302.526 897.669C303.32 897.966 303.953 898.177 304.424 898.301C304.895 898.413 305.664 898.593 306.731 898.841C306.867 898.878 306.972 898.903 307.047 898.915C307.828 899.089 308.51 899.25 309.093 899.399C309.676 899.548 310.315 899.746 311.009 899.994C311.716 900.242 312.318 900.502 312.814 900.775C313.31 901.048 313.806 901.395 314.302 901.817C314.798 902.239 315.195 902.698 315.492 903.194C315.802 903.69 316.05 904.279 316.236 904.961C316.435 905.631 316.534 906.368 316.534 907.175C316.534 909.729 315.585 911.745 313.688 913.22C311.803 914.696 309.31 915.434 306.21 915.434C304.833 915.434 303.568 915.291 302.415 915.006C301.261 914.721 300.257 914.324 299.401 913.816C298.558 913.307 297.826 912.7 297.206 911.993C296.598 911.273 296.127 910.492 295.792 909.649C295.457 908.805 295.247 907.906 295.16 906.951L298.359 906.114C298.533 908.024 299.308 909.568 300.685 910.746C302.074 911.924 303.953 912.514 306.321 912.514C308.306 912.514 309.949 912.067 311.251 911.174C312.566 910.269 313.223 909.01 313.223 907.398C313.223 906.691 313.093 906.065 312.832 905.519C312.584 904.961 312.268 904.502 311.883 904.142C311.499 903.783 310.966 903.46 310.284 903.175C309.614 902.877 308.975 902.648 308.368 902.487C307.76 902.325 306.991 902.146 306.061 901.947C305.168 901.749 304.48 901.594 303.996 901.482C303.525 901.371 302.88 901.191 302.061 900.943C301.255 900.682 300.623 900.434 300.164 900.199C299.705 899.951 299.184 899.622 298.601 899.213C298.018 898.791 297.572 898.345 297.262 897.873C296.964 897.39 296.704 896.807 296.481 896.125C296.257 895.443 296.146 894.692 296.146 893.874C296.146 892.311 296.58 890.947 297.448 889.781C298.328 888.615 299.507 887.741 300.982 887.158C302.458 886.563 304.126 886.265 305.986 886.265C308.678 886.265 310.916 886.935 312.702 888.274C314.488 889.601 315.561 891.406 315.92 893.688ZM331.491 898.822C333.314 896.999 335.627 896.087 338.429 896.087C341.232 896.087 343.545 896.999 345.368 898.822C347.191 900.645 348.103 902.946 348.103 905.724C348.103 908.539 347.191 910.864 345.368 912.7C343.545 914.523 341.232 915.434 338.429 915.434C335.627 915.434 333.314 914.523 331.491 912.7C329.668 910.864 328.756 908.539 328.756 905.724C328.756 902.946 329.668 900.645 331.491 898.822ZM338.429 898.822C336.544 898.822 334.982 899.461 333.742 900.738C332.501 902.015 331.881 903.677 331.881 905.724C331.881 907.795 332.501 909.469 333.742 910.746C334.969 912.048 336.532 912.7 338.429 912.7C340.314 912.7 341.889 912.048 343.154 910.746C344.382 909.444 344.996 907.77 344.996 905.724C344.996 903.702 344.382 902.04 343.154 900.738C341.877 899.461 340.302 898.822 338.429 898.822ZM355.841 915.136H352.865V896.385H355.804L355.879 899.361C356.424 898.357 357.187 897.563 358.167 896.98C359.159 896.385 360.287 896.087 361.552 896.087C362.185 896.087 362.805 896.174 363.413 896.348L362.966 899.287C362.358 899.113 361.72 899.027 361.05 899.027C359.574 899.027 358.334 899.591 357.33 900.719C356.337 901.848 355.841 903.404 355.841 905.389V915.136ZM376.434 898.822C378.258 896.999 380.57 896.087 383.373 896.087C386.176 896.087 388.489 896.999 390.312 898.822C392.135 900.645 393.047 902.946 393.047 905.724C393.047 908.539 392.135 910.864 390.312 912.7C388.489 914.523 386.176 915.434 383.373 915.434C380.57 915.434 378.258 914.523 376.434 912.7C374.611 910.864 373.7 908.539 373.7 905.724C373.7 902.946 374.611 900.645 376.434 898.822ZM383.373 898.822C381.488 898.822 379.926 899.461 378.685 900.738C377.445 902.015 376.825 903.677 376.825 905.724C376.825 907.795 377.445 909.469 378.685 910.746C379.913 912.048 381.476 912.7 383.373 912.7C385.258 912.7 386.833 912.048 388.098 910.746C389.326 909.444 389.94 907.77 389.94 905.724C389.94 903.702 389.326 902.04 388.098 900.738C386.821 899.461 385.246 898.822 383.373 898.822ZM400.785 915.136H397.809V896.385H400.674L400.748 899.213C401.405 898.245 402.249 897.483 403.278 896.925C404.32 896.366 405.504 896.087 406.831 896.087C408.232 896.087 409.479 896.373 410.57 896.943C411.662 897.514 412.536 898.4 413.193 899.603C413.863 900.794 414.198 902.226 414.198 903.901V915.136H411.221V904.161C411.221 902.462 410.769 901.16 409.863 900.254C408.958 899.337 407.761 898.878 406.273 898.878C404.822 898.878 403.551 899.368 402.459 900.347C401.343 901.352 400.785 902.84 400.785 904.812V915.136ZM422.997 915.136H420.02V886.563H422.997V915.136ZM432.819 889.949C432.819 890.531 432.614 891.021 432.205 891.418C431.808 891.815 431.318 892.013 430.735 892.013C430.153 892.013 429.663 891.815 429.266 891.418C428.869 891.021 428.671 890.531 428.671 889.949C428.671 889.341 428.863 888.851 429.247 888.479C429.644 888.095 430.14 887.902 430.735 887.902C431.331 887.902 431.827 888.095 432.224 888.479C432.62 888.851 432.819 889.341 432.819 889.949ZM432.224 915.136H429.247V896.385H432.224V915.136ZM441.451 915.136H438.474V896.385H441.339L441.413 899.213C442.071 898.245 442.914 897.483 443.943 896.925C444.985 896.366 446.169 896.087 447.496 896.087C448.898 896.087 450.144 896.373 451.235 896.943C452.327 897.514 453.201 898.4 453.858 899.603C454.528 900.794 454.863 902.226 454.863 903.901V915.136H451.887V904.161C451.887 902.462 451.434 901.16 450.529 900.254C449.623 899.337 448.426 898.878 446.938 898.878C445.487 898.878 444.216 899.368 443.125 900.347C442.009 901.352 441.451 902.84 441.451 904.812V915.136ZM459.197 905.649C459.197 902.884 460.084 900.602 461.858 898.803C463.631 896.993 465.87 896.087 468.573 896.087C471.252 896.087 473.422 896.9 475.084 898.524C476.758 900.161 477.595 902.27 477.595 904.849C477.595 904.862 477.558 905.37 477.484 906.375H462.248C462.409 908.471 463.048 910.064 464.164 911.156C465.293 912.234 466.787 912.774 468.648 912.774C470.297 912.774 471.643 912.427 472.684 911.732C473.726 911.025 474.414 910.052 474.749 908.812L477.484 909.351C477.087 911.187 476.082 912.662 474.47 913.778C472.858 914.882 470.917 915.434 468.648 915.434C465.795 915.434 463.507 914.523 461.783 912.7C460.059 910.864 459.197 908.514 459.197 905.649ZM472.796 900.106C471.667 899.126 470.26 898.636 468.573 898.636C466.886 898.636 465.46 899.132 464.295 900.124C463.129 901.104 462.471 902.363 462.323 903.901H474.638C474.538 902.35 473.924 901.085 472.796 900.106ZM493.649 915.136H490.785V886.563H493.761V899.51C494.555 898.419 495.534 897.576 496.7 896.98C497.866 896.385 499.156 896.087 500.57 896.087C503.174 896.087 505.344 896.999 507.08 898.822C508.817 900.645 509.685 902.946 509.685 905.724C509.685 908.526 508.817 910.845 507.08 912.681C505.344 914.516 503.174 915.434 500.57 915.434C499.156 915.434 497.86 915.13 496.682 914.523C495.503 913.903 494.518 913.041 493.724 911.937L493.649 915.136ZM500.16 898.822C498.263 898.822 496.725 899.461 495.547 900.738C494.356 902.065 493.761 903.727 493.761 905.724C493.761 907.745 494.356 909.419 495.547 910.746C496.713 912.048 498.25 912.7 500.16 912.7C502.008 912.7 503.546 912.048 504.774 910.746C505.964 909.419 506.56 907.745 506.56 905.724C506.56 903.727 505.964 902.065 504.774 900.738C503.534 899.461 501.996 898.822 500.16 898.822ZM528.808 915.136H526.074L525.981 911.509C525.199 912.737 524.182 913.698 522.93 914.392C521.69 915.087 520.35 915.434 518.912 915.434C517.138 915.434 515.706 914.969 514.615 914.039C513.536 913.109 512.996 911.85 512.996 910.263C512.996 908.464 513.684 907.106 515.061 906.189C516.388 905.321 518.192 904.595 520.474 904.012L525.906 902.747C525.782 901.408 525.286 900.391 524.418 899.696C523.562 898.989 522.446 898.636 521.07 898.636C519.668 898.636 518.509 898.958 517.591 899.603C516.686 900.248 516.072 901.185 515.749 902.412L512.996 901.873C513.356 900.099 514.273 898.692 515.749 897.65C517.225 896.608 519.036 896.087 521.181 896.087C523.525 896.087 525.379 896.732 526.743 898.022C528.12 899.299 528.808 901.042 528.808 903.249V915.136ZM516.084 910.002C516.084 910.87 516.369 911.571 516.94 912.104C517.523 912.625 518.316 912.886 519.321 912.886C521.107 912.886 522.657 912.228 523.972 910.914C525.286 909.599 525.944 907.819 525.944 905.575V905.147L520.474 906.486C518.986 906.871 517.882 907.33 517.163 907.863C516.444 908.396 516.084 909.109 516.084 910.002ZM537.663 915.136H534.687V896.385H537.552L537.626 899.213C538.283 898.245 539.127 897.483 540.156 896.925C541.198 896.366 542.382 896.087 543.709 896.087C545.11 896.087 546.357 896.373 547.448 896.943C548.539 897.514 549.414 898.4 550.071 899.603C550.741 900.794 551.076 902.226 551.076 903.901V915.136H548.099V904.161C548.099 902.462 547.647 901.16 546.741 900.254C545.836 899.337 544.639 898.878 543.151 898.878C541.7 898.878 540.429 899.368 539.337 900.347C538.221 901.352 537.663 902.84 537.663 904.812V915.136ZM562.46 903.398L568.934 896.385H572.599L564.935 904.738L573.082 915.136H569.474L562.386 906.3H559.875V915.136H556.898V886.563H559.875V903.398H562.46ZM580.003 889.949C580.003 890.531 579.798 891.021 579.389 891.418C578.992 891.815 578.502 892.013 577.919 892.013C577.336 892.013 576.846 891.815 576.45 891.418C576.053 891.021 575.854 890.531 575.854 889.949C575.854 889.341 576.046 888.851 576.431 888.479C576.828 888.095 577.324 887.902 577.919 887.902C578.514 887.902 579.01 888.095 579.407 888.479C579.804 888.851 580.003 889.341 580.003 889.949ZM579.407 915.136H576.431V896.385H579.407V915.136ZM588.634 915.136H585.658V896.385H588.523L588.597 899.213C589.254 898.245 590.098 897.483 591.127 896.925C592.169 896.366 593.353 896.087 594.68 896.087C596.081 896.087 597.328 896.373 598.419 896.943C599.511 897.514 600.385 898.4 601.042 899.603C601.712 900.794 602.047 902.226 602.047 903.901V915.136H599.07V904.161C599.07 902.462 598.618 901.16 597.712 900.254C596.807 899.337 595.61 898.878 594.122 898.878C592.671 898.878 591.4 899.368 590.308 900.347C589.192 901.352 588.634 902.84 588.634 904.812V915.136ZM606.381 905.686C606.381 902.921 607.249 900.633 608.985 898.822C610.722 896.999 612.929 896.087 615.608 896.087C616.985 896.087 618.25 896.379 619.403 896.962C620.569 897.545 621.548 898.369 622.342 899.436L622.417 896.385H625.319V914.95C625.319 917.617 624.469 919.762 622.77 921.387C621.071 923.012 618.808 923.824 615.98 923.824C613.512 923.824 611.484 923.235 609.897 922.057C608.322 920.878 607.404 919.359 607.144 917.499L610.195 916.922C610.418 918.187 611.026 919.192 612.018 919.936C613.022 920.692 614.343 921.071 615.98 921.071C617.878 921.071 619.403 920.55 620.556 919.508C621.722 918.479 622.305 917.022 622.305 915.136V911.937C621.511 912.966 620.531 913.778 619.366 914.374C618.2 914.957 616.947 915.248 615.608 915.248C612.929 915.248 610.722 914.343 608.985 912.532C607.249 910.721 606.381 908.44 606.381 905.686ZM609.506 905.686C609.506 907.695 610.102 909.339 611.292 910.616C612.483 911.881 614.033 912.514 615.943 912.514C617.84 912.514 619.378 911.875 620.556 910.597C621.722 909.345 622.305 907.708 622.305 905.686C622.305 903.677 621.722 902.028 620.556 900.738C619.378 899.461 617.84 898.822 615.943 898.822C614.021 898.822 612.47 899.461 611.292 900.738C610.102 902.065 609.506 903.714 609.506 905.686Z" fill="#0A2540" fill-opacity="0.7"/>
<circle cx="148.24" cy="871.38" r="50.7989" fill="#21A038"/>
<path d="M161.453 852.031L167.379 847.663C161.962 843.276 155.201 840.889 148.231 840.901V840.905C144.232 840.901 140.271 841.687 136.575 843.217C133.236 844.6 130.173 846.566 127.528 849.021C124.489 851.829 122.055 855.229 120.375 859.013C118.648 862.903 117.757 867.113 117.761 871.37C117.761 871.375 117.761 871.381 117.761 871.387C117.758 875.389 118.545 879.351 120.077 883.048C121.441 886.339 123.371 889.362 125.777 891.98C128.606 895.071 132.043 897.545 135.874 899.246C139.651 900.922 143.728 901.81 147.858 901.857C147.985 901.859 148.113 901.86 148.242 901.86C152.243 901.864 156.206 901.077 159.903 899.545C163.133 898.207 166.104 896.322 168.687 893.977L168.692 893.982C171.853 891.127 174.38 887.64 176.108 883.747C177.835 879.853 178.725 875.639 178.72 871.38C178.724 869.548 178.564 867.72 178.241 865.918L171.681 870.753V871.38C171.683 874.655 170.996 877.894 169.666 880.886C168.494 883.523 166.846 885.917 164.807 887.949L164.804 887.946C164.566 888.186 164.322 888.42 164.074 888.648L163.96 888.752C161.974 890.555 159.691 892.005 157.209 893.036C154.366 894.215 151.319 894.822 148.242 894.82C147.874 894.82 147.505 894.812 147.139 894.794L147.069 894.789C144.195 894.646 141.369 893.976 138.734 892.804C136.098 891.633 133.704 889.985 131.672 887.947L131.676 887.943C129.496 885.771 127.766 883.19 126.586 880.347C125.407 877.505 124.8 874.457 124.802 871.38C124.802 871.361 124.802 871.343 124.802 871.324C124.803 871.067 124.808 870.81 124.816 870.555C124.921 867.563 125.599 864.615 126.817 861.874C127.989 859.239 129.636 856.846 131.673 854.814L131.677 854.818C133.849 852.637 136.43 850.906 139.273 849.726C142.116 848.546 145.164 847.94 148.242 847.942C148.634 847.942 149.024 847.956 149.412 847.975L149.412 847.969C153.717 848.182 157.886 849.584 161.453 852.031Z" fill="white"/>
<path d="M176.011 858.805C175.032 856.65 173.806 854.616 172.359 852.744L148.247 870.521L136.644 863.247V871.998L148.247 879.272L176.011 858.805Z" fill="white"/>
<circle cx="148.257" cy="871.905" r="52.0674" stroke="white" stroke-opacity="0.3" stroke-width="2.53987"/>
<defs>
<filter id="filter0_ddd_2386_7401" x="4.63678" y="5.37087" width="1175.84" height="148.34" filterUnits="userSpaceOnUse" color-interpolation-filters="sRGB">
<feFlood flood-opacity="0" result="BackgroundImageFix"/>
<feColorMatrix in="SourceAlpha" type="matrix" values="0 0 0 0 0 0 0 0 0 0 0 0 0 0 0 0 0 0 127 0" result="hardAlpha"/>
<feMorphology radius="2.55925" operator="dilate" in="SourceAlpha" result="effect1_dropShadow_2386_7401"/>
<feOffset dy="5.73422"/>
<feGaussianBlur stdDeviation="12.902"/>
<feColorMatrix type="matrix" values="0 0 0 0 0 0 0 0 0 0 0 0 0 0 0 0 0 0 0.08 0"/>
<feBlend mode="normal" in2="BackgroundImageFix" result="effect1_dropShadow_2386_7401"/>
<feColorMatrix in="SourceAlpha" type="matrix" values="0 0 0 0 0 0 0 0 0 0 0 0 0 0 0 0 0 0 127 0" result="hardAlpha"/>
<feOffset dy="5.1185"/>
<feGaussianBlur stdDeviation="5.1185"/>
<feColorMatrix type="matrix" values="0 0 0 0 0 0 0 0 0 0.0313726 0 0 0 0 0.196078 0 0 0 0.04 0"/>
<feBlend mode="normal" in2="effect1_dropShadow_2386_7401" result="effect2_dropShadow_2386_7401"/>
<feColorMatrix in="SourceAlpha" type="matrix" values="0 0 0 0 0 0 0 0 0 0 0 0 0 0 0 0 0 0 127 0" result="hardAlpha"/>
<feOffset/>
<feGaussianBlur stdDeviation="2.55925"/>
<feColorMatrix type="matrix" values="0 0 0 0 0 0 0 0 0 0.0313726 0 0 0 0 0.196078 0 0 0 0.08 0"/>
<feBlend mode="normal" in2="effect2_dropShadow_2386_7401" result="effect3_dropShadow_2386_7401"/>
<feBlend mode="normal" in="SourceGraphic" in2="effect3_dropShadow_2386_7401" result="shape"/>
</filter>
<filter id="filter1_ddd_2386_7401" x="4.63678" y="118.488" width="1175.84" height="148.34" filterUnits="userSpaceOnUse" color-interpolation-filters="sRGB">
<feFlood flood-opacity="0" result="BackgroundImageFix"/>
<feColorMatrix in="SourceAlpha" type="matrix" values="0 0 0 0 0 0 0 0 0 0 0 0 0 0 0 0 0 0 127 0" result="hardAlpha"/>
<feMorphology radius="2.55925" operator="dilate" in="SourceAlpha" result="effect1_dropShadow_2386_7401"/>
<feOffset dy="5.73422"/>
<feGaussianBlur stdDeviation="12.902"/>
<feColorMatrix type="matrix" values="0 0 0 0 0 0 0 0 0 0 0 0 0 0 0 0 0 0 0.08 0"/>
<feBlend mode="normal" in2="BackgroundImageFix" result="effect1_dropShadow_2386_7401"/>
<feColorMatrix in="SourceAlpha" type="matrix" values="0 0 0 0 0 0 0 0 0 0 0 0 0 0 0 0 0 0 127 0" result="hardAlpha"/>
<feOffset dy="5.1185"/>
<feGaussianBlur stdDeviation="5.1185"/>
<feColorMatrix type="matrix" values="0 0 0 0 0 0 0 0 0 0.0313726 0 0 0 0 0.196078 0 0 0 0.04 0"/>
<feBlend mode="normal" in2="effect1_dropShadow_2386_7401" result="effect2_dropShadow_2386_7401"/>
<feColorMatrix in="SourceAlpha" type="matrix" values="0 0 0 0 0 0 0 0 0 0 0 0 0 0 0 0 0 0 127 0" result="hardAlpha"/>
<feOffset/>
<feGaussianBlur stdDeviation="2.55925"/>
<feColorMatrix type="matrix" values="0 0 0 0 0 0 0 0 0 0.0313726 0 0 0 0 0.196078 0 0 0 0.08 0"/>
<feBlend mode="normal" in2="effect2_dropShadow_2386_7401" result="effect3_dropShadow_2386_7401"/>
<feBlend mode="normal" in="SourceGraphic" in2="effect3_dropShadow_2386_7401" result="shape"/>
</filter>
<filter id="filter2_ddd_2386_7401" x="0.752204" y="228.692" width="1184.34" height="294.139" filterUnits="userSpaceOnUse" color-interpolation-filters="sRGB">
<feFlood flood-opacity="0" result="BackgroundImageFix"/>
<feColorMatrix in="SourceAlpha" type="matrix" values="0 0 0 0 0 0 0 0 0 0 0 0 0 0 0 0 0 0 127 0" result="hardAlpha"/>
<feMorphology radius="2.55434" operator="dilate" in="SourceAlpha" result="effect1_dropShadow_2386_7401"/>
<feOffset dy="7.66302"/>
<feGaussianBlur stdDeviation="15.326"/>
<feColorMatrix type="matrix" values="0 0 0 0 0 0 0 0 0 0 0 0 0 0 0 0 0 0 0.08 0"/>
<feBlend mode="normal" in2="BackgroundImageFix" result="effect1_dropShadow_2386_7401"/>
<feColorMatrix in="SourceAlpha" type="matrix" values="0 0 0 0 0 0 0 0 0 0 0 0 0 0 0 0 0 0 127 0" result="hardAlpha"/>
<feOffset dy="5.10868"/>
<feGaussianBlur stdDeviation="5.10868"/>
<feColorMatrix type="matrix" values="0 0 0 0 0 0 0 0 0 0.0313726 0 0 0 0 0.196078 0 0 0 0.04 0"/>
<feBlend mode="normal" in2="effect1_dropShadow_2386_7401" result="effect2_dropShadow_2386_7401"/>
<feColorMatrix in="SourceAlpha" type="matrix" values="0 0 0 0 0 0 0 0 0 0 0 0 0 0 0 0 0 0 127 0" result="hardAlpha"/>
<feOffset/>
<feGaussianBlur stdDeviation="2.55434"/>
<feColorMatrix type="matrix" values="0 0 0 0 0 0 0 0 0 0.0313726 0 0 0 0 0.196078 0 0 0 0.04 0"/>
<feBlend mode="normal" in2="effect2_dropShadow_2386_7401" result="effect3_dropShadow_2386_7401"/>
<feBlend mode="normal" in="SourceGraphic" in2="effect3_dropShadow_2386_7401" result="shape"/>
</filter>
<filter id="filter3_ddd_2386_7401" x="0.752815" y="478.669" width="1183.41" height="294.139" filterUnits="userSpaceOnUse" color-interpolation-filters="sRGB">
<feFlood flood-opacity="0" result="BackgroundImageFix"/>
<feColorMatrix in="SourceAlpha" type="matrix" values="0 0 0 0 0 0 0 0 0 0 0 0 0 0 0 0 0 0 127 0" result="hardAlpha"/>
<feMorphology radius="2.55434" operator="dilate" in="SourceAlpha" result="effect1_dropShadow_2386_7401"/>
<feOffset dy="7.66302"/>
<feGaussianBlur stdDeviation="15.326"/>
<feColorMatrix type="matrix" values="0 0 0 0 0 0 0 0 0 0 0 0 0 0 0 0 0 0 0.08 0"/>
<feBlend mode="normal" in2="BackgroundImageFix" result="effect1_dropShadow_2386_7401"/>
<feColorMatrix in="SourceAlpha" type="matrix" values="0 0 0 0 0 0 0 0 0 0 0 0 0 0 0 0 0 0 127 0" result="hardAlpha"/>
<feOffset dy="5.10868"/>
<feGaussianBlur stdDeviation="5.10868"/>
<feColorMatrix type="matrix" values="0 0 0 0 0 0 0 0 0 0.0313726 0 0 0 0 0.196078 0 0 0 0.04 0"/>
<feBlend mode="normal" in2="effect1_dropShadow_2386_7401" result="effect2_dropShadow_2386_7401"/>
<feColorMatrix in="SourceAlpha" type="matrix" values="0 0 0 0 0 0 0 0 0 0 0 0 0 0 0 0 0 0 127 0" result="hardAlpha"/>
<feOffset/>
<feGaussianBlur stdDeviation="2.55434"/>
<feColorMatrix type="matrix" values="0 0 0 0 0 0 0 0 0 0.0313726 0 0 0 0 0.196078 0 0 0 0.04 0"/>
<feBlend mode="normal" in2="effect2_dropShadow_2386_7401" result="effect3_dropShadow_2386_7401"/>
<feBlend mode="normal" in="SourceGraphic" in2="effect3_dropShadow_2386_7401" result="shape"/>
</filter>
<filter id="filter4_ddd_2386_7401" x="0.752815" y="730.652" width="1183.41" height="294.139" filterUnits="userSpaceOnUse" color-interpolation-filters="sRGB">
<feFlood flood-opacity="0" result="BackgroundImageFix"/>
<feColorMatrix in="SourceAlpha" type="matrix" values="0 0 0 0 0 0 0 0 0 0 0 0 0 0 0 0 0 0 127 0" result="hardAlpha"/>
<feMorphology radius="2.55434" operator="dilate" in="SourceAlpha" result="effect1_dropShadow_2386_7401"/>
<feOffset dy="7.66302"/>
<feGaussianBlur stdDeviation="15.326"/>
<feColorMatrix type="matrix" values="0 0 0 0 0.0392157 0 0 0 0 0.145098 0 0 0 0 0.25098 0 0 0 0.08 0"/>
<feBlend mode="normal" in2="BackgroundImageFix" result="effect1_dropShadow_2386_7401"/>
<feColorMatrix in="SourceAlpha" type="matrix" values="0 0 0 0 0 0 0 0 0 0 0 0 0 0 0 0 0 0 127 0" result="hardAlpha"/>
<feOffset dy="5.10868"/>
<feGaussianBlur stdDeviation="5.10868"/>
<feColorMatrix type="matrix" values="0 0 0 0 0.0392157 0 0 0 0 0.145098 0 0 0 0 0.25098 0 0 0 0.04 0"/>
<feBlend mode="normal" in2="effect1_dropShadow_2386_7401" result="effect2_dropShadow_2386_7401"/>
<feColorMatrix in="SourceAlpha" type="matrix" values="0 0 0 0 0 0 0 0 0 0 0 0 0 0 0 0 0 0 127 0" result="hardAlpha"/>
<feOffset/>
<feGaussianBlur stdDeviation="2.55434"/>
<feColorMatrix type="matrix" values="0 0 0 0 0.0392157 0 0 0 0 0.145098 0 0 0 0 0.25098 0 0 0 0.04 0"/>
<feBlend mode="normal" in2="effect2_dropShadow_2386_7401" result="effect3_dropShadow_2386_7401"/>
<feBlend mode="normal" in="SourceGraphic" in2="effect3_dropShadow_2386_7401" result="shape"/>
</filter>
<clipPath id="clip0_2386_7401">
<rect width="101.595" height="101.595" fill="white" transform="translate(97.4512 318.628)"/>
</clipPath>
<clipPath id="clip1_2386_7401">
<rect x="96.4548" y="567.308" width="103.018" height="103.018" rx="50.0781" fill="white"/>
</clipPath>
</defs>
</svg>
