<svg width="306" height="204" viewBox="0 0 306 204" fill="none" xmlns="http://www.w3.org/2000/svg">
<path fill-rule="evenodd" clip-rule="evenodd" d="M221.184 65.9582L223 60.1322L216.989 60.3222C216.482 60.3222 212.791 60.2152 209.209 57.6162C209.477 57.6382 209.742 57.6782 210.017 57.6782C213.703 57.6782 217.273 55.4552 218.701 52.2722L221.286 46.5262C218.042 46.5692 215.078 46.1582 215.078 46.1582C215.053 46.1572 212.716 45.8532 210.015 43.0872C208.078 41.1072 205.68 40.0572 203.083 40.0572C202.054 40.0615 201.033 40.2248 200.054 40.5412C200.192 40.0742 200.318 39.6022 200.396 39.1152C201.22 33.7372 197.768 29.6372 197.767 29.6402L193.244 24.0312L190.442 30.6212C190.433 30.6412 189.723 32.1862 188.459 32.9392C188.078 31.0022 187.138 28.8252 185.133 26.7442C181.351 22.8222 176.747 22.2342 174.339 22.2342C173.222 22.2342 172.424 22.3582 172.232 22.3892L166.775 23.4642C167.09 22.2442 167.762 20.1142 168.988 18.2002L171.998 13.5022L164.422 14.3642L162.007 9.23019L157.334 11.6442L153.011 7.36719L148.702 11.6442L144.017 9.23019L141.609 14.3642L134.035 13.4982L137.051 18.2022C138.278 20.1132 138.946 22.2382 139.258 23.4552L134.05 22.4272L133.872 22.3992C133.153 22.2861 132.425 22.231 131.697 22.2342C129.289 22.2342 124.688 22.8222 120.913 26.7422C118.905 28.8222 117.963 31.0022 117.579 32.9392C116.322 32.1932 115.619 30.6722 115.619 30.6722L112.811 24.0452L108.22 29.6892C107.657 30.4152 104.89 34.2712 105.642 39.1222C105.72 39.6062 105.846 40.0742 105.981 40.5412C105.005 40.2236 103.985 40.0603 102.958 40.0572C100.36 40.0572 97.962 41.1072 96.021 43.0872C93.327 45.8412 91.005 46.1532 91.025 46.1532C91.025 46.1532 88.566 46.5972 84.765 46.5262L87.335 52.2722C88.767 55.4552 92.339 57.6782 96.018 57.6782C96.294 57.6782 96.559 57.6382 96.831 57.6162C93.258 60.2162 89.567 60.3232 89.121 60.3252L83 60.1322L84.854 65.9562C85.789 68.9582 88.905 73.9312 94.874 74.4662C94.226 77.1932 92.787 80.2512 89.626 81.5662L85.064 83.4472L87.552 87.7872C88.954 90.1272 92.25 92.8632 96.94 92.8632C97.928 92.8625 98.9132 92.7596 99.88 92.5562C100.121 93.6252 100.422 94.6962 100.779 95.7602C102.174 99.9262 100.971 102.829 100.959 102.862L98.706 107.586L103.732 108.913C103.794 108.932 105.313 109.352 107.214 109.352C108.074 109.352 108.902 109.262 109.672 109.076C110.247 108.942 110.811 108.762 111.358 108.538C112.004 109.7 112.798 110.773 113.72 111.73C116.94 115.041 121.505 116.718 127.284 116.718H127.303L131.431 116.664L122.904 120.216L129.378 123.35C131.73 124.498 134.518 125.856 137.359 126.895L136.55 129.11L138.78 130.13C138.979 130.22 143.271 132.141 150.402 132.551C150.402 132.551 152.123 132.631 153.072 132.631C154.019 132.631 155.721 132.546 155.721 132.546C162.805 132.126 167.062 130.22 167.261 130.13L169.498 129.108L168.683 126.89C171.602 125.82 174.495 124.408 176.749 123.305L183.103 120.212L174.604 116.664L178.748 116.718C184.536 116.718 189.102 115.039 192.317 111.724C193.239 110.77 194.033 109.699 194.676 108.538C195.218 108.759 195.784 108.939 196.369 109.08C197.138 109.262 197.964 109.352 198.824 109.352C200.692 109.352 202.228 108.937 202.268 108.923L207.316 107.586L205.118 102.949C205.066 102.829 203.862 99.9262 205.258 95.7562C205.613 94.6932 205.912 93.6232 206.156 92.5562C207.103 92.7572 208.092 92.8602 209.115 92.8632C215.092 92.8632 217.957 88.6532 218.511 87.7382L220.973 83.4442L216.414 81.5692C213.244 80.2512 211.807 77.1952 211.165 74.4702C217.057 73.9572 220.216 68.9802 221.184 65.9582Z" fill="#FFFFFE"/>
<path fill-rule="evenodd" clip-rule="evenodd" d="M153.011 25.21C148.183 25.215 144.561 26.799 143.775 28.665L153.011 32.318L162.251 28.665C161.469 26.799 157.847 25.215 153.011 25.21ZM153.11 121.88H152.924C149.999 121.899 145.966 121.299 144.029 120.73L141.692 127.061C143.231 127.61 148.449 128.663 153.021 128.663C157.585 128.663 162.805 127.61 164.342 127.061L162.01 120.73C160.062 121.299 156.036 121.899 153.11 121.88ZM170.783 115.581C169.045 116.567 165.163 118.048 162.907 118.734L164.801 123.964C168.293 123.008 171.178 121.893 173.557 120.696L169.623 119.387L170.783 115.581ZM135.249 115.581L136.412 119.387L132.475 120.696C134.85 121.893 137.747 123.008 141.227 123.964L143.124 118.734C140.872 118.048 136.985 116.567 135.249 115.581ZM153.012 19.157C156.653 19.157 160.221 20.029 162.967 21.561C163.218 20.72 163.569 19.696 164.045 18.623L163.005 18.748L161.918 18.862L161.457 17.868L160.067 14.93L157.537 16.252L156.551 16.753L155.763 15.976L153.012 13.25L150.266 15.976L149.482 16.753L148.497 16.252L145.952 14.93L144.582 17.868L144.111 18.862L143.024 18.748L141.989 18.623C142.409 19.5792 142.769 20.5604 143.067 21.561C145.824 20.029 149.388 19.157 153.012 19.157ZM208.588 53.114C209.06 53.277 209.54 53.35 210.016 53.35C212.076 53.35 214.066 52.015 214.749 50.49C214.749 50.49 210.975 50.261 206.915 46.132C205.622 44.794 204.254 44.394 203.081 44.394C201.258 44.394 199.89 45.356 199.89 45.356C204.795 47.973 205.795 52.169 208.588 53.114ZM96.0152 53.35C96.4912 53.35 96.9722 53.277 97.4352 53.112C100.234 52.169 101.243 47.973 106.141 45.358C106.141 45.358 104.77 44.394 102.957 44.394C101.776 44.394 100.41 44.794 99.1122 46.134C95.0572 50.261 91.2852 50.492 91.2852 50.492C91.9622 52.015 93.9562 53.35 96.0152 53.35Z" fill="#FFFFFE"/>
<path fill-rule="evenodd" clip-rule="evenodd" d="M207.108 83.2424C203.315 81.3674 200.917 76.3924 200.339 74.6024C199.709 84.4664 194.903 91.3104 189.285 97.9014C186.369 101.317 185.351 104.639 185.351 104.639C185.351 104.639 185.914 100.875 188.435 97.8124C193.677 91.5044 198.66 83.6484 199.03 74.5664C199.285 68.2264 197.659 63.0864 195.119 58.8504C196.54 63.2624 196.338 68.6644 191.516 73.7084C191.516 73.7084 201.118 62.1834 187.694 50.3674C182.323 45.8694 176.442 43.0934 173.417 41.1264C184.35 44.6994 189.69 40.7664 189.69 40.7664C186.2 43.7974 181.679 43.7454 178.874 43.3084C179.636 43.6794 180.427 44.0684 181.277 44.5254C190.497 49.5414 198.781 57.7954 200.193 69.2254V69.1384C202.337 80.3614 207.108 83.2424 207.108 83.2424ZM209.916 70.1654C210.001 70.1704 210.074 70.1704 210.16 70.1704C215.299 70.1704 217.041 64.6564 217.041 64.6564H216.94C215.997 64.6564 208.356 64.4344 202.955 57.5574C199.402 53.0364 196.487 49.0614 190.734 47.4974L190.168 47.3964L190.045 46.8184C189.885 45.9384 190.49 45.1124 191.856 44.2224C199.797 39.0144 194.402 32.3694 194.402 32.3694C194.402 32.3694 192.136 37.6824 187.063 37.6824C186.94 37.6824 186.812 37.6754 186.686 37.6754C186.111 37.6454 185.554 37.6254 184.995 37.5054L184.06 37.3234C184.06 37.3234 185.507 33.3804 182.015 29.7634C179.385 27.0314 176.186 26.5664 174.338 26.5664C173.407 26.5664 172.817 26.6864 172.817 26.6864C174.57 28.9824 175.838 32.7944 173.814 35.1464C172.064 37.1664 167.789 37.2644 167.789 40.2764C167.789 41.5534 168.978 43.0414 171.115 44.3784C177.54 48.4314 183.918 53.8114 186.572 61.0194C189.885 70.0094 186.151 75.9794 180.822 79.4004C180.822 79.4004 182.495 80.9424 184.917 81.1404C185.412 81.1874 185.893 81.2104 186.341 81.2104C191.459 81.2104 194.106 78.8054 194.106 78.8054C194.106 78.8054 193.668 82.1274 191.007 85.2104C188.549 88.0564 185.327 89.7354 180.405 89.8054C180.405 89.8054 180.251 92.0904 182.429 94.0714C183.824 95.3204 187.041 95.7264 187.041 95.7264C187.041 95.7264 181.014 96.9504 180.35 105.868C179.988 110.7 178.755 112.379 178.755 112.379H178.862C192.849 112.379 192.491 100.362 192.491 100.362C192.491 100.362 193.464 103.921 197.366 104.849C197.842 104.967 198.331 105.025 198.821 105.02C200.076 105.02 201.168 104.724 201.168 104.724C201.168 104.724 199.124 100.407 201.151 94.3684C202.832 89.3554 202.562 85.6424 202.562 85.6424C202.562 85.6424 204.444 88.4974 209.118 88.5224H209.165C213.055 88.5224 214.75 85.5694 214.75 85.5694C205.425 81.6894 206.346 69.1744 206.346 69.1744C206.346 69.1744 207.557 70.0814 209.916 70.1654ZM116.745 97.9014C111.127 91.3104 106.323 84.4664 105.688 74.6014C105.108 76.3934 102.719 81.3674 98.9283 83.2414C98.9283 83.2414 103.693 80.3614 105.835 69.1384V69.2254C107.253 57.7974 115.535 49.5414 124.756 44.5274C125.601 44.0664 126.399 43.6794 127.156 43.3104C124.353 43.7454 119.832 43.7974 116.344 40.7654C116.344 40.7654 121.683 44.6994 132.613 41.1264C129.588 43.0944 123.712 45.8694 118.342 50.3664C104.914 62.1834 114.517 73.7104 114.517 73.7104C109.689 68.6644 109.495 63.2634 110.914 58.8504C108.371 63.0874 106.746 68.2264 107.007 74.5664C107.374 83.6484 112.355 91.5034 117.587 97.8144C120.12 100.875 120.689 104.637 120.689 104.637C120.689 104.637 119.659 101.317 116.745 97.9014ZM118.993 95.7264C118.993 95.7264 122.211 95.3224 123.608 94.0694C125.784 92.0914 125.629 89.8054 125.629 89.8054C120.707 89.7354 117.486 88.0564 115.014 85.2124C112.369 82.1274 111.929 78.8054 111.929 78.8054C111.929 78.8054 114.574 81.2094 119.685 81.2094C120.144 81.2094 120.622 81.1874 121.115 81.1394C123.541 80.9424 125.218 79.4024 125.218 79.4024C119.884 75.9784 116.148 70.0104 119.458 61.0194C122.112 53.8134 128.489 48.4314 134.917 44.3764C137.05 43.0414 138.239 41.5534 138.239 40.2764C138.239 37.2644 133.97 37.1664 132.221 35.1464C130.197 32.7944 131.465 28.9824 133.215 26.6864C133.215 26.6864 132.632 26.5664 131.695 26.5664C129.849 26.5664 126.652 27.0314 124.022 29.7624C120.523 33.3804 121.974 37.3224 121.974 37.3224L121.039 37.5054C120.482 37.6234 119.919 37.6454 119.346 37.6764C119.214 37.6764 119.098 37.6824 118.975 37.6824C113.889 37.6824 111.635 32.3714 111.635 32.3714C111.635 32.3714 106.243 39.0144 114.181 44.2214C115.547 45.1114 116.148 45.9394 115.989 46.8184L115.866 47.3944L115.289 47.4964C109.545 49.0614 106.628 53.0364 103.07 57.5584C97.6723 64.4324 90.0423 64.6564 89.0923 64.6564H88.9883C88.9883 64.6564 90.7303 70.1704 95.8713 70.1704C95.9533 70.1704 96.0293 70.1704 96.1163 70.1654C98.4793 70.0804 99.6913 69.1754 99.6913 69.1754C99.6913 69.1754 100.605 81.6894 91.2843 85.5674C91.2843 85.5674 92.9823 88.5254 96.8703 88.5254H96.9173C101.593 88.4974 103.473 85.6424 103.473 85.6424C103.473 85.6424 103.202 89.3574 104.877 94.3684C106.905 100.409 104.871 104.725 104.871 104.725C104.871 104.725 105.958 105.02 107.213 105.02C107.699 105.02 108.198 104.972 108.666 104.849C112.563 103.921 113.539 100.362 113.539 100.362C113.539 100.362 113.182 112.379 127.171 112.379H127.272C127.272 112.379 126.048 110.7 125.687 105.867C125.024 96.9504 118.993 95.7264 118.993 95.7264ZM149.856 51.4424H156.451V53.7084C155.675 52.7564 154.165 52.9504 154.165 52.9504V56.2184C154.165 56.2184 154.221 57.8264 154.785 58.5214H151.522C152.093 57.8264 152.143 56.2184 152.143 56.2184V52.9504C152.143 52.9504 150.639 52.7564 149.856 53.7084V51.4424ZM142.671 51.7824C142.902 52.0284 143.127 52.2954 143.345 52.5654C143.397 52.6284 143.444 52.6834 143.495 52.7564C143.696 53.0234 143.899 53.3084 144.095 53.5974C144.138 53.6554 144.179 53.7244 144.226 53.7904C144.46 54.1454 144.681 54.5114 144.901 54.8904C146.92 58.3794 150.147 60.4644 153.012 60.4694C155.881 60.4644 159.105 58.3794 161.129 54.8894C161.352 54.5014 161.579 54.1264 161.812 53.7744C161.847 53.7244 161.885 53.6724 161.916 53.6204C162.155 53.2624 162.408 52.9141 162.675 52.5764C162.9 52.2954 163.132 52.0244 163.369 51.7734C163.409 51.7334 163.443 51.6954 163.481 51.6624C164.51 50.6074 165.734 49.8044 167.339 49.3604L166.624 48.9424H166.584L163.745 47.2924L160.827 45.6184L153.033 49.8684L153.012 49.8514L152.998 49.8684L145.203 45.6184L142.287 47.2914L139.443 48.9424H139.41L138.689 49.3604C140.294 49.8044 141.515 50.5994 142.547 51.6554C142.592 51.6954 142.623 51.7424 142.671 51.7824Z" fill="#FFFFFE"/>
<path fill-rule="evenodd" clip-rule="evenodd" d="M150.529 37.0362V39.1692L150.121 38.9822C150.102 38.9662 149.501 38.8322 148.455 38.0002C146.729 36.6602 146.695 35.4212 146.695 35.4212L150.529 37.0362ZM152.339 47.0462V33.7762L143.907 30.9102L146.13 43.7692L152.339 47.0462ZM155.503 37.0362L159.338 35.4222C159.338 35.4222 159.305 36.6602 157.572 38.0002C156.53 38.8312 155.929 38.9662 155.908 38.9822L155.503 39.1692V37.0362ZM159.899 43.7692L162.115 30.9102L153.689 33.7762V47.0462L159.899 43.7692ZM140.415 77.8062C141.234 78.1052 142.231 78.1672 142.742 78.1672C142.761 78.1052 142.789 78.0272 142.813 77.9312C142.858 77.7812 142.901 77.6292 142.933 77.4652C143.076 76.7292 143.126 75.8992 143.139 75.3612C142.794 75.1442 142.304 74.7632 142.031 74.1912C141.719 73.5312 141.271 73.2232 140.62 73.2232C139.771 73.2232 138.862 73.7342 138.469 73.9732C138.159 75.8082 139.51 77.4722 140.415 77.8062ZM159.065 70.7682C157.499 72.4752 154.432 75.4442 154.284 75.5922L154.099 75.7792L144.414 75.6262C144.406 76.4285 144.301 77.227 144.101 78.0042C144.077 78.1032 144.049 78.2072 144.023 78.3112L155.543 80.3872C156.741 79.5472 160.039 77.1332 161.322 76.1882C160.391 74.8252 160.302 73.2082 160.512 72.0712C159.959 71.7221 159.47 71.2815 159.065 70.7682Z" fill="#FFFFFE"/>
<path fill-rule="evenodd" clip-rule="evenodd" d="M160.376 59.0997C158.145 61.3157 156.005 62.1397 154.094 62.3277C153.744 62.3647 153.394 62.3877 153.039 62.3877H152.991C152.634 62.3877 152.281 62.3647 151.936 62.3277C151.587 62.2966 151.241 62.2422 150.899 62.1647C150.775 62.6647 150.615 63.7047 151.069 64.6947C151.474 65.5907 152.296 66.2567 153.496 66.7027L153.9 66.8597L153.907 67.2957C153.907 67.4237 154.002 70.2477 157.071 71.0317C157.573 70.5147 158.029 70.0457 158.366 69.6547C157.74 68.1747 158.069 66.6647 158.979 65.9247C158.939 66.0817 158.539 69.7857 161.503 71.1627L161.992 71.3957L161.846 71.9157C161.798 72.0717 160.809 75.6587 164.4 76.9927L165.035 77.2327L164.753 77.8507C164.691 77.9877 163.283 81.2407 166.599 83.0887H173.787V77.3697C171.23 77.0567 170.149 74.9987 169.869 73.5417C168.68 73.3367 167.762 72.8237 167.13 71.9857C165.622 69.9957 166.919 68.1737 166.936 68.0757C166.933 68.0907 166.936 70.0297 168.131 71.2277C168.725 71.8037 169.424 72.2527 170.485 72.3537L171.008 72.4007L171.053 72.9367C171.062 73.0487 171.349 75.6767 173.787 76.0877L173.782 64.4067C173.782 62.5977 174.308 60.7787 174.942 59.0977H160.376V59.0997ZM141.028 64.4507L140.833 71.8887L141.678 72.0187L143.741 64.8817L142.694 62.6857L141.028 64.4507ZM145.498 91.9857C145.442 91.9838 145.386 91.9705 145.335 91.9465C145.284 91.9225 145.238 91.8883 145.2 91.8459C145.163 91.8036 145.134 91.7541 145.117 91.7004C145.099 91.6467 145.092 91.59 145.097 91.5337C145.101 91.4781 145.115 91.4238 145.14 91.3739C145.165 91.324 145.199 91.2795 145.241 91.2431C145.283 91.2066 145.332 91.1788 145.385 91.1614C145.438 91.144 145.494 91.1373 145.549 91.1417C145.662 91.1481 145.768 91.1989 145.844 91.2829C145.92 91.367 145.959 91.4776 145.954 91.5907C145.945 91.7032 145.892 91.8076 145.807 91.8815C145.722 91.9554 145.611 91.9928 145.498 91.9857ZM163.779 98.5697C163.843 98.5697 163.914 98.5787 163.983 98.5957C165.268 98.9637 165.592 103.6 167.844 104.013C168.066 104.059 168.268 104.073 168.446 104.073C169.099 104.073 169.487 103.796 169.906 103.3C169.906 103.3 168.772 101.517 167.925 100.311C166.798 98.7367 165.926 96.8337 163.829 96.8337C163.779 96.8337 163.718 96.8337 163.666 96.8407C162.977 96.8757 162.551 97.2137 162.551 97.2137C161.701 96.6777 160.91 96.4977 160.197 96.4977C158.885 96.4977 157.863 97.1007 157.351 97.1007H157.332L152.65 96.6377C151.92 96.5667 151.34 95.8277 151.132 95.5397L151.051 95.4147C151.051 95.2867 151.051 95.1567 151.044 95.0407C150.886 91.2057 147.922 89.5647 146.866 89.5387C146.866 89.5387 146.991 88.8087 146.707 88.5317L145.671 89.7867L142.287 88.0837L144.704 90.9127L142.657 93.2137C142.399 93.4757 142.432 93.8297 142.54 93.9807L143.423 94.7627L144.544 94.0817C144.6 94.0397 144.704 94.0257 144.827 94.0257C145.136 94.0257 145.602 94.1077 146.019 94.1077C146.478 94.1077 146.871 94.0097 146.92 93.5797C146.779 95.0017 145.462 97.4717 146.326 99.4147L146.968 100.88L142.829 100.284L140.891 103.56C140.294 104.651 140.201 105.83 140.775 106.474L141.499 107.381C141.499 107.381 142.517 106.302 142.744 105.591L142.415 105.228C142.138 104.923 142.152 104.651 142.321 104.323L143.537 102.304L148.421 103.458L148.679 103.017C149.011 102.464 149.489 102.301 150.012 102.301C150.228 102.301 150.448 102.327 150.678 102.363C151.585 102.542 153.078 102.783 154.57 102.783C156.206 102.783 157.832 102.49 158.699 101.517C160.469 104.144 164.054 104.562 163.772 105.898L162.827 110.4C163.429 110.379 164.029 110.33 164.625 110.253L165.524 105.57C165.623 105.058 165.716 104.373 165.716 104.373C165.372 104.021 164.534 103.279 164.061 102.375C163.429 101.158 163.772 100.521 163.183 98.9377C163.183 98.9377 163.365 98.5697 163.779 98.5697Z" fill="#FFFFFE"/>
<path fill-rule="evenodd" clip-rule="evenodd" d="M138.828 102.829C138.828 102.829 140.449 102.161 140.592 101.686L140.376 101.144C140.222 100.791 140.243 100.409 140.54 100.203L142.287 98.9901L145.206 99.5541C145.206 99.5541 144.678 98.8901 144.73 98.0051L141.943 97.4141L139.315 99.0181C138.188 99.8611 138.106 101.242 138.478 102.06L138.828 102.829Z" fill="#FFFFFE"/>
<path fill-rule="evenodd" clip-rule="evenodd" d="M145.498 91.9879C145.442 91.9861 145.386 91.9728 145.335 91.9488C145.284 91.9247 145.238 91.8905 145.2 91.8482C145.163 91.8059 145.134 91.7564 145.117 91.7027C145.099 91.649 145.092 91.5923 145.097 91.5359C145.101 91.4804 145.115 91.4261 145.14 91.3762C145.165 91.3263 145.199 91.2818 145.241 91.2454C145.283 91.2089 145.332 91.1811 145.385 91.1637C145.438 91.1463 145.494 91.1396 145.549 91.1439C145.662 91.1504 145.768 91.2012 145.844 91.2852C145.92 91.3693 145.959 91.4799 145.954 91.5929C145.945 91.7055 145.892 91.8099 145.807 91.8838C145.722 91.9577 145.611 91.9951 145.498 91.9879ZM163.779 98.5719C163.843 98.5719 163.914 98.5809 163.983 98.5979C165.268 98.9659 165.592 103.602 167.844 104.014C168.066 104.061 168.268 104.075 168.446 104.075C169.099 104.075 169.487 103.798 169.906 103.302C169.906 103.302 168.772 101.519 167.925 100.313C166.798 98.7379 165.926 96.8359 163.829 96.8359C163.779 96.8359 163.718 96.8359 163.666 96.8429C162.977 96.8779 162.551 97.2159 162.551 97.2159C161.701 96.6799 160.91 96.4989 160.197 96.4989C158.885 96.4989 157.863 97.1029 157.351 97.1029H157.332L152.65 96.6399C151.92 96.5689 151.34 95.8299 151.132 95.5419L151.051 95.4169C151.051 95.2889 151.051 95.1589 151.044 95.0419C150.886 91.2079 147.922 89.5669 146.866 89.5419C146.866 89.5419 146.991 88.8109 146.707 88.5329L145.671 89.7889L142.287 88.0859L144.704 90.9149L142.657 93.2159C142.399 93.4779 142.432 93.8319 142.54 93.9829L143.423 94.7649L144.544 94.0829C144.6 94.0419 144.704 94.0279 144.827 94.0279C145.136 94.0279 145.602 94.1099 146.019 94.1099C146.478 94.1099 146.871 94.0119 146.92 93.5819C146.779 95.0039 145.462 97.4739 146.326 99.4169L146.968 100.882L142.829 100.286L140.891 103.562C140.294 104.653 140.201 105.832 140.775 106.476L141.499 107.383C141.499 107.383 142.517 106.304 142.744 105.593L142.415 105.23C142.138 104.925 142.152 104.653 142.321 104.325L143.537 102.306L148.421 103.459L148.679 103.019C149.011 102.466 149.489 102.303 150.012 102.303C150.228 102.303 150.448 102.329 150.678 102.365C151.585 102.544 153.078 102.785 154.57 102.785C156.206 102.785 157.832 102.492 158.699 101.519C160.469 104.146 164.054 104.564 163.772 105.9L162.827 110.402C163.429 110.381 164.028 110.331 164.625 110.255L165.524 105.572C165.623 105.06 165.716 104.375 165.716 104.375C165.372 104.023 164.534 103.281 164.061 102.377C163.429 101.16 163.772 100.523 163.183 98.9399C163.183 98.9399 163.365 98.5719 163.779 98.5719Z" fill="#FFFFFE"/>
<path fill-rule="evenodd" clip-rule="evenodd" d="M138.828 102.829C138.828 102.829 140.449 102.161 140.592 101.686L140.376 101.144C140.222 100.791 140.243 100.409 140.54 100.203L142.287 98.9901L145.206 99.5541C145.206 99.5541 144.678 98.8901 144.73 98.0051L141.943 97.4141L139.315 99.0181C138.188 99.8611 138.106 101.242 138.478 102.06L138.828 102.829ZM159.484 110.459C160.005 110.438 160.585 110.429 161.217 110.429C161.217 110.429 162.72 106.026 162.805 105.887C161.963 105.514 160.213 104.584 159.538 104.16C159.986 104.829 161.068 105.59 160.854 106.18L159.484 110.459Z" fill="#FFFFFE"/>
<path fill-rule="evenodd" clip-rule="evenodd" d="M173.788 84.3487H132.248V100.002C132.248 106.405 136.872 110.412 143.697 110.412C149.396 110.412 150.9 110.635 153.021 112.743C154.482 111.282 155.691 110.738 158.173 110.535L158.232 110.292L159.541 106.237C159.468 106.145 157.327 103.71 157.327 103.71C156.479 103.993 155.765 104.04 154.569 104.04C153.338 104.04 151.953 103.896 150.445 103.613C150.303 103.579 150.158 103.563 150.012 103.563C149.827 103.563 149.815 103.578 149.766 103.668L149.507 104.099L149.031 104.888L148.134 104.68L144.147 103.74L143.6 104.643L143.681 104.74L144.166 105.276L143.951 105.973C143.657 106.886 142.706 107.951 142.415 108.245L141.42 109.316L140.511 108.166L139.829 107.309C139.112 106.504 138.946 105.276 139.349 103.986C139.337 103.995 139.323 104 139.309 104.001L138.186 104.468L137.68 103.367L137.325 102.586C136.982 101.79 136.92 100.902 137.15 100.067C137.379 99.2318 137.886 98.4998 138.588 97.9917L141.796 96.1757L144.85 96.7777C144.922 96.4847 145.031 95.4337 145.12 95.1667C145.059 95.1597 145.005 95.1457 144.945 95.1457L143.186 95.8047L141.487 94.6307C141.487 94.6307 140.824 93.9907 141.427 93.3507L143.068 90.8567L138.904 85.6207L145.303 88.2527L145.731 87.7257L146.593 86.6887L147.575 87.6237C147.852 87.8907 148.011 88.2207 148.089 88.5497C149.851 89.2387 153.013 91.2677 153.291 94.5677L152.303 94.9637V94.9877C152.53 95.2567 152.716 95.3677 152.775 95.3777L157.342 95.8277C157.46 95.8077 157.602 95.7557 157.765 95.7097C158.334 95.5147 159.185 95.2337 160.196 95.2337C161.02 95.2337 161.814 95.4237 162.58 95.7817C162.911 95.6605 163.258 95.5894 163.61 95.5707L163.83 95.5657C166.274 95.5657 167.491 97.3957 168.466 98.8567C168.629 99.1107 168.791 99.3477 168.961 99.5837C169.655 100.585 170.326 101.601 170.975 102.633L171.478 103.42L170.862 104.14C170.388 104.69 169.673 105.337 168.449 105.337C168.196 105.337 167.919 105.309 167.621 105.252C167.371 105.204 167.127 105.129 166.894 105.028C166.856 105.288 166.813 105.548 166.764 105.807L165.964 109.994C170.755 108.814 173.797 105.191 173.797 100.002L173.788 84.3487ZM132.248 83.0877H164.557C162.944 81.4177 162.968 79.3037 163.378 77.9297C162.943 77.7203 162.538 77.4533 162.175 77.1357C160.911 78.0687 157.058 80.8797 156.05 81.5837L155.834 81.7297L143.154 79.4337H142.897C142.593 79.4337 142.148 79.4207 141.66 79.3617C141.599 79.6342 141.448 79.8781 141.231 80.0536C141.014 80.229 140.744 80.3257 140.465 80.3277C140.399 80.3277 140.328 80.3227 140.262 80.3097C140.099 80.2846 139.944 80.227 139.804 80.1404C139.665 80.0538 139.544 79.94 139.45 79.8057C139.353 79.6727 139.283 79.5217 139.245 79.3615C139.207 79.2013 139.202 79.0351 139.229 78.8727L139.276 78.5987C137.97 77.6767 136.762 75.6147 137.297 73.4407L137.349 73.2117L137.534 73.0787C137.56 73.0587 137.778 72.9087 138.107 72.7227L137.186 72.5807C137.021 72.5527 136.874 72.4612 136.777 72.326C136.679 72.1908 136.638 72.0227 136.663 71.8577C136.722 71.5127 137.046 71.2667 137.385 71.3317L139.58 71.6787L139.781 63.9367L143.046 60.4747L145.086 64.7747L142.934 72.2237L144.874 72.5287C144.956 72.542 145.035 72.5714 145.105 72.6152C145.176 72.659 145.237 72.7163 145.286 72.7838C145.334 72.8513 145.369 72.9277 145.388 73.0087C145.407 73.0897 145.41 73.1736 145.397 73.2557C145.373 73.4028 145.298 73.5365 145.183 73.6323C145.069 73.7282 144.925 73.7798 144.776 73.7777C144.743 73.7777 144.708 73.7777 144.675 73.7737L143.098 73.5187C143.119 73.5677 143.15 73.5957 143.169 73.6437C143.337 73.9927 143.709 74.2387 143.927 74.3477L153.593 74.5027C154.004 74.1027 155.016 73.1077 156.062 72.0557C155.151 71.7209 154.352 71.1391 153.753 70.3756C153.155 69.612 152.781 68.6968 152.674 67.7327C151.344 67.1657 150.427 66.3167 149.918 65.2117C149.298 63.8427 149.518 62.4717 149.684 61.8057C148.394 61.3357 147.04 60.4757 145.655 59.0977H131.094C131.718 60.7777 132.248 62.5977 132.248 64.4067V83.0877Z" fill="#FFE52B"/>
<path fill-rule="evenodd" clip-rule="evenodd" d="M145.549 91.1427C145.493 91.1383 145.437 91.1451 145.384 91.1627C145.331 91.1803 145.282 91.2083 145.24 91.2451C145.198 91.2819 145.163 91.3267 145.139 91.377C145.114 91.4272 145.1 91.4818 145.097 91.5377C145.092 91.5941 145.098 91.6509 145.116 91.7047C145.134 91.7584 145.163 91.808 145.2 91.8503C145.238 91.8926 145.284 91.9268 145.335 91.9508C145.386 91.9747 145.442 91.988 145.499 91.9897C145.611 91.9965 145.722 91.9588 145.808 91.8845C145.893 91.8102 145.945 91.7053 145.954 91.5927C145.959 91.4794 145.92 91.3686 145.844 91.2843C145.768 91.2 145.662 91.1491 145.549 91.1427ZM164.805 123.966L162.907 118.737C165.165 118.048 169.047 116.567 170.787 115.582L169.627 119.387L173.557 120.697C171.18 121.892 168.297 123.007 164.805 123.966ZM153.024 128.666C148.45 128.666 143.231 127.612 141.692 127.064L144.03 120.731C145.967 121.299 149.999 121.9 152.925 121.881H153.11C156.036 121.9 160.063 121.299 162.011 120.731L164.343 127.064C162.805 127.612 157.585 128.666 153.024 128.666ZM132.478 120.697L136.415 119.387L135.25 115.582C136.987 116.567 140.875 118.048 143.128 118.737L141.228 123.966C137.748 123.007 134.854 121.892 132.478 120.697ZM173.733 119.535L171.341 118.615L172.002 116.137L172.729 113.438C172.729 113.438 168.489 115.743 162.513 117.473C160.818 117.958 159.535 118.182 159.535 118.182V120.02C159.535 120.02 156.339 120.575 153.11 120.575H152.925C149.693 120.575 146.502 120.02 146.502 120.02V118.182C146.502 118.182 145.215 117.958 143.522 117.473C137.548 115.743 133.311 113.438 133.311 113.438L134.028 116.137L134.703 118.615L132.302 119.535L129.639 120.53C132.69 122.008 136.919 124.155 140.789 125.216L139.876 127.716C139.876 127.716 144.784 129.955 152.961 129.976V129.981H153.072V129.976C161.258 129.955 166.162 127.716 166.162 127.716L165.245 125.216C169.116 124.155 173.352 122.008 176.389 120.53L173.733 119.535ZM143.025 18.7477L144.112 18.8627L144.583 17.8687L145.953 14.9327L148.498 16.2507L149.483 16.7547L153.013 13.2477L155.764 15.9767L156.552 16.7547L157.538 16.2507L160.068 14.9317L161.458 17.8687L161.919 18.8627L163.006 18.7477L164.046 18.6227C163.624 19.5788 163.264 20.5607 162.968 21.5627C160.222 20.0297 156.654 19.1567 153.013 19.1567C149.389 19.1567 145.825 20.0297 143.068 21.5627C142.77 20.5612 142.41 19.5793 141.99 18.6227L143.025 18.7477ZM153.013 20.6877C157.885 20.6877 161.782 22.3067 163.936 24.0287C163.936 24.0287 164.574 20.1717 166.757 16.7687L162.834 17.2167L160.781 12.8467L156.839 14.8837L153.013 11.0977L149.199 14.8837L145.248 12.8477L143.198 17.2167L139.275 16.7687C141.46 20.1717 142.097 24.0287 142.097 24.0287C144.265 22.3067 148.15 20.6877 153.013 20.6877ZM214.753 85.5707C214.753 85.5707 213.058 88.5277 209.166 88.5277H209.117C204.446 88.4997 202.563 85.6447 202.563 85.6447C202.563 85.6447 202.833 89.3587 201.152 94.3707C199.124 100.412 201.169 104.727 201.169 104.727C201.169 104.727 200.077 105.023 198.821 105.023C198.342 105.023 197.84 104.975 197.367 104.852C193.465 103.924 192.492 100.365 192.492 100.365C192.492 100.365 192.85 112.382 178.863 112.382H178.754C178.754 112.382 179.987 110.704 180.35 105.872C181.015 96.9537 187.042 95.7287 187.042 95.7287C187.042 95.7287 183.825 95.3247 182.431 94.0737C180.252 92.0937 180.406 89.8077 180.406 89.8077C185.326 89.7377 188.551 88.0597 191.008 85.2137C193.669 82.1297 194.107 78.8087 194.107 78.8087C194.107 78.8087 191.46 81.2117 186.344 81.2117C185.894 81.2117 185.413 81.1897 184.919 81.1417C182.497 80.9447 180.825 79.4047 180.825 79.4047C186.152 75.9817 189.888 70.0117 186.574 61.0227C183.919 53.8157 177.541 48.4347 171.117 44.3797C168.981 43.0437 167.79 41.5557 167.79 40.2777C167.79 37.2667 172.064 37.1697 173.815 35.1487C175.839 32.7967 174.57 28.9847 172.818 26.6887C172.818 26.6887 173.408 26.5687 174.339 26.5687C176.187 26.5687 179.386 27.0337 182.016 29.7657C185.506 33.3837 184.059 37.3257 184.059 37.3257L184.994 37.5077C185.553 37.6257 186.11 37.6477 186.689 37.6777C186.813 37.6777 186.941 37.6847 187.064 37.6847C192.137 37.6847 194.405 32.3717 194.405 32.3717C194.405 32.3717 199.796 39.0167 191.856 44.2247C190.491 45.1147 189.888 45.9417 190.046 46.8217L190.17 47.3987L190.735 47.4987C196.489 49.0617 199.401 53.0407 202.957 57.5607C208.359 64.4367 215.997 64.6597 216.939 64.6597H217.041C217.041 64.6597 215.3 70.1727 210.161 70.1727C210.075 70.1727 210.002 70.1727 209.917 70.1677C207.557 70.0827 206.346 69.1777 206.346 69.1777C206.346 69.1777 205.426 81.6927 214.753 85.5707ZM210.161 71.8607C216.46 71.8607 218.568 65.4407 218.655 65.1657L219.36 62.9027L216.998 62.9767H216.989C216.157 62.9767 209.206 62.7917 204.278 56.5177L203.813 55.9357C200.593 51.8357 197.54 47.9327 192.08 46.1537C192.297 45.9624 192.529 45.7885 192.774 45.6337C195.672 43.7257 197.357 41.4067 197.779 38.7147C198.399 34.6667 195.819 31.4377 195.707 31.3047L193.953 29.1327L192.857 31.7097C192.783 31.8707 190.942 35.9967 187.064 35.9967H186.775C186.51 35.9827 186.256 35.9727 186.008 35.9517C186.143 34.1117 185.809 31.2637 183.23 28.5897C180.129 25.3737 176.327 24.8917 174.339 24.8917C173.276 24.8917 172.57 25.0237 172.492 25.0307L169.845 25.5577L171.478 27.7157C172.76 29.3787 173.922 32.4487 172.544 34.0507C172.103 34.5627 171.197 34.9757 170.33 35.3917C168.547 36.2117 166.109 37.3617 166.109 40.2777C166.109 42.1647 167.572 44.1397 170.222 45.8187C178.065 50.7597 182.904 55.9167 184.994 61.6087C188.228 70.3637 184.009 75.3567 179.912 77.9887L178.074 79.1727L179.684 80.6527C179.9 80.8447 181.865 82.5807 184.774 82.8297C185.324 82.8667 185.851 82.8957 186.344 82.8957C188.205 82.8957 189.793 82.6027 191.083 82.2097C190.729 82.8297 190.29 83.4667 189.743 84.1047C187.402 86.8227 184.521 88.0597 180.378 88.1267L178.839 88.1507L178.721 89.6987C178.706 90.0107 178.591 92.8787 181.299 95.3177C181.715 95.6957 182.215 96.0067 182.741 96.2597C180.903 97.9177 179.036 100.806 178.675 105.75C178.368 109.878 177.386 111.406 177.374 111.422L175.674 114.023L178.749 114.065C183.829 114.065 187.719 112.662 190.414 109.878C192.007 108.232 192.919 106.373 193.456 104.727C194.468 105.591 195.674 106.198 196.971 106.496C197.577 106.635 198.198 106.704 198.821 106.701C200.257 106.701 201.458 106.395 201.591 106.362L203.555 105.84L202.687 104.005C202.623 103.858 200.986 100.172 202.748 94.9187C203.39 93.0043 203.837 91.0299 204.083 89.0257C205.319 89.6707 206.976 90.2027 209.116 90.2097C213.975 90.2097 216.119 86.5727 216.214 86.4197L217.171 84.7497L215.397 84.0187C209.606 81.6087 208.323 75.1397 208.066 71.6387C208.589 71.7407 209.188 71.8327 209.864 71.8517L210.161 71.8607Z" fill="#1A1919"/>
<path fill-rule="evenodd" clip-rule="evenodd" d="M203.082 44.3936C204.256 44.3936 205.624 44.7936 206.917 46.1336C210.977 50.2606 214.753 50.4916 214.753 50.4916C214.067 52.0146 212.078 53.3496 210.018 53.3496C209.532 53.3516 209.049 53.2715 208.589 53.1126C205.795 52.1686 204.796 47.9726 199.891 45.3576C199.891 45.3576 201.259 44.3936 203.082 44.3936ZM199.092 46.8496C201.441 48.1036 202.81 49.7836 204.01 51.2736C205.191 52.7286 206.308 54.1266 208.061 54.7096C208.692 54.9223 209.353 55.0291 210.018 55.0256C212.644 55.0256 215.286 53.4136 216.287 51.1816L217.294 48.9466L214.857 48.8006C214.742 48.7986 211.607 48.5106 208.122 44.9436C206.687 43.4776 204.95 42.7096 203.082 42.7096C200.799 42.7096 199.105 43.8526 198.918 43.9696L196.68 45.5496L199.092 46.8496ZM200.194 69.1396V69.2266C198.781 57.7966 190.497 49.5426 181.278 44.5266C180.486 44.1046 179.684 43.6988 178.875 43.3096C181.68 43.7466 186.2 43.7996 189.69 40.7676C189.69 40.7676 184.351 44.7006 173.418 41.1276C176.443 43.0946 182.324 45.8716 187.696 50.3686C201.117 62.1846 191.515 73.7096 191.515 73.7096C196.338 68.6666 196.539 63.2636 195.12 58.8516C197.659 63.0886 199.283 68.2276 199.031 74.5686C198.662 83.6486 193.677 91.5046 188.435 97.8136C185.916 100.877 185.353 104.641 185.353 104.641C185.353 104.641 186.37 101.32 189.285 97.9026C194.905 91.3126 199.709 84.4686 200.339 74.6026C200.919 76.3946 203.314 81.3686 207.11 83.2436C207.11 83.2436 202.339 80.3636 200.194 69.1396ZM127.172 112.381C113.183 112.381 113.54 100.364 113.54 100.364C113.54 100.364 112.563 103.923 108.666 104.851C108.191 104.969 107.703 105.027 107.214 105.022C105.958 105.022 104.871 104.726 104.871 104.726C104.871 104.726 106.905 100.411 104.878 94.3696C103.202 89.3596 103.474 85.6436 103.474 85.6436C103.474 85.6436 101.594 88.4986 96.9181 88.5266H96.8711C92.9831 88.5266 91.2841 85.5696 91.2841 85.5696C100.604 81.6916 99.6911 69.1766 99.6911 69.1766C99.6911 69.1766 98.4791 70.0816 96.1161 70.1666C96.0301 70.1716 95.9531 70.1716 95.8721 70.1716C90.7301 70.1716 88.9891 64.6586 88.9891 64.6586H89.0921C90.0421 64.6586 97.6721 64.4346 103.071 57.5586C106.628 53.0386 109.544 49.0626 115.29 47.4986L115.867 47.3956L115.99 46.8206C116.149 45.9406 115.548 45.1136 114.182 44.2236C106.244 39.0156 111.635 32.3736 111.635 32.3736C111.635 32.3736 113.889 37.6836 118.976 37.6836C119.099 37.6836 119.215 37.6786 119.346 37.6786C119.918 37.6466 120.482 37.6246 121.04 37.5066L121.975 37.3246C121.975 37.3246 120.522 33.3826 124.023 29.7646C126.652 27.0326 129.848 26.5676 131.696 26.5676C132.632 26.5676 133.214 26.6876 133.214 26.6876C131.465 28.9836 130.198 32.7956 132.22 35.1476C133.971 37.1676 138.24 37.2656 138.24 40.2766C138.24 41.5546 137.051 43.0426 134.918 44.3786C128.489 48.4336 122.113 53.8146 119.459 61.0216C116.149 70.0116 119.885 75.9806 125.219 79.4036C125.219 79.4036 123.541 80.9436 121.116 81.1416C120.622 81.1886 120.145 81.2116 119.686 81.2116C114.575 81.2116 111.93 78.8076 111.93 78.8076C111.93 78.8076 112.369 82.1276 115.015 85.2136C117.487 88.0586 120.707 89.7366 125.629 89.8066C125.629 89.8066 125.785 92.0926 123.609 94.0716C122.212 95.3236 118.993 95.7276 118.993 95.7276C118.993 95.7276 125.025 96.9526 125.688 105.869C126.048 110.703 127.272 112.381 127.272 112.381H127.172ZM128.659 111.421C128.654 111.405 127.677 109.877 127.364 105.749C126.999 100.803 125.132 97.9166 123.289 96.2586C123.813 96.0169 124.299 95.6995 124.731 95.3166C127.438 92.8776 127.324 90.0096 127.305 89.6966L127.201 88.1496L125.65 88.1256C121.519 88.0586 118.633 86.8216 116.292 84.1036C115.788 83.5143 115.34 82.88 114.952 82.2086C116.241 82.6016 117.818 82.8946 119.686 82.8946C120.186 82.8946 120.707 82.8646 121.258 82.8286C124.166 82.5786 126.135 80.8446 126.353 80.6526L127.963 79.1716L126.126 77.9886C122.014 75.3556 117.813 70.3626 121.04 61.6076C123.131 55.9156 127.963 50.7586 135.818 45.8176C138.468 44.1386 139.919 42.1636 139.919 40.2766C139.919 37.3606 137.489 36.2106 135.705 35.3906C134.836 34.9746 133.931 34.5616 133.491 34.0506C132.109 32.4476 133.273 29.3776 134.556 27.7146L136.2 25.5566L133.538 25.0296C133.46 25.0206 132.762 24.8906 131.696 24.8906C129.708 24.8906 125.913 25.3726 122.814 28.5886C120.231 31.2646 119.892 34.1106 120.025 35.9506C119.776 35.9716 119.525 35.9816 119.26 35.9956H118.976C115.088 35.9956 113.251 31.8696 113.18 31.7086L112.087 29.1316L110.316 31.3046C110.217 31.4366 107.631 34.6656 108.261 38.7136C108.678 41.4056 110.366 43.7236 113.263 45.6326C113.578 45.8346 113.798 46.0086 113.955 46.1526C108.488 47.9326 105.439 51.8346 102.219 55.9346L101.755 56.5166C96.8351 62.7906 89.8681 62.9766 89.0351 62.9766L86.6621 62.9016L87.3841 65.1646C87.4681 65.4406 89.5681 71.8596 95.8721 71.8596L96.1751 71.8496C96.7789 71.8283 97.3799 71.7574 97.9721 71.6376C97.7121 75.1376 96.4261 81.6076 90.6331 84.0176L88.8631 84.7486L89.8211 86.4186C89.9131 86.5716 92.0631 90.2086 96.9311 90.2086C99.0591 90.2016 100.714 89.6686 101.952 89.0256C102.197 91.0299 102.645 93.0041 103.289 94.9176C105.051 100.171 103.41 103.857 103.348 104.004L102.477 105.839L104.444 106.361C104.573 106.394 105.784 106.7 107.214 106.7C107.882 106.7 108.5 106.627 109.059 106.495C110.55 106.143 111.703 105.48 112.579 104.726C113.112 106.372 114.028 108.231 115.617 109.877C118.32 112.661 122.207 114.064 127.284 114.064L130.361 114.022L128.659 111.421Z" fill="#1A1919"/>
<path fill-rule="evenodd" clip-rule="evenodd" d="M99.114 46.1309C100.412 44.7939 101.778 44.3909 102.959 44.3909C104.772 44.3909 106.144 45.3569 106.144 45.3569C101.245 47.9729 100.234 52.1679 97.436 53.1129C96.9797 53.2721 96.4993 53.3516 96.016 53.3479C93.958 53.3479 91.966 52.0139 91.285 50.4909C91.285 50.4909 95.059 50.2609 99.114 46.1309ZM96.016 55.0249C96.692 55.0249 97.351 54.9249 97.975 54.7109C99.732 54.1259 100.848 52.7309 102.027 51.2729C103.234 49.7849 104.588 48.1029 106.939 46.8489L109.358 45.5489L107.112 43.9689C106.925 43.8499 105.241 42.7109 102.959 42.7109C101.086 42.7109 99.347 43.4769 97.914 44.9429C94.424 48.5129 91.297 48.7979 91.184 48.8019L88.75 48.9459L89.75 51.1829C90.755 53.4129 93.392 55.0249 96.016 55.0249ZM107.008 74.5679C106.746 68.2269 108.372 63.0879 110.915 58.8509C109.497 63.2629 109.689 68.6659 114.52 73.7109C114.52 73.7109 104.915 62.1839 118.344 50.3679C123.713 45.8709 129.589 43.0939 132.613 41.1279C121.684 44.6999 116.346 40.7669 116.346 40.7669C119.833 43.7979 124.355 43.7469 127.158 43.3089C126.4 43.6799 125.603 44.0669 124.757 44.5269C115.534 49.5429 107.255 57.7969 105.836 69.2259V69.1389C103.694 80.3619 98.926 83.2429 98.926 83.2429C102.719 81.3679 105.108 76.3939 105.69 74.6029C106.324 84.4679 111.128 91.3109 116.746 97.9019C119.662 101.319 120.688 104.64 120.688 104.64C120.688 104.64 120.119 100.876 117.587 97.8129C112.354 91.5059 107.375 83.6489 107.008 74.5679ZM149.856 51.4429V53.7099C150.639 52.7579 152.143 52.9519 152.143 52.9519V56.2199C152.143 56.2199 152.093 57.8279 151.522 58.5229H154.785C154.221 57.8279 154.166 56.2199 154.166 56.2199V52.9519C154.166 52.9519 155.675 52.7579 156.451 53.7099V51.4429H149.856ZM148.456 38.0009C149.5 38.8309 150.103 38.9689 150.122 38.9809L150.53 39.1709V37.0369L146.696 35.4229C146.696 35.4229 146.728 36.6589 148.456 38.0009ZM157.573 38.0009C159.306 36.6589 159.339 35.4219 159.339 35.4219L155.504 37.0369V39.1699L155.909 38.9809C155.93 38.9689 156.531 38.8309 157.573 38.0009Z" fill="#1A1919"/>
<path fill-rule="evenodd" clip-rule="evenodd" d="M153.015 32.3192L143.778 28.6632C144.564 26.8002 148.186 25.2152 153.015 25.2102C157.85 25.2152 161.472 26.8002 162.255 28.6632L153.015 32.3192ZM159.902 43.7712L153.693 47.0492V33.7782L162.118 30.9122L159.902 43.7712ZM163.747 47.2932L166.586 48.9442H166.626L167.339 49.3622C165.736 49.8062 164.512 50.6092 163.484 51.6642C163.446 51.6972 163.413 51.7352 163.371 51.7752C163.136 52.0272 162.902 52.2972 162.677 52.5782L162.545 52.7482C162.327 53.0312 162.118 53.3222 161.92 53.6222C161.888 53.6742 161.849 53.7262 161.815 53.7762C161.581 54.1292 161.354 54.5032 161.131 54.8922C159.109 58.3822 155.883 60.4662 153.015 60.4722C150.149 60.4662 146.922 58.3822 144.904 54.8922C144.684 54.5142 144.462 54.1482 144.228 53.7922C144.182 53.7262 144.14 53.6572 144.097 53.6002C143.9 53.3102 143.699 53.0252 143.498 52.7582C143.446 52.6862 143.399 52.6302 143.347 52.5682C143.127 52.2982 142.902 52.0302 142.674 51.7842C142.625 51.7442 142.592 51.6972 142.551 51.6572C141.517 50.6012 140.297 49.8072 138.692 49.3632L139.412 48.9442H139.445L142.289 47.2942L145.207 45.6202L153.001 49.8702L153.015 49.8532L153.037 49.8712L160.83 45.6202L163.747 47.2932ZM174.947 59.0992C174.311 60.7792 173.785 62.5992 173.785 64.4092L173.79 76.0872C171.354 75.6782 171.067 73.0512 171.056 72.9372L171.011 72.4022L170.487 72.3552C169.429 72.2532 168.726 71.8052 168.134 71.2292C166.939 70.0332 166.938 68.0942 166.939 68.0762C166.922 68.1762 165.625 69.9962 167.132 71.9862C167.765 72.8232 168.685 73.3402 169.872 73.5432C170.151 75.0002 171.235 77.0592 173.79 77.3732V83.0892H166.602C163.288 81.2402 164.692 77.9902 164.756 77.8492L165.037 77.2342L164.403 76.9932C160.812 75.6592 161.803 72.0732 161.849 71.9182L161.995 71.3942L161.505 71.1642C158.543 69.7872 158.943 66.0802 158.982 65.9242C158.07 66.6662 157.743 68.1752 158.37 69.6562C158.03 70.0462 157.575 70.5152 157.075 71.0332C154.005 70.2502 153.91 67.4242 153.91 67.2942L153.903 66.8592L153.499 66.7032C152.301 66.2592 151.479 65.5912 151.072 64.6962C150.619 63.7042 150.778 62.6662 150.903 62.1642C151.254 62.2452 151.604 62.2992 151.938 62.3292C152.284 62.3632 152.637 62.3862 152.994 62.3862H153.042C153.397 62.3862 153.749 62.3632 154.095 62.3292C156.008 62.1382 158.148 61.3162 160.38 59.0992H174.947ZM165.965 109.996L166.768 105.806C166.81 105.56 166.861 105.272 166.896 105.031C167.125 105.126 167.362 105.202 167.622 105.251C167.923 105.308 168.198 105.338 168.449 105.338C169.675 105.338 170.39 104.692 170.864 104.141L171.479 103.423L170.977 102.634C170.329 101.602 169.658 100.585 168.962 99.5842C168.792 99.3472 168.633 99.1112 168.47 98.8562C167.495 97.3962 166.276 95.5662 163.83 95.5662L163.612 95.5712C163.26 95.591 162.914 95.6624 162.583 95.7832C161.838 95.4268 161.024 95.2403 160.198 95.2372C159.185 95.2372 158.337 95.5162 157.769 95.7082C157.606 95.7552 157.461 95.8082 157.346 95.8302L152.776 95.3792C152.719 95.3672 152.533 95.2572 152.305 94.9892V94.9662L153.293 94.5692C153.015 91.2692 149.852 89.2392 148.089 88.5512C148.012 88.1987 147.834 87.8763 147.577 87.6232L146.595 86.6902L145.731 87.7272L145.307 88.2542L138.906 85.6212L143.07 90.8572L141.427 93.3512C140.826 93.9902 141.49 94.6332 141.49 94.6332L143.188 95.8032L144.947 95.1462C145.008 95.1462 145.061 95.1602 145.122 95.1672C145.035 95.4342 144.924 96.4852 144.852 96.7782L141.798 96.1782L138.59 97.9931C137.888 98.5013 137.38 99.2337 137.151 100.069C136.922 100.905 136.984 101.794 137.328 102.589L137.682 103.367L138.188 104.469L139.312 104.004C139.327 104 139.34 103.994 139.353 103.985C138.95 105.277 139.114 106.505 139.833 107.31L140.515 108.168L141.422 109.316L142.418 108.244C142.708 107.953 143.661 106.886 143.951 105.974L144.168 105.277L143.683 104.741L143.602 104.644L144.149 103.74L148.134 104.682L149.033 104.888L149.509 104.099L149.769 103.671C149.819 103.579 149.829 103.565 150.014 103.565C150.156 103.565 150.297 103.579 150.449 103.614C151.953 103.898 153.34 104.039 154.571 104.039C155.766 104.039 156.481 103.993 157.331 103.711C157.331 103.711 159.471 106.146 159.545 106.239L158.233 110.291L158.176 110.536C155.693 110.737 154.485 111.283 153.023 112.743C150.903 110.636 149.4 110.414 143.699 110.414C136.874 110.414 132.248 106.406 132.248 100.003V84.3502H173.79L173.799 100.003C173.799 105.192 170.757 108.815 165.965 109.996ZM140.378 101.146L140.594 101.687C140.451 102.16 138.83 102.83 138.83 102.83L138.481 102.061C138.259 101.533 138.221 100.947 138.373 100.395C138.524 99.8428 138.857 99.3577 139.317 99.0172L141.945 97.4152L144.732 98.0061C144.68 98.8931 145.208 99.5562 145.208 99.5562L142.289 98.9931L140.543 100.202C140.245 100.41 140.224 100.792 140.378 101.146ZM165.525 105.57L164.63 110.251C164.032 110.331 163.431 110.38 162.829 110.398L163.775 105.9C164.055 104.562 160.471 104.146 158.7 101.517C157.836 102.49 156.209 102.781 154.571 102.781C153.079 102.781 151.588 102.544 150.681 102.363C150.461 102.325 150.238 102.305 150.014 102.301C149.492 102.301 149.014 102.464 148.683 103.017L148.423 103.458L143.539 102.306L142.324 104.321C142.154 104.649 142.141 104.923 142.418 105.228L142.746 105.589C142.52 106.302 141.503 107.381 141.503 107.381L140.778 106.472C140.203 105.828 140.297 104.649 140.896 103.558L142.833 100.282L146.971 100.88L146.328 99.4132C145.465 97.4712 146.782 95.0032 146.922 93.5802C146.874 94.0102 146.479 94.1082 146.022 94.1082C145.605 94.1082 145.139 94.0282 144.829 94.0282C144.706 94.0282 144.602 94.0402 144.547 94.0812L143.425 94.7632L142.542 93.9792C142.435 93.8302 142.402 93.4762 142.66 93.2132L144.706 90.9132L142.289 88.0832L145.674 89.7872L146.709 88.5312C146.993 88.8112 146.869 89.5392 146.869 89.5392C147.925 89.5652 150.889 91.2062 151.046 95.0392C151.055 95.1572 151.055 95.2872 151.055 95.4132C151.055 95.4132 151.083 95.4632 151.135 95.5402C151.342 95.8302 151.922 96.5692 152.655 96.6362L157.334 97.1012H157.353C157.866 97.1012 158.887 96.4982 160.198 96.4982C160.913 96.4982 161.706 96.6802 162.552 97.2142C162.552 97.2142 162.98 96.8762 163.669 96.8412C163.721 96.8342 163.782 96.8342 163.83 96.8342C165.928 96.8342 166.801 98.7342 167.928 100.313C168.606 101.296 169.266 102.292 169.907 103.3C169.49 103.796 169.102 104.073 168.449 104.073C168.271 104.073 168.068 104.059 167.847 104.014C165.594 103.598 165.27 98.9622 163.986 98.5962C163.919 98.5784 163.851 98.5696 163.782 98.5702C163.368 98.5702 163.188 98.9382 163.188 98.9382C163.775 100.52 163.43 101.158 164.064 102.375C164.535 103.279 165.374 104.021 165.719 104.373C165.719 104.373 165.625 105.058 165.525 105.57ZM161.218 110.43C160.64 110.428 160.063 110.438 159.486 110.459L160.857 106.182C161.07 105.589 159.988 104.828 159.54 104.16C160.215 104.585 161.965 105.516 162.807 105.887C162.722 106.026 161.218 110.43 161.218 110.43ZM140.835 71.8882L141.031 64.4532L142.696 62.6882L143.742 64.8822L141.68 72.0192L140.835 71.8882ZM142.033 74.1922C142.305 74.7642 142.795 75.1462 143.139 75.3622C143.126 76.0677 143.058 76.7711 142.937 77.4662C142.903 77.6234 142.863 77.7792 142.816 77.9332C142.791 78.0282 142.764 78.1062 142.745 78.1692C142.234 78.1692 141.237 78.1062 140.418 77.8082C139.512 77.4732 138.162 75.8102 138.474 73.9752C138.865 73.7352 139.772 73.2242 140.622 73.2242C141.275 73.2242 141.722 73.5332 142.033 74.1922ZM161.325 76.1902C160.044 77.1352 156.744 79.5502 155.546 80.3872L144.024 78.3132C144.052 78.2102 144.08 78.1062 144.104 78.0062C144.254 77.4062 144.41 76.5892 144.417 75.6262L154.102 75.7822L154.287 75.5932C154.434 75.4462 157.502 72.4762 159.066 70.7682C159.438 71.2362 159.902 71.6822 160.513 72.0722C160.305 73.2102 160.393 74.8272 161.325 76.1902ZM145.657 59.1002C147.042 60.4782 148.397 61.3352 149.685 61.8072C149.519 62.4732 149.299 63.8472 149.919 65.2152C150.426 66.3182 151.346 67.1682 152.675 67.7352C152.783 68.6988 153.157 69.6134 153.755 70.3764C154.354 71.1394 155.153 71.7207 156.063 72.0552C155.247 72.8782 154.424 73.6946 153.595 74.5042L143.931 74.3512C143.713 74.2422 143.337 73.9942 143.171 73.6452C143.152 73.5952 143.12 73.5692 143.1 73.5212L144.677 73.7752C144.71 73.7812 144.744 73.7812 144.777 73.7812C144.926 73.7829 145.071 73.7306 145.185 73.634C145.299 73.5373 145.374 73.4028 145.397 73.2552C145.423 73.09 145.384 72.921 145.286 72.7852C145.188 72.6493 145.041 72.5576 144.876 72.5302L142.937 72.2232L145.087 64.7762L143.049 60.4782L139.783 63.9382L139.582 71.6822L137.386 71.3322C137.047 71.2662 136.723 71.5142 136.663 71.8592C136.611 72.1992 136.843 72.5232 137.187 72.5842L138.108 72.7242C137.911 72.8339 137.72 72.9534 137.535 73.0822L137.35 73.2122L137.298 73.4422C136.765 75.6162 137.972 77.6782 139.277 78.6012L139.23 78.8752C139.177 79.2092 139.253 79.5352 139.454 79.8082C139.644 80.0872 139.933 80.2532 140.262 80.3122C140.33 80.3252 140.402 80.3302 140.465 80.3302C141.031 80.3302 141.524 79.9382 141.663 79.3652C142.147 79.4232 142.592 79.4352 142.897 79.4352H143.157L155.835 81.7312L156.051 81.5872C157.061 80.8792 160.913 78.0682 162.175 77.1372C162.523 77.4372 162.911 77.7072 163.38 77.9332C162.97 79.3052 162.945 81.4192 164.561 83.0892H132.248V64.4102C132.248 62.6002 131.72 60.7802 131.095 59.1002H145.657ZM143.91 30.9122L152.341 33.7782V47.0482L146.133 43.7712L143.91 30.9122ZM164.481 29.3122C164.481 26.0732 159.04 23.1602 153.034 23.1602H153.001C146.995 23.1602 141.554 26.0732 141.554 29.3112L141.673 30.1082L144.071 43.8982L141.663 45.2982L135.43 48.9442H135.453C135.453 48.9442 134.05 49.6662 133.401 50.1102C131.027 51.7612 130.524 54.1702 131.902 55.1662C132.241 53.2012 133.791 51.1492 136.694 51.1492C138.784 51.1492 140.378 52.2292 141.663 53.8492C141.995 54.2592 142.308 54.6962 142.601 55.1662C142.941 55.7178 143.302 56.2562 143.683 56.7802H127.629C128.81 59.1572 129.932 61.6732 129.932 64.4082V100.003C129.932 108.619 136.545 112.731 143.699 112.731C149.228 112.731 149.973 112.478 153.023 115.524C156.06 112.478 156.806 112.731 162.339 112.731C169.498 112.731 176.103 108.619 176.103 100.003V64.4082C176.103 61.6732 177.223 59.1562 178.409 56.7802H162.35C162.708 56.2802 163.07 55.7592 163.43 55.1662C163.728 54.6962 164.039 54.2592 164.365 53.8492C165.662 52.2222 167.251 51.1492 169.342 51.1492C172.242 51.1492 173.79 53.2012 174.135 55.1662C175.513 54.1702 175.014 51.7612 172.627 50.1102C171.988 49.6662 170.584 48.9442 170.584 48.9442H170.606L164.365 45.2992L161.965 43.8982L164.365 30.1082L164.481 29.3122Z" fill="#1A1919"/>
<path d="M17.034 199.119H29.074V171.199H45.608V161.039H0.5V171.199H17.034V199.119ZM62.466 199.119V161.039H50.426V199.119H62.466ZM82.031 161.039H71.276V199.119H82.352V178.079L102.98 199.119H113.253V161.039H102.177V181.919L82.031 161.039ZM133.705 184.719H136.916L150.802 199.119H166.292L146.949 179.279L165.57 161.039H150.962L136.916 175.359H133.705V161.039H122.067V199.119H133.705V184.719Z" fill="#111111"/>
<path d="M190.24 160C174.588 160 165.197 168.8 165.197 180.16C165.197 191.52 174.588 200.32 190.24 200.32C205.811 200.32 215.201 191.52 215.201 180.16C215.201 168.8 205.811 160 190.24 160ZM190.24 191.04C182.454 191.04 177.478 186.4 177.478 180.16C177.478 173.92 182.454 169.36 190.24 169.36C197.945 169.36 203.001 173.92 203.001 180.16C203.001 186.4 197.945 191.04 190.24 191.04ZM259.017 170.72V161.04H220.731V199.12H232.37V185.6H258.054V177.6H232.37V170.72H259.017ZM302.049 170.72V161.04H263.763V199.12H275.401V185.6H301.086V177.6H275.401V170.72H302.049Z" fill="#111111"/>
</svg>
