<svg width="352" height="38" viewBox="0 0 352 38" fill="none" xmlns="http://www.w3.org/2000/svg">
<path d="M1.80005 30.0001C1.50672 30.0001 1.26672 29.9068 1.08005 29.7201C0.893382 29.5334 0.800049 29.2934 0.800049 29.0001V3.0001C0.800049 2.70676 0.893382 2.46676 1.08005 2.2801C1.26672 2.09343 1.50672 2.0001 1.80005 2.0001H13C15.2134 2.0001 17.1334 2.34676 18.7601 3.0401C20.4134 3.70676 21.6934 4.7201 22.6 6.0801C23.5334 7.4401 24.0001 9.1601 24.0001 11.2401C24.0001 13.2934 23.5334 14.9868 22.6 16.3201C21.6934 17.6534 20.4134 18.6401 18.7601 19.2801C17.1334 19.9201 15.2134 20.2401 13 20.2401H8.24005V29.0001C8.24005 29.2934 8.13338 29.5334 7.92005 29.7201C7.73338 29.9068 7.49338 30.0001 7.20005 30.0001H1.80005ZM8.12005 14.7201H12.8C13.9467 14.7201 14.8534 14.4268 15.52 13.8401C16.2134 13.2534 16.5601 12.3601 16.5601 11.1601C16.5601 10.1468 16.2667 9.29343 15.68 8.6001C15.0934 7.90676 14.1334 7.5601 12.8 7.5601H8.12005V14.7201Z" fill="black"/>
<path d="M36.7569 30.4001C33.6103 30.4001 31.1036 29.5468 29.2369 27.8401C27.3703 26.1334 26.3969 23.6001 26.3169 20.2401C26.3169 20.0534 26.3169 19.8134 26.3169 19.5201C26.3169 19.2268 26.3169 19.0001 26.3169 18.8401C26.3969 16.7334 26.8636 14.9334 27.7169 13.4401C28.5969 11.9201 29.7969 10.7734 31.3169 10.0001C32.8636 9.2001 34.6636 8.8001 36.7169 8.8001C39.0636 8.8001 40.9969 9.26676 42.5169 10.2001C44.0636 11.1334 45.2236 12.4001 45.9969 14.0001C46.7703 15.6001 47.1569 17.4268 47.1569 19.4801V20.4401C47.1569 20.7334 47.0503 20.9734 46.8369 21.1601C46.6503 21.3468 46.4236 21.4401 46.1569 21.4401H33.3569C33.3569 21.4668 33.3569 21.5068 33.3569 21.5601C33.3569 21.6134 33.3569 21.6668 33.3569 21.7201C33.3836 22.4934 33.5169 23.2001 33.7569 23.8401C33.9969 24.4801 34.3703 24.9868 34.8769 25.3601C35.3836 25.7334 35.9969 25.9201 36.7169 25.9201C37.2503 25.9201 37.6903 25.8401 38.0369 25.6801C38.4103 25.4934 38.7169 25.2934 38.9569 25.0801C39.1969 24.8401 39.3836 24.6401 39.5169 24.4801C39.7569 24.2134 39.9436 24.0534 40.0769 24.0001C40.2369 23.9201 40.4769 23.8801 40.7969 23.8801H45.7569C46.0236 23.8801 46.2369 23.9601 46.3969 24.1201C46.5836 24.2534 46.6636 24.4534 46.6369 24.7201C46.6103 25.1734 46.3836 25.7201 45.9569 26.3601C45.5303 27.0001 44.9036 27.6401 44.0769 28.2801C43.2769 28.8934 42.2636 29.4001 41.0369 29.8001C39.8103 30.2001 38.3836 30.4001 36.7569 30.4001ZM33.3569 17.4801H40.1169V17.4001C40.1169 16.5468 39.9836 15.8001 39.7169 15.1601C39.4769 14.5201 39.0903 14.0268 38.5569 13.6801C38.0503 13.3334 37.4369 13.1601 36.7169 13.1601C35.9969 13.1601 35.3836 13.3334 34.8769 13.6801C34.3969 14.0268 34.0236 14.5201 33.7569 15.1601C33.4903 15.8001 33.3569 16.5468 33.3569 17.4001V17.4801Z" fill="black"/>
<path d="M51.9069 30.0001C51.6136 30.0001 51.3736 29.9068 51.1869 29.7201C51.0003 29.5334 50.9069 29.2934 50.9069 29.0001V10.2001C50.9069 9.93343 51.0003 9.70676 51.1869 9.5201C51.3736 9.30676 51.6136 9.2001 51.9069 9.2001H56.5069C56.8003 9.2001 57.0403 9.30676 57.2269 9.5201C57.4136 9.70676 57.5069 9.93343 57.5069 10.2001V11.8001C58.2269 10.9734 59.0803 10.3334 60.0669 9.8801C61.0803 9.42676 62.2136 9.2001 63.4669 9.2001H65.2269C65.4936 9.2001 65.7203 9.29343 65.9069 9.4801C66.1203 9.66676 66.2269 9.90676 66.2269 10.2001V14.3201C66.2269 14.5868 66.1203 14.8268 65.9069 15.0401C65.7203 15.2268 65.4936 15.3201 65.2269 15.3201H61.3469C60.2536 15.3201 59.4003 15.6268 58.7869 16.2401C58.2003 16.8268 57.9069 17.6668 57.9069 18.7601V29.0001C57.9069 29.2934 57.8003 29.5334 57.5869 29.7201C57.4003 29.9068 57.1603 30.0001 56.8669 30.0001H51.9069Z" fill="black"/>
<path d="M77.631 30.4001C75.8976 30.4001 74.4177 30.2134 73.191 29.8401C71.991 29.4401 71.0043 28.9601 70.231 28.4001C69.4843 27.8401 68.9243 27.2668 68.551 26.6801C68.1776 26.0668 67.9776 25.5468 67.951 25.1201C67.9243 24.8268 68.0176 24.5868 68.231 24.4001C68.4443 24.1868 68.671 24.0801 68.911 24.0801H73.471C73.551 24.0801 73.6176 24.0934 73.671 24.1201C73.7243 24.1468 73.8043 24.2001 73.911 24.2801C74.2576 24.4668 74.6043 24.7068 74.951 25.0001C75.2976 25.2668 75.6977 25.5068 76.151 25.7201C76.6043 25.9334 77.151 26.0401 77.791 26.0401C78.5377 26.0401 79.1643 25.8934 79.671 25.6001C80.1776 25.3068 80.431 24.8668 80.431 24.2801C80.431 23.8534 80.311 23.5068 80.071 23.2401C79.831 22.9468 79.3376 22.6668 78.591 22.4001C77.871 22.1334 76.7776 21.8668 75.311 21.6001C73.9243 21.2801 72.711 20.8668 71.671 20.3601C70.631 19.8268 69.831 19.1468 69.271 18.3201C68.711 17.4668 68.431 16.4401 68.431 15.2401C68.431 14.1734 68.7777 13.1468 69.471 12.1601C70.1643 11.1734 71.1777 10.3734 72.511 9.7601C73.8443 9.1201 75.4843 8.8001 77.431 8.8001C78.9777 8.8001 80.311 8.98676 81.431 9.3601C82.5777 9.70676 83.5376 10.1601 84.311 10.7201C85.111 11.2801 85.711 11.8534 86.111 12.4401C86.511 13.0268 86.7243 13.5601 86.751 14.0401C86.7777 14.3068 86.6977 14.5468 86.511 14.7601C86.3243 14.9468 86.111 15.0401 85.871 15.0401H81.711C81.6043 15.0401 81.4977 15.0268 81.391 15.0001C81.2843 14.9468 81.191 14.8934 81.111 14.8401C80.791 14.6801 80.471 14.4668 80.151 14.2001C79.831 13.9334 79.4576 13.6934 79.031 13.4801C78.6043 13.2668 78.071 13.1601 77.431 13.1601C76.711 13.1601 76.151 13.3201 75.751 13.6401C75.351 13.9601 75.151 14.3734 75.151 14.8801C75.151 15.2268 75.2577 15.5468 75.471 15.8401C75.711 16.1334 76.1777 16.4001 76.871 16.6401C77.591 16.8801 78.6977 17.1468 80.191 17.4401C82.031 17.7334 83.4977 18.2134 84.591 18.8801C85.6843 19.5201 86.4576 20.2801 86.911 21.1601C87.3643 22.0134 87.591 22.9201 87.591 23.8801C87.591 25.1601 87.2043 26.2934 86.431 27.2801C85.6843 28.2668 84.5643 29.0401 83.071 29.6001C81.5777 30.1334 79.7643 30.4001 77.631 30.4001Z" fill="black"/>
<path d="M101.02 30.4001C98.7804 30.4001 96.887 30.0401 95.3404 29.3201C93.8204 28.6001 92.647 27.5734 91.8204 26.2401C91.0204 24.8801 90.567 23.2668 90.4604 21.4001C90.4337 20.8668 90.4204 20.2668 90.4204 19.6001C90.4204 18.9068 90.4337 18.3068 90.4604 17.8001C90.567 15.9068 91.047 14.2934 91.9004 12.9601C92.7537 11.6268 93.9404 10.6001 95.4604 9.8801C97.007 9.1601 98.8604 8.8001 101.02 8.8001C103.207 8.8001 105.06 9.1601 106.58 9.8801C108.127 10.6001 109.327 11.6268 110.18 12.9601C111.034 14.2934 111.514 15.9068 111.62 17.8001C111.647 18.3068 111.66 18.9068 111.66 19.6001C111.66 20.2668 111.647 20.8668 111.62 21.4001C111.514 23.2668 111.047 24.8801 110.22 26.2401C109.42 27.5734 108.247 28.6001 106.7 29.3201C105.18 30.0401 103.287 30.4001 101.02 30.4001ZM101.02 25.5201C102.22 25.5201 103.087 25.1601 103.62 24.4401C104.18 23.7201 104.5 22.6401 104.58 21.2001C104.607 20.8001 104.62 20.2668 104.62 19.6001C104.62 18.9334 104.607 18.4001 104.58 18.0001C104.5 16.5868 104.18 15.5201 103.62 14.8001C103.087 14.0534 102.22 13.6801 101.02 13.6801C99.847 13.6801 98.9804 14.0534 98.4204 14.8001C97.8604 15.5201 97.5537 16.5868 97.5004 18.0001C97.4737 18.4001 97.4604 18.9334 97.4604 19.6001C97.4604 20.2668 97.4737 20.8001 97.5004 21.2001C97.5537 22.6401 97.8604 23.7201 98.4204 24.4401C98.9804 25.1601 99.847 25.5201 101.02 25.5201Z" fill="black"/>
<path d="M116.594 30.0001C116.301 30.0001 116.061 29.9068 115.874 29.7201C115.688 29.5334 115.594 29.2934 115.594 29.0001V10.2001C115.594 9.90676 115.688 9.66676 115.874 9.4801C116.061 9.29343 116.301 9.2001 116.594 9.2001H121.194C121.488 9.2001 121.728 9.29343 121.914 9.4801C122.101 9.66676 122.194 9.90676 122.194 10.2001V11.7201C122.888 10.8934 123.794 10.2001 124.914 9.6401C126.034 9.0801 127.354 8.8001 128.874 8.8001C130.421 8.8001 131.781 9.14676 132.954 9.8401C134.154 10.5334 135.088 11.5601 135.754 12.9201C136.448 14.2534 136.794 15.8934 136.794 17.8401V29.0001C136.794 29.2934 136.688 29.5334 136.474 29.7201C136.288 29.9068 136.061 30.0001 135.794 30.0001H130.754C130.488 30.0001 130.248 29.9068 130.034 29.7201C129.848 29.5334 129.754 29.2934 129.754 29.0001V18.0801C129.754 16.8268 129.448 15.8668 128.834 15.2001C128.248 14.5068 127.368 14.1601 126.194 14.1601C125.101 14.1601 124.221 14.5068 123.554 15.2001C122.914 15.8668 122.594 16.8268 122.594 18.0801V29.0001C122.594 29.2934 122.488 29.5334 122.274 29.7201C122.088 29.9068 121.861 30.0001 121.594 30.0001H116.594Z" fill="black"/>
<path d="M147.498 30.4001C146.058 30.4001 144.765 30.1334 143.618 29.6001C142.498 29.0401 141.605 28.2934 140.938 27.3601C140.272 26.4268 139.938 25.3734 139.938 24.2001C139.938 22.3068 140.712 20.8134 142.258 19.7201C143.805 18.6001 145.858 17.8401 148.418 17.4401L153.418 16.6801V16.1201C153.418 15.1601 153.218 14.4268 152.818 13.9201C152.418 13.4134 151.685 13.1601 150.618 13.1601C149.872 13.1601 149.258 13.3068 148.778 13.6001C148.325 13.8934 147.965 14.2934 147.698 14.8001C147.458 15.1468 147.125 15.3201 146.698 15.3201H142.218C141.925 15.3201 141.698 15.2401 141.538 15.0801C141.378 14.8934 141.312 14.6801 141.338 14.4401C141.338 13.9601 141.512 13.4134 141.858 12.8001C142.232 12.1601 142.792 11.5334 143.538 10.9201C144.285 10.3068 145.245 9.8001 146.418 9.4001C147.592 9.0001 149.005 8.8001 150.658 8.8001C152.392 8.8001 153.872 9.0001 155.098 9.4001C156.325 9.8001 157.312 10.3601 158.058 11.0801C158.832 11.8001 159.405 12.6534 159.778 13.6401C160.152 14.6001 160.338 15.6668 160.338 16.8401V29.0001C160.338 29.2934 160.232 29.5334 160.018 29.7201C159.832 29.9068 159.605 30.0001 159.338 30.0001H154.698C154.405 30.0001 154.165 29.9068 153.978 29.7201C153.792 29.5334 153.698 29.2934 153.698 29.0001V27.6001C153.352 28.1068 152.885 28.5734 152.298 29.0001C151.712 29.4268 151.018 29.7601 150.218 30.0001C149.445 30.2668 148.538 30.4001 147.498 30.4001ZM149.378 25.8401C150.152 25.8401 150.845 25.6801 151.458 25.3601C152.098 25.0134 152.592 24.4934 152.938 23.8001C153.312 23.0801 153.498 22.1868 153.498 21.1201V20.5601L150.098 21.1601C148.845 21.3734 147.925 21.7068 147.338 22.1601C146.778 22.5868 146.498 23.0934 146.498 23.6801C146.498 24.1334 146.632 24.5201 146.898 24.8401C147.165 25.1601 147.512 25.4134 147.938 25.6001C148.365 25.7601 148.845 25.8401 149.378 25.8401Z" fill="black"/>
<path d="M165.852 30.0001C165.559 30.0001 165.319 29.9068 165.132 29.7201C164.946 29.5334 164.852 29.2934 164.852 29.0001V2.6001C164.852 2.30676 164.946 2.06676 165.132 1.8801C165.319 1.69343 165.559 1.6001 165.852 1.6001H170.572C170.866 1.6001 171.106 1.69343 171.292 1.8801C171.479 2.06676 171.572 2.30676 171.572 2.6001V29.0001C171.572 29.2934 171.479 29.5334 171.292 29.7201C171.106 29.9068 170.866 30.0001 170.572 30.0001H165.852Z" fill="black"/>
<path d="M186.253 30.0001C185.96 30.0001 185.72 29.9068 185.533 29.7201C185.347 29.5334 185.253 29.2934 185.253 29.0001V3.0001C185.253 2.70676 185.347 2.46676 185.533 2.2801C185.72 2.09343 185.96 2.0001 186.253 2.0001H197.453C199.667 2.0001 201.587 2.34676 203.213 3.0401C204.867 3.70676 206.147 4.7201 207.053 6.0801C207.987 7.4401 208.453 9.1601 208.453 11.2401C208.453 13.2934 207.987 14.9868 207.053 16.3201C206.147 17.6534 204.867 18.6401 203.213 19.2801C201.587 19.9201 199.667 20.2401 197.453 20.2401H192.693V29.0001C192.693 29.2934 192.587 29.5334 192.373 29.7201C192.187 29.9068 191.947 30.0001 191.653 30.0001H186.253ZM192.573 14.7201H197.253C198.4 14.7201 199.307 14.4268 199.973 13.8401C200.667 13.2534 201.013 12.3601 201.013 11.1601C201.013 10.1468 200.72 9.29343 200.133 8.6001C199.547 7.90676 198.587 7.5601 197.253 7.5601H192.573V14.7201Z" fill="black"/>
<path d="M212.844 30.0001C212.551 30.0001 212.311 29.9068 212.124 29.7201C211.938 29.5334 211.844 29.2934 211.844 29.0001V10.2001C211.844 9.93343 211.938 9.70676 212.124 9.5201C212.311 9.30676 212.551 9.2001 212.844 9.2001H217.444C217.738 9.2001 217.978 9.30676 218.164 9.5201C218.351 9.70676 218.444 9.93343 218.444 10.2001V11.8001C219.164 10.9734 220.018 10.3334 221.004 9.8801C222.018 9.42676 223.151 9.2001 224.404 9.2001H226.164C226.431 9.2001 226.658 9.29343 226.844 9.4801C227.058 9.66676 227.164 9.90676 227.164 10.2001V14.3201C227.164 14.5868 227.058 14.8268 226.844 15.0401C226.658 15.2268 226.431 15.3201 226.164 15.3201H222.284C221.191 15.3201 220.338 15.6268 219.724 16.2401C219.138 16.8268 218.844 17.6668 218.844 18.7601V29.0001C218.844 29.2934 218.738 29.5334 218.524 29.7201C218.338 29.9068 218.098 30.0001 217.804 30.0001H212.844Z" fill="black"/>
<path d="M239.692 30.4001C237.452 30.4001 235.559 30.0401 234.012 29.3201C232.492 28.6001 231.319 27.5734 230.492 26.2401C229.692 24.8801 229.239 23.2668 229.132 21.4001C229.106 20.8668 229.092 20.2668 229.092 19.6001C229.092 18.9068 229.106 18.3068 229.132 17.8001C229.239 15.9068 229.719 14.2934 230.572 12.9601C231.426 11.6268 232.612 10.6001 234.132 9.8801C235.679 9.1601 237.532 8.8001 239.692 8.8001C241.879 8.8001 243.732 9.1601 245.252 9.8801C246.799 10.6001 247.999 11.6268 248.852 12.9601C249.706 14.2934 250.186 15.9068 250.292 17.8001C250.319 18.3068 250.332 18.9068 250.332 19.6001C250.332 20.2668 250.319 20.8668 250.292 21.4001C250.186 23.2668 249.719 24.8801 248.892 26.2401C248.092 27.5734 246.919 28.6001 245.372 29.3201C243.852 30.0401 241.959 30.4001 239.692 30.4001ZM239.692 25.5201C240.892 25.5201 241.759 25.1601 242.292 24.4401C242.852 23.7201 243.172 22.6401 243.252 21.2001C243.279 20.8001 243.292 20.2668 243.292 19.6001C243.292 18.9334 243.279 18.4001 243.252 18.0001C243.172 16.5868 242.852 15.5201 242.292 14.8001C241.759 14.0534 240.892 13.6801 239.692 13.6801C238.519 13.6801 237.652 14.0534 237.092 14.8001C236.532 15.5201 236.226 16.5868 236.172 18.0001C236.146 18.4001 236.132 18.9334 236.132 19.6001C236.132 20.2668 236.146 20.8001 236.172 21.2001C236.226 22.6401 236.532 23.7201 237.092 24.4401C237.652 25.1601 238.519 25.5201 239.692 25.5201Z" fill="black"/>
<path d="M250.786 37.6001C250.493 37.6001 250.253 37.5068 250.066 37.3201C249.88 37.1334 249.786 36.8934 249.786 36.6001V33.3601C249.786 33.0668 249.88 32.8268 250.066 32.6401C250.253 32.4534 250.493 32.3601 250.786 32.3601H252.266C252.933 32.3601 253.44 32.2268 253.786 31.9601C254.133 31.7201 254.373 31.3734 254.506 30.9201C254.64 30.4934 254.706 30.0001 254.706 29.4401V10.2001C254.706 9.90676 254.8 9.66676 254.986 9.4801C255.2 9.29343 255.44 9.2001 255.706 9.2001H260.666C260.96 9.2001 261.2 9.29343 261.386 9.4801C261.573 9.66676 261.666 9.90676 261.666 10.2001V29.6001C261.666 31.3334 261.32 32.7868 260.626 33.9601C259.96 35.1601 258.986 36.0668 257.706 36.6801C256.426 37.2934 254.866 37.6001 253.026 37.6001H250.786ZM255.666 6.2001C255.4 6.2001 255.16 6.10676 254.946 5.9201C254.76 5.73343 254.666 5.49343 254.666 5.2001V1.6401C254.666 1.34676 254.76 1.10676 254.946 0.920096C255.16 0.706764 255.4 0.600098 255.666 0.600098H260.706C260.973 0.600098 261.2 0.706764 261.386 0.920096C261.6 1.10676 261.706 1.34676 261.706 1.6401V5.2001C261.706 5.49343 261.6 5.73343 261.386 5.9201C261.2 6.10676 260.973 6.2001 260.706 6.2001H255.666Z" fill="black"/>
<path d="M276.171 30.4001C273.024 30.4001 270.518 29.5468 268.651 27.8401C266.784 26.1334 265.811 23.6001 265.731 20.2401C265.731 20.0534 265.731 19.8134 265.731 19.5201C265.731 19.2268 265.731 19.0001 265.731 18.8401C265.811 16.7334 266.278 14.9334 267.131 13.4401C268.011 11.9201 269.211 10.7734 270.731 10.0001C272.278 9.2001 274.078 8.8001 276.131 8.8001C278.478 8.8001 280.411 9.26676 281.931 10.2001C283.478 11.1334 284.638 12.4001 285.411 14.0001C286.184 15.6001 286.571 17.4268 286.571 19.4801V20.4401C286.571 20.7334 286.464 20.9734 286.251 21.1601C286.064 21.3468 285.838 21.4401 285.571 21.4401H272.771C272.771 21.4668 272.771 21.5068 272.771 21.5601C272.771 21.6134 272.771 21.6668 272.771 21.7201C272.798 22.4934 272.931 23.2001 273.171 23.8401C273.411 24.4801 273.784 24.9868 274.291 25.3601C274.798 25.7334 275.411 25.9201 276.131 25.9201C276.664 25.9201 277.104 25.8401 277.451 25.6801C277.824 25.4934 278.131 25.2934 278.371 25.0801C278.611 24.8401 278.798 24.6401 278.931 24.4801C279.171 24.2134 279.358 24.0534 279.491 24.0001C279.651 23.9201 279.891 23.8801 280.211 23.8801H285.171C285.438 23.8801 285.651 23.9601 285.811 24.1201C285.998 24.2534 286.078 24.4534 286.051 24.7201C286.024 25.1734 285.798 25.7201 285.371 26.3601C284.944 27.0001 284.318 27.6401 283.491 28.2801C282.691 28.8934 281.678 29.4001 280.451 29.8001C279.224 30.2001 277.798 30.4001 276.171 30.4001ZM272.771 17.4801H279.531V17.4001C279.531 16.5468 279.398 15.8001 279.131 15.1601C278.891 14.5201 278.504 14.0268 277.971 13.6801C277.464 13.3334 276.851 13.1601 276.131 13.1601C275.411 13.1601 274.798 13.3334 274.291 13.6801C273.811 14.0268 273.438 14.5201 273.171 15.1601C272.904 15.8001 272.771 16.5468 272.771 17.4001V17.4801Z" fill="black"/>
<path d="M299.881 30.4001C297.908 30.4001 296.161 30.0401 294.641 29.3201C293.121 28.6001 291.908 27.5601 291.001 26.2001C290.121 24.8134 289.641 23.1601 289.561 21.2401C289.534 20.8134 289.521 20.2801 289.521 19.6401C289.521 18.9734 289.534 18.4268 289.561 18.0001C289.641 16.0534 290.121 14.4001 291.001 13.0401C291.881 11.6534 293.081 10.6001 294.601 9.8801C296.148 9.1601 297.908 8.8001 299.881 8.8001C301.721 8.8001 303.294 9.06676 304.601 9.6001C305.908 10.1068 306.974 10.7468 307.801 11.5201C308.628 12.2934 309.241 13.0934 309.641 13.9201C310.068 14.7201 310.294 15.4268 310.321 16.0401C310.348 16.3068 310.254 16.5468 310.041 16.7601C309.828 16.9468 309.588 17.0401 309.321 17.0401H304.241C303.948 17.0401 303.721 16.9734 303.561 16.8401C303.401 16.7068 303.254 16.5068 303.121 16.2401C302.801 15.4134 302.388 14.8268 301.881 14.4801C301.401 14.1334 300.774 13.9601 300.001 13.9601C298.934 13.9601 298.108 14.3068 297.521 15.0001C296.961 15.6934 296.654 16.7601 296.601 18.2001C296.574 19.2668 296.574 20.2134 296.601 21.0401C296.654 22.5068 296.961 23.5734 297.521 24.2401C298.108 24.9068 298.934 25.2401 300.001 25.2401C300.828 25.2401 301.481 25.0668 301.961 24.7201C302.441 24.3734 302.828 23.7868 303.121 22.9601C303.254 22.6934 303.401 22.4934 303.561 22.3601C303.721 22.2268 303.948 22.1601 304.241 22.1601H309.321C309.588 22.1601 309.828 22.2668 310.041 22.4801C310.254 22.6668 310.348 22.8934 310.321 23.1601C310.294 23.6134 310.161 24.1468 309.921 24.7601C309.681 25.3468 309.308 25.9734 308.801 26.6401C308.294 27.3068 307.628 27.9334 306.801 28.5201C306.001 29.0801 305.028 29.5334 303.881 29.8801C302.734 30.2268 301.401 30.4001 299.881 30.4001Z" fill="black"/>
<path d="M324.555 30.0001C322.848 30.0001 321.368 29.7334 320.115 29.2001C318.888 28.6401 317.941 27.7868 317.275 26.6401C316.608 25.4668 316.275 23.9601 316.275 22.1201V14.4401H313.155C312.861 14.4401 312.608 14.3468 312.395 14.1601C312.208 13.9734 312.115 13.7334 312.115 13.4401V10.2001C312.115 9.90676 312.208 9.66676 312.395 9.4801C312.608 9.29343 312.861 9.2001 313.155 9.2001H316.275V2.6001C316.275 2.30676 316.368 2.06676 316.555 1.8801C316.768 1.69343 317.008 1.6001 317.275 1.6001H321.915C322.208 1.6001 322.448 1.69343 322.635 1.8801C322.821 2.06676 322.915 2.30676 322.915 2.6001V9.2001H327.915C328.208 9.2001 328.448 9.29343 328.635 9.4801C328.821 9.66676 328.915 9.90676 328.915 10.2001V13.4401C328.915 13.7334 328.821 13.9734 328.635 14.1601C328.448 14.3468 328.208 14.4401 327.915 14.4401H322.915V21.5601C322.915 22.4668 323.088 23.1868 323.435 23.7201C323.781 24.2534 324.368 24.5201 325.195 24.5201H328.275C328.568 24.5201 328.808 24.6134 328.995 24.8001C329.181 24.9868 329.275 25.2268 329.275 25.5201V29.0001C329.275 29.2934 329.181 29.5334 328.995 29.7201C328.808 29.9068 328.568 30.0001 328.275 30.0001H324.555Z" fill="black"/>
<path d="M341.147 30.4001C339.413 30.4001 337.933 30.2134 336.707 29.8401C335.507 29.4401 334.52 28.9601 333.747 28.4001C333 27.8401 332.44 27.2668 332.067 26.6801C331.693 26.0668 331.493 25.5468 331.467 25.1201C331.44 24.8268 331.533 24.5868 331.747 24.4001C331.96 24.1868 332.187 24.0801 332.427 24.0801H336.987C337.067 24.0801 337.133 24.0934 337.187 24.1201C337.24 24.1468 337.32 24.2001 337.427 24.2801C337.773 24.4668 338.12 24.7068 338.467 25.0001C338.813 25.2668 339.213 25.5068 339.667 25.7201C340.12 25.9334 340.667 26.0401 341.307 26.0401C342.053 26.0401 342.68 25.8934 343.187 25.6001C343.693 25.3068 343.947 24.8668 343.947 24.2801C343.947 23.8534 343.827 23.5068 343.587 23.2401C343.347 22.9468 342.853 22.6668 342.107 22.4001C341.387 22.1334 340.293 21.8668 338.827 21.6001C337.44 21.2801 336.227 20.8668 335.187 20.3601C334.147 19.8268 333.347 19.1468 332.787 18.3201C332.227 17.4668 331.947 16.4401 331.947 15.2401C331.947 14.1734 332.293 13.1468 332.987 12.1601C333.68 11.1734 334.693 10.3734 336.027 9.7601C337.36 9.1201 339 8.8001 340.947 8.8001C342.493 8.8001 343.827 8.98676 344.947 9.3601C346.093 9.70676 347.053 10.1601 347.827 10.7201C348.627 11.2801 349.227 11.8534 349.627 12.4401C350.027 13.0268 350.24 13.5601 350.267 14.0401C350.293 14.3068 350.213 14.5468 350.027 14.7601C349.84 14.9468 349.627 15.0401 349.387 15.0401H345.227C345.12 15.0401 345.013 15.0268 344.907 15.0001C344.8 14.9468 344.707 14.8934 344.627 14.8401C344.307 14.6801 343.987 14.4668 343.667 14.2001C343.347 13.9334 342.973 13.6934 342.547 13.4801C342.12 13.2668 341.587 13.1601 340.947 13.1601C340.227 13.1601 339.667 13.3201 339.267 13.6401C338.867 13.9601 338.667 14.3734 338.667 14.8801C338.667 15.2268 338.773 15.5468 338.987 15.8401C339.227 16.1334 339.693 16.4001 340.387 16.6401C341.107 16.8801 342.213 17.1468 343.707 17.4401C345.547 17.7334 347.013 18.2134 348.107 18.8801C349.2 19.5201 349.973 20.2801 350.427 21.1601C350.88 22.0134 351.107 22.9201 351.107 23.8801C351.107 25.1601 350.72 26.2934 349.947 27.2801C349.2 28.2668 348.08 29.0401 346.587 29.6001C345.093 30.1334 343.28 30.4001 341.147 30.4001Z" fill="black"/>
</svg>
