<svg xmlns="http://www.w3.org/2000/svg" width="860" height="616" fill="none" viewBox="0 0 860 616">
  <g class="case-yoomoney-lk-analytics-ipad">
    <g class="3432_LK_iPad_Landscape_00">
      <g clip-path="url(#a)">
        <rect width="847" height="603" x="6" y="6" fill="#fff" rx="22.242"/>
        <g class="Frame 19542">
          <path fill="url(#b)" d="m793.406 309.873 2.538-6.055c3.233-7.714 14.565-6.303 15.808 1.969L822 374v110H329V230.816c0-.064.008-.129.023-.191l14.928-62.661c2.139-8.979 15.15-8.239 16.258.925l16.79 138.94c.871 7.202 9.928 9.875 14.569 4.3l1.921-2.307c4.516-5.425 13.315-3.065 14.509 3.892l12.841 74.794c1.592 9.271 14.959 9.116 16.335-.19l13.399-90.61c1.25-8.453 12.934-9.692 15.929-1.69l3.49 9.325c2.897 7.74 14.102 6.915 15.834-1.165l9.993-46.603c1.937-9.034 14.978-8.576 16.277.572l12.299 86.636c1.27 8.949 13.921 9.666 16.195.918l15.273-58.767 15.727-47.752c2.591-7.865 13.851-7.465 15.877.565l13.34 52.885c1.865 7.392 11.887 8.54 15.376 1.762l14.158-27.513c.305-.593.537-1.22.691-1.868l17.221-72.28c2.028-8.512 14.158-8.457 16.109.073l16.602 72.589c.091.395.21.783.357 1.161l25.442 65.261 12.238 26.754c3.488 7.625 14.801 5.819 15.742-2.513l14.901-132.045c1.092-9.674 15.09-9.842 16.414-.197l11.525 83.984c1.145 8.342 12.568 9.839 15.823 2.073Z" class="Vector"/>
          <path stroke="#00BF96" stroke-linecap="round" stroke-width="2.481" d="m821.5 371.5-9.787-65.44c-1.238-8.276-12.576-9.691-15.809-1.973l-2.551 6.089c-3.254 7.766-14.679 6.27-15.824-2.073l-11.551-84.209c-1.323-9.646-15.323-9.478-16.414.197l-14.929 132.341c-.94 8.333-12.255 10.138-15.742 2.512l-12.264-26.821-25.469-65.358a8.097 8.097 0 0 1-.357-1.16l-16.628-72.733c-1.951-8.531-14.083-8.586-16.11-.073l-17.248 72.424a8.233 8.233 0 0 1-.691 1.867l-14.184 27.575c-3.488 6.779-13.512 5.631-15.376-1.762l-13.368-53.014c-2.025-8.031-13.287-8.431-15.877-.564l-15.753 47.849-15.301 58.895c-2.273 8.75-14.925 8.033-16.195-.917l-12.325-86.856c-1.298-9.148-14.341-9.606-16.277-.572l-10.02 46.749c-1.732 8.081-12.939 8.905-15.835 1.165l-3.515-9.397c-2.995-8.004-14.68-6.765-15.93 1.689l-13.426 90.831c-1.376 9.306-14.744 9.462-16.335.19l-12.868-74.977c-1.194-6.958-9.994-9.318-14.51-3.892l-1.946 2.338c-4.64 5.577-13.699 2.904-14.569-4.298l-16.94-140.226c-1.102-9.128-14.043-9.914-16.243-.987L328 229.135" class="Vector"/>
          <path fill="#fff" d="M7.369 6.013h321.927v592.345H7.369z" class="Rectangle 6726"/>
          <path fill="#000" fill-opacity=".05" fill-rule="evenodd" d="M329.297 6.013v592.345h-1.171V6.013h1.171Z" class="Rectangle 11" clip-rule="evenodd"/>
          <g class="Status Bar / Black">
            <g class="Charge">
              <path fill="#000" fill-rule="evenodd" d="M840.022 15.517h-16.963a.824.824 0 0 0-.824.826v6.205c0 .457.372.827.824.827h16.963a.824.824 0 0 0 .824-.827v-6.205a.827.827 0 0 0-.824-.826Zm-17.374.825a.41.41 0 0 1 .411-.412h16.963c.225 0 .41.185.41.412v6.206a.41.41 0 0 1-.41.412h-16.963a.414.414 0 0 1-.411-.412v-6.206Zm18.612 1.656v2.895h.62c.343 0 .62-.277.62-.614v-1.667a.615.615 0 0 0-.62-.614h-.62Zm-18.198-1.245c0-.228.188-.407.419-.407h6.612v6.203h-6.612a.414.414 0 0 1-.419-.407v-5.39Z" class="Battery Icon" clip-rule="evenodd"/>
              <path fill="#000" d="M799.565 23.566c1.454 0 2.486-.98 2.491-2.38v-.01c0-1.342-.969-2.316-2.312-2.316-.678 0-1.26.252-1.59.722h-.019l.237-2.35h3.286v-.776h-4.003l-.358 3.988h.77c.092-.16.204-.295.33-.412.31-.28.717-.421 1.192-.421.926 0 1.59.659 1.594 1.58v.01c0 .94-.659 1.599-1.609 1.599-.838 0-1.458-.529-1.546-1.222l-.005-.038h-.857l.004.053c.102 1.139 1.057 1.973 2.395 1.973Zm5.811 0c1.483 0 2.539-.834 2.539-2.007v-.01c0-.862-.605-1.58-1.502-1.788v-.02c.766-.237 1.25-.819 1.25-1.555v-.01c0-1.056-.964-1.837-2.287-1.837s-2.288.78-2.288 1.837v.01c0 .736.485 1.318 1.251 1.556v.019c-.897.208-1.503.926-1.503 1.788v.01c0 1.173 1.057 2.006 2.54 2.006Zm0-4.15c-.844 0-1.42-.479-1.42-1.157v-.01c0-.679.576-1.159 1.42-1.159.843 0 1.42.48 1.42 1.159v.01c0 .678-.577 1.158-1.42 1.158Zm0 3.389c-.965 0-1.653-.543-1.653-1.3v-.009c0-.766.683-1.313 1.653-1.313.969 0 1.652.547 1.652 1.313v.01c0 .756-.688 1.299-1.652 1.299Zm6.867-2.899c.882 0 1.416-.673 1.416-1.754v-.005c0-1.076-.534-1.75-1.416-1.75-.882 0-1.415.674-1.415 1.75v.005c0 1.08.533 1.754 1.415 1.754Zm.315 3.543 4.479-6.993h-.786l-4.487 6.993h.794Zm-.315-4.124c-.47 0-.741-.436-.741-1.173v-.005c0-.737.271-1.168.741-1.168s.742.431.742 1.168v.005c0 .737-.272 1.173-.742 1.173Zm4.309 4.182c.882 0 1.415-.673 1.415-1.754v-.005c0-1.076-.533-1.75-1.415-1.75s-1.415.674-1.415 1.75v.005c0 1.08.533 1.754 1.415 1.754Zm0-.581c-.47 0-.742-.436-.742-1.173v-.005c0-.737.272-1.168.742-1.168s.741.431.741 1.168v.005c0 .737-.271 1.173-.741 1.173Z" class="58 %"/>
            </g>
            <path fill="#000" d="M420.707 16.743c-1.507 0-2.617 1.013-2.617 2.423v.01c0 1.313.95 2.282 2.297 2.282.945 0 1.643-.484 1.919-1.124h.029c0 .078-.004.15-.009.223-.049 1.323-.519 2.399-1.643 2.399-.626 0-1.052-.31-1.241-.79l-.015-.044h-1.24l.009.054c.218 1.056 1.188 1.803 2.482 1.803 1.783 0 2.854-1.382 2.854-3.694v-.01c0-2.452-1.284-3.532-2.825-3.532Zm0 3.75c-.795 0-1.386-.566-1.386-1.361v-.01c0-.756.625-1.357 1.4-1.357.786 0 1.396.606 1.396 1.382v.004c0 .78-.61 1.343-1.41 1.343Zm4.386-1.21c.393 0 .698-.31.698-.704a.689.689 0 0 0-.698-.697.693.693 0 0 0-.703.697c0 .393.31.703.703.703Zm0 3.557c.393 0 .698-.31.698-.703a.689.689 0 0 0-.698-.698.693.693 0 0 0-.703.698c0 .392.31.703.703.703Zm4.997 1.017h1.192v-1.342h.95v-1.028h-.95v-4.623h-1.779l-2.903 4.585v1.066h3.49v1.342Zm-2.365-2.34v-.034l2.355-3.674h.029v3.707h-2.384Zm7.042 2.34h1.226v-6.993h-1.236l-1.827 1.284v1.149l1.808-1.24h.029v5.8Zm4.468 0h1.309l.591-1.807h2.603l.591 1.807h1.314l-2.501-6.993h-1.406l-2.501 6.993Zm3.189-5.748h.029l.97 2.976h-1.973l.974-2.976Zm3.965 5.748h1.129v-4.972h.034l2.016 4.972h.848l2.017-4.972h.038v4.972h1.125v-6.993h-1.445l-2.142 5.34h-.034l-2.142-5.34h-1.444v6.993Z" class="9:41 AM"/>
            <g class="Group 2">
              <path fill="#000" d="M21.132 18.08a.526.526 0 0 0 .528-.53.523.523 0 0 0-.528-.527.526.526 0 0 0-.528.528c0 .29.237.528.528.528Zm-.422 5.893h.844v-5.04h-.844v5.04Zm2.123 0h.873v-2.496h1.618c1.314 0 2.244-.926 2.244-2.254v-.01c0-1.328-.93-2.234-2.244-2.234h-2.49v6.994Zm2.268-6.218c.999 0 1.576.547 1.576 1.468v.01c0 .92-.577 1.468-1.576 1.468h-1.395v-2.947H25.1Zm4.377 6.315c.673 0 1.28-.364 1.575-.916h.02v.819h.843v-3.485c0-1.008-.747-1.653-1.939-1.653-1.187 0-1.91.67-1.982 1.498l-.005.053h.814l.01-.043c.097-.451.504-.761 1.153-.761.703 0 1.105.373 1.105.988v.422l-1.444.082c-1.158.068-1.827.606-1.827 1.464v.01c0 .916.674 1.522 1.677 1.522Zm-.814-1.522v-.01c0-.47.387-.77 1.061-.81l1.347-.082v.412c0 .732-.61 1.28-1.405 1.28-.606 0-1.003-.306-1.003-.79Zm6.218 1.522c.722 0 1.284-.364 1.6-.95h.019v.853h.843v-6.994H36.5v2.797h-.02c-.315-.582-.901-.94-1.614-.94-1.265 0-2.127 1.022-2.127 2.612v.004c0 1.59.852 2.618 2.142 2.618Zm.165-.747c-.892 0-1.445-.712-1.445-1.87v-.005c0-1.149.553-1.866 1.445-1.866.848 0 1.458.741 1.458 1.866v.004c0 1.13-.605 1.871-1.459 1.871Z" class="iPad"/>
              <path fill="#000" fill-rule="evenodd" d="M50.29 16.042c2.12 0 4.033.86 5.387 2.239l-.9.874a6.235 6.235 0 0 0-4.487-1.879 6.236 6.236 0 0 0-4.465 1.857l-.901-.873a7.528 7.528 0 0 1 5.366-2.218Zm3.587 3.99a4.944 4.944 0 0 0-3.587-1.52 4.945 4.945 0 0 0-3.563 1.496l.901.874a3.654 3.654 0 0 1 2.662-1.135c1.067 0 2.025.448 2.686 1.16l.9-.875Zm-1.803 1.75a2.362 2.362 0 0 0-1.784-.802c-.701 0-1.331.3-1.76.774l1.79 1.733 1.755-1.705Z" class="Wi-Fi" clip-rule="evenodd"/>
            </g>
          </g>
          <path fill="#fff" fill-opacity=".1" d="M6 101.95h322.588v.827H6z" class="Rectangle 8"/>
          <g class="default">
            <path fill="#000" d="M560.65 50.152h1.771v-3.728h1.964l1.943 3.728h2.026l-2.163-3.996c1.174-.425 1.867-1.51 1.867-2.822v-.013c0-1.888-1.277-3.076-3.405-3.076h-4.003v9.907Zm1.771-5.087V41.68h2.012c1.126 0 1.806.645 1.806 1.682v.014c0 1.064-.652 1.689-1.772 1.689h-2.046Zm10.249 5.238c2.039 0 3.041-1.174 3.281-2.142l.021-.062h-1.627l-.021.049c-.165.343-.693.81-1.62.81-1.161 0-1.888-.783-1.909-2.129h5.246v-.563c0-2.266-1.319-3.762-3.454-3.762-2.135 0-3.502 1.544-3.502 3.906v.007c0 2.39 1.353 3.886 3.585 3.886Zm-.062-6.46c.954 0 1.648.61 1.764 1.84h-3.563c.13-1.195.844-1.84 1.799-1.84Zm6.643 6.31h1.875l2.657-7.505h-1.799l-1.723 5.836h-.117l-1.737-5.836h-1.827l2.671 7.504Zm8.546.15c2.039 0 3.041-1.174 3.282-2.142l.02-.062h-1.627l-.021.049c-.164.343-.693.81-1.62.81-1.16 0-1.888-.783-1.909-2.129h5.246v-.563c0-2.266-1.318-3.762-3.454-3.762-2.135 0-3.501 1.544-3.501 3.906v.007c0 2.39 1.352 3.886 3.584 3.886Zm-.062-6.46c.954 0 1.648.61 1.764 1.84h-3.563c.131-1.195.845-1.84 1.799-1.84Zm4.803 6.31h1.71v-4.374c0-1.126.632-1.84 1.648-1.84 1.037 0 1.51.59 1.51 1.757v4.456h1.71v-4.854c0-1.785-.913-2.794-2.588-2.794-1.085 0-1.806.487-2.163 1.29h-.117v-1.146h-1.71v7.504Zm10.743.15c1.085 0 1.847-.487 2.197-1.29h.117v1.14h1.709v-7.505h-1.709v4.373c0 1.127-.591 1.84-1.696 1.84-1.03 0-1.463-.59-1.463-1.75v-4.463h-1.709v4.854c0 1.785.865 2.801 2.554 2.801Zm8.985 0c2.039 0 3.041-1.174 3.282-2.142l.02-.062h-1.627l-.02.049c-.165.343-.694.81-1.621.81-1.16 0-1.888-.783-1.909-2.129h5.246v-.563c0-2.266-1.318-3.762-3.454-3.762-2.135 0-3.501 1.544-3.501 3.906v.007c0 2.39 1.352 3.886 3.584 3.886Zm-.062-6.46c.954 0 1.648.61 1.765 1.84h-3.564c.131-1.195.845-1.84 1.799-1.84Z" class="title"/>
          </g>
          <g class="large">
            <g class="label">
              <g class="↳ label">
                <path fill="#00BF96" d="M268.711 45.697c2.172 0 3.561-1.112 3.561-2.895v-.007c0-1.383-.801-2.17-2.759-2.59l-1.015-.227c-1.208-.259-1.699-.71-1.699-1.402v-.007c0-.879.807-1.39 1.9-1.39 1.13-.006 1.861.55 1.983 1.313l.013.084h1.403l-.007-.09c-.103-1.448-1.396-2.566-3.373-2.566-1.977 0-3.373 1.111-3.38 2.72v.007c0 1.376.814 2.255 2.708 2.656l1.021.22c1.234.264 1.738.73 1.738 1.447v.006c0 .866-.846 1.46-2.035 1.46-1.248 0-2.146-.542-2.223-1.389l-.007-.07h-1.421l.006.083c.129 1.57 1.48 2.637 3.586 2.637Zm7.988-.09c1.796 0 2.766-1.035 2.998-1.959l.013-.058-1.35.007-.026.051c-.168.362-.705.808-1.603.808-1.157 0-1.893-.782-1.919-2.126h4.976v-.491c0-2.107-1.202-3.522-3.16-3.522-1.958 0-3.225 1.467-3.225 3.658v.006c0 2.223 1.241 3.625 3.296 3.625Zm-.065-6.14c.95 0 1.655.608 1.764 1.861h-3.567c.123-1.208.847-1.86 1.803-1.86Zm7.206 6.049c.271 0 .53-.032.756-.071v-1.118a4.49 4.49 0 0 1-.53.026c-.692 0-.976-.31-.976-1.067v-3.728h1.506v-1.105h-1.506v-1.77h-1.428v1.77h-1.099v1.105h1.099v4.065c0 1.35.633 1.893 2.178 1.893Zm4.801 0c.272 0 .53-.032.756-.071v-1.118c-.193.02-.316.026-.529.026-.692 0-.976-.31-.976-1.067v-3.728h1.505v-1.105h-1.505v-1.77h-1.428v1.77h-1.099v1.105h1.099v4.065c0 1.35.633 1.893 2.177 1.893Zm2.857-8.317a.883.883 0 0 0 .879-.872.884.884 0 0 0-.879-.879.88.88 0 0 0-.879.879c0 .478.394.872.879.872Zm-.705 8.272h1.396v-7.018h-1.396v7.018Zm3.174 0h1.402v-4.117c0-1.13.64-1.835 1.667-1.835 1.028 0 1.512.575 1.512 1.738v4.214h1.396v-4.543c0-1.674-.866-2.61-2.436-2.61-1.021 0-1.693.452-2.036 1.201h-.103v-1.066h-1.402v7.018Zm10.636 2.475c1.991 0 3.251-1.021 3.251-2.617v-6.876h-1.396v1.15h-.084c-.407-.788-1.17-1.273-2.152-1.273-1.822 0-2.94 1.415-2.94 3.419v.012c0 1.978 1.111 3.367 2.914 3.367.963 0 1.739-.426 2.165-1.189h.104v1.383c0 .956-.685 1.5-1.842 1.5-.95 0-1.519-.343-1.635-.828l-.006-.013h-1.416l-.013.013c.168 1.17 1.267 1.952 3.05 1.952Zm-.019-3.974c-1.195 0-1.867-.912-1.867-2.217v-.013c0-1.305.672-2.223 1.867-2.223 1.183 0 1.906.918 1.906 2.223v.013c0 1.312-.717 2.216-1.906 2.216Zm7.574 1.634c1.667 0 2.908-.885 2.908-2.184v-.013c0-1.014-.646-1.59-1.997-1.906l-1.111-.252c-.789-.187-1.112-.459-1.112-.898v-.013c0-.562.556-.944 1.325-.944.788 0 1.286.369 1.422.86v.013h1.337v-.007c-.123-1.144-1.15-1.945-2.753-1.945-1.589 0-2.727.879-2.727 2.1v.007c0 1.027.614 1.628 1.939 1.932l1.118.258c.814.188 1.144.485 1.144.925v.012c0 .576-.601.97-1.467.97-.834 0-1.344-.356-1.519-.886l-.006-.006h-1.403v.007c.136 1.176 1.209 1.97 2.902 1.97Z" class="✎ text"/>
              </g>
            </g>
            <path fill="#000" d="M19.619 88.419h4.353l1.497-4.806h7.003l1.497 4.806h4.353l-6.907-19.815H26.54l-6.921 19.815Zm9.31-15.97h.083l2.499 8.06H26.43l2.5-8.06Zm11.388 15.97h4.01V79.96c0-1.922 1.14-3.24 2.938-3.24 1.8 0 2.705 1.098 2.705 3.02v8.679h4.01v-9.503c0-3.446-1.84-5.52-5.08-5.52-2.225 0-3.736 1.03-4.491 2.72h-.082v-2.418h-4.01v14.72Zm20.89.233c1.936 0 3.502-.92 4.34-2.43h.082v2.197h4.01V78.326c0-2.966-2.459-4.93-6.262-4.93-3.886 0-6.22 1.95-6.44 4.669l-.014.165h3.666l.028-.124c.192-.947 1.098-1.648 2.595-1.648 1.565 0 2.417.81 2.417 2.115v.906l-3.64.22c-3.652.234-5.725 1.799-5.725 4.477v.027c0 2.596 1.99 4.45 4.943 4.45Zm-.975-4.655v-.027c0-1.044.81-1.703 2.362-1.8l3.035-.191v1.057c0 1.538-1.319 2.692-3.117 2.692-1.387 0-2.28-.646-2.28-1.73Zm12.404 4.422h4.01V68.604h-4.01v19.815Zm9.328 4.847c3.268 0 5.246-1.112 6.4-4.586l5.052-14.982h-4.229L86.07 85.206h-.11l-3.103-11.508h-4.408l5.204 14.72-.178.482c-.357 1.002-1.017 1.345-2.211 1.345-.59 0-1.058-.082-1.346-.137v2.98c.467.082 1.263.178 2.046.178Zm19.009-4.545c.838 0 1.483-.082 1.936-.151v-2.939c-.247.028-.508.069-.865.069-1.208 0-1.826-.467-1.826-1.84v-7.14h2.691v-3.022h-2.691v-3.597h-4.051v3.597H94.12v3.021h2.046v7.58c0 3.159 1.538 4.422 4.806 4.422Zm6.54-16.918c1.209 0 2.143-.947 2.143-2.087 0-1.14-.934-2.087-2.143-2.087-1.208 0-2.142.947-2.142 2.087 0 1.14.934 2.087 2.142 2.087Zm-2.005 16.616h4.01v-14.72h-4.01v14.72Zm13.736.302c3.928 0 6.468-2.444 6.66-5.657v-.083h-3.735l-.013.124c-.275 1.483-1.278 2.471-2.884 2.471-1.978 0-3.213-1.634-3.213-4.517v-.014c0-2.815 1.235-4.504 3.199-4.504 1.662 0 2.637 1.07 2.884 2.472l.027.123h3.722v-.096c-.151-3.186-2.692-5.644-6.688-5.644-4.408 0-7.223 2.925-7.223 7.635v.014c0 4.751 2.774 7.676 7.264 7.676Zm14.958 0c3.79 0 6.441-1.895 6.441-4.779v-.013c0-2.17-1.264-3.379-4.34-4.024l-2.499-.535c-1.483-.316-1.991-.81-1.991-1.566v-.014c0-.947.865-1.565 2.252-1.565 1.483 0 2.348.796 2.486 1.854l.013.11h3.694v-.138c-.096-2.581-2.279-4.655-6.193-4.655-3.749 0-6.166 1.813-6.166 4.614v.014c0 2.197 1.442 3.625 4.299 4.23l2.499.521c1.442.316 1.936.77 1.936 1.552v.014c0 .947-.92 1.538-2.431 1.538-1.606 0-2.471-.673-2.732-1.827l-.028-.123h-3.913l.013.123c.316 2.788 2.582 4.669 6.66 4.669Z" class="large title"/>
          </g>
          <g class="Group 80">
            <path fill="#fff" d="M329.415 75.481h522.758v59.555H329.415z" class="color"/>
            <path fill="#666" d="M527.344 100.721c1.675 0 2.683-1.527 2.683-3.964v-.01c0-2.436-1.008-3.959-2.683-3.959-1.675 0-2.672 1.523-2.672 3.959v.01c0 2.437.997 3.964 2.672 3.964Zm0-.824c-1.087 0-1.722-1.207-1.722-3.14v-.01c0-1.932.635-3.13 1.722-3.13s1.733 1.198 1.733 3.13v.01c0 1.933-.646 3.14-1.733 3.14Zm6.025.646h.945v-7.576h-.94l-2.016 1.449v.997l1.927-1.396h.084v6.526Zm6.147 0h.882v-5.786h.058l2.394 5.786h.798l2.394-5.786h.058v5.786h.882v-7.576h-1.097l-2.594 6.321h-.084l-2.594-6.321h-1.097v7.576Zm10.771.1c.761 0 1.354-.331 1.711-.935h.084v.835h.914v-3.875c0-1.176-.772-1.885-2.153-1.885-1.207 0-2.069.599-2.216 1.486l-.005.032h.914l.005-.016c.147-.441.593-.693 1.271-.693.845 0 1.27.378 1.27 1.076v.515l-1.622.1c-1.318.078-2.064.661-2.064 1.67v.01c0 1.029.814 1.68 1.891 1.68Zm-.956-1.701v-.01c0-.563.378-.867 1.239-.92l1.512-.094v.514c0 .809-.677 1.418-1.606 1.418-.657 0-1.145-.336-1.145-.908Zm5.268 1.601h.914v-3.507c0-.83.619-1.381 1.491-1.381.2 0 .373.02.562.052v-.887a3.063 3.063 0 0 0-.457-.037c-.767 0-1.297.347-1.512.94h-.084v-.84h-.914v5.66Zm6.982 0h4.904v-.85h-3.591v-.085l1.722-1.78c1.37-1.412 1.743-2.042 1.743-2.908v-.01c0-1.224-1.013-2.122-2.336-2.122-1.449 0-2.489.966-2.494 2.31l.01.005.903.006.006-.01c0-.893.603-1.487 1.512-1.487.892 0 1.433.599 1.433 1.397v.01c0 .662-.283 1.056-1.249 2.1l-2.563 2.773v.651Zm8.96.178c1.675 0 2.683-1.527 2.683-3.964v-.01c0-2.436-1.008-3.959-2.683-3.959-1.675 0-2.673 1.523-2.673 3.959v.01c0 2.437.998 3.964 2.673 3.964Zm0-.824c-1.087 0-1.722-1.207-1.722-3.14v-.01c0-1.932.635-3.13 1.722-3.13s1.732 1.198 1.732 3.13v.01c0 1.933-.645 3.14-1.732 3.14Zm6.024.646h.945v-7.576h-.94l-2.016 1.449v.997l1.927-1.396h.084v6.526Zm5.547-7.755c-1.528 0-2.652 1.097-2.652 2.61v.01c0 1.454 1.061 2.536 2.484 2.536 1.023 0 1.738-.551 2.016-1.17h.1c0 .057 0 .12-.006.178-.057 1.58-.619 2.924-1.995 2.924-.766 0-1.297-.394-1.528-1.029l-.021-.058h-.95l.016.069c.257 1.118 1.202 1.863 2.473 1.863 1.837 0 2.914-1.512 2.914-4.095v-.01c0-2.851-1.465-3.828-2.851-3.828Zm-.006 4.332c-.981 0-1.696-.725-1.696-1.733v-.01c0-.982.762-1.754 1.712-1.754.961 0 1.712.787 1.712 1.785v.005c0 .987-.746 1.707-1.728 1.707Zm6.846.798h5.424v-.85h-5.424v.85Zm12.127 2.803c1.675 0 2.683-1.527 2.683-3.964v-.01c0-2.436-1.008-3.959-2.683-3.959-1.675 0-2.672 1.523-2.672 3.959v.01c0 2.437.997 3.964 2.672 3.964Zm0-.824c-1.086 0-1.722-1.207-1.722-3.14v-.01c0-1.932.636-3.13 1.722-3.13 1.087 0 1.733 1.198 1.733 3.13v.01c0 1.933-.646 3.14-1.733 3.14Zm4.276.646h.993l3.37-6.7v-.876h-5.014v.845h4.054v.073l-3.403 6.658Zm8.82 0h.882v-5.786h.058l2.394 5.786h.798l2.394-5.786h.058v5.786h.882v-7.576h-1.097l-2.594 6.321h-.084l-2.594-6.321h-1.097v7.576Zm10.771.1c.761 0 1.354-.331 1.711-.935h.084v.835h.914v-3.875c0-1.176-.772-1.885-2.153-1.885-1.207 0-2.068.599-2.215 1.486l-.006.032h.914l.005-.016c.147-.441.593-.693 1.271-.693.845 0 1.27.378 1.27 1.076v.515l-1.622.1c-1.318.078-2.063.661-2.063 1.67v.01c0 1.029.813 1.68 1.89 1.68Zm-.956-1.701v-.01c0-.563.378-.867 1.239-.92l1.512-.094v.514c0 .809-.677 1.418-1.606 1.418-.657 0-1.145-.336-1.145-.908Zm5.268 1.601h.914v-3.507c0-.83.62-1.381 1.491-1.381.2 0 .373.02.562.052v-.887a3.063 3.063 0 0 0-.457-.037c-.766 0-1.297.347-1.512.94h-.084v-.84h-.914v5.66Zm6.982 0h4.904v-.85h-3.591v-.085l1.722-1.78c1.371-1.412 1.743-2.042 1.743-2.908v-.01c0-1.224-1.013-2.122-2.336-2.122-1.449 0-2.489.966-2.494 2.31l.01.005.904.006.005-.01c0-.893.604-1.487 1.512-1.487.893 0 1.433.599 1.433 1.397v.01c0 .662-.283 1.056-1.249 2.1l-2.563 2.773v.651Zm8.96.178c1.675 0 2.683-1.527 2.683-3.964v-.01c0-2.436-1.008-3.959-2.683-3.959-1.675 0-2.673 1.523-2.673 3.959v.01c0 2.437.998 3.964 2.673 3.964Zm0-.824c-1.087 0-1.722-1.207-1.722-3.14v-.01c0-1.932.635-3.13 1.722-3.13s1.733 1.198 1.733 3.13v.01c0 1.933-.646 3.14-1.733 3.14Zm6.024.646h.945v-7.576h-.94l-2.016 1.449v.997l1.927-1.396h.084v6.526Zm5.547-7.755c-1.528 0-2.652 1.097-2.652 2.61v.01c0 1.454 1.061 2.536 2.484 2.536 1.024 0 1.738-.551 2.016-1.17h.1c0 .057 0 .12-.006.178-.057 1.58-.619 2.924-1.995 2.924-.766 0-1.297-.394-1.528-1.029l-.021-.058h-.95l.016.069c.257 1.118 1.202 1.863 2.473 1.863 1.837 0 2.914-1.512 2.914-4.095v-.01c0-2.851-1.465-3.828-2.851-3.828Zm-.005 4.332c-.982 0-1.696-.725-1.696-1.733v-.01c0-.982.761-1.754 1.711-1.754.961 0 1.712.787 1.712 1.785v.005c0 .987-.746 1.707-1.727 1.707Z" class="✎ text"/>
          </g>
          <g class="Group 76">
            <path fill="#000" fill-opacity=".05" fill-rule="evenodd" d="M329.708 354.416H852.4v1.089H329.708v-1.089Z" class="Rectangle 8" clip-rule="evenodd"/>
            <path fill="#000" fill-opacity=".05" fill-rule="evenodd" d="M329.708 483.969H852.4v1.088H329.708v-1.088Z" class="Rectangle 11" clip-rule="evenodd"/>
            <path fill="#000" fill-opacity=".05" fill-rule="evenodd" d="M329.708 129.06H852.4v1.088H329.708v-1.088Z" class="Rectangle 8 Copy 2" clip-rule="evenodd"/>
            <g class="Group 50">
              <path fill="#000" fill-opacity=".3" d="M343.623 118.72v-6.451h-.592a1.413 1.413 0 0 1-.236.6 1.256 1.256 0 0 1-.428.373 1.742 1.742 0 0 1-.555.191 4.273 4.273 0 0 1-.637.046v.619h1.675v4.622h.773Zm6.093-5.66v-.682h-3.185l-.6 3.348.664.037c.152-.182.325-.328.519-.437.2-.115.427-.173.682-.173.218 0 .416.036.592.109a1.3 1.3 0 0 1 .464.31c.127.127.224.282.291.464.073.176.109.37.109.582 0 .255-.036.479-.109.673a1.337 1.337 0 0 1-.301.473 1.192 1.192 0 0 1-.436.292 1.5 1.5 0 0 1-.519.091c-.194 0-.373-.028-.537-.082a1.45 1.45 0 0 1-.418-.246 1.38 1.38 0 0 1-.282-.373 1.358 1.358 0 0 1-.119-.464h-.773c.006.291.064.552.173.782.109.231.258.425.446.583.188.151.403.27.646.355.248.078.512.118.791.118.376 0 .704-.058.983-.173.285-.121.522-.282.71-.482.188-.2.327-.428.418-.683.097-.261.146-.527.146-.8 0-.37-.055-.692-.164-.965a1.915 1.915 0 0 0-.446-.691 1.767 1.767 0 0 0-.664-.419 2.392 2.392 0 0 0-.81-.136c-.218 0-.44.039-.664.118a1.217 1.217 0 0 0-.537.346l-.018-.019.346-1.856h2.602Zm4.021-.837v6.497h.865v-2.275l1.082-1.01 2.348 3.285h1.092l-2.848-3.876 2.739-2.621h-1.12l-3.293 3.239v-3.239h-.865Z" class="15 K"/>
              <path fill="#000" fill-opacity=".3" d="M343.623 235.667v-6.451h-.592a1.417 1.417 0 0 1-.236.601 1.267 1.267 0 0 1-.428.373 1.767 1.767 0 0 1-.555.191c-.206.03-.418.045-.637.045v.619h1.675v4.622h.773Zm3.018-3.175v-.519c.006-.194.021-.385.045-.573.03-.194.07-.382.118-.564.055-.182.131-.34.228-.474.103-.139.23-.251.382-.336.152-.085.337-.128.555-.128.218 0 .403.043.555.128.152.085.276.197.373.336.103.134.179.292.228.474.054.182.094.37.118.564.03.188.045.379.045.573a13.933 13.933 0 0 1-.018 1.337c-.012.298-.061.58-.145.847-.079.26-.21.482-.392.664-.182.182-.436.273-.764.273s-.582-.091-.764-.273a1.649 1.649 0 0 1-.401-.664 3.835 3.835 0 0 1-.145-.847 20.879 20.879 0 0 1-.018-.818Zm-.819.009c0 .236.006.482.018.737.012.254.042.503.091.746.048.242.118.473.209.691.091.213.216.401.373.564.158.164.355.295.592.392.242.091.53.136.864.136.34 0 .628-.045.864-.136.237-.097.434-.228.592-.392a1.86 1.86 0 0 0 .373-.564 3.62 3.62 0 0 0 .209-.691c.049-.243.079-.492.091-.746a15.705 15.705 0 0 0 0-1.474 4.922 4.922 0 0 0-.091-.746 3.608 3.608 0 0 0-.209-.692 1.854 1.854 0 0 0-.373-.573 1.689 1.689 0 0 0-.601-.391 2.247 2.247 0 0 0-.855-.146c-.334 0-.622.049-.864.146a1.704 1.704 0 0 0-.965.964 3.608 3.608 0 0 0-.209.692 4.922 4.922 0 0 0-.091.746c-.012.254-.018.5-.018.737Zm7.915-3.33v6.496h.865v-2.275l1.082-1.01 2.348 3.285h1.092l-2.848-3.876 2.739-2.62h-1.12l-3.293 3.239v-3.239h-.865Z" class="10 K"/>
              <path fill="#000" fill-opacity=".3" d="M344.66 340.075v-.682h-3.184l-.601 3.348.664.036c.152-.182.325-.327.519-.436.2-.116.428-.173.682-.173.219 0 .416.036.592.109a1.312 1.312 0 0 1 .755.773c.073.176.109.37.109.583 0 .254-.036.479-.109.673a1.35 1.35 0 0 1-.3.473 1.215 1.215 0 0 1-.437.291 1.67 1.67 0 0 1-1.055.009 1.418 1.418 0 0 1-.419-.245 1.439 1.439 0 0 1-.282-.373 1.34 1.34 0 0 1-.118-.464h-.774c.006.291.064.552.173.782.109.231.258.425.446.582.188.152.403.27.646.355.249.079.513.118.792.118.376 0 .703-.057.982-.172a2.07 2.07 0 0 0 .71-.483c.188-.2.327-.427.418-.682.097-.261.146-.528.146-.801 0-.37-.055-.691-.164-.964a1.92 1.92 0 0 0-.446-.692 1.764 1.764 0 0 0-.664-.418 2.392 2.392 0 0 0-.81-.137c-.218 0-.439.04-.664.119a1.215 1.215 0 0 0-.537.345l-.018-.018.346-1.856h2.602Zm4.022-.837v6.496h.864v-2.274l1.083-1.01 2.347 3.284h1.092l-2.848-3.876 2.739-2.62h-1.119l-3.294 3.239v-3.239h-.864Z" class="5 K"/>
              <path fill="#B3B3B3" d="M343.245 499.178c1.417 0 2.27-1.292 2.27-3.354v-.009c0-2.061-.853-3.35-2.27-3.35s-2.261 1.289-2.261 3.35v.009c0 2.062.844 3.354 2.261 3.354Zm0-.697c-.92 0-1.457-1.022-1.457-2.657v-.009c0-1.635.537-2.648 1.457-2.648s1.466 1.013 1.466 2.648v.009c0 1.635-.546 2.657-1.466 2.657Zm5.211.546h.8v-6.41h-.795l-1.706 1.226v.844l1.63-1.182h.071v5.522Zm5.43 0h.746v-4.896h.049l2.026 4.896h.675l2.026-4.896h.049v4.896h.746v-6.41h-.928l-2.195 5.349h-.071l-2.195-5.349h-.928v6.41Zm9.227.085c.644 0 1.146-.28 1.449-.791h.071v.706h.773v-3.278c0-.996-.653-1.595-1.822-1.595-1.022 0-1.75.506-1.875 1.257l-.004.027h.773l.004-.014c.125-.373.502-.586 1.075-.586.716 0 1.076.32 1.076.911v.435l-1.373.084c-1.115.067-1.746.56-1.746 1.413v.009c0 .871.688 1.422 1.599 1.422Zm-.808-1.44v-.009c0-.475.319-.733 1.048-.777l1.28-.08v.435c0 .685-.574 1.2-1.36 1.2-.555 0-.968-.284-.968-.769Zm4.571 1.355h.773v-2.967c0-.702.525-1.169 1.262-1.169.169 0 .315.018.475.045v-.751a2.491 2.491 0 0 0-.386-.031c-.649 0-1.097.293-1.28.795h-.071v-.711h-.773v4.789Z" class="1.02"/>
              <path fill="#B3B3B3" d="M497.106 499.178c1.417 0 2.27-1.292 2.27-3.354v-.009c0-2.061-.853-3.35-2.27-3.35s-2.261 1.289-2.261 3.35v.009c0 2.062.844 3.354 2.261 3.354Zm0-.697c-.919 0-1.457-1.022-1.457-2.657v-.009c0-1.635.538-2.648 1.457-2.648.92 0 1.466 1.013 1.466 2.648v.009c0 1.635-.546 2.657-1.466 2.657Zm5.825.653c1.284 0 2.226-.791 2.226-1.862v-.008c0-.911-.636-1.493-1.569-1.573v-.018c.8-.169 1.36-.711 1.36-1.502v-.008c0-.973-.804-1.653-2.026-1.653-1.2 0-2.026.697-2.128 1.741l-.005.045h.769l.004-.045c.067-.648.605-1.048 1.36-1.048.782 0 1.222.386 1.222 1.057v.009c0 .64-.534 1.111-1.298 1.111h-.768v.675h.804c.897 0 1.462.44 1.462 1.226v.009c0 .68-.574 1.151-1.413 1.151-.853 0-1.435-.435-1.497-1.066l-.005-.045h-.768l.004.054c.084 1.012.942 1.75 2.266 1.75Zm6.3-.107h.746v-4.896h.049l2.026 4.896h.675l2.026-4.896h.049v4.896h.746v-6.41h-.928l-2.195 5.349h-.071l-2.195-5.349h-.928v6.41Zm9.227.085c.645 0 1.147-.28 1.449-.791h.071v.706h.773v-3.278c0-.996-.653-1.595-1.822-1.595-1.022 0-1.75.506-1.875 1.257l-.004.027h.773l.005-.014c.124-.373.502-.586 1.075-.586.715 0 1.075.32 1.075.911v.435l-1.373.084c-1.115.067-1.746.56-1.746 1.413v.009c0 .871.689 1.422 1.599 1.422Zm-.808-1.44v-.009c0-.475.32-.733 1.048-.777l1.28-.08v.435c0 .685-.573 1.2-1.36 1.2-.555 0-.968-.284-.968-.769Zm4.571 1.355h.774v-2.967c0-.702.524-1.169 1.261-1.169.169 0 .316.018.476.045v-.751a2.518 2.518 0 0 0-.387-.031c-.649 0-1.097.293-1.279.795h-.071v-.711h-.774v4.789Z" class="1.03"/>
              <path fill="#B3B3B3" d="M650.784 499.178c1.417 0 2.27-1.292 2.27-3.354v-.009c0-2.061-.853-3.35-2.27-3.35s-2.261 1.289-2.261 3.35v.009c0 2.062.844 3.354 2.261 3.354Zm0-.697c-.92 0-1.457-1.022-1.457-2.657v-.009c0-1.635.537-2.648 1.457-2.648s1.466 1.013 1.466 2.648v.009c0 1.635-.546 2.657-1.466 2.657Zm5.749.697c1.302 0 2.23-.901 2.23-2.194v-.009c0-1.24-.866-2.142-2.07-2.142-.582 0-1.084.236-1.368.667h-.072l.218-2.168h2.937v-.715h-3.568l-.337 3.683h.693a1.5 1.5 0 0 1 .293-.383c.275-.262.64-.39 1.066-.39.831 0 1.426.608 1.426 1.461v.009c0 .866-.586 1.475-1.439 1.475-.751 0-1.306-.489-1.382-1.102l-.004-.035h-.769l.005.049c.093 1.026.946 1.794 2.141 1.794Zm6.296-.151h.746v-4.896h.049l2.026 4.896h.675l2.026-4.896h.049v4.896h.746v-6.41h-.928l-2.195 5.349h-.071l-2.195-5.349h-.928v6.41Zm9.227.085c.644 0 1.146-.28 1.448-.791h.072v.706h.773v-3.278c0-.996-.654-1.595-1.822-1.595-1.022 0-1.75.506-1.875 1.257l-.004.027h.773l.004-.014c.125-.373.502-.586 1.075-.586.716 0 1.076.32 1.076.911v.435l-1.373.084c-1.115.067-1.746.56-1.746 1.413v.009c0 .871.688 1.422 1.599 1.422Zm-.808-1.44v-.009c0-.475.319-.733 1.048-.777l1.28-.08v.435c0 .685-.574 1.2-1.36 1.2-.555 0-.968-.284-.968-.769Zm4.571 1.355h.773v-2.967c0-.702.525-1.169 1.262-1.169.169 0 .315.018.475.045v-.751a2.503 2.503 0 0 0-.386-.031c-.649 0-1.097.293-1.28.795h-.071v-.711h-.773v4.789Z" class="1.04"/>
              <path fill="#B3B3B3" d="M420.267 499.178c1.418 0 2.271-1.292 2.271-3.354v-.009c0-2.061-.853-3.35-2.271-3.35-1.417 0-2.261 1.289-2.261 3.35v.009c0 2.062.844 3.354 2.261 3.354Zm0-.697c-.919 0-1.457-1.022-1.457-2.657v-.009c0-1.635.538-2.648 1.457-2.648.92 0 1.466 1.013 1.466 2.648v.009c0 1.635-.546 2.657-1.466 2.657Zm3.643.546h4.15v-.719h-3.039v-.071l1.457-1.507c1.16-1.195 1.475-1.728 1.475-2.461v-.009c0-1.035-.857-1.795-1.977-1.795-1.226 0-2.105.818-2.11 1.955l.009.005.764.004.005-.009c0-.755.51-1.257 1.279-1.257.755 0 1.213.506 1.213 1.182v.009c0 .559-.24.893-1.057 1.777l-2.169 2.345v.551Zm8.269 0h.746v-4.896h.049l2.026 4.896h.675l2.026-4.896h.049v4.896h.746v-6.41h-.928l-2.195 5.349h-.071l-2.195-5.349h-.928v6.41Zm9.227.085c.644 0 1.146-.28 1.449-.791h.071v.706h.773v-3.278c0-.996-.653-1.595-1.822-1.595-1.022 0-1.75.506-1.875 1.257l-.004.027h.773l.004-.014c.125-.373.502-.586 1.076-.586.715 0 1.075.32 1.075.911v.435l-1.373.084c-1.115.067-1.746.56-1.746 1.413v.009c0 .871.689 1.422 1.599 1.422Zm-.808-1.44v-.009c0-.475.32-.733 1.048-.777l1.28-.08v.435c0 .685-.573 1.2-1.36 1.2-.555 0-.968-.284-.968-.769Zm4.571 1.355h.773v-2.967c0-.702.525-1.169 1.262-1.169.169 0 .316.018.475.045v-.751a2.491 2.491 0 0 0-.386-.031c-.649 0-1.097.293-1.28.795h-.071v-.711h-.773v4.789Z" class="1.02"/>
              <path fill="#B3B3B3" d="M573.945 499.178c1.417 0 2.27-1.292 2.27-3.354v-.009c0-2.061-.853-3.35-2.27-3.35s-2.261 1.289-2.261 3.35v.009c0 2.062.844 3.354 2.261 3.354Zm0-.697c-.92 0-1.457-1.022-1.457-2.657v-.009c0-1.635.537-2.648 1.457-2.648s1.466 1.013 1.466 2.648v.009c0 1.635-.546 2.657-1.466 2.657Zm6.571.546h.782v-1.328h.911v-.715h-.911v-4.367h-1.16a100.82 100.82 0 0 0-2.745 4.353v.729h3.123v1.328Zm-2.306-2.039v-.053a82.245 82.245 0 0 1 2.257-3.577h.053v3.63h-2.31Zm8.011 2.039h.746v-4.896h.049l2.026 4.896h.675l2.026-4.896h.049v4.896h.746v-6.41h-.928l-2.195 5.349h-.071l-2.195-5.349h-.928v6.41Zm9.227.085c.644 0 1.147-.28 1.449-.791h.071v.706h.773v-3.278c0-.996-.653-1.595-1.822-1.595-1.022 0-1.75.506-1.875 1.257l-.004.027h.773l.004-.014c.125-.373.502-.586 1.076-.586.715 0 1.075.32 1.075.911v.435l-1.373.084c-1.115.067-1.746.56-1.746 1.413v.009c0 .871.689 1.422 1.599 1.422Zm-.808-1.44v-.009c0-.475.32-.733 1.048-.777l1.28-.08v.435c0 .685-.573 1.2-1.36 1.2-.555 0-.968-.284-.968-.769Zm4.571 1.355h.773v-2.967c0-.702.525-1.169 1.262-1.169.169 0 .316.018.476.045v-.751a2.518 2.518 0 0 0-.387-.031c-.649 0-1.097.293-1.279.795h-.072v-.711h-.773v4.789Z" class="1.03"/>
              <path fill="#B3B3B3" d="M727.623 499.535c1.417 0 2.27-1.293 2.27-3.354v-.009c0-2.062-.853-3.35-2.27-3.35s-2.262 1.288-2.262 3.35v.009c0 2.061.845 3.354 2.262 3.354Zm0-.698c-.92 0-1.457-1.021-1.457-2.656v-.009c0-1.635.537-2.648 1.457-2.648.919 0 1.466 1.013 1.466 2.648v.009c0 1.635-.547 2.656-1.466 2.656Zm5.909.698c1.293 0 2.243-.929 2.243-2.208v-.009c0-1.231-.897-2.146-2.101-2.146-.866 0-1.471.467-1.706.991h-.085c0-.049 0-.102.005-.151.049-1.337.524-2.475 1.688-2.475.649 0 1.098.333 1.293.871l.018.049h.804l-.013-.058c-.218-.946-1.018-1.577-2.093-1.577-1.555 0-2.466 1.279-2.466 3.465v.009c0 2.412 1.24 3.239 2.413 3.239Zm-1.457-2.217v-.005c0-.835.63-1.443 1.461-1.443.831 0 1.435.613 1.435 1.466v.009c0 .83-.644 1.483-1.448 1.483-.813 0-1.448-.666-1.448-1.51Zm7.761 2.066h.747v-4.896h.048l2.026 4.896h.676l2.025-4.896h.049v4.896h.747v-6.411h-.929l-2.194 5.349h-.072l-2.194-5.349h-.929v6.411Zm9.228.084c.644 0 1.146-.28 1.448-.791h.071v.707h.773v-3.279c0-.995-.653-1.595-1.821-1.595-1.022 0-1.751.507-1.875 1.257l-.005.027h.774l.004-.013c.124-.373.502-.587 1.075-.587.715 0 1.075.32 1.075.911v.435l-1.373.085c-1.115.067-1.746.56-1.746 1.413v.009c0 .87.689 1.421 1.6 1.421Zm-.809-1.439v-.009c0-.475.32-.733 1.049-.778l1.279-.08v.436c0 .684-.573 1.199-1.359 1.199-.556 0-.969-.284-.969-.768Zm4.572 1.355h.773v-2.968c0-.702.524-1.168 1.262-1.168.169 0 .315.017.475.044v-.751a2.636 2.636 0 0 0-.386-.031c-.649 0-1.098.293-1.28.795h-.071v-.71h-.773v4.789Zm50.81.151c1.418 0 2.271-1.293 2.271-3.354v-.009c0-2.062-.853-3.35-2.271-3.35-1.417 0-2.261 1.288-2.261 3.35v.009c0 2.061.844 3.354 2.261 3.354Zm0-.698c-.919 0-1.457-1.021-1.457-2.656v-.009c0-1.635.538-2.648 1.457-2.648.92 0 1.467 1.013 1.467 2.648v.009c0 1.635-.547 2.656-1.467 2.656Zm3.732.547h.84l2.852-5.669v-.742h-4.242v.715h3.429v.062l-2.879 5.634Zm7.691 0h.746v-4.896h.049l2.026 4.896h.675l2.026-4.896h.049v4.896h.747v-6.411h-.929l-2.195 5.349h-.071l-2.194-5.349h-.929v6.411Zm9.228.084c.644 0 1.146-.28 1.448-.791h.071v.707h.773v-3.279c0-.995-.653-1.595-1.821-1.595-1.022 0-1.751.507-1.875 1.257l-.005.027h.773l.005-.013c.124-.373.502-.587 1.075-.587.715 0 1.075.32 1.075.911v.435l-1.373.085c-1.115.067-1.746.56-1.746 1.413v.009c0 .87.689 1.421 1.6 1.421Zm-.809-1.439v-.009c0-.475.32-.733 1.049-.778l1.279-.08v.436c0 .684-.573 1.199-1.359 1.199-.556 0-.969-.284-.969-.768Zm4.572 1.355h.773v-2.968c0-.702.524-1.168 1.262-1.168.168 0 .315.017.475.044v-.751a2.652 2.652 0 0 0-.387-.031c-.648 0-1.097.293-1.279.795h-.071v-.71h-.773v4.789Z" class="1.04"/>
            </g>
          </g>
          <g class="Group 77">
            <g class="Group 52">
              <path fill="#00BF96" d="M372.351 541.639h.984v-8.16h-.995l-2.171 1.561v1.023l2.16-1.504h.022v7.08Zm5.242.113c.842 0 1.498-.424 1.866-1.108h.022v.995h.984v-8.16h-.984v3.263h-.022c-.368-.679-1.052-1.097-1.883-1.097-1.476 0-2.482 1.193-2.482 3.048v.005c0 1.855.995 3.054 2.499 3.054Zm.192-.871c-1.04 0-1.685-.831-1.685-2.183v-.005c0-1.34.645-2.177 1.685-2.177.989 0 1.702.865 1.702 2.177v.005c0 1.318-.707 2.183-1.702 2.183Z" class="Неделя"/>
            </g>
            <g class="Group 51">
              <rect width="65.468" height="26.469" x="420.02" y="524.021" fill="#00BF96" class="Rectangle 4 Copy 8.1" rx="13.234"/>
              <path fill="#fff" d="M447.296 541.639h.984v-8.16h-.996l-2.171 1.561v1.023l2.16-1.504h.023v7.08Zm4.195 0h1.001l1.323-4.552h.023l1.329 4.552h1l1.64-5.881h-.972l-1.176 4.784h-.023l-1.334-4.784h-.95l-1.329 4.784H452l-1.176-4.784h-.978l1.645 5.881Z" class="Неделя"/>
            </g>
            <g class="Group 51.1">
              <path fill="#00BF96" d="M525.646 541.639h.984v-8.16h-.995l-2.171 1.561v1.023l2.16-1.504h.022v7.08Zm3.031 0h.984v-3.687c0-.82.565-1.436 1.346-1.436.729 0 1.204.469 1.204 1.182v3.941h.984v-3.738c0-.803.548-1.385 1.329-1.385.774 0 1.221.48 1.221 1.289v3.834h.984v-4.06c0-1.171-.752-1.934-1.917-1.934-.825 0-1.515.424-1.843 1.131h-.023c-.254-.718-.848-1.131-1.651-1.131-.758 0-1.346.39-1.611.973h-.023v-.86h-.984v5.881Z" class="Неделя"/>
            </g>
            <g class="Group 51.2">
              <path fill="#00BF96" d="M602.081 541.774c1.635 0 2.833-1.006 2.833-2.369v-.011c0-1.159-.808-1.9-1.996-2.002v-.022c1.018-.215 1.73-.905 1.73-1.912v-.011c0-1.238-1.023-2.103-2.578-2.103-1.527 0-2.578.887-2.708 2.216l-.006.057h.978l.006-.057c.085-.825.769-1.334 1.73-1.334.995 0 1.555.492 1.555 1.346v.011c0 .814-.678 1.413-1.651 1.413h-.978v.86h1.023c1.142 0 1.86.56 1.86 1.561v.011c0 .865-.729 1.464-1.798 1.464-1.085 0-1.82-.554-1.905-1.357l-.006-.056h-.978l.006.068c.107 1.289 1.198 2.227 2.883 2.227Zm4.083-.135h.984v-3.687c0-.82.565-1.436 1.345-1.436.73 0 1.205.469 1.205 1.182v3.941h.984v-3.738c0-.803.548-1.385 1.328-1.385.775 0 1.222.48 1.222 1.289v3.834h.984v-4.06c0-1.171-.752-1.934-1.917-1.934-.826 0-1.516.424-1.844 1.131h-.022c-.255-.718-.848-1.131-1.651-1.131-.758 0-1.346.39-1.612.973h-.022v-.86h-.984v5.881Z" class="Неделя"/>
            </g>
            <g class="Group 51.3">
              <path fill="#00BF96" d="M681.482 541.639h.984v-8.16h-.995l-2.171 1.561v1.023l2.16-1.504h.022v7.08Zm3.597 1.979c1.063 0 1.577-.487 1.996-1.612l2.295-6.248h-1.035l-1.628 4.897h-.023l-1.622-4.897h-1.052l2.182 5.886-.118.334c-.238.667-.583.825-1.205.825a1.65 1.65 0 0 1-.316-.033v.802c.124.023.333.046.526.046Z" class="Неделя"/>
            </g>
            <g class="Group 51.4">
              <path fill="#00BF96" d="M782.309 541.774c2.313 0 3.755-1.622 3.755-4.212v-.011c0-2.584-1.448-4.207-3.755-4.207-2.312 0-3.765 1.623-3.765 4.207v.011c0 2.59 1.447 4.212 3.765 4.212Zm0-.938c-1.673 0-2.725-1.267-2.725-3.274v-.011c0-2.008 1.057-3.269 2.725-3.269 1.663 0 2.714 1.267 2.714 3.269v.011c0 1.99-1.034 3.274-2.714 3.274Zm6.78.916c.192 0 .401-.023.526-.04v-.797c-.085.006-.198.023-.317.023-.526 0-.803-.176-.803-.803v-3.563h1.12v-.814h-1.12v-1.589h-1.018v1.589h-.859v.814h.859v3.568c0 1.125.532 1.612 1.612 1.612Zm1.634-.113h.984v-3.433c0-1 .605-1.69 1.515-1.69.916 0 1.459.627 1.459 1.69v3.433h.984v-3.602c0-1.425-.854-2.392-2.104-2.392-.876 0-1.515.39-1.832 1.052h-.022v-3.218h-.984v8.16Zm8.612.113c1.283 0 2.244-.769 2.437-1.742l.011-.056h-.967l-.017.051c-.17.503-.696.876-1.442.876-1.046 0-1.713-.707-1.736-1.917h4.235v-.362c0-1.764-.978-2.957-2.584-2.957s-2.646 1.25-2.646 3.07v.006c0 1.849 1.018 3.031 2.709 3.031Zm-.068-5.236c.859 0 1.492.537 1.589 1.679h-3.218c.108-1.097.775-1.679 1.629-1.679Zm3.585 5.123h.983v-3.63c0-.894.498-1.425 1.261-1.425.238 0 .447.028.526.056v-.955c-.079-.012-.226-.04-.396-.04-.661 0-1.17.43-1.368 1.108h-.023v-.995h-.983v5.881Z" class="Неделя"/>
            </g>
          </g>
          <g class="Group 87">
            <g class="Rectangle 6.4" filter="url(#c)">
              <path fill="#00A885" d="M19.234 132.551c0-9.137 7.407-16.543 16.543-16.543h263.034c9.136 0 16.543 7.406 16.543 16.543v33.086c0 9.136-7.407 16.543-16.543 16.543H35.777c-9.136 0-16.543-7.407-16.543-16.543v-33.086Z"/>
            </g>
            <path fill="#fff" fill-opacity=".9" d="M40.005 141.068h1.585v-2.772h1.297l1.413 2.772h1.795L44.5 138.06c.866-.341 1.37-1.176 1.37-2.148v-.01c0-1.491-.987-2.41-2.709-2.41h-3.155v7.576Zm1.585-3.927v-2.41h1.376c.793 0 1.281.473 1.281 1.202v.011c0 .745-.467 1.197-1.26 1.197H41.59Zm8.015 4.048c1.69 0 2.436-.976 2.614-1.701l.01-.053h-1.427l-.016.032c-.105.22-.478.578-1.15.578-.814 0-1.323-.552-1.339-1.502h3.98v-.478c0-1.748-1.05-2.903-2.735-2.903-1.686 0-2.762 1.181-2.762 3.019v.005c0 1.853 1.066 3.003 2.825 3.003Zm-.037-4.878c.667 0 1.145.431 1.239 1.271h-2.494c.095-.819.588-1.271 1.255-1.271Zm5.253 4.757h1.722l2-5.78h-1.612l-1.186 4.347h-.095l-1.197-4.347h-1.644l2.012 5.78Zm6.99.121c1.69 0 2.436-.976 2.615-1.701l.01-.053h-1.428l-.016.032c-.105.22-.477.578-1.15.578-.813 0-1.323-.552-1.338-1.502h3.98v-.478c0-1.748-1.05-2.903-2.736-2.903-1.685 0-2.762 1.181-2.762 3.019v.005c0 1.853 1.066 3.003 2.825 3.003Zm-.037-4.878c.667 0 1.145.431 1.24 1.271h-2.495c.095-.819.588-1.271 1.255-1.271Zm3.898 4.757h1.533v-3.344c0-.782.43-1.292 1.14-1.292.724 0 1.06.431 1.06 1.245v3.391h1.533v-3.738c0-1.381-.693-2.168-1.98-2.168-.823 0-1.396.393-1.658 1.018h-.095v-.892h-1.533v5.78Zm8.597.121c.825 0 1.412-.383 1.675-1.013h.095v.892h1.533v-5.78h-1.533v3.339c0 .782-.41 1.292-1.166 1.292-.725 0-1.034-.426-1.034-1.245v-3.386h-1.534v3.738c0 1.376.667 2.163 1.964 2.163Zm7.316 0c1.69 0 2.436-.976 2.615-1.701l.01-.053h-1.428l-.016.032c-.105.22-.477.578-1.15.578-.813 0-1.323-.552-1.338-1.502h3.98v-.478c0-1.748-1.05-2.903-2.736-2.903-1.685 0-2.762 1.181-2.762 3.019v.005c0 1.853 1.066 3.003 2.825 3.003Zm-.037-4.878c.667 0 1.145.431 1.24 1.271h-2.495c.095-.819.589-1.271 1.255-1.271Zm177.383 2.389h2.269v2.2h1.38v-2.2h2.274v-1.38h-2.274v-2.2h-1.38v2.2h-2.269v1.38Zm10.188 2.563c1.875 0 3.009-1.534 3.009-3.98v-.011c0-2.452-1.134-3.974-3.009-3.974-1.869 0-3.008 1.522-3.008 3.974v.011c0 2.446 1.139 3.98 3.008 3.98Zm0-1.255c-.892 0-1.402-1.014-1.402-2.725v-.011c0-1.717.51-2.719 1.402-2.719.898 0 1.407 1.002 1.407 2.719v.011c0 1.711-.509 2.725-1.407 2.725Zm3.683 3.098h1.024l.955-3.25h-1.517l-.462 3.25Zm6.166-9.814c-1.706 0-2.903 1.145-2.903 2.694v.01c0 1.434.992 2.484 2.467 2.484 1.05 0 1.68-.525 1.953-1.108h.105v.168c-.057 1.381-.54 2.457-1.638 2.457-.609 0-1.039-.32-1.223-.793l-.016-.047h-1.554l.011.047c.236 1.187 1.323 2.053 2.788 2.053 1.942 0 3.139-1.507 3.139-4.042v-.011c0-2.662-1.375-3.912-3.129-3.912Zm0 4.017c-.793 0-1.37-.572-1.37-1.37v-.011c0-.772.614-1.375 1.381-1.375.771 0 1.375.614 1.375 1.407v.01c0 .782-.604 1.339-1.386 1.339Zm7.285-4.017c-1.707 0-2.904 1.145-2.904 2.694v.01c0 1.434.992 2.484 2.468 2.484 1.05 0 1.68-.525 1.953-1.108h.105v.168c-.058 1.381-.541 2.457-1.638 2.457-.609 0-1.04-.32-1.224-.793l-.015-.047h-1.554l.01.047c.236 1.187 1.323 2.053 2.788 2.053 1.943 0 3.14-1.507 3.14-4.042v-.011c0-2.662-1.376-3.912-3.129-3.912Zm0 4.017c-.793 0-1.371-.572-1.371-1.37v-.011c0-.772.614-1.375 1.381-1.375.772 0 1.376.614 1.376 1.407v.01c0 .782-.604 1.339-1.386 1.339Zm6.176.336c1.113 0 1.791-.819 1.791-2.132v-.005c0-1.312-.678-2.126-1.791-2.126-1.108 0-1.79.814-1.79 2.126v.005c0 1.313.682 2.132 1.79 2.132Zm1.166 3.423 5.098-7.576h-1.213l-5.098 7.576h1.213Zm-1.166-4.263c-.457 0-.714-.467-.714-1.292v-.005c0-.829.257-1.286.714-1.286.462 0 .719.457.719 1.286v.005c0 .825-.257 1.292-.719 1.292Zm6.211 4.374c1.114 0 1.791-.819 1.791-2.132v-.005c0-1.313-.677-2.127-1.791-2.127-1.107 0-1.79.814-1.79 2.127v.005c0 1.313.683 2.132 1.79 2.132Zm0-.84c-.456 0-.714-.468-.714-1.292v-.005c0-.83.258-1.287.714-1.287.462 0 .72.457.72 1.287v.005c0 .824-.258 1.292-.72 1.292Z" class="Настройки магазина"/>
            <g class="ic_arrow-grow_m">
              <g class="Group 4">
                <path fill="#fff" d="M278.131 152.402v-1.654h8.271v8.272h-1.654v-6.618h-6.617Z" class="Vector 1"/>
                <path fill="#fff" fill-rule="evenodd" d="m285.576 152.818-9.099 9.099-1.241-1.241 9.099-9.099 1.241 1.241Z" class="Vector 2 (Stroke)" clip-rule="evenodd"/>
              </g>
            </g>
            <path fill="#fff" fill-opacity=".9" d="M39.95 160.96h8.191v-1.704h-5.436v-.089l2.568-2.44c2.052-1.971 2.69-2.9 2.69-4.273v-.016c0-1.922-1.631-3.336-3.966-3.336-2.367 0-4.16 1.527-4.16 3.659v.057h1.955v-.057c.024-1.123.929-1.987 2.221-1.987 1.123 0 1.907.743 1.915 1.785v.016c0 .865-.331 1.454-1.858 2.949l-4.12 4.014v1.422Zm14.378.202c2.576 0 4.378-1.648 4.378-4.047v-.016c0-2.213-1.6-3.821-3.82-3.821-1.172 0-2.133.461-2.642 1.244h-.04l.322-3.514h5.493v-1.704h-7.157l-.557 6.777h1.818c.137-.258.33-.485.549-.662.444-.372 1.018-.574 1.68-.574 1.365 0 2.342.953 2.342 2.286v.016c0 1.365-.96 2.319-2.35 2.319-1.228 0-2.117-.752-2.286-1.729l-.008-.057h-1.955l.008.105c.154 1.931 1.801 3.377 4.225 3.377Zm10.46 0c2.665 0 4.531-1.389 4.531-3.377v-.016c0-1.478-1.082-2.625-2.625-2.94v-.048c1.325-.356 2.197-1.325 2.197-2.569v-.016c0-1.785-1.696-3.094-4.104-3.094-2.399 0-4.103 1.309-4.103 3.094v.016c0 1.244.873 2.213 2.197 2.569v.048c-1.543.315-2.617 1.462-2.617 2.94v.016c0 1.988 1.858 3.377 4.523 3.377Zm0-7.044c-1.212 0-2.044-.703-2.044-1.712v-.016c0-1.01.84-1.713 2.043-1.713 1.204 0 2.044.703 2.044 1.713v.016c0 1.009-.832 1.712-2.044 1.712Zm0 5.453c-1.39 0-2.383-.8-2.383-1.915v-.016c0-1.123.977-1.93 2.382-1.93 1.406 0 2.383.807 2.383 1.93v.016c0 1.115-.985 1.915-2.383 1.915Zm12.963 1.389h2.043v-11.656h-2.06l-3.045 2.141v1.914l3.013-2.068h.049v9.669Zm9.401.202c2.577 0 4.378-1.648 4.378-4.047v-.016c0-2.213-1.599-3.821-3.82-3.821-1.172 0-2.133.461-2.642 1.244h-.04l.323-3.514h5.493v-1.704h-7.157l-.557 6.777h1.817c.137-.258.331-.485.55-.662.444-.372 1.017-.574 1.68-.574 1.365 0 2.342.953 2.342 2.286v.016c0 1.365-.961 2.319-2.35 2.319-1.228 0-2.117-.752-2.287-1.729l-.008-.057H82.92l.008.105c.153 1.931 1.801 3.377 4.224 3.377Zm10.517 0c2.851 0 4.58-2.318 4.58-6.026v-.016c0-3.708-1.729-6.018-4.58-6.018-2.86 0-4.58 2.31-4.58 6.018v.016c0 3.708 1.72 6.026 4.58 6.026Zm0-1.704c-1.575 0-2.48-1.632-2.48-4.322v-.016c0-2.69.905-4.306 2.48-4.306 1.567 0 2.479 1.616 2.479 4.306v.016c0 2.69-.912 4.322-2.48 4.322Zm10.079 1.502h8.191v-1.704h-5.436v-.089l2.568-2.44c2.052-1.971 2.69-2.9 2.69-4.273v-.016c0-1.922-1.632-3.336-3.966-3.336-2.367 0-4.16 1.527-4.16 3.659v.057h1.955v-.057c.024-1.123.929-1.987 2.221-1.987 1.123 0 1.906.743 1.915 1.785v.016c0 .865-.332 1.454-1.858 2.949l-4.12 4.014v1.422Zm14.378.202c2.576 0 4.378-1.648 4.378-4.047v-.016c0-2.213-1.6-3.821-3.821-3.821-1.171 0-2.133.461-2.641 1.244h-.041l.323-3.514h5.493v-1.704h-7.157l-.557 6.777h1.817a2.2 2.2 0 0 1 .55-.662c.444-.372 1.017-.574 1.68-.574 1.365 0 2.342.953 2.342 2.286v.016c0 1.365-.961 2.319-2.35 2.319-1.228 0-2.117-.752-2.286-1.729l-.008-.057h-1.955l.008.105c.153 1.931 1.801 3.377 4.225 3.377Zm10.637 0c2.512 0 4.354-1.688 4.354-4.039v-.016c0-2.189-1.575-3.805-3.821-3.805-1.583 0-2.746.808-3.207 1.874h-.04c0-.129 0-.25.008-.371.081-2.205.864-3.999 2.738-3.999 1.042 0 1.761.517 2.068 1.317l.033.073h2.067l-.016-.089c-.371-1.761-1.979-3.005-4.135-3.005-2.973 0-4.758 2.302-4.758 6.155v.016c0 4.088 2.132 5.889 4.709 5.889Zm-2.359-4.007v-.008c0-1.3 1.018-2.237 2.351-2.237s2.31.945 2.31 2.27v.016c0 1.26-1.034 2.262-2.334 2.262-1.301 0-2.327-1.01-2.327-2.303Zm8.069 6.188h1.406l1.179-4.281h-1.947l-.638 4.281Zm8.933-2.181c2.852 0 4.58-2.318 4.58-6.026v-.016c0-3.708-1.728-6.018-4.58-6.018-2.859 0-4.58 2.31-4.58 6.018v.016c0 3.708 1.721 6.026 4.58 6.026Zm0-1.704c-1.575 0-2.479-1.632-2.479-4.322v-.016c0-2.69.904-4.306 2.479-4.306 1.567 0 2.48 1.616 2.48 4.306v.016c0 2.69-.913 4.322-2.48 4.322Zm10.864 1.704c2.851 0 4.58-2.318 4.58-6.026v-.016c0-3.708-1.729-6.018-4.58-6.018-2.859 0-4.58 2.31-4.58 6.018v.016c0 3.708 1.721 6.026 4.58 6.026Zm0-1.704c-1.575 0-2.48-1.632-2.48-4.322v-.016c0-2.69.905-4.306 2.48-4.306 1.567 0 2.48 1.616 2.48 4.306v.016c0 2.69-.913 4.322-2.48 4.322Zm9.748-.477h1.567v1.737h2.036v-1.737h3.191v-.872h-3.191v-1.341h2.019c2.319 0 3.861-1.47 3.861-3.595v-.016c0-2.116-1.526-3.611-3.844-3.611h-4.072v6.349h-1.567v.873h1.567v1.341h-1.567v.872Zm3.603-3.837v-3.926h1.47c1.559 0 2.343.711 2.343 1.955v.016c0 1.236-.792 1.955-2.343 1.955h-1.47Z" class="Настройки магазина"/>
          </g>
          <g class="Group 88">
            <g class="Rectangle 6.4" filter="url(#d)">
              <path fill="#fff" d="M19.234 213.132c0-9.137 7.407-16.543 16.543-16.543h263.034c9.136 0 16.543 7.406 16.543 16.543v33.086c0 9.136-7.407 16.543-16.543 16.543H35.777c-9.136 0-16.543-7.407-16.543-16.543v-33.086Z"/>
            </g>
            <path fill="#666" d="M39.464 221.649h1.664l.562-1.837h2.673l.561 1.837h1.67l-2.636-7.576h-1.864l-2.63 7.576Zm3.518-6.064h.094l.924 3.04h-1.948l.93-3.04Zm5.51 6.064h1.722l2-5.78h-1.612l-1.186 4.347h-.095l-1.197-4.347h-1.643l2.01 5.78Zm6.99.121c1.69 0 2.436-.976 2.615-1.701l.01-.052H56.68l-.016.031c-.105.221-.477.578-1.15.578-.813 0-1.323-.552-1.338-1.502h3.98v-.478c0-1.748-1.05-2.903-2.736-2.903-1.685 0-2.762 1.181-2.762 3.019v.005c0 1.853 1.066 3.003 2.825 3.003Zm-.037-4.877c.667 0 1.145.43 1.24 1.27H54.19c.095-.819.589-1.27 1.255-1.27Zm3.898 4.756h1.533v-3.234c0-.819.552-1.318 1.423-1.318.236 0 .473.037.704.09v-1.339a2.295 2.295 0 0 0-.572-.074c-.751 0-1.276.368-1.46.992h-.095v-.897h-1.533v5.78Zm6.088.09c.756 0 1.365-.321 1.659-.856h.094v.766h1.512v-3.948c0-1.234-.866-1.958-2.4-1.958-1.454 0-2.41.672-2.53 1.685l-.005.047h1.417l.011-.021c.12-.341.473-.535 1.024-.535.63 0 .971.283.971.782v.478l-1.396.084c-1.439.084-2.242.693-2.242 1.733v.01c0 1.05.782 1.733 1.885 1.733Zm-.389-1.827v-.011c0-.42.32-.667.977-.709l1.165-.073v.425c0 .609-.53 1.076-1.239 1.076-.53 0-.903-.267-.903-.708Zm7.641 3.769c1.749 0 2.857-.855 2.857-2.21v-5.602h-1.533v.945h-.074c-.31-.651-.93-1.04-1.722-1.04-1.48 0-2.379 1.145-2.379 2.846v.01c0 1.644.898 2.767 2.353 2.767.803 0 1.412-.33 1.732-.939h.095v1.076c0 .672-.478 1.055-1.297 1.055-.683 0-1.082-.231-1.166-.567l-.005-.021h-1.517v.026c.126.982 1.055 1.654 2.656 1.654Zm.021-3.46c-.83 0-1.302-.646-1.302-1.596v-.01c0-.951.478-1.596 1.302-1.596.825 0 1.324.645 1.324 1.596v.01c0 .95-.494 1.596-1.324 1.596Zm6.844 1.549c1.69 0 2.436-.976 2.615-1.701l.01-.052h-1.428l-.016.031c-.105.221-.478.578-1.15.578-.813 0-1.323-.552-1.338-1.502h3.98v-.478c0-1.748-1.05-2.903-2.736-2.903-1.686 0-2.762 1.181-2.762 3.019v.005c0 1.853 1.066 3.003 2.825 3.003Zm-.037-4.877c.667 0 1.145.43 1.24 1.27h-2.495c.095-.819.588-1.27 1.255-1.27Zm9.15 4.877c1.507 0 2.41-.808 2.568-2.069l.005-.031h-1.417l-.01.021c-.137.578-.51.877-1.14.877-.82 0-1.276-.646-1.276-1.817v-.01c0-1.155.452-1.796 1.276-1.796.656 0 1.04.368 1.14.929l.004.011h1.429v-.016c-.137-1.292-1.045-2.126-2.578-2.126-1.812 0-2.83 1.097-2.83 2.998v.01c0 1.922 1.024 3.019 2.83 3.019Zm3.762-.121h1.533v-3.344c0-.782.43-1.292 1.14-1.292.724 0 1.06.431 1.06 1.245v3.391h1.533v-3.738c0-1.381-.693-2.168-1.98-2.168-.824 0-1.396.393-1.658 1.018h-.095v-3.103h-1.533v7.991Zm9.227.121c1.691 0 2.436-.976 2.615-1.701l.01-.052h-1.428l-.015.031c-.105.221-.478.578-1.15.578-.814 0-1.323-.552-1.339-1.502h3.98v-.478c0-1.748-1.05-2.903-2.736-2.903-1.685 0-2.762 1.181-2.762 3.019v.005c0 1.853 1.066 3.003 2.825 3.003Zm-.037-4.877c.667 0 1.145.43 1.24 1.27h-2.494c.094-.819.588-1.27 1.254-1.27Zm6.445 4.877c1.507 0 2.41-.808 2.567-2.069l.006-.031h-1.418l-.011.021c-.136.578-.509.877-1.139.877-.819 0-1.276-.646-1.276-1.817v-.01c0-1.155.452-1.796 1.276-1.796.656 0 1.04.368 1.139.929l.006.011h1.428v-.016c-.137-1.292-1.045-2.126-2.578-2.126-1.812 0-2.83 1.097-2.83 2.998v.01c0 1.922 1.024 3.019 2.83 3.019Zm3.761-.121h1.533v-1.937l.42-.446 1.686 2.383h1.811l-2.373-3.328 2.221-2.452h-1.738l-1.932 2.284h-.095v-4.495h-1.533v7.991Zm147.322-2.368h3.492v-1.38h-3.492v1.38Zm7.962 2.563c1.875 0 3.009-1.533 3.009-3.98v-.011c0-2.452-1.134-3.974-3.009-3.974-1.869 0-3.008 1.522-3.008 3.974v.011c0 2.447 1.139 3.98 3.008 3.98Zm0-1.255c-.892 0-1.402-1.014-1.402-2.725v-.011c0-1.717.51-2.719 1.402-2.719.898 0 1.407 1.002 1.407 2.719v.011c0 1.711-.509 2.725-1.407 2.725Zm3.683 3.098h1.024l.955-3.25h-1.517l-.462 3.25Zm3.709-2.038h5.465v-1.275h-3.339v-.121l1.402-1.308c1.381-1.275 1.827-1.989 1.827-2.851v-.015c0-1.308-1.092-2.2-2.651-2.2-1.659 0-2.794.997-2.794 2.452l.006.021h1.465v-.027c0-.719.509-1.212 1.249-1.212.725 0 1.166.451 1.166 1.097v.016c0 .53-.289.913-1.355 1.948l-2.441 2.41v1.065Zm9.726.195c1.701 0 2.877-1.087 2.877-2.683v-.011c0-1.444-1.019-2.483-2.431-2.483-.725 0-1.313.315-1.617.824h-.095l.189-2.158h3.502v-1.26h-4.736l-.351 4.484h1.359c.084-.163.211-.305.352-.42.252-.215.578-.326.961-.326.803 0 1.376.562 1.376 1.371v.01c0 .814-.567 1.386-1.381 1.386-.714 0-1.234-.446-1.344-1.003l-.011-.036h-1.438l.005.073c.089 1.266 1.16 2.232 2.783 2.232Zm5.898-3.618c1.113 0 1.79-.819 1.79-2.132v-.005c0-1.312-.677-2.126-1.79-2.126-1.108 0-1.79.814-1.79 2.126v.005c0 1.313.682 2.132 1.79 2.132Zm1.166 3.423 5.098-7.576h-1.213l-5.098 7.576h1.213Zm-1.166-4.263c-.457 0-.714-.467-.714-1.292v-.005c0-.829.257-1.286.714-1.286.462 0 .719.457.719 1.286v.005c0 .825-.257 1.292-.719 1.292Zm6.211 4.374c1.113 0 1.791-.819 1.791-2.132v-.005c0-1.313-.678-2.127-1.791-2.127-1.108 0-1.79.814-1.79 2.127v.005c0 1.313.682 2.132 1.79 2.132Zm0-.84c-.457 0-.714-.468-.714-1.292v-.005c0-.83.257-1.287.714-1.287.462 0 .72.457.72 1.287v.005c0 .824-.258 1.292-.72 1.292Z" class="Настройки магазина"/>
            <g class="ic_arrow-fall_m">
              <g class="Group 4">
                <path fill="#000" d="M278.132 241.255v1.654h8.271v-8.271h-1.654v6.617h-6.617Z" class="Vector 1"/>
                <path fill="#000" fill-rule="evenodd" d="m285.576 240.841-9.512-9.512-1.241 1.241 9.512 9.512 1.241-1.241Z" class="Vector 2 (Stroke)" clip-rule="evenodd"/>
              </g>
            </g>
            <path fill="#000" d="M42.89 241.541h2.044v-11.656h-2.06l-3.045 2.141v1.914l3.013-2.068h.049v9.669Zm5.097 0h8.19v-1.704h-5.436v-.089l2.569-2.44c2.052-1.971 2.69-2.9 2.69-4.273v-.016c0-1.922-1.632-3.336-3.966-3.336-2.367 0-4.16 1.527-4.16 3.659v.057h1.954v-.057c.025-1.123.93-1.987 2.222-1.987 1.123 0 1.906.743 1.914 1.785v.016c0 .865-.331 1.454-1.858 2.949l-4.12 4.014v1.422Zm13.698 0h8.19v-1.704H64.44v-.089l2.57-2.44c2.05-1.971 2.689-2.9 2.689-4.273v-.016c0-1.922-1.632-3.336-3.966-3.336-2.367 0-4.16 1.527-4.16 3.659v.057h1.955v-.057c.024-1.123.929-1.987 2.221-1.987 1.123 0 1.906.743 1.914 1.785v.016c0 .865-.33 1.454-1.857 2.949l-4.12 4.014v1.422Zm14.377.202c2.577 0 4.379-1.648 4.379-4.047v-.016c0-2.213-1.6-3.821-3.821-3.821-1.172 0-2.133.461-2.642 1.244h-.04l.323-3.514h5.493v-1.704h-7.157l-.557 6.777h1.817c.138-.258.331-.485.55-.662.444-.372 1.017-.574 1.68-.574 1.365 0 2.342.953 2.342 2.286v.016c0 1.365-.961 2.319-2.35 2.319-1.228 0-2.117-.752-2.286-1.729l-.008-.056H71.83l.008.105c.153 1.93 1.801 3.376 4.224 3.376Zm10.638 0c2.512 0 4.354-1.688 4.354-4.039v-.016c0-2.189-1.575-3.805-3.82-3.805-1.584 0-2.747.808-3.208 1.874h-.04c0-.129 0-.25.008-.371.08-2.205.864-3.999 2.738-3.999 1.042 0 1.761.517 2.068 1.317l.032.073H90.9l-.016-.089c-.371-1.761-1.979-3.005-4.136-3.005-2.972 0-4.757 2.302-4.757 6.155v.016c0 4.088 2.132 5.889 4.709 5.889Zm-2.359-4.007v-.008c0-1.3 1.018-2.237 2.35-2.237 1.334 0 2.311.945 2.311 2.27v.016c0 1.26-1.034 2.262-2.334 2.262s-2.327-1.01-2.327-2.303Zm8.07 6.188h1.405l1.179-4.281h-1.947l-.638 4.281Zm8.932-2.181c2.852 0 4.58-2.318 4.58-6.026v-.016c0-3.708-1.728-6.018-4.58-6.018-2.86 0-4.58 2.31-4.58 6.018v.016c0 3.708 1.72 6.026 4.58 6.026Zm0-1.704c-1.575 0-2.48-1.632-2.48-4.322v-.016c0-2.69.905-4.305 2.48-4.305 1.567 0 2.48 1.615 2.48 4.305v.016c0 2.69-.913 4.322-2.48 4.322Zm10.864 1.704c2.851 0 4.58-2.318 4.58-6.026v-.016c0-3.708-1.729-6.018-4.58-6.018-2.86 0-4.58 2.31-4.58 6.018v.016c0 3.708 1.72 6.026 4.58 6.026Zm0-1.704c-1.575 0-2.48-1.632-2.48-4.322v-.016c0-2.69.905-4.305 2.48-4.305 1.567 0 2.48 1.615 2.48 4.305v.016c0 2.69-.913 4.322-2.48 4.322Zm9.748-.477h1.567v1.737h2.036v-1.737h3.191v-.872h-3.191v-1.341h2.019c2.319 0 3.861-1.47 3.861-3.595v-.016c0-2.116-1.526-3.611-3.845-3.611h-4.071v6.349h-1.567v.873h1.567v1.341h-1.567v.872Zm3.603-3.837v-3.926h1.47c1.559 0 2.342.711 2.342 1.955v.016c0 1.236-.791 1.955-2.342 1.955h-1.47Z" class="Настройки магазина"/>
          </g>
          <g class="Group 89">
            <g class="Rectangle 6.4" filter="url(#e)">
              <path fill="#fff" d="M19.234 293.709c0-9.136 7.407-16.543 16.543-16.543h263.034c9.136 0 16.543 7.407 16.543 16.543v33.086c0 9.136-7.407 16.543-16.543 16.543H35.777c-9.136 0-16.543-7.407-16.543-16.543v-33.086Z"/>
            </g>
            <path fill="#666" d="M39.464 302.227h1.664l.562-1.838h2.673l.561 1.838h1.67l-2.636-7.577h-1.864l-2.63 7.577Zm3.518-6.065h.094l.924 3.04h-1.948l.93-3.04Zm4.68 6.065h1.533v-3.487c0-.661.42-1.15 1.019-1.15.598 0 .95.363.95.982v3.655h1.533v-3.555c0-.625.4-1.082 1.019-1.082.64 0 .955.352.955 1.051v3.586h1.534v-3.97c0-1.192-.72-1.937-1.87-1.937-.808 0-1.48.425-1.743 1.066h-.094c-.237-.667-.82-1.066-1.607-1.066-.756 0-1.355.378-1.601 1.029h-.095v-.903h-1.533v5.781Zm12.53.12c1.78 0 2.85-1.123 2.85-3.008v-.011c0-1.869-1.086-3.008-2.85-3.008s-2.851 1.144-2.851 3.008v.011c0 1.879 1.07 3.008 2.85 3.008Zm0-1.202c-.82 0-1.281-.667-1.281-1.806v-.011c0-1.129.467-1.806 1.28-1.806.81 0 1.282.677 1.282 1.806v.011c0 1.139-.468 1.806-1.281 1.806Zm5.945 1.202c.825 0 1.413-.383 1.675-1.013h.095v.893h1.533v-5.781h-1.533v3.339c0 .782-.41 1.292-1.166 1.292-.725 0-1.034-.426-1.034-1.245v-3.386h-1.533v3.738c0 1.376.666 2.163 1.963 2.163Zm4.775-.12h1.533v-3.345c0-.782.43-1.292 1.14-1.292.724 0 1.06.431 1.06 1.245v3.392h1.533v-3.739c0-1.381-.693-2.168-1.98-2.168-.823 0-1.396.394-1.658 1.018h-.095v-.892h-1.533v5.781Zm9.085.021c.294 0 .578-.032.767-.069v-1.139a3.57 3.57 0 0 1-.452.026c-.52 0-.74-.231-.74-.751v-2.714h1.192v-1.155h-1.192v-1.381h-1.549v1.381h-.892v1.155h.892v3.066c0 1.124.567 1.581 1.974 1.581Zm7.25.099c1.78 0 2.851-1.123 2.851-3.008v-.011c0-1.869-1.087-3.008-2.85-3.008-1.765 0-2.852 1.144-2.852 3.008v.011c0 1.879 1.071 3.008 2.851 3.008Zm0-1.202c-.819 0-1.28-.667-1.28-1.806v-.011c0-1.129.466-1.806 1.28-1.806.809 0 1.281.677 1.281 1.806v.011c0 1.139-.467 1.806-1.28 1.806Zm4.48 1.082h1.534v-4.626h1.192v-1.155h-1.224v-.436c0-.504.221-.782.814-.782.2 0 .363.015.457.031v-1.024a5.533 5.533 0 0 0-.787-.057c-1.397 0-1.985.577-1.985 1.727v.541h-.935v1.155h.935v4.626Zm6.584 0h1.533v-3.235c0-.819.551-1.318 1.423-1.318.236 0 .472.037.703.09v-1.339a2.29 2.29 0 0 0-.572-.074c-.751 0-1.276.368-1.46.993h-.094v-.898h-1.533v5.781Zm7.022.12c1.69 0 2.436-.976 2.615-1.701l.01-.052h-1.428l-.016.031c-.105.221-.478.578-1.15.578-.813 0-1.323-.552-1.339-1.502h3.98v-.478c0-1.748-1.05-2.903-2.735-2.903-1.686 0-2.762 1.181-2.762 3.019v.005c0 1.853 1.066 3.003 2.825 3.003Zm-.037-4.877c.667 0 1.145.43 1.239 1.27h-2.494c.095-.819.588-1.27 1.255-1.27Zm4.344 4.757h1.533v-4.626h1.192v-1.155h-1.223v-.436c0-.504.22-.782.814-.782.199 0 .362.015.457.031v-1.024a5.542 5.542 0 0 0-.788-.057c-1.397 0-1.985.577-1.985 1.727v.541h-.934v1.155h.934v4.626Zm5.788.12c.825 0 1.413-.383 1.675-1.013h.095v.893h1.533v-5.781h-1.533v3.339c0 .782-.41 1.292-1.166 1.292-.724 0-1.034-.426-1.034-1.245v-3.386h-1.533v3.738c0 1.376.667 2.163 1.963 2.163Zm4.775-.12h1.533v-3.345c0-.782.431-1.292 1.14-1.292.724 0 1.06.431 1.06 1.245v3.392h1.533v-3.739c0-1.381-.693-2.168-1.979-2.168-.824 0-1.397.394-1.659 1.018h-.095v-.892h-1.533v5.781Zm8.749.089c.814 0 1.429-.362 1.728-.987h.094v.898h1.534v-7.992h-1.534v3.135h-.094c-.289-.63-.935-1.019-1.728-1.019-1.464 0-2.346 1.119-2.346 2.977v.011c0 1.848.903 2.977 2.346 2.977Zm.52-1.271c-.808 0-1.307-.64-1.307-1.706v-.011c0-1.055.499-1.706 1.307-1.706.809 0 1.318.651 1.318 1.712v.01c0 1.061-.504 1.701-1.318 1.701Zm6.655 1.302c1.48 0 2.536-.745 2.536-1.89v-.005c0-.856-.541-1.339-1.696-1.586l-.961-.204c-.599-.132-.814-.31-.814-.62v-.005c0-.389.378-.636.908-.636.573 0 .914.289.998.599l.005.026h1.423v-.021c-.063-.929-.903-1.685-2.42-1.685-1.444 0-2.41.724-2.41 1.811v.005c0 .867.546 1.408 1.648 1.644l.966.205c.588.131.82.325.82.635v.01c0 .384-.4.636-.988.636-.603 0-.955-.258-1.076-.615l-.01-.021h-1.507l.005.021c.11.993 1.003 1.696 2.573 1.696Zm138.949.074c1.874 0 3.008-1.533 3.008-3.98v-.011c0-2.451-1.134-3.974-3.008-3.974-1.87 0-3.009 1.523-3.009 3.974v.011c0 2.447 1.139 3.98 3.009 3.98Zm0-1.255c-.893 0-1.402-1.013-1.402-2.725v-.011c0-1.716.509-2.719 1.402-2.719.897 0 1.407 1.003 1.407 2.719v.011c0 1.712-.51 2.725-1.407 2.725Zm6.076-2.363c1.114 0 1.791-.819 1.791-2.131v-.006c0-1.312-.677-2.126-1.791-2.126-1.107 0-1.79.814-1.79 2.126v.006c0 1.312.683 2.131 1.79 2.131Zm1.166 3.424 5.098-7.577h-1.213l-5.098 7.577h1.213Zm-1.166-4.264c-.456 0-.714-.467-.714-1.291v-.006c0-.829.258-1.286.714-1.286.463 0 .72.457.72 1.286v.006c0 .824-.257 1.291-.72 1.291Zm6.212 4.374c1.113 0 1.79-.819 1.79-2.132v-.005c0-1.313-.677-2.127-1.79-2.127-1.108 0-1.791.814-1.791 2.127v.005c0 1.313.683 2.132 1.791 2.132Zm0-.84c-.457 0-.714-.468-.714-1.292v-.005c0-.83.257-1.286.714-1.286.462 0 .719.456.719 1.286v.005c0 .824-.257 1.292-.719 1.292Z" class="Настройки магазина"/>
            <g class="ic_arrow_left_m">
              <g class="Group 4">
                <path fill="#000" d="m281.782 322.375 1.17 1.17 5.849-5.849-5.849-5.849-1.17 1.17 4.679 4.679-4.679 4.679Z" class="Vector 1"/>
                <path fill="#000" fill-rule="evenodd" d="M286.754 316.819h-13.452v1.755h13.452v-1.755Z" class="Vector 2 (Stroke)" clip-rule="evenodd"/>
              </g>
            </g>
            <path fill="#000" d="M39.95 322.118h8.191v-1.704h-5.436v-.089l2.568-2.44c2.052-1.97 2.69-2.899 2.69-4.273v-.016c0-1.922-1.631-3.336-3.966-3.336-2.367 0-4.16 1.527-4.16 3.659v.057h1.955v-.057c.024-1.122.929-1.987 2.221-1.987 1.123 0 1.907.743 1.915 1.785v.017c0 .864-.331 1.454-1.858 2.948l-4.12 4.015v1.421Zm14.378.202c2.576 0 4.378-1.648 4.378-4.047v-.016c0-2.213-1.6-3.821-3.82-3.821-1.172 0-2.133.461-2.642 1.244h-.04l.322-3.513h5.493v-1.705h-7.157l-.557 6.777h1.818a2.18 2.18 0 0 1 .549-.662c.444-.372 1.018-.574 1.68-.574 1.365 0 2.342.954 2.342 2.286v.017c0 1.365-.96 2.318-2.35 2.318-1.228 0-2.117-.751-2.286-1.729l-.008-.056h-1.955l.008.105c.154 1.93 1.801 3.376 4.225 3.376Zm10.46 0c2.665 0 4.531-1.389 4.531-3.376v-.016c0-1.479-1.082-2.626-2.625-2.941v-.048c1.325-.356 2.197-1.325 2.197-2.569v-.016c0-1.785-1.696-3.094-4.104-3.094-2.399 0-4.103 1.309-4.103 3.094v.016c0 1.244.873 2.213 2.197 2.569v.048c-1.543.315-2.617 1.462-2.617 2.941v.016c0 1.987 1.858 3.376 4.523 3.376Zm0-7.044c-1.212 0-2.044-.702-2.044-1.712v-.016c0-1.01.84-1.713 2.043-1.713 1.204 0 2.044.703 2.044 1.713v.016c0 1.01-.832 1.712-2.044 1.712Zm0 5.453c-1.39 0-2.383-.8-2.383-1.915v-.016c0-1.123.977-1.93 2.382-1.93 1.406 0 2.383.807 2.383 1.93v.016c0 1.115-.985 1.915-2.383 1.915Zm14.554 1.591c2.512 0 4.354-1.688 4.354-4.039v-.016c0-2.189-1.575-3.804-3.82-3.804-1.584 0-2.747.807-3.208 1.874h-.04c0-.13 0-.251.008-.372.08-2.205.864-3.998 2.738-3.998 1.042 0 1.761.517 2.068 1.316l.033.073h2.067l-.016-.089c-.371-1.761-1.979-3.005-4.136-3.005-2.972 0-4.757 2.302-4.757 6.155v.017c0 4.087 2.132 5.888 4.709 5.888Zm-2.359-4.006v-.008c0-1.301 1.018-2.238 2.35-2.238 1.334 0 2.311.945 2.311 2.27v.016c0 1.26-1.034 2.262-2.334 2.262s-2.327-1.01-2.327-2.302Zm13.045-8.054c-2.512 0-4.362 1.688-4.362 4.039v.016c0 2.189 1.583 3.805 3.829 3.805 1.575 0 2.738-.808 3.199-1.874h.048c0 .129-.008.25-.016.371-.08 2.205-.864 3.999-2.738 3.999-1.043 0-1.753-.517-2.068-1.317l-.025-.073h-2.067l.016.089c.363 1.761 1.979 3.005 4.136 3.005 2.972 0 4.757-2.302 4.757-6.155v-.016c0-4.087-2.14-5.889-4.71-5.889Zm0 6.252c-1.325 0-2.31-.945-2.31-2.27v-.016c0-1.26 1.042-2.261 2.334-2.261 1.309 0 2.326 1.009 2.326 2.302v.008c0 1.3-1.017 2.237-2.35 2.237Zm6.897 5.606h2.181l4.984-9.919v-1.737h-8.11v1.705h6.059v.04l-5.114 9.911Zm17.043.202c2.851 0 4.58-2.318 4.58-6.026v-.016c0-3.708-1.729-6.018-4.58-6.018-2.86 0-4.58 2.31-4.58 6.018v.016c0 3.708 1.72 6.026 4.58 6.026Zm0-1.704c-1.575 0-2.48-1.632-2.48-4.322v-.016c0-2.69.905-4.305 2.48-4.305 1.567 0 2.48 1.615 2.48 4.305v.016c0 2.69-.913 4.322-2.48 4.322Zm10.864 1.704c2.851 0 4.58-2.318 4.58-6.026v-.016c0-3.708-1.729-6.018-4.58-6.018-2.86 0-4.58 2.31-4.58 6.018v.016c0 3.708 1.72 6.026 4.58 6.026Zm0-1.704c-1.576 0-2.48-1.632-2.48-4.322v-.016c0-2.69.904-4.305 2.48-4.305 1.567 0 2.479 1.615 2.479 4.305v.016c0 2.69-.912 4.322-2.479 4.322Zm10.863 1.704c2.852 0 4.58-2.318 4.58-6.026v-.016c0-3.708-1.728-6.018-4.58-6.018-2.859 0-4.58 2.31-4.58 6.018v.016c0 3.708 1.721 6.026 4.58 6.026Zm0-1.704c-1.575 0-2.48-1.632-2.48-4.322v-.016c0-2.69.905-4.305 2.48-4.305 1.567 0 2.48 1.615 2.48 4.305v.016c0 2.69-.913 4.322-2.48 4.322Zm5.541 3.885h1.405l1.18-4.281h-1.947l-.638 4.281Zm8.933-2.181c2.851 0 4.58-2.318 4.58-6.026v-.016c0-3.708-1.729-6.018-4.58-6.018-2.86 0-4.58 2.31-4.58 6.018v.016c0 3.708 1.72 6.026 4.58 6.026Zm0-1.704c-1.575 0-2.48-1.632-2.48-4.322v-.016c0-2.69.905-4.305 2.48-4.305 1.567 0 2.48 1.615 2.48 4.305v.016c0 2.69-.913 4.322-2.48 4.322Zm10.864 1.704c2.851 0 4.58-2.318 4.58-6.026v-.016c0-3.708-1.729-6.018-4.58-6.018-2.86 0-4.58 2.31-4.58 6.018v.016c0 3.708 1.72 6.026 4.58 6.026Zm0-1.704c-1.575 0-2.48-1.632-2.48-4.322v-.016c0-2.69.905-4.305 2.48-4.305 1.567 0 2.479 1.615 2.479 4.305v.016c0 2.69-.912 4.322-2.479 4.322Zm9.748-.477h1.567v1.737h2.036v-1.737h3.19v-.872h-3.19v-1.341h2.019c2.318 0 3.861-1.47 3.861-3.595v-.016c0-2.116-1.527-3.611-3.845-3.611h-4.071v6.349h-1.567v.873h1.567v1.341h-1.567v.872Zm3.603-3.837v-3.925h1.47c1.559 0 2.342.71 2.342 1.954v.016c0 1.236-.791 1.955-2.342 1.955h-1.47Z" class="Настройки магазина"/>
          </g>
          <g class="Group 90">
            <g class="Rectangle 6.4" filter="url(#f)">
              <path fill="#fff" d="M19.234 374.285c0-9.136 7.407-16.543 16.543-16.543h263.034c9.136 0 16.543 7.407 16.543 16.543v33.086c0 9.137-7.407 16.543-16.543 16.543H35.777c-9.136 0-16.543-7.406-16.543-16.543v-33.086Z"/>
            </g>
            <path fill="#666" d="M40.005 382.803h1.517v-4.846h.084l3.508 4.846h1.312v-7.577H44.91v4.825h-.084l-3.497-4.825h-1.323v7.577Zm9.957.12c.824 0 1.412-.383 1.675-1.013h.094v.893h1.533v-5.781h-1.533v3.339c0 .783-.41 1.292-1.166 1.292-.724 0-1.034-.425-1.034-1.244v-3.387h-1.533v3.738c0 1.376.667 2.163 1.964 2.163Zm4.774-.12h1.534v-3.487c0-.661.42-1.149 1.018-1.149.599 0 .95.362.95.981v3.655h1.534v-3.555c0-.625.399-1.081 1.018-1.081.64 0 .956.351.956 1.05v3.586h1.533v-3.97c0-1.191-.72-1.937-1.87-1.937-.808 0-1.48.425-1.742 1.066h-.095c-.236-.667-.819-1.066-1.607-1.066-.756 0-1.354.378-1.6 1.029h-.095v-.903h-1.534v5.781Zm13.376.089c1.443 0 2.346-1.129 2.346-2.977v-.011c0-1.858-.882-2.977-2.346-2.977-.793 0-1.44.389-1.733 1.019h-.095v-3.134h-1.533v7.991h1.533v-.898h.095c.3.625.913.987 1.733.987Zm-.526-1.271c-.808 0-1.317-.64-1.317-1.701v-.01c0-1.061.514-1.712 1.317-1.712.809 0 1.313.651 1.313 1.706v.011c0 1.066-.499 1.706-1.313 1.706Zm6.592 1.302c1.69 0 2.436-.976 2.615-1.701l.01-.052h-1.428l-.016.031c-.105.221-.478.578-1.15.578-.814 0-1.323-.551-1.339-1.502h3.98v-.478c0-1.748-1.05-2.903-2.735-2.903-1.686 0-2.762 1.181-2.762 3.019v.005c0 1.854 1.066 3.003 2.825 3.003Zm-.037-4.877c.667 0 1.145.43 1.24 1.27h-2.495c.095-.819.588-1.27 1.255-1.27Zm3.898 4.757h1.533v-3.235c0-.819.551-1.317 1.423-1.317.236 0 .472.036.703.089v-1.339a2.294 2.294 0 0 0-.572-.074c-.75 0-1.276.368-1.46.993h-.094v-.898H78.04v5.781Zm9.89.12c1.78 0 2.852-1.123 2.852-3.008v-.011c0-1.869-1.087-3.008-2.851-3.008s-2.851 1.145-2.851 3.008v.011c0 1.88 1.07 3.008 2.85 3.008Zm0-1.202c-.818 0-1.28-.667-1.28-1.806v-.011c0-1.128.467-1.806 1.28-1.806.81 0 1.282.678 1.282 1.806v.011c0 1.139-.467 1.806-1.281 1.806Zm4.481 1.082h1.534v-4.626h1.191v-1.155h-1.223v-.436c0-.504.22-.782.814-.782.2 0 .362.016.457.031v-1.023a5.374 5.374 0 0 0-.788-.058c-1.396 0-1.984.577-1.984 1.727v.541h-.935v1.155h.934v4.626Zm6.584 1.916h1.533v-2.84h.094c.294.63.94 1.013 1.733 1.013 1.465 0 2.347-1.118 2.347-2.977v-.011c0-1.842-.903-2.977-2.347-2.977-.819 0-1.434.368-1.733.988h-.094v-.893h-1.534v7.697Zm2.835-3.098c-.804 0-1.318-.645-1.318-1.706v-.011c0-1.06.509-1.706 1.318-1.706.814 0 1.312.646 1.312 1.706v.011c0 1.061-.504 1.706-1.312 1.706Zm5.636 1.271c.756 0 1.365-.32 1.659-.856h.094v.767h1.512v-3.949c0-1.233-.866-1.958-2.399-1.958-1.455 0-2.41.672-2.531 1.685l-.005.048h1.418l.01-.021c.121-.342.473-.536 1.024-.536.63 0 .971.284.971.782v.478l-1.396.084c-1.439.084-2.242.693-2.242 1.733v.01c0 1.05.782 1.733 1.885 1.733Zm-.389-1.827v-.011c0-.42.32-.666.977-.708l1.165-.074v.425c0 .609-.53 1.077-1.239 1.077-.53 0-.903-.268-.903-.709Zm5.62 3.775c1.428 0 2.19-.515 2.704-2.043l1.969-5.775h-1.617l-1.213 4.379h-.105l-1.213-4.379h-1.685l2.032 5.781-.053.22c-.11.452-.425.662-.971.662-.142 0-.294-.005-.399-.016v1.155c.178.011.373.016.551.016Zm5.673-2.037h1.533v-3.487c0-.661.42-1.149 1.018-1.149.599 0 .951.362.951.981v3.655h1.533v-3.555c0-.625.399-1.081 1.018-1.081.641 0 .956.351.956 1.05v3.586h1.533v-3.97c0-1.191-.719-1.937-1.869-1.937-.809 0-1.481.425-1.743 1.066h-.095c-.236-.667-.819-1.066-1.606-1.066-.756 0-1.355.378-1.602 1.029h-.094v-.903h-1.533v5.781Zm12.503.12c1.691 0 2.436-.976 2.615-1.701l.01-.052h-1.428l-.016.031c-.105.221-.477.578-1.149.578-.814 0-1.324-.551-1.339-1.502h3.98v-.478c0-1.748-1.051-2.903-2.736-2.903-1.685 0-2.762 1.181-2.762 3.019v.005c0 1.854 1.066 3.003 2.825 3.003Zm-.037-4.877c.667 0 1.145.43 1.239 1.27h-2.494c.095-.819.588-1.27 1.255-1.27Zm3.898 4.757h1.533v-3.345c0-.782.431-1.291 1.14-1.291.724 0 1.06.43 1.06 1.244v3.392h1.533v-3.739c0-1.38-.693-2.168-1.979-2.168-.824 0-1.397.394-1.659 1.019h-.095v-.893h-1.533v5.781Zm9.086.021c.294 0 .577-.032.766-.069v-1.139a3.565 3.565 0 0 1-.451.026c-.52 0-.741-.231-.741-.75v-2.715h1.192v-1.155h-1.192v-1.381h-1.549v1.381h-.892v1.155h.892v3.066c0 1.124.567 1.581 1.975 1.581Zm4.223.099c1.481 0 2.536-.745 2.536-1.89v-.005c0-.856-.541-1.339-1.696-1.586l-.961-.204c-.598-.132-.814-.31-.814-.62v-.005c0-.389.378-.635.909-.635.572 0 .913.288.997.598l.006.026h1.422v-.021c-.063-.929-.903-1.685-2.42-1.685-1.444 0-2.41.725-2.41 1.811v.006c0 .866.546 1.407 1.649 1.643l.966.205c.588.131.819.325.819.635v.011c0 .383-.399.635-.987.635-.604 0-.956-.257-1.077-.614l-.01-.021h-1.507l.005.021c.111.992 1.003 1.695 2.573 1.695Zm110.496-3.038h2.268v2.2h1.381v-2.2h2.273v-1.381h-2.273v-2.2h-1.381v2.2h-2.268v1.381Zm7.274 2.368h5.465v-1.276h-3.339v-.121l1.402-1.307c1.381-1.276 1.827-1.99 1.827-2.851v-.016c0-1.307-1.092-2.2-2.651-2.2-1.659 0-2.794.998-2.794 2.452l.006.021h1.465v-.026c0-.719.509-1.213 1.249-1.213.725 0 1.166.452 1.166 1.097v.016c0 .531-.289.914-1.355 1.948l-2.441 2.41v1.066Zm9.726.194c1.701 0 2.877-1.087 2.877-2.683v-.01c0-1.444-1.019-2.484-2.431-2.484-.725 0-1.313.315-1.617.825h-.095l.189-2.158h3.502v-1.26h-4.736l-.351 4.483h1.36c.084-.162.21-.304.351-.42.252-.215.578-.325.961-.325.803 0 1.376.562 1.376 1.37v.011c0 .814-.567 1.386-1.381 1.386-.714 0-1.234-.446-1.344-1.003l-.011-.037h-1.438l.005.074c.089 1.265 1.16 2.231 2.783 2.231Zm4.885-.063c.54 0 .924-.394.924-.913 0-.52-.384-.909-.924-.909-.536 0-.924.389-.924.909 0 .519.388.913.924.913Zm2.464-.131h5.466v-1.276h-3.339v-.121l1.402-1.307c1.38-1.276 1.827-1.99 1.827-2.851v-.016c0-1.307-1.092-2.2-2.652-2.2-1.659 0-2.793.998-2.793 2.452l.005.021h1.465v-.026c0-.719.509-1.213 1.25-1.213.724 0 1.165.452 1.165 1.097v.016c0 .531-.288.914-1.354 1.948l-2.442 2.41v1.066Zm9.726.194c1.701 0 2.877-1.087 2.877-2.683v-.01c0-1.444-1.018-2.484-2.431-2.484-.724 0-1.312.315-1.617.825h-.094l.189-2.158h3.502v-1.26h-4.736l-.352 4.483h1.36c.084-.162.21-.304.352-.42.252-.215.577-.325.961-.325.803 0 1.375.562 1.375 1.37v.011c0 .814-.567 1.386-1.381 1.386-.714 0-1.233-.446-1.344-1.003l-.01-.037h-1.439l.005.074c.09 1.265 1.161 2.231 2.783 2.231Zm5.898-3.617c1.114 0 1.791-.819 1.791-2.132v-.005c0-1.313-.677-2.127-1.791-2.127-1.107 0-1.79.814-1.79 2.127v.005c0 1.313.683 2.132 1.79 2.132Zm1.166 3.423 5.098-7.576h-1.213l-5.098 7.576h1.213Zm-1.166-4.263c-.456 0-.714-.468-.714-1.292v-.005c0-.83.258-1.287.714-1.287.463 0 .72.457.72 1.287v.005c0 .824-.257 1.292-.72 1.292Zm6.212 4.373c1.113 0 1.79-.819 1.79-2.131v-.006c0-1.312-.677-2.126-1.79-2.126-1.108 0-1.791.814-1.791 2.126v.006c0 1.312.683 2.131 1.791 2.131Zm0-.84c-.457 0-.714-.467-.714-1.291v-.006c0-.829.257-1.286.714-1.286.462 0 .719.457.719 1.286v.006c0 .824-.257 1.291-.719 1.291Z" class="Настройки магазина"/>
            <g class="ic_arrow-grow_m">
              <g class="Group 4">
                <path fill="#000" d="M278.132 394.137v-1.655h8.271v8.272h-1.654v-6.617h-6.617Z" class="Vector 1"/>
                <path fill="#000" fill-rule="evenodd" d="m285.576 394.55-9.099 9.099-1.241-1.241 9.099-9.098 1.241 1.24Z" class="Vector 2 (Stroke)" clip-rule="evenodd"/>
              </g>
            </g>
            <path fill="#000" d="M39.95 402.694h8.191v-1.704h-5.436v-.089l2.568-2.439c2.052-1.971 2.69-2.9 2.69-4.273v-.017c0-1.922-1.631-3.336-3.966-3.336-2.367 0-4.16 1.527-4.16 3.66v.056h1.955v-.056c.024-1.123.929-1.988 2.221-1.988 1.123 0 1.907.744 1.915 1.786v.016c0 .864-.331 1.454-1.858 2.948l-4.12 4.015v1.421Zm14.378.202c2.576 0 4.378-1.648 4.378-4.047v-.016c0-2.213-1.6-3.82-3.82-3.82-1.172 0-2.133.46-2.642 1.243h-.04l.322-3.513h5.493v-1.705h-7.157l-.557 6.777h1.818a2.18 2.18 0 0 1 .549-.662c.444-.371 1.018-.573 1.68-.573 1.365 0 2.342.953 2.342 2.286v.016c0 1.365-.96 2.318-2.35 2.318-1.228 0-2.117-.751-2.286-1.729l-.008-.056h-1.955l.008.105c.154 1.93 1.801 3.376 4.225 3.376Zm6.736-.202h2.18l4.985-9.919v-1.737h-8.11v1.705h6.058v.04l-5.113 9.911Zm16.985.202c2.666 0 4.532-1.389 4.532-3.376v-.016c0-1.479-1.082-2.626-2.625-2.941v-.048c1.325-.355 2.197-1.325 2.197-2.569v-.016c0-1.785-1.696-3.094-4.104-3.094-2.399 0-4.103 1.309-4.103 3.094v.016c0 1.244.873 2.214 2.197 2.569v.048c-1.543.315-2.617 1.462-2.617 2.941v.016c0 1.987 1.858 3.376 4.523 3.376Zm0-7.043c-1.211 0-2.043-.703-2.043-1.713v-.016c0-1.01.84-1.712 2.043-1.712 1.204 0 2.044.702 2.044 1.712v.016c0 1.01-.832 1.713-2.044 1.713Zm0 5.452c-1.389 0-2.382-.8-2.382-1.914v-.017c0-1.122.977-1.93 2.382-1.93 1.406 0 2.383.808 2.383 1.93v.017c0 1.114-.985 1.914-2.383 1.914Zm10.703 1.591c2.576 0 4.378-1.648 4.378-4.047v-.016c0-2.213-1.6-3.82-3.821-3.82-1.171 0-2.132.46-2.641 1.243h-.04l.322-3.513h5.493v-1.705h-7.157l-.557 6.777h1.817c.138-.258.332-.484.55-.662.444-.371 1.018-.573 1.68-.573 1.365 0 2.342.953 2.342 2.286v.016c0 1.365-.96 2.318-2.35 2.318-1.228 0-2.117-.751-2.286-1.729l-.008-.056h-1.955l.008.105c.154 1.93 1.801 3.376 4.225 3.376Zm10.637 0c2.512 0 4.354-1.688 4.354-4.039v-.016c0-2.189-1.575-3.804-3.82-3.804-1.584 0-2.747.808-3.207 1.874h-.04c0-.129 0-.251.007-.372.081-2.205.864-3.998 2.738-3.998 1.043 0 1.761.517 2.068 1.316l.033.073h2.068l-.017-.089c-.371-1.761-1.979-3.005-4.135-3.005-2.973 0-4.758 2.303-4.758 6.156v.016c0 4.087 2.132 5.888 4.71 5.888Zm-2.358-4.006v-.008c0-1.301 1.017-2.238 2.35-2.238 1.333 0 2.31.945 2.31 2.27v.016c0 1.26-1.034 2.262-2.334 2.262s-2.326-1.01-2.326-2.302Zm16.654 4.006c2.577 0 4.378-1.648 4.378-4.047v-.016c0-2.213-1.599-3.82-3.82-3.82-1.172 0-2.133.46-2.642 1.243h-.04l.323-3.513h5.493v-1.705h-7.157l-.557 6.777h1.817c.137-.258.331-.484.549-.662.445-.371 1.018-.573 1.68-.573 1.366 0 2.343.953 2.343 2.286v.016c0 1.365-.961 2.318-2.351 2.318-1.227 0-2.116-.751-2.286-1.729l-.008-.056h-1.955l.009.105c.153 1.93 1.801 3.376 4.224 3.376Zm10.46 0c2.666 0 4.532-1.389 4.532-3.376v-.016c0-1.479-1.083-2.626-2.626-2.941v-.048c1.325-.355 2.197-1.325 2.197-2.569v-.016c0-1.785-1.696-3.094-4.103-3.094-2.399 0-4.103 1.309-4.103 3.094v.016c0 1.244.872 2.214 2.197 2.569v.048c-1.543.315-2.617 1.462-2.617 2.941v.016c0 1.987 1.857 3.376 4.523 3.376Zm0-7.043c-1.212 0-2.044-.703-2.044-1.713v-.016c0-1.01.84-1.712 2.044-1.712 1.204 0 2.044.702 2.044 1.712v.016c0 1.01-.832 1.713-2.044 1.713Zm0 5.452c-1.389 0-2.383-.8-2.383-1.914v-.017c0-1.122.977-1.93 2.383-1.93 1.405 0 2.383.808 2.383 1.93v.017c0 1.114-.986 1.914-2.383 1.914Zm10.718-10.469c-2.512 0-4.362 1.689-4.362 4.039v.016c0 2.189 1.584 3.805 3.829 3.805 1.575 0 2.738-.808 3.199-1.874h.048c0 .129-.008.25-.016.371-.081 2.206-.864 3.999-2.738 3.999-1.042 0-1.753-.517-2.068-1.317l-.024-.072h-2.068l.016.088c.364 1.761 1.979 3.005 4.136 3.005 2.972 0 4.758-2.302 4.758-6.155v-.016c0-4.087-2.141-5.889-4.71-5.889Zm0 6.252c-1.324 0-2.31-.945-2.31-2.269v-.017c0-1.26 1.042-2.261 2.335-2.261 1.308 0 2.326 1.009 2.326 2.302v.008c0 1.3-1.018 2.237-2.351 2.237Z" class="Настройки магазина"/>
          </g>
          <g class="⚒ bottom bar /📱tab 2">
            <g class="Background" filter="url(#g)">
              <path fill="#fff" d="M6.174 566.518h846.825v42.472H6.174z"/>
            </g>
            <g class="icon copy">
              <mask id="h" width="19" height="19" x="513" y="577" class="h" maskUnits="userSpaceOnUse" style="mask-type:alpha">
                <path fill="#fff" fill-rule="evenodd" d="M513.086 578.449c0-.66.536-1.196 1.196-1.196h15.953c.661 0 1.197.536 1.197 1.196v15.953c0 .738-.094 1.197-.918 1.197-.401 0-.846-.326-1.303-.661-.482-.353-.978-.715-1.449-.715-.456 0-.913.341-1.372.683-.463.346-.928.693-1.396.693-.479 0-.965-.363-1.438-.715-.45-.335-.888-.661-1.297-.661-.423 0-.91.348-1.393.694-.477.342-.951.682-1.359.682-.399 0-.844-.326-1.301-.66-.483-.353-.98-.716-1.451-.716-.471 0-.966.369-1.448.729-.458.34-.903.672-1.304.672-.824 0-.917-.561-.917-1.222v-15.953Zm4.128 9.81a.458.458 0 1 0 0 .917h5.503a.459.459 0 1 0 0-.917h-5.503Zm-.459-3.21c0-.253.205-.458.459-.458h10.09a.458.458 0 1 1 0 .917h-10.09a.458.458 0 0 1-.459-.459Zm.459-4.127a.458.458 0 1 0 0 .917h10.09a.458.458 0 1 0 0-.917h-10.09Z" class="Mask" clip-rule="evenodd"/>
              </mask>
              <g class="🎨 color" mask="url(#h)">
                <path fill="#0E1930" fill-opacity=".3" d="M511.252 575.417h22.015v22.015h-22.015z" class="color"/>
              </g>
            </g>
            <g class="ic_payments_m">
              <g class="ic M / payments">
                <mask id="i" width="18" height="18" x="305" y="577" class="i" maskUnits="userSpaceOnUse" style="mask-type:alpha">
                  <path fill="#fff" fill-rule="evenodd" d="M321.645 577.362h-15.214c-.63 0-1.141.511-1.141 1.141v15.214c0 .63.511 1.141 1.141 1.141h15.214c.63 0 1.141-.511 1.141-1.141v-15.214c0-.63-.511-1.141-1.141-1.141Zm-12.856 9.623a.875.875 0 1 0 0-1.75.875.875 0 0 0 0 1.75Zm3.062-1.312a.437.437 0 1 0 0 .875h7.873a.437.437 0 0 0 0-.875h-7.873Zm-3.062-3.499a.875.875 0 1 0 0-1.75.875.875 0 0 0 0 1.75Zm3.062-1.313a.437.437 0 0 0 0 .875h7.873a.437.437 0 1 0 0-.875h-7.873Zm-3.062 10.935a.874.874 0 1 0 .001-1.749.874.874 0 0 0-.001 1.749Zm3.062-1.312a.437.437 0 0 0 0 .875h7.873a.437.437 0 1 0 0-.875h-7.873Z" class="Mask" clip-rule="evenodd"/>
                </mask>
                <g class="🎨 color" mask="url(#i)">
                  <path fill="#0E1930" fill-opacity=".3" d="M303.541 575.613h20.995v20.995h-20.995z" class="color"/>
                </g>
              </g>
            </g>
            <g class="ic_user_m">
              <g class="ic M / user">
                <mask id="j" width="16" height="16" x="721" y="579" class="j" maskUnits="userSpaceOnUse" style="mask-type:alpha">
                  <path fill="#fff" fill-rule="evenodd" d="M732.54 583.314a3.757 3.757 0 1 1-7.514 0 3.757 3.757 0 0 1 7.514 0Zm-8.266 5.26a3.005 3.005 0 0 0-3.006 3.005v3.006h15.029v-3.006a3.005 3.005 0 0 0-3.006-3.005h-9.017Z" class="Mask" clip-rule="evenodd"/>
                </mask>
                <g class="🎨 color" mask="url(#j)">
                  <path fill="#000" fill-opacity=".3" d="M719.766 578.054H737.8v18.034h-18.034z" class="color"/>
                </g>
              </g>
            </g>
            <g class="ic_analytic_m">
              <path fill="#00BF96" fill-rule="evenodd" d="M93.85 578.222h15.269c.632 0 1.145.51 1.145 1.14v15.207c0 .63-.513 1.141-1.145 1.141h-15.27a1.143 1.143 0 0 1-1.145-1.141v-15.207c0-.63.513-1.14 1.145-1.14Zm8.487 14.925h-2.634v-12.291h2.634v12.291Zm-6.585 0h2.634v-6.146h-2.634v6.146Zm7.902 0v-8.779h2.634v8.779h-2.634Z" class="Subtract" clip-rule="evenodd"/>
            </g>
          </g>
        </g>
      </g>
      <rect width="853" height="609" x="3" y="3" stroke="#0D2E4F" stroke-width="6" rx="25.242"/>
    </g>
  </g>
  <defs>
    <filter id="c" width="320.934" height="90.986" x="6.827" y="109.391" class="c" color-interpolation-filters="sRGB" filterUnits="userSpaceOnUse">
      <feFlood flood-opacity="0" result="BackgroundImageFix"/>
      <feColorMatrix in="SourceAlpha" result="hardAlpha" values="0 0 0 0 0 0 0 0 0 0 0 0 0 0 0 0 0 0 127 0"/>
      <feOffset dy="5.79"/>
      <feGaussianBlur stdDeviation="6.204"/>
      <feColorMatrix values="0 0 0 0 0 0 0 0 0 0 0 0 0 0 0 0 0 0 0.2 0"/>
      <feBlend in2="BackgroundImageFix" result="effect1_dropShadow_532_15144"/>
      <feBlend in="SourceGraphic" in2="effect1_dropShadow_532_15144" result="shape"/>
    </filter>
    <filter id="d" width="320.934" height="90.986" x="6.827" y="187.694" class="d" color-interpolation-filters="sRGB" filterUnits="userSpaceOnUse">
      <feFlood flood-opacity="0" result="BackgroundImageFix"/>
      <feColorMatrix in="SourceAlpha" result="hardAlpha" values="0 0 0 0 0 0 0 0 0 0 0 0 0 0 0 0 0 0 127 0"/>
      <feOffset dy="3.512"/>
      <feGaussianBlur stdDeviation="6.204"/>
      <feColorMatrix values="0 0 0 0 0 0 0 0 0 0 0 0 0 0 0 0 0 0 0.08 0"/>
      <feBlend in2="BackgroundImageFix" result="effect1_dropShadow_532_15144"/>
      <feColorMatrix in="SourceAlpha" result="hardAlpha" values="0 0 0 0 0 0 0 0 0 0 0 0 0 0 0 0 0 0 127 0"/>
      <feOffset/>
      <feGaussianBlur stdDeviation="2.341"/>
      <feComposite in2="hardAlpha" operator="out"/>
      <feColorMatrix values="0 0 0 0 0 0 0 0 0 0 0 0 0 0 0 0 0 0 0.04 0"/>
      <feBlend in2="effect1_dropShadow_532_15144" result="effect2_dropShadow_532_15144"/>
      <feBlend in="SourceGraphic" in2="effect2_dropShadow_532_15144" result="shape"/>
    </filter>
    <filter id="e" width="320.934" height="90.986" x="6.827" y="268.271" class="e" color-interpolation-filters="sRGB" filterUnits="userSpaceOnUse">
      <feFlood flood-opacity="0" result="BackgroundImageFix"/>
      <feColorMatrix in="SourceAlpha" result="hardAlpha" values="0 0 0 0 0 0 0 0 0 0 0 0 0 0 0 0 0 0 127 0"/>
      <feOffset dy="3.512"/>
      <feGaussianBlur stdDeviation="6.204"/>
      <feColorMatrix values="0 0 0 0 0 0 0 0 0 0 0 0 0 0 0 0 0 0 0.08 0"/>
      <feBlend in2="BackgroundImageFix" result="effect1_dropShadow_532_15144"/>
      <feColorMatrix in="SourceAlpha" result="hardAlpha" values="0 0 0 0 0 0 0 0 0 0 0 0 0 0 0 0 0 0 127 0"/>
      <feOffset/>
      <feGaussianBlur stdDeviation="2.341"/>
      <feComposite in2="hardAlpha" operator="out"/>
      <feColorMatrix values="0 0 0 0 0 0 0 0 0 0 0 0 0 0 0 0 0 0 0.04 0"/>
      <feBlend in2="effect1_dropShadow_532_15144" result="effect2_dropShadow_532_15144"/>
      <feBlend in="SourceGraphic" in2="effect2_dropShadow_532_15144" result="shape"/>
    </filter>
    <filter id="f" width="320.934" height="90.986" x="6.827" y="348.847" class="f" color-interpolation-filters="sRGB" filterUnits="userSpaceOnUse">
      <feFlood flood-opacity="0" result="BackgroundImageFix"/>
      <feColorMatrix in="SourceAlpha" result="hardAlpha" values="0 0 0 0 0 0 0 0 0 0 0 0 0 0 0 0 0 0 127 0"/>
      <feOffset dy="3.512"/>
      <feGaussianBlur stdDeviation="6.204"/>
      <feColorMatrix values="0 0 0 0 0 0 0 0 0 0 0 0 0 0 0 0 0 0 0.08 0"/>
      <feBlend in2="BackgroundImageFix" result="effect1_dropShadow_532_15144"/>
      <feColorMatrix in="SourceAlpha" result="hardAlpha" values="0 0 0 0 0 0 0 0 0 0 0 0 0 0 0 0 0 0 127 0"/>
      <feOffset/>
      <feGaussianBlur stdDeviation="2.341"/>
      <feComposite in2="hardAlpha" operator="out"/>
      <feColorMatrix values="0 0 0 0 0 0 0 0 0 0 0 0 0 0 0 0 0 0 0.04 0"/>
      <feBlend in2="effect1_dropShadow_532_15144" result="effect2_dropShadow_532_15144"/>
      <feBlend in="SourceGraphic" in2="effect2_dropShadow_532_15144" result="shape"/>
    </filter>
    <filter id="g" width="846.825" height="42.963" x="6.174" y="566.027" class="g" color-interpolation-filters="sRGB" filterUnits="userSpaceOnUse">
      <feFlood flood-opacity="0" result="BackgroundImageFix"/>
      <feColorMatrix in="SourceAlpha" result="hardAlpha" values="0 0 0 0 0 0 0 0 0 0 0 0 0 0 0 0 0 0 127 0"/>
      <feOffset dy="-.491"/>
      <feColorMatrix values="0 0 0 0 0 0 0 0 0 0 0 0 0 0 0 0 0 0 0.117188 0"/>
      <feBlend in2="BackgroundImageFix" result="effect1_dropShadow_532_15144"/>
      <feBlend in="SourceGraphic" in2="effect1_dropShadow_532_15144" result="shape"/>
    </filter>
    <linearGradient id="b" x1="580.5" x2="580.5" y1="123" y2="484" class="b" gradientUnits="userSpaceOnUse">
      <stop stop-color="#00BF96" stop-opacity=".3"/>
      <stop offset="1" stop-color="#00BF96" stop-opacity="0"/>
    </linearGradient>
    <clipPath id="a" class="a">
      <rect width="847" height="603" x="6" y="6" fill="#fff" rx="22.242"/>
    </clipPath>
  </defs>
</svg>
