<svg xmlns="http://www.w3.org/2000/svg" width="860" height="673" fill="none" viewBox="0 0 860 673">
  <g class="case-yoomoney-lk-main" clip-path="url(#a)">
    <g class="LK_app_analitics">
      <g clip-path="url(#b)">
        <rect width="320" height="661.333" x="74" y="6" fill="#fff" rx="15.718"/>
        <g class="111">
          <path fill="url(#c)" d="m346.525 356.169 20.593 61.418v130.422H71.999l-2.5-90.509c10.8 18.011 37.982 13.985 43.097-6.384l9.625-38.33c6.117-24.359 40.314-25.483 48.018-1.579 6.75 20.946 35.323 23.568 45.773 4.201l4.975-9.221c6.337-11.744 21.544-15.259 32.391-7.487 12.086 8.658 29.101 3.187 33.875-10.892l10.756-31.722c7.871-23.214 40.724-23.158 48.516.083Z" class="Vector"/>
          <path stroke="#00BF96" stroke-linecap="round" stroke-width="2.56" d="m366.499 416.5-20.03-60.084c-7.76-23.275-40.652-23.359-48.53-.124l-10.687 31.516c-4.774 14.079-21.789 19.55-33.874 10.892v0c-10.848-7.772-26.054-4.258-32.391 7.487l-4.976 9.221c-10.45 19.367-39.022 16.745-45.773-4.201v0c-7.703-23.904-41.9-22.78-48.017 1.578l-10.126 40.325c-4.89 19.47-30.935 23.203-41.096 5.89v0" class="Vector"/>
        </g>
        <g class="Group 80">
          <path fill="#000" d="M196.649 258.934h1.8l4.113-8.187v-1.433h-6.693v1.406h4.96v.107l-4.18 8.107Zm10.793.193c2.214 0 3.754-1.147 3.754-2.793v-.014c0-1.233-.894-2.186-2.18-2.446v-.04c1.1-.294 1.833-1.1 1.833-2.134v-.013c0-1.48-1.413-2.567-3.407-2.567-1.993 0-3.406 1.087-3.406 2.567v.013c0 1.034.733 1.84 1.833 2.134v.04c-1.28.26-2.18 1.213-2.18 2.446v.014c0 1.646 1.54 2.793 3.753 2.793Zm0-5.84c-1.006 0-1.706-.587-1.706-1.427v-.013c0-.84.7-1.427 1.706-1.427 1.007 0 1.707.587 1.707 1.427v.013c0 .84-.7 1.427-1.707 1.427Zm0 4.527c-1.153 0-1.973-.667-1.973-1.594v-.013c0-.933.807-1.607 1.973-1.607 1.16 0 1.974.674 1.974 1.607v.013c0 .927-.82 1.594-1.974 1.594Zm8.701 1.12h6.68v-1.427h-4.353v-.14l1.926-1.867c1.754-1.686 2.28-2.553 2.28-3.646v-.02c0-1.62-1.346-2.76-3.22-2.76-2.006 0-3.406 1.253-3.406 3.046l.006.02 1.6.007.007-.027c0-.993.687-1.666 1.707-1.666 1 0 1.606.64 1.606 1.526v.02c0 .74-.366 1.227-1.673 2.547l-3.16 3.227v1.16Zm11.787.24c2.08 0 3.54-1.367 3.54-3.367v-.013c0-1.84-1.3-3.174-3.093-3.174-.907 0-1.654.387-2.054 1.034h-.113l.267-2.927h4.433v-1.413h-5.773l-.467 5.633h1.473c.114-.213.274-.4.447-.547.353-.32.82-.48 1.36-.48 1.1 0 1.887.787 1.887 1.907v.013c0 1.134-.774 1.927-1.9 1.927-.987 0-1.714-.627-1.84-1.413l-.007-.047h-1.587l.007.087c.127 1.58 1.453 2.78 3.42 2.78Zm8.767 0c2.087 0 3.573-1.427 3.573-3.38v-.014c0-1.826-1.293-3.173-3.14-3.173-1.32 0-2.16.673-2.513 1.433h-.133c0-.073.006-.146.006-.22.074-1.84.72-3.333 2.247-3.333.847 0 1.44.44 1.693 1.113l.027.067h1.687l-.014-.073c-.306-1.474-1.626-2.52-3.393-2.52-2.42 0-3.88 1.92-3.88 5.16v.013c0 3.467 1.787 4.927 3.84 4.927Zm-1.913-3.36v-.014c0-1.086.833-1.873 1.92-1.873 1.093 0 1.886.8 1.886 1.913v.014c0 1.073-.84 1.92-1.906 1.92-1.067 0-1.9-.86-1.9-1.96Zm6.353 5.66h1.133l1.16-4.007h-1.713l-.58 4.007Zm7.36-2.3c2.287 0 3.674-1.94 3.674-5.047v-.013c0-3.107-1.387-5.04-3.674-5.04-2.286 0-3.66 1.933-3.66 5.04v.013c0 3.107 1.374 5.047 3.66 5.047Zm0-1.394c-1.226 0-1.926-1.373-1.926-3.653v-.013c0-2.28.7-3.64 1.926-3.64 1.227 0 1.94 1.36 1.94 3.64v.013c0 2.28-.713 3.653-1.94 3.653Zm8.807 1.394c2.287 0 3.674-1.94 3.674-5.047v-.013c0-3.107-1.387-5.04-3.674-5.04-2.286 0-3.66 1.933-3.66 5.04v.013c0 3.107 1.374 5.047 3.66 5.047Zm0-1.394c-1.226 0-1.926-1.373-1.926-3.653v-.013c0-2.28.7-3.64 1.926-3.64 1.227 0 1.94 1.36 1.94 3.64v.013c0 2.28-.713 3.653-1.94 3.653Zm8.201-.32h1.293v1.274h1.68v-1.274h2.6v-.78h-2.6v-1.24h1.707c1.88 0 3.14-1.226 3.14-2.953v-.013c0-1.72-1.213-2.96-3.073-2.96h-3.454v5.146h-1.293v.78h1.293v1.24h-1.293v.78Zm2.973-3.36v-3.206h1.294c1.226 0 1.846.606 1.846 1.593v.013c0 1-.626 1.6-1.853 1.6h-1.287Z" class="✎ text"/>
          <path fill="#666" d="M205.533 234.931c1.728 0 2.768-1.576 2.768-4.089v-.011c0-2.514-1.04-4.084-2.768-4.084-1.728 0-2.757 1.57-2.757 4.084v.011c0 2.513 1.029 4.089 2.757 4.089Zm0-.85c-1.121 0-1.777-1.246-1.777-3.239v-.011c0-1.994.656-3.229 1.777-3.229s1.787 1.235 1.787 3.229v.011c0 1.993-.666 3.239-1.787 3.239Zm7.872.666h.954v-1.62h1.11v-.872h-1.11v-5.324h-1.414a123.25 123.25 0 0 0-3.348 5.308v.888h3.808v1.62Zm-2.811-2.486v-.065a98.99 98.99 0 0 1 2.752-4.361h.065v4.426h-2.817Zm9.489 2.486h.91v-5.969h.06l2.47 5.969h.823l2.47-5.969h.06v5.969h.91v-7.816h-1.133l-2.675 6.521h-.087l-2.676-6.521h-1.132v7.816Zm11.112.103c.785 0 1.397-.341 1.766-.964h.086v.861h.943v-3.997c0-1.214-.796-1.945-2.221-1.945-1.246 0-2.134.617-2.286 1.533l-.005.032h.942l.006-.016c.151-.455.612-.715 1.31-.715.873 0 1.311.39 1.311 1.111v.53l-1.673.103c-1.36.082-2.129.683-2.129 1.723v.011c0 1.061.839 1.733 1.95 1.733Zm-.986-1.755v-.011c0-.579.39-.894 1.278-.948l1.56-.097v.531c0 .834-.698 1.462-1.657 1.462-.677 0-1.181-.347-1.181-.937Zm5.435 1.652h.942v-3.618c0-.856.64-1.425 1.539-1.425.206 0 .384.022.579.054v-.915a3.189 3.189 0 0 0-.471-.038c-.791 0-1.338.357-1.56.97h-.087v-.867h-.942v5.839Zm7.203 0h5.059v-.877h-3.705v-.087l1.777-1.836c1.414-1.457 1.798-2.107 1.798-3.001v-.011c0-1.262-1.045-2.188-2.41-2.188-1.495 0-2.568.996-2.573 2.383l.011.005.931.006.006-.011c0-.921.623-1.533 1.56-1.533.921 0 1.479.618 1.479 1.441v.011c0 .682-.293 1.088-1.29 2.166l-2.643 2.86v.672Zm9.243.184c1.728 0 2.768-1.576 2.768-4.089v-.011c0-2.514-1.04-4.084-2.768-4.084-1.728 0-2.757 1.57-2.757 4.084v.011c0 2.513 1.029 4.089 2.757 4.089Zm0-.85c-1.121 0-1.777-1.246-1.777-3.239v-.011c0-1.994.656-3.229 1.777-3.229s1.788 1.235 1.788 3.229v.011c0 1.993-.667 3.239-1.788 3.239Zm6.215.666h.975v-7.816h-.969l-2.08 1.495v1.029l1.987-1.441h.087v6.733Zm5.722-8c-1.576 0-2.735 1.132-2.735 2.692v.011c0 1.5 1.094 2.616 2.562 2.616 1.056 0 1.793-.569 2.08-1.208h.103c0 .059 0 .124-.006.184-.059 1.63-.639 3.017-2.058 3.017-.791 0-1.338-.406-1.576-1.062l-.022-.059h-.98l.016.07c.265 1.154 1.24 1.923 2.551 1.923 1.896 0 3.006-1.56 3.006-4.225v-.011c0-2.941-1.511-3.948-2.941-3.948Zm-.005 4.468c-1.013 0-1.75-.747-1.75-1.787v-.011c0-1.013.786-1.809 1.766-1.809.991 0 1.766.812 1.766 1.842v.005c0 1.018-.769 1.76-1.782 1.76Z" class="✎ text"/>
        </g>
        <g class="Group 19523">
          <g class="Rectangle 6.13" filter="url(#d)">
            <path fill="#36F" d="M387.174 129.733c0-5.655 4.584-10.24 10.24-10.24a2.225 2.225 0 0 1 2.213 2.227v63.812a2.226 2.226 0 0 1-2.213 2.228c-5.656 0-10.24-4.585-10.24-10.24v-47.787Z"/>
          </g>
          <g class="Rectangle 6.4" filter="url(#e)">
            <path fill="#00A885" d="M87.652 129.733c0-5.655 4.585-10.24 10.24-10.24h272.214c5.655 0 10.24 4.585 10.24 10.24v47.787c0 5.655-4.585 10.24-10.24 10.24H97.892c-5.655 0-10.24-4.585-10.24-10.24v-47.787Z"/>
          </g>
          <path fill="#fff" fill-opacity=".9" d="M109.081 146h1.636v-2.86h1.337l1.458 2.86h1.852l-1.647-3.104c.894-.352 1.414-1.213 1.414-2.215v-.011c0-1.538-1.018-2.486-2.795-2.486h-3.255V146Zm1.636-4.052v-2.486h1.419c.818 0 1.321.488 1.321 1.24v.011c0 .769-.482 1.235-1.3 1.235h-1.44Zm8.268 4.177c1.744 0 2.513-1.008 2.697-1.755l.011-.055h-1.473l-.017.033c-.108.227-.493.596-1.186.596-.84 0-1.365-.569-1.381-1.549h4.106v-.493c0-1.804-1.084-2.996-2.822-2.996-1.739 0-2.85 1.219-2.85 3.115v.005c0 1.912 1.1 3.099 2.915 3.099Zm-.038-5.033c.688 0 1.18.445 1.278 1.311h-2.573c.098-.845.607-1.311 1.295-1.311Zm5.418 4.908h1.777l2.064-5.964h-1.663l-1.224 4.485h-.098l-1.235-4.485h-1.695l2.074 5.964Zm7.212.125c1.744 0 2.514-1.008 2.698-1.755l.011-.055h-1.474l-.016.033c-.108.227-.493.596-1.186.596-.84 0-1.365-.569-1.382-1.549h4.106v-.493c0-1.804-1.083-2.996-2.822-2.996s-2.849 1.219-2.849 3.115v.005c0 1.912 1.1 3.099 2.914 3.099Zm-.038-5.033c.688 0 1.181.445 1.279 1.311h-2.573c.097-.845.606-1.311 1.294-1.311Zm4.022 4.908h1.581v-3.45c0-.808.444-1.333 1.176-1.333.747 0 1.094.444 1.094 1.284V146h1.581v-3.857c0-1.424-.715-2.237-2.042-2.237-.85 0-1.44.406-1.711 1.051h-.098v-.921h-1.581V146Zm8.869.125c.85 0 1.457-.396 1.728-1.046h.097V146h1.582v-5.964h-1.582v3.445c0 .807-.422 1.333-1.202 1.333-.748 0-1.067-.439-1.067-1.284v-3.494h-1.582v3.857c0 1.419.688 2.232 2.026 2.232Zm7.547 0c1.745 0 2.514-1.008 2.698-1.755l.011-.055h-1.474l-.016.033c-.108.227-.493.596-1.186.596-.84 0-1.365-.569-1.381-1.549h4.105v-.493c0-1.804-1.083-2.996-2.822-2.996-1.738 0-2.849 1.219-2.849 3.115v.005c0 1.912 1.1 3.099 2.914 3.099Zm-.038-5.033c.688 0 1.181.445 1.279 1.311h-2.573c.097-.845.607-1.311 1.294-1.311Zm168.491 2.465h2.34v2.27h1.425v-2.27h2.345v-1.425h-2.345v-2.269h-1.425v2.269h-2.34v1.425Zm10.511 2.643c1.934 0 3.104-1.581 3.104-4.105v-.011c0-2.53-1.17-4.101-3.104-4.101-1.928 0-3.104 1.571-3.104 4.101v.011c0 2.524 1.176 4.105 3.104 4.105Zm0-1.294c-.921 0-1.446-1.046-1.446-2.811v-.011c0-1.772.525-2.806 1.446-2.806.926 0 1.452 1.034 1.452 2.806v.011c0 1.765-.526 2.811-1.452 2.811Zm3.799 3.196h1.056l.986-3.353h-1.565l-.477 3.353Zm6.361-10.124c-1.76 0-2.995 1.181-2.995 2.779v.01c0 1.479 1.024 2.563 2.546 2.563 1.083 0 1.733-.542 2.015-1.143h.108v.173c-.059 1.425-.558 2.535-1.69 2.535-.628 0-1.072-.33-1.262-.818l-.016-.049h-1.603l.01.049c.244 1.224 1.365 2.118 2.877 2.118 2.004 0 3.239-1.555 3.239-4.171v-.011c0-2.746-1.419-4.035-3.229-4.035Zm0 4.144c-.817 0-1.413-.591-1.413-1.414v-.011a1.41 1.41 0 0 1 1.424-1.419c.797 0 1.419.634 1.419 1.452v.01c0 .807-.622 1.382-1.43 1.382Zm7.516-4.144c-1.761 0-2.996 1.181-2.996 2.779v.01c0 1.479 1.024 2.563 2.546 2.563 1.083 0 1.733-.542 2.015-1.143h.108v.173c-.059 1.425-.558 2.535-1.69 2.535-.628 0-1.072-.33-1.262-.818l-.016-.049h-1.603l.01.049c.244 1.224 1.365 2.118 2.877 2.118 2.004 0 3.239-1.555 3.239-4.171v-.011c0-2.746-1.419-4.035-3.228-4.035Zm0 4.144c-.818 0-1.414-.591-1.414-1.414v-.011c0-.796.634-1.419 1.424-1.419.797 0 1.42.634 1.42 1.452v.01c0 .807-.623 1.382-1.43 1.382Zm6.372.346c1.148 0 1.847-.845 1.847-2.199v-.005c0-1.354-.699-2.194-1.847-2.194-1.143 0-1.847.84-1.847 2.194v.005c0 1.354.704 2.199 1.847 2.199Zm1.202 3.532 5.26-7.816H360.2L354.94 146h1.251Zm-1.202-4.398c-.472 0-.737-.482-.737-1.333v-.005c0-.856.265-1.327.737-1.327.476 0 .742.471.742 1.327v.005c0 .851-.266 1.333-.742 1.333Zm6.408 4.512c1.148 0 1.847-.845 1.847-2.199v-.006c0-1.354-.699-2.194-1.847-2.194-1.143 0-1.847.84-1.847 2.194v.006c0 1.354.704 2.199 1.847 2.199Zm0-.867c-.472 0-.737-.482-.737-1.332v-.006c0-.856.265-1.327.737-1.327.476 0 .742.471.742 1.327v.006c0 .85-.266 1.332-.742 1.332Z" class="Настройки магазина"/>
          <g class="ic_arrow-grow_m">
            <g class="Group 4">
              <path fill="#fff" d="M340.238 157.04v-1.707h8.534v8.533h-1.707v-6.826h-6.827Z" class="Vector 1"/>
              <path fill="#fff" fill-rule="evenodd" d="m347.919 157.467-9.387 9.386-1.28-1.28 9.387-9.386 1.28 1.28Z" class="Vector 2 (Stroke)" clip-rule="evenodd"/>
            </g>
          </g>
          <path fill="#fff" fill-opacity=".9" d="M109.068 168.359h9.616v-2.2h-5.995v-.11l2.768-2.53c2.282-2.099 3.043-3.144 3.043-4.748v-.018c0-2.255-1.925-3.85-4.721-3.85-2.795 0-4.867 1.751-4.867 4.244v.073h2.567l.009-.082c.036-1.192.953-2.081 2.31-2.081 1.173 0 1.998.77 2.007 1.852v.018c0 .917-.357 1.567-2.062 3.162l-4.675 4.373v1.897Zm16.724.23c3.025 0 5.115-1.88 5.115-4.648v-.018c0-2.494-1.815-4.299-4.327-4.299-1.338 0-2.429.54-2.979 1.43h-.055l.321-3.722h6.242v-2.2h-8.442l-.605 7.764h2.411c.156-.275.366-.532.632-.733.449-.358 1.027-.559 1.705-.559 1.43 0 2.448.98 2.457 2.374v.018c0 1.412-1.018 2.402-2.466 2.402-1.274 0-2.2-.77-2.392-1.769l-.019-.065h-2.557l.009.138c.165 2.209 2.072 3.887 4.95 3.887Zm12.131 0c3.154 0 5.326-1.568 5.326-3.841v-.019c0-1.714-1.274-2.979-3.043-3.327v-.055c1.522-.376 2.567-1.485 2.567-2.897v-.018c0-2.044-1.999-3.529-4.85-3.529-2.86 0-4.849 1.485-4.849 3.529v.018c0 1.412 1.036 2.521 2.567 2.897v.055c-1.778.348-3.053 1.613-3.053 3.327v.019c0 2.273 2.182 3.841 5.335 3.841Zm0-8.076c-1.246 0-2.117-.743-2.117-1.806v-.018c0-1.055.88-1.788 2.117-1.788 1.238 0 2.109.733 2.109 1.788v.018c0 1.063-.862 1.806-2.109 1.806Zm0 6.059c-1.448 0-2.465-.843-2.465-2.008v-.018c0-1.173 1.008-2.026 2.465-2.026 1.458 0 2.457.853 2.457 2.026v.018c0 1.165-1.017 2.008-2.457 2.008Zm14.694 1.787h2.74v-13.227h-2.75l-3.419 2.374v2.457l3.374-2.292h.055v10.688Zm11.104.23c3.025 0 5.115-1.88 5.115-4.648v-.018c0-2.494-1.815-4.299-4.326-4.299-1.339 0-2.429.54-2.979 1.43h-.055l.32-3.722h6.243v-2.2h-8.443l-.605 7.764h2.411a2.4 2.4 0 0 1 .633-.733c.449-.358 1.026-.559 1.705-.559 1.43 0 2.447.98 2.456 2.374v.018c0 1.412-1.017 2.402-2.465 2.402-1.275 0-2.2-.77-2.393-1.769l-.018-.065h-2.558l.009.138c.165 2.209 2.072 3.887 4.95 3.887Zm12.196 0c3.355 0 5.39-2.631 5.39-6.839v-.018c0-4.208-2.035-6.829-5.39-6.829-3.355 0-5.39 2.621-5.39 6.829v.018c0 4.208 2.035 6.839 5.39 6.839Zm0-2.219c-1.65 0-2.594-1.714-2.594-4.62v-.018c0-2.906.944-4.611 2.594-4.611s2.594 1.705 2.594 4.611v.018c0 2.906-.944 4.62-2.594 4.62Zm11.448 1.989h9.616v-2.2h-5.995v-.11l2.769-2.53c2.282-2.099 3.043-3.144 3.043-4.748v-.018c0-2.255-1.925-3.85-4.721-3.85-2.796 0-4.867 1.751-4.867 4.244v.073h2.566l.009-.082c.037-1.192.954-2.081 2.31-2.081 1.174 0 1.999.77 2.008 1.852v.018c0 .917-.358 1.567-2.063 3.162l-4.675 4.373v1.897Zm16.724.23c3.025 0 5.115-1.88 5.115-4.648v-.018c0-2.494-1.815-4.299-4.326-4.299-1.339 0-2.429.54-2.979 1.43h-.055l.32-3.722h6.243v-2.2h-8.443l-.605 7.764h2.411a2.4 2.4 0 0 1 .633-.733c.449-.358 1.026-.559 1.705-.559 1.43 0 2.447.98 2.456 2.374v.018c0 1.412-1.017 2.402-2.465 2.402-1.275 0-2.2-.77-2.393-1.769l-.018-.065h-2.558l.009.138c.165 2.209 2.072 3.887 4.95 3.887Zm12.306 0c2.943 0 5.097-1.925 5.097-4.63v-.018c0-2.475-1.751-4.29-4.309-4.29-1.787 0-3.089.898-3.611 2.127h-.055c0-.138.009-.321.018-.504.101-2.338.944-4.18 2.878-4.18 1.082 0 1.815.54 2.145 1.338l.028.082h2.732l-.019-.091c-.394-2.044-2.319-3.52-4.876-3.52-3.447 0-5.546 2.603-5.546 6.939v.018c0 4.483 2.328 6.729 5.518 6.729Zm-2.457-4.565v-.019c0-1.347 1.064-2.31 2.448-2.31 1.375 0 2.411.972 2.411 2.347v.018c0 1.302-1.091 2.329-2.439 2.329-1.356 0-2.42-1.036-2.42-2.365Zm8.924 7.095h1.851l1.348-5.07h-2.53l-.669 5.07Zm10.371-2.53c3.355 0 5.39-2.631 5.39-6.839v-.018c0-4.208-2.035-6.829-5.39-6.829-3.355 0-5.39 2.621-5.39 6.829v.018c0 4.208 2.035 6.839 5.39 6.839Zm0-2.219c-1.65 0-2.594-1.714-2.594-4.62v-.018c0-2.906.944-4.611 2.594-4.611s2.594 1.705 2.594 4.611v.018c0 2.906-.944 4.62-2.594 4.62Zm12.636 2.219c3.355 0 5.39-2.631 5.39-6.839v-.018c0-4.208-2.035-6.829-5.39-6.829-3.355 0-5.39 2.621-5.39 6.829v.018c0 4.208 2.035 6.839 5.39 6.839Zm0-2.219c-1.65 0-2.594-1.714-2.594-4.62v-.018c0-2.906.944-4.611 2.594-4.611s2.594 1.705 2.594 4.611v.018c0 2.906-.944 4.62-2.594 4.62Zm11.036-.192h1.741v1.906h2.686v-1.906h3.52v-.917h-3.52v-1.512h2.255c2.658 0 4.455-1.678 4.455-4.153v-.018c0-2.466-1.787-4.171-4.446-4.171h-4.95v7.425h-1.741v.917h1.741v1.512h-1.741v.917Zm4.427-4.492v-4.143h1.503c1.641 0 2.485.742 2.485 2.062v.019c0 1.32-.853 2.062-2.485 2.062h-1.503Z" class="Настройки магазина"/>
        </g>
        <g class="Group 76">
          <path fill="#000" fill-opacity=".05" fill-rule="evenodd" d="M74 534.067h320v1.194H74v-1.194Z" class="Rectangle 8.2" clip-rule="evenodd"/>
          <path fill="#000" fill-opacity=".05" fill-rule="evenodd" d="M74 451.579h320v1.194H74v-1.194Z" class="Rectangle 8" clip-rule="evenodd"/>
          <path fill="#000" fill-opacity=".05" fill-rule="evenodd" d="M74 286.234h320v1.194H74v-1.194Z" class="Rectangle 8 Copy 2" clip-rule="evenodd"/>
          <path fill="#000" fill-opacity=".05" fill-rule="evenodd" d="M74 369.097h320v1.193H74v-1.193Z" class="Rectangle 8 Copy 2.1" clip-rule="evenodd"/>
          <path fill="#B3B3B3" d="M90.01 271.058h.824v-6.614h-.82l-1.76 1.265v.871l1.682-1.219h.073v5.697Zm4.968.155c1.343 0 2.3-.93 2.3-2.264v-.009c0-1.279-.893-2.209-2.135-2.209-.6 0-1.119.243-1.412.687h-.073l.224-2.236h3.03v-.738h-3.68l-.349 3.799h.715c.083-.155.188-.284.303-.394.284-.27.66-.403 1.1-.403.857 0 1.47.628 1.47 1.508v.009c0 .894-.604 1.522-1.484 1.522-.775 0-1.348-.504-1.426-1.137l-.004-.037h-.793l.005.051c.096 1.059.976 1.851 2.209 1.851Zm5.903 0c1.462 0 2.342-1.333 2.342-3.46v-.009c0-2.127-.88-3.456-2.342-3.456-1.462 0-2.333 1.329-2.333 3.456v.009c0 2.127.871 3.46 2.333 3.46Zm0-.719c-.949 0-1.503-1.054-1.503-2.741v-.009c0-1.687.554-2.732 1.503-2.732.949 0 1.513 1.045 1.513 2.732v.009c0 1.687-.564 2.741-1.513 2.741Zm3.809.564h.798v-1.875l.462-.449 1.852 2.324h1.004l-2.296-2.865 2.154-2.076h-.967l-2.136 2.159h-.073v-4.121h-.798v6.903Z" class="15 K"/>
          <path fill="#B3B3B3" d="M90.01 356.401h.824v-6.613h-.82l-1.76 1.265v.87l1.682-1.219h.073v5.697Zm5.009.156c1.462 0 2.342-1.334 2.342-3.46v-.009c0-2.127-.88-3.456-2.342-3.456-1.462 0-2.333 1.329-2.333 3.456v.009c0 2.126.87 3.46 2.333 3.46Zm0-.719c-.949 0-1.503-1.055-1.503-2.741v-.009c0-1.687.554-2.732 1.503-2.732.949 0 1.512 1.045 1.512 2.732v.009c0 1.686-.563 2.741-1.512 2.741Zm5.972.719c1.462 0 2.342-1.334 2.342-3.46v-.009c0-2.127-.88-3.456-2.342-3.456-1.462 0-2.333 1.329-2.333 3.456v.009c0 2.126.871 3.46 2.333 3.46Zm0-.719c-.949 0-1.503-1.055-1.503-2.741v-.009c0-1.687.554-2.732 1.503-2.732.949 0 1.513 1.045 1.513 2.732v.009c0 1.686-.564 2.741-1.513 2.741Zm3.809.563h.798v-1.874l.462-.449 1.852 2.323h1.004l-2.296-2.864 2.154-2.076h-.967l-2.136 2.158h-.073v-4.12h-.798v6.902Z" class="10 K"/>
          <path fill="#B3B3B3" d="M90.564 436.88c1.343 0 2.3-.93 2.3-2.264v-.009c0-1.279-.893-2.209-2.135-2.209-.6 0-1.119.243-1.412.687h-.073l.224-2.236h3.03v-.738h-3.68l-.349 3.799h.715c.083-.155.188-.284.303-.394.284-.27.66-.403 1.1-.403.857 0 1.47.628 1.47 1.508v.009c0 .894-.604 1.522-1.484 1.522-.775 0-1.348-.504-1.425-1.137l-.005-.037h-.793l.005.051c.096 1.059.976 1.851 2.209 1.851Zm5.903 0c1.462 0 2.342-1.333 2.342-3.46v-.009c0-2.127-.88-3.456-2.342-3.456-1.462 0-2.333 1.329-2.333 3.456v.009c0 2.127.871 3.46 2.333 3.46Zm0-.719c-.948 0-1.503-1.054-1.503-2.741v-.009c0-1.687.555-2.732 1.503-2.732.949 0 1.513 1.045 1.513 2.732v.009c0 1.687-.564 2.741-1.513 2.741Zm3.809.564h.798v-1.875l.463-.449 1.851 2.324h1.004l-2.296-2.865 2.154-2.076h-.967l-2.136 2.159h-.073v-4.121h-.798v6.903Zm-9.671 82.848c1.462 0 2.342-1.334 2.342-3.461v-.009c0-2.126-.88-3.456-2.342-3.456-1.462 0-2.333 1.33-2.333 3.456v.009c0 2.127.87 3.461 2.333 3.461Zm0-.72c-.949 0-1.503-1.054-1.503-2.741v-.009c0-1.686.554-2.731 1.503-2.731.949 0 1.513 1.045 1.513 2.731v.009c0 1.687-.564 2.741-1.513 2.741Z" class="5 K"/>
          <path fill="#B3B3B3" d="M90.605 558.834c1.462 0 2.342-1.334 2.342-3.461v-.009c0-2.127-.88-3.456-2.342-3.456-1.462 0-2.333 1.329-2.333 3.456v.009c0 2.127.87 3.461 2.333 3.461Zm0-.72c-.949 0-1.503-1.054-1.503-2.741v-.009c0-1.687.554-2.732 1.503-2.732.949 0 1.513 1.045 1.513 2.732v.009c0 1.687-.564 2.741-1.513 2.741Zm5.376.564h.825v-6.614h-.82l-1.76 1.265v.871l1.682-1.219h.073v5.697Zm5.602 0h.77v-5.051h.05l2.09 5.051h.697l2.09-5.051h.05v5.051h.77v-6.614h-.958l-2.264 5.518h-.073l-2.265-5.518h-.957v6.614Zm9.519.087c.665 0 1.183-.289 1.494-.816h.074v.729h.797v-3.383c0-1.026-.673-1.645-1.879-1.645-1.054 0-1.806.522-1.934 1.297l-.005.027h.798l.004-.013c.129-.385.518-.605 1.11-.605.738 0 1.109.33 1.109.939v.449l-1.416.087c-1.151.069-1.802.578-1.802 1.458v.009c0 .898.711 1.467 1.65 1.467Zm-.834-1.485v-.009c0-.491.33-.757 1.082-.802l1.32-.083v.449c0 .706-.591 1.238-1.403 1.238-.573 0-.999-.294-.999-.793Zm4.716 1.398h.798v-3.062c0-.724.541-1.205 1.302-1.205.174 0 .325.018.49.045v-.774a2.642 2.642 0 0 0-.399-.032c-.669 0-1.132.302-1.32.82h-.073v-.733h-.798v4.941Zm60.954.156c1.462 0 2.342-1.334 2.342-3.461v-.009c0-2.127-.88-3.456-2.342-3.456-1.462 0-2.333 1.329-2.333 3.456v.009c0 2.127.871 3.461 2.333 3.461Zm0-.72c-.949 0-1.503-1.054-1.503-2.741v-.009c0-1.687.554-2.732 1.503-2.732.949 0 1.512 1.045 1.512 2.732v.009c0 1.687-.563 2.741-1.512 2.741Zm6.009.674c1.324 0 2.296-.816 2.296-1.921v-.009c0-.939-.655-1.54-1.618-1.622v-.019c.825-.174 1.403-.733 1.403-1.549v-.009c0-1.004-.83-1.705-2.09-1.705-1.238 0-2.09.72-2.196 1.797l-.004.045h.793l.004-.045c.069-.67.624-1.082 1.403-1.082.806 0 1.26.399 1.26 1.091v.009c0 .66-.55 1.146-1.338 1.146h-.793v.696h.829c.926 0 1.508.454 1.508 1.265v.01c0 .701-.591 1.187-1.457 1.187-.88 0-1.481-.449-1.545-1.1l-.004-.046h-.793l.004.055c.087 1.045.972 1.806 2.338 1.806Zm6.499-.11h.77v-5.051h.051l2.09 5.051h.696l2.09-5.051h.051v5.051h.77v-6.614h-.958l-2.264 5.518h-.074l-2.264-5.518h-.958v6.614Zm9.566.087c.665 0 1.182-.289 1.494-.816h.073v.729h.798v-3.383c0-1.026-.674-1.645-1.879-1.645-1.054 0-1.806.522-1.934 1.297l-.005.027h.798l.004-.013c.128-.385.518-.605 1.109-.605.738 0 1.109.33 1.109.939v.449l-1.416.087c-1.15.069-1.801.578-1.801 1.458v.009c0 .898.71 1.467 1.65 1.467Zm-.834-1.485v-.009c0-.491.33-.757 1.081-.802l1.32-.083v.449c0 .706-.591 1.238-1.402 1.238-.573 0-.999-.294-.999-.793Zm4.762 1.398h.797v-3.062c0-.724.541-1.205 1.302-1.205.174 0 .326.018.491.045v-.774a2.654 2.654 0 0 0-.399-.032c-.669 0-1.132.302-1.32.82h-.074v-.733h-.797v4.941Z" class="1.02"/>
          <path fill="#B3B3B3" d="M262.978 558.834c1.462 0 2.342-1.334 2.342-3.461v-.009c0-2.127-.88-3.456-2.342-3.456-1.462 0-2.333 1.329-2.333 3.456v.009c0 2.127.871 3.461 2.333 3.461Zm0-.72c-.949 0-1.503-1.054-1.503-2.741v-.009c0-1.687.554-2.732 1.503-2.732.949 0 1.513 1.045 1.513 2.732v.009c0 1.687-.564 2.741-1.513 2.741Zm5.931.72c1.343 0 2.301-.931 2.301-2.265v-.009c0-1.279-.894-2.209-2.136-2.209-.6 0-1.118.243-1.412.688h-.073l.225-2.237h3.029v-.738h-3.68l-.349 3.8h.715c.083-.156.188-.285.303-.395.284-.27.66-.403 1.1-.403.857 0 1.471.628 1.471 1.508v.009c0 .894-.605 1.522-1.485 1.522-.774 0-1.347-.504-1.425-1.137l-.005-.037h-.793l.005.051c.096 1.059.976 1.852 2.209 1.852Zm6.495-.156h.77v-5.051h.05l2.09 5.051h.697l2.09-5.051h.05v5.051h.77v-6.614h-.958l-2.264 5.518h-.073l-2.264-5.518h-.958v6.614Zm9.565.087c.665 0 1.183-.289 1.495-.816h.073v.729h.797v-3.383c0-1.026-.673-1.645-1.879-1.645-1.054 0-1.806.522-1.934 1.297l-.004.027h.797l.005-.013c.128-.385.518-.605 1.109-.605.738 0 1.109.33 1.109.939v.449l-1.416.087c-1.151.069-1.802.578-1.802 1.458v.009c0 .898.711 1.467 1.65 1.467Zm-.834-1.485v-.009c0-.491.33-.757 1.082-.802l1.32-.083v.449c0 .706-.591 1.238-1.403 1.238-.572 0-.999-.294-.999-.793Zm4.763 1.398h.797v-3.062c0-.724.541-1.205 1.302-1.205.174 0 .325.018.49.045v-.774a2.642 2.642 0 0 0-.399-.032c-.669 0-1.132.302-1.32.82h-.073v-.733h-.797v4.941Z" class="1.03"/>
          <path fill="#B3B3B3" d="M350.018 558.834c1.462 0 2.342-1.334 2.342-3.461v-.009c0-2.127-.88-3.456-2.342-3.456-1.462 0-2.333 1.329-2.333 3.456v.009c0 2.127.871 3.461 2.333 3.461Zm0-.72c-.949 0-1.503-1.054-1.503-2.741v-.009c0-1.687.554-2.732 1.503-2.732.949 0 1.513 1.045 1.513 2.732v.009c0 1.687-.564 2.741-1.513 2.741Zm3.85.564h.866l2.943-5.849v-.765H353.3v.738h3.538v.064l-2.97 5.812Zm7.934 0h.77v-5.051h.051l2.09 5.051h.696l2.09-5.051h.051v5.051h.77v-6.614h-.958l-2.264 5.518h-.074l-2.264-5.518h-.958v6.614Zm9.566.087c.664 0 1.182-.289 1.494-.816h.073v.729h.798v-3.383c0-1.026-.674-1.645-1.879-1.645-1.054 0-1.806.522-1.934 1.297l-.005.027h.797l.005-.013c.128-.385.518-.605 1.109-.605.738 0 1.109.33 1.109.939v.449l-1.416.087c-1.15.069-1.801.578-1.801 1.458v.009c0 .898.71 1.467 1.65 1.467Zm-.834-1.485v-.009c0-.491.33-.757 1.081-.802l1.32-.083v.449c0 .706-.591 1.238-1.402 1.238-.573 0-.999-.294-.999-.793Zm4.762 1.398h.797v-3.062c0-.724.541-1.205 1.302-1.205.174 0 .325.018.49.045v-.774a2.627 2.627 0 0 0-.398-.032c-.669 0-1.132.302-1.32.82h-.074v-.733h-.797v4.941Z" class="1.04"/>
        </g>
        <path stroke="#000" stroke-opacity=".1" stroke-width=".853" d="M234 275v259" class="Vector 2"/>
        <g class="Group 79">
          <g class="Group 52">
            <path fill="#00A885" d="M102.057 598.275h1.2v-9.62h-1.193l-2.56 1.84v1.267l2.446-1.773h.107v8.286Zm6.367.127c1 0 1.8-.473 2.24-1.273h.107v1.146h1.16v-10.04h-1.16v3.987h-.107c-.393-.767-1.253-1.26-2.24-1.26-1.827 0-3.013 1.46-3.013 3.713v.014c0 2.24 1.193 3.713 3.013 3.713Zm.267-1.027c-1.314 0-2.094-1.013-2.094-2.686v-.014c0-1.673.78-2.686 2.094-2.686 1.306 0 2.106 1.026 2.106 2.686v.014c0 1.66-.8 2.686-2.106 2.686Z" class="Неделя"/>
          </g>
          <g class="Group 51">
            <path fill="#00A885" d="M193.189 598.275h1.2v-9.62h-1.193l-2.56 1.84v1.267l2.446-1.773h.107v8.286Zm3.714 0h1.16v-4.453c0-1.013.713-1.833 1.653-1.833.907 0 1.493.553 1.493 1.406v4.88h1.16v-4.62c0-.913.66-1.666 1.66-1.666 1.014 0 1.5.526 1.5 1.586v4.7h1.16v-4.966c0-1.507-.82-2.347-2.286-2.347-.994 0-1.814.5-2.2 1.26h-.107c-.333-.747-1.013-1.26-1.987-1.26-.94 0-1.62.447-1.94 1.22h-.106v-1.093h-1.16v7.186Z" class="Неделя"/>
          </g>
          <g class="Group 87">
            <path fill="#00A885" d="M242.141 598.435c1.927 0 3.34-1.186 3.34-2.793v-.013c0-1.367-.953-2.24-2.353-2.36v-.027c1.2-.253 2.04-1.067 2.04-2.253v-.014c0-1.46-1.207-2.48-3.04-2.48-1.8 0-3.04 1.047-3.194 2.614l-.006.066h1.153l.007-.066c.1-.974.906-1.574 2.04-1.574 1.173 0 1.833.58 1.833 1.587v.013c0 .96-.8 1.667-1.947 1.667h-1.153v1.013h1.207c1.346 0 2.193.66 2.193 1.84v.014c0 1.02-.86 1.726-2.12 1.726-1.28 0-2.153-.653-2.247-1.6l-.006-.066h-1.154l.007.08c.127 1.52 1.413 2.626 3.4 2.626Zm5.02-.16h1.16v-4.453c0-1.013.714-1.833 1.654-1.833.906 0 1.493.553 1.493 1.406v4.88h1.16v-4.62c0-.913.66-1.666 1.66-1.666 1.013 0 1.5.526 1.5 1.586v4.7h1.16v-4.966c0-1.507-.82-2.347-2.287-2.347-.993 0-1.813.5-2.2 1.26h-.106c-.334-.747-1.014-1.26-1.987-1.26-.94 0-1.62.447-1.94 1.22h-.107v-1.093h-1.16v7.186Z" class="Неделя"/>
          </g>
          <g class="Group 88">
            <path fill="#00A885" d="M291.017 598.275h1.2v-9.62h-1.193l-2.56 1.84v1.267l2.446-1.773h.107v8.286Zm4.327 2.52c1.273 0 1.867-.466 2.46-2.08l2.807-7.626h-1.22l-1.967 5.913h-.107l-1.973-5.913h-1.24l2.66 7.193-.133.427c-.26.826-.66 1.126-1.32 1.126-.16 0-.34-.006-.48-.033v.953c.16.027.36.04.513.04Z" class="Неделя"/>
          </g>
          <g class="Group 86">
            <rect width="37.547" height="27.307" x="132.734" y="579.156" fill="#00A885" class="Rectangle 4 Copy 8.1" rx="13.653"/>
            <path fill="#fff" d="M146.763 598.276h1.2v-9.62h-1.193l-2.56 1.84v1.267l2.447-1.773h.106v8.286Zm5.101 0h1.16l1.6-5.56h.106l1.607 5.56h1.167l2.013-7.186h-1.153l-1.414 5.746h-.106l-1.607-5.746h-1.1l-1.607 5.746h-.106l-1.414-5.746h-1.16l2.014 7.186Z" class="Неделя"/>
          </g>
          <g class="Group 85">
            <path fill="#00A885" d="M334.995 597.502c2.747 0 4.414-1.967 4.414-5.033v-.014c0-3.08-1.68-5.026-4.414-5.026-2.72 0-4.413 1.94-4.413 5.026v.014c0 3.073 1.653 5.033 4.413 5.033Zm0-1.107c-2 0-3.186-1.546-3.186-3.926v-.014c0-2.4 1.226-3.92 3.186-3.92 1.967 0 3.187 1.52 3.187 3.92v.014c0 2.38-1.213 3.926-3.187 3.926Zm8.627.934c.227 0 .447-.027.673-.067v-.987a4.83 4.83 0 0 1-.533.027c-.747 0-1.04-.34-1.04-1.187v-4.066h1.573v-.96h-1.573v-1.86h-1.2v1.86h-1.133v.96h1.133v4.36c0 1.373.62 1.92 2.1 1.92Zm2.2-.054h1.16v-4.253c0-1.26.727-2.033 1.874-2.033 1.146 0 1.68.62 1.68 1.913v4.373h1.16v-4.653c0-1.707-.9-2.66-2.514-2.66-1.06 0-1.733.447-2.093 1.207h-.107v-3.934h-1.16v10.04Zm10.634.127c1.693 0 2.72-.96 2.967-1.933l.013-.054h-1.16l-.027.06c-.193.434-.793.894-1.766.894-1.28 0-2.1-.867-2.134-2.354h5.174v-.453c0-2.147-1.187-3.6-3.14-3.6-1.954 0-3.22 1.52-3.22 3.74v.007c0 2.253 1.24 3.693 3.293 3.693Zm-.08-6.407c1.06 0 1.847.674 1.967 2.094h-3.974c.127-1.367.94-2.094 2.007-2.094Zm4.674 6.28h1.16v-4.453c0-1.053.786-1.753 1.893-1.753.253 0 .473.026.713.066v-1.126a3.883 3.883 0 0 0-.58-.047c-.973 0-1.646.44-1.92 1.193h-.106v-1.066h-1.16v7.186Z" class="✎ text"/>
          </g>
        </g>
        <circle cx="234.426" cy="395.121" r="3.413" fill="#fff" stroke="#00BF96" stroke-width="2.56" class="Ellipse"/>
        <g class="large">
          <path fill="#fff" d="M74 6h320v98.987H74z"/>
          <g class="label">
            <g class="↳ label">
              <path fill="#00A885" d="M332.19 49.537c2.24 0 3.673-1.147 3.673-2.987v-.006c0-1.427-.826-2.24-2.846-2.674l-1.047-.233c-1.247-.267-1.753-.733-1.753-1.447v-.006c0-.907.833-1.434 1.96-1.434 1.166-.006 1.92.567 2.046 1.354l.014.086h1.446l-.006-.093c-.107-1.493-1.44-2.647-3.48-2.647s-3.48 1.147-3.487 2.807v.007c0 1.42.84 2.326 2.793 2.74l1.054.226c1.273.274 1.793.754 1.793 1.494v.006c0 .894-.873 1.507-2.1 1.507-1.287 0-2.213-.56-2.293-1.433l-.007-.074h-1.467l.007.087c.133 1.62 1.527 2.72 3.7 2.72Zm8.24-.093c1.854 0 2.854-1.067 3.094-2.02l.013-.06-1.393.006-.027.054c-.173.373-.727.833-1.653.833-1.194 0-1.954-.807-1.98-2.193h5.133v-.507c0-2.173-1.24-3.633-3.26-3.633-2.02 0-3.327 1.513-3.327 3.773v.007c0 2.293 1.28 3.74 3.4 3.74Zm-.066-6.334c.98 0 1.706.627 1.82 1.92h-3.68c.126-1.246.873-1.92 1.86-1.92Zm7.433 6.24c.28 0 .547-.033.78-.073v-1.153c-.2.02-.326.026-.546.026-.714 0-1.007-.32-1.007-1.1v-3.846h1.553v-1.14h-1.553v-1.827h-1.473v1.827h-1.134v1.14h1.134v4.193c0 1.393.653 1.953 2.246 1.953Zm4.954 0c.28 0 .547-.033.78-.073v-1.153c-.2.02-.327.026-.547.026-.713 0-1.006-.32-1.006-1.1v-3.846h1.553v-1.14h-1.553v-1.827h-1.474v1.827h-1.133v1.14h1.133v4.193c0 1.393.654 1.953 2.247 1.953Zm2.947-8.58a.91.91 0 0 0 .906-.9c0-.5-.413-.906-.906-.906-.5 0-.907.406-.907.906 0 .494.407.9.907.9Zm-.727 8.534h1.44v-7.24h-1.44v7.24Zm3.274 0h1.446v-4.247c0-1.167.66-1.893 1.72-1.893s1.56.593 1.56 1.793v4.347h1.44v-4.687c0-1.727-.893-2.693-2.513-2.693-1.053 0-1.747.466-2.1 1.24h-.107v-1.1h-1.446v7.24Zm10.973 2.553c2.054 0 3.354-1.053 3.354-2.7v-7.093h-1.44v1.186h-.087c-.42-.813-1.207-1.313-2.22-1.313-1.88 0-3.033 1.46-3.033 3.527v.013c0 2.04 1.146 3.473 3.006 3.473.994 0 1.794-.44 2.234-1.226h.106v1.426c0 .987-.706 1.547-1.9 1.547-.98 0-1.566-.353-1.686-.853l-.007-.014h-1.46l-.013.014c.173 1.206 1.306 2.013 3.146 2.013Zm-.02-4.1c-1.233 0-1.926-.94-1.926-2.287v-.013c0-1.347.693-2.293 1.926-2.293 1.22 0 1.967.946 1.967 2.293v.013c0 1.354-.74 2.287-1.967 2.287Zm7.814 1.687c1.72 0 3-.914 3-2.254v-.013c0-1.047-.667-1.64-2.06-1.967l-1.147-.26c-.813-.193-1.146-.473-1.146-.926v-.014c0-.58.573-.973 1.366-.973.814 0 1.327.38 1.467.887v.013h1.38v-.007c-.127-1.18-1.187-2.006-2.84-2.006-1.64 0-2.813.906-2.813 2.166v.007c0 1.06.633 1.68 2 1.993l1.153.267c.84.193 1.18.5 1.18.953v.014c0 .593-.62 1-1.513 1-.86 0-1.387-.367-1.567-.914l-.007-.006h-1.446v.006c.14 1.214 1.246 2.034 2.993 2.034Z" class="✎ text"/>
            </g>
          </g>
          <path fill="#000" d="M88.05 91.174h4.49l1.545-4.959h7.225l1.544 4.959h4.491l-7.126-20.443H95.19l-7.14 20.443Zm9.605-16.476h.085l2.578 8.316h-5.241l2.578-8.316Zm11.748 16.476h4.137v-8.727c0-1.983 1.176-3.343 3.032-3.343 1.855 0 2.79 1.133 2.79 3.117v8.953h4.137V81.37c0-3.556-1.898-5.695-5.242-5.695-2.295 0-3.853 1.062-4.632 2.805h-.085v-2.494h-4.137v15.187Zm21.552.24c1.997 0 3.612-.948 4.476-2.507h.085v2.267h4.137V80.76c0-3.06-2.536-5.085-6.46-5.085-4.009 0-6.417 2.011-6.644 4.816l-.014.17h3.782l.029-.127c.198-.978 1.133-1.7 2.677-1.7 1.615 0 2.493.836 2.493 2.181v.935l-3.754.227c-3.768.24-5.907 1.856-5.907 4.618v.029c0 2.677 2.054 4.59 5.1 4.59Zm-1.006-4.802v-.028c0-1.077.836-1.757 2.437-1.856l3.13-.198v1.09c0 1.587-1.36 2.777-3.215 2.777-1.431 0-2.352-.666-2.352-1.785Zm12.797 4.562h4.136V70.73h-4.136v20.443Zm9.623 5c3.371 0 5.411-1.147 6.601-4.731l5.214-15.456h-4.364l-3.215 11.872h-.114l-3.201-11.872h-4.548l5.369 15.187-.184.496c-.368 1.034-1.048 1.388-2.281 1.388a7.186 7.186 0 0 1-1.388-.142v3.075c.482.085 1.303.184 2.111.184Zm19.61-4.689c.865 0 1.53-.085 1.998-.155v-3.032c-.255.028-.524.07-.893.07-1.246 0-1.884-.48-1.884-1.897v-7.367h2.777v-3.117H171.2v-3.712h-4.179v3.712h-2.111v3.117h2.111v7.82c0 3.258 1.587 4.561 4.958 4.561Zm6.748-17.453c1.247 0 2.21-.977 2.21-2.153 0-1.176-.963-2.154-2.21-2.154-1.247 0-2.21.978-2.21 2.154s.963 2.153 2.21 2.153Zm-2.068 17.142h4.136V75.987h-4.136v15.187Zm14.17.311c4.052 0 6.673-2.521 6.871-5.836v-.085h-3.853l-.014.127c-.284 1.53-1.318 2.55-2.975 2.55-2.04 0-3.315-1.686-3.315-4.66v-.015c0-2.904 1.275-4.646 3.3-4.646 1.715 0 2.72 1.105 2.975 2.55l.029.127h3.839v-.099c-.156-3.287-2.777-5.823-6.899-5.823-4.548 0-7.452 3.018-7.452 7.877v.014c0 4.902 2.862 7.92 7.494 7.92Zm15.432 0c3.91 0 6.644-1.954 6.644-4.93v-.014c0-2.238-1.303-3.485-4.477-4.15l-2.578-.553c-1.53-.326-2.054-.836-2.054-1.615v-.014c0-.978.892-1.615 2.323-1.615 1.53 0 2.423.822 2.564 1.912l.015.114h3.81v-.142c-.099-2.663-2.351-4.802-6.389-4.802-3.867 0-6.361 1.87-6.361 4.76v.014c0 2.266 1.488 3.74 4.435 4.363l2.578.538c1.487.326 1.997.794 1.997 1.601v.014c0 .978-.949 1.587-2.507 1.587-1.658 0-2.55-.694-2.819-1.884l-.029-.128h-4.037l.014.128c.326 2.876 2.663 4.817 6.871 4.817Z" class="large title"/>
          <g class="light">
            <g class="Right Detail">
              <g class="battery">
                <path fill="#030303" d="M338.18 22.98h.899v-7.208h-.894l-1.918 1.378v.95l1.833-1.33h.08v6.21Zm5.395.17c1.593 0 2.552-1.454 2.552-3.772v-.01c0-2.317-.959-3.766-2.552-3.766s-2.543 1.448-2.543 3.766v.01c0 2.318.95 3.771 2.543 3.771Zm0-.785c-1.034 0-1.638-1.149-1.638-2.987v-.01c0-1.838.604-2.977 1.638-2.977 1.034 0 1.648 1.139 1.648 2.977v.01c0 1.838-.614 2.987-1.648 2.987Zm6.443.784c1.594 0 2.553-1.453 2.553-3.77v-.01c0-2.319-.959-3.767-2.553-3.767-1.593 0-2.542 1.448-2.542 3.766v.01c0 2.318.949 3.771 2.542 3.771Zm0-.784c-1.034 0-1.638-1.149-1.638-2.987v-.01c0-1.838.604-2.977 1.638-2.977 1.034 0 1.649 1.139 1.649 2.977v.01c0 1.838-.615 2.987-1.649 2.987Zm5.375-2.802c.919 0 1.479-.75 1.479-1.943v-.005c0-1.194-.56-1.938-1.479-1.938s-1.474.744-1.474 1.938v.005c0 1.194.555 1.943 1.474 1.943Zm.539 3.417 4.906-7.208h-.81l-4.905 7.208h.809Zm-.539-4.012c-.494 0-.779-.504-.779-1.348v-.005c0-.844.285-1.344.779-1.344.495 0 .784.5.784 1.344v.005c0 .844-.289 1.348-.784 1.348Zm5.165 4.106c.919 0 1.478-.749 1.478-1.943v-.005c0-1.193-.559-1.938-1.478-1.938-.919 0-1.474.745-1.474 1.938v.005c0 1.194.555 1.943 1.474 1.943Zm0-.594c-.495 0-.779-.505-.779-1.349v-.005c0-.844.284-1.343.779-1.343.494 0 .784.5.784 1.343v.005c0 .845-.29 1.349-.784 1.349Z" class="↳ 100%"/>
                <g class="Battery">
                  <path stroke="#000" stroke-width=".852" d="M367.404 14.684h14.492c.941 0 1.705.763 1.705 1.705v4.689c0 .941-.764 1.705-1.705 1.705h-14.492a1.705 1.705 0 0 1-1.705-1.705v-4.689c0-.942.763-1.705 1.705-1.705Z" class="Rectangle 3" opacity=".4"/>
                  <path fill="#000" fill-opacity=".5" fill-rule="evenodd" d="M384.88 20.544a1.706 1.706 0 0 0 0-3.303v3.303Z" class="Combined Shape" clip-rule="evenodd"/>
                  <rect width="15.345" height="5.541" x="366.978" y="15.963" fill="#000" class="Rectangle Copy 4" rx=".852"/>
                </g>
              </g>
            </g>
            <path fill="#030303" d="M216.299 16.067c-1.563 0-2.677 1.07-2.677 2.533v.01c0 1.369.969 2.378 2.353 2.378.989 0 1.618-.505 1.883-1.074h.1c0 .055-.005.11-.005.164-.055 1.38-.54 2.498-1.683 2.498-.635 0-1.079-.33-1.269-.834l-.015-.05h-1.269l.01.055c.23 1.104 1.219 1.888 2.543 1.888 1.813 0 2.907-1.439 2.907-3.866v-.01c0-2.598-1.339-3.692-2.878-3.692ZM216.294 20c-.819 0-1.413-.6-1.413-1.434v-.01c0-.804.634-1.439 1.428-1.439.8 0 1.424.645 1.424 1.469v.01c0 .814-.624 1.404-1.439 1.404Zm5.15-1.214c.46 0 .794-.35.794-.79a.773.773 0 0 0-.794-.789.777.777 0 0 0-.794.79c0 .44.34.789.794.789Zm0 3.706c.46 0 .794-.345.794-.79a.773.773 0 0 0-.794-.788.777.777 0 0 0-.794.789c0 .444.34.789.794.789Zm5.764.964h1.234v-1.383h.969v-1.064h-.969v-4.76h-1.823a95.977 95.977 0 0 0-2.937 4.77v1.053h3.526v1.384Zm-2.327-2.417v-.075a73.813 73.813 0 0 1 2.273-3.687h.074v3.762h-2.347Zm7.517 2.417h1.289v-7.208h-1.284l-1.883 1.324v1.214l1.793-1.269h.085v5.94Zm5.62 0h1.348l.6-1.863h2.667l.604 1.863h1.349l-2.557-7.208h-1.454l-2.557 7.208Zm3.241-5.869h.085l.969 3.012h-2.023l.969-3.012Zm4.566 5.87h1.164V18.33h.084l1.998 5.125h.88l1.998-5.125h.089v5.125h1.159v-7.208h-1.478l-2.163 5.545h-.085l-2.168-5.545h-1.478v7.208Z" class="↳ time"/>
            <g class="Left Detail">
              <path fill="#030303" fill-rule="evenodd" d="M105.265 14.685a7.76 7.76 0 0 1 5.552 2.308l-.928.901a6.427 6.427 0 0 0-4.624-1.936 6.43 6.43 0 0 0-4.602 1.913l-.929-.9a7.759 7.759 0 0 1 5.531-2.286Zm3.696 4.11a5.098 5.098 0 0 0-3.697-1.565 5.096 5.096 0 0 0-3.672 1.541l.929.9a3.764 3.764 0 0 1 2.743-1.17c1.099 0 2.087.462 2.768 1.197l.929-.902Zm-1.858 1.805a2.436 2.436 0 0 0-1.839-.826c-.723 0-1.372.309-1.813.798l1.843 1.786 1.809-1.758Z" class="Wifi" clip-rule="evenodd"/>
              <path fill="#000" fill-rule="evenodd" d="M94.619 14.259a.426.426 0 0 0-.426.426v7.246c0 .235.19.426.426.426h1.278c.236 0 .427-.19.427-.426v-7.246a.426.426 0 0 0-.427-.426H94.62Zm-3.41 2.131a.426.426 0 0 0-.426.426v5.115c0 .235.19.426.426.426h1.279c.235 0 .426-.19.426-.426v-5.115a.426.426 0 0 0-.426-.426h-1.28Zm-3.836 2.131c0-.235.19-.426.426-.426h1.279c.235 0 .426.19.426.426v3.41c0 .235-.19.426-.426.426h-1.279a.426.426 0 0 1-.426-.426v-3.41ZM84.389 19.8a.426.426 0 0 0-.426.426v1.705c0 .235.19.426.426.426h1.279c.235 0 .426-.19.426-.426v-1.705a.426.426 0 0 0-.426-.426h-1.279Z" class="Mobile Signal" clip-rule="evenodd"/>
            </g>
          </g>
        </g>
        <g class="Group 19524">
          <g class="ic_payments_m">
            <g class="ic M / payments">
              <mask id="f" width="18" height="18" x="185" y="635" class="f" maskUnits="userSpaceOnUse" style="mask-type:alpha">
                <path fill="#fff" fill-rule="evenodd" d="M201.724 635.613h-14.839c-.614 0-1.113.498-1.113 1.113v14.839c0 .614.499 1.113 1.113 1.113h14.839c.615 0 1.113-.499 1.113-1.113v-14.839c0-.615-.498-1.113-1.113-1.113Zm-12.539 9.386a.854.854 0 1 0 0-1.707.854.854 0 0 0 0 1.707Zm2.987-1.28a.427.427 0 1 0 0 .853h7.679a.427.427 0 0 0 0-.853h-7.679Zm-2.987-3.413a.853.853 0 1 0 .001-1.707.853.853 0 0 0-.001 1.707Zm2.987-1.28a.427.427 0 1 0 0 .853h7.679a.426.426 0 0 0 0-.853h-7.679Zm-2.987 10.665a.853.853 0 1 0 .001-1.707.853.853 0 0 0-.001 1.707Zm2.987-1.279a.427.427 0 1 0 0 .853h7.679a.427.427 0 0 0 0-.853h-7.679Z" class="Mask" clip-rule="evenodd"/>
              </mask>
              <g class="🎨 color" mask="url(#f)">
                <path fill="#0E1930" fill-opacity=".3" d="M184.065 633.906h20.477v20.477h-20.477z" class="color"/>
              </g>
            </g>
          </g>
          <g class="ic_analytic_m">
            <path fill="#00BF96" fill-rule="evenodd" d="M107.996 635.613h14.838c.615 0 1.113.485 1.113 1.082v14.424c0 .597-.498 1.081-1.113 1.081h-14.838c-.615 0-1.113-.484-1.113-1.081v-14.424c0-.597.498-1.082 1.113-1.082Zm8.937 14.505h-2.56v-11.945h2.56v11.945Zm-6.399 0h2.559v-5.973h-2.559v5.973Zm7.679 0v-8.533h2.559v8.533h-2.559Z" class="Subtract" clip-rule="evenodd"/>
          </g>
          <g class="icon copy">
            <mask id="g" width="18" height="19" x="264" y="634" class="g" maskUnits="userSpaceOnUse" style="mask-type:alpha">
              <path fill="#fff" fill-rule="evenodd" d="M264.719 636.087c0-.615.498-1.113 1.113-1.113h14.84c.615 0 1.113.498 1.113 1.113v14.84c0 .687-.086 1.113-.853 1.113-.373 0-.787-.303-1.212-.614-.449-.328-.91-.666-1.348-.666-.425 0-.85.318-1.277.636-.43.322-.863.644-1.299.644-.445 0-.897-.337-1.337-.665-.418-.311-.826-.615-1.207-.615-.394 0-.846.324-1.295.646-.444.318-.886.634-1.265.634-.371 0-.785-.302-1.21-.613-.449-.329-.911-.667-1.35-.667-.438 0-.899.344-1.347.678-.426.317-.84.626-1.213.626-.767 0-.853-.522-.853-1.137v-14.84Zm3.84 9.126a.427.427 0 1 0 0 .853h5.12a.426.426 0 0 0 0-.853h-5.12Zm-.427-2.986c0-.236.191-.427.427-.427h9.386a.427.427 0 1 1 0 .853h-9.386a.427.427 0 0 1-.427-.426Zm.427-3.84a.427.427 0 1 0 0 .853h9.386a.427.427 0 1 0 0-.853h-9.386Z" class="Mask" clip-rule="evenodd"/>
            </mask>
            <g class="🎨 color" mask="url(#g)">
              <path fill="#0E1930" fill-opacity=".3" d="M263.012 633.267h20.48v20.48h-20.48z" class="color"/>
            </g>
          </g>
          <g class="ic_user_m">
            <g class="ic M / user">
              <mask id="h" width="18" height="18" x="345" y="635" class="h" maskUnits="userSpaceOnUse" style="mask-type:alpha">
                <path fill="#fff" fill-rule="evenodd" d="M358.121 639.879a4.266 4.266 0 1 1-8.533 0 4.266 4.266 0 0 1 8.533 0Zm-9.386 5.973a3.413 3.413 0 0 0-3.413 3.413v3.413h17.065v-3.413a3.413 3.413 0 0 0-3.413-3.413h-10.239Z" class="Mask" clip-rule="evenodd"/>
              </mask>
              <g class="🎨 color" mask="url(#h)">
                <path fill="#0E1930" fill-opacity=".3" d="M343.615 633.906h20.477v20.477h-20.477z" class="color"/>
              </g>
            </g>
          </g>
        </g>
      </g>
      <rect width="326" height="667.333" x="71" y="3" stroke="#0D2E4F" stroke-width="6" rx="18.718"/>
    </g>
    <g class="LK_app_analitics_5">
      <g clip-path="url(#i)">
        <rect width="320" height="661.333" x="466" y="6" fill="#fff" rx="15.718"/>
        <g class="111">
          <g class="444">
            <path fill="url(#j)" d="m691.206 338.312 2.429-3.379c10.348-14.397 31.897-14.006 41.716.757l23.635 35.537v163.569H461.5V343.5l23.264 51.846c5.812 12.954 21.057 18.703 33.977 12.812l5.327-2.429a25.6 25.6 0 0 1 27.648 4.177l1.566 1.395c13.961 12.436 36.111 6.197 41.529-11.697l17.51-57.827c5.694-18.804 31-21.92 41.084-5.058 8.358 13.976 28.297 14.816 37.801 1.593Z" class="Vector"/>
            <path stroke="#0070F0" stroke-linecap="round" stroke-width="2.56" d="m463 348 21.686 47.552c5.866 12.864 21.049 18.537 33.913 12.671l5.469-2.494a25.6 25.6 0 0 1 27.648 4.177l1.566 1.395c13.961 12.436 36.111 6.197 41.529-11.697l17.51-57.827c5.694-18.804 31-21.92 41.084-5.058v0c8.358 13.976 28.297 14.816 37.801 1.593l2.428-3.378c10.348-14.397 31.898-14.006 41.716.757L758.5 370.5" class="Vector"/>
          </g>
          <circle cx="627.573" cy="325.946" r="3.413" fill="#fff" stroke="#0070F0" stroke-width="2.56" class="Ellipse"/>
        </g>
        <g class="Group 80">
          <path fill="#000" d="M591.002 258.934h1.72v-9.62h-1.713l-2.513 1.766v1.62l2.393-1.693h.113v7.927Zm7.647.24c2.287 0 3.673-1.94 3.673-5.047v-.013c0-3.107-1.386-5.04-3.673-5.04s-3.66 1.933-3.66 5.04v.013c0 3.107 1.373 5.047 3.66 5.047Zm0-1.394c-1.227 0-1.927-1.373-1.927-3.653v-.013c0-2.28.7-3.64 1.927-3.64s1.94 1.36 1.94 3.64v.013c0 2.28-.713 3.653-1.94 3.653Zm13.087 1.154h1.647v-1.847h1.293v-1.42h-1.293v-6.353h-2.433a127.335 127.335 0 0 0-3.92 6.366v1.407h4.706v1.847Zm-3.106-3.227v-.1a99.354 99.354 0 0 1 3.033-4.92h.1v5.02h-3.133Zm11.04 3.467c2.08 0 3.54-1.367 3.54-3.367v-.013c0-1.84-1.3-3.174-3.093-3.174-.907 0-1.654.387-2.054 1.034h-.113l.267-2.927h4.433v-1.413h-5.773l-.467 5.633h1.473c.114-.213.274-.4.447-.547.353-.32.82-.48 1.36-.48 1.1 0 1.887.787 1.887 1.907v.013c0 1.134-.774 1.927-1.9 1.927-.987 0-1.714-.627-1.84-1.413l-.007-.047h-1.587l.007.087c.127 1.58 1.453 2.78 3.42 2.78Zm8.62 0c2.287 0 3.674-1.94 3.674-5.047v-.013c0-3.107-1.387-5.04-3.674-5.04-2.286 0-3.66 1.933-3.66 5.04v.013c0 3.107 1.374 5.047 3.66 5.047Zm0-1.394c-1.226 0-1.926-1.373-1.926-3.653v-.013c0-2.28.7-3.64 1.926-3.64 1.227 0 1.94 1.36 1.94 3.64v.013c0 2.28-.713 3.653-1.94 3.653Zm4.427 3.694h1.133l1.16-4.007h-1.713l-.58 4.007Zm7.36-2.3c2.287 0 3.674-1.94 3.674-5.047v-.013c0-3.107-1.387-5.04-3.674-5.04-2.286 0-3.66 1.933-3.66 5.04v.013c0 3.107 1.374 5.047 3.66 5.047Zm0-1.394c-1.226 0-1.926-1.373-1.926-3.653v-.013c0-2.28.7-3.64 1.926-3.64 1.227 0 1.94 1.36 1.94 3.64v.013c0 2.28-.713 3.653-1.94 3.653Zm8.807 1.394c2.287 0 3.674-1.94 3.674-5.047v-.013c0-3.107-1.387-5.04-3.674-5.04-2.286 0-3.66 1.933-3.66 5.04v.013c0 3.107 1.374 5.047 3.66 5.047Zm0-1.394c-1.226 0-1.926-1.373-1.926-3.653v-.013c0-2.28.7-3.64 1.926-3.64 1.227 0 1.94 1.36 1.94 3.64v.013c0 2.28-.713 3.653-1.94 3.653Zm8.201-.32h1.293v1.274h1.68v-1.274h2.6v-.78h-2.6v-1.24h1.707c1.88 0 3.14-1.226 3.14-2.953v-.013c0-1.72-1.213-2.96-3.073-2.96h-3.454v5.146h-1.293v.78h1.293v1.24h-1.293v.78Zm2.973-3.36v-3.206h1.294c1.226 0 1.846.606 1.846 1.593v.013c0 1-.626 1.6-1.853 1.6h-1.287Z" class="✎ text"/>
          <path fill="#666" d="M597.533 234.931c1.728 0 2.768-1.576 2.768-4.089v-.011c0-2.514-1.04-4.084-2.768-4.084-1.728 0-2.757 1.57-2.757 4.084v.011c0 2.513 1.029 4.089 2.757 4.089Zm0-.85c-1.121 0-1.777-1.246-1.777-3.239v-.011c0-1.994.656-3.229 1.777-3.229s1.787 1.235 1.787 3.229v.011c0 1.993-.666 3.239-1.787 3.239Zm7.872.666h.954v-1.62h1.11v-.872h-1.11v-5.324h-1.414a123.25 123.25 0 0 0-3.348 5.308v.888h3.808v1.62Zm-2.811-2.486v-.065a98.99 98.99 0 0 1 2.752-4.361h.065v4.426h-2.817Zm9.489 2.486h.91v-5.969h.06l2.47 5.969h.823l2.47-5.969h.06v5.969h.91v-7.816h-1.133l-2.675 6.521h-.087l-2.676-6.521h-1.132v7.816Zm11.112.103c.785 0 1.397-.341 1.766-.964h.086v.861h.943v-3.997c0-1.214-.796-1.945-2.221-1.945-1.246 0-2.134.617-2.286 1.533l-.005.032h.942l.006-.016c.151-.455.612-.715 1.31-.715.873 0 1.311.39 1.311 1.111v.53l-1.673.103c-1.36.082-2.129.683-2.129 1.723v.011c0 1.061.839 1.733 1.95 1.733Zm-.986-1.755v-.011c0-.579.39-.894 1.278-.948l1.56-.097v.531c0 .834-.698 1.462-1.657 1.462-.677 0-1.181-.347-1.181-.937Zm5.435 1.652h.942v-3.618c0-.856.64-1.425 1.539-1.425.206 0 .384.022.579.054v-.915a3.189 3.189 0 0 0-.471-.038c-.791 0-1.338.357-1.56.97h-.087v-.867h-.942v5.839Zm7.203 0h5.059v-.877h-3.705v-.087l1.777-1.836c1.414-1.457 1.798-2.107 1.798-3.001v-.011c0-1.262-1.045-2.188-2.41-2.188-1.495 0-2.568.996-2.573 2.383l.011.005.931.006.006-.011c0-.921.623-1.533 1.56-1.533.921 0 1.479.618 1.479 1.441v.011c0 .682-.293 1.088-1.29 2.166l-2.643 2.86v.672Zm9.243.184c1.728 0 2.768-1.576 2.768-4.089v-.011c0-2.514-1.04-4.084-2.768-4.084-1.728 0-2.757 1.57-2.757 4.084v.011c0 2.513 1.029 4.089 2.757 4.089Zm0-.85c-1.121 0-1.777-1.246-1.777-3.239v-.011c0-1.994.656-3.229 1.777-3.229s1.788 1.235 1.788 3.229v.011c0 1.993-.667 3.239-1.788 3.239Zm6.215.666h.975v-7.816h-.969l-2.08 1.495v1.029l1.987-1.441h.087v6.733Zm5.722-8c-1.576 0-2.735 1.132-2.735 2.692v.011c0 1.5 1.094 2.616 2.562 2.616 1.056 0 1.793-.569 2.08-1.208h.103c0 .059 0 .124-.006.184-.059 1.63-.639 3.017-2.058 3.017-.791 0-1.338-.406-1.576-1.062l-.022-.059h-.98l.016.07c.265 1.154 1.24 1.923 2.551 1.923 1.896 0 3.006-1.56 3.006-4.225v-.011c0-2.941-1.511-3.948-2.941-3.948Zm-.005 4.468c-1.013 0-1.75-.747-1.75-1.787v-.011c0-1.013.786-1.809 1.766-1.809.991 0 1.766.812 1.766 1.842v.005c0 1.018-.769 1.76-1.782 1.76Z" class="✎ text"/>
        </g>
        <path fill="#fff" fill-opacity=".1" d="M466 121.014h320v.992H466z" class="Rectangle 8"/>
        <g class="Group 2">
          <g class="Group 3">
            <g class="Rectangle 6.4" filter="url(#k)">
              <path fill="#36F" d="M479.653 129.733c0-5.655 4.585-10.24 10.24-10.24h272.214c5.655 0 10.24 4.585 10.24 10.24v47.787c0 5.655-4.585 10.24-10.24 10.24H489.893c-5.655 0-10.24-4.585-10.24-10.24v-47.787Z"/>
            </g>
            <g class="Rectangle 6.13" filter="url(#l)">
              <path fill="#00A885" d="M473.627 177.52c0 5.655-4.585 10.24-10.24 10.24a2.225 2.225 0 0 1-2.213-2.228v-63.811c0-1.222.991-2.228 2.213-2.228 5.655 0 10.24 4.585 10.24 10.24v47.787Z"/>
            </g>
            <path fill="#fff" fill-opacity=".9" d="M500.523 146h1.717l.579-1.896h2.758l.579 1.896h1.723l-2.72-7.816h-1.922L500.523 146Zm3.629-6.256h.097l.954 3.136h-2.01l.959-3.136Zm5.684 6.256h1.777l2.064-5.964h-1.663l-1.224 4.485h-.098l-1.235-4.485h-1.695l2.074 5.964Zm7.212.125c1.744 0 2.513-1.008 2.697-1.755l.011-.055h-1.473l-.016.033c-.109.227-.493.596-1.187.596-.839 0-1.365-.569-1.381-1.549h4.106v-.493c0-1.804-1.083-2.996-2.822-2.996s-2.849 1.219-2.849 3.115v.005c0 1.912 1.099 3.099 2.914 3.099Zm-.038-5.033c.688 0 1.181.445 1.278 1.311h-2.573c.098-.845.607-1.311 1.295-1.311Zm4.021 4.908h1.582v-3.337c0-.845.569-1.359 1.468-1.359.244 0 .487.038.726.092v-1.381a2.337 2.337 0 0 0-.591-.076c-.774 0-1.316.379-1.505 1.023h-.098v-.926h-1.582V146Zm6.28.092c.78 0 1.409-.33 1.712-.883h.098V146h1.56v-4.073c0-1.273-.894-2.021-2.476-2.021-1.5 0-2.486.694-2.611 1.739l-.005.049h1.462l.011-.022c.125-.352.488-.552 1.056-.552.65 0 1.003.292 1.003.807v.493l-1.441.086c-1.484.087-2.313.715-2.313 1.788v.011c0 1.083.807 1.787 1.944 1.787Zm-.4-1.885v-.011c0-.433.33-.688 1.007-.731l1.203-.076v.439c0 .628-.548 1.11-1.279 1.11-.547 0-.931-.276-.931-.731Zm7.883 3.889c1.804 0 2.947-.883 2.947-2.28v-5.78h-1.582v.975h-.076c-.319-.671-.959-1.072-1.777-1.072-1.527 0-2.453 1.181-2.453 2.936v.01c0 1.696.926 2.855 2.426 2.855.829 0 1.457-.341 1.788-.97h.097v1.111c0 .693-.493 1.089-1.338 1.089-.704 0-1.115-.239-1.202-.585l-.005-.022h-1.566v.027c.13 1.013 1.089 1.706 2.741 1.706Zm.022-3.569c-.856 0-1.344-.667-1.344-1.647v-.011c0-.98.493-1.647 1.344-1.647.85 0 1.365.667 1.365 1.647v.011c0 .98-.51 1.647-1.365 1.647Zm7.06 1.598c1.744 0 2.513-1.008 2.697-1.755l.011-.055h-1.473l-.017.033c-.108.227-.492.596-1.186.596-.839 0-1.365-.569-1.381-1.549h4.106v-.493c0-1.804-1.084-2.996-2.822-2.996-1.739 0-2.849 1.219-2.849 3.115v.005c0 1.912 1.099 3.099 2.914 3.099Zm-.038-5.033c.688 0 1.181.445 1.278 1.311h-2.573c.098-.845.607-1.311 1.295-1.311Zm9.44 5.033c1.555 0 2.486-.835 2.649-2.135l.005-.032h-1.462l-.011.022c-.141.595-.526.904-1.176.904-.845 0-1.316-.666-1.316-1.874v-.011c0-1.192.466-1.852 1.316-1.852.677 0 1.073.379 1.176.958l.005.011h1.474v-.016c-.141-1.333-1.078-2.194-2.66-2.194-1.869 0-2.92 1.132-2.92 3.093v.011c0 1.982 1.057 3.115 2.92 3.115Zm3.88-.125h1.582v-3.45c0-.808.444-1.333 1.175-1.333.748 0 1.095.444 1.095 1.284V146h1.581v-3.857c0-1.424-.715-2.237-2.042-2.237-.85 0-1.441.406-1.711 1.051h-.098v-3.201h-1.582V146Zm9.52.125c1.744 0 2.513-1.008 2.697-1.755l.011-.055h-1.473l-.017.033c-.108.227-.493.596-1.186.596-.839 0-1.365-.569-1.381-1.549h4.106v-.493c0-1.804-1.084-2.996-2.822-2.996-1.739 0-2.85 1.219-2.85 3.115v.005c0 1.912 1.1 3.099 2.915 3.099Zm-.038-5.033c.688 0 1.181.445 1.278 1.311h-2.573c.098-.845.607-1.311 1.295-1.311Zm6.648 5.033c1.555 0 2.486-.835 2.649-2.135l.005-.032h-1.462l-.011.022c-.141.595-.525.904-1.175.904-.845 0-1.317-.666-1.317-1.874v-.011c0-1.192.466-1.852 1.317-1.852.677 0 1.072.379 1.175.958l.005.011h1.474v-.016c-.141-1.333-1.078-2.194-2.66-2.194-1.869 0-2.919 1.132-2.919 3.093v.011c0 1.982 1.056 3.115 2.919 3.115Zm3.881-.125h1.581v-1.999l.434-.46 1.738 2.459h1.869l-2.448-3.434 2.291-2.53h-1.793l-1.993 2.356h-.098v-4.636h-1.581V146Zm138.675-2.444h5.958v-1.424h-5.958v1.424Zm9.341 2.443h1.635v-7.816h-1.63l-2.02 1.403v1.473l1.917-1.332h.098v6.272Zm4.53.135c.558 0 .953-.406.953-.942 0-.536-.395-.937-.953-.937-.552 0-.953.401-.953.937s.401.942.953.942Zm2.543-.135h5.638v-1.316h-3.445v-.125l1.447-1.349c1.424-1.316 1.885-2.052 1.885-2.941v-.016c0-1.349-1.127-2.27-2.736-2.27-1.711 0-2.881 1.03-2.881 2.53l.005.022h1.511v-.027c0-.743.526-1.252 1.289-1.252.748 0 1.203.466 1.203 1.132v.017c0 .547-.298.942-1.398 2.009l-2.518 2.486v1.1Zm10.033.2c1.755 0 2.969-1.121 2.969-2.767v-.011c0-1.49-1.051-2.562-2.508-2.562-.748 0-1.354.325-1.668.85h-.098l.195-2.226h3.613v-1.3h-4.886l-.363 4.626h1.403c.087-.168.217-.315.363-.434.26-.222.596-.336.991-.336.829 0 1.419.58 1.419 1.414v.011c0 .84-.585 1.43-1.424 1.43-.737 0-1.273-.46-1.387-1.035l-.011-.037h-1.484l.006.075c.092 1.306 1.197 2.302 2.87 2.302Zm6.086-3.732c1.148 0 1.847-.845 1.847-2.199v-.005c0-1.354-.699-2.194-1.847-2.194-1.143 0-1.848.84-1.848 2.194v.005c0 1.354.705 2.199 1.848 2.199Zm1.202 3.532 5.26-7.816h-1.252l-5.259 7.816h1.251Zm-1.202-4.398c-.472 0-.737-.482-.737-1.333v-.005c0-.856.265-1.327.737-1.327.476 0 .742.471.742 1.327v.005c0 .851-.266 1.333-.742 1.333Zm6.407 4.512c1.149 0 1.848-.845 1.848-2.199v-.006c0-1.354-.699-2.194-1.848-2.194-1.142 0-1.847.84-1.847 2.194v.006c0 1.354.705 2.199 1.847 2.199Zm0-.867c-.471 0-.736-.482-.736-1.332v-.006c0-.856.265-1.327.736-1.327.477 0 .743.471.743 1.327v.006c0 .85-.266 1.332-.743 1.332Z" class="Настройки магазина"/>
            <g class="ic_arrow-fall_m">
              <g class="Group 4">
                <path fill="#fff" d="M731.653 165.573v1.706h8.534v-8.533h-1.707v6.827h-6.827Z" class="Vector 1"/>
                <path fill="#fff" fill-rule="evenodd" d="m739.334 165.146-9.814-9.814-1.28 1.28 9.814 9.814 1.28-1.28Z" class="Vector 2 (Stroke)" clip-rule="evenodd"/>
              </g>
            </g>
            <path fill="#fff" fill-opacity=".9" d="M504.377 168.359h2.741v-13.227h-2.75l-3.419 2.374v2.457l3.373-2.292h.055v10.688Zm6.027 0h9.615v-2.2h-5.995v-.11l2.769-2.53c2.282-2.099 3.043-3.144 3.043-4.748v-.018c0-2.255-1.925-3.85-4.721-3.85-2.796 0-4.867 1.751-4.867 4.244v.073h2.566l.01-.082c.036-1.192.953-2.081 2.31-2.081 1.173 0 1.998.77 2.007 1.852v.018c0 .917-.357 1.567-2.062 3.162l-4.675 4.373v1.897Zm15.683 0h9.616v-2.2h-5.995v-.11l2.768-2.53c2.282-2.099 3.043-3.144 3.043-4.748v-.018c0-2.255-1.925-3.85-4.721-3.85-2.795 0-4.867 1.751-4.867 4.244v.073h2.567l.009-.082c.036-1.192.953-2.081 2.31-2.081 1.173 0 1.998.77 2.007 1.852v.018c0 .917-.357 1.567-2.062 3.162l-4.675 4.373v1.897Zm16.724.23c3.025 0 5.115-1.88 5.115-4.648v-.018c0-2.494-1.815-4.299-4.327-4.299-1.338 0-2.429.54-2.979 1.43h-.055l.321-3.722h6.242v-2.2h-8.442l-.605 7.764h2.411c.155-.275.366-.532.632-.733.449-.358 1.027-.559 1.705-.559 1.43 0 2.448.98 2.457 2.374v.018c0 1.412-1.018 2.402-2.466 2.402-1.274 0-2.2-.77-2.393-1.769l-.018-.065h-2.557l.009.138c.165 2.209 2.071 3.887 4.95 3.887Zm12.305 0c2.943 0 5.097-1.925 5.097-4.63v-.018c0-2.475-1.751-4.29-4.308-4.29-1.788 0-3.089.898-3.612 2.127h-.055c0-.138.009-.321.018-.504.101-2.338.945-4.18 2.879-4.18 1.081 0 1.815.54 2.145 1.338l.027.082h2.732l-.018-.091c-.395-2.044-2.32-3.52-4.877-3.52-3.447 0-5.546 2.603-5.546 6.939v.018c0 4.483 2.328 6.729 5.518 6.729Zm-2.456-4.565v-.019c0-1.347 1.063-2.31 2.447-2.31 1.375 0 2.411.972 2.411 2.347v.018c0 1.302-1.091 2.329-2.438 2.329-1.357 0-2.42-1.036-2.42-2.365Zm8.923 7.095h1.852l1.347-5.07h-2.53l-.669 5.07Zm10.372-2.53c3.355 0 5.39-2.631 5.39-6.839v-.018c0-4.208-2.035-6.829-5.39-6.829-3.355 0-5.39 2.621-5.39 6.829v.018c0 4.208 2.035 6.839 5.39 6.839Zm0-2.219c-1.65 0-2.595-1.714-2.595-4.62v-.018c0-2.906.945-4.611 2.595-4.611 1.65 0 2.594 1.705 2.594 4.611v.018c0 2.906-.944 4.62-2.594 4.62Zm12.635 2.219c3.355 0 5.39-2.631 5.39-6.839v-.018c0-4.208-2.035-6.829-5.39-6.829-3.355 0-5.39 2.621-5.39 6.829v.018c0 4.208 2.035 6.839 5.39 6.839Zm0-2.219c-1.65 0-2.594-1.714-2.594-4.62v-.018c0-2.906.944-4.611 2.594-4.611s2.595 1.705 2.595 4.611v.018c0 2.906-.945 4.62-2.595 4.62Zm11.036-.192h1.742v1.906h2.685v-1.906h3.52v-.917h-3.52v-1.512h2.255c2.659 0 4.455-1.678 4.455-4.153v-.018c0-2.466-1.787-4.171-4.445-4.171h-4.95v7.425h-1.742v.917h1.742v1.512h-1.742v.917Zm4.427-4.492v-4.143h1.504c1.641 0 2.484.742 2.484 2.062v.019c0 1.32-.853 2.062-2.484 2.062h-1.504Z" class="Настройки магазина"/>
          </g>
        </g>
        <g class="Rectangle 6.13" filter="url(#m)">
          <path fill="#F36" d="M777.174 129.733c0-5.655 4.584-10.24 10.24-10.24a2.225 2.225 0 0 1 2.213 2.227v63.812a2.226 2.226 0 0 1-2.213 2.228c-5.656 0-10.24-4.585-10.24-10.24v-47.787Z"/>
        </g>
        <g class="Group 76">
          <path fill="#000" fill-opacity=".05" fill-rule="evenodd" d="M466 534.067h320v1.194H466v-1.194Z" class="Rectangle 8.2" clip-rule="evenodd"/>
          <path fill="#000" fill-opacity=".05" fill-rule="evenodd" d="M466 451.579h320v1.194H466v-1.194Z" class="Rectangle 8" clip-rule="evenodd"/>
          <path fill="#000" fill-opacity=".05" fill-rule="evenodd" d="M466 286.234h320v1.194H466v-1.194Z" class="Rectangle 8 Copy 2" clip-rule="evenodd"/>
          <path fill="#000" fill-opacity=".05" fill-rule="evenodd" d="M466 369.097h320v1.193H466v-1.193Z" class="Rectangle 8 Copy 2.1" clip-rule="evenodd"/>
          <path fill="#B3B3B3" d="M482.009 271.058h.825v-6.614h-.82l-1.76 1.265v.871l1.682-1.219h.073v5.697Zm4.969.155c1.343 0 2.3-.93 2.3-2.264v-.009c0-1.279-.893-2.209-2.135-2.209-.601 0-1.119.243-1.412.687h-.073l.224-2.236h3.03v-.738h-3.681l-.348 3.799h.715c.083-.155.188-.284.303-.394.284-.27.66-.403 1.1-.403.857 0 1.471.628 1.471 1.508v.009c0 .894-.605 1.522-1.485 1.522-.775 0-1.348-.504-1.426-1.137l-.004-.037h-.793l.004.051c.097 1.059.977 1.851 2.21 1.851Zm3.74-.155h.797v-1.875l.463-.449 1.852 2.324h1.004l-2.297-2.865 2.155-2.076h-.968l-2.135 2.159h-.074v-4.121h-.797v6.903Z" class="15 K"/>
          <path fill="#B3B3B3" d="M482.009 356.401h.825v-6.613h-.82l-1.76 1.265v.87l1.682-1.219h.073v5.697Zm5.01.156c1.462 0 2.342-1.334 2.342-3.46v-.009c0-2.127-.88-3.456-2.342-3.456-1.462 0-2.333 1.329-2.333 3.456v.009c0 2.126.871 3.46 2.333 3.46Zm0-.719c-.949 0-1.503-1.055-1.503-2.741v-.009c0-1.687.554-2.732 1.503-2.732.949 0 1.512 1.045 1.512 2.732v.009c0 1.686-.563 2.741-1.512 2.741Zm3.809.563h.797v-1.874l.463-.449 1.852 2.323h1.004l-2.297-2.864 2.155-2.076h-.968l-2.135 2.158h-.074v-4.12h-.797v6.902Z" class="10 K"/>
          <path fill="#B3B3B3" d="M482.564 436.88c1.343 0 2.301-.93 2.301-2.264v-.009c0-1.279-.894-2.209-2.136-2.209-.601 0-1.119.243-1.412.687h-.073l.224-2.236h3.03v-.738h-3.681l-.348 3.799h.715c.083-.155.188-.284.303-.394.284-.27.66-.403 1.1-.403.857 0 1.471.628 1.471 1.508v.009c0 .894-.605 1.522-1.485 1.522-.775 0-1.348-.504-1.426-1.137l-.004-.037h-.793l.005.051c.096 1.059.976 1.851 2.209 1.851Zm3.74-.155h.797v-1.875l.463-.449 1.852 2.324h1.004l-2.297-2.865 2.155-2.076h-.967l-2.136 2.159h-.074v-4.121h-.797v6.903Zm-3.699 82.848c1.462 0 2.342-1.334 2.342-3.461v-.009c0-2.126-.88-3.456-2.342-3.456-1.462 0-2.333 1.33-2.333 3.456v.009c0 2.127.871 3.461 2.333 3.461Zm0-.72c-.949 0-1.503-1.054-1.503-2.741v-.009c0-1.686.554-2.731 1.503-2.731.949 0 1.512 1.045 1.512 2.731v.009c0 1.687-.563 2.741-1.512 2.741Z" class="5 K"/>
          <path fill="#B3B3B3" d="M482.605 558.834c1.462 0 2.342-1.334 2.342-3.461v-.009c0-2.127-.88-3.456-2.342-3.456-1.462 0-2.333 1.329-2.333 3.456v.009c0 2.127.871 3.461 2.333 3.461Zm0-.72c-.949 0-1.503-1.054-1.503-2.741v-.009c0-1.687.554-2.732 1.503-2.732.949 0 1.512 1.045 1.512 2.732v.009c0 1.687-.563 2.741-1.512 2.741Zm5.376.564h.825v-6.614h-.82l-1.76 1.265v.871l1.682-1.219h.073v5.697Zm5.602 0h.77v-5.051h.05l2.09 5.051h.697l2.09-5.051h.05v5.051h.77v-6.614h-.958l-2.264 5.518h-.073l-2.265-5.518h-.957v6.614Zm9.519.087c.665 0 1.183-.289 1.494-.816h.074v.729h.797v-3.383c0-1.026-.673-1.645-1.879-1.645-1.054 0-1.806.522-1.934 1.297l-.005.027h.798l.004-.013c.129-.385.518-.605 1.11-.605.738 0 1.109.33 1.109.939v.449l-1.416.087c-1.151.069-1.802.578-1.802 1.458v.009c0 .898.711 1.467 1.65 1.467Zm-.834-1.485v-.009c0-.491.33-.757 1.082-.802l1.32-.083v.449c0 .706-.591 1.238-1.403 1.238-.573 0-.999-.294-.999-.793Zm4.716 1.398h.798v-3.062c0-.724.541-1.205 1.302-1.205.174 0 .325.018.49.045v-.774a2.642 2.642 0 0 0-.399-.032c-.669 0-1.132.302-1.32.82h-.073v-.733h-.798v4.941Zm60.954.156c1.462 0 2.342-1.334 2.342-3.461v-.009c0-2.127-.88-3.456-2.342-3.456-1.462 0-2.333 1.329-2.333 3.456v.009c0 2.127.871 3.461 2.333 3.461Zm0-.72c-.949 0-1.503-1.054-1.503-2.741v-.009c0-1.687.554-2.732 1.503-2.732.949 0 1.512 1.045 1.512 2.732v.009c0 1.687-.563 2.741-1.512 2.741Zm6.009.674c1.324 0 2.296-.816 2.296-1.921v-.009c0-.939-.655-1.54-1.618-1.622v-.019c.825-.174 1.403-.733 1.403-1.549v-.009c0-1.004-.83-1.705-2.09-1.705-1.238 0-2.09.72-2.196 1.797l-.004.045h.793l.004-.045c.069-.67.624-1.082 1.403-1.082.806 0 1.26.399 1.26 1.091v.009c0 .66-.55 1.146-1.338 1.146h-.793v.696h.829c.926 0 1.508.454 1.508 1.265v.01c0 .701-.591 1.187-1.457 1.187-.88 0-1.481-.449-1.545-1.1l-.004-.046h-.793l.004.055c.087 1.045.972 1.806 2.338 1.806Zm6.499-.11h.77v-5.051h.051l2.09 5.051h.696l2.09-5.051h.051v5.051h.77v-6.614h-.958l-2.264 5.518h-.074l-2.264-5.518h-.958v6.614Zm9.566.087c.665 0 1.182-.289 1.494-.816h.073v.729h.798v-3.383c0-1.026-.674-1.645-1.879-1.645-1.054 0-1.806.522-1.934 1.297l-.005.027h.798l.004-.013c.128-.385.518-.605 1.109-.605.738 0 1.109.33 1.109.939v.449l-1.416.087c-1.15.069-1.801.578-1.801 1.458v.009c0 .898.71 1.467 1.65 1.467Zm-.834-1.485v-.009c0-.491.33-.757 1.081-.802l1.32-.083v.449c0 .706-.591 1.238-1.402 1.238-.573 0-.999-.294-.999-.793Zm4.762 1.398h.797v-3.062c0-.724.541-1.205 1.302-1.205.174 0 .326.018.491.045v-.774a2.654 2.654 0 0 0-.399-.032c-.669 0-1.132.302-1.32.82h-.074v-.733h-.797v4.941Z" class="1.02"/>
          <path fill="#B3B3B3" d="M654.978 558.834c1.462 0 2.342-1.334 2.342-3.461v-.009c0-2.127-.88-3.456-2.342-3.456-1.462 0-2.333 1.329-2.333 3.456v.009c0 2.127.871 3.461 2.333 3.461Zm0-.72c-.949 0-1.503-1.054-1.503-2.741v-.009c0-1.687.554-2.732 1.503-2.732.949 0 1.513 1.045 1.513 2.732v.009c0 1.687-.564 2.741-1.513 2.741Zm5.931.72c1.343 0 2.301-.931 2.301-2.265v-.009c0-1.279-.894-2.209-2.136-2.209-.6 0-1.118.243-1.412.688h-.073l.225-2.237h3.029v-.738h-3.68l-.349 3.8h.715c.083-.156.188-.285.303-.395.284-.27.66-.403 1.1-.403.857 0 1.471.628 1.471 1.508v.009c0 .894-.605 1.522-1.485 1.522-.774 0-1.347-.504-1.425-1.137l-.005-.037h-.793l.005.051c.096 1.059.976 1.852 2.209 1.852Zm6.495-.156h.77v-5.051h.05l2.09 5.051h.697l2.09-5.051h.05v5.051h.77v-6.614h-.958l-2.264 5.518h-.073l-2.264-5.518h-.958v6.614Zm9.565.087c.665 0 1.183-.289 1.495-.816h.073v.729h.797v-3.383c0-1.026-.673-1.645-1.879-1.645-1.054 0-1.806.522-1.934 1.297l-.004.027h.797l.005-.013c.128-.385.518-.605 1.109-.605.738 0 1.109.33 1.109.939v.449l-1.416.087c-1.151.069-1.802.578-1.802 1.458v.009c0 .898.711 1.467 1.65 1.467Zm-.834-1.485v-.009c0-.491.33-.757 1.082-.802l1.32-.083v.449c0 .706-.591 1.238-1.403 1.238-.572 0-.999-.294-.999-.793Zm4.763 1.398h.797v-3.062c0-.724.541-1.205 1.302-1.205.174 0 .325.018.49.045v-.774a2.642 2.642 0 0 0-.399-.032c-.669 0-1.132.302-1.32.82h-.073v-.733h-.797v4.941Z" class="1.03"/>
          <path fill="#B3B3B3" d="M742.018 558.834c1.462 0 2.342-1.334 2.342-3.461v-.009c0-2.127-.88-3.456-2.342-3.456-1.462 0-2.333 1.329-2.333 3.456v.009c0 2.127.871 3.461 2.333 3.461Zm0-.72c-.949 0-1.503-1.054-1.503-2.741v-.009c0-1.687.554-2.732 1.503-2.732.949 0 1.513 1.045 1.513 2.732v.009c0 1.687-.564 2.741-1.513 2.741Zm3.85.564h.866l2.943-5.849v-.765H745.3v.738h3.538v.064l-2.97 5.812Zm7.934 0h.77v-5.051h.051l2.09 5.051h.696l2.09-5.051h.051v5.051h.77v-6.614h-.958l-2.264 5.518h-.074l-2.264-5.518h-.958v6.614Zm9.566.087c.664 0 1.182-.289 1.494-.816h.073v.729h.798v-3.383c0-1.026-.674-1.645-1.879-1.645-1.054 0-1.806.522-1.934 1.297l-.005.027h.797l.005-.013c.128-.385.518-.605 1.109-.605.738 0 1.109.33 1.109.939v.449l-1.416.087c-1.15.069-1.801.578-1.801 1.458v.009c0 .898.71 1.467 1.65 1.467Zm-.834-1.485v-.009c0-.491.33-.757 1.081-.802l1.32-.083v.449c0 .706-.591 1.238-1.402 1.238-.573 0-.999-.294-.999-.793Zm4.762 1.398h.797v-3.062c0-.724.541-1.205 1.302-1.205.174 0 .325.018.49.045v-.774a2.627 2.627 0 0 0-.398-.032c-.669 0-1.132.302-1.32.82h-.074v-.733h-.797v4.941Z" class="1.04"/>
        </g>
        <path stroke="#000" stroke-opacity=".1" stroke-width=".853" d="M627 273v261" class="Vector 2"/>
        <g class="Group 79">
          <g class="Group 52">
            <path fill="#00A885" d="M494.057 598.275h1.2v-9.62h-1.193l-2.56 1.84v1.267l2.446-1.773h.107v8.286Zm6.367.127c1 0 1.8-.473 2.24-1.273h.107v1.146h1.16v-10.04h-1.16v3.987h-.107c-.393-.767-1.253-1.26-2.24-1.26-1.827 0-3.013 1.46-3.013 3.713v.014c0 2.24 1.193 3.713 3.013 3.713Zm.267-1.027c-1.314 0-2.094-1.013-2.094-2.686v-.014c0-1.673.78-2.686 2.094-2.686 1.306 0 2.106 1.026 2.106 2.686v.014c0 1.66-.8 2.686-2.106 2.686Z" class="Неделя"/>
          </g>
          <g class="Group 51">
            <path fill="#00A885" d="M585.189 598.275h1.2v-9.62h-1.193l-2.56 1.84v1.267l2.446-1.773h.107v8.286Zm3.714 0h1.16v-4.453c0-1.013.713-1.833 1.653-1.833.907 0 1.493.553 1.493 1.406v4.88h1.16v-4.62c0-.913.66-1.666 1.66-1.666 1.014 0 1.5.526 1.5 1.586v4.7h1.16v-4.966c0-1.507-.82-2.347-2.286-2.347-.994 0-1.814.5-2.2 1.26h-.107c-.333-.747-1.013-1.26-1.987-1.26-.94 0-1.62.447-1.94 1.22h-.106v-1.093h-1.16v7.186Z" class="Неделя"/>
          </g>
          <g class="Group 87">
            <path fill="#00A885" d="M634.141 598.435c1.927 0 3.34-1.186 3.34-2.793v-.013c0-1.367-.953-2.24-2.353-2.36v-.027c1.2-.253 2.04-1.067 2.04-2.253v-.014c0-1.46-1.207-2.48-3.04-2.48-1.8 0-3.04 1.047-3.194 2.614l-.006.066h1.153l.007-.066c.1-.974.906-1.574 2.04-1.574 1.173 0 1.833.58 1.833 1.587v.013c0 .96-.8 1.667-1.947 1.667h-1.153v1.013h1.207c1.346 0 2.193.66 2.193 1.84v.014c0 1.02-.86 1.726-2.12 1.726-1.28 0-2.153-.653-2.247-1.6l-.006-.066h-1.154l.007.08c.127 1.52 1.413 2.626 3.4 2.626Zm5.02-.16h1.16v-4.453c0-1.013.714-1.833 1.654-1.833.906 0 1.493.553 1.493 1.406v4.88h1.16v-4.62c0-.913.66-1.666 1.66-1.666 1.013 0 1.5.526 1.5 1.586v4.7h1.16v-4.966c0-1.507-.82-2.347-2.287-2.347-.993 0-1.813.5-2.2 1.26h-.106c-.334-.747-1.014-1.26-1.987-1.26-.94 0-1.62.447-1.94 1.22h-.107v-1.093h-1.16v7.186Z" class="Неделя"/>
          </g>
          <g class="Group 88">
            <path fill="#00A885" d="M683.017 598.275h1.2v-9.62h-1.193l-2.56 1.84v1.267l2.446-1.773h.107v8.286Zm4.327 2.52c1.273 0 1.867-.466 2.46-2.08l2.807-7.626h-1.22l-1.967 5.913h-.107l-1.973-5.913h-1.24l2.66 7.193-.133.427c-.26.826-.66 1.126-1.32 1.126-.16 0-.34-.006-.48-.033v.953c.16.027.36.04.513.04Z" class="Неделя"/>
          </g>
          <g class="Group 86">
            <rect width="37.547" height="27.307" x="524.734" y="579.156" fill="#00A885" class="Rectangle 4 Copy 8.1" rx="13.653"/>
            <path fill="#fff" d="M538.763 598.276h1.2v-9.62h-1.193l-2.56 1.84v1.267l2.447-1.773h.106v8.286Zm5.101 0h1.16l1.6-5.56h.106l1.607 5.56h1.167l2.013-7.186h-1.153l-1.414 5.746h-.106l-1.607-5.746h-1.1l-1.607 5.746h-.106l-1.414-5.746h-1.16l2.014 7.186Z" class="Неделя"/>
          </g>
          <g class="Group 85">
            <path fill="#00A885" d="M726.995 597.502c2.747 0 4.414-1.967 4.414-5.033v-.014c0-3.08-1.68-5.026-4.414-5.026-2.72 0-4.413 1.94-4.413 5.026v.014c0 3.073 1.653 5.033 4.413 5.033Zm0-1.107c-2 0-3.186-1.546-3.186-3.926v-.014c0-2.4 1.226-3.92 3.186-3.92 1.967 0 3.187 1.52 3.187 3.92v.014c0 2.38-1.213 3.926-3.187 3.926Zm8.627.934c.227 0 .447-.027.673-.067v-.987a4.83 4.83 0 0 1-.533.027c-.747 0-1.04-.34-1.04-1.187v-4.066h1.573v-.96h-1.573v-1.86h-1.2v1.86h-1.133v.96h1.133v4.36c0 1.373.62 1.92 2.1 1.92Zm2.2-.054h1.16v-4.253c0-1.26.727-2.033 1.874-2.033 1.146 0 1.68.62 1.68 1.913v4.373h1.16v-4.653c0-1.707-.9-2.66-2.514-2.66-1.06 0-1.733.447-2.093 1.207h-.107v-3.934h-1.16v10.04Zm10.634.127c1.693 0 2.72-.96 2.967-1.933l.013-.054h-1.16l-.027.06c-.193.434-.793.894-1.766.894-1.28 0-2.1-.867-2.134-2.354h5.174v-.453c0-2.147-1.187-3.6-3.14-3.6-1.954 0-3.22 1.52-3.22 3.74v.007c0 2.253 1.24 3.693 3.293 3.693Zm-.08-6.407c1.06 0 1.847.674 1.967 2.094h-3.974c.127-1.367.94-2.094 2.007-2.094Zm4.674 6.28h1.16v-4.453c0-1.053.786-1.753 1.893-1.753.253 0 .473.026.713.066v-1.126a3.883 3.883 0 0 0-.58-.047c-.973 0-1.646.44-1.92 1.193h-.106v-1.066h-1.16v7.186Z" class="✎ text"/>
          </g>
        </g>
        <g class="large">
          <path fill="#fff" d="M466 6h320v98.987H466z"/>
          <g class="label">
            <g class="↳ label">
              <path fill="#00A885" d="M724.19 49.537c2.24 0 3.673-1.147 3.673-2.987v-.006c0-1.427-.826-2.24-2.846-2.674l-1.047-.233c-1.247-.267-1.753-.733-1.753-1.447v-.006c0-.907.833-1.434 1.96-1.434 1.166-.006 1.92.567 2.046 1.354l.014.086h1.446l-.006-.093c-.107-1.493-1.44-2.647-3.48-2.647s-3.48 1.147-3.487 2.807v.007c0 1.42.84 2.326 2.793 2.74l1.054.226c1.273.274 1.793.754 1.793 1.494v.006c0 .894-.873 1.507-2.1 1.507-1.287 0-2.213-.56-2.293-1.433l-.007-.074h-1.467l.007.087c.133 1.62 1.527 2.72 3.7 2.72Zm8.24-.093c1.854 0 2.854-1.067 3.094-2.02l.013-.06-1.393.006-.027.054c-.173.373-.727.833-1.653.833-1.194 0-1.954-.807-1.98-2.193h5.133v-.507c0-2.173-1.24-3.633-3.26-3.633-2.02 0-3.327 1.513-3.327 3.773v.007c0 2.293 1.28 3.74 3.4 3.74Zm-.066-6.334c.98 0 1.706.627 1.82 1.92h-3.68c.126-1.246.873-1.92 1.86-1.92Zm7.433 6.24c.28 0 .547-.033.78-.073v-1.153c-.2.02-.326.026-.546.026-.714 0-1.007-.32-1.007-1.1v-3.846h1.553v-1.14h-1.553v-1.827h-1.473v1.827h-1.134v1.14h1.134v4.193c0 1.393.653 1.953 2.246 1.953Zm4.954 0c.28 0 .547-.033.78-.073v-1.153c-.2.02-.327.026-.547.026-.713 0-1.006-.32-1.006-1.1v-3.846h1.553v-1.14h-1.553v-1.827h-1.474v1.827h-1.133v1.14h1.133v4.193c0 1.393.654 1.953 2.247 1.953Zm2.947-8.58a.91.91 0 0 0 .906-.9c0-.5-.413-.906-.906-.906-.5 0-.907.406-.907.906 0 .494.407.9.907.9Zm-.727 8.534h1.44v-7.24h-1.44v7.24Zm3.274 0h1.446v-4.247c0-1.167.66-1.893 1.72-1.893s1.56.593 1.56 1.793v4.347h1.44v-4.687c0-1.727-.893-2.693-2.513-2.693-1.053 0-1.747.466-2.1 1.24h-.107v-1.1h-1.446v7.24Zm10.973 2.553c2.054 0 3.354-1.053 3.354-2.7v-7.093h-1.44v1.186h-.087c-.42-.813-1.207-1.313-2.22-1.313-1.88 0-3.033 1.46-3.033 3.527v.013c0 2.04 1.146 3.473 3.006 3.473.994 0 1.794-.44 2.234-1.226h.106v1.426c0 .987-.706 1.547-1.9 1.547-.98 0-1.566-.353-1.686-.853l-.007-.014h-1.46l-.013.014c.173 1.206 1.306 2.013 3.146 2.013Zm-.02-4.1c-1.233 0-1.926-.94-1.926-2.287v-.013c0-1.347.693-2.293 1.926-2.293 1.22 0 1.967.946 1.967 2.293v.013c0 1.354-.74 2.287-1.967 2.287Zm7.814 1.687c1.72 0 3-.914 3-2.254v-.013c0-1.047-.667-1.64-2.06-1.967l-1.147-.26c-.813-.193-1.146-.473-1.146-.926v-.014c0-.58.573-.973 1.366-.973.814 0 1.327.38 1.467.887v.013h1.38v-.007c-.127-1.18-1.187-2.006-2.84-2.006-1.64 0-2.813.906-2.813 2.166v.007c0 1.06.633 1.68 2 1.993l1.153.267c.84.193 1.18.5 1.18.953v.014c0 .593-.62 1-1.513 1-.86 0-1.387-.367-1.567-.914l-.007-.006h-1.446v.006c.14 1.214 1.246 2.034 2.993 2.034Z" class="✎ text"/>
            </g>
          </g>
          <path fill="#000" d="M480.05 91.174h4.491l1.544-4.959h7.225l1.544 4.959h4.491l-7.126-20.443h-5.029l-7.14 20.443Zm9.605-16.476h.085l2.578 8.316h-5.241l2.578-8.316Zm11.748 16.476h4.137v-8.727c0-1.983 1.176-3.343 3.032-3.343 1.855 0 2.79 1.133 2.79 3.117v8.953h4.137V81.37c0-3.556-1.898-5.695-5.242-5.695-2.295 0-3.853 1.062-4.632 2.805h-.085v-2.494h-4.137v15.187Zm21.552.24c1.997 0 3.612-.948 4.476-2.507h.085v2.267h4.137V80.76c0-3.06-2.536-5.085-6.46-5.085-4.009 0-6.417 2.011-6.644 4.816l-.014.17h3.782l.029-.127c.198-.978 1.133-1.7 2.677-1.7 1.615 0 2.493.836 2.493 2.181v.935l-3.754.227c-3.768.24-5.907 1.856-5.907 4.618v.029c0 2.677 2.054 4.59 5.1 4.59Zm-1.006-4.802v-.028c0-1.077.836-1.757 2.437-1.856l3.13-.198v1.09c0 1.587-1.36 2.777-3.215 2.777-1.431 0-2.352-.666-2.352-1.785Zm12.797 4.562h4.136V70.73h-4.136v20.443Zm9.623 5c3.371 0 5.411-1.147 6.601-4.731l5.214-15.456h-4.364l-3.215 11.872h-.114l-3.201-11.872h-4.548l5.369 15.187-.184.496c-.368 1.034-1.048 1.388-2.281 1.388a7.186 7.186 0 0 1-1.388-.142v3.075c.482.085 1.303.184 2.111.184Zm19.61-4.689c.865 0 1.53-.085 1.998-.155v-3.032c-.255.028-.524.07-.893.07-1.246 0-1.884-.48-1.884-1.897v-7.367h2.777v-3.117H563.2v-3.712h-4.179v3.712h-2.111v3.117h2.111v7.82c0 3.258 1.587 4.561 4.958 4.561Zm6.748-17.453c1.247 0 2.21-.977 2.21-2.153 0-1.176-.963-2.154-2.21-2.154-1.247 0-2.21.978-2.21 2.154s.963 2.153 2.21 2.153Zm-2.068 17.142h4.136V75.987h-4.136v15.187Zm14.17.311c4.052 0 6.673-2.521 6.871-5.836v-.085h-3.853l-.014.127c-.284 1.53-1.318 2.55-2.975 2.55-2.04 0-3.315-1.686-3.315-4.66v-.015c0-2.904 1.275-4.646 3.3-4.646 1.715 0 2.72 1.105 2.975 2.55l.029.127h3.839v-.099c-.156-3.287-2.777-5.823-6.899-5.823-4.548 0-7.452 3.018-7.452 7.877v.014c0 4.902 2.862 7.92 7.494 7.92Zm15.432 0c3.91 0 6.644-1.954 6.644-4.93v-.014c0-2.238-1.303-3.485-4.477-4.15l-2.578-.553c-1.53-.326-2.054-.836-2.054-1.615v-.014c0-.978.892-1.615 2.323-1.615 1.53 0 2.423.822 2.564 1.912l.015.114h3.81v-.142c-.099-2.663-2.351-4.802-6.389-4.802-3.867 0-6.361 1.87-6.361 4.76v.014c0 2.266 1.488 3.74 4.435 4.363l2.578.538c1.487.326 1.997.794 1.997 1.601v.014c0 .978-.949 1.587-2.507 1.587-1.658 0-2.55-.694-2.819-1.884l-.029-.128h-4.037l.014.128c.326 2.876 2.663 4.817 6.871 4.817Z" class="large title"/>
          <g class="light">
            <g class="Right Detail">
              <g class="battery">
                <path fill="#030303" d="M730.18 22.98h.899v-7.208h-.894l-1.918 1.378v.95l1.833-1.33h.08v6.21Zm5.395.17c1.593 0 2.552-1.454 2.552-3.772v-.01c0-2.317-.959-3.766-2.552-3.766s-2.543 1.448-2.543 3.766v.01c0 2.318.95 3.771 2.543 3.771Zm0-.785c-1.034 0-1.638-1.149-1.638-2.987v-.01c0-1.838.604-2.977 1.638-2.977 1.034 0 1.648 1.139 1.648 2.977v.01c0 1.838-.614 2.987-1.648 2.987Zm6.443.784c1.594 0 2.553-1.453 2.553-3.77v-.01c0-2.319-.959-3.767-2.553-3.767-1.593 0-2.542 1.448-2.542 3.766v.01c0 2.318.949 3.771 2.542 3.771Zm0-.784c-1.034 0-1.638-1.149-1.638-2.987v-.01c0-1.838.604-2.977 1.638-2.977 1.034 0 1.649 1.139 1.649 2.977v.01c0 1.838-.615 2.987-1.649 2.987Zm5.375-2.802c.919 0 1.479-.75 1.479-1.943v-.005c0-1.194-.56-1.938-1.479-1.938s-1.474.744-1.474 1.938v.005c0 1.194.555 1.943 1.474 1.943Zm.539 3.417 4.906-7.208h-.81l-4.905 7.208h.809Zm-.539-4.012c-.494 0-.779-.504-.779-1.348v-.005c0-.844.285-1.344.779-1.344.495 0 .784.5.784 1.344v.005c0 .844-.289 1.348-.784 1.348Zm5.165 4.106c.919 0 1.478-.749 1.478-1.943v-.005c0-1.193-.559-1.938-1.478-1.938-.919 0-1.474.745-1.474 1.938v.005c0 1.194.555 1.943 1.474 1.943Zm0-.594c-.495 0-.779-.505-.779-1.349v-.005c0-.844.284-1.343.779-1.343.494 0 .784.5.784 1.343v.005c0 .845-.29 1.349-.784 1.349Z" class="↳ 100%"/>
                <g class="Battery">
                  <path stroke="#000" stroke-width=".852" d="M759.404 14.684h14.492c.941 0 1.705.763 1.705 1.705v4.689c0 .941-.764 1.705-1.705 1.705h-14.492a1.705 1.705 0 0 1-1.705-1.705v-4.689c0-.942.763-1.705 1.705-1.705Z" class="Rectangle 3" opacity=".4"/>
                  <path fill="#000" fill-opacity=".5" fill-rule="evenodd" d="M776.88 20.544a1.706 1.706 0 0 0 0-3.303v3.303Z" class="Combined Shape" clip-rule="evenodd"/>
                  <rect width="15.345" height="5.541" x="758.978" y="15.963" fill="#000" class="Rectangle Copy 4" rx=".852"/>
                </g>
              </g>
            </g>
            <path fill="#030303" d="M608.299 16.067c-1.563 0-2.677 1.07-2.677 2.533v.01c0 1.369.969 2.378 2.353 2.378.989 0 1.618-.505 1.883-1.074h.1c0 .055-.005.11-.005.164-.055 1.38-.54 2.498-1.683 2.498-.635 0-1.079-.33-1.269-.834l-.015-.05h-1.269l.01.055c.23 1.104 1.219 1.888 2.543 1.888 1.813 0 2.907-1.439 2.907-3.866v-.01c0-2.598-1.339-3.692-2.878-3.692ZM608.294 20c-.819 0-1.413-.6-1.413-1.434v-.01c0-.804.634-1.439 1.428-1.439.8 0 1.424.645 1.424 1.469v.01c0 .814-.624 1.404-1.439 1.404Zm5.15-1.214c.46 0 .794-.35.794-.79a.773.773 0 0 0-.794-.789.777.777 0 0 0-.794.79c0 .44.34.789.794.789Zm0 3.706c.46 0 .794-.345.794-.79a.773.773 0 0 0-.794-.788.777.777 0 0 0-.794.789c0 .444.34.789.794.789Zm5.764.964h1.234v-1.383h.969v-1.064h-.969v-4.76h-1.823a95.977 95.977 0 0 0-2.937 4.77v1.053h3.526v1.384Zm-2.327-2.417v-.075a73.813 73.813 0 0 1 2.273-3.687h.074v3.762h-2.347Zm7.517 2.417h1.289v-7.208h-1.284l-1.883 1.324v1.214l1.793-1.269h.085v5.94Zm5.62 0h1.348l.6-1.863h2.667l.604 1.863h1.349l-2.557-7.208h-1.454l-2.557 7.208Zm3.241-5.869h.085l.969 3.012h-2.023l.969-3.012Zm4.566 5.87h1.164V18.33h.084l1.998 5.125h.88l1.998-5.125h.089v5.125h1.159v-7.208h-1.478l-2.163 5.545h-.085l-2.168-5.545h-1.478v7.208Z" class="↳ time"/>
            <g class="Left Detail">
              <path fill="#030303" fill-rule="evenodd" d="M497.265 14.685a7.76 7.76 0 0 1 5.552 2.308l-.928.901a6.427 6.427 0 0 0-4.624-1.936 6.43 6.43 0 0 0-4.602 1.913l-.929-.9a7.76 7.76 0 0 1 5.531-2.286Zm3.696 4.11a5.098 5.098 0 0 0-3.697-1.565 5.096 5.096 0 0 0-3.672 1.541l.929.9a3.764 3.764 0 0 1 2.743-1.17c1.099 0 2.087.462 2.768 1.197l.929-.902Zm-1.858 1.805a2.436 2.436 0 0 0-1.839-.826c-.723 0-1.372.309-1.813.798l1.843 1.786 1.809-1.758Z" class="Wifi" clip-rule="evenodd"/>
              <path fill="#000" fill-rule="evenodd" d="M486.619 14.259a.426.426 0 0 0-.426.426v7.246c0 .235.19.426.426.426h1.279c.235 0 .426-.19.426-.426v-7.246a.426.426 0 0 0-.426-.426h-1.279Zm-3.41 2.131a.426.426 0 0 0-.426.426v5.115c0 .235.191.426.426.426h1.279c.235 0 .426-.19.426-.426v-5.115a.426.426 0 0 0-.426-.426h-1.279Zm-3.836 2.131c0-.235.191-.426.426-.426h1.279c.235 0 .426.19.426.426v3.41a.426.426 0 0 1-.426.426h-1.279a.426.426 0 0 1-.426-.426v-3.41Zm-2.984 1.279a.426.426 0 0 0-.426.426v1.705c0 .235.191.426.426.426h1.279c.235 0 .426-.19.426-.426v-1.705a.426.426 0 0 0-.426-.426h-1.279Z" class="Mobile Signal" clip-rule="evenodd"/>
            </g>
          </g>
        </g>
        <path fill="#fff" d="M466 624h320v46H466z" class="Background"/>
        <path stroke="#EEF1F0" d="M466 623.5h321" class="Line 22"/>
        <g class="ic_payments_m">
          <g class="ic M / payments">
            <mask id="n" width="18" height="18" x="577" y="635" class="n" maskUnits="userSpaceOnUse" style="mask-type:alpha">
              <path fill="#fff" fill-rule="evenodd" d="M593.724 635.613h-14.839c-.614 0-1.113.498-1.113 1.113v14.839c0 .614.499 1.113 1.113 1.113h14.839c.615 0 1.113-.499 1.113-1.113v-14.839c0-.615-.498-1.113-1.113-1.113Zm-12.539 9.386a.854.854 0 1 0 0-1.707.854.854 0 0 0 0 1.707Zm2.987-1.28a.427.427 0 1 0 0 .853h7.679a.427.427 0 0 0 0-.853h-7.679Zm-2.987-3.413a.853.853 0 1 0 .001-1.707.853.853 0 0 0-.001 1.707Zm2.987-1.28a.427.427 0 1 0 0 .853h7.679a.426.426 0 0 0 0-.853h-7.679Zm-2.987 10.665a.853.853 0 1 0 .001-1.707.853.853 0 0 0-.001 1.707Zm2.987-1.279a.427.427 0 1 0 0 .853h7.679a.427.427 0 0 0 0-.853h-7.679Z" class="Mask" clip-rule="evenodd"/>
            </mask>
            <g class="🎨 color" mask="url(#n)">
              <path fill="#0E1930" fill-opacity=".3" d="M576.065 633.906h20.477v20.477h-20.477z" class="color"/>
            </g>
          </g>
        </g>
        <g class="ic_analytic_m">
          <path fill="#00BF96" fill-rule="evenodd" d="M499.996 635.613h14.838c.615 0 1.113.485 1.113 1.082v14.424c0 .597-.498 1.081-1.113 1.081h-14.838c-.615 0-1.113-.484-1.113-1.081v-14.424c0-.597.498-1.082 1.113-1.082Zm8.937 14.505h-2.56v-11.945h2.56v11.945Zm-6.399 0h2.559v-5.973h-2.559v5.973Zm7.679 0v-8.533h2.559v8.533h-2.559Z" class="Subtract" clip-rule="evenodd"/>
        </g>
        <g class="icon copy">
          <mask id="o" width="18" height="19" x="656" y="634" class="o" maskUnits="userSpaceOnUse" style="mask-type:alpha">
            <path fill="#fff" fill-rule="evenodd" d="M656.719 636.087c0-.615.498-1.113 1.113-1.113h14.84c.615 0 1.113.498 1.113 1.113v14.84c0 .687-.086 1.113-.853 1.113-.373 0-.787-.303-1.212-.614-.449-.328-.91-.666-1.348-.666-.425 0-.85.318-1.277.636-.43.322-.863.644-1.299.644-.445 0-.897-.337-1.337-.665-.418-.311-.826-.615-1.207-.615-.394 0-.846.324-1.295.646-.444.318-.886.634-1.265.634-.371 0-.785-.302-1.21-.613-.449-.329-.911-.667-1.35-.667-.438 0-.899.344-1.347.678-.426.317-.84.626-1.213.626-.767 0-.853-.522-.853-1.137v-14.84Zm3.84 9.126a.427.427 0 1 0 0 .853h5.12a.426.426 0 0 0 0-.853h-5.12Zm-.427-2.986c0-.236.191-.427.427-.427h9.386a.427.427 0 1 1 0 .853h-9.386a.427.427 0 0 1-.427-.426Zm.427-3.84a.427.427 0 1 0 0 .853h9.386a.427.427 0 1 0 0-.853h-9.386Z" class="Mask" clip-rule="evenodd"/>
          </mask>
          <g class="🎨 color" mask="url(#o)">
            <path fill="#0E1930" fill-opacity=".3" d="M655.012 633.267h20.48v20.48h-20.48z" class="color"/>
          </g>
        </g>
        <g class="ic_user_m">
          <g class="ic M / user">
            <mask id="p" width="18" height="18" x="737" y="635" class="p" maskUnits="userSpaceOnUse" style="mask-type:alpha">
              <path fill="#fff" fill-rule="evenodd" d="M750.121 639.879a4.266 4.266 0 1 1-8.533 0 4.266 4.266 0 0 1 8.533 0Zm-9.386 5.973a3.413 3.413 0 0 0-3.413 3.413v3.413h17.065v-3.413a3.413 3.413 0 0 0-3.413-3.413h-10.239Z" class="Mask" clip-rule="evenodd"/>
            </mask>
            <g class="🎨 color" mask="url(#p)">
              <path fill="#0E1930" fill-opacity=".3" d="M735.615 633.906h20.477v20.477h-20.477z" class="color"/>
            </g>
          </g>
        </g>
      </g>
      <rect width="326" height="667.333" x="463" y="3" stroke="#0D2E4F" stroke-width="6" rx="18.718"/>
    </g>
    <path stroke="#EEF1F0" d="M73 623.5h321" class="Line 22"/>
  </g>
  <defs>
    <filter id="d" width="38.053" height="93.867" x="374.374" y="112.666" class="d" color-interpolation-filters="sRGB" filterUnits="userSpaceOnUse">
      <feFlood flood-opacity="0" result="BackgroundImageFix"/>
      <feColorMatrix in="SourceAlpha" result="hardAlpha" values="0 0 0 0 0 0 0 0 0 0 0 0 0 0 0 0 0 0 127 0"/>
      <feOffset dy="5.973"/>
      <feGaussianBlur stdDeviation="6.4"/>
      <feColorMatrix values="0 0 0 0 0 0 0 0 0 0 0 0 0 0 0 0 0 0 0.2 0"/>
      <feBlend in2="BackgroundImageFix" result="effect1_dropShadow_532_16472"/>
      <feBlend in="SourceGraphic" in2="effect1_dropShadow_532_16472" result="shape"/>
    </filter>
    <filter id="e" width="318.293" height="93.867" x="74.852" y="112.666" class="e" color-interpolation-filters="sRGB" filterUnits="userSpaceOnUse">
      <feFlood flood-opacity="0" result="BackgroundImageFix"/>
      <feColorMatrix in="SourceAlpha" result="hardAlpha" values="0 0 0 0 0 0 0 0 0 0 0 0 0 0 0 0 0 0 127 0"/>
      <feOffset dy="5.973"/>
      <feGaussianBlur stdDeviation="6.4"/>
      <feColorMatrix values="0 0 0 0 0 0 0 0 0 0 0 0 0 0 0 0 0 0 0.2 0"/>
      <feBlend in2="BackgroundImageFix" result="effect1_dropShadow_532_16472"/>
      <feBlend in="SourceGraphic" in2="effect1_dropShadow_532_16472" result="shape"/>
    </filter>
    <filter id="k" width="318.293" height="93.867" x="466.853" y="112.666" class="k" color-interpolation-filters="sRGB" filterUnits="userSpaceOnUse">
      <feFlood flood-opacity="0" result="BackgroundImageFix"/>
      <feColorMatrix in="SourceAlpha" result="hardAlpha" values="0 0 0 0 0 0 0 0 0 0 0 0 0 0 0 0 0 0 127 0"/>
      <feOffset dy="5.973"/>
      <feGaussianBlur stdDeviation="6.4"/>
      <feColorMatrix values="0 0 0 0 0 0 0 0 0 0 0 0 0 0 0 0 0 0 0.2 0"/>
      <feBlend in2="BackgroundImageFix" result="effect1_dropShadow_532_16472"/>
      <feBlend in="SourceGraphic" in2="effect1_dropShadow_532_16472" result="shape"/>
    </filter>
    <filter id="l" width="38.053" height="93.867" x="448.374" y="112.666" class="l" color-interpolation-filters="sRGB" filterUnits="userSpaceOnUse">
      <feFlood flood-opacity="0" result="BackgroundImageFix"/>
      <feColorMatrix in="SourceAlpha" result="hardAlpha" values="0 0 0 0 0 0 0 0 0 0 0 0 0 0 0 0 0 0 127 0"/>
      <feOffset dy="5.973"/>
      <feGaussianBlur stdDeviation="6.4"/>
      <feColorMatrix values="0 0 0 0 0 0 0 0 0 0 0 0 0 0 0 0 0 0 0.2 0"/>
      <feBlend in2="BackgroundImageFix" result="effect1_dropShadow_532_16472"/>
      <feBlend in="SourceGraphic" in2="effect1_dropShadow_532_16472" result="shape"/>
    </filter>
    <filter id="m" width="38.053" height="93.867" x="764.374" y="112.666" class="m" color-interpolation-filters="sRGB" filterUnits="userSpaceOnUse">
      <feFlood flood-opacity="0" result="BackgroundImageFix"/>
      <feColorMatrix in="SourceAlpha" result="hardAlpha" values="0 0 0 0 0 0 0 0 0 0 0 0 0 0 0 0 0 0 127 0"/>
      <feOffset dy="5.973"/>
      <feGaussianBlur stdDeviation="6.4"/>
      <feColorMatrix values="0 0 0 0 0 0 0 0 0 0 0 0 0 0 0 0 0 0 0.2 0"/>
      <feBlend in2="BackgroundImageFix" result="effect1_dropShadow_532_16472"/>
      <feBlend in="SourceGraphic" in2="effect1_dropShadow_532_16472" result="shape"/>
    </filter>
    <clipPath id="a" class="a">
      <path fill="#fff" d="M0 0h860v673H0z"/>
    </clipPath>
    <clipPath id="b" class="b">
      <rect width="320" height="661.333" x="74" y="6" fill="#fff" rx="15.718"/>
    </clipPath>
    <clipPath id="i" class="i">
      <rect width="320" height="661.333" x="466" y="6" fill="#fff" rx="15.718"/>
    </clipPath>
    <linearGradient id="c" x1="190.265" x2="190.265" y1="284.185" y2="548.009" class="c" gradientUnits="userSpaceOnUse">
      <stop stop-color="#00BF96" stop-opacity=".3"/>
      <stop offset="1" stop-color="#00BF96" stop-opacity="0"/>
    </linearGradient>
    <linearGradient id="j" x1="637.5" x2="637.5" y1="535" y2="323" class="j" gradientUnits="userSpaceOnUse">
      <stop stop-color="#36F" stop-opacity="0"/>
      <stop offset="1" stop-color="#36F" stop-opacity=".3"/>
    </linearGradient>
  </defs>
</svg>
