<svg width="276" height="98" viewBox="0 0 276 98" fill="none" xmlns="http://www.w3.org/2000/svg">
<g clip-path="url(#clip0_434_7188)">
<path d="M52.072 43.562V61.318C52.072 65.872 54.28 68.08 58.834 68.08H60.812C65.366 68.08 67.574 65.872 67.574 61.318V52.624H77.97V60.95C77.97 72.358 72.22 78.246 60.674 78.246H58.466C47.058 78.246 41.17 72.496 41.17 62.33V18.722C41.17 5.98 46.92 0.0919986 58.466 0.0919986H60.674C72.082 0.0919986 77.97 5.842 77.97 17.388V43.47H52.118V43.562H52.072ZM52.072 33.12H67.39V16.928C67.39 12.374 65.182 10.166 60.628 10.166H58.926C54.372 10.166 52.164 12.374 52.164 16.928V33.12H52.072Z" fill="white"/>
<path d="M85.054 1.012H95.818V5.934C98.394 3.22 102.81 0.184004 108.928 0.184004C118.128 0.184004 122.636 6.302 122.636 15.272V63.066C122.636 72.128 118.082 78.154 108.928 78.154C102.672 78.154 98.394 75.21 95.818 72.634V97.29H85.054V1.012ZM95.818 64.032C98.762 66.608 102.212 67.942 105.754 67.942C109.664 67.942 112.01 66.102 112.01 61.686V16.606C112.01 12.19 109.802 10.35 105.754 10.35C102.212 10.35 98.762 11.822 95.818 14.26V64.032Z" fill="white"/>
<path d="M129.168 50.784C129.168 41.354 132.25 37.536 140.438 34.73L154.882 29.808V16.928C154.882 12.374 152.674 9.936 148.12 9.936H146.418C141.864 9.936 139.656 12.374 139.656 16.928V27.692H129.26V17.296C129.26 5.888 135.01 0 146.556 0H148.626C160.034 0 165.922 5.75 165.922 17.296V77.234H155.158V72.45C152.214 75.256 148.166 78.108 142.048 78.108C133.446 78.108 129.444 73.186 129.444 64.63V50.784H129.168ZM154.928 64.4V39.284L145.13 42.964C141.22 44.574 139.84 46.506 139.84 50.922V62.56C139.84 66.24 141.68 68.08 145.13 68.08C148.396 67.942 151.34 66.838 154.928 64.4Z" fill="white"/>
<path d="M209.07 77.28H198.306V15.87C198.306 12.052 196.466 10.35 193.154 10.35C190.21 10.35 187.036 11.454 183.218 14.168V77.28H172.454V1.012H183.218V5.934C186.3 2.99 190.44 0.184004 196.328 0.184004C201.848 0.184004 205.528 2.392 207.46 6.44C211.278 3.128 215.786 0.184004 222.042 0.184004C230.368 0.184004 234.646 5.336 234.646 13.662V77.372H223.882V15.87C223.882 12.052 222.042 10.35 218.73 10.35C215.786 10.35 212.612 11.454 208.794 14.168V77.28H209.07Z" fill="white"/>
<path d="M27.554 8.004V22.08L9.522 39.238L27.554 56.166V70.518L0 44.528V34.224L27.554 8.004Z" fill="white"/>
<path d="M276 34.224V44.528L248.446 70.518V56.166L266.478 39.238L248.446 21.988V8.004L276 34.224Z" fill="white"/>
</g>
<defs>
<clipPath id="clip0_434_7188">
<rect width="276" height="97.06" fill="white"/>
</clipPath>
</defs>
</svg>
