<svg width="270" height="107" viewBox="0 0 270 107" fill="none" xmlns="http://www.w3.org/2000/svg">
<g clip-path="url(#clip0_432_7184)">
<path d="M118.821 40.3104C112.643 40.3104 106.2 44.8202 106.2 44.8202V41.922C106.2 41.2865 105.947 41.0319 105.311 41.0319H97.4246C96.7885 41.0319 96.407 41.4135 96.407 41.922V103.733C96.407 104.371 96.6615 104.752 97.2976 104.752H105.31C105.818 104.752 106.2 104.371 106.2 103.733V50.8236C106.2 50.8236 109.919 48.4671 114.436 48.4671C118.737 48.4671 122.132 50.6017 122.132 54.9783V103.73C122.132 104.368 122.513 104.75 123.15 104.75H131.035C131.671 104.75 131.925 104.239 131.925 103.73V52.2076C131.924 44.4481 127.153 40.3104 118.821 40.3104ZM180.164 9.30566H172.277C171.641 9.30566 171.26 9.68657 171.26 10.1963V41.3783C168.233 40.2173 165.476 39.6039 163.249 39.6039C150.441 39.6039 141.649 51.8475 141.649 75.3906C141.649 95.5603 150.202 106.377 161.364 106.377C166.068 106.377 169.952 103.681 172.796 101.153L174.517 104.072C174.808 104.576 175.045 104.749 175.629 104.749L180.165 104.754C180.674 104.754 181.056 104.372 181.056 103.734V10.1963C181.054 9.5596 180.799 9.30566 180.164 9.30566V9.30566ZM152.077 73.3076C152.077 60.3342 155.875 47.4891 163.628 47.4891C166.254 47.4891 168.776 48.3533 171.262 50.327V96.0305C169.319 97.0877 166.875 98.0607 164.234 98.0607C155.803 98.0607 152.077 88.0616 152.077 73.3076V73.3076ZM210.371 39.7315C197.238 39.7315 190.756 56.9111 190.756 75.6062C190.756 95.1756 200.001 106.143 211.887 106.143C217.111 106.143 222.313 104.087 225.723 102.192C226.246 101.901 226.34 101.492 226.215 100.986L225.217 96.852C225.093 96.346 224.838 96.0946 224.208 96.0946C223.931 96.0946 219.621 97.3548 215.429 97.3548C205.702 97.3548 201.242 88.7078 201.242 77.2241V74.4333C201.242 74.4333 206.076 75.1015 208.981 75.1015H227.332V69.7977C227.332 50.217 220.475 39.7315 210.371 39.7315V39.7315ZM209.739 67.1434C206.835 67.1434 201.548 67.8618 201.548 67.8618C201.548 67.8618 201.619 65.7536 201.873 63.7341C203.01 52.9965 205.571 47.5645 209.992 47.5645C213.835 47.5645 216.47 53.1216 217.102 62.8484C217.227 64.8699 217.227 67.1434 217.227 67.1434H209.739ZM81.4304 47.7606C78.5139 42.0144 73.3202 39.5033 67.3703 39.5033C63.548 39.5033 57.583 40.9647 53.5986 42.7561C52.8192 43.1068 52.3271 43.4148 52.3271 44.0276C52.3271 44.3922 52.5087 44.8108 52.708 45.1722L55.3925 50.9197C55.6691 51.5684 56.1129 51.7174 56.4793 51.7174C56.8765 51.7174 57.1996 51.5294 57.5554 51.3013C61.4417 48.8185 64.2878 47.4526 66.5412 47.4526C69.5224 47.4526 71.547 49.4301 72.7953 52.4044C73.9588 55.1757 74.4082 59.0048 74.4082 63.4292C74.4082 63.993 74.4113 64.7291 74.4113 64.7291C71.9625 63.1967 67.7197 62.3525 65.6015 62.3525C54.2077 62.3525 48.0642 73.1781 48.0642 84.7548C48.0642 97.2285 55.2454 106.376 63.8749 106.376C68.6808 106.376 73.0317 103.556 75.9456 99.9992C75.9456 99.9992 77.4975 103.698 77.6999 104.142C77.9042 104.584 78.1192 104.749 78.7031 104.749L83.3148 104.753C83.8227 104.753 84.2042 104.371 84.2042 103.733V67.8775C84.2023 59.0658 83.7573 52.3447 81.4304 47.7606V47.7606ZM74.4101 94.7356C72.1504 96.918 69.4451 98.0607 67.0101 98.0607C64.5757 98.0607 62.6944 96.9362 61.1853 94.8525C59.3487 92.3188 58.4919 88.4168 58.4919 84.0923C58.4919 77.2537 61.0168 70.2365 66.3677 70.2365C69.0164 70.2365 71.926 71.0988 74.4095 73.0744L74.4101 94.7356V94.7356ZM268.979 41.0231H261.949C261.164 41.0231 260.763 41.4342 260.561 41.9679C259.01 46.0435 257.465 50.1213 255.927 54.2014C255.058 56.517 252.718 63.147 252.718 63.147L252.446 63.1451C252.436 63.1212 250.725 58.3216 249.797 55.918C249.047 53.9689 245.13 43.6543 244.635 42.3833C244.37 41.7001 244.074 41.0231 243.068 41.0231H235.374C234.527 41.0231 234.049 41.9515 234.321 42.5273C234.597 43.1049 246.857 71.0322 246.857 71.0322C246.857 71.0322 233.69 102.304 233.304 103.006C232.92 103.708 233.402 104.747 234.339 104.747H241.083C242.23 104.747 242.683 104.146 243.027 103.177C243.997 100.462 245.44 96.686 247.484 90.8499C248.837 86.983 250.979 80.1953 250.979 80.1953H251.215C251.215 80.1953 253.559 87.1132 254.433 89.3747C256.636 95.0945 259.453 102.565 259.753 103.354C260.064 104.178 260.5 104.748 261.288 104.748H268.936C269.693 104.748 270.043 103.884 269.686 103.132C268.835 101.339 261.572 83.6919 256.529 72.0901C256.529 72.0901 269.617 43.2074 269.872 42.4927C270.133 41.7768 270.057 41.0231 268.979 41.0231V41.0231Z" fill="white"/>
<path d="M56.028 0.00488281H47.1616C46.3765 0.00488281 45.8869 0.389558 45.7731 0.948972C45.6606 1.5109 32.4786 41.7045 31.52 45.0528C30.8406 47.4256 28.6262 55.7941 28.0944 57.8036L23.5097 45.2866C22.3966 41.8421 11.7181 12.0122 11.4057 10.8204C11.2334 10.1655 10.9317 9.35086 9.78336 9.35086H1.12879C0.281501 9.35086 -0.195572 10.2799 0.0765923 10.8556C0.295329 11.3157 15.9287 52.9078 22.2451 68.7977V103.733C22.2451 104.371 22.4996 104.752 23.1357 104.752H31.3334C31.8419 104.752 32.2234 104.371 32.2234 103.733V69.0724C37.4869 54.3673 56.7188 2.06026 56.9281 1.47444C57.1827 0.757891 57.1072 0.00488281 56.028 0.00488281Z" fill="white"/>
</g>
<defs>
<clipPath id="clip0_432_7184">
<rect width="270" height="106.38" fill="white"/>
</clipPath>
</defs>
</svg>
