<svg width="276" height="98" fill="none" xmlns="http://www.w3.org/2000/svg"><g clip-path="url(#a)" fill="#fff"><path d="M52.072 43.562v17.756c0 4.554 2.208 6.762 6.762 6.762h1.978c4.554 0 6.762-2.208 6.762-6.762v-8.694H77.97v8.326c0 11.408-5.75 17.296-17.296 17.296h-2.208c-11.408 0-17.296-5.75-17.296-15.916V18.722C41.17 5.98 46.92.092 58.466.092h2.208c11.408 0 17.296 5.75 17.296 17.296V43.47H52.118v.092h-.046Zm0-10.442H67.39V16.928c0-4.554-2.208-6.762-6.762-6.762h-1.702c-4.554 0-6.762 2.208-6.762 6.762V33.12h-.092ZM85.054 1.012h10.764v4.922c2.576-2.714 6.992-5.75 13.11-5.75 9.2 0 13.708 6.118 13.708 15.088v47.794c0 9.062-4.554 15.088-13.708 15.088-6.256 0-10.534-2.944-13.11-5.52V97.29H85.054V1.012Zm10.764 63.02c2.944 2.576 6.394 3.91 9.936 3.91 3.91 0 6.256-1.84 6.256-6.256v-45.08c0-4.416-2.208-6.256-6.256-6.256-3.542 0-6.992 1.472-9.936 3.91v49.772ZM129.168 50.784c0-9.43 3.082-13.248 11.27-16.054l14.444-4.922v-12.88c0-4.554-2.208-6.992-6.762-6.992h-1.702c-4.554 0-6.762 2.438-6.762 6.992v10.764H129.26V17.296C129.26 5.888 135.01 0 146.556 0h2.07c11.408 0 17.296 5.75 17.296 17.296v59.938h-10.764V72.45c-2.944 2.806-6.992 5.658-13.11 5.658-8.602 0-12.604-4.922-12.604-13.478V50.784h-.276Zm25.76 13.616V39.284l-9.798 3.68c-3.91 1.61-5.29 3.542-5.29 7.958V62.56c0 3.68 1.84 5.52 5.29 5.52 3.266-.138 6.21-1.242 9.798-3.68ZM209.07 77.28h-10.764V15.87c0-3.818-1.84-5.52-5.152-5.52-2.944 0-6.118 1.104-9.936 3.818V77.28h-10.764V1.012h10.764v4.922c3.082-2.944 7.222-5.75 13.11-5.75 5.52 0 9.2 2.208 11.132 6.256 3.818-3.312 8.326-6.256 14.582-6.256 8.326 0 12.604 5.152 12.604 13.478v63.71h-10.764V15.87c0-3.818-1.84-5.52-5.152-5.52-2.944 0-6.118 1.104-9.936 3.818V77.28h.276ZM27.554 8.004V22.08L9.522 39.238l18.032 16.928v14.352L0 44.528V34.224l27.554-26.22ZM276 34.224v10.304l-27.554 25.99V56.166l18.032-16.928-18.032-17.25V8.004L276 34.224Z"/></g><defs><clipPath id="a"><path fill="#fff" d="M0 0h276v97.06H0z"/></clipPath></defs></svg>