<svg width="161" height="119" viewBox="0 0 161 119" fill="none" xmlns="http://www.w3.org/2000/svg">
<path fill-rule="evenodd" clip-rule="evenodd" d="M113.99 41.9772L114.871 39.1529L111.957 39.2453C111.711 39.2453 109.921 39.1932 108.185 37.9328C108.315 37.9437 108.443 37.9631 108.577 37.9631C110.363 37.9631 112.094 36.8851 112.787 35.3422L114.04 32.5565C112.467 32.5776 111.03 32.3783 111.03 32.3783C111.018 32.3774 109.885 32.2303 108.576 30.8892C107.636 29.9289 106.474 29.4202 105.215 29.4202C104.664 29.4202 104.171 29.5203 103.746 29.6548C103.813 29.4286 103.875 29.1999 103.912 28.9637C104.312 26.3563 102.638 24.3685 102.637 24.3702L100.445 21.651L99.0862 24.8453C99.082 24.8554 98.7379 25.6046 98.1252 25.9695C97.9405 25.0303 97.4847 23.975 96.5128 22.966C94.6789 21.0649 92.4471 20.7799 91.2796 20.7799C90.7382 20.7799 90.3513 20.8396 90.2581 20.8547L87.6125 21.376C87.7653 20.7841 88.0909 19.7515 88.6852 18.8241L90.1448 16.5463L86.4719 16.9642L85.301 14.4753L83.0356 15.6458L80.9398 13.5723L78.8507 15.6458L76.5795 14.4753L75.412 16.9642L71.7399 16.5446L73.202 18.8249C73.7971 19.7515 74.1211 20.7815 74.2722 21.3718L71.7474 20.8732L71.661 20.8597C71.5343 20.8396 71.1507 20.7799 70.6068 20.7799C69.4393 20.7799 67.2083 21.0649 65.3786 22.9652C64.405 23.9733 63.9484 25.0303 63.762 25.9695C63.1527 25.6079 62.8119 24.8705 62.8119 24.8705L61.4505 21.6577L59.2246 24.3938C58.9518 24.7461 57.6106 26.6152 57.9748 28.967C58.0126 29.2016 58.0739 29.4286 58.1393 29.6548C57.7172 29.5195 57.2245 29.4202 56.6739 29.4202C55.414 29.4202 54.2516 29.9289 53.3107 30.8892C52.0047 32.2244 50.8791 32.3758 50.8884 32.3758C50.8884 32.3758 49.6965 32.591 47.8533 32.5565L49.0997 35.3422C49.7939 36.8851 51.5254 37.9631 53.309 37.9631C53.4433 37.9631 53.5717 37.9437 53.7035 37.9328C51.9711 39.1932 50.1816 39.2453 49.9651 39.2462L46.998 39.1529L47.897 41.9764C48.3502 43.4318 49.861 45.8425 52.755 46.1023C52.4403 47.4241 51.7428 48.9065 50.2102 49.5438L47.9985 50.4561L49.2047 52.5599C49.8845 53.6942 51.4826 55.021 53.7564 55.021C54.2482 55.0193 54.7233 54.9697 55.1815 54.8722C55.2982 55.3901 55.4443 55.9098 55.6172 56.4252C56.2937 58.4449 55.7103 59.8524 55.7044 59.8684L54.6125 62.1588L57.0491 62.8021C57.0793 62.8113 57.8154 63.0148 58.737 63.0148C59.1541 63.0148 59.5553 62.9711 59.9288 62.8811C60.2117 62.8147 60.4844 62.7272 60.7463 62.6204C61.0619 63.1872 61.4446 63.7043 61.8912 64.1676C63.4523 65.7727 65.6656 66.5858 68.4673 66.5858H68.4766L70.4775 66.5597L66.3438 68.2817L69.4821 69.8011C70.6227 70.3578 71.9741 71.0161 73.3514 71.5198L72.9594 72.5935L74.0405 73.0879C74.137 73.1317 76.2177 74.0633 79.6749 74.2617C79.6749 74.2617 80.5092 74.3004 80.9692 74.3004C81.4283 74.3004 82.2534 74.2592 82.2534 74.2592C85.6879 74.0557 87.7518 73.1317 87.8484 73.0879L88.9328 72.5927L88.5375 71.5173C89.9526 70.9985 91.3551 70.314 92.4479 69.7793L95.5283 68.2801L91.408 66.5597L93.4173 66.5858C96.2232 66.5858 98.4365 65.7719 99.9952 64.165C100.44 63.7059 100.822 63.1897 101.139 62.6204C101.402 62.7272 101.676 62.8147 101.96 62.8828C102.333 62.9711 102.733 63.0148 103.15 63.0148C104.056 63.0148 104.8 62.8138 104.82 62.8071L107.267 62.1588L106.201 59.9104C106.176 59.8524 105.593 58.4449 106.269 56.4235C106.441 55.9081 106.586 55.3893 106.705 54.8722C107.164 54.9697 107.643 55.0193 108.139 55.021C111.037 55.021 112.426 52.9795 112.694 52.5364L113.888 50.4545L111.678 49.5455C110.141 48.9065 109.444 47.4249 109.133 46.104C111.989 45.8551 113.521 43.4419 113.99 41.9772Z" fill="#FFFFFE"/>
<path fill-rule="evenodd" clip-rule="evenodd" d="M80.9407 22.2222C78.5998 22.2247 76.8439 22.9924 76.4629 23.8971L80.9407 25.6679L85.4203 23.8971C85.0409 22.9924 83.285 22.2247 80.9407 22.2222Z" fill="#FFFFFE"/>
<path fill-rule="evenodd" clip-rule="evenodd" d="M80.9885 69.0877H80.8987C79.4802 69.097 77.5254 68.8061 76.5862 68.5303L75.4531 71.5993C76.1993 71.8659 78.729 72.3762 80.9457 72.3762C83.1582 72.3762 85.6888 71.8659 86.4341 71.5993L85.3035 68.5303C84.3593 68.8061 82.407 69.097 80.9885 69.0877Z" fill="#FFFFFE"/>
<path fill-rule="evenodd" clip-rule="evenodd" d="M89.5564 66.0347C88.7137 66.5123 86.8319 67.2303 85.7383 67.5633L86.6565 70.0984C88.3494 69.6351 89.7478 69.0945 90.901 68.5143L88.9941 67.8794L89.5564 66.0347Z" fill="#FFFFFE"/>
<path fill-rule="evenodd" clip-rule="evenodd" d="M72.329 66.0347L72.893 67.8794L70.9844 68.5143C72.1359 69.0945 73.5401 69.6351 75.2272 70.0984L76.1471 67.5633C75.0551 67.2303 73.1708 66.5123 72.329 66.0347Z" fill="#FFFFFE"/>
<path fill-rule="evenodd" clip-rule="evenodd" d="M80.9417 19.2872C82.7068 19.2872 84.4367 19.7101 85.7678 20.4526C85.8896 20.0448 86.0599 19.5487 86.2908 19.0282L85.7863 19.0888L85.2592 19.1443L85.036 18.6625L84.362 17.2381L83.1357 17.8788L82.6573 18.1218L82.2754 17.7451L80.9417 16.4233L79.6105 17.7451L79.2303 18.1218L78.7527 17.8788L77.5189 17.2381L76.855 18.6625L76.6267 19.1443L76.0996 19.0888L75.5977 19.0282C75.8285 19.5487 75.9972 20.0448 76.1206 20.4526C77.4568 19.7101 79.185 19.2872 80.9417 19.2872Z" fill="#FFFFFE"/>
<path fill-rule="evenodd" clip-rule="evenodd" d="M107.885 35.7497C108.114 35.8287 108.346 35.864 108.577 35.864C109.576 35.864 110.54 35.2166 110.872 34.4775C110.872 34.4775 109.042 34.3665 107.074 32.3645C106.447 31.7162 105.784 31.522 105.215 31.522C104.331 31.522 103.668 31.9886 103.668 31.9886C106.046 33.2574 106.531 35.2914 107.885 35.7497Z" fill="#FFFFFE"/>
<path fill-rule="evenodd" clip-rule="evenodd" d="M53.3087 35.864C53.5395 35.864 53.7728 35.8287 53.9969 35.7488C55.3541 35.2914 55.8435 33.2574 58.2179 31.9895C58.2179 31.9895 57.5532 31.522 56.6744 31.522C56.102 31.522 55.4397 31.7162 54.8102 32.3653C52.8445 34.3665 51.0156 34.4783 51.0156 34.4783C51.3438 35.2166 52.3107 35.864 53.3087 35.864Z" fill="#FFFFFE"/>
<path fill-rule="evenodd" clip-rule="evenodd" d="M107.166 50.357C105.327 49.4481 104.164 47.0366 103.884 46.168C103.578 50.9507 101.248 54.2686 98.5247 57.4637C97.1112 59.1202 96.6177 60.7304 96.6177 60.7304C96.6177 60.7304 96.8905 58.9058 98.1126 57.4208C100.654 54.3627 103.07 50.5538 103.249 46.1512C103.373 43.0771 102.585 40.5857 101.353 38.5316C102.042 40.6707 101.944 43.2899 99.6066 45.735C99.6066 45.735 104.262 40.1477 97.7533 34.4191C95.1497 32.2388 92.2985 30.8926 90.8322 29.9391C96.1326 31.6713 98.7211 29.7643 98.7211 29.7643C97.029 31.234 94.8375 31.2088 93.4778 30.9969C93.8471 31.1768 94.2306 31.3652 94.6428 31.5872C99.1122 34.0189 103.128 38.0204 103.813 43.5614V43.5194C104.852 48.9604 107.166 50.357 107.166 50.357ZM108.527 44.0172C108.568 44.0197 108.603 44.0197 108.645 44.0197C111.136 44.0197 111.981 41.3467 111.981 41.3467H111.932C111.475 41.3467 107.771 41.2391 105.152 37.9052C103.43 35.7131 102.016 33.7859 99.2272 33.0275L98.9527 32.9787L98.8931 32.6987C98.8159 32.2724 99.1088 31.8714 99.7711 31.44C103.621 28.915 101.006 25.6938 101.006 25.6938C101.006 25.6938 99.9071 28.2693 97.4478 28.2693C97.3882 28.2693 97.3261 28.2659 97.2648 28.2659C96.9862 28.2516 96.7159 28.2415 96.4448 28.1835L95.9916 28.0952C95.9916 28.0952 96.6933 26.184 95.0003 24.43C93.7254 23.1057 92.1743 22.8804 91.2787 22.8804C90.8272 22.8804 90.5409 22.9384 90.5409 22.9384C91.3912 24.0516 92.0056 25.8998 91.0244 27.04C90.1758 28.0195 88.1035 28.0666 88.1035 29.5271C88.1035 30.146 88.6801 30.8674 89.7159 31.5157C92.8306 33.4807 95.9227 36.089 97.2094 39.5835C98.8159 43.9415 97.0055 46.8356 94.422 48.4946C94.422 48.4946 95.2328 49.2421 96.407 49.3379C96.6471 49.3606 96.8804 49.3716 97.0978 49.3716C99.5789 49.3716 100.862 48.2062 100.862 48.2062C100.862 48.2062 100.65 49.8164 99.3598 51.3114C98.168 52.6912 96.606 53.5051 94.2197 53.5387C94.2197 53.5387 94.145 54.647 95.2009 55.6072C95.8774 56.2126 97.4369 56.4093 97.4369 56.4093C97.4369 56.4093 94.5152 57.003 94.1929 61.3265C94.0175 63.6691 93.4198 64.483 93.4198 64.483H93.4719C100.253 64.483 100.079 58.6569 100.079 58.6569C100.079 58.6569 100.551 60.3823 102.443 60.8321C102.671 60.8918 102.915 60.9153 103.148 60.9153C103.756 60.9153 104.286 60.7716 104.286 60.7716C104.286 60.7716 103.295 58.6787 104.277 55.751C105.092 53.321 104.962 51.5207 104.962 51.5207C104.962 51.5207 105.874 52.9047 108.14 52.9174H108.163C110.049 52.9174 110.87 51.4854 110.87 51.4854C106.35 49.6045 106.796 43.5371 106.796 43.5371C106.796 43.5371 107.383 43.976 108.527 44.0172Z" fill="#FFFFFE"/>
<path fill-rule="evenodd" clip-rule="evenodd" d="M63.3574 57.4637C60.6338 54.2686 58.3046 50.9507 57.9966 46.168C57.7154 47.0366 56.5571 49.4481 54.719 50.357C54.719 50.357 57.0297 48.9604 58.0679 43.5194V43.5614C58.7553 38.0212 62.7707 34.0189 67.241 31.588C67.6506 31.3644 68.0375 31.1768 68.4043 30.9978C67.0454 31.2088 64.8539 31.234 63.1627 29.7643C63.1627 29.7643 65.7512 31.6713 71.0499 29.9391C69.5836 30.8935 66.7349 32.2388 64.1313 34.4191C57.6214 40.1477 62.2772 45.7358 62.2772 45.7358C59.9363 43.2899 59.8423 40.6715 60.5305 38.5316C59.2976 40.5857 58.5094 43.0771 58.6362 46.1512C58.8141 50.5538 61.2289 54.3619 63.7653 57.4217C64.9933 58.9058 65.2694 60.7295 65.2694 60.7295C65.2694 60.7295 64.77 59.1202 63.3574 57.4637ZM64.4469 56.4093C64.4469 56.4093 66.0072 56.2134 66.6845 55.6063C67.7396 54.647 67.664 53.5387 67.664 53.5387C65.2778 53.5051 63.7166 52.6912 62.5181 51.3122C61.2356 49.8164 61.0224 48.2062 61.0224 48.2062C61.0224 48.2062 62.3049 49.3716 64.7826 49.3716C65.005 49.3716 65.2367 49.3606 65.4759 49.3379C66.6518 49.2421 67.4651 48.4954 67.4651 48.4954C64.8791 46.8356 63.0678 43.9423 64.6726 39.5835C65.9593 36.0898 69.0506 33.4807 72.167 31.5149C73.2011 30.8674 73.7777 30.146 73.7777 29.5271C73.7777 28.0666 71.7079 28.0195 70.8602 27.04C69.879 25.8998 70.4934 24.0516 71.342 22.9384C71.342 22.9384 71.0591 22.8804 70.605 22.8804C69.7103 22.8804 68.1601 23.1057 66.8851 24.43C65.1888 26.184 65.8922 28.0952 65.8922 28.0952L65.439 28.1835C65.1687 28.2407 64.8959 28.2516 64.6181 28.2667C64.5543 28.2667 64.4981 28.2693 64.4385 28.2693C61.9725 28.2693 60.8797 25.6946 60.8797 25.6946C60.8797 25.6946 58.266 28.915 62.1144 31.44C62.7766 31.8714 63.0678 32.2724 62.9906 32.6987L62.931 32.9779L62.6515 33.0275C59.8666 33.7859 58.4524 35.7131 56.7275 37.9052C54.1105 41.2382 50.4115 41.3467 49.9508 41.3467H49.9004C49.9004 41.3467 50.7448 44.0197 53.2376 44.0197C53.277 44.0197 53.314 44.0197 53.3559 44.0172C54.5016 43.976 55.0891 43.5371 55.0891 43.5371C55.0891 43.5371 55.5323 49.6045 51.0133 51.4846C51.0133 51.4846 51.8367 52.9182 53.7219 52.9182H53.7445C56.0116 52.9047 56.9231 51.5207 56.9231 51.5207C56.9231 51.5207 56.7913 53.3218 57.6038 55.751C58.5866 58.6796 57.6004 60.7724 57.6004 60.7724C57.6004 60.7724 58.1275 60.9153 58.736 60.9153C58.9719 60.9153 59.2136 60.8918 59.4402 60.8321C61.3296 60.3823 61.803 58.6569 61.803 58.6569C61.803 58.6569 61.6301 64.483 68.4119 64.483H68.4606C68.4606 64.483 67.8671 63.6691 67.6926 61.3257C67.3711 57.003 64.4469 56.4093 64.4469 56.4093Z" fill="#FFFFFE"/>
<path fill-rule="evenodd" clip-rule="evenodd" d="M79.4098 34.9402H82.6068V36.0392C82.2308 35.5776 81.4989 35.6717 81.4989 35.6717V37.2559C81.4989 37.2559 81.5257 38.0353 81.7994 38.3725H80.2172C80.4942 38.0353 80.5185 37.2559 80.5185 37.2559V35.6717C80.5185 35.6717 79.7892 35.5776 79.4098 36.0392V34.9402ZM75.9266 35.105C76.0382 35.2244 76.1473 35.3539 76.2531 35.4851C76.2782 35.5153 76.3009 35.5422 76.3261 35.5776C76.4234 35.707 76.5216 35.8449 76.6165 35.9854C76.6375 36.0131 76.6576 36.0467 76.6803 36.0787C76.7936 36.2511 76.901 36.4285 77.0076 36.6118C77.9863 38.3035 79.5508 39.3142 80.9399 39.3167C82.3307 39.3142 83.8935 38.3035 84.8747 36.6118C84.983 36.4234 85.0929 36.2418 85.2062 36.0711C85.223 36.0467 85.2415 36.0215 85.2566 35.9963C85.3539 35.8508 85.4547 35.7096 85.5604 35.5725C85.5831 35.5422 85.6041 35.5153 85.6242 35.4901C85.7333 35.3539 85.8458 35.2227 85.9608 35.1008C85.9801 35.0815 85.9969 35.063 86.0153 35.047C86.5139 34.5358 87.1073 34.1465 87.8854 33.9312L87.5387 33.7286H87.5194L86.1429 32.9281L84.7286 32.1167L80.95 34.1776L80.9399 34.1692L80.9332 34.1776L77.1537 32.1167L75.7402 32.9281L74.3612 33.7286H74.3453L73.9961 33.9312C74.7742 34.1465 75.3659 34.5316 75.8661 35.0436C75.888 35.063 75.9031 35.0857 75.9266 35.105Z" fill="#FFFFFE"/>
<path fill-rule="evenodd" clip-rule="evenodd" d="M79.7378 27.9561V28.9904L79.5397 28.8996C79.5305 28.892 79.2392 28.8264 78.7323 28.4236C77.8955 27.7737 77.8787 27.1733 77.8787 27.1733L79.7378 27.9561ZM80.6149 32.8086V26.3754L76.5273 24.9863L77.605 31.2202L80.6149 32.8086Z" fill="#FFFFFE"/>
<path fill-rule="evenodd" clip-rule="evenodd" d="M82.1492 27.9561L84.0083 27.1733C84.0083 27.1733 83.9923 27.7737 83.1522 28.4236C82.6469 28.8264 82.3556 28.892 82.3456 28.8996L82.1492 28.9904V27.9561ZM84.2802 31.2202L85.3546 24.9863L81.2695 26.3754V32.8086L84.2802 31.2202Z" fill="#FFFFFE"/>
<path fill-rule="evenodd" clip-rule="evenodd" d="M74.8345 47.7218C75.2315 47.8664 75.715 47.8967 75.9626 47.8967C75.9718 47.8664 75.9852 47.8286 75.997 47.7824C76.0188 47.7092 76.0398 47.6361 76.0549 47.5562C76.1246 47.1997 76.1489 46.7969 76.1548 46.5363C75.9877 46.4312 75.7502 46.2462 75.6176 45.9687C75.4665 45.6492 75.2491 45.4995 74.9335 45.4995C74.5223 45.4995 74.0816 45.7476 73.8911 45.8636C73.7408 46.7532 74.3955 47.5595 74.8345 47.7218Z" fill="#FFFFFE"/>
<path fill-rule="evenodd" clip-rule="evenodd" d="M83.8742 44.3096C83.1154 45.1369 81.6281 46.5765 81.5568 46.6479L81.4669 46.7387L76.7717 46.6647C76.7684 47.1306 76.6928 47.5266 76.6198 47.8175C76.608 47.8654 76.5946 47.9159 76.582 47.9663L82.1669 48.9728C82.7478 48.5659 84.3467 47.3954 84.9686 46.9372C84.5171 46.2763 84.4743 45.4926 84.5758 44.941C84.2787 44.7518 84.0538 44.5366 83.8742 44.3096Z" fill="#FFFFFE"/>
<path fill-rule="evenodd" clip-rule="evenodd" d="M84.5101 38.6514C83.4282 39.7259 82.3908 40.1253 81.4641 40.217C81.2946 40.2347 81.125 40.2456 80.953 40.2456H80.9295C80.7566 40.2456 80.5854 40.2347 80.4183 40.217C80.2555 40.2027 80.086 40.1766 79.9156 40.138C79.8551 40.3801 79.7779 40.8846 79.9978 41.3647C80.1942 41.7986 80.5929 42.1215 81.1746 42.3376L81.3701 42.4141L81.3735 42.6251C81.3735 42.6874 81.4197 44.0562 82.9078 44.4363C83.1512 44.1857 83.3719 43.9587 83.5356 43.7687C83.2318 43.0514 83.3912 42.3191 83.8327 41.9609C83.8134 42.0366 83.6195 43.8326 85.0565 44.5002L85.2932 44.6129L85.2227 44.8651C85.1992 44.9408 84.7199 46.6796 86.4607 47.3262L86.7687 47.4431L86.6319 47.7424C86.6017 47.8089 85.9193 49.3854 87.5266 50.2817H91.0115V47.5095C89.7719 47.3582 89.2481 46.3601 89.1121 45.6538C88.5355 45.5546 88.0907 45.3057 87.7843 44.8996C87.0533 43.9351 87.6819 43.0514 87.6903 43.0035C87.6886 43.0111 87.6903 43.9511 88.2694 44.5321C88.5573 44.8113 88.8964 45.0291 89.4109 45.0778L89.6644 45.1005L89.6862 45.3604C89.6904 45.415 89.8298 46.6889 91.0115 46.8881L91.009 41.2252C91.009 40.3482 91.2642 39.4661 91.5714 38.6514H84.5101Z" fill="#FFFFFE"/>
<path fill-rule="evenodd" clip-rule="evenodd" d="M75.132 41.2466L75.0371 44.8521L75.4467 44.9151L76.4472 41.4551L75.9394 40.3906L75.132 41.2466Z" fill="#FFFFFE"/>
<path fill-rule="evenodd" clip-rule="evenodd" d="M77.2967 54.5955C77.18 54.5921 77.0944 54.4929 77.1019 54.376C77.1112 54.2642 77.206 54.1759 77.321 54.186C77.4385 54.1902 77.5208 54.2936 77.5174 54.4038C77.5065 54.5181 77.4083 54.6056 77.2967 54.5955ZM86.1592 57.7873C86.1902 57.7873 86.2247 57.7915 86.2582 57.7999C86.881 57.9781 87.038 60.2257 88.1299 60.4258C88.2374 60.4485 88.3356 60.4552 88.422 60.4552C88.7385 60.4552 88.9265 60.3207 89.1296 60.0802C89.1296 60.0802 88.5798 59.2158 88.1694 58.6315C87.623 57.868 87.2 56.9456 86.1835 56.9456C86.1592 56.9456 86.1298 56.9456 86.1046 56.949C85.7706 56.9658 85.5641 57.1297 85.5641 57.1297C85.152 56.8699 84.7684 56.7825 84.4226 56.7825C83.7864 56.7825 83.2912 57.0751 83.0427 57.0751H83.0335L80.764 56.8506C80.4098 56.8161 80.1286 56.4579 80.0279 56.3183C80.0027 56.2797 79.9884 56.2578 79.9884 56.2578C79.9884 56.1956 79.9884 56.1325 79.9851 56.0762C79.9087 54.2171 78.4717 53.4217 77.9597 53.4091C77.9597 53.4091 78.0202 53.0551 77.8825 52.9205L77.3806 53.5293L75.7397 52.7036L76.9114 54.075L75.9193 55.1908C75.7943 55.3178 75.8102 55.4893 75.8623 55.5624L76.2903 55.9417L76.8342 55.6112C76.8611 55.591 76.9114 55.5843 76.971 55.5843C77.1213 55.5843 77.347 55.6238 77.5493 55.6238C77.7717 55.6238 77.9623 55.5767 77.9858 55.3682C77.9178 56.0577 77.279 57.255 77.6979 58.1968L78.0093 58.9073L76.0024 58.618L75.0632 60.2063C74.7736 60.7352 74.7283 61.307 75.007 61.6189L75.3578 62.0587C75.3578 62.0587 75.8513 61.5357 75.9613 61.191L75.8018 61.0152C75.6675 60.8672 75.6742 60.7352 75.7565 60.5763L76.3457 59.5976L78.7135 60.1567L78.8385 59.9432C78.9997 59.6749 79.2313 59.5959 79.4848 59.5959C79.5897 59.5959 79.6963 59.6085 79.808 59.6262C80.2478 59.7128 80.9713 59.8297 81.6948 59.8297C82.4879 59.8297 83.2761 59.6876 83.6966 59.2158C84.5544 60.4897 86.2926 60.6923 86.1558 61.3398L85.6976 63.5226C86.0006 63.5091 86.2926 63.4898 86.5696 63.4511L87.0052 61.1809C87.0531 60.9328 87.0984 60.6007 87.0984 60.6007C86.9314 60.43 86.5251 60.0701 86.296 59.6321C85.9896 59.0418 86.1558 58.7332 85.8705 57.9655C85.8705 57.9655 85.9586 57.7873 86.1592 57.7873Z" fill="#FFFFFE"/>
<path fill-rule="evenodd" clip-rule="evenodd" d="M74.063 59.8521C74.063 59.8521 74.8486 59.5284 74.9182 59.298L74.8133 59.0357C74.7386 58.8641 74.7487 58.6792 74.8931 58.5791L75.7399 57.9914L77.1551 58.2646C77.1551 58.2646 76.8991 57.9426 76.9242 57.5138L75.5729 57.2271L74.2988 58.0048C73.7524 58.4135 73.713 59.0828 73.8934 59.4796L74.063 59.8521Z" fill="#FFFFFE"/>
<path fill-rule="evenodd" clip-rule="evenodd" d="M77.2967 54.5955C77.18 54.5921 77.0944 54.4929 77.1019 54.376C77.1112 54.2642 77.206 54.1759 77.321 54.186C77.4385 54.1902 77.5208 54.2936 77.5174 54.4038C77.5065 54.5181 77.4083 54.6056 77.2967 54.5955ZM86.1592 57.7873C86.1902 57.7873 86.2247 57.7915 86.2582 57.7999C86.881 57.9781 87.038 60.2257 88.1299 60.4258C88.2374 60.4485 88.3356 60.4552 88.422 60.4552C88.7385 60.4552 88.9265 60.3207 89.1296 60.0802C89.1296 60.0802 88.5798 59.2158 88.1694 58.6315C87.623 57.868 87.2 56.9456 86.1835 56.9456C86.1592 56.9456 86.1298 56.9456 86.1046 56.949C85.7706 56.9658 85.5641 57.1297 85.5641 57.1297C85.152 56.8699 84.7684 56.7825 84.4226 56.7825C83.7864 56.7825 83.2912 57.0751 83.0427 57.0751H83.0335L80.764 56.8506C80.4098 56.8161 80.1286 56.4579 80.0279 56.3183C80.0027 56.2797 79.9884 56.2578 79.9884 56.2578C79.9884 56.1956 79.9884 56.1325 79.9851 56.0762C79.9087 54.2171 78.4717 53.4217 77.9597 53.4091C77.9597 53.4091 78.0202 53.0551 77.8825 52.9205L77.3806 53.5293L75.7397 52.7036L76.9114 54.075L75.9193 55.1908C75.7943 55.3178 75.8102 55.4893 75.8623 55.5624L76.2903 55.9417L76.8342 55.6112C76.8611 55.591 76.9114 55.5843 76.971 55.5843C77.1213 55.5843 77.347 55.6238 77.5493 55.6238C77.7717 55.6238 77.9623 55.5767 77.9858 55.3682C77.9178 56.0577 77.279 57.255 77.6979 58.1968L78.0093 58.9073L76.0024 58.618L75.0632 60.2063C74.7736 60.7352 74.7283 61.307 75.007 61.6189L75.3578 62.0587C75.3578 62.0587 75.8513 61.5357 75.9613 61.191L75.8018 61.0152C75.6675 60.8672 75.6742 60.7352 75.7565 60.5763L76.3457 59.5976L78.7135 60.1567L78.8385 59.9432C78.9997 59.6749 79.2313 59.5959 79.4848 59.5959C79.5897 59.5959 79.6963 59.6085 79.808 59.6262C80.2478 59.7128 80.9713 59.8297 81.6948 59.8297C82.4879 59.8297 83.2761 59.6876 83.6966 59.2158C84.5544 60.4897 86.2926 60.6923 86.1558 61.3398L85.6976 63.5226C86.0006 63.5091 86.2926 63.4898 86.5696 63.4511L87.0052 61.1809C87.0531 60.9328 87.0984 60.6007 87.0984 60.6007C86.9314 60.43 86.5251 60.0701 86.296 59.6321C85.9896 59.0418 86.1558 58.7332 85.8705 57.9655C85.8705 57.9655 85.9586 57.7873 86.1592 57.7873Z" fill="#FFFFFE"/>
<path fill-rule="evenodd" clip-rule="evenodd" d="M74.063 59.8521C74.063 59.8521 74.8486 59.5284 74.9182 59.298L74.8133 59.0357C74.7386 58.8641 74.7487 58.6792 74.8931 58.5791L75.7399 57.9914L77.1551 58.2646C77.1551 58.2646 76.8991 57.9426 76.9242 57.5138L75.5729 57.2271L74.2988 58.0048C73.7524 58.4135 73.713 59.0828 73.8934 59.4796L74.063 59.8521Z" fill="#FFFFFE"/>
<path fill-rule="evenodd" clip-rule="evenodd" d="M84.0781 63.5515C84.3308 63.5414 84.6119 63.5372 84.9183 63.5372C84.9183 63.5372 85.6468 61.4023 85.688 61.335C85.28 61.1542 84.4315 60.7036 84.1041 60.4976C84.3215 60.8221 84.8461 61.1912 84.742 61.4771L84.0781 63.5515Z" fill="#FFFFFE"/>
<path fill-rule="evenodd" clip-rule="evenodd" d="M91.012 50.8936H70.873V58.482C70.873 61.5864 73.1149 63.5287 76.4236 63.5287C79.1866 63.5287 79.916 63.6372 80.9442 64.6588C81.6526 63.9508 82.2385 63.6868 83.4421 63.5884L83.4706 63.4707L84.1051 61.5048C84.0699 61.4603 83.0316 60.2797 83.0316 60.2797C82.6203 60.4168 82.2745 60.4395 81.6946 60.4395C81.0978 60.4395 80.4263 60.3697 79.6953 60.2327C79.6223 60.2158 79.5534 60.2083 79.4854 60.2083C79.3956 60.2083 79.3898 60.2158 79.3663 60.2596L79.2404 60.4681L79.0095 60.8507L78.5748 60.7498L76.6418 60.294L76.3766 60.7321L76.416 60.7792L76.651 61.039L76.5469 61.377C76.4043 61.8193 75.9435 62.3356 75.8024 62.4785L75.3198 62.9973L74.8792 62.4398L74.5485 62.0245C74.201 61.6343 74.1204 61.039 74.316 60.4134C74.3118 60.4168 74.3051 60.4202 74.2967 60.421L73.752 60.6472L73.5069 60.1133L73.3348 59.7349C73.0385 59.0689 73.1476 58.0961 73.9467 57.5075L75.502 56.6272L76.9825 56.9189C77.0178 56.7768 77.0707 56.2673 77.1135 56.1378C77.0841 56.1345 77.0581 56.1277 77.0287 56.1277L76.176 56.4472L75.3526 55.878C75.3526 55.878 75.0311 55.5677 75.3232 55.2575L76.1189 54.0484L74.1003 51.5099L77.2025 52.7863L77.4098 52.5307L77.8278 52.0278L78.3037 52.481C78.438 52.6105 78.5152 52.7703 78.5529 52.93C79.4074 53.2639 80.94 54.2476 81.0751 55.8477L80.5959 56.0394V56.0512C80.7058 56.1815 80.7965 56.2353 80.825 56.2404L83.0392 56.4582C83.0963 56.4489 83.1651 56.4237 83.244 56.401C83.5201 56.3068 83.9322 56.1706 84.4224 56.1706C84.8219 56.1706 85.2072 56.2623 85.5782 56.4363C85.715 56.3842 85.8828 56.3463 86.0776 56.3337L86.1842 56.3312C87.3693 56.3312 87.9593 57.2183 88.4319 57.9271C88.5108 58.0499 88.5897 58.1651 88.6719 58.2794C89.0849 58.8646 89.6263 59.7206 89.6481 59.7576L89.8923 60.1393L89.5935 60.4883C89.3635 60.7548 89.0169 61.0684 88.4235 61.0684C88.3009 61.0684 88.1667 61.055 88.0223 61.0272C87.8964 61.0037 87.7806 60.9659 87.6698 60.9188C87.6538 61.0365 87.6286 61.1761 87.6068 61.2963L87.2191 63.3261C89.5415 62.7543 91.0162 60.9978 91.0162 58.482L91.012 50.8936Z" fill="#FFE52B"/>
<path fill-rule="evenodd" clip-rule="evenodd" d="M70.8743 50.2817H86.5379C85.7557 49.472 85.7674 48.447 85.9663 47.7811C85.738 47.6718 85.55 47.5406 85.383 47.396C84.7703 47.8484 82.9019 49.2114 82.4134 49.5527L82.3085 49.6234L76.1612 48.5101H76.037C75.8893 48.5101 75.6736 48.5042 75.4369 48.4756C75.3706 48.7548 75.1314 48.944 74.8578 48.944C74.8259 48.944 74.7915 48.9415 74.7596 48.9347C74.5992 48.907 74.4591 48.8254 74.3659 48.6909C74.2702 48.558 74.2325 48.4008 74.2585 48.2385L74.2811 48.1057C73.6483 47.6583 73.0624 46.6586 73.3218 45.605L73.347 45.494L73.4368 45.4293C73.4494 45.4201 73.5551 45.3469 73.7146 45.2569L73.2681 45.188C73.101 45.1586 72.9886 45.0022 73.0146 44.8374C73.0431 44.67 73.2001 44.5506 73.3646 44.5826L74.4289 44.7508L74.5262 40.9973L76.1092 39.319L77.0979 41.4034L76.0546 45.0148L76.9955 45.1628C77.1609 45.1888 77.2742 45.3444 77.249 45.5151C77.2247 45.6664 77.0954 45.7682 76.9477 45.7682C76.9318 45.7682 76.915 45.7682 76.899 45.7665L76.1344 45.6429C76.1445 45.6664 76.1596 45.6799 76.1688 45.7034C76.2502 45.8724 76.4307 45.9918 76.5364 46.0448L81.2224 46.1196C81.4213 45.9262 81.9124 45.4436 82.4193 44.9332C81.2652 44.4943 80.8464 43.4996 80.7767 42.8379C80.1321 42.5629 79.6873 42.1509 79.4405 41.6153C79.14 40.9519 79.2466 40.2868 79.3272 39.9639C78.7019 39.736 78.0455 39.319 77.3741 38.6514H70.3145C70.6175 39.4661 70.8743 40.3482 70.8743 41.2252V50.2817Z" fill="#FFE52B"/>
<path fill-rule="evenodd" clip-rule="evenodd" d="M77.3211 54.186C77.2061 54.175 77.1113 54.2644 77.102 54.3774C77.0945 54.4947 77.1801 54.5942 77.2967 54.5967C77.4084 54.606 77.5066 54.52 77.5175 54.4044C77.5209 54.2939 77.4386 54.1902 77.3211 54.186Z" fill="#1A1919"/>
<path fill-rule="evenodd" clip-rule="evenodd" d="M86.6579 70.099L85.738 67.5639C86.8325 67.23 88.7143 66.512 89.5578 66.0344L88.9954 67.8792L90.9007 68.514C89.7483 69.0933 88.3508 69.634 86.6579 70.099ZM80.9462 72.3776C78.7287 72.3776 76.199 71.8664 75.4528 71.6007L76.5859 68.5308C77.5251 68.8058 79.4799 69.0975 80.8984 69.0883H80.9882C82.4067 69.0975 84.359 68.8058 85.3032 68.5308L86.4338 71.6007C85.6885 71.8664 83.1579 72.3776 80.9462 72.3776ZM70.9859 68.514L72.8945 67.8792L72.3297 66.0344C73.1715 66.512 75.0566 67.23 76.1486 67.5639L75.2279 70.099C73.5408 69.634 72.1374 69.0933 70.9859 68.514ZM90.9863 67.9506L89.8264 67.505L90.147 66.3034L90.4995 64.9951C90.4995 64.9951 88.444 66.1126 85.5466 66.9509C84.7249 67.1863 84.103 67.2948 84.103 67.2948V68.1861C84.103 68.1861 82.5536 68.4551 80.9882 68.4551H80.8984C79.3314 68.4551 77.7845 68.1861 77.7845 68.1861V67.2948C77.7845 67.2948 77.1609 67.1863 76.34 66.9509C73.4434 66.1126 71.3896 64.9951 71.3896 64.9951L71.7371 66.3034L72.0644 67.505L70.9003 67.9506L69.6094 68.4333C71.0883 69.1497 73.1388 70.1906 75.0147 70.7052L74.5724 71.9168C74.5724 71.9168 76.9519 73.0023 80.916 73.0124V73.015H80.9697V73.0124C84.9381 73.0023 87.3159 71.9168 87.3159 71.9168L86.8711 70.7052C88.7478 70.1906 90.8017 69.1497 92.2739 68.4333L90.9863 67.9506Z" fill="#1A1919"/>
<path fill-rule="evenodd" clip-rule="evenodd" d="M76.0992 19.0888L76.6263 19.1443L76.8546 18.6625L77.5186 17.239L78.7524 17.878L79.23 18.1227L80.9414 16.4225L82.2751 17.7451L82.657 18.1227L83.1354 17.878L84.3616 17.239L85.0356 18.6625L85.2589 19.1443L85.786 19.0888L86.2904 19.0282C86.0596 19.5487 85.8892 20.044 85.7675 20.4535C84.4363 19.7102 82.7065 19.2872 80.9414 19.2872C79.1846 19.2872 77.4564 19.7102 76.1202 20.4535C75.9968 20.044 75.8281 19.5487 75.5973 19.0282L76.0992 19.0888ZM80.9414 20.0297C83.3032 20.0297 85.1926 20.8142 86.2367 21.6491C86.2367 21.6491 86.5464 19.7791 87.6048 18.1294L85.7029 18.3463L84.7074 16.2283L82.7963 17.2154L80.9414 15.3799L79.0923 17.2154L77.1769 16.2283L76.1832 18.3463L74.2812 18.1294C75.3405 19.7791 75.6494 21.6491 75.6494 21.6491C76.7002 20.8142 78.5837 20.0297 80.9414 20.0297Z" fill="#1A1919"/>
<path fill-rule="evenodd" clip-rule="evenodd" d="M110.872 51.4847C110.872 51.4847 110.05 52.9183 108.163 52.9183H108.14C105.875 52.9048 104.962 51.5208 104.962 51.5208C104.962 51.5208 105.093 53.3211 104.278 55.7511C103.295 58.6797 104.286 60.7717 104.286 60.7717C104.286 60.7717 103.757 60.9154 103.148 60.9154C102.916 60.9154 102.672 60.8919 102.443 60.8322C100.551 60.3824 100.08 58.657 100.08 58.657C100.08 58.657 100.253 64.4831 93.4724 64.4831H93.4195C93.4195 64.4831 94.0172 63.6692 94.1934 61.3266C94.5157 57.0031 97.4374 56.4094 97.4374 56.4094C97.4374 56.4094 95.878 56.2135 95.2023 55.6073C94.1456 54.647 94.2203 53.5388 94.2203 53.5388C96.6057 53.5052 98.1693 52.6913 99.3603 51.3115C100.65 49.8165 100.863 48.2063 100.863 48.2063C100.863 48.2063 99.5794 49.3717 97.0992 49.3717C96.881 49.3717 96.6476 49.3607 96.4084 49.338C95.2342 49.2422 94.4234 48.4955 94.4234 48.4955C97.006 46.8357 98.8173 43.9416 97.2108 39.5836C95.9233 36.0899 92.8312 33.4808 89.7173 31.515C88.6815 30.8675 88.1041 30.1461 88.1041 29.5264C88.1041 28.0667 90.1764 28.0196 91.0249 27.0401C92.0061 25.8999 91.3909 24.0517 90.5415 22.9385C90.5415 22.9385 90.8277 22.8805 91.2792 22.8805C92.1748 22.8805 93.7259 23.1058 95.0009 24.4301C96.6929 26.1841 95.9913 28.0953 95.9913 28.0953L96.4445 28.1836C96.7156 28.2408 96.9859 28.2517 97.2662 28.266C97.3266 28.266 97.3888 28.2693 97.4483 28.2693C99.9076 28.2693 101.007 25.6939 101.007 25.6939C101.007 25.6939 103.621 28.9151 99.7716 31.4401C99.1094 31.8715 98.8173 32.2725 98.8937 32.6988L98.9541 32.9788L99.2277 33.0276C102.018 33.7852 103.429 35.7141 105.153 37.9053C107.772 41.2392 111.475 41.3468 111.932 41.3468H111.981C111.981 41.3468 111.137 44.0198 108.646 44.0198C108.604 44.0198 108.569 44.0198 108.528 44.0173C107.384 43.9761 106.796 43.5372 106.796 43.5372C106.796 43.5372 106.35 49.6046 110.872 51.4847ZM108.646 44.8379C111.699 44.8379 112.722 41.726 112.764 41.5923L113.105 40.495L111.96 40.5312H111.956C111.552 40.5312 108.183 40.4412 105.794 37.3999L105.568 37.1174C104.007 35.1297 102.527 33.2378 99.8799 32.3751C99.9563 32.3053 100.066 32.2213 100.216 32.1229C101.622 31.198 102.438 30.0738 102.643 28.7688C102.943 26.8063 101.693 25.2407 101.638 25.1768L100.788 24.1232L100.257 25.3727C100.221 25.4509 99.3285 27.4512 97.4483 27.4512H97.3082C97.1798 27.4445 97.0564 27.4394 96.9364 27.4294C97.0018 26.5372 96.8398 25.1566 95.5892 23.86C94.086 22.3011 92.2428 22.0674 91.2792 22.0674C90.7639 22.0674 90.4215 22.1313 90.3837 22.1346L89.1003 22.3903L89.8918 23.4363C90.5138 24.2426 91.077 25.7309 90.4089 26.5078C90.1948 26.7559 89.7559 26.956 89.3354 27.1578C88.4708 27.5555 87.2891 28.113 87.2891 29.5264C87.2891 30.4412 87.9983 31.3989 89.2833 32.2128C93.0855 34.6084 95.4314 37.1082 96.4445 39.8678C98.0124 44.1123 95.9669 46.533 93.9811 47.8094L93.0897 48.3829L93.8703 49.1009C93.9752 49.1934 94.9278 50.0351 96.3379 50.1562C96.6048 50.1738 96.86 50.1881 97.0992 50.1881C98.0015 50.1881 98.7711 50.046 99.3964 49.8552C99.2252 50.1562 99.012 50.4648 98.7468 50.7742C97.612 52.0918 96.2154 52.6913 94.2068 52.7241L93.4607 52.7358L93.4036 53.4859C93.396 53.6372 93.3407 55.0279 94.6534 56.2101C94.8548 56.3935 95.0974 56.544 95.3525 56.6667C94.4612 57.4706 93.5564 58.8705 93.3809 61.2677C93.2324 63.2689 92.7565 64.0097 92.7506 64.0173L91.9264 65.2785L93.417 65.2987C95.8796 65.2987 97.7656 64.6185 99.0725 63.2689C99.8446 62.471 100.287 61.5696 100.547 60.7717C100.976 61.1374 101.529 61.4586 102.251 61.6293C102.525 61.6932 102.823 61.7285 103.148 61.7285C103.844 61.7285 104.427 61.5805 104.491 61.5646L105.443 61.3115L105.022 60.4219C104.991 60.3504 104.197 58.5636 105.052 56.0168C105.419 54.9144 105.608 53.9281 105.699 53.1596C106.298 53.4724 107.102 53.7305 108.139 53.7339C110.495 53.7339 111.534 51.9707 111.58 51.8967L112.044 51.087L111.184 50.7321C108.376 49.5642 107.755 46.4279 107.63 44.7303C107.884 44.7799 108.174 44.8245 108.502 44.8337L108.646 44.8379Z" fill="#1A1919"/>
<path fill-rule="evenodd" clip-rule="evenodd" d="M105.215 31.5225C105.784 31.5225 106.447 31.7167 107.074 32.3659C109.043 34.367 110.873 34.4789 110.873 34.4789C110.541 35.2171 109.576 35.8645 108.578 35.8645C108.347 35.8645 108.114 35.8292 107.885 35.7494C106.53 35.2919 106.046 33.258 103.668 31.99C103.668 31.99 104.331 31.5225 105.215 31.5225ZM103.281 32.7131C104.419 33.321 105.083 34.1358 105.665 34.8581C106.237 35.5635 106.779 36.2412 107.629 36.5238C107.93 36.6272 108.251 36.6768 108.578 36.6768C109.851 36.6768 111.132 35.8957 111.617 34.8135L112.105 33.7297L110.923 33.6591C110.868 33.6582 109.348 33.5186 107.658 31.789C106.963 31.0785 106.121 30.7061 105.215 30.7061C104.108 30.7061 103.287 31.2602 103.197 31.3173L102.111 32.0833L103.281 32.7131Z" fill="#1A1919"/>
<path fill-rule="evenodd" clip-rule="evenodd" d="M103.815 43.5193V43.5613C103.13 38.0203 99.114 34.0188 94.6446 31.5871C94.2316 31.3651 93.8489 31.1768 93.4796 30.9968C94.8393 31.2087 97.0308 31.2339 98.7229 29.7642C98.7229 29.7642 96.1344 31.6712 90.834 29.9391C92.3003 30.8926 95.1515 32.2387 97.756 34.419C104.262 40.1476 99.6075 45.7349 99.6075 45.7349C101.946 43.2898 102.043 40.6706 101.355 38.5315C102.586 40.5856 103.374 43.077 103.251 46.1511C103.072 50.5537 100.656 54.3618 98.1144 57.4208C96.8931 58.9057 96.6203 60.7303 96.6203 60.7303C96.6203 60.7303 97.113 59.1201 98.5265 57.4636C101.251 54.2685 103.58 50.9506 103.886 46.1679C104.167 47.0365 105.328 49.448 107.168 50.3569C107.168 50.3569 104.855 48.9603 103.815 43.5193Z" fill="#1A1919"/>
<path fill-rule="evenodd" clip-rule="evenodd" d="M68.413 64.4831C61.6312 64.4831 61.8041 58.657 61.8041 58.657C61.8041 58.657 61.3307 60.3824 59.4414 60.8322C59.2147 60.8919 58.973 60.9154 58.7372 60.9154C58.1286 60.9154 57.6015 60.7717 57.6015 60.7717C57.6015 60.7717 58.5878 58.6797 57.6049 55.7511C56.7924 53.3219 56.9242 51.5208 56.9242 51.5208C56.9242 51.5208 56.0127 52.9048 53.7456 52.9183H53.723C51.8378 52.9183 51.0145 51.4847 51.0145 51.4847C55.5326 49.6046 55.0903 43.5372 55.0903 43.5372C55.0903 43.5372 54.5027 43.9761 53.357 44.0173C53.3151 44.0198 53.2781 44.0198 53.2387 44.0198C50.7459 44.0198 49.9015 41.3468 49.9015 41.3468H49.9519C50.4127 41.3468 54.1116 41.2383 56.7286 37.9053C58.4535 35.7132 59.8669 33.786 62.6526 33.0276L62.9321 32.978L62.9917 32.6988C63.069 32.2725 62.7777 31.8715 62.1155 31.4401C58.2671 28.9151 60.8808 25.6947 60.8808 25.6947C60.8808 25.6947 61.9736 28.2693 64.4396 28.2693C64.4992 28.2693 64.5554 28.2668 64.6192 28.2668C64.8962 28.2517 65.1698 28.2408 65.4401 28.1836L65.8933 28.0953C65.8933 28.0953 65.1891 26.1841 66.8862 24.4301C68.1612 23.1058 69.7106 22.8805 70.6062 22.8805C71.0602 22.8805 71.3423 22.9385 71.3423 22.9385C70.4945 24.0517 69.8801 25.8999 70.8605 27.0401C71.709 28.0196 73.7788 28.0667 73.7788 29.5264C73.7788 30.1461 73.2022 30.8675 72.1682 31.515C69.0517 33.4808 65.9605 36.0899 64.6738 39.5836C63.069 43.9424 64.8802 46.8357 67.4662 48.4955C67.4662 48.4955 66.6529 49.2422 65.477 49.338C65.2378 49.3607 65.0061 49.3717 64.7837 49.3717C62.306 49.3717 61.0235 48.2063 61.0235 48.2063C61.0235 48.2063 61.2367 49.8165 62.5192 51.3123C63.7178 52.6913 65.2789 53.5052 67.6651 53.5388C67.6651 53.5388 67.7407 54.647 66.6856 55.6064C66.0083 56.2135 64.448 56.4094 64.448 56.4094C64.448 56.4094 67.3722 57.0031 67.6937 61.3258C67.8683 63.6692 68.4617 64.4831 68.4617 64.4831H68.413ZM69.134 64.0173C69.1315 64.0097 68.6581 63.2689 68.5061 61.2677C68.329 58.8697 67.4242 57.4706 66.5304 56.6667C66.7889 56.544 67.0281 56.3935 67.2295 56.2102C68.5422 55.0279 68.4868 53.6372 68.4776 53.4859L68.4273 52.7358L67.6752 52.7241C65.6726 52.6913 64.2734 52.0918 63.1386 50.7742C62.8751 50.4648 62.6619 50.1562 62.489 49.8552C63.1134 50.046 63.8781 50.1881 64.7837 50.1881C65.0263 50.1881 65.2789 50.1738 65.5458 50.1562C66.9559 50.0351 67.9102 49.1943 68.016 49.1009L68.7966 48.3829L67.906 47.8094C65.9126 46.533 63.8756 44.1123 65.4401 39.8678C66.454 37.1082 68.7966 34.6084 72.6046 32.2128C73.8896 31.3989 74.593 30.4412 74.593 29.5264C74.593 28.113 73.4146 27.5555 72.5501 27.1578C72.1287 26.956 71.6897 26.7559 71.4765 26.5078C70.8068 25.7309 71.3708 24.2426 71.9927 23.4363L72.7901 22.3903L71.4992 22.1346C71.4614 22.1304 71.1232 22.0674 70.6062 22.0674C69.6426 22.0674 67.8028 22.3011 66.3004 23.86C65.0481 25.1574 64.8836 26.5372 64.9482 27.4294C64.8274 27.4394 64.7057 27.4445 64.5772 27.4512H64.4396C62.5544 27.4512 61.6639 25.4509 61.6295 25.3727L61.0999 24.1232L60.2412 25.1768C60.1934 25.2407 58.9394 26.8063 59.245 28.7688C59.4472 30.0738 60.2656 31.198 61.6698 32.1229C61.8225 32.2213 61.9291 32.3053 62.0055 32.3751C59.3549 33.2378 57.8768 35.1297 56.3157 37.1174L56.0907 37.3999C53.7054 40.4412 50.3279 40.5312 49.9242 40.5312L48.7734 40.495L49.1234 41.5923C49.1646 41.726 50.1827 44.8379 53.2387 44.8379L53.3856 44.8337C53.7096 44.8245 53.9991 44.7799 54.2568 44.7303C54.1309 46.4271 53.5073 49.5642 50.6989 50.7321L49.8411 51.087L50.3052 51.8967C50.3497 51.9707 51.3922 53.7339 53.7524 53.7339C54.7839 53.7305 55.5863 53.4724 56.1864 53.1605C56.2771 53.9281 56.4659 54.9144 56.8344 56.0168C57.6888 58.5636 56.8931 60.3504 56.8629 60.4219L56.4407 61.3115L57.3942 61.5646C57.4572 61.5805 58.0439 61.7285 58.7372 61.7285C59.0611 61.7285 59.3608 61.6932 59.6319 61.6293C60.3545 61.4586 60.9135 61.1374 61.3382 60.7717C61.5968 61.5696 62.0408 62.471 62.8113 63.2689C64.1215 64.6185 66.0058 65.2987 68.4675 65.2987L69.959 65.2785L69.134 64.0173Z" fill="#1A1919"/>
<path fill-rule="evenodd" clip-rule="evenodd" d="M54.8094 32.3647C55.4389 31.7164 56.1011 31.5213 56.6736 31.5213C57.5523 31.5213 58.2179 31.9896 58.2179 31.9896C55.8426 33.2576 55.3525 35.2916 53.9961 35.7498C53.772 35.8297 53.5395 35.8634 53.3078 35.8634C52.3099 35.8634 51.3438 35.2168 51.0139 34.4785C51.0139 34.4785 52.8437 34.3667 54.8094 32.3647ZM53.3078 36.6764C53.6352 36.6764 53.955 36.6277 54.2571 36.5243C55.109 36.2409 55.6504 35.564 56.222 34.8577C56.807 34.1363 57.4634 33.3207 58.6032 32.7128L59.7757 32.083L58.6871 31.3161C58.5965 31.259 57.7798 30.7065 56.6736 30.7065C55.7654 30.7065 54.9227 31.0782 54.2277 31.7887C52.5356 33.5191 51.0198 33.6579 50.9653 33.6595L49.7852 33.7293L50.2695 34.814C50.7571 35.8953 52.0354 36.6764 53.3078 36.6764Z" fill="#1A1919"/>
<path fill-rule="evenodd" clip-rule="evenodd" d="M58.6368 46.1511C58.51 43.077 59.2981 40.5856 60.5311 38.5315C59.8437 40.6706 59.9369 43.2898 62.2786 45.7357C62.2786 45.7357 57.622 40.1476 64.1327 34.419C66.7355 32.2387 69.5842 30.8926 71.0505 29.9391C65.7518 31.6712 63.1641 29.7642 63.1641 29.7642C64.8545 31.2339 67.0469 31.2087 68.4057 30.9968C68.0381 31.1768 67.652 31.3643 67.2416 31.5871C62.7705 34.0188 58.7568 38.0203 58.0685 43.5613V43.5193C57.0303 48.9603 54.7188 50.3569 54.7188 50.3569C56.5577 49.448 57.716 47.0365 57.998 46.1679C58.3052 50.9506 60.6344 54.2685 63.358 57.4636C64.7714 59.1201 65.2692 60.7303 65.2692 60.7303C65.2692 60.7303 64.993 58.9057 63.7659 57.4208C61.2286 54.3627 58.8147 50.5537 58.6368 46.1511Z" fill="#1A1919"/>
<path fill-rule="evenodd" clip-rule="evenodd" d="M79.4102 34.9404V36.0394C79.7895 35.5778 80.5189 35.672 80.5189 35.672V37.2561C80.5189 37.2561 80.4946 38.0355 80.2176 38.3727H81.7997C81.5261 38.0355 81.4993 37.2561 81.4993 37.2561V35.672C81.4993 35.672 82.2312 35.5778 82.6072 36.0394V34.9404H79.4102Z" fill="#1A1919"/>
<path fill-rule="evenodd" clip-rule="evenodd" d="M78.7306 28.4237C79.2367 28.8256 79.5288 28.8928 79.538 28.8987L79.7361 28.9904V27.9562L77.877 27.1733C77.877 27.1733 77.8929 27.7729 78.7306 28.4237Z" fill="#1A1919"/>
<path fill-rule="evenodd" clip-rule="evenodd" d="M83.1514 28.4237C83.9916 27.7729 84.0076 27.1733 84.0076 27.1733L82.1484 27.9562V28.9904L82.3448 28.8987C82.3549 28.8928 82.6462 28.8256 83.1514 28.4237Z" fill="#1A1919"/>
<path fill-rule="evenodd" clip-rule="evenodd" d="M80.9399 25.6685L76.4621 23.896C76.8432 22.9929 78.599 22.2244 80.9399 22.2219C83.2842 22.2244 85.0401 22.9929 85.4195 23.896L80.9399 25.6685ZM84.2788 31.2205L81.269 32.8096V26.3756L85.3532 24.9865L84.2788 31.2205ZM86.143 32.9282L87.5195 33.7287H87.5388L87.8846 33.9313C87.1074 34.1465 86.514 34.5359 86.0154 35.0471C85.9969 35.0631 85.981 35.0816 85.9608 35.1009C85.8467 35.2228 85.7334 35.354 85.6243 35.4902C85.605 35.5154 85.5831 35.5423 85.5605 35.5726C85.4547 35.7097 85.3532 35.8509 85.2575 35.9964C85.2415 36.0216 85.2231 36.0468 85.2063 36.0712C85.093 36.2419 84.983 36.4235 84.8747 36.6119C83.8944 38.3036 82.3307 39.3143 80.9399 39.3168C79.5508 39.3143 77.9863 38.3036 77.0077 36.6119C76.9011 36.4286 76.7936 36.2511 76.6803 36.0788C76.6577 36.0468 76.6375 36.0132 76.6165 35.9854C76.5209 35.845 76.4235 35.7071 76.3261 35.5776C76.301 35.5423 76.2783 35.5154 76.2531 35.4852C76.1465 35.354 76.0374 35.2245 75.9266 35.1051C75.9031 35.0858 75.8872 35.0631 75.867 35.0437C75.3659 34.5316 74.7742 34.1465 73.9961 33.9313L74.3453 33.7287H74.3613L75.7403 32.9282L77.1546 32.1168L80.9332 34.1777L80.9399 34.1693L80.9509 34.1777L84.7287 32.1168L86.143 32.9282ZM91.5726 38.6517C91.2646 39.4665 91.0094 40.3485 91.0094 41.2255L91.0119 46.8877C89.831 46.6892 89.6917 45.4154 89.6866 45.3599L89.6648 45.1009L89.4105 45.0782C88.8977 45.0286 88.5569 44.8116 88.2698 44.5325C87.6907 43.9523 87.6899 43.0123 87.6907 43.0039C87.6823 43.0518 87.0536 43.9347 87.7839 44.8991C88.0911 45.3052 88.5367 45.5558 89.1125 45.6542C89.2477 46.3605 89.7731 47.3585 91.0119 47.5107V50.2821H87.527C85.9205 49.3858 86.6012 47.81 86.6323 47.7419L86.7683 47.4434L86.4611 47.3266C84.7203 46.68 85.2004 44.9411 85.2231 44.8663L85.2936 44.6124L85.056 44.5005C83.6199 43.8329 83.8138 42.0361 83.8331 41.9604C83.3908 42.3203 83.2322 43.0518 83.536 43.7699C83.3715 43.959 83.1507 44.1861 82.9082 44.4375C81.42 44.0574 81.3739 42.6877 81.3739 42.6246L81.3705 42.4136L81.175 42.3379C80.5941 42.1227 80.1955 41.7989 79.9982 41.3651C79.7783 40.8841 79.8555 40.3805 79.916 40.1375C80.0863 40.177 80.2559 40.203 80.4179 40.2173C80.5857 40.2342 80.757 40.2451 80.9299 40.2451H80.9534C81.1254 40.2451 81.2958 40.2342 81.4637 40.2173C82.3912 40.1249 83.4286 39.7263 84.5105 38.6517H91.5726ZM87.2182 63.3267L87.6076 61.2953C87.6277 61.1759 87.6529 61.0363 87.6697 60.9194C87.7805 60.9657 87.8955 61.0027 88.0214 61.0262C88.1674 61.054 88.3009 61.0683 88.4226 61.0683C89.0168 61.0683 89.3635 60.7555 89.5935 60.4881L89.8914 60.14L89.648 59.7574C89.6262 59.7196 89.0857 58.8644 88.671 58.2792C88.5888 58.164 88.5116 58.0497 88.4327 57.9261C87.9601 57.2181 87.3692 56.331 86.1833 56.331L86.0775 56.3335C85.8828 56.3462 85.7149 56.3848 85.5789 56.4361C85.2063 56.2621 84.8219 56.1713 84.4223 56.1713C83.9313 56.1713 83.5201 56.3066 83.2448 56.4C83.1659 56.4227 83.0954 56.4479 83.04 56.4588L80.8241 56.2402C80.7964 56.2343 80.7066 56.1814 80.5958 56.051V56.0401L81.0751 55.8475C80.9399 54.2474 79.4065 53.2637 78.552 52.9299C78.5151 52.7701 78.4379 52.6103 78.3036 52.48L77.8277 52.0276L77.4089 52.5305L77.2032 52.7861L74.1002 51.5097L76.1188 54.0482L75.3223 55.2573C75.031 55.5667 75.3525 55.8787 75.3525 55.8787L76.1759 56.4462L77.0287 56.1275C77.058 56.1275 77.0841 56.1343 77.1134 56.1376C77.0715 56.2671 77.0177 56.7767 76.9825 56.9188L75.5019 56.6278L73.9466 57.5073C73.1467 58.0959 73.0376 59.0688 73.3348 59.7355L73.5068 60.1131L73.7519 60.647L74.2966 60.4217C74.3042 60.4191 74.3117 60.4166 74.3168 60.4124C74.1212 61.0388 74.2009 61.6341 74.5493 62.0243L74.88 62.4405L75.3198 62.9971L75.8024 62.4775C75.9434 62.3362 76.405 61.8191 76.546 61.3768L76.651 61.0388L76.4159 60.779L76.3765 60.7319L76.6417 60.2939L78.5739 60.7504L79.0095 60.8505L79.2403 60.4679L79.3662 60.2602C79.3905 60.2157 79.3956 60.2089 79.4854 60.2089C79.5542 60.2089 79.6222 60.2157 79.6961 60.2325C80.4254 60.3704 81.0977 60.4385 81.6945 60.4385C82.2736 60.4385 82.6203 60.4166 83.0324 60.2796C83.0324 60.2796 84.0698 61.4601 84.1059 61.5055L83.4697 63.4697L83.442 63.5882C82.2384 63.6858 81.6525 63.9506 80.9441 64.6586C79.916 63.637 79.1874 63.5294 76.4235 63.5294C73.1148 63.5294 70.8722 61.5862 70.8722 58.4819V50.8934H91.0119L91.0161 58.4819C91.0161 60.9976 89.5414 62.7541 87.2182 63.3267ZM74.8137 59.036L74.9186 59.2983C74.8489 59.5279 74.0633 59.8524 74.0633 59.8524L73.8937 59.4799C73.7133 59.0831 73.7519 58.4138 74.2991 58.0043L75.5733 57.2273L76.9246 57.5141C76.8994 57.9437 77.1554 58.2649 77.1554 58.2649L75.7403 57.9925L74.8934 58.5786C74.749 58.6795 74.739 58.8644 74.8137 59.036ZM87.005 61.1809L86.571 63.4503C86.2924 63.4899 86.0003 63.51 85.6981 63.5218L86.1564 61.3407C86.2924 60.6924 84.555 60.4906 83.6963 59.2159C83.2775 59.6876 82.4885 59.8289 81.6945 59.8289C80.971 59.8289 80.2483 59.7137 79.8085 59.6262C79.6969 59.6086 79.5903 59.596 79.4854 59.596C79.2319 59.596 79.0002 59.675 78.8399 59.9432L78.714 60.1568L76.3463 59.5985L75.7571 60.5755C75.6748 60.7344 75.6681 60.8673 75.8024 61.0153L75.9619 61.1902C75.8519 61.5358 75.3592 62.0588 75.3592 62.0588L75.0075 61.6182C74.7289 61.3062 74.7742 60.7344 75.0646 60.2056L76.0038 58.6172L78.0098 58.9073L77.6984 58.196C77.2796 57.2543 77.9183 56.0577 77.9863 55.3683C77.9628 55.5768 77.7715 55.6239 77.5499 55.6239C77.3476 55.6239 77.1218 55.5852 76.9716 55.5852C76.912 55.5852 76.8616 55.5911 76.8348 55.6113L76.2909 55.9417L75.8628 55.5617C75.8108 55.4893 75.7948 55.3178 75.9199 55.19L76.912 54.0751L75.7403 52.7028L77.3812 53.5294L77.8831 52.9206C78.0207 53.056 77.9603 53.4091 77.9603 53.4091C78.4723 53.4217 79.9092 54.2172 79.9856 56.0754C79.9898 56.1326 79.9898 56.1956 79.9898 56.257C79.9898 56.257 80.0033 56.2806 80.0284 56.3184C80.1292 56.4588 80.4103 56.817 80.7654 56.8498L83.0341 57.0752H83.0433C83.2918 57.0752 83.787 56.7825 84.4223 56.7825C84.769 56.7825 85.1534 56.8708 85.5638 57.1298C85.5638 57.1298 85.7711 56.9658 86.1052 56.949C86.1304 56.9457 86.1598 56.9457 86.1833 56.9457C87.2005 56.9457 87.6236 57.8672 88.17 58.6324C88.5804 59.2159 89.1293 60.0803 89.1293 60.0803C88.927 60.3208 88.739 60.4553 88.4226 60.4553C88.3361 60.4553 88.2379 60.4486 88.1305 60.4267C87.0385 60.2249 86.8816 57.9774 86.2588 57.7999C86.2252 57.7907 86.1917 57.7873 86.1598 57.7873C85.9592 57.7873 85.8719 57.9656 85.8719 57.9656C86.1564 58.7324 85.9894 59.0419 86.2966 59.6321C86.5249 60.0702 86.9319 60.4301 87.099 60.6008C87.099 60.6008 87.0536 60.9329 87.005 61.1809ZM84.9167 63.5369C84.6112 63.5369 84.33 63.5411 84.0774 63.5512L84.7421 61.4777C84.8454 61.1902 84.3208 60.8211 84.1034 60.4973C84.4307 60.7033 85.2793 61.1549 85.6872 61.3348C85.6461 61.4021 84.9167 63.5369 84.9167 63.5369ZM75.0352 44.852L75.1301 41.2474L75.9375 40.3914L76.4445 41.455L75.4448 44.9151L75.0352 44.852ZM75.6161 45.9686C75.7478 46.2461 75.9854 46.4311 76.1524 46.5362C76.1465 46.7968 76.1222 47.1996 76.0542 47.5561C76.0374 47.636 76.0173 47.7091 75.9954 47.7823C75.9837 47.8285 75.9703 47.8664 75.961 47.8966C75.7134 47.8966 75.23 47.8664 74.833 47.7218C74.394 47.5595 73.7393 46.7531 73.8904 45.8635C74.0801 45.7475 74.5199 45.4994 74.932 45.4994C75.2484 45.4994 75.465 45.6491 75.6161 45.9686ZM84.9687 46.9373C84.3476 47.3955 82.7479 48.566 82.1671 48.9721L76.5813 47.9664C76.5947 47.9168 76.6081 47.8664 76.6199 47.8176C76.6929 47.5267 76.7685 47.1307 76.7718 46.664L81.467 46.7397L81.5569 46.648C81.6282 46.5765 83.1155 45.137 83.8734 44.3088C84.0539 44.5358 84.2788 44.7519 84.5751 44.9411C84.4744 45.4927 84.5172 46.2764 84.9687 46.9373ZM77.3728 38.6517C78.0442 39.3202 78.7014 39.7355 79.3259 39.9643C79.2453 40.2871 79.1387 40.9531 79.4392 41.6165C79.6851 42.1513 80.1308 42.5633 80.7754 42.8382C80.8459 43.4999 81.2639 44.4946 82.418 44.9327C81.9119 45.4439 81.42 45.9257 81.2211 46.12L76.536 46.046C76.4302 45.993 76.2481 45.8728 76.1675 45.7038C76.1583 45.6794 76.1432 45.6668 76.1331 45.6432L76.8977 45.7668C76.9137 45.7693 76.9305 45.7693 76.9464 45.7693C77.0941 45.7693 77.2225 45.6668 77.2469 45.5146C77.2721 45.3456 77.1596 45.1892 76.9942 45.1631L76.0542 45.0143L77.0966 41.4038L76.1087 39.3202L74.5249 40.9976L74.4276 44.7519L73.3633 44.5821C73.1988 44.5501 73.0418 44.6704 73.0125 44.8377C72.9873 45.0025 73.0997 45.1597 73.2668 45.1892L73.7133 45.2573C73.5538 45.3481 73.4481 45.4204 73.4355 45.4305L73.3457 45.4936L73.3205 45.6054C73.062 46.6589 73.647 47.6587 74.2798 48.106L74.2572 48.2389C74.2312 48.4011 74.2681 48.5592 74.3655 48.6912C74.4578 48.8266 74.5979 48.9073 74.7574 48.9359C74.7902 48.9418 74.8254 48.9443 74.8556 48.9443C75.1301 48.9443 75.3693 48.7543 75.4364 48.4768C75.6715 48.5046 75.8872 48.5105 76.0349 48.5105H76.1608L82.3072 49.6237L82.4121 49.5539C82.9015 49.2109 84.769 47.8479 85.3809 47.3964C85.5496 47.5418 85.7376 47.673 85.965 47.7823C85.7661 48.4474 85.7544 49.4724 86.5375 50.2821H70.8722V41.2255C70.8722 40.3485 70.6162 39.4665 70.3132 38.6517H77.3728ZM76.5259 24.9865L80.6134 26.3756V32.8096L77.6036 31.2205L76.5259 24.9865ZM86.4988 24.2105C86.4988 22.6406 83.8608 21.228 80.9492 21.228H80.9332C78.0216 21.228 75.3836 22.6406 75.3836 24.2105L75.4415 24.5964L76.604 31.2818L75.4364 31.9612L72.4148 33.7287H72.4258C72.4258 33.7287 71.7459 34.0784 71.4311 34.2937C70.2804 35.0942 70.0362 36.2621 70.7043 36.7447C70.8688 35.7921 71.62 34.7974 73.0276 34.7974C74.0406 34.7974 74.8137 35.3212 75.4364 36.1065C75.5976 36.305 75.7495 36.5168 75.8914 36.7447C76.0659 37.0323 76.2422 37.2845 76.4159 37.5275H68.6328C69.2052 38.6795 69.7491 39.8995 69.7491 41.2255V58.4819C69.7491 62.6591 72.9554 64.6527 76.4235 64.6527C79.1043 64.6527 79.4652 64.53 80.9441 66.0065C82.4163 64.53 82.7781 64.6527 85.4606 64.6527C88.9312 64.6527 92.1333 62.6591 92.1333 58.4819V41.2255C92.1333 39.8995 92.6763 38.6795 93.2513 37.5275H85.4656C85.6394 37.2845 85.8148 37.0323 85.9894 36.7447C86.1337 36.5168 86.2848 36.305 86.4426 36.1065C87.0713 35.3178 87.8418 34.7974 88.8557 34.7974C90.2616 34.7974 91.0119 35.7921 91.179 36.7447C91.8471 36.2621 91.6053 35.0942 90.4479 34.2937C90.1382 34.0784 89.4575 33.7287 89.4575 33.7287H89.4684L86.4426 31.9612L85.2793 31.2818L86.4426 24.5964L86.4988 24.2105Z" fill="#1A1919"/>
<path d="M15.0159 106.778H20.8527V93.2418H28.8685V88.3162H7V93.2418H15.0159V106.778Z" fill="#333333"/>
<path d="M37.0412 106.778V88.3162H31.2044V106.778H37.0412Z" fill="#333333"/>
<path d="M46.5266 88.3162H41.3124V106.778H46.6823V96.5773L56.6826 106.778H61.6634V88.3162H56.2935V98.4389L46.5266 88.3162Z" fill="#333333"/>
<path d="M71.5786 99.7964H73.1351L79.8669 106.778H87.3769L77.9991 97.159L87.0267 88.3162H79.9447L73.1351 95.2586H71.5786V88.3162H65.9364V106.778H71.5786V99.7964Z" fill="#333333"/>
<path d="M98.9866 87.812C91.3988 87.812 86.8461 92.0783 86.8461 97.5857C86.8461 103.093 91.3988 107.359 98.9866 107.359C106.536 107.359 111.088 103.093 111.088 97.5857C111.088 92.0783 106.536 87.812 98.9866 87.812ZM98.9866 102.86C95.2122 102.86 92.7996 100.611 92.7996 97.5857C92.7996 94.5605 95.2122 92.3498 98.9866 92.3498C102.722 92.3498 105.174 94.5605 105.174 97.5857C105.174 100.611 102.722 102.86 98.9866 102.86Z" fill="#333333"/>
<path d="M132.33 93.0091V88.3162H113.769V106.778H119.411V100.223H131.863V96.3446H119.411V93.0091H132.33Z" fill="#333333"/>
<path d="M153.192 93.0091V88.3162H134.631V106.778H140.273V100.223H152.725V96.3446H140.273V93.0091H153.192Z" fill="#333333"/>
</svg>
