<svg width="306" height="204" viewBox="0 0 306 204" fill="none" xmlns="http://www.w3.org/2000/svg">
<path fill-rule="evenodd" clip-rule="evenodd" d="M221.184 65.9589L223 60.1332L216.989 60.3239C216.482 60.3239 212.791 60.2164 209.209 57.6166C209.477 57.6391 209.742 57.679 210.017 57.679C213.703 57.679 217.273 55.4556 218.701 52.273L221.286 46.527C218.042 46.5704 215.078 46.1593 215.078 46.1593C215.053 46.1576 212.716 45.8541 210.015 43.0878C208.078 41.1071 205.68 40.0578 203.083 40.0578C201.946 40.0578 200.93 40.2642 200.054 40.5417C200.192 40.0752 200.318 39.6034 200.396 39.1161C201.22 33.7378 197.768 29.6377 197.767 29.6412L193.244 24.0322L190.442 30.6211C190.433 30.6419 189.723 32.1872 188.459 32.94C188.078 31.0027 187.138 28.826 185.133 26.7448C181.351 22.8234 176.747 22.2354 174.339 22.2354C173.222 22.2354 172.424 22.3586 172.232 22.3898L166.775 23.4651C167.09 22.2441 167.762 20.1143 168.988 18.2013L171.998 13.5029L164.422 14.3649L162.007 9.23112L157.334 11.6454L153.011 7.36841L148.702 11.6454L144.017 9.23112L141.609 14.3649L134.035 13.4994L137.051 18.203C138.278 20.1143 138.946 22.2389 139.258 23.4564L134.05 22.4279L133.872 22.4002C133.611 22.3586 132.819 22.2354 131.697 22.2354C129.289 22.2354 124.688 22.8234 120.913 26.7431C118.905 28.8226 117.963 31.0027 117.579 32.94C116.322 32.1942 115.619 30.6731 115.619 30.6731L112.811 24.0461L108.22 29.6898C107.657 30.4165 104.89 34.272 105.642 39.123C105.72 39.6069 105.846 40.0752 105.981 40.5417C105.11 40.2625 104.094 40.0578 102.958 40.0578C100.36 40.0578 97.9617 41.1071 96.021 43.0878C93.3271 45.8419 91.0054 46.1541 91.0245 46.1541C91.0245 46.1541 88.5661 46.5981 84.7642 46.527L87.3351 52.273C88.7669 55.4556 92.3385 57.679 96.0175 57.679C96.2945 57.679 96.5594 57.6391 96.8312 57.6166C93.2578 60.2164 89.5667 60.3239 89.1201 60.3257L83 60.1332L84.8542 65.9572C85.7891 68.9594 88.9054 73.9318 94.8749 74.4677C94.2256 77.1942 92.7869 80.2518 89.6256 81.5665L85.0637 83.4483L87.5515 87.7877C88.9539 90.1274 92.2502 92.8642 96.9403 92.8642C97.9548 92.8607 98.9347 92.7584 99.88 92.5572C100.121 93.6256 100.422 94.6974 100.779 95.7606C102.174 99.9265 100.971 102.83 100.959 102.863L98.7062 107.587L103.732 108.914C103.794 108.933 105.313 109.353 107.214 109.353C108.074 109.353 108.902 109.263 109.672 109.077C110.256 108.94 110.818 108.76 111.358 108.539C112.009 109.708 112.799 110.775 113.72 111.731C116.94 115.042 121.505 116.719 127.284 116.719H127.303L131.431 116.665L122.904 120.217L129.378 123.351C131.73 124.499 134.518 125.857 137.359 126.896L136.55 129.111L138.78 130.131C138.979 130.221 143.271 132.142 150.402 132.552C150.402 132.552 152.123 132.632 153.072 132.632C154.019 132.632 155.721 132.547 155.721 132.547C162.805 132.127 167.062 130.221 167.261 130.131L169.498 129.109L168.683 126.891C171.602 125.821 174.495 124.409 176.749 123.306L183.103 120.213L174.604 116.665L178.748 116.719C184.536 116.719 189.102 115.04 192.317 111.725C193.234 110.778 194.022 109.714 194.676 108.539C195.218 108.76 195.784 108.94 196.369 109.081C197.138 109.263 197.964 109.353 198.824 109.353C200.692 109.353 202.228 108.938 202.268 108.924L207.316 107.587L205.118 102.95C205.066 102.83 203.862 99.9265 205.258 95.7571C205.613 94.694 205.912 93.6238 206.156 92.5572C207.103 92.7584 208.092 92.8607 209.115 92.8642C215.092 92.8642 217.957 88.6531 218.511 87.7391L220.973 83.4448L216.414 81.57C213.244 80.2519 211.807 77.1959 211.165 74.4712C217.057 73.9578 220.216 68.9802 221.184 65.9589Z" fill="#FFFFFE"/>
<path fill-rule="evenodd" clip-rule="evenodd" d="M153.012 25.2103C148.184 25.2155 144.562 26.799 143.776 28.6652L153.012 32.3178L162.252 28.6652C161.47 26.799 157.848 25.2155 153.012 25.2103Z" fill="#FFFFFE"/>
<path fill-rule="evenodd" clip-rule="evenodd" d="M153.111 121.88H152.925C150 121.899 145.967 121.299 144.03 120.73L141.693 127.061C143.232 127.61 148.45 128.663 153.022 128.663C157.586 128.663 162.806 127.61 164.343 127.061L162.011 120.73C160.063 121.299 156.037 121.899 153.111 121.88Z" fill="#FFFFFE"/>
<path fill-rule="evenodd" clip-rule="evenodd" d="M170.784 115.581C169.046 116.567 165.164 118.048 162.908 118.734L164.802 123.964C168.294 123.008 171.179 121.893 173.558 120.696L169.624 119.387L170.784 115.581Z" fill="#FFFFFE"/>
<path fill-rule="evenodd" clip-rule="evenodd" d="M135.25 115.581L136.413 119.387L132.476 120.696C134.851 121.893 137.748 123.008 141.228 123.964L143.125 118.734C140.873 118.048 136.986 116.567 135.25 115.581Z" fill="#FFFFFE"/>
<path fill-rule="evenodd" clip-rule="evenodd" d="M153.013 19.1569C156.654 19.1569 160.222 20.0293 162.968 21.5607C163.219 20.7196 163.57 19.6963 164.046 18.6227L163.006 18.7476L161.919 18.8621L161.458 17.8683L160.068 14.9302L157.538 16.2518L156.552 16.7531L155.764 15.9761L153.013 13.2496L150.267 15.9761L149.483 16.7531L148.498 16.2518L145.953 14.9302L144.583 17.8683L144.112 18.8621L143.025 18.7476L141.99 18.6227C142.466 19.6963 142.814 20.7196 143.068 21.5607C145.825 20.0293 149.389 19.1569 153.013 19.1569Z" fill="#FFFFFE"/>
<path fill-rule="evenodd" clip-rule="evenodd" d="M208.589 53.1142C209.061 53.2772 209.541 53.3501 210.017 53.3501C212.077 53.3501 214.067 52.0146 214.75 50.4901C214.75 50.4901 210.976 50.2612 206.916 46.1316C205.623 44.7944 204.255 44.3938 203.082 44.3938C201.259 44.3938 199.891 45.3564 199.891 45.3564C204.796 47.9735 205.796 52.169 208.589 53.1142Z" fill="#FFFFFE"/>
<path fill-rule="evenodd" clip-rule="evenodd" d="M96.0157 53.3501C96.4918 53.3501 96.9731 53.2772 97.4354 53.1125C100.235 52.169 101.244 47.9735 106.142 45.3581C106.142 45.3581 104.771 44.3938 102.958 44.3938C101.777 44.3938 100.411 44.7944 99.113 46.1334C95.0583 50.2612 91.2859 50.4918 91.2859 50.4918C91.9628 52.0146 93.9573 53.3501 96.0157 53.3501Z" fill="#FFFFFE"/>
<path fill-rule="evenodd" clip-rule="evenodd" d="M207.108 83.2437C203.315 81.3689 200.917 76.3947 200.339 74.6031C199.709 84.4682 194.903 91.312 189.285 97.9026C186.369 101.319 185.351 104.641 185.351 104.641C185.351 104.641 185.914 100.877 188.435 97.8142C193.677 91.5063 198.66 83.6496 199.03 74.5684C199.285 68.2276 197.659 63.0886 195.119 58.8516C196.54 63.2638 196.338 68.6664 191.516 73.7099C191.516 73.7099 201.118 62.185 187.694 50.3688C182.323 45.8715 176.442 43.0948 173.417 41.128C184.35 44.7008 189.69 40.7673 189.69 40.7673C186.2 43.799 181.679 43.7469 178.874 43.3099C179.636 43.681 180.427 44.0695 181.277 44.5274C190.497 49.5432 198.781 57.7971 200.193 69.2266V69.1398C202.337 80.363 207.108 83.2437 207.108 83.2437ZM209.916 70.1666C210.001 70.1718 210.074 70.1718 210.16 70.1718C215.299 70.1718 217.041 64.6582 217.041 64.6582H216.94C215.997 64.6582 208.356 64.4362 202.955 57.5595C199.402 53.038 196.487 49.0628 190.734 47.4984L190.168 47.3978L190.045 46.8202C189.885 45.9409 190.49 45.1136 191.856 44.2239C199.797 39.0156 194.402 32.3712 194.402 32.3712C194.402 32.3712 192.136 37.6836 187.063 37.6836C186.94 37.6836 186.812 37.6766 186.686 37.6766C186.111 37.6472 185.554 37.6263 184.995 37.5067L184.06 37.3246C184.06 37.3246 185.507 33.3823 182.015 29.7644C179.385 27.0328 176.186 26.568 174.338 26.568C173.407 26.568 172.817 26.6877 172.817 26.6877C174.57 28.984 175.838 32.7961 173.814 35.1479C172.064 37.1685 167.789 37.2656 167.789 40.2782C167.789 41.5547 168.978 43.0428 171.115 44.38C177.54 48.4332 183.918 53.8132 186.572 61.0213C189.885 70.0105 186.151 75.9802 180.822 79.4021C180.822 79.4021 182.495 80.944 184.917 81.1417C185.412 81.1885 185.893 81.2111 186.341 81.2111C191.459 81.2111 194.106 78.8072 194.106 78.8072C194.106 78.8072 193.668 82.1285 191.007 85.2123C188.549 88.0584 185.327 89.7372 180.405 89.8066C180.405 89.8066 180.251 92.0925 182.429 94.0732C183.824 95.3219 187.041 95.7277 187.041 95.7277C187.041 95.7277 181.014 96.9522 180.35 105.87C179.988 110.702 178.755 112.381 178.755 112.381H178.862C192.849 112.381 192.491 100.364 192.491 100.364C192.491 100.364 193.464 103.923 197.366 104.851C197.837 104.974 198.341 105.022 198.821 105.022C200.076 105.022 201.168 104.726 201.168 104.726C201.168 104.726 199.124 100.409 201.151 94.3697C202.832 89.3574 202.562 85.6441 202.562 85.6441C202.562 85.6441 204.444 88.4989 209.118 88.5249H209.165C213.055 88.5249 214.75 85.5713 214.75 85.5713C205.425 81.6915 206.346 69.1763 206.346 69.1763C206.346 69.1763 207.557 70.0816 209.916 70.1666Z" fill="#FFFFFE"/>
<path fill-rule="evenodd" clip-rule="evenodd" d="M116.745 97.9026C111.127 91.312 106.323 84.4682 105.688 74.6031C105.108 76.3947 102.719 81.3689 98.9271 83.2437C98.9271 83.2437 103.693 80.363 105.835 69.1398V69.2266C107.253 57.7988 115.535 49.5432 124.756 44.5291C125.601 44.0678 126.399 43.681 127.156 43.3116C124.353 43.7469 119.832 43.799 116.344 40.7673C116.344 40.7673 121.683 44.7008 132.613 41.128C129.588 43.0965 123.712 45.8715 118.342 50.3688C104.914 62.185 114.517 73.7116 114.517 73.7116C109.689 68.6664 109.495 63.2655 110.914 58.8516C108.371 63.0886 106.746 68.2276 107.007 74.5684C107.374 83.6496 112.355 91.5046 117.587 97.8159C120.12 100.877 120.689 104.639 120.689 104.639C120.689 104.639 119.659 101.319 116.745 97.9026ZM118.993 95.7277C118.993 95.7277 122.211 95.3236 123.608 94.0714C125.784 92.0925 125.629 89.8066 125.629 89.8066C120.707 89.7372 117.486 88.0584 115.014 85.214C112.369 82.1285 111.929 78.8072 111.929 78.8072C111.929 78.8072 114.574 81.2111 119.685 81.2111C120.144 81.2111 120.622 81.1885 121.115 81.1417C123.541 80.944 125.218 79.4038 125.218 79.4038C119.884 75.9802 116.148 70.0122 119.458 61.0213C122.112 53.8149 128.489 48.4332 134.917 44.3782C137.05 43.0428 138.239 41.5547 138.239 40.2782C138.239 37.2656 133.97 37.1685 132.221 35.1479C130.197 32.7961 131.465 28.984 133.215 26.6877C133.215 26.6877 132.632 26.568 131.695 26.568C129.849 26.568 126.652 27.0328 124.022 29.7644C120.523 33.3823 121.974 37.3246 121.974 37.3246L121.039 37.5067C120.482 37.6246 119.919 37.6472 119.346 37.6784C119.214 37.6784 119.098 37.6836 118.975 37.6836C113.889 37.6836 111.635 32.3729 111.635 32.3729C111.635 32.3729 106.243 39.0156 114.181 44.2239C115.547 45.1136 116.148 45.9409 115.989 46.8202L115.866 47.396L115.289 47.4984C109.545 49.0628 106.628 53.038 103.07 57.5595C97.6719 64.4345 90.0421 64.6582 89.0917 64.6582H88.9878C88.9878 64.6582 90.7295 70.1718 95.8714 70.1718C95.9527 70.1718 96.0289 70.1718 96.1155 70.1666C98.4787 70.0816 99.6906 69.1763 99.6906 69.1763C99.6906 69.1763 100.605 81.6915 91.2835 85.5695C91.2835 85.5695 92.9819 88.5266 96.8703 88.5266H96.9171C101.593 88.4989 103.473 85.6441 103.473 85.6441C103.473 85.6441 103.202 89.3591 104.877 94.3697C106.905 100.411 104.871 104.727 104.871 104.727C104.871 104.727 105.958 105.022 107.213 105.022C107.699 105.022 108.198 104.974 108.666 104.851C112.563 103.923 113.539 100.364 113.539 100.364C113.539 100.364 113.182 112.381 127.171 112.381H127.272C127.272 112.381 126.048 110.702 125.687 105.869C125.024 96.9522 118.993 95.7277 118.993 95.7277Z" fill="#FFFFFE"/>
<path fill-rule="evenodd" clip-rule="evenodd" d="M149.856 51.4435H156.451V53.7103C155.675 52.7582 154.165 52.9524 154.165 52.9524V56.22C154.165 56.22 154.221 57.8277 154.785 58.5232H151.522C152.093 57.8277 152.143 56.22 152.143 56.22V52.9524C152.143 52.9524 150.639 52.7582 149.856 53.7103V51.4435ZM142.671 51.7835C142.902 52.0297 143.127 52.2968 143.345 52.5674C143.397 52.6298 143.444 52.6853 143.495 52.7582C143.696 53.0253 143.899 53.3097 144.095 53.5993C144.138 53.6566 144.179 53.726 144.226 53.7919C144.46 54.1474 144.681 54.5134 144.901 54.8914C146.92 58.381 150.147 60.4657 153.012 60.4709C155.881 60.4657 159.105 58.381 161.129 54.8914C161.352 54.503 161.579 54.1283 161.812 53.7762C161.847 53.726 161.885 53.6739 161.916 53.6219C162.117 53.3218 162.325 53.0305 162.543 52.7478C162.59 52.6853 162.633 52.6298 162.675 52.5778C162.9 52.2968 163.132 52.0263 163.369 51.7748C163.409 51.7349 163.443 51.6967 163.481 51.6638C164.51 50.6093 165.734 49.8063 167.339 49.3623L166.624 48.9443H166.584L163.745 47.2932L160.827 45.6195L153.033 49.8704L153.012 49.8531L152.998 49.8704L145.203 45.6195L142.287 47.2932L139.443 48.9443H139.41L138.689 49.3623C140.294 49.8063 141.515 50.6006 142.547 51.6568C142.592 51.6967 142.623 51.7436 142.671 51.7835Z" fill="#FFFFFE"/>
<path fill-rule="evenodd" clip-rule="evenodd" d="M150.53 37.0382V39.1714L150.122 38.9841C150.103 38.9685 149.502 38.8332 148.456 38.0025C146.73 36.6618 146.696 35.4235 146.696 35.4235L150.53 37.0382ZM152.34 47.0472V33.7775L143.908 30.9124L146.131 43.771L152.34 47.0472Z" fill="#FFFFFE"/>
<path fill-rule="evenodd" clip-rule="evenodd" d="M155.504 37.0382L159.339 35.4235C159.339 35.4235 159.306 36.6618 157.573 38.0025C156.531 38.8332 155.93 38.9685 155.909 38.9841L155.504 39.1714V37.0382ZM159.9 43.771L162.116 30.9124L153.69 33.7775V47.0472L159.9 43.771Z" fill="#FFFFFE"/>
<path fill-rule="evenodd" clip-rule="evenodd" d="M140.416 77.8084C141.235 78.1067 142.232 78.1692 142.743 78.1692C142.762 78.1067 142.79 78.0287 142.814 77.9333C142.859 77.7824 142.902 77.6315 142.934 77.4667C143.077 76.7314 143.127 75.9006 143.14 75.363C142.795 75.1462 142.305 74.7646 142.032 74.1923C141.72 73.5332 141.272 73.2245 140.621 73.2245C139.772 73.2245 138.863 73.7361 138.47 73.9755C138.16 75.8104 139.511 77.4737 140.416 77.8084Z" fill="#FFFFFE"/>
<path fill-rule="evenodd" clip-rule="evenodd" d="M159.066 70.7703C157.5 72.4769 154.433 75.4461 154.285 75.5936L154.1 75.7809L144.415 75.6282C144.409 76.5891 144.253 77.406 144.102 78.0061C144.078 78.1049 144.05 78.209 144.024 78.313L155.544 80.3891C156.742 79.5496 160.04 77.1354 161.323 76.1902C160.392 74.827 160.303 73.2105 160.513 72.0728C159.9 71.6825 159.436 71.2385 159.066 70.7703Z" fill="#FFFFFE"/>
<path fill-rule="evenodd" clip-rule="evenodd" d="M160.377 59.0991C158.146 61.3156 156.006 62.1395 154.095 62.3285C153.745 62.3649 153.395 62.3875 153.04 62.3875H152.992C152.635 62.3875 152.282 62.3649 151.937 62.3285C151.602 62.299 151.252 62.2453 150.9 62.1655C150.776 62.665 150.616 63.7056 151.07 64.6959C151.475 65.5909 152.297 66.2569 153.497 66.7026L153.901 66.8604L153.908 67.2958C153.908 67.4241 154.003 70.2477 157.072 71.0316C157.574 70.5147 158.03 70.0465 158.367 69.6545C157.741 68.1751 158.07 66.6644 158.98 65.9256C158.94 66.0817 158.54 69.7863 161.504 71.1634L161.993 71.3958L161.847 71.9161C161.799 72.0722 160.81 75.6589 164.401 76.9926L165.036 77.2337L164.754 77.8511C164.692 77.9881 163.284 81.2401 166.6 83.0889H173.788V77.3707C171.231 77.0585 170.15 74.9998 169.87 73.543C168.681 73.3383 167.763 72.8249 167.131 71.9872C165.623 69.9979 166.92 68.1751 166.937 68.0762C166.934 68.0918 166.937 70.0309 168.132 71.2293C168.726 71.8051 169.425 72.2543 170.486 72.3549L171.009 72.4017L171.054 72.9377C171.063 73.0504 171.35 75.678 173.788 76.089L173.783 64.408C173.783 62.5991 174.309 60.7797 174.943 59.0991H160.377Z" fill="#FFFFFE"/>
<path fill-rule="evenodd" clip-rule="evenodd" d="M141.029 64.4515L140.834 71.8885L141.679 72.0186L143.742 64.8816L142.695 62.6859L141.029 64.4515Z" fill="#FFFFFE"/>
<path fill-rule="evenodd" clip-rule="evenodd" d="M145.499 91.9864C145.259 91.9795 145.082 91.7748 145.098 91.5338C145.117 91.3031 145.312 91.121 145.55 91.1418C145.792 91.1505 145.962 91.3638 145.955 91.591C145.932 91.8269 145.73 92.0073 145.499 91.9864ZM163.78 98.5701C163.844 98.5701 163.915 98.5788 163.984 98.5961C165.269 98.9638 165.593 103.6 167.845 104.013C168.067 104.059 168.269 104.073 168.447 104.073C169.1 104.073 169.488 103.796 169.907 103.3C169.907 103.3 168.773 101.517 167.926 100.311C166.799 98.7366 165.927 96.834 163.83 96.834C163.78 96.834 163.719 96.834 163.667 96.8409C162.978 96.8756 162.552 97.2138 162.552 97.2138C161.702 96.6779 160.911 96.4975 160.198 96.4975C158.886 96.4975 157.864 97.1011 157.352 97.1011H157.333L152.651 96.638C151.921 96.5669 151.341 95.8281 151.133 95.5402C151.081 95.4604 151.052 95.4153 151.052 95.4153C151.052 95.2869 151.052 95.1569 151.045 95.0407C150.887 91.206 147.923 89.5653 146.867 89.5392C146.867 89.5392 146.992 88.8091 146.708 88.5316L145.672 89.7873L142.288 88.0841L144.705 90.9129L142.658 93.2144C142.4 93.4763 142.433 93.8301 142.541 93.981L143.424 94.7632L144.545 94.0816C144.601 94.0399 144.705 94.0261 144.828 94.0261C145.137 94.0261 145.603 94.1076 146.02 94.1076C146.479 94.1076 146.872 94.0104 146.921 93.5803C146.78 95.0025 145.463 97.4722 146.327 99.4147L146.969 100.88L142.83 100.284L140.892 103.56C140.295 104.651 140.202 105.83 140.776 106.474L141.5 107.381C141.5 107.381 142.518 106.302 142.745 105.591L142.416 105.228C142.139 104.923 142.153 104.651 142.322 104.323L143.538 102.304L148.422 103.458L148.68 103.017C149.012 102.464 149.49 102.301 150.013 102.301C150.229 102.301 150.449 102.327 150.679 102.363C151.586 102.542 153.079 102.783 154.571 102.783C156.207 102.783 157.833 102.49 158.7 101.517C160.47 104.144 164.055 104.562 163.773 105.898L162.828 110.4C163.453 110.372 164.055 110.333 164.626 110.253L165.525 105.57C165.624 105.058 165.717 104.373 165.717 104.373C165.373 104.021 164.535 103.279 164.062 102.375C163.43 101.158 163.773 100.521 163.184 98.9378C163.184 98.9378 163.366 98.5701 163.78 98.5701Z" fill="#FFFFFE"/>
<path fill-rule="evenodd" clip-rule="evenodd" d="M138.828 102.83C138.828 102.83 140.449 102.162 140.592 101.687L140.376 101.145C140.222 100.792 140.243 100.41 140.54 100.204L142.287 98.9913L145.206 99.555C145.206 99.555 144.678 98.8907 144.73 98.0062L141.943 97.4148L139.315 99.0191C138.188 99.862 138.106 101.243 138.478 102.061L138.828 102.83Z" fill="#FFFFFE"/>
<path fill-rule="evenodd" clip-rule="evenodd" d="M145.499 91.9863C145.259 91.9794 145.082 91.7747 145.098 91.5336C145.117 91.303 145.312 91.1209 145.55 91.1417C145.792 91.1503 145.962 91.3637 145.955 91.5909C145.932 91.8268 145.73 92.0071 145.499 91.9863ZM163.78 98.57C163.844 98.57 163.915 98.5787 163.984 98.596C165.269 98.9637 165.593 103.6 167.845 104.012C168.067 104.059 168.269 104.073 168.447 104.073C169.1 104.073 169.488 103.796 169.907 103.3C169.907 103.3 168.773 101.517 167.926 100.311C166.799 98.7365 165.927 96.8339 163.83 96.8339C163.78 96.8339 163.719 96.8339 163.667 96.8408C162.978 96.8755 162.552 97.2137 162.552 97.2137C161.702 96.6778 160.911 96.4974 160.198 96.4974C158.886 96.4974 157.864 97.101 157.352 97.101H157.333L152.651 96.6379C151.921 96.5668 151.341 95.8279 151.133 95.54C151.081 95.4603 151.052 95.4152 151.052 95.4152C151.052 95.2868 151.052 95.1567 151.045 95.0405C150.887 91.2058 147.923 89.5651 146.867 89.5391C146.867 89.5391 146.992 88.809 146.708 88.5315L145.672 89.7871L142.288 88.084L144.705 90.9127L142.658 93.2143C142.4 93.4761 142.433 93.8299 142.541 93.9808L143.424 94.763L144.545 94.0814C144.601 94.0398 144.705 94.0259 144.828 94.0259C145.137 94.0259 145.603 94.1075 146.02 94.1075C146.479 94.1075 146.872 94.0103 146.921 93.5802C146.78 95.0024 145.463 97.4721 146.327 99.4146L146.969 100.88L142.83 100.284L140.892 103.56C140.295 104.651 140.202 105.83 140.776 106.474L141.5 107.381C141.5 107.381 142.518 106.302 142.745 105.591L142.416 105.228C142.139 104.923 142.153 104.651 142.322 104.323L143.538 102.304L148.422 103.457L148.68 103.017C149.012 102.464 149.49 102.301 150.013 102.301C150.229 102.301 150.449 102.327 150.679 102.363C151.586 102.542 153.079 102.783 154.571 102.783C156.207 102.783 157.833 102.49 158.7 101.517C160.47 104.144 164.055 104.562 163.773 105.898L162.828 110.4C163.453 110.372 164.055 110.332 164.626 110.253L165.525 105.57C165.624 105.058 165.717 104.373 165.717 104.373C165.373 104.021 164.535 103.279 164.062 102.375C163.43 101.158 163.773 100.521 163.184 98.9377C163.184 98.9377 163.366 98.57 163.78 98.57Z" fill="#FFFFFE"/>
<path fill-rule="evenodd" clip-rule="evenodd" d="M138.828 102.83C138.828 102.83 140.449 102.162 140.592 101.687L140.376 101.145C140.222 100.792 140.243 100.41 140.54 100.204L142.287 98.9913L145.206 99.555C145.206 99.555 144.678 98.8907 144.73 98.0062L141.943 97.4148L139.315 99.0191C138.188 99.862 138.106 101.243 138.478 102.061L138.828 102.83Z" fill="#FFFFFE"/>
<path fill-rule="evenodd" clip-rule="evenodd" d="M159.484 110.46C160.005 110.439 160.585 110.43 161.217 110.43C161.217 110.43 162.72 106.027 162.805 105.888C161.963 105.515 160.213 104.585 159.538 104.161C159.986 104.83 161.068 105.591 160.854 106.181L159.484 110.46Z" fill="#FFFFFE"/>
<path fill-rule="evenodd" clip-rule="evenodd" d="M173.788 84.3503H132.248V100.003C132.248 106.406 136.872 110.413 143.697 110.413C149.396 110.413 150.9 110.636 153.021 112.744C154.482 111.283 155.691 110.739 158.173 110.536L158.232 110.293L159.541 106.238C159.468 106.146 157.327 103.711 157.327 103.711C156.479 103.994 155.765 104.041 154.569 104.041C153.338 104.041 151.953 103.897 150.445 103.614C150.294 103.579 150.152 103.564 150.012 103.564C149.827 103.564 149.815 103.579 149.766 103.669L149.507 104.1L149.031 104.889L148.134 104.681L144.147 103.741L143.6 104.644L143.681 104.741L144.166 105.277L143.951 105.974C143.657 106.887 142.706 107.952 142.415 108.246L141.42 109.317L140.511 108.167L139.829 107.31C139.112 106.505 138.946 105.277 139.349 103.987C139.341 103.994 139.327 104.001 139.309 104.002L138.186 104.469L137.68 103.368L137.325 102.587C136.714 101.214 136.939 99.207 138.588 97.9929L141.796 96.177L144.85 96.7788C144.922 96.4857 145.031 95.4347 145.12 95.1676C145.059 95.1607 145.005 95.1468 144.945 95.1468L143.186 95.8059L141.487 94.6317C141.487 94.6317 140.824 93.9917 141.427 93.3517L143.068 90.8577L138.904 85.6216L145.303 88.2544L145.731 87.7272L146.593 86.69L147.575 87.6248C147.852 87.8919 148.011 88.2215 148.089 88.551C149.851 89.2395 153.013 91.2687 153.291 94.5692L152.303 94.9647V94.989C152.53 95.2578 152.716 95.3688 152.775 95.3792L157.342 95.8284C157.46 95.8093 157.602 95.7573 157.765 95.7105C158.334 95.5162 159.185 95.2352 160.196 95.2352C161.02 95.2352 161.814 95.4243 162.58 95.7833C162.862 95.6758 163.208 95.5977 163.61 95.5717L163.83 95.5665C166.274 95.5665 167.491 97.3963 168.466 98.8583C168.629 99.1116 168.791 99.3492 168.961 99.585C169.813 100.792 170.93 102.558 170.975 102.634L171.478 103.421L170.862 104.141C170.388 104.691 169.673 105.338 168.449 105.338C168.196 105.338 167.919 105.31 167.621 105.253C167.361 105.204 167.122 105.126 166.894 105.029C166.861 105.272 166.809 105.56 166.764 105.808L165.964 109.995C170.755 108.815 173.797 105.192 173.797 100.003L173.788 84.3503Z" fill="#FFE52B"/>
<path fill-rule="evenodd" clip-rule="evenodd" d="M132.248 83.0889H164.557C162.944 81.4187 162.968 79.3045 163.378 77.9309C162.908 77.7054 162.52 77.4349 162.175 77.1366C160.911 78.0697 157.058 80.8811 156.05 81.5852L155.834 81.7309L143.154 79.4346H142.897C142.593 79.4346 142.148 79.4225 141.66 79.3635C141.523 79.9393 141.029 80.3295 140.465 80.3295C140.399 80.3295 140.328 80.3243 140.262 80.3105C139.932 80.2532 139.643 80.085 139.45 79.8075C139.253 79.5335 139.175 79.2091 139.229 78.8744L139.276 78.6004C137.97 77.6777 136.762 75.6155 137.297 73.4424L137.349 73.2134L137.534 73.0799C137.56 73.0608 137.778 72.9099 138.107 72.7243L137.186 72.5821C136.841 72.5214 136.609 72.1988 136.663 71.8589C136.722 71.5137 137.046 71.2675 137.385 71.3334L139.58 71.6802L139.781 63.938L143.046 60.4762L145.086 64.7757L142.934 72.2248L144.874 72.5301C145.216 72.5838 145.449 72.9047 145.397 73.2568C145.347 73.569 145.081 73.7788 144.776 73.7788C144.743 73.7788 144.708 73.7788 144.675 73.7754L143.098 73.5204C143.119 73.569 143.15 73.5967 143.169 73.6453C143.337 73.9939 143.709 74.2402 143.927 74.3494L153.593 74.5038C154.004 74.1049 155.016 73.1094 156.062 72.0566C153.682 71.1513 152.818 69.0995 152.674 67.7345C151.344 67.1674 150.427 66.3176 149.918 65.2128C149.298 63.8444 149.518 62.4725 149.684 61.8065C148.394 61.3365 147.04 60.4762 145.655 59.0991H131.094C131.718 60.7797 132.248 62.5991 132.248 64.408V83.0889Z" fill="#FFE52B"/>
<path fill-rule="evenodd" clip-rule="evenodd" d="M145.549 91.1418C145.312 91.1192 145.116 91.3036 145.097 91.5367C145.082 91.7785 145.258 91.9838 145.499 91.989C145.729 92.0082 145.932 91.8307 145.954 91.5924C145.961 91.3645 145.792 91.1505 145.549 91.1418Z" fill="#1A1919"/>
<path fill-rule="evenodd" clip-rule="evenodd" d="M164.805 123.965L162.907 118.736C165.165 118.047 169.047 116.566 170.787 115.581L169.627 119.386L173.557 120.696C171.18 121.891 168.297 123.006 164.805 123.965ZM153.024 128.665C148.45 128.665 143.231 127.611 141.692 127.063L144.03 120.73C145.967 121.298 149.999 121.899 152.925 121.88H153.11C156.036 121.899 160.063 121.298 162.011 120.73L164.343 127.063C162.805 127.611 157.585 128.665 153.024 128.665ZM132.478 120.696L136.415 119.386L135.25 115.581C136.987 116.566 140.875 118.047 143.128 118.736L141.228 123.965C137.748 123.006 134.854 121.891 132.478 120.696ZM173.733 119.534L171.341 118.614L172.002 116.136L172.729 113.437C172.729 113.437 168.489 115.742 162.513 117.472C160.818 117.957 159.535 118.181 159.535 118.181V120.019C159.535 120.019 156.339 120.574 153.11 120.574H152.925C149.693 120.574 146.502 120.019 146.502 120.019V118.181C146.502 118.181 145.215 117.957 143.522 117.472C137.548 115.742 133.311 113.437 133.311 113.437L134.028 116.136L134.703 118.614L132.302 119.534L129.639 120.529C132.69 122.007 136.919 124.154 140.789 125.215L139.876 127.715C139.876 127.715 144.784 129.954 152.961 129.975V129.98H153.072V129.975C161.258 129.954 166.162 127.715 166.162 127.715L165.245 125.215C169.116 124.154 173.352 122.007 176.389 120.529L173.733 119.534Z" fill="#1A1919"/>
<path fill-rule="evenodd" clip-rule="evenodd" d="M143.025 18.7471L144.112 18.8616L144.583 17.8678L145.953 14.9315L148.498 16.2496L149.483 16.7543L153.013 13.2474L155.764 15.9756L156.552 16.7543L157.538 16.2496L160.068 14.9315L161.458 17.8678L161.919 18.8616L163.006 18.7471L164.046 18.6222C163.57 19.6958 163.219 20.7174 162.968 21.562C160.222 20.0288 156.654 19.1564 153.013 19.1564C149.389 19.1564 145.825 20.0288 143.068 21.562C142.814 20.7174 142.466 19.6958 141.99 18.6222L143.025 18.7471ZM153.013 20.6879C157.885 20.6879 161.782 22.306 163.936 24.0283C163.936 24.0283 164.574 20.171 166.757 16.7682L162.834 17.2157L160.781 12.8468L156.839 14.8829L153.013 11.0968L149.199 14.8829L145.248 12.8468L143.198 17.2157L139.275 16.7682C141.46 20.171 142.097 24.0283 142.097 24.0283C144.265 22.306 148.15 20.6879 153.013 20.6879Z" fill="#1A1919"/>
<path fill-rule="evenodd" clip-rule="evenodd" d="M214.753 85.5698C214.753 85.5698 213.058 88.5269 209.166 88.5269H209.117C204.446 88.4991 202.563 85.6444 202.563 85.6444C202.563 85.6444 202.833 89.3577 201.152 94.37C199.124 100.411 201.169 104.726 201.169 104.726C201.169 104.726 200.077 105.022 198.821 105.022C198.342 105.022 197.84 104.974 197.367 104.851C193.465 103.923 192.492 100.364 192.492 100.364C192.492 100.364 192.85 112.381 178.863 112.381H178.754C178.754 112.381 179.987 110.703 180.35 105.871C181.015 96.9525 187.042 95.728 187.042 95.728C187.042 95.728 183.825 95.3239 182.431 94.0734C180.252 92.0928 180.406 89.8069 180.406 89.8069C185.326 89.7375 188.551 88.0586 191.008 85.2125C193.669 82.1288 194.107 78.8075 194.107 78.8075C194.107 78.8075 191.46 81.2113 186.344 81.2113C185.894 81.2113 185.413 81.1888 184.919 81.1419C182.497 80.9442 180.825 79.4041 180.825 79.4041C186.152 75.9805 189.888 70.0108 186.574 61.0215C183.919 53.8152 177.541 48.4335 171.117 44.3785C168.981 43.043 167.79 41.5549 167.79 40.2767C167.79 37.2658 172.064 37.1687 173.815 35.1482C175.839 32.7964 174.57 28.9842 172.818 26.6879C172.818 26.6879 173.408 26.5682 174.339 26.5682C176.187 26.5682 179.386 27.0331 182.016 29.7647C185.506 33.3826 184.059 37.3248 184.059 37.3248L184.994 37.5069C185.553 37.6249 186.11 37.6474 186.689 37.6769C186.813 37.6769 186.941 37.6838 187.064 37.6838C192.137 37.6838 194.405 32.3715 194.405 32.3715C194.405 32.3715 199.796 39.0158 191.856 44.2241C190.491 45.1139 189.888 45.9412 190.046 46.8205L190.17 47.398L190.735 47.4986C196.489 49.0613 199.401 53.0399 202.957 57.5597C208.359 64.4365 215.997 64.6585 216.939 64.6585H217.041C217.041 64.6585 215.3 70.1721 210.161 70.1721C210.075 70.1721 210.002 70.1721 209.917 70.1669C207.557 70.0819 206.346 69.1765 206.346 69.1765C206.346 69.1765 205.426 81.6917 214.753 85.5698ZM210.161 71.8596C216.46 71.8596 218.568 65.4407 218.655 65.1649L219.36 62.9016L216.998 62.9762H216.989C216.157 62.9762 209.206 62.7906 204.278 56.5174L203.813 55.9346C200.593 51.8346 197.54 47.9322 192.08 46.1528C192.237 46.0088 192.464 45.8354 192.774 45.6325C195.672 43.7246 197.357 41.4058 197.779 38.714C198.399 34.666 195.819 31.4366 195.707 31.3048L193.953 29.1317L192.857 31.7089C192.783 31.8702 190.942 35.9963 187.064 35.9963H186.775C186.51 35.9824 186.256 35.972 186.008 35.9512C186.143 34.111 185.809 31.2632 183.23 28.5888C180.129 25.3733 176.327 24.8911 174.339 24.8911C173.276 24.8911 172.57 25.0229 172.492 25.0299L169.845 25.5571L171.478 27.7147C172.76 29.3779 173.922 32.4478 172.544 34.0503C172.103 34.562 171.197 34.9747 170.33 35.391C168.547 36.2113 166.109 37.3612 166.109 40.2767C166.109 42.1637 167.572 44.1392 170.222 45.818C178.065 50.7593 182.904 55.9155 184.994 61.6077C188.228 70.3628 184.009 75.3561 179.912 77.9889L178.074 79.1717L179.684 80.6529C179.9 80.8436 181.865 82.5797 184.774 82.8295C185.324 82.8659 185.851 82.8954 186.344 82.8954C188.205 82.8954 189.793 82.6023 191.083 82.2086C190.729 82.8295 190.29 83.466 189.743 84.1042C187.402 86.822 184.521 88.0586 180.378 88.1263L178.839 88.1505L178.721 89.6976C178.706 90.0098 178.591 92.8784 181.299 95.317C181.715 95.6951 182.215 96.0055 182.741 96.2587C180.903 97.9168 179.036 100.805 178.675 105.749C178.368 109.877 177.386 111.405 177.374 111.421L175.674 114.022L178.749 114.064C183.829 114.064 187.719 112.661 190.414 109.877C192.007 108.231 192.919 106.372 193.456 104.726C194.341 105.48 195.482 106.143 196.971 106.495C197.535 106.627 198.151 106.7 198.821 106.7C200.257 106.7 201.458 106.394 201.591 106.361L203.555 105.839L202.687 104.004C202.623 103.857 200.986 100.171 202.748 94.9181C203.506 92.6443 203.894 90.6099 204.083 89.0247C205.319 89.6698 206.976 90.2023 209.116 90.2092C213.975 90.2092 216.119 86.5723 216.214 86.4196L217.171 84.7494L215.397 84.0175C209.606 81.6085 208.323 75.1393 208.066 71.6376C208.589 71.7399 209.188 71.8319 209.864 71.8509L210.161 71.8596Z" fill="#1A1919"/>
<path fill-rule="evenodd" clip-rule="evenodd" d="M203.082 44.3939C204.256 44.3939 205.624 44.7945 206.917 46.1335C210.977 50.2613 214.753 50.492 214.753 50.492C214.067 52.0147 212.078 53.3502 210.018 53.3502C209.542 53.3502 209.062 53.2774 208.589 53.1126C205.795 52.1691 204.796 47.9736 199.891 45.3582C199.891 45.3582 201.259 44.3939 203.082 44.3939ZM199.092 46.8498C201.441 48.1037 202.81 49.7843 204.01 51.2742C205.191 52.7293 206.308 54.1272 208.061 54.7099C208.683 54.9233 209.344 55.0256 210.018 55.0256C212.644 55.0256 215.286 53.4144 216.287 51.1822L217.294 48.9466L214.857 48.8009C214.742 48.7992 211.607 48.5113 208.122 44.9437C206.687 43.4782 204.95 42.7098 203.082 42.7098C200.799 42.7098 199.105 43.8528 198.918 43.9707L196.68 45.5507L199.092 46.8498Z" fill="#1A1919"/>
<path fill-rule="evenodd" clip-rule="evenodd" d="M200.194 69.1401V69.2269C198.781 57.7974 190.497 49.5435 181.278 44.5277C180.426 44.0698 179.637 43.6813 178.875 43.3102C181.68 43.7472 186.2 43.7993 189.69 40.7676C189.69 40.7676 184.351 44.7011 173.418 41.1283C176.443 43.0951 182.324 45.8718 187.696 50.369C201.117 62.1853 191.515 73.7102 191.515 73.7102C196.338 68.6667 196.539 63.2641 195.12 58.8519C197.659 63.0889 199.283 68.2279 199.031 74.5687C198.662 83.6499 193.677 91.5048 188.435 97.8145C185.916 100.877 185.353 104.641 185.353 104.641C185.353 104.641 186.37 101.32 189.285 97.9029C194.905 91.3123 199.709 84.4685 200.339 74.6034C200.919 76.395 203.314 81.3692 207.11 83.244C207.11 83.244 202.339 80.3632 200.194 69.1401Z" fill="#1A1919"/>
<path fill-rule="evenodd" clip-rule="evenodd" d="M127.172 112.381C113.183 112.381 113.54 100.364 113.54 100.364C113.54 100.364 112.563 103.923 108.666 104.851C108.199 104.974 107.7 105.022 107.214 105.022C105.958 105.022 104.871 104.726 104.871 104.726C104.871 104.726 106.905 100.411 104.878 94.37C103.202 89.3594 103.474 85.6444 103.474 85.6444C103.474 85.6444 101.594 88.4991 96.9177 88.5269H96.871C92.9825 88.5269 91.2841 85.5698 91.2841 85.5698C100.604 81.6917 99.6912 69.1765 99.6912 69.1765C99.6912 69.1765 98.4793 70.0819 96.1161 70.1669C96.0296 70.1721 95.9534 70.1721 95.872 70.1721C90.7301 70.1721 88.9885 64.6585 88.9885 64.6585H89.0923C90.0428 64.6585 97.6726 64.4348 103.071 57.5597C106.628 53.0382 109.544 49.063 115.29 47.4986L115.867 47.3963L115.99 46.8205C116.149 45.9412 115.548 45.1139 114.182 44.2241C106.244 39.0158 111.635 32.3732 111.635 32.3732C111.635 32.3732 113.889 37.6838 118.976 37.6838C119.099 37.6838 119.215 37.6786 119.346 37.6786C119.918 37.6474 120.482 37.6249 121.04 37.5069L121.975 37.3248C121.975 37.3248 120.522 33.3826 124.023 29.7647C126.652 27.0331 129.848 26.5682 131.696 26.5682C132.632 26.5682 133.214 26.6879 133.214 26.6879C131.465 28.9842 130.198 32.7964 132.22 35.1482C133.971 37.1687 138.24 37.2658 138.24 40.2767C138.24 41.5549 137.051 43.043 134.918 44.3785C128.489 48.4335 122.113 53.8152 119.459 61.0215C116.149 70.0125 119.885 75.9805 125.219 79.4041C125.219 79.4041 123.541 80.9442 121.116 81.1419C120.622 81.1888 120.145 81.2113 119.686 81.2113C114.575 81.2113 111.93 78.8075 111.93 78.8075C111.93 78.8075 112.369 82.1288 115.015 85.2142C117.487 88.0586 120.707 89.7375 125.629 89.8069C125.629 89.8069 125.785 92.0928 123.609 94.0717C122.212 95.3239 118.993 95.728 118.993 95.728C118.993 95.728 125.025 96.9525 125.688 105.869C126.048 110.703 127.272 112.381 127.272 112.381H127.172ZM128.659 111.421C128.654 111.405 127.677 109.877 127.364 105.749C126.999 100.803 125.132 97.9168 123.289 96.2587C123.822 96.0055 124.315 95.6951 124.731 95.317C127.438 92.8784 127.324 90.0098 127.305 89.6976L127.201 88.1505L125.65 88.1263C121.519 88.0586 118.633 86.822 116.292 84.1043C115.749 83.466 115.309 82.8295 114.952 82.2086C116.241 82.6023 117.818 82.8954 119.686 82.8954C120.186 82.8954 120.707 82.8659 121.258 82.8295C124.166 82.5797 126.135 80.8454 126.353 80.6529L127.963 79.1717L126.126 77.9889C122.014 75.3561 117.813 70.3628 121.04 61.6077C123.131 55.9155 127.963 50.7593 135.818 45.818C138.468 44.1392 139.919 42.1637 139.919 40.2767C139.919 37.3612 137.489 36.2113 135.705 35.391C134.836 34.9747 133.931 34.562 133.491 34.0503C132.109 32.4478 133.273 29.3779 134.556 27.7147L136.2 25.5571L133.538 25.0299C133.46 25.0212 132.762 24.8911 131.696 24.8911C129.708 24.8911 125.913 25.3733 122.814 28.5888C120.231 31.2649 119.892 34.111 120.025 35.9512C119.776 35.972 119.525 35.9824 119.26 35.9963H118.976C115.088 35.9963 113.251 31.8702 113.18 31.7089L112.087 29.1317L110.316 31.3048C110.217 31.4366 107.631 34.666 108.261 38.714C108.678 41.4058 110.366 43.7246 113.263 45.6325C113.578 45.8354 113.798 46.0088 113.955 46.1528C108.488 47.9322 105.439 51.8346 102.219 55.9346L101.755 56.5174C96.8346 62.7906 89.868 62.9762 89.0352 62.9762L86.6616 62.9016L87.3836 65.1649C87.4684 65.4407 89.5684 71.8596 95.872 71.8596L96.175 71.8509C96.8433 71.8319 97.4406 71.7399 97.9721 71.6376C97.7124 75.1376 96.426 81.6085 90.6332 84.0175L88.8638 84.7494L89.8212 86.4196C89.913 86.5723 92.0632 90.2092 96.9316 90.2092C99.0593 90.2023 100.714 89.6699 101.952 89.0264C102.139 90.6099 102.529 92.6443 103.289 94.9181C105.051 100.171 103.41 103.857 103.348 104.004L102.477 105.839L104.444 106.361C104.573 106.394 105.784 106.7 107.214 106.7C107.882 106.7 108.5 106.627 109.059 106.495C110.55 106.143 111.703 105.48 112.579 104.726C113.112 106.372 114.028 108.231 115.617 109.877C118.32 112.661 122.207 114.064 127.284 114.064L130.361 114.022L128.659 111.421Z" fill="#1A1919"/>
<path fill-rule="evenodd" clip-rule="evenodd" d="M99.1137 46.1318C100.412 44.7946 101.778 44.3923 102.959 44.3923C104.772 44.3923 106.144 45.3583 106.144 45.3583C101.245 47.9737 100.234 52.1692 97.4361 53.1144C96.9738 53.2792 96.4943 53.3486 96.0164 53.3486C93.9579 53.3486 91.9652 52.0148 91.2848 50.4921C91.2848 50.4921 95.059 50.2614 99.1137 46.1318ZM96.0164 55.0257C96.6916 55.0257 97.3512 54.9251 97.9745 54.7118C99.7318 54.1273 100.848 52.7311 102.027 51.2743C103.234 49.7862 104.588 48.1038 106.939 46.8499L109.358 45.5508L107.112 43.9691C106.925 43.8512 105.241 42.7117 102.959 42.7117C101.086 42.7117 99.3474 43.4783 97.9139 44.9438C94.4237 48.5131 91.297 48.7993 91.1844 48.8028L88.7502 48.9467L89.7492 51.1841C90.7551 53.4145 93.3918 55.0257 96.0164 55.0257Z" fill="#1A1919"/>
<path fill-rule="evenodd" clip-rule="evenodd" d="M107.008 74.5687C106.746 68.2279 108.372 63.0889 110.915 58.8519C109.497 63.2641 109.689 68.6667 114.52 73.7119C114.52 73.7119 104.915 62.1853 118.344 50.369C123.713 45.8718 129.589 43.0951 132.613 41.1283C121.684 44.7011 116.346 40.7676 116.346 40.7676C119.833 43.7993 124.355 43.7472 127.158 43.3102C126.4 43.6813 125.603 44.0681 124.757 44.5277C115.534 49.5435 107.255 57.7974 105.836 69.2269V69.1401C103.694 80.3632 98.926 83.244 98.926 83.244C102.719 81.3692 105.108 76.395 105.69 74.6034C106.324 84.4685 111.128 91.3123 116.746 97.9029C119.662 101.32 120.688 104.641 120.688 104.641C120.688 104.641 120.119 100.877 117.587 97.8145C112.354 91.5066 107.375 83.6499 107.008 74.5687Z" fill="#1A1919"/>
<path fill-rule="evenodd" clip-rule="evenodd" d="M149.856 51.4443V53.7112C150.639 52.759 152.143 52.9532 152.143 52.9532V56.2208C152.143 56.2208 152.093 57.8286 151.522 58.524H154.785C154.221 57.8286 154.166 56.2208 154.166 56.2208V52.9532C154.166 52.9532 155.675 52.759 156.451 53.7112V51.4443H149.856Z" fill="#1A1919"/>
<path fill-rule="evenodd" clip-rule="evenodd" d="M148.456 38.0025C149.5 38.8315 150.103 38.9702 150.122 38.9824L150.53 39.1714V37.0382L146.696 35.4235C146.696 35.4235 146.728 36.6601 148.456 38.0025Z" fill="#1A1919"/>
<path fill-rule="evenodd" clip-rule="evenodd" d="M157.573 38.0025C159.306 36.6601 159.339 35.4235 159.339 35.4235L155.504 37.0382V39.1714L155.909 38.9824C155.93 38.9702 156.531 38.8315 157.573 38.0025Z" fill="#1A1919"/>
<path fill-rule="evenodd" clip-rule="evenodd" d="M153.014 32.3189L143.777 28.6628C144.563 26.8001 148.185 25.2149 153.014 25.2097C157.849 25.2149 161.471 26.8001 162.254 28.6628L153.014 32.3189ZM159.901 43.7709L153.692 47.0489V33.7775L162.117 30.9123L159.901 43.7709ZM163.746 47.2934L166.585 48.9445H166.625L167.338 49.3625C165.735 49.8065 164.511 50.6095 163.483 51.664C163.445 51.697 163.412 51.7352 163.37 51.775C163.135 52.0265 162.901 52.2971 162.676 52.5781C162.636 52.6301 162.591 52.6856 162.544 52.748C162.326 53.0307 162.117 53.3221 161.919 53.6221C161.887 53.6742 161.848 53.7262 161.814 53.7765C161.58 54.1286 161.353 54.5032 161.13 54.8917C159.108 58.3813 155.882 60.466 153.014 60.4712C150.148 60.466 146.921 58.3813 144.903 54.8917C144.683 54.5136 144.461 54.1477 144.227 53.7921C144.181 53.7262 144.139 53.6568 144.096 53.5996C143.899 53.31 143.698 53.0255 143.497 52.7584C143.445 52.6856 143.398 52.6301 143.346 52.5676C143.126 52.2971 142.901 52.03 142.673 51.7837C142.624 51.7438 142.591 51.697 142.55 51.6571C141.516 50.6009 140.296 49.8065 138.691 49.3625L139.411 48.9445H139.444L142.288 47.2934L145.206 45.6198L153 49.8707L153.014 49.8534L153.036 49.8707L160.829 45.6198L163.746 47.2934ZM174.946 59.0993C174.31 60.7799 173.784 62.5992 173.784 64.4082L173.789 76.0874C171.353 75.6781 171.066 73.0506 171.055 72.9361L171.01 72.4019L170.486 72.3551C169.428 72.2528 168.725 71.8053 168.133 71.2295C166.938 70.0328 166.937 68.0937 166.938 68.0764C166.921 68.1752 165.624 69.9963 167.131 71.9857C167.764 72.8234 168.684 73.3402 169.871 73.5431C170.15 75 171.234 77.0587 173.789 77.3726V83.0891H166.601C163.287 81.2403 164.691 77.99 164.755 77.8496L165.036 77.2339L164.402 76.9928C160.811 75.6591 161.802 72.0724 161.848 71.918L161.994 71.3942L161.504 71.1636C158.542 69.7865 158.942 66.0801 158.981 65.924C158.069 66.6663 157.742 68.1752 158.369 69.6564C158.029 70.0466 157.574 70.5149 157.074 71.0335C154.004 70.2496 153.909 67.4243 153.909 67.2942L153.902 66.8589L153.498 66.7028C152.3 66.2588 151.478 65.591 151.071 64.6961C150.618 63.704 150.777 62.6652 150.902 62.1639C151.253 62.2454 151.603 62.2992 151.937 62.3287C152.283 62.3634 152.636 62.3859 152.993 62.3859H153.041C153.396 62.3859 153.748 62.3634 154.094 62.3287C156.007 62.1379 158.147 61.3158 160.379 59.0993H174.946ZM165.964 109.996L166.767 105.806C166.809 105.56 166.86 105.272 166.895 105.031C167.124 105.126 167.361 105.202 167.621 105.251C167.922 105.308 168.197 105.338 168.448 105.338C169.674 105.338 170.389 104.692 170.863 104.141L171.478 103.423L170.976 102.634C170.931 102.556 169.816 100.792 168.961 99.5847C168.791 99.3471 168.632 99.1112 168.469 98.8563C167.494 97.3959 166.275 95.5662 163.829 95.5662L163.611 95.5714C163.209 95.5974 162.863 95.6772 162.582 95.7829C161.814 95.4239 161.021 95.2366 160.197 95.2366C159.184 95.2366 158.336 95.5159 157.768 95.7084C157.605 95.7552 157.46 95.8072 157.345 95.8298L152.775 95.3788C152.718 95.3667 152.532 95.2574 152.304 94.9886V94.9661L153.292 94.5689C153.014 91.2684 149.851 89.2392 148.088 88.5506C148.012 88.2211 147.853 87.8916 147.576 87.6227L146.594 86.6896L145.73 87.7268L145.306 88.254L138.905 85.6213L143.069 90.8573L141.426 93.3514C140.825 93.9896 141.489 94.6331 141.489 94.6331L143.187 95.8038L144.946 95.1464C145.007 95.1464 145.06 95.1603 145.121 95.1672C145.034 95.4343 144.923 96.4854 144.851 96.7785L141.797 96.1784L138.589 97.9925C136.939 99.2066 136.714 101.213 137.327 102.589L137.681 103.367L138.187 104.469L139.311 104.004C139.326 103.999 139.342 103.993 139.352 103.985C138.949 105.277 139.113 106.505 139.832 107.31L140.514 108.168L141.421 109.316L142.417 108.244C142.707 107.953 143.66 106.886 143.95 105.974L144.167 105.277L143.682 104.741L143.601 104.644L144.148 103.74L148.133 104.682L149.032 104.888L149.508 104.099L149.768 103.671C149.818 103.579 149.828 103.565 150.013 103.565C150.155 103.565 150.296 103.579 150.448 103.614C151.952 103.898 153.339 104.039 154.57 104.039C155.765 104.039 156.48 103.993 157.33 103.711C157.33 103.711 159.47 106.146 159.544 106.239L158.232 110.291L158.175 110.536C155.692 110.737 154.484 111.283 153.022 112.743C150.902 110.636 149.399 110.414 143.698 110.414C136.873 110.414 132.247 106.406 132.247 100.003V84.35H173.789L173.798 100.003C173.798 105.192 170.756 108.815 165.964 109.996ZM140.377 101.146L140.593 101.687C140.45 102.16 138.829 102.83 138.829 102.83L138.48 102.061C138.107 101.243 138.187 99.8622 139.316 99.0175L141.944 97.415L144.731 98.0064C144.679 98.8927 145.207 99.5552 145.207 99.5552L142.288 98.9933L140.542 100.202C140.244 100.41 140.223 100.792 140.377 101.146ZM165.524 105.57L164.629 110.251C164.054 110.333 163.452 110.374 162.828 110.398L163.774 105.9C164.054 104.562 160.47 104.146 158.699 101.517C157.835 102.49 156.208 102.781 154.57 102.781C153.078 102.781 151.587 102.544 150.68 102.363C150.45 102.327 150.23 102.301 150.013 102.301C149.491 102.301 149.013 102.464 148.682 103.017L148.422 103.458L143.538 102.306L142.323 104.321C142.153 104.649 142.14 104.923 142.417 105.228L142.745 105.589C142.519 106.302 141.502 107.381 141.502 107.381L140.777 106.472C140.202 105.828 140.296 104.649 140.895 103.558L142.832 100.282L146.97 100.88L146.327 99.413C145.464 97.4705 146.781 95.0025 146.921 93.5803C146.873 94.0104 146.478 94.1075 146.021 94.1075C145.604 94.1075 145.138 94.0278 144.828 94.0278C144.705 94.0278 144.601 94.0399 144.546 94.0815L143.424 94.7631L142.541 93.9792C142.434 93.83 142.401 93.4762 142.659 93.2126L144.705 90.9128L142.288 88.0823L145.673 89.7872L146.708 88.5315C146.992 88.8108 146.868 89.5392 146.868 89.5392C147.924 89.5652 150.888 91.2059 151.045 95.0389C151.054 95.1568 151.054 95.2869 151.054 95.4135C151.054 95.4135 151.082 95.4621 151.134 95.5401C151.341 95.8298 151.921 96.5686 152.654 96.6363L157.333 97.1011H157.352C157.865 97.1011 158.886 96.4975 160.197 96.4975C160.912 96.4975 161.705 96.6796 162.551 97.2138C162.551 97.2138 162.979 96.8756 163.668 96.8409C163.72 96.834 163.781 96.834 163.829 96.834C165.927 96.834 166.8 98.7348 167.927 100.313C168.774 101.517 169.906 103.3 169.906 103.3C169.489 103.796 169.101 104.073 168.448 104.073C168.27 104.073 168.067 104.059 167.846 104.014C165.593 103.598 165.269 98.962 163.985 98.5961C163.916 98.577 163.846 98.5701 163.781 98.5701C163.367 98.5701 163.187 98.9378 163.187 98.9378C163.774 100.52 163.429 101.158 164.063 102.375C164.534 103.279 165.373 104.021 165.718 104.373C165.718 104.373 165.624 105.058 165.524 105.57ZM161.217 110.43C160.586 110.43 160.006 110.438 159.485 110.459L160.856 106.182C161.069 105.589 159.987 104.828 159.539 104.16C160.214 104.585 161.964 105.516 162.806 105.887C162.721 106.026 161.217 110.43 161.217 110.43ZM140.834 71.8885L141.03 64.4533L142.695 62.6877L143.741 64.8817L141.679 72.0186L140.834 71.8885ZM142.032 74.1918C142.304 74.7641 142.794 75.1457 143.138 75.3625C143.126 75.9001 143.076 76.7309 142.936 77.4663C142.901 77.631 142.86 77.7819 142.815 77.9328C142.79 78.0282 142.763 78.1062 142.744 78.1687C142.233 78.1687 141.236 78.1062 140.417 77.8079C139.511 77.4732 138.161 75.8099 138.473 73.975C138.864 73.7356 139.771 73.224 140.621 73.224C141.274 73.224 141.721 73.5327 142.032 74.1918ZM161.324 76.1898C160.043 77.135 156.743 79.5492 155.545 80.3869L144.023 78.3126C144.051 78.2103 144.079 78.1062 144.103 78.0057C144.253 77.4056 144.409 76.5887 144.416 75.6261L154.101 75.7822L154.286 75.5931C154.433 75.4457 157.501 72.4765 159.065 70.7681C159.437 71.2364 159.901 71.6821 160.512 72.0724C160.304 73.2101 160.392 74.8266 161.324 76.1898ZM145.656 59.0993C147.041 60.4781 148.396 61.3349 149.684 61.8066C149.518 62.4726 149.298 63.8463 149.918 65.2147C150.425 66.3177 151.345 67.1676 152.674 67.7347C152.82 69.0997 153.682 71.1514 156.062 72.055C155.019 73.1095 154.004 74.1033 153.594 74.504L143.93 74.3513C143.712 74.2421 143.336 73.9941 143.17 73.6454C143.151 73.5952 143.119 73.5691 143.099 73.5206L144.676 73.7755C144.709 73.7807 144.743 73.7807 144.776 73.7807C145.081 73.7807 145.346 73.5691 145.396 73.2552C145.448 72.9066 145.216 72.584 144.875 72.5302L142.936 72.2233L145.086 64.7759L143.048 60.4781L139.782 63.9382L139.581 71.6821L137.385 71.3318C137.046 71.2659 136.722 71.5139 136.662 71.859C136.61 72.199 136.842 72.5233 137.186 72.584L138.107 72.7245C137.778 72.9118 137.56 73.061 137.534 73.0818L137.349 73.2119L137.297 73.4425C136.764 75.6157 137.971 77.6779 139.276 78.6005L139.229 78.8746C139.176 79.2093 139.252 79.5354 139.453 79.8077C139.643 80.0869 139.932 80.2534 140.261 80.3124C140.329 80.3245 140.401 80.3297 140.464 80.3297C141.03 80.3297 141.523 79.9377 141.662 79.3654C142.146 79.4226 142.591 79.4348 142.896 79.4348H143.156L155.834 81.7311L156.05 81.5871C157.06 80.8795 160.912 78.0681 162.174 77.1367C162.522 77.4368 162.91 77.7073 163.379 77.9328C162.969 79.3047 162.944 81.4189 164.56 83.0891H132.247V64.4082C132.247 62.5992 131.719 60.7799 131.094 59.0993H145.656ZM143.909 30.9123L152.34 33.7775V47.0489L146.132 43.7709L143.909 30.9123ZM164.48 29.3115C164.48 26.0734 159.039 23.1597 153.033 23.1597H153C146.994 23.1597 141.553 26.0734 141.553 29.3115L141.672 30.1076L144.07 43.8975L141.662 45.2989L135.429 48.9445H135.452C135.452 48.9445 134.049 49.666 133.4 50.11C131.026 51.7612 130.523 54.1702 131.901 55.1657C132.24 53.2007 133.79 51.1489 136.693 51.1489C138.783 51.1489 140.377 52.2294 141.662 53.8493C141.994 54.2587 142.307 54.6957 142.6 55.1657C142.96 55.7589 143.324 56.2792 143.682 56.7804H127.628C128.809 59.1565 129.931 61.6731 129.931 64.4082V100.003C129.931 108.619 136.544 112.731 143.698 112.731C149.227 112.731 149.972 112.478 153.022 115.524C156.059 112.478 156.805 112.731 162.338 112.731C169.497 112.731 176.102 108.619 176.102 100.003V64.4082C176.102 61.6731 177.222 59.1565 178.408 56.7804H162.349C162.707 56.2792 163.069 55.7589 163.429 55.1657C163.727 54.6957 164.038 54.2587 164.364 53.8493C165.661 52.2225 167.25 51.1489 169.341 51.1489C172.241 51.1489 173.789 53.2007 174.134 55.1657C175.512 54.1702 175.013 51.7612 172.626 50.11C171.987 49.666 170.583 48.9445 170.583 48.9445H170.605L164.364 45.2989L161.964 43.8975L164.364 30.1076L164.48 29.3115Z" fill="#1A1919"/>
<path d="M17.0342 199.12H29.0737V171.2H45.6079V161.04H0.5V171.2H17.0342V199.12Z" fill="#333333"/>
<path d="M62.4657 199.12V161.04H50.4262V199.12H62.4657Z" fill="#333333"/>
<path d="M82.0311 161.04H71.2758V199.12H82.3521V178.08L102.98 199.12H113.253V161.04H102.177V181.92L82.0311 161.04Z" fill="#333333"/>
<path d="M133.705 184.72H136.916L150.802 199.12H166.292L146.949 179.28L165.57 161.04H150.962L136.916 175.36H133.705V161.04H122.067V199.12H133.705V184.72Z" fill="#333333"/>
<path d="M190.24 160C174.588 160 165.197 168.8 165.197 180.16C165.197 191.52 174.588 200.32 190.24 200.32C205.811 200.32 215.201 191.52 215.201 180.16C215.201 168.8 205.811 160 190.24 160ZM190.24 191.04C182.454 191.04 177.478 186.4 177.478 180.16C177.478 173.92 182.454 169.36 190.24 169.36C197.945 169.36 203.001 173.92 203.001 180.16C203.001 186.4 197.945 191.04 190.24 191.04Z" fill="#333333"/>
<path d="M259.017 170.72V161.04H220.731V199.12H232.37V185.6H258.054V177.6H232.37V170.72H259.017Z" fill="#333333"/>
<path d="M302.049 170.72V161.04H263.763V199.12H275.401V185.6H301.086V177.6H275.401V170.72H302.049Z" fill="#333333"/>
</svg>
