<svg width="850" height="336" viewBox="0 0 850 336" fill="none" xmlns="http://www.w3.org/2000/svg">
<rect width="849" height="46" fill="#F0F3FD"/>
<path d="M22.3891 25.4931L26.2821 17.0951H28.4411V28.9951H26.0951V22.1271L22.8991 28.9951H21.6921L18.5301 22.1951V28.9951H16.1841V17.0951H18.4961L22.3891 25.4931ZM34.3177 29.2161C33.5357 29.2161 32.8047 29.0121 32.1247 28.6041C31.4447 28.1848 30.9007 27.6238 30.4927 26.9211C30.0847 26.2185 29.8807 25.4648 29.8807 24.6601C29.8807 23.8555 30.0847 23.1018 30.4927 22.3991C30.9007 21.6965 31.4447 21.1411 32.1247 20.7331C32.8047 20.3138 33.5357 20.1041 34.3177 20.1041C35.0997 20.1041 35.8307 20.3138 36.5107 20.7331C37.1907 21.1411 37.7347 21.6965 38.1427 22.3991C38.5507 23.1018 38.7547 23.8555 38.7547 24.6601C38.7547 25.4648 38.5507 26.2185 38.1427 26.9211C37.7347 27.6238 37.1907 28.1848 36.5107 28.6041C35.8307 29.0121 35.0997 29.2161 34.3177 29.2161ZM34.3177 27.0741C34.9297 27.0741 35.434 26.8475 35.8307 26.3941C36.2387 25.9408 36.4427 25.3628 36.4427 24.6601C36.4427 23.9575 36.2387 23.3795 35.8307 22.9261C35.434 22.4728 34.9297 22.2461 34.3177 22.2461C33.7057 22.2461 33.1957 22.4728 32.7877 22.9261C32.391 23.3795 32.1927 23.9575 32.1927 24.6601C32.1927 25.3628 32.391 25.9408 32.7877 26.3941C33.1957 26.8475 33.7057 27.0741 34.3177 27.0741Z" fill="#242C40"/>
<path d="M184.383 28.9951H181.952V19.4411H178.501V17.0951H187.834V19.4411H184.383V28.9951ZM191.182 29.2161C190.491 29.2161 189.879 29.0631 189.346 28.7571C188.825 28.4398 188.417 27.9978 188.122 27.4311C187.828 26.8531 187.68 26.1901 187.68 25.4421V20.3251H189.992V25.2381C189.992 25.7481 190.157 26.1845 190.485 26.5471C190.814 26.8985 191.222 27.0741 191.709 27.0741C192.208 27.0741 192.616 26.8985 192.933 26.5471C193.262 26.1958 193.426 25.7595 193.426 25.2381V20.3251H195.738V28.9951H194.004L193.63 28.1451H193.545C193.364 28.3718 193.064 28.6098 192.644 28.8591C192.225 29.0971 191.738 29.2161 191.182 29.2161Z" fill="#242C40"/>
<path d="M360.913 24.7621L363.174 17.0951H365.605L361.865 28.9951H359.893L357.785 21.7191L355.677 28.9951H353.671L349.948 17.0951H352.447L354.708 24.7621L356.901 17.0951H358.72L360.913 24.7621ZM373.585 24.5241C373.585 24.9435 373.551 25.2665 373.483 25.4931H367.244C367.369 26.0145 367.613 26.4225 367.975 26.7171C368.349 27.0118 368.797 27.1591 369.318 27.1591C369.953 27.1591 370.469 26.9438 370.865 26.5131H373.296C373.126 26.9325 372.854 27.3518 372.48 27.7711C372.118 28.1905 371.664 28.5361 371.12 28.8081C370.576 29.0801 369.987 29.2161 369.352 29.2161C368.548 29.2161 367.805 29.0121 367.125 28.6041C366.445 28.1961 365.907 27.6465 365.51 26.9551C365.114 26.2525 364.915 25.4875 364.915 24.6601C364.915 23.8555 365.114 23.1018 365.51 22.3991C365.918 21.6965 366.462 21.1411 367.142 20.7331C367.822 20.3138 368.548 20.1041 369.318 20.1041C370.1 20.1041 370.814 20.2968 371.46 20.6821C372.118 21.0675 372.633 21.6001 373.007 22.2801C373.393 22.9488 373.585 23.6968 373.585 24.5241ZM369.318 22.1611C368.82 22.1611 368.383 22.3141 368.009 22.6201C367.635 22.9148 367.38 23.3228 367.244 23.8441H371.358C371.222 23.3341 370.967 22.9261 370.593 22.6201C370.231 22.3141 369.806 22.1611 369.318 22.1611Z" fill="#242C40"/>
<path d="M527.915 28.9951H525.484V19.4411H522.033V17.0951H531.366V19.4411H527.915V28.9951ZM532.229 28.9951V17.0951H534.541V21.1751H534.626C534.705 21.0618 534.853 20.9201 535.068 20.7501C535.295 20.5801 535.572 20.4328 535.901 20.3081C536.23 20.1721 536.587 20.1041 536.972 20.1041C537.607 20.1041 538.173 20.2628 538.672 20.5801C539.182 20.8861 539.579 21.3281 539.862 21.9061C540.145 22.4728 540.287 23.1301 540.287 23.8781V28.9951H537.975V24.0821C537.975 23.5721 537.811 23.1415 537.482 22.7901C537.153 22.4275 536.745 22.2461 536.258 22.2461C535.759 22.2461 535.346 22.4218 535.017 22.7731C534.7 23.1245 534.541 23.5608 534.541 24.0821V28.9951H532.229Z" fill="#242C40"/>
<path d="M703.625 17.0951V19.4411H698.015V22.2971H702.843V24.5411H698.015V28.9951H695.584V17.0951H703.625ZM704.311 28.9951V20.3251H706.045L706.419 21.1751H706.504C706.674 20.9485 706.929 20.7161 707.269 20.4781C707.621 20.2288 708.04 20.1041 708.527 20.1041C708.833 20.1041 709.094 20.1325 709.309 20.1891V22.5011C709.094 22.4445 708.805 22.4161 708.442 22.4161C707.887 22.4161 707.445 22.5861 707.116 22.9261C706.788 23.2548 706.623 23.7138 706.623 24.3031V28.9951H704.311Z" fill="#242C40"/>
<rect width="154" height="46" transform="translate(179 232)" fill="#F2C9FF"/>
<path d="M197.027 261.221C196.12 261.221 195.327 261.051 194.647 260.711C193.978 260.36 193.451 259.884 193.066 259.283C192.692 258.682 192.488 258.002 192.454 257.243H194.885C194.953 257.776 195.168 258.212 195.531 258.552C195.893 258.881 196.392 259.045 197.027 259.045C197.627 259.045 198.081 258.926 198.387 258.688C198.704 258.45 198.863 258.155 198.863 257.804C198.863 257.509 198.761 257.26 198.557 257.056C198.353 256.852 198.098 256.688 197.792 256.563C197.486 256.427 197.061 256.268 196.517 256.087C195.723 255.826 195.072 255.571 194.562 255.322C194.063 255.061 193.632 254.693 193.27 254.217C192.907 253.73 192.726 253.101 192.726 252.33C192.726 251.673 192.89 251.083 193.219 250.562C193.547 250.041 194.023 249.633 194.647 249.338C195.281 249.032 196.024 248.879 196.874 248.879C197.69 248.879 198.415 249.049 199.05 249.389C199.684 249.729 200.183 250.194 200.546 250.783C200.908 251.372 201.107 252.03 201.141 252.755H198.71C198.676 252.256 198.494 251.848 198.166 251.531C197.837 251.214 197.406 251.055 196.874 251.055C196.33 251.055 195.905 251.18 195.599 251.429C195.304 251.667 195.157 251.979 195.157 252.364C195.157 252.659 195.259 252.908 195.463 253.112C195.667 253.316 195.916 253.48 196.211 253.605C196.517 253.73 196.947 253.883 197.503 254.064C198.285 254.313 198.931 254.563 199.441 254.812C199.951 255.05 200.387 255.407 200.75 255.883C201.112 256.348 201.294 256.96 201.294 257.719C201.294 258.388 201.124 258.988 200.784 259.521C200.455 260.042 199.968 260.456 199.322 260.762C198.676 261.068 197.911 261.221 197.027 261.221ZM210.818 256.529C210.818 256.948 210.784 257.271 210.716 257.498H204.477C204.602 258.019 204.846 258.427 205.208 258.722C205.582 259.017 206.03 259.164 206.551 259.164C207.186 259.164 207.702 258.949 208.098 258.518H210.529C210.359 258.937 210.087 259.357 209.713 259.776C209.351 260.195 208.897 260.541 208.353 260.813C207.809 261.085 207.22 261.221 206.585 261.221C205.781 261.221 205.038 261.017 204.358 260.609C203.678 260.201 203.14 259.651 202.743 258.96C202.347 258.257 202.148 257.492 202.148 256.665C202.148 255.86 202.347 255.107 202.743 254.404C203.151 253.701 203.695 253.146 204.375 252.738C205.055 252.319 205.781 252.109 206.551 252.109C207.333 252.109 208.047 252.302 208.693 252.687C209.351 253.072 209.866 253.605 210.24 254.285C210.626 254.954 210.818 255.702 210.818 256.529ZM206.551 254.166C206.053 254.166 205.616 254.319 205.242 254.625C204.868 254.92 204.613 255.328 204.477 255.849H208.591C208.455 255.339 208.2 254.931 207.826 254.625C207.464 254.319 207.039 254.166 206.551 254.166ZM212.069 261V252.33H213.803L214.177 253.18H214.262C214.443 252.953 214.744 252.721 215.163 252.483C215.582 252.234 216.07 252.109 216.625 252.109C217.316 252.109 217.923 252.268 218.444 252.585C218.977 252.891 219.39 253.333 219.685 253.911C219.98 254.478 220.127 255.135 220.127 255.883V261H217.815V256.087C217.815 255.577 217.651 255.146 217.322 254.795C216.993 254.432 216.585 254.251 216.098 254.251C215.599 254.251 215.186 254.427 214.857 254.778C214.54 255.129 214.381 255.566 214.381 256.087V261H212.069ZM225.299 261.221C224.597 261.221 223.934 261.023 223.31 260.626C222.698 260.229 222.205 259.685 221.831 258.994C221.469 258.291 221.287 257.515 221.287 256.665C221.287 255.815 221.469 255.044 221.831 254.353C222.205 253.65 222.698 253.101 223.31 252.704C223.934 252.307 224.597 252.109 225.299 252.109C225.673 252.109 226.019 252.171 226.336 252.296C226.665 252.409 226.931 252.54 227.135 252.687C227.351 252.834 227.492 252.965 227.56 253.078H227.645V249.1H229.957V261H228.223L227.849 260.15H227.764C227.572 260.388 227.26 260.626 226.829 260.864C226.399 261.102 225.889 261.221 225.299 261.221ZM225.622 259.079C225.985 259.079 226.319 258.977 226.625 258.773C226.931 258.569 227.175 258.286 227.356 257.923C227.549 257.549 227.645 257.13 227.645 256.665C227.645 256.2 227.549 255.787 227.356 255.424C227.175 255.05 226.931 254.761 226.625 254.557C226.319 254.353 225.985 254.251 225.622 254.251C225.26 254.251 224.925 254.353 224.619 254.557C224.313 254.761 224.064 255.05 223.871 255.424C223.69 255.787 223.599 256.2 223.599 256.665C223.599 257.13 223.69 257.549 223.871 257.923C224.064 258.286 224.313 258.569 224.619 258.773C224.925 258.977 225.26 259.079 225.622 259.079ZM238.051 261H235.739V252.33H238.051V261ZM236.895 251.225C236.533 251.225 236.227 251.1 235.977 250.851C235.728 250.602 235.603 250.296 235.603 249.933C235.603 249.57 235.728 249.264 235.977 249.015C236.227 248.766 236.533 248.641 236.895 248.641C237.258 248.641 237.564 248.766 237.813 249.015C238.063 249.264 238.187 249.57 238.187 249.933C238.187 250.296 238.063 250.602 237.813 250.851C237.564 251.1 237.258 251.225 236.895 251.225ZM239.756 261V252.33H241.49L241.864 253.18H241.949C242.13 252.953 242.43 252.721 242.85 252.483C243.269 252.234 243.756 252.109 244.312 252.109C245.003 252.109 245.609 252.268 246.131 252.585C246.663 252.891 247.077 253.333 247.372 253.911C247.666 254.478 247.814 255.135 247.814 255.883V261H245.502V256.087C245.502 255.577 245.337 255.146 245.009 254.795C244.68 254.432 244.272 254.251 243.785 254.251C243.286 254.251 242.872 254.427 242.544 254.778C242.226 255.129 242.068 255.566 242.068 256.087V261H239.756ZM252.552 258.263L254.558 252.33H256.904L253.64 261H251.362L248.098 252.33H250.546L252.552 258.263ZM259.912 261H257.6V252.33H259.912V261ZM258.756 251.225C258.393 251.225 258.087 251.1 257.838 250.851C257.589 250.602 257.464 250.296 257.464 249.933C257.464 249.57 257.589 249.264 257.838 249.015C258.087 248.766 258.393 248.641 258.756 248.641C259.119 248.641 259.425 248.766 259.674 249.015C259.923 249.264 260.048 249.57 260.048 249.933C260.048 250.296 259.923 250.602 259.674 250.851C259.425 251.1 259.119 251.225 258.756 251.225ZM265.135 261.221C264.274 261.221 263.571 260.938 263.027 260.371C262.483 259.804 262.211 259.034 262.211 258.059V254.387H260.868V252.5H261.463C261.792 252.5 262.047 252.415 262.228 252.245C262.41 252.064 262.5 251.809 262.5 251.48V250.154H264.523V252.33H266.308V254.387H264.523V257.821C264.523 258.229 264.625 258.535 264.829 258.739C265.045 258.943 265.339 259.045 265.713 259.045C265.951 259.045 266.15 259.005 266.308 258.926V261.034C265.957 261.159 265.566 261.221 265.135 261.221ZM270.842 252.109C271.964 252.109 272.848 252.449 273.494 253.129C274.14 253.798 274.463 254.693 274.463 255.815V261H272.729L272.355 260.15H272.27C271.59 260.864 270.769 261.221 269.805 261.221C269.261 261.221 268.763 261.108 268.309 260.881C267.867 260.654 267.516 260.343 267.255 259.946C267.006 259.549 266.881 259.113 266.881 258.637C266.881 258.048 267.057 257.538 267.408 257.107C267.76 256.665 268.247 256.331 268.87 256.104C269.505 255.866 270.23 255.747 271.046 255.747H272.151V255.577C272.151 255.135 272.032 254.789 271.794 254.54C271.556 254.291 271.233 254.166 270.825 254.166C270.474 254.166 270.191 254.262 269.975 254.455C269.771 254.636 269.647 254.835 269.601 255.05H267.289C267.335 254.54 267.493 254.064 267.765 253.622C268.049 253.169 268.451 252.806 268.972 252.534C269.494 252.251 270.117 252.109 270.842 252.109ZM270.349 259.334C270.882 259.334 271.313 259.175 271.641 258.858C271.981 258.541 272.151 258.167 272.151 257.736V257.294H270.978C270.355 257.294 269.902 257.396 269.618 257.6C269.335 257.793 269.193 258.065 269.193 258.416C269.193 258.688 269.29 258.909 269.482 259.079C269.686 259.249 269.975 259.334 270.349 259.334ZM279.444 261.221C278.582 261.221 277.88 260.938 277.336 260.371C276.792 259.804 276.52 259.034 276.52 258.059V254.387H275.177V252.5H275.772C276.1 252.5 276.355 252.415 276.537 252.245C276.718 252.064 276.809 251.809 276.809 251.48V250.154H278.832V252.33H280.617V254.387H278.832V257.821C278.832 258.229 278.934 258.535 279.138 258.739C279.353 258.943 279.648 259.045 280.022 259.045C280.26 259.045 280.458 259.005 280.617 258.926V261.034C280.265 261.159 279.874 261.221 279.444 261.221ZM284.229 261H281.917V252.33H284.229V261ZM283.073 251.225C282.71 251.225 282.404 251.1 282.155 250.851C281.905 250.602 281.781 250.296 281.781 249.933C281.781 249.57 281.905 249.264 282.155 249.015C282.404 248.766 282.71 248.641 283.073 248.641C283.435 248.641 283.741 248.766 283.991 249.015C284.24 249.264 284.365 249.57 284.365 249.933C284.365 250.296 284.24 250.602 283.991 250.851C283.741 251.1 283.435 251.225 283.073 251.225ZM289.911 261.221C289.129 261.221 288.398 261.017 287.718 260.609C287.038 260.19 286.494 259.629 286.086 258.926C285.678 258.223 285.474 257.47 285.474 256.665C285.474 255.86 285.678 255.107 286.086 254.404C286.494 253.701 287.038 253.146 287.718 252.738C288.398 252.319 289.129 252.109 289.911 252.109C290.693 252.109 291.424 252.319 292.104 252.738C292.784 253.146 293.328 253.701 293.736 254.404C294.144 255.107 294.348 255.86 294.348 256.665C294.348 257.47 294.144 258.223 293.736 258.926C293.328 259.629 292.784 260.19 292.104 260.609C291.424 261.017 290.693 261.221 289.911 261.221ZM289.911 259.079C290.523 259.079 291.027 258.852 291.424 258.399C291.832 257.946 292.036 257.368 292.036 256.665C292.036 255.962 291.832 255.384 291.424 254.931C291.027 254.478 290.523 254.251 289.911 254.251C289.299 254.251 288.789 254.478 288.381 254.931C287.984 255.384 287.786 255.962 287.786 256.665C287.786 257.368 287.984 257.946 288.381 258.399C288.789 258.852 289.299 259.079 289.911 259.079ZM295.594 261V252.33H297.328L297.702 253.18H297.787C297.968 252.953 298.269 252.721 298.688 252.483C299.107 252.234 299.595 252.109 300.15 252.109C300.841 252.109 301.448 252.268 301.969 252.585C302.502 252.891 302.915 253.333 303.21 253.911C303.505 254.478 303.652 255.135 303.652 255.883V261H301.34V256.087C301.34 255.577 301.176 255.146 300.847 254.795C300.518 254.432 300.11 254.251 299.623 254.251C299.124 254.251 298.711 254.427 298.382 254.778C298.065 255.129 297.906 255.566 297.906 256.087V261H295.594ZM308.314 261.221C307.612 261.221 306.988 261.096 306.444 260.847C305.912 260.586 305.498 260.235 305.203 259.793C304.909 259.34 304.75 258.835 304.727 258.28H306.988C307.011 258.609 307.141 258.875 307.379 259.079C307.629 259.272 307.94 259.368 308.314 259.368C308.677 259.368 308.955 259.294 309.147 259.147C309.351 258.988 309.453 258.796 309.453 258.569C309.453 258.286 309.317 258.065 309.045 257.906C308.773 257.747 308.348 257.577 307.77 257.396C307.181 257.215 306.694 257.033 306.308 256.852C305.934 256.671 305.611 256.41 305.339 256.07C305.067 255.719 304.931 255.271 304.931 254.727C304.931 254.228 305.062 253.781 305.322 253.384C305.583 252.987 305.963 252.676 306.461 252.449C306.96 252.222 307.555 252.109 308.246 252.109C308.904 252.109 309.482 252.234 309.98 252.483C310.49 252.732 310.887 253.078 311.17 253.52C311.454 253.951 311.618 254.432 311.663 254.965H309.385C309.306 254.296 308.926 253.962 308.246 253.962C307.918 253.962 307.668 254.03 307.498 254.166C307.328 254.291 307.243 254.455 307.243 254.659C307.243 254.908 307.368 255.107 307.617 255.254C307.878 255.39 308.292 255.543 308.858 255.713C309.459 255.894 309.952 256.076 310.337 256.257C310.723 256.427 311.057 256.693 311.34 257.056C311.624 257.407 311.765 257.866 311.765 258.433C311.765 259.26 311.459 259.935 310.847 260.456C310.247 260.966 309.402 261.221 308.314 261.221Z" fill="#242C40" fill-opacity="0.87"/>
<rect width="166" height="46" transform="translate(0 58)" fill="#3BFFEB" fill-opacity="0.35"/>
<path d="M21.231 75.1V77.446H15.621V80.302H20.449V82.546H15.621V87H13.19V75.1H21.231ZM25.8949 87.221C25.1129 87.221 24.3819 87.017 23.7019 86.609C23.0219 86.1897 22.4779 85.6287 22.0699 84.926C21.6619 84.2233 21.4579 83.4697 21.4579 82.665C21.4579 81.8603 21.6619 81.1067 22.0699 80.404C22.4779 79.7013 23.0219 79.146 23.7019 78.738C24.3819 78.3187 25.1129 78.109 25.8949 78.109C26.6769 78.109 27.4079 78.3187 28.0879 78.738C28.7679 79.146 29.3119 79.7013 29.7199 80.404C30.1279 81.1067 30.3319 81.8603 30.3319 82.665C30.3319 83.4697 30.1279 84.2233 29.7199 84.926C29.3119 85.6287 28.7679 86.1897 28.0879 86.609C27.4079 87.017 26.6769 87.221 25.8949 87.221ZM25.8949 85.079C26.5069 85.079 27.0112 84.8523 27.4079 84.399C27.8159 83.9457 28.0199 83.3677 28.0199 82.665C28.0199 81.9623 27.8159 81.3843 27.4079 80.931C27.0112 80.4777 26.5069 80.251 25.8949 80.251C25.2829 80.251 24.7729 80.4777 24.3649 80.931C23.9682 81.3843 23.7699 81.9623 23.7699 82.665C23.7699 83.3677 23.9682 83.9457 24.3649 84.399C24.7729 84.8523 25.2829 85.079 25.8949 85.079ZM31.5778 87V78.33H33.3118L33.6858 79.18H33.7708C33.9408 78.9533 34.1958 78.721 34.5358 78.483C34.8871 78.2337 35.3065 78.109 35.7938 78.109C36.0998 78.109 36.3605 78.1373 36.5758 78.194V80.506C36.3605 80.4493 36.0715 80.421 35.7088 80.421C35.1535 80.421 34.7115 80.591 34.3828 80.931C34.0541 81.2597 33.8898 81.7187 33.8898 82.308V87H31.5778ZM46.6838 78.109C47.6471 78.109 48.4065 78.432 48.9618 79.078C49.5171 79.724 49.7948 80.6307 49.7948 81.798V87H47.4828V81.883C47.4828 81.3843 47.3525 80.9877 47.0918 80.693C46.8425 80.3983 46.5251 80.251 46.1398 80.251C45.7545 80.251 45.4315 80.3983 45.1708 80.693C44.9215 80.9877 44.7968 81.3843 44.7968 81.883V87H42.4848V81.883C42.4848 81.3843 42.3545 80.9877 42.0938 80.693C41.8445 80.3983 41.5271 80.251 41.1418 80.251C40.7565 80.251 40.4335 80.3983 40.1728 80.693C39.9235 80.9877 39.7988 81.3843 39.7988 81.883V87H37.4868V78.33H39.2208L39.5948 79.18H39.6798C39.8385 78.9533 40.0991 78.721 40.4618 78.483C40.8358 78.2337 41.2721 78.109 41.7708 78.109C42.3601 78.109 42.8531 78.2337 43.2498 78.483C43.6465 78.7323 43.9525 79.0157 44.1678 79.333C44.4058 79.0157 44.7515 78.7323 45.2048 78.483C45.6581 78.2337 46.1511 78.109 46.6838 78.109ZM58.7975 78.109C59.9195 78.109 60.8035 78.449 61.4495 79.129C62.0955 79.7977 62.4185 80.693 62.4185 81.815V87H60.6845L60.3105 86.15H60.2255C59.5455 86.864 58.7239 87.221 57.7605 87.221C57.2165 87.221 56.7179 87.1077 56.2645 86.881C55.8225 86.6543 55.4712 86.3427 55.2105 85.946C54.9612 85.5493 54.8365 85.113 54.8365 84.637C54.8365 84.0477 55.0122 83.5377 55.3635 83.107C55.7149 82.665 56.2022 82.3307 56.8255 82.104C57.4602 81.866 58.1855 81.747 59.0015 81.747H60.1065V81.577C60.1065 81.135 59.9875 80.7893 59.7495 80.54C59.5115 80.2907 59.1885 80.166 58.7805 80.166C58.4292 80.166 58.1459 80.2623 57.9305 80.455C57.7265 80.6363 57.6019 80.8347 57.5565 81.05H55.2445C55.2899 80.54 55.4485 80.064 55.7205 79.622C56.0039 79.1687 56.4062 78.806 56.9275 78.534C57.4489 78.2507 58.0722 78.109 58.7975 78.109ZM58.3045 85.334C58.8372 85.334 59.2679 85.1753 59.5965 84.858C59.9365 84.5407 60.1065 84.1667 60.1065 83.736V83.294H58.9335C58.3102 83.294 57.8569 83.396 57.5735 83.6C57.2902 83.7927 57.1485 84.0647 57.1485 84.416C57.1485 84.688 57.2449 84.909 57.4375 85.079C57.6415 85.249 57.9305 85.334 58.3045 85.334ZM68.114 87V75.1H70.426V79.18H70.511C70.5903 79.0667 70.7376 78.925 70.953 78.755C71.1796 78.585 71.4573 78.4377 71.786 78.313C72.1146 78.177 72.4716 78.109 72.857 78.109C73.4916 78.109 74.0583 78.2677 74.557 78.585C75.067 78.891 75.4636 79.333 75.747 79.911C76.0303 80.4777 76.172 81.135 76.172 81.883V87H73.86V82.087C73.86 81.577 73.6956 81.1463 73.367 80.795C73.0383 80.4323 72.6303 80.251 72.143 80.251C71.6443 80.251 71.2306 80.4267 70.902 80.778C70.5846 81.1293 70.426 81.5657 70.426 82.087V87H68.114ZM82.8805 78.33H85.2605L81.7925 87.255C81.3845 88.309 80.9482 89.0513 80.4835 89.482C80.0188 89.924 79.4692 90.145 78.8345 90.145C78.4605 90.145 78.0978 90.0827 77.7465 89.958V87.85C77.9052 87.9293 78.1148 87.969 78.3755 87.969C78.7382 87.969 79.0272 87.8897 79.2425 87.731C79.4692 87.5837 79.6505 87.3173 79.7865 86.932L79.8375 86.762L76.4545 78.33H78.9535L80.9765 83.974L82.8805 78.33ZM85.9563 90.06V78.33H87.6903L88.0643 79.18H88.1493C88.342 78.942 88.6537 78.704 89.0843 78.466C89.515 78.228 90.025 78.109 90.6143 78.109C91.317 78.109 91.9743 78.3073 92.5863 78.704C93.2097 79.1007 93.7027 79.6503 94.0653 80.353C94.4393 81.0443 94.6263 81.815 94.6263 82.665C94.6263 83.515 94.4393 84.2913 94.0653 84.994C93.7027 85.6853 93.2097 86.2293 92.5863 86.626C91.9743 87.0227 91.317 87.221 90.6143 87.221C90.2403 87.221 89.889 87.1587 89.5603 87.034C89.243 86.9207 88.9767 86.7903 88.7613 86.643C88.5573 86.4957 88.4213 86.3653 88.3533 86.252H88.2683V90.06H85.9563ZM90.2913 85.079C90.654 85.079 90.9883 84.977 91.2943 84.773C91.6003 84.569 91.844 84.2857 92.0253 83.923C92.218 83.549 92.3143 83.1297 92.3143 82.665C92.3143 82.2003 92.218 81.7867 92.0253 81.424C91.844 81.05 91.6003 80.761 91.2943 80.557C90.9883 80.353 90.654 80.251 90.2913 80.251C89.9287 80.251 89.5943 80.353 89.2883 80.557C88.9823 80.761 88.733 81.05 88.5403 81.424C88.359 81.7867 88.2683 82.2003 88.2683 82.665C88.2683 83.1297 88.359 83.549 88.5403 83.923C88.733 84.2857 88.9823 84.569 89.2883 84.773C89.5943 84.977 89.9287 85.079 90.2913 85.079ZM99.8443 87.221C99.0623 87.221 98.3313 87.017 97.6513 86.609C96.9713 86.1897 96.4273 85.6287 96.0193 84.926C95.6113 84.2233 95.4073 83.4697 95.4073 82.665C95.4073 81.8603 95.6113 81.1067 96.0193 80.404C96.4273 79.7013 96.9713 79.146 97.6513 78.738C98.3313 78.3187 99.0623 78.109 99.8443 78.109C100.626 78.109 101.357 78.3187 102.037 78.738C102.717 79.146 103.261 79.7013 103.669 80.404C104.077 81.1067 104.281 81.8603 104.281 82.665C104.281 83.4697 104.077 84.2233 103.669 84.926C103.261 85.6287 102.717 86.1897 102.037 86.609C101.357 87.017 100.626 87.221 99.8443 87.221ZM99.8443 85.079C100.456 85.079 100.961 84.8523 101.357 84.399C101.765 83.9457 101.969 83.3677 101.969 82.665C101.969 81.9623 101.765 81.3843 101.357 80.931C100.961 80.4777 100.456 80.251 99.8443 80.251C99.2323 80.251 98.7223 80.4777 98.3143 80.931C97.9176 81.3843 97.7193 81.9623 97.7193 82.665C97.7193 83.3677 97.9176 83.9457 98.3143 84.399C98.7223 84.8523 99.2323 85.079 99.8443 85.079ZM108.88 87.221C108.019 87.221 107.316 86.9377 106.772 86.371C106.228 85.8043 105.956 85.0337 105.956 84.059V80.387H104.613V78.5H105.208C105.537 78.5 105.792 78.415 105.973 78.245C106.155 78.0637 106.245 77.8087 106.245 77.48V76.154H108.268V78.33H110.053V80.387H108.268V83.821C108.268 84.229 108.37 84.535 108.574 84.739C108.79 84.943 109.084 85.045 109.458 85.045C109.696 85.045 109.895 85.0053 110.053 84.926V87.034C109.702 87.1587 109.311 87.221 108.88 87.221ZM111.438 87V75.1H113.75V79.18H113.835C113.915 79.0667 114.062 78.925 114.277 78.755C114.504 78.585 114.782 78.4377 115.11 78.313C115.439 78.177 115.796 78.109 116.181 78.109C116.816 78.109 117.383 78.2677 117.881 78.585C118.391 78.891 118.788 79.333 119.071 79.911C119.355 80.4777 119.496 81.135 119.496 81.883V87H117.184V82.087C117.184 81.577 117.02 81.1463 116.691 80.795C116.363 80.4323 115.955 80.251 115.467 80.251C114.969 80.251 114.555 80.4267 114.226 80.778C113.909 81.1293 113.75 81.5657 113.75 82.087V87H111.438ZM129.325 82.529C129.325 82.9483 129.291 83.2713 129.223 83.498H122.984C123.108 84.0193 123.352 84.4273 123.715 84.722C124.089 85.0167 124.536 85.164 125.058 85.164C125.692 85.164 126.208 84.9487 126.605 84.518H129.036C128.866 84.9373 128.594 85.3567 128.22 85.776C127.857 86.1953 127.404 86.541 126.86 86.813C126.316 87.085 125.726 87.221 125.092 87.221C124.287 87.221 123.545 87.017 122.865 86.609C122.185 86.201 121.646 85.6513 121.25 84.96C120.853 84.2573 120.655 83.4923 120.655 82.665C120.655 81.8603 120.853 81.1067 121.25 80.404C121.658 79.7013 122.202 79.146 122.882 78.738C123.562 78.3187 124.287 78.109 125.058 78.109C125.84 78.109 126.554 78.3017 127.2 78.687C127.857 79.0723 128.373 79.605 128.747 80.285C129.132 80.9537 129.325 81.7017 129.325 82.529ZM125.058 80.166C124.559 80.166 124.123 80.319 123.749 80.625C123.375 80.9197 123.12 81.3277 122.984 81.849H127.098C126.962 81.339 126.707 80.931 126.333 80.625C125.97 80.319 125.545 80.166 125.058 80.166ZM133.618 87.221C132.916 87.221 132.292 87.0963 131.748 86.847C131.216 86.5863 130.802 86.235 130.507 85.793C130.213 85.3397 130.054 84.8353 130.031 84.28H132.292C132.315 84.6087 132.445 84.875 132.683 85.079C132.933 85.2717 133.244 85.368 133.618 85.368C133.981 85.368 134.259 85.2943 134.451 85.147C134.655 84.9883 134.757 84.7957 134.757 84.569C134.757 84.2857 134.621 84.0647 134.349 83.906C134.077 83.7473 133.652 83.5773 133.074 83.396C132.485 83.2147 131.998 83.0333 131.612 82.852C131.238 82.6707 130.915 82.41 130.643 82.07C130.371 81.7187 130.235 81.271 130.235 80.727C130.235 80.2283 130.366 79.7807 130.626 79.384C130.887 78.9873 131.267 78.6757 131.765 78.449C132.264 78.2223 132.859 78.109 133.55 78.109C134.208 78.109 134.786 78.2337 135.284 78.483C135.794 78.7323 136.191 79.078 136.474 79.52C136.758 79.9507 136.922 80.4323 136.967 80.965H134.689C134.61 80.2963 134.23 79.962 133.55 79.962C133.222 79.962 132.972 80.03 132.802 80.166C132.632 80.2907 132.547 80.455 132.547 80.659C132.547 80.9083 132.672 81.1067 132.921 81.254C133.182 81.39 133.596 81.543 134.162 81.713C134.763 81.8943 135.256 82.0757 135.641 82.257C136.027 82.427 136.361 82.6933 136.644 83.056C136.928 83.4073 137.069 83.8663 137.069 84.433C137.069 85.2603 136.763 85.9347 136.151 86.456C135.551 86.966 134.706 87.221 133.618 87.221ZM140.606 87H138.294V78.33H140.606V87ZM139.45 77.225C139.087 77.225 138.781 77.1003 138.532 76.851C138.283 76.6017 138.158 76.2957 138.158 75.933C138.158 75.5703 138.283 75.2643 138.532 75.015C138.781 74.7657 139.087 74.641 139.45 74.641C139.813 74.641 140.119 74.7657 140.368 75.015C140.617 75.2643 140.742 75.5703 140.742 75.933C140.742 76.2957 140.617 76.6017 140.368 76.851C140.119 77.1003 139.813 77.225 139.45 77.225ZM145.353 87.221C144.651 87.221 144.027 87.0963 143.483 86.847C142.951 86.5863 142.537 86.235 142.242 85.793C141.948 85.3397 141.789 84.8353 141.766 84.28H144.027C144.05 84.6087 144.18 84.875 144.418 85.079C144.668 85.2717 144.979 85.368 145.353 85.368C145.716 85.368 145.994 85.2943 146.186 85.147C146.39 84.9883 146.492 84.7957 146.492 84.569C146.492 84.2857 146.356 84.0647 146.084 83.906C145.812 83.7473 145.387 83.5773 144.809 83.396C144.22 83.2147 143.733 83.0333 143.347 82.852C142.973 82.6707 142.65 82.41 142.378 82.07C142.106 81.7187 141.97 81.271 141.97 80.727C141.97 80.2283 142.101 79.7807 142.361 79.384C142.622 78.9873 143.002 78.6757 143.5 78.449C143.999 78.2223 144.594 78.109 145.285 78.109C145.943 78.109 146.521 78.2337 147.019 78.483C147.529 78.7323 147.926 79.078 148.209 79.52C148.493 79.9507 148.657 80.4323 148.702 80.965H146.424C146.345 80.2963 145.965 79.962 145.285 79.962C144.957 79.962 144.707 80.03 144.537 80.166C144.367 80.2907 144.282 80.455 144.282 80.659C144.282 80.9083 144.407 81.1067 144.656 81.254C144.917 81.39 145.331 81.543 145.897 81.713C146.498 81.8943 146.991 82.0757 147.376 82.257C147.762 82.427 148.096 82.6933 148.379 83.056C148.663 83.4073 148.804 83.8663 148.804 84.433C148.804 85.2603 148.498 85.9347 147.886 86.456C147.286 86.966 146.441 87.221 145.353 87.221Z" fill="#242C40" fill-opacity="0.87"/>
<rect width="165" height="46" transform="translate(684 290)" fill="#3BEBFF" fill-opacity="0.35"/>
<path d="M705.859 319H703.309L702.442 316.552H697.954L697.087 319H694.622L699.059 307.1H701.439L705.859 319ZM701.643 314.308L700.198 310.126L698.753 314.308H701.643ZM706.467 319V310.33H708.201L708.575 311.18H708.66C708.842 310.953 709.142 310.721 709.561 310.483C709.981 310.234 710.468 310.109 711.023 310.109C711.715 310.109 712.321 310.268 712.842 310.585C713.375 310.891 713.789 311.333 714.083 311.911C714.378 312.478 714.525 313.135 714.525 313.883V319H712.213V314.087C712.213 313.577 712.049 313.146 711.72 312.795C711.392 312.432 710.984 312.251 710.496 312.251C709.998 312.251 709.584 312.427 709.255 312.778C708.938 313.129 708.779 313.566 708.779 314.087V319H706.467ZM719.545 310.109C720.667 310.109 721.551 310.449 722.197 311.129C722.843 311.798 723.166 312.693 723.166 313.815V319H721.432L721.058 318.15H720.973C720.293 318.864 719.471 319.221 718.508 319.221C717.964 319.221 717.465 319.108 717.012 318.881C716.57 318.654 716.219 318.343 715.958 317.946C715.709 317.549 715.584 317.113 715.584 316.637C715.584 316.048 715.76 315.538 716.111 315.107C716.462 314.665 716.95 314.331 717.573 314.104C718.208 313.866 718.933 313.747 719.749 313.747H720.854V313.577C720.854 313.135 720.735 312.789 720.497 312.54C720.259 312.291 719.936 312.166 719.528 312.166C719.177 312.166 718.893 312.262 718.678 312.455C718.474 312.636 718.349 312.835 718.304 313.05H715.992C716.037 312.54 716.196 312.064 716.468 311.622C716.751 311.169 717.154 310.806 717.675 310.534C718.196 310.251 718.82 310.109 719.545 310.109ZM719.052 317.334C719.585 317.334 720.015 317.175 720.344 316.858C720.684 316.541 720.854 316.167 720.854 315.736V315.294H719.681C719.058 315.294 718.604 315.396 718.321 315.6C718.038 315.793 717.896 316.065 717.896 316.416C717.896 316.688 717.992 316.909 718.185 317.079C718.389 317.249 718.678 317.334 719.052 317.334ZM727.19 319H724.878V307.1H727.19V319ZM734.399 310.33H736.779L733.311 319.255C732.903 320.309 732.466 321.051 732.002 321.482C731.537 321.924 730.987 322.145 730.353 322.145C729.979 322.145 729.616 322.083 729.265 321.958V319.85C729.423 319.929 729.633 319.969 729.894 319.969C730.256 319.969 730.545 319.89 730.761 319.731C730.987 319.584 731.169 319.317 731.305 318.932L731.356 318.762L727.973 310.33H730.472L732.495 315.974L734.399 310.33ZM740.185 319.221C739.483 319.221 738.859 319.096 738.315 318.847C737.783 318.586 737.369 318.235 737.074 317.793C736.78 317.34 736.621 316.835 736.598 316.28H738.859C738.882 316.609 739.012 316.875 739.25 317.079C739.5 317.272 739.811 317.368 740.185 317.368C740.548 317.368 740.826 317.294 741.018 317.147C741.222 316.988 741.324 316.796 741.324 316.569C741.324 316.286 741.188 316.065 740.916 315.906C740.644 315.747 740.219 315.577 739.641 315.396C739.052 315.215 738.565 315.033 738.179 314.852C737.805 314.671 737.482 314.41 737.21 314.07C736.938 313.719 736.802 313.271 736.802 312.727C736.802 312.228 736.933 311.781 737.193 311.384C737.454 310.987 737.834 310.676 738.332 310.449C738.831 310.222 739.426 310.109 740.117 310.109C740.775 310.109 741.353 310.234 741.851 310.483C742.361 310.732 742.758 311.078 743.041 311.52C743.325 311.951 743.489 312.432 743.534 312.965H741.256C741.177 312.296 740.797 311.962 740.117 311.962C739.789 311.962 739.539 312.03 739.369 312.166C739.199 312.291 739.114 312.455 739.114 312.659C739.114 312.908 739.239 313.107 739.488 313.254C739.749 313.39 740.163 313.543 740.729 313.713C741.33 313.894 741.823 314.076 742.208 314.257C742.594 314.427 742.928 314.693 743.211 315.056C743.495 315.407 743.636 315.866 743.636 316.433C743.636 317.26 743.33 317.935 742.718 318.456C742.118 318.966 741.273 319.221 740.185 319.221ZM753.072 314.529C753.072 314.948 753.038 315.271 752.97 315.498H746.731C746.856 316.019 747.099 316.427 747.462 316.722C747.836 317.017 748.284 317.164 748.805 317.164C749.44 317.164 749.955 316.949 750.352 316.518H752.783C752.613 316.937 752.341 317.357 751.967 317.776C751.604 318.195 751.151 318.541 750.607 318.813C750.063 319.085 749.474 319.221 748.839 319.221C748.034 319.221 747.292 319.017 746.612 318.609C745.932 318.201 745.394 317.651 744.997 316.96C744.6 316.257 744.402 315.492 744.402 314.665C744.402 313.86 744.6 313.107 744.997 312.404C745.405 311.701 745.949 311.146 746.629 310.738C747.309 310.319 748.034 310.109 748.805 310.109C749.587 310.109 750.301 310.302 750.947 310.687C751.604 311.072 752.12 311.605 752.494 312.285C752.879 312.954 753.072 313.702 753.072 314.529ZM748.805 312.166C748.306 312.166 747.87 312.319 747.496 312.625C747.122 312.92 746.867 313.328 746.731 313.849H750.845C750.709 313.339 750.454 312.931 750.08 312.625C749.717 312.319 749.292 312.166 748.805 312.166ZM761.161 319.221C760.3 319.221 759.597 318.938 759.053 318.371C758.509 317.804 758.237 317.034 758.237 316.059V312.387H756.894V310.5H757.489C757.818 310.5 758.073 310.415 758.254 310.245C758.435 310.064 758.526 309.809 758.526 309.48V308.154H760.549V310.33H762.334V312.387H760.549V315.821C760.549 316.229 760.651 316.535 760.855 316.739C761.07 316.943 761.365 317.045 761.739 317.045C761.977 317.045 762.175 317.005 762.334 316.926V319.034C761.983 319.159 761.592 319.221 761.161 319.221ZM763.719 319V307.1H766.031V311.18H766.116C766.195 311.067 766.343 310.925 766.558 310.755C766.785 310.585 767.062 310.438 767.391 310.313C767.72 310.177 768.077 310.109 768.462 310.109C769.097 310.109 769.663 310.268 770.162 310.585C770.672 310.891 771.069 311.333 771.352 311.911C771.635 312.478 771.777 313.135 771.777 313.883V319H769.465V314.087C769.465 313.577 769.301 313.146 768.972 312.795C768.643 312.432 768.235 312.251 767.748 312.251C767.249 312.251 766.836 312.427 766.507 312.778C766.19 313.129 766.031 313.566 766.031 314.087V319H763.719ZM781.605 314.529C781.605 314.948 781.571 315.271 781.503 315.498H775.264C775.389 316.019 775.633 316.427 775.995 316.722C776.369 317.017 776.817 317.164 777.338 317.164C777.973 317.164 778.489 316.949 778.885 316.518H781.316C781.146 316.937 780.874 317.357 780.5 317.776C780.138 318.195 779.684 318.541 779.14 318.813C778.596 319.085 778.007 319.221 777.372 319.221C776.568 319.221 775.825 319.017 775.145 318.609C774.465 318.201 773.927 317.651 773.53 316.96C773.134 316.257 772.935 315.492 772.935 314.665C772.935 313.86 773.134 313.107 773.53 312.404C773.938 311.701 774.482 311.146 775.162 310.738C775.842 310.319 776.568 310.109 777.338 310.109C778.12 310.109 778.834 310.302 779.48 310.687C780.138 311.072 780.653 311.605 781.027 312.285C781.413 312.954 781.605 313.702 781.605 314.529ZM777.338 312.166C776.84 312.166 776.403 312.319 776.029 312.625C775.655 312.92 775.4 313.328 775.264 313.849H779.378C779.242 313.339 778.987 312.931 778.613 312.625C778.251 312.319 777.826 312.166 777.338 312.166ZM786.507 319V310.33H788.241L788.615 311.18H788.7C788.87 310.953 789.125 310.721 789.465 310.483C789.817 310.234 790.236 310.109 790.723 310.109C791.029 310.109 791.29 310.137 791.505 310.194V312.506C791.29 312.449 791.001 312.421 790.638 312.421C790.083 312.421 789.641 312.591 789.312 312.931C788.984 313.26 788.819 313.719 788.819 314.308V319H786.507ZM800.295 314.529C800.295 314.948 800.261 315.271 800.193 315.498H793.954C794.079 316.019 794.323 316.427 794.685 316.722C795.059 317.017 795.507 317.164 796.028 317.164C796.663 317.164 797.179 316.949 797.575 316.518H800.006C799.836 316.937 799.564 317.357 799.19 317.776C798.828 318.195 798.374 318.541 797.83 318.813C797.286 319.085 796.697 319.221 796.062 319.221C795.258 319.221 794.515 319.017 793.835 318.609C793.155 318.201 792.617 317.651 792.22 316.96C791.824 316.257 791.625 315.492 791.625 314.665C791.625 313.86 791.824 313.107 792.22 312.404C792.628 311.701 793.172 311.146 793.852 310.738C794.532 310.319 795.258 310.109 796.028 310.109C796.81 310.109 797.524 310.302 798.17 310.687C798.828 311.072 799.343 311.605 799.717 312.285C800.103 312.954 800.295 313.702 800.295 314.529ZM796.028 312.166C795.53 312.166 795.093 312.319 794.719 312.625C794.345 312.92 794.09 313.328 793.954 313.849H798.068C797.932 313.339 797.677 312.931 797.303 312.625C796.941 312.319 796.516 312.166 796.028 312.166ZM804.589 319.221C803.886 319.221 803.263 319.096 802.719 318.847C802.186 318.586 801.773 318.235 801.478 317.793C801.183 317.34 801.025 316.835 801.002 316.28H803.263C803.286 316.609 803.416 316.875 803.654 317.079C803.903 317.272 804.215 317.368 804.589 317.368C804.952 317.368 805.229 317.294 805.422 317.147C805.626 316.988 805.728 316.796 805.728 316.569C805.728 316.286 805.592 316.065 805.32 315.906C805.048 315.747 804.623 315.577 804.045 315.396C803.456 315.215 802.968 315.033 802.583 314.852C802.209 314.671 801.886 314.41 801.614 314.07C801.342 313.719 801.206 313.271 801.206 312.727C801.206 312.228 801.336 311.781 801.597 311.384C801.858 310.987 802.237 310.676 802.736 310.449C803.235 310.222 803.83 310.109 804.521 310.109C805.178 310.109 805.756 310.234 806.255 310.483C806.765 310.732 807.162 311.078 807.445 311.52C807.728 311.951 807.893 312.432 807.938 312.965H805.66C805.581 312.296 805.201 311.962 804.521 311.962C804.192 311.962 803.943 312.03 803.773 312.166C803.603 312.291 803.518 312.455 803.518 312.659C803.518 312.908 803.643 313.107 803.892 313.254C804.153 313.39 804.566 313.543 805.133 313.713C805.734 313.894 806.227 314.076 806.612 314.257C806.997 314.427 807.332 314.693 807.615 315.056C807.898 315.407 808.04 315.866 808.04 316.433C808.04 317.26 807.734 317.935 807.122 318.456C806.521 318.966 805.677 319.221 804.589 319.221ZM812.516 319.221C811.824 319.221 811.212 319.068 810.68 318.762C810.158 318.445 809.75 318.003 809.456 317.436C809.161 316.858 809.014 316.195 809.014 315.447V310.33H811.326V315.243C811.326 315.753 811.49 316.189 811.819 316.552C812.147 316.903 812.555 317.079 813.043 317.079C813.541 317.079 813.949 316.903 814.267 316.552C814.595 316.201 814.76 315.764 814.76 315.243V310.33H817.072V319H815.338L814.964 318.15H814.879C814.697 318.377 814.397 318.615 813.978 318.864C813.558 319.102 813.071 319.221 812.516 319.221ZM821.173 319H818.861V307.1H821.173V319ZM826.477 319.221C825.616 319.221 824.913 318.938 824.369 318.371C823.825 317.804 823.553 317.034 823.553 316.059V312.387H822.21V310.5H822.805C823.134 310.5 823.389 310.415 823.57 310.245C823.752 310.064 823.842 309.809 823.842 309.48V308.154H825.865V310.33H827.65V312.387H825.865V315.821C825.865 316.229 825.967 316.535 826.171 316.739C826.387 316.943 826.681 317.045 827.055 317.045C827.293 317.045 827.492 317.005 827.65 316.926V319.034C827.299 319.159 826.908 319.221 826.477 319.221ZM831.827 319.221C831.125 319.221 830.501 319.096 829.957 318.847C829.425 318.586 829.011 318.235 828.716 317.793C828.422 317.34 828.263 316.835 828.24 316.28H830.501C830.524 316.609 830.654 316.875 830.892 317.079C831.142 317.272 831.453 317.368 831.827 317.368C832.19 317.368 832.468 317.294 832.66 317.147C832.864 316.988 832.966 316.796 832.966 316.569C832.966 316.286 832.83 316.065 832.558 315.906C832.286 315.747 831.861 315.577 831.283 315.396C830.694 315.215 830.207 315.033 829.821 314.852C829.447 314.671 829.124 314.41 828.852 314.07C828.58 313.719 828.444 313.271 828.444 312.727C828.444 312.228 828.575 311.781 828.835 311.384C829.096 310.987 829.476 310.676 829.974 310.449C830.473 310.222 831.068 310.109 831.759 310.109C832.417 310.109 832.995 310.234 833.493 310.483C834.003 310.732 834.4 311.078 834.683 311.52C834.967 311.951 835.131 312.432 835.176 312.965H832.898C832.819 312.296 832.439 311.962 831.759 311.962C831.431 311.962 831.181 312.03 831.011 312.166C830.841 312.291 830.756 312.455 830.756 312.659C830.756 312.908 830.881 313.107 831.13 313.254C831.391 313.39 831.805 313.543 832.371 313.713C832.972 313.894 833.465 314.076 833.85 314.257C834.236 314.427 834.57 314.693 834.853 315.056C835.137 315.407 835.278 315.866 835.278 316.433C835.278 317.26 834.972 317.935 834.36 318.456C833.76 318.966 832.915 319.221 831.827 319.221Z" fill="#242C40" fill-opacity="0.87"/>
<rect width="333" height="46" transform="translate(0 116)" fill="#B8E5FF"/>
<path d="M21.6581 138.292C22.1794 138.485 22.6441 138.825 23.0521 139.312C23.4601 139.8 23.6641 140.434 23.6641 141.216C23.6641 141.84 23.4998 142.412 23.1711 142.933C22.8424 143.455 22.3778 143.868 21.7771 144.174C21.1878 144.469 20.5191 144.616 19.7711 144.616H14.5181V132.716H19.5671C20.2698 132.716 20.8931 132.858 21.4371 133.141C21.9924 133.425 22.4231 133.81 22.7291 134.297C23.0351 134.773 23.1881 135.306 23.1881 135.895C23.1881 136.53 23.0351 137.051 22.7291 137.459C22.4231 137.867 22.0661 138.145 21.6581 138.292ZM16.9491 134.79V137.425H19.2781C19.7088 137.425 20.0601 137.301 20.3321 137.051C20.6154 136.802 20.7571 136.485 20.7571 136.099C20.7571 135.725 20.6154 135.414 20.3321 135.164C20.0488 134.915 19.6974 134.79 19.2781 134.79H16.9491ZM19.4991 142.542C20.0091 142.542 20.4228 142.401 20.7401 142.117C21.0688 141.823 21.2331 141.443 21.2331 140.978C21.2331 140.525 21.0688 140.157 20.7401 139.873C20.4228 139.579 20.0091 139.431 19.4991 139.431H16.9491V142.542H19.4991ZM28.3055 144.837C27.6142 144.837 27.0022 144.684 26.4695 144.378C25.9482 144.061 25.5402 143.619 25.2455 143.052C24.9509 142.474 24.8035 141.811 24.8035 141.063V135.946H27.1155V140.859C27.1155 141.369 27.2799 141.806 27.6085 142.168C27.9372 142.52 28.3452 142.695 28.8325 142.695C29.3312 142.695 29.7392 142.52 30.0565 142.168C30.3852 141.817 30.5495 141.381 30.5495 140.859V135.946H32.8615V144.616H31.1275L30.7535 143.766H30.6685C30.4872 143.993 30.1869 144.231 29.7675 144.48C29.3482 144.718 28.8609 144.837 28.3055 144.837ZM36.8781 144.616H34.5661V135.946H36.8781V144.616ZM35.7221 134.841C35.3594 134.841 35.0534 134.717 34.8041 134.467C34.5547 134.218 34.4301 133.912 34.4301 133.549C34.4301 133.187 34.5547 132.881 34.8041 132.631C35.0534 132.382 35.3594 132.257 35.7221 132.257C36.0847 132.257 36.3907 132.382 36.6401 132.631C36.8894 132.881 37.0141 133.187 37.0141 133.549C37.0141 133.912 36.8894 134.218 36.6401 134.467C36.3907 134.717 36.0847 134.841 35.7221 134.841ZM40.9795 144.616H38.6675V132.716H40.9795V144.616ZM46.2839 144.837C45.4226 144.837 44.7199 144.554 44.1759 143.987C43.6319 143.421 43.3599 142.65 43.3599 141.675V138.003H42.0169V136.116H42.6119C42.9406 136.116 43.1956 136.031 43.3769 135.861C43.5582 135.68 43.6489 135.425 43.6489 135.096V133.77H45.6719V135.946H47.4569V138.003H45.6719V141.437C45.6719 141.845 45.7739 142.151 45.9779 142.355C46.1932 142.559 46.4879 142.661 46.8619 142.661C47.0999 142.661 47.2982 142.622 47.4569 142.542V144.65C47.1056 144.775 46.7146 144.837 46.2839 144.837ZM55.595 144.837C54.7337 144.837 54.031 144.554 53.487 143.987C52.943 143.421 52.671 142.65 52.671 141.675V138.003H51.328V136.116H51.923C52.2517 136.116 52.5067 136.031 52.688 135.861C52.8694 135.68 52.96 135.425 52.96 135.096V133.77H54.983V135.946H56.768V138.003H54.983V141.437C54.983 141.845 55.085 142.151 55.289 142.355C55.5044 142.559 55.799 142.661 56.173 142.661C56.411 142.661 56.6094 142.622 56.768 142.542V144.65C56.4167 144.775 56.0257 144.837 55.595 144.837ZM58.153 144.616V132.716H60.465V136.796H60.55C60.6294 136.683 60.7767 136.541 60.992 136.371C61.2187 136.201 61.4964 136.054 61.825 135.929C62.1537 135.793 62.5107 135.725 62.896 135.725C63.5307 135.725 64.0974 135.884 64.596 136.201C65.106 136.507 65.5027 136.949 65.786 137.527C66.0694 138.094 66.211 138.751 66.211 139.499V144.616H63.899V139.703C63.899 139.193 63.7347 138.763 63.406 138.411C63.0774 138.049 62.6694 137.867 62.182 137.867C61.6834 137.867 61.2697 138.043 60.941 138.394C60.6237 138.746 60.465 139.182 60.465 139.703V144.616H58.153ZM76.0396 140.145C76.0396 140.565 76.0056 140.888 75.9376 141.114H69.6986C69.8232 141.636 70.0669 142.044 70.4296 142.338C70.8036 142.633 71.2512 142.78 71.7726 142.78C72.4072 142.78 72.9229 142.565 73.3196 142.134H75.7506C75.5806 142.554 75.3086 142.973 74.9346 143.392C74.5719 143.812 74.1186 144.157 73.5746 144.429C73.0306 144.701 72.4412 144.837 71.8066 144.837C71.0019 144.837 70.2596 144.633 69.5796 144.225C68.8996 143.817 68.3612 143.268 67.9646 142.576C67.5679 141.874 67.3696 141.109 67.3696 140.281C67.3696 139.477 67.5679 138.723 67.9646 138.02C68.3726 137.318 68.9166 136.762 69.5966 136.354C70.2766 135.935 71.0019 135.725 71.7726 135.725C72.5546 135.725 73.2686 135.918 73.9146 136.303C74.5719 136.689 75.0876 137.221 75.4616 137.901C75.8469 138.57 76.0396 139.318 76.0396 140.145ZM71.7726 137.782C71.2739 137.782 70.8376 137.935 70.4636 138.241C70.0896 138.536 69.8346 138.944 69.6986 139.465H73.8126C73.6766 138.955 73.4216 138.547 73.0476 138.241C72.6849 137.935 72.2599 137.782 71.7726 137.782ZM80.9415 147.676V135.946H82.6755L83.0495 136.796H83.1345C83.3271 136.558 83.6388 136.32 84.0695 136.082C84.5001 135.844 85.0101 135.725 85.5995 135.725C86.3021 135.725 86.9595 135.924 87.5715 136.32C88.1948 136.717 88.6878 137.267 89.0505 137.969C89.4245 138.661 89.6115 139.431 89.6115 140.281C89.6115 141.131 89.4245 141.908 89.0505 142.61C88.6878 143.302 88.1948 143.846 87.5715 144.242C86.9595 144.639 86.3021 144.837 85.5995 144.837C85.2255 144.837 84.8741 144.775 84.5455 144.65C84.2281 144.537 83.9618 144.407 83.7465 144.259C83.5425 144.112 83.4065 143.982 83.3385 143.868H83.2535V147.676H80.9415ZM85.2765 142.695C85.6391 142.695 85.9735 142.593 86.2795 142.389C86.5855 142.185 86.8291 141.902 87.0105 141.539C87.2031 141.165 87.2995 140.746 87.2995 140.281C87.2995 139.817 87.2031 139.403 87.0105 139.04C86.8291 138.666 86.5855 138.377 86.2795 138.173C85.9735 137.969 85.6391 137.867 85.2765 137.867C84.9138 137.867 84.5795 137.969 84.2735 138.173C83.9675 138.377 83.7181 138.666 83.5255 139.04C83.3441 139.403 83.2535 139.817 83.2535 140.281C83.2535 140.746 83.3441 141.165 83.5255 141.539C83.7181 141.902 83.9675 142.185 84.2735 142.389C84.5795 142.593 84.9138 142.695 85.2765 142.695ZM90.8514 144.616V135.946H92.5854L92.9594 136.796H93.0444C93.2144 136.57 93.4694 136.337 93.8094 136.099C94.1607 135.85 94.5801 135.725 95.0674 135.725C95.3734 135.725 95.6341 135.754 95.8494 135.81V138.122C95.6341 138.066 95.3451 138.037 94.9824 138.037C94.4271 138.037 93.9851 138.207 93.6564 138.547C93.3277 138.876 93.1634 139.335 93.1634 139.924V144.616H90.8514ZM100.406 144.837C99.6244 144.837 98.8934 144.633 98.2134 144.225C97.5334 143.806 96.9894 143.245 96.5814 142.542C96.1734 141.84 95.9694 141.086 95.9694 140.281C95.9694 139.477 96.1734 138.723 96.5814 138.02C96.9894 137.318 97.5334 136.762 98.2134 136.354C98.8934 135.935 99.6244 135.725 100.406 135.725C101.188 135.725 101.919 135.935 102.599 136.354C103.279 136.762 103.823 137.318 104.231 138.02C104.639 138.723 104.843 139.477 104.843 140.281C104.843 141.086 104.639 141.84 104.231 142.542C103.823 143.245 103.279 143.806 102.599 144.225C101.919 144.633 101.188 144.837 100.406 144.837ZM100.406 142.695C101.018 142.695 101.523 142.469 101.919 142.015C102.327 141.562 102.531 140.984 102.531 140.281C102.531 139.579 102.327 139.001 101.919 138.547C101.523 138.094 101.018 137.867 100.406 137.867C99.7944 137.867 99.2844 138.094 98.8764 138.547C98.4797 139.001 98.2814 139.579 98.2814 140.281C98.2814 140.984 98.4797 141.562 98.8764 142.015C99.2844 142.469 99.7944 142.695 100.406 142.695ZM109.442 144.837C108.581 144.837 107.878 144.554 107.334 143.987C106.79 143.421 106.518 142.65 106.518 141.675V138.003H105.175V136.116H105.77C106.099 136.116 106.354 136.031 106.535 135.861C106.717 135.68 106.807 135.425 106.807 135.096V133.77H108.83V135.946H110.615V138.003H108.83V141.437C108.83 141.845 108.932 142.151 109.136 142.355C109.352 142.559 109.646 142.661 110.02 142.661C110.258 142.661 110.457 142.622 110.615 142.542V144.65C110.264 144.775 109.873 144.837 109.442 144.837ZM115.727 144.837C114.945 144.837 114.214 144.633 113.534 144.225C112.854 143.806 112.31 143.245 111.902 142.542C111.494 141.84 111.29 141.086 111.29 140.281C111.29 139.477 111.494 138.723 111.902 138.02C112.31 137.318 112.854 136.762 113.534 136.354C114.214 135.935 114.945 135.725 115.727 135.725C116.509 135.725 117.24 135.935 117.92 136.354C118.6 136.762 119.144 137.318 119.552 138.02C119.96 138.723 120.164 139.477 120.164 140.281C120.164 141.086 119.96 141.84 119.552 142.542C119.144 143.245 118.6 143.806 117.92 144.225C117.24 144.633 116.509 144.837 115.727 144.837ZM115.727 142.695C116.339 142.695 116.844 142.469 117.24 142.015C117.648 141.562 117.852 140.984 117.852 140.281C117.852 139.579 117.648 139.001 117.24 138.547C116.844 138.094 116.339 137.867 115.727 137.867C115.115 137.867 114.605 138.094 114.197 138.547C113.801 139.001 113.602 139.579 113.602 140.281C113.602 140.984 113.801 141.562 114.197 142.015C114.605 142.469 115.115 142.695 115.727 142.695ZM124.763 144.837C123.902 144.837 123.199 144.554 122.655 143.987C122.111 143.421 121.839 142.65 121.839 141.675V138.003H120.496V136.116H121.091C121.42 136.116 121.675 136.031 121.856 135.861C122.038 135.68 122.128 135.425 122.128 135.096V133.77H124.151V135.946H125.936V138.003H124.151V141.437C124.151 141.845 124.253 142.151 124.457 142.355C124.673 142.559 124.967 142.661 125.341 142.661C125.579 142.661 125.778 142.622 125.936 142.542V144.65C125.585 144.775 125.194 144.837 124.763 144.837ZM132.493 135.946H134.873L131.405 144.871C130.997 145.925 130.561 146.668 130.096 147.098C129.631 147.54 129.082 147.761 128.447 147.761C128.073 147.761 127.71 147.699 127.359 147.574V145.466C127.518 145.546 127.727 145.585 127.988 145.585C128.351 145.585 128.64 145.506 128.855 145.347C129.082 145.2 129.263 144.934 129.399 144.548L129.45 144.378L126.067 135.946H128.566L130.589 141.59L132.493 135.946ZM135.569 147.676V135.946H137.303L137.677 136.796H137.762C137.955 136.558 138.266 136.32 138.697 136.082C139.128 135.844 139.638 135.725 140.227 135.725C140.93 135.725 141.587 135.924 142.199 136.32C142.822 136.717 143.315 137.267 143.678 137.969C144.052 138.661 144.239 139.431 144.239 140.281C144.239 141.131 144.052 141.908 143.678 142.61C143.315 143.302 142.822 143.846 142.199 144.242C141.587 144.639 140.93 144.837 140.227 144.837C139.853 144.837 139.502 144.775 139.173 144.65C138.856 144.537 138.589 144.407 138.374 144.259C138.17 144.112 138.034 143.982 137.966 143.868H137.881V147.676H135.569ZM139.904 142.695C140.267 142.695 140.601 142.593 140.907 142.389C141.213 142.185 141.457 141.902 141.638 141.539C141.831 141.165 141.927 140.746 141.927 140.281C141.927 139.817 141.831 139.403 141.638 139.04C141.457 138.666 141.213 138.377 140.907 138.173C140.601 137.969 140.267 137.867 139.904 137.867C139.541 137.867 139.207 137.969 138.901 138.173C138.595 138.377 138.346 138.666 138.153 139.04C137.972 139.403 137.881 139.817 137.881 140.281C137.881 140.746 137.972 141.165 138.153 141.539C138.346 141.902 138.595 142.185 138.901 142.389C139.207 142.593 139.541 142.695 139.904 142.695ZM153.69 140.145C153.69 140.565 153.656 140.888 153.588 141.114H147.349C147.474 141.636 147.717 142.044 148.08 142.338C148.454 142.633 148.902 142.78 149.423 142.78C150.058 142.78 150.573 142.565 150.97 142.134H153.401C153.231 142.554 152.959 142.973 152.585 143.392C152.222 143.812 151.769 144.157 151.225 144.429C150.681 144.701 150.092 144.837 149.457 144.837C148.652 144.837 147.91 144.633 147.23 144.225C146.55 143.817 146.012 143.268 145.615 142.576C145.218 141.874 145.02 141.109 145.02 140.281C145.02 139.477 145.218 138.723 145.615 138.02C146.023 137.318 146.567 136.762 147.247 136.354C147.927 135.935 148.652 135.725 149.423 135.725C150.205 135.725 150.919 135.918 151.565 136.303C152.222 136.689 152.738 137.221 153.112 137.901C153.497 138.57 153.69 139.318 153.69 140.145ZM149.423 137.782C148.924 137.782 148.488 137.935 148.114 138.241C147.74 138.536 147.485 138.944 147.349 139.465H151.463C151.327 138.955 151.072 138.547 150.698 138.241C150.335 137.935 149.91 137.782 149.423 137.782Z" fill="#242C40" fill-opacity="0.87"/>
<rect width="333" height="46" transform="translate(0 174)" fill="#B8B9FF"/>
<path d="M17.4281 203.483C16.5214 203.483 15.7281 203.313 15.0481 202.973C14.3794 202.621 13.8524 202.145 13.4671 201.545C13.0931 200.944 12.8891 200.264 12.8551 199.505H15.2861C15.3541 200.037 15.5694 200.474 15.9321 200.814C16.2948 201.142 16.7934 201.307 17.4281 201.307C18.0288 201.307 18.4821 201.188 18.7881 200.95C19.1054 200.712 19.2641 200.417 19.2641 200.066C19.2641 199.771 19.1621 199.522 18.9581 199.318C18.7541 199.114 18.4991 198.949 18.1931 198.825C17.8871 198.689 17.4621 198.53 16.9181 198.349C16.1248 198.088 15.4731 197.833 14.9631 197.584C14.4644 197.323 14.0338 196.955 13.6711 196.479C13.3084 195.991 13.1271 195.362 13.1271 194.592C13.1271 193.934 13.2914 193.345 13.6201 192.824C13.9488 192.302 14.4248 191.894 15.0481 191.6C15.6828 191.294 16.4251 191.141 17.2751 191.141C18.0911 191.141 18.8164 191.311 19.4511 191.651C20.0858 191.991 20.5844 192.455 20.9471 193.045C21.3098 193.634 21.5081 194.291 21.5421 195.017H19.1111C19.0771 194.518 18.8958 194.11 18.5671 193.793C18.2384 193.475 17.8078 193.317 17.2751 193.317C16.7311 193.317 16.3061 193.441 16.0001 193.691C15.7054 193.929 15.5581 194.24 15.5581 194.626C15.5581 194.92 15.6601 195.17 15.8641 195.374C16.0681 195.578 16.3174 195.742 16.6121 195.867C16.9181 195.991 17.3488 196.144 17.9041 196.326C18.6861 196.575 19.3321 196.824 19.8421 197.074C20.3521 197.312 20.7884 197.669 21.1511 198.145C21.5138 198.609 21.6951 199.221 21.6951 199.981C21.6951 200.649 21.5251 201.25 21.1851 201.783C20.8564 202.304 20.3691 202.718 19.7231 203.024C19.0771 203.33 18.3121 203.483 17.4281 203.483ZM26.9866 203.483C26.2046 203.483 25.4736 203.279 24.7936 202.871C24.1136 202.451 23.5696 201.89 23.1616 201.188C22.7536 200.485 22.5496 199.731 22.5496 198.927C22.5496 198.122 22.7536 197.368 23.1616 196.666C23.5696 195.963 24.1136 195.408 24.7936 195C25.4736 194.58 26.2046 194.371 26.9866 194.371C27.7686 194.371 28.4996 194.58 29.1796 195C29.8596 195.408 30.4036 195.963 30.8116 196.666C31.2196 197.368 31.4236 198.122 31.4236 198.927C31.4236 199.731 31.2196 200.485 30.8116 201.188C30.4036 201.89 29.8596 202.451 29.1796 202.871C28.4996 203.279 27.7686 203.483 26.9866 203.483ZM26.9866 201.341C27.5986 201.341 28.103 201.114 28.4996 200.661C28.9076 200.207 29.1116 199.629 29.1116 198.927C29.1116 198.224 28.9076 197.646 28.4996 197.193C28.103 196.739 27.5986 196.513 26.9866 196.513C26.3746 196.513 25.8646 196.739 25.4566 197.193C25.06 197.646 24.8616 198.224 24.8616 198.927C24.8616 199.629 25.06 200.207 25.4566 200.661C25.8646 201.114 26.3746 201.341 26.9866 201.341ZM36.0866 203.483C35.3952 203.483 34.7832 203.33 34.2506 203.024C33.7292 202.706 33.3212 202.264 33.0266 201.698C32.7319 201.12 32.5846 200.457 32.5846 199.709V194.592H34.8966V199.505C34.8966 200.015 35.0609 200.451 35.3896 200.814C35.7182 201.165 36.1262 201.341 36.6136 201.341C37.1122 201.341 37.5202 201.165 37.8376 200.814C38.1662 200.462 38.3306 200.026 38.3306 199.505V194.592H40.6426V203.262H38.9086L38.5346 202.412H38.4496C38.2682 202.638 37.9679 202.876 37.5486 203.126C37.1292 203.364 36.6419 203.483 36.0866 203.483ZM42.3471 203.262V194.592H44.0811L44.4551 195.442H44.5401C44.7101 195.215 44.9651 194.983 45.3051 194.745C45.6565 194.495 46.0758 194.371 46.5631 194.371C46.8691 194.371 47.1298 194.399 47.3451 194.456V196.768C47.1298 196.711 46.8408 196.683 46.4781 196.683C45.9228 196.683 45.4808 196.853 45.1521 197.193C44.8235 197.521 44.6591 197.98 44.6591 198.57V203.262H42.3471ZM51.9021 203.483C51.1201 203.483 50.3891 203.279 49.7091 202.871C49.0291 202.451 48.4851 201.89 48.0771 201.188C47.6691 200.485 47.4651 199.731 47.4651 198.927C47.4651 198.122 47.6691 197.368 48.0771 196.666C48.4851 195.963 49.0291 195.408 49.7091 195C50.3891 194.58 51.1201 194.371 51.9021 194.371C52.6161 194.371 53.2677 194.541 53.8571 194.881C54.4464 195.209 54.9281 195.646 55.3021 196.19C55.6761 196.722 55.9197 197.278 56.0331 197.856H53.7211C53.6757 197.697 53.5794 197.516 53.4321 197.312C53.2847 197.096 53.0807 196.909 52.8201 196.751C52.5594 196.592 52.2534 196.513 51.9021 196.513C51.2901 196.513 50.7801 196.739 50.3721 197.193C49.9754 197.646 49.7771 198.224 49.7771 198.927C49.7771 199.629 49.9754 200.207 50.3721 200.661C50.7801 201.114 51.2901 201.341 51.9021 201.341C52.2534 201.341 52.5594 201.261 52.8201 201.103C53.0807 200.944 53.2847 200.763 53.4321 200.559C53.5794 200.343 53.6757 200.156 53.7211 199.998H56.0331C55.9197 200.576 55.6761 201.137 55.3021 201.681C54.9281 202.213 54.4464 202.65 53.8571 202.99C53.2677 203.318 52.6161 203.483 51.9021 203.483ZM65.4142 198.791C65.4142 199.21 65.3802 199.533 65.3122 199.76H59.0732C59.1978 200.281 59.4415 200.689 59.8042 200.984C60.1782 201.278 60.6258 201.426 61.1472 201.426C61.7818 201.426 62.2975 201.21 62.6942 200.78H65.1252C64.9552 201.199 64.6832 201.618 64.3092 202.038C63.9465 202.457 63.4932 202.803 62.9492 203.075C62.4052 203.347 61.8158 203.483 61.1812 203.483C60.3765 203.483 59.6342 203.279 58.9542 202.871C58.2742 202.463 57.7358 201.913 57.3392 201.222C56.9425 200.519 56.7442 199.754 56.7442 198.927C56.7442 198.122 56.9425 197.368 57.3392 196.666C57.7472 195.963 58.2912 195.408 58.9712 195C59.6512 194.58 60.3765 194.371 61.1472 194.371C61.9292 194.371 62.6432 194.563 63.2892 194.949C63.9465 195.334 64.4622 195.867 64.8362 196.547C65.2215 197.215 65.4142 197.963 65.4142 198.791ZM61.1472 196.428C60.6485 196.428 60.2122 196.581 59.8382 196.887C59.4642 197.181 59.2092 197.589 59.0732 198.111H63.1872C63.0512 197.601 62.7962 197.193 62.4222 196.887C62.0595 196.581 61.6345 196.428 61.1472 196.428ZM73.3591 203.483C72.6564 203.483 72.0331 203.358 71.4891 203.109C70.9564 202.848 70.5427 202.497 70.2481 202.055C69.9534 201.601 69.7947 201.097 69.7721 200.542H72.0331C72.0557 200.87 72.1861 201.137 72.4241 201.341C72.6734 201.533 72.9851 201.63 73.3591 201.63C73.7217 201.63 73.9994 201.556 74.1921 201.409C74.3961 201.25 74.4981 201.057 74.4981 200.831C74.4981 200.547 74.3621 200.326 74.0901 200.168C73.8181 200.009 73.3931 199.839 72.8151 199.658C72.2257 199.476 71.7384 199.295 71.3531 199.114C70.9791 198.932 70.6561 198.672 70.3841 198.332C70.1121 197.98 69.9761 197.533 69.9761 196.989C69.9761 196.49 70.1064 196.042 70.3671 195.646C70.6277 195.249 71.0074 194.937 71.5061 194.711C72.0047 194.484 72.5997 194.371 73.2911 194.371C73.9484 194.371 74.5264 194.495 75.0251 194.745C75.5351 194.994 75.9317 195.34 76.2151 195.782C76.4984 196.212 76.6627 196.694 76.7081 197.227H74.4301C74.3507 196.558 73.9711 196.224 73.2911 196.224C72.9624 196.224 72.7131 196.292 72.5431 196.428C72.3731 196.552 72.2881 196.717 72.2881 196.921C72.2881 197.17 72.4127 197.368 72.6621 197.516C72.9227 197.652 73.3364 197.805 73.9031 197.975C74.5037 198.156 74.9967 198.337 75.3821 198.519C75.7674 198.689 76.1017 198.955 76.3851 199.318C76.6684 199.669 76.8101 200.128 76.8101 200.695C76.8101 201.522 76.5041 202.196 75.8921 202.718C75.2914 203.228 74.4471 203.483 73.3591 203.483ZM81.2856 203.483C80.5943 203.483 79.9823 203.33 79.4496 203.024C78.9283 202.706 78.5203 202.264 78.2256 201.698C77.9309 201.12 77.7836 200.457 77.7836 199.709V194.592H80.0956V199.505C80.0956 200.015 80.2599 200.451 80.5886 200.814C80.9173 201.165 81.3253 201.341 81.8126 201.341C82.3113 201.341 82.7193 201.165 83.0366 200.814C83.3653 200.462 83.5296 200.026 83.5296 199.505V194.592H85.8416V203.262H84.1076L83.7336 202.412H83.6486C83.4673 202.638 83.1669 202.876 82.7476 203.126C82.3283 203.364 81.8409 203.483 81.2856 203.483ZM89.8581 203.262H87.5461V194.592H89.8581V203.262ZM88.7021 193.487C88.3395 193.487 88.0335 193.362 87.7841 193.113C87.5348 192.863 87.4101 192.557 87.4101 192.195C87.4101 191.832 87.5348 191.526 87.7841 191.277C88.0335 191.027 88.3395 190.903 88.7021 190.903C89.0648 190.903 89.3708 191.027 89.6201 191.277C89.8695 191.526 89.9941 191.832 89.9941 192.195C89.9941 192.557 89.8695 192.863 89.6201 193.113C89.3708 193.362 89.0648 193.487 88.7021 193.487ZM95.0816 203.483C94.2202 203.483 93.5176 203.199 92.9736 202.633C92.4296 202.066 92.1576 201.295 92.1576 200.321V196.649H90.8146V194.762H91.4096C91.7382 194.762 91.9932 194.677 92.1746 194.507C92.3559 194.325 92.4466 194.07 92.4466 193.742V192.416H94.4696V194.592H96.2546V196.649H94.4696V200.083C94.4696 200.491 94.5716 200.797 94.7756 201.001C94.9909 201.205 95.2856 201.307 95.6596 201.307C95.8976 201.307 96.0959 201.267 96.2546 201.188V203.296C95.9032 203.42 95.5122 203.483 95.0816 203.483ZM100.789 194.371C101.911 194.371 102.795 194.711 103.441 195.391C104.087 196.059 104.41 196.955 104.41 198.077V203.262H102.676L102.302 202.412H102.217C101.537 203.126 100.715 203.483 99.7515 203.483C99.2075 203.483 98.7089 203.369 98.2555 203.143C97.8135 202.916 97.4622 202.604 97.2015 202.208C96.9522 201.811 96.8275 201.375 96.8275 200.899C96.8275 200.309 97.0032 199.799 97.3545 199.369C97.7059 198.927 98.1932 198.592 98.8165 198.366C99.4512 198.128 100.177 198.009 100.993 198.009H102.098V197.839C102.098 197.397 101.979 197.051 101.741 196.802C101.503 196.552 101.18 196.428 100.772 196.428C100.42 196.428 100.137 196.524 99.9215 196.717C99.7175 196.898 99.5929 197.096 99.5475 197.312H97.2355C97.2809 196.802 97.4395 196.326 97.7115 195.884C97.9949 195.43 98.3972 195.068 98.9185 194.796C99.4399 194.512 100.063 194.371 100.789 194.371ZM100.296 201.596C100.828 201.596 101.259 201.437 101.588 201.12C101.928 200.802 102.098 200.428 102.098 199.998V199.556H100.925C100.301 199.556 99.8479 199.658 99.5645 199.862C99.2812 200.054 99.1395 200.326 99.1395 200.678C99.1395 200.95 99.2359 201.171 99.4285 201.341C99.6325 201.511 99.9215 201.596 100.296 201.596ZM110.78 203.483C110.19 203.483 109.68 203.364 109.25 203.126C108.819 202.888 108.507 202.65 108.315 202.412H108.23L107.856 203.262H106.122V191.362H108.434V195.34H108.519C108.587 195.226 108.723 195.096 108.927 194.949C109.142 194.801 109.408 194.671 109.726 194.558C110.054 194.433 110.406 194.371 110.78 194.371C111.482 194.371 112.14 194.569 112.752 194.966C113.375 195.362 113.868 195.912 114.231 196.615C114.605 197.306 114.792 198.077 114.792 198.927C114.792 199.777 114.605 200.553 114.231 201.256C113.868 201.947 113.375 202.491 112.752 202.888C112.14 203.284 111.482 203.483 110.78 203.483ZM110.457 201.341C110.819 201.341 111.154 201.239 111.46 201.035C111.766 200.831 112.009 200.547 112.191 200.185C112.383 199.811 112.48 199.391 112.48 198.927C112.48 198.462 112.383 198.048 112.191 197.686C112.009 197.312 111.766 197.023 111.46 196.819C111.154 196.615 110.819 196.513 110.457 196.513C110.094 196.513 109.76 196.615 109.454 196.819C109.148 197.023 108.898 197.312 108.706 197.686C108.524 198.048 108.434 198.462 108.434 198.927C108.434 199.391 108.524 199.811 108.706 200.185C108.898 200.547 109.148 200.831 109.454 201.035C109.76 201.239 110.094 201.341 110.457 201.341ZM118.443 203.262H116.131V191.362H118.443V203.262ZM128.44 198.791C128.44 199.21 128.406 199.533 128.338 199.76H122.099C122.223 200.281 122.467 200.689 122.83 200.984C123.204 201.278 123.651 201.426 124.173 201.426C124.807 201.426 125.323 201.21 125.72 200.78H128.151C127.981 201.199 127.709 201.618 127.335 202.038C126.972 202.457 126.519 202.803 125.975 203.075C125.431 203.347 124.841 203.483 124.207 203.483C123.402 203.483 122.66 203.279 121.98 202.871C121.3 202.463 120.761 201.913 120.365 201.222C119.968 200.519 119.77 199.754 119.77 198.927C119.77 198.122 119.968 197.368 120.365 196.666C120.773 195.963 121.317 195.408 121.997 195C122.677 194.58 123.402 194.371 124.173 194.371C124.955 194.371 125.669 194.563 126.315 194.949C126.972 195.334 127.488 195.867 127.862 196.547C128.247 197.215 128.44 197.963 128.44 198.791ZM124.173 196.428C123.674 196.428 123.238 196.581 122.864 196.887C122.49 197.181 122.235 197.589 122.099 198.111H126.213C126.077 197.601 125.822 197.193 125.448 196.887C125.085 196.581 124.66 196.428 124.173 196.428ZM133.342 203.262V194.592H135.076L135.45 195.442H135.535C135.705 195.215 135.96 194.983 136.3 194.745C136.651 194.495 137.07 194.371 137.558 194.371C137.864 194.371 138.124 194.399 138.34 194.456V196.768C138.124 196.711 137.835 196.683 137.473 196.683C136.917 196.683 136.475 196.853 136.147 197.193C135.818 197.521 135.654 197.98 135.654 198.57V203.262H133.342ZM147.13 198.791C147.13 199.21 147.096 199.533 147.028 199.76H140.789C140.913 200.281 141.157 200.689 141.52 200.984C141.894 201.278 142.341 201.426 142.863 201.426C143.497 201.426 144.013 201.21 144.41 200.78H146.841C146.671 201.199 146.399 201.618 146.025 202.038C145.662 202.457 145.209 202.803 144.665 203.075C144.121 203.347 143.531 203.483 142.897 203.483C142.092 203.483 141.35 203.279 140.67 202.871C139.99 202.463 139.451 201.913 139.055 201.222C138.658 200.519 138.46 199.754 138.46 198.927C138.46 198.122 138.658 197.368 139.055 196.666C139.463 195.963 140.007 195.408 140.687 195C141.367 194.58 142.092 194.371 142.863 194.371C143.645 194.371 144.359 194.563 145.005 194.949C145.662 195.334 146.178 195.867 146.552 196.547C146.937 197.215 147.13 197.963 147.13 198.791ZM142.863 196.428C142.364 196.428 141.928 196.581 141.554 196.887C141.18 197.181 140.925 197.589 140.789 198.111H144.903C144.767 197.601 144.512 197.193 144.138 196.887C143.775 196.581 143.35 196.428 142.863 196.428ZM151.423 203.483C150.721 203.483 150.097 203.358 149.553 203.109C149.021 202.848 148.607 202.497 148.312 202.055C148.018 201.601 147.859 201.097 147.836 200.542H150.097C150.12 200.87 150.25 201.137 150.488 201.341C150.738 201.533 151.049 201.63 151.423 201.63C151.786 201.63 152.064 201.556 152.256 201.409C152.46 201.25 152.562 201.057 152.562 200.831C152.562 200.547 152.426 200.326 152.154 200.168C151.882 200.009 151.457 199.839 150.879 199.658C150.29 199.476 149.803 199.295 149.417 199.114C149.043 198.932 148.72 198.672 148.448 198.332C148.176 197.98 148.04 197.533 148.04 196.989C148.04 196.49 148.171 196.042 148.431 195.646C148.692 195.249 149.072 194.937 149.57 194.711C150.069 194.484 150.664 194.371 151.355 194.371C152.013 194.371 152.591 194.495 153.089 194.745C153.599 194.994 153.996 195.34 154.279 195.782C154.563 196.212 154.727 196.694 154.772 197.227H152.494C152.415 196.558 152.035 196.224 151.355 196.224C151.027 196.224 150.777 196.292 150.607 196.428C150.437 196.552 150.352 196.717 150.352 196.921C150.352 197.17 150.477 197.368 150.726 197.516C150.987 197.652 151.401 197.805 151.967 197.975C152.568 198.156 153.061 198.337 153.446 198.519C153.832 198.689 154.166 198.955 154.449 199.318C154.733 199.669 154.874 200.128 154.874 200.695C154.874 201.522 154.568 202.196 153.956 202.718C153.356 203.228 152.511 203.483 151.423 203.483ZM156.099 206.322V194.592H157.833L158.207 195.442H158.292C158.485 195.204 158.796 194.966 159.227 194.728C159.658 194.49 160.168 194.371 160.757 194.371C161.46 194.371 162.117 194.569 162.729 194.966C163.352 195.362 163.845 195.912 164.208 196.615C164.582 197.306 164.769 198.077 164.769 198.927C164.769 199.777 164.582 200.553 164.208 201.256C163.845 201.947 163.352 202.491 162.729 202.888C162.117 203.284 161.46 203.483 160.757 203.483C160.383 203.483 160.032 203.42 159.703 203.296C159.386 203.182 159.119 203.052 158.904 202.905C158.7 202.757 158.564 202.627 158.496 202.514H158.411V206.322H156.099ZM160.434 201.341C160.797 201.341 161.131 201.239 161.437 201.035C161.743 200.831 161.987 200.547 162.168 200.185C162.361 199.811 162.457 199.391 162.457 198.927C162.457 198.462 162.361 198.048 162.168 197.686C161.987 197.312 161.743 197.023 161.437 196.819C161.131 196.615 160.797 196.513 160.434 196.513C160.071 196.513 159.737 196.615 159.431 196.819C159.125 197.023 158.876 197.312 158.683 197.686C158.502 198.048 158.411 198.462 158.411 198.927C158.411 199.391 158.502 199.811 158.683 200.185C158.876 200.547 159.125 200.831 159.431 201.035C159.737 201.239 160.071 201.341 160.434 201.341ZM169.987 203.483C169.205 203.483 168.474 203.279 167.794 202.871C167.114 202.451 166.57 201.89 166.162 201.188C165.754 200.485 165.55 199.731 165.55 198.927C165.55 198.122 165.754 197.368 166.162 196.666C166.57 195.963 167.114 195.408 167.794 195C168.474 194.58 169.205 194.371 169.987 194.371C170.769 194.371 171.5 194.58 172.18 195C172.86 195.408 173.404 195.963 173.812 196.666C174.22 197.368 174.424 198.122 174.424 198.927C174.424 199.731 174.22 200.485 173.812 201.188C173.404 201.89 172.86 202.451 172.18 202.871C171.5 203.279 170.769 203.483 169.987 203.483ZM169.987 201.341C170.599 201.341 171.103 201.114 171.5 200.661C171.908 200.207 172.112 199.629 172.112 198.927C172.112 198.224 171.908 197.646 171.5 197.193C171.103 196.739 170.599 196.513 169.987 196.513C169.375 196.513 168.865 196.739 168.457 197.193C168.06 197.646 167.862 198.224 167.862 198.927C167.862 199.629 168.06 200.207 168.457 200.661C168.865 201.114 169.375 201.341 169.987 201.341ZM175.67 203.262V194.592H177.404L177.778 195.442H177.863C178.044 195.215 178.344 194.983 178.764 194.745C179.183 194.495 179.67 194.371 180.226 194.371C180.917 194.371 181.523 194.529 182.045 194.847C182.577 195.153 182.991 195.595 183.286 196.173C183.58 196.739 183.728 197.397 183.728 198.145V203.262H181.416V198.349C181.416 197.839 181.251 197.408 180.923 197.057C180.594 196.694 180.186 196.513 179.699 196.513C179.2 196.513 178.786 196.688 178.458 197.04C178.14 197.391 177.982 197.827 177.982 198.349V203.262H175.67ZM188.9 203.483C188.198 203.483 187.535 203.284 186.911 202.888C186.299 202.491 185.806 201.947 185.432 201.256C185.07 200.553 184.888 199.777 184.888 198.927C184.888 198.077 185.07 197.306 185.432 196.615C185.806 195.912 186.299 195.362 186.911 194.966C187.535 194.569 188.198 194.371 188.9 194.371C189.274 194.371 189.62 194.433 189.937 194.558C190.266 194.671 190.532 194.801 190.736 194.949C190.952 195.096 191.093 195.226 191.161 195.34H191.246V191.362H193.558V203.262H191.824L191.45 202.412H191.365C191.173 202.65 190.861 202.888 190.43 203.126C190 203.364 189.49 203.483 188.9 203.483ZM189.223 201.341C189.586 201.341 189.92 201.239 190.226 201.035C190.532 200.831 190.776 200.547 190.957 200.185C191.15 199.811 191.246 199.391 191.246 198.927C191.246 198.462 191.15 198.048 190.957 197.686C190.776 197.312 190.532 197.023 190.226 196.819C189.92 196.615 189.586 196.513 189.223 196.513C188.861 196.513 188.526 196.615 188.22 196.819C187.914 197.023 187.665 197.312 187.472 197.686C187.291 198.048 187.2 198.462 187.2 198.927C187.2 199.391 187.291 199.811 187.472 200.185C187.665 200.547 187.914 200.831 188.22 201.035C188.526 201.239 188.861 201.341 189.223 201.341ZM203.568 198.791C203.568 199.21 203.534 199.533 203.466 199.76H197.227C197.352 200.281 197.595 200.689 197.958 200.984C198.332 201.278 198.78 201.426 199.301 201.426C199.936 201.426 200.451 201.21 200.848 200.78H203.279C203.109 201.199 202.837 201.618 202.463 202.038C202.1 202.457 201.647 202.803 201.103 203.075C200.559 203.347 199.97 203.483 199.335 203.483C198.53 203.483 197.788 203.279 197.108 202.871C196.428 202.463 195.89 201.913 195.493 201.222C195.096 200.519 194.898 199.754 194.898 198.927C194.898 198.122 195.096 197.368 195.493 196.666C195.901 195.963 196.445 195.408 197.125 195C197.805 194.58 198.53 194.371 199.301 194.371C200.083 194.371 200.797 194.563 201.443 194.949C202.1 195.334 202.616 195.867 202.99 196.547C203.375 197.215 203.568 197.963 203.568 198.791ZM199.301 196.428C198.802 196.428 198.366 196.581 197.992 196.887C197.618 197.181 197.363 197.589 197.227 198.111H201.341C201.205 197.601 200.95 197.193 200.576 196.887C200.213 196.581 199.788 196.428 199.301 196.428ZM204.819 203.262V194.592H206.553L206.927 195.442H207.012C207.193 195.215 207.493 194.983 207.913 194.745C208.332 194.495 208.819 194.371 209.375 194.371C210.066 194.371 210.672 194.529 211.194 194.847C211.726 195.153 212.14 195.595 212.435 196.173C212.729 196.739 212.877 197.397 212.877 198.145V203.262H210.565V198.349C210.565 197.839 210.4 197.408 210.072 197.057C209.743 196.694 209.335 196.513 208.848 196.513C208.349 196.513 207.935 196.688 207.607 197.04C207.289 197.391 207.131 197.827 207.131 198.349V203.262H204.819ZM217.849 203.483C216.988 203.483 216.285 203.199 215.741 202.633C215.197 202.066 214.925 201.295 214.925 200.321V196.649H213.582V194.762H214.177C214.506 194.762 214.761 194.677 214.942 194.507C215.123 194.325 215.214 194.07 215.214 193.742V192.416H217.237V194.592H219.022V196.649H217.237V200.083C217.237 200.491 217.339 200.797 217.543 201.001C217.758 201.205 218.053 201.307 218.427 201.307C218.665 201.307 218.863 201.267 219.022 201.188V203.296C218.671 203.42 218.28 203.483 217.849 203.483ZM223.199 203.483C222.496 203.483 221.873 203.358 221.329 203.109C220.796 202.848 220.383 202.497 220.088 202.055C219.793 201.601 219.635 201.097 219.612 200.542H221.873C221.896 200.87 222.026 201.137 222.264 201.341C222.513 201.533 222.825 201.63 223.199 201.63C223.562 201.63 223.839 201.556 224.032 201.409C224.236 201.25 224.338 201.057 224.338 200.831C224.338 200.547 224.202 200.326 223.93 200.168C223.658 200.009 223.233 199.839 222.655 199.658C222.066 199.476 221.578 199.295 221.193 199.114C220.819 198.932 220.496 198.672 220.224 198.332C219.952 197.98 219.816 197.533 219.816 196.989C219.816 196.49 219.946 196.042 220.207 195.646C220.468 195.249 220.847 194.937 221.346 194.711C221.845 194.484 222.44 194.371 223.131 194.371C223.788 194.371 224.366 194.495 224.865 194.745C225.375 194.994 225.772 195.34 226.055 195.782C226.338 196.212 226.503 196.694 226.548 197.227H224.27C224.191 196.558 223.811 196.224 223.131 196.224C222.802 196.224 222.553 196.292 222.383 196.428C222.213 196.552 222.128 196.717 222.128 196.921C222.128 197.17 222.253 197.368 222.502 197.516C222.763 197.652 223.176 197.805 223.743 197.975C224.344 198.156 224.837 198.337 225.222 198.519C225.607 198.689 225.942 198.955 226.225 199.318C226.508 199.669 226.65 200.128 226.65 200.695C226.65 201.522 226.344 202.196 225.732 202.718C225.131 203.228 224.287 203.483 223.199 203.483Z" fill="#242C40" fill-opacity="0.87"/>
<rect width="502" height="46" transform="translate(347 232)" fill="#F2C9FF"/>
<path d="M367.409 261.221C366.366 261.221 365.397 260.949 364.502 260.405C363.607 259.85 362.893 259.102 362.36 258.161C361.827 257.209 361.561 256.172 361.561 255.05C361.561 253.928 361.827 252.897 362.36 251.956C362.893 251.004 363.607 250.256 364.502 249.712C365.397 249.157 366.366 248.879 367.409 248.879C368.361 248.879 369.211 249.094 369.959 249.525C370.707 249.944 371.319 250.494 371.795 251.174C372.282 251.843 372.617 252.562 372.798 253.333H370.265C370.106 252.766 369.778 252.273 369.279 251.854C368.78 251.435 368.157 251.225 367.409 251.225C366.797 251.225 366.23 251.395 365.709 251.735C365.188 252.064 364.768 252.523 364.451 253.112C364.145 253.69 363.992 254.336 363.992 255.05C363.992 255.764 364.145 256.416 364.451 257.005C364.768 257.583 365.188 258.042 365.709 258.382C366.23 258.711 366.797 258.875 367.409 258.875C368.157 258.875 368.78 258.671 369.279 258.263C369.789 257.844 370.146 257.351 370.35 256.784H372.883C372.702 257.543 372.367 258.263 371.88 258.943C371.404 259.612 370.781 260.161 370.01 260.592C369.251 261.011 368.384 261.221 367.409 261.221ZM378.033 261.221C377.251 261.221 376.52 261.017 375.84 260.609C375.16 260.19 374.616 259.629 374.208 258.926C373.8 258.223 373.596 257.47 373.596 256.665C373.596 255.86 373.8 255.107 374.208 254.404C374.616 253.701 375.16 253.146 375.84 252.738C376.52 252.319 377.251 252.109 378.033 252.109C378.815 252.109 379.546 252.319 380.226 252.738C380.906 253.146 381.45 253.701 381.858 254.404C382.266 255.107 382.47 255.86 382.47 256.665C382.47 257.47 382.266 258.223 381.858 258.926C381.45 259.629 380.906 260.19 380.226 260.609C379.546 261.017 378.815 261.221 378.033 261.221ZM378.033 259.079C378.645 259.079 379.149 258.852 379.546 258.399C379.954 257.946 380.158 257.368 380.158 256.665C380.158 255.962 379.954 255.384 379.546 254.931C379.149 254.478 378.645 254.251 378.033 254.251C377.421 254.251 376.911 254.478 376.503 254.931C376.106 255.384 375.908 255.962 375.908 256.665C375.908 257.368 376.106 257.946 376.503 258.399C376.911 258.852 377.421 259.079 378.033 259.079ZM383.715 261V252.33H385.449L385.823 253.18H385.908C386.09 252.953 386.39 252.721 386.809 252.483C387.229 252.234 387.716 252.109 388.271 252.109C388.963 252.109 389.569 252.268 390.09 252.585C390.623 252.891 391.037 253.333 391.332 253.911C391.626 254.478 391.774 255.135 391.774 255.883V261H389.461V256.087C389.461 255.577 389.297 255.146 388.969 254.795C388.64 254.432 388.232 254.251 387.744 254.251C387.246 254.251 386.832 254.427 386.503 254.778C386.186 255.129 386.027 255.566 386.027 256.087V261H383.715ZM396.946 261.221C396.243 261.221 395.58 261.023 394.957 260.626C394.345 260.229 393.852 259.685 393.478 258.994C393.115 258.291 392.934 257.515 392.934 256.665C392.934 255.815 393.115 255.044 393.478 254.353C393.852 253.65 394.345 253.101 394.957 252.704C395.58 252.307 396.243 252.109 396.946 252.109C397.32 252.109 397.666 252.171 397.983 252.296C398.312 252.409 398.578 252.54 398.782 252.687C398.997 252.834 399.139 252.965 399.207 253.078H399.292V249.1H401.604V261H399.87L399.496 260.15H399.411C399.218 260.388 398.907 260.626 398.476 260.864C398.045 261.102 397.535 261.221 396.946 261.221ZM397.269 259.079C397.632 259.079 397.966 258.977 398.272 258.773C398.578 258.569 398.822 258.286 399.003 257.923C399.196 257.549 399.292 257.13 399.292 256.665C399.292 256.2 399.196 255.787 399.003 255.424C398.822 255.05 398.578 254.761 398.272 254.557C397.966 254.353 397.632 254.251 397.269 254.251C396.906 254.251 396.572 254.353 396.266 254.557C395.96 254.761 395.711 255.05 395.518 255.424C395.337 255.787 395.246 256.2 395.246 256.665C395.246 257.13 395.337 257.549 395.518 257.923C395.711 258.286 395.96 258.569 396.266 258.773C396.572 258.977 396.906 259.079 397.269 259.079ZM406.82 261.221C406.128 261.221 405.516 261.068 404.984 260.762C404.462 260.445 404.054 260.003 403.76 259.436C403.465 258.858 403.318 258.195 403.318 257.447V252.33H405.63V257.243C405.63 257.753 405.794 258.189 406.123 258.552C406.451 258.903 406.859 259.079 407.347 259.079C407.845 259.079 408.253 258.903 408.571 258.552C408.899 258.201 409.064 257.764 409.064 257.243V252.33H411.376V261H409.642L409.268 260.15H409.183C409.001 260.377 408.701 260.615 408.282 260.864C407.862 261.102 407.375 261.221 406.82 261.221ZM417.058 261.221C416.276 261.221 415.545 261.017 414.865 260.609C414.185 260.19 413.641 259.629 413.233 258.926C412.825 258.223 412.621 257.47 412.621 256.665C412.621 255.86 412.825 255.107 413.233 254.404C413.641 253.701 414.185 253.146 414.865 252.738C415.545 252.319 416.276 252.109 417.058 252.109C417.772 252.109 418.424 252.279 419.013 252.619C419.602 252.948 420.084 253.384 420.458 253.928C420.832 254.461 421.076 255.016 421.189 255.594H418.877C418.832 255.435 418.735 255.254 418.588 255.05C418.441 254.835 418.237 254.648 417.976 254.489C417.715 254.33 417.409 254.251 417.058 254.251C416.446 254.251 415.936 254.478 415.528 254.931C415.131 255.384 414.933 255.962 414.933 256.665C414.933 257.368 415.131 257.946 415.528 258.399C415.936 258.852 416.446 259.079 417.058 259.079C417.409 259.079 417.715 259 417.976 258.841C418.237 258.682 418.441 258.501 418.588 258.297C418.735 258.082 418.832 257.895 418.877 257.736H421.189C421.076 258.314 420.832 258.875 420.458 259.419C420.084 259.952 419.602 260.388 419.013 260.728C418.424 261.057 417.772 261.221 417.058 261.221ZM425.712 261.221C424.851 261.221 424.148 260.938 423.604 260.371C423.06 259.804 422.788 259.034 422.788 258.059V254.387H421.445V252.5H422.04C422.369 252.5 422.624 252.415 422.805 252.245C422.987 252.064 423.077 251.809 423.077 251.48V250.154H425.1V252.33H426.885V254.387H425.1V257.821C425.1 258.229 425.202 258.535 425.406 258.739C425.622 258.943 425.916 259.045 426.29 259.045C426.528 259.045 426.727 259.005 426.885 258.926V261.034C426.534 261.159 426.143 261.221 425.712 261.221ZM438.389 256.614H439.63V258.858H438.389V261H436.043V258.858H430.773V256.784L435.601 249.1H438.389V256.614ZM436.043 256.614V252.364L433.391 256.614H436.043ZM446.306 257.43H440.594V255.39H446.306V257.43ZM452.006 252.823C452.788 252.823 453.496 253.01 454.131 253.384C454.765 253.747 455.258 254.245 455.61 254.88C455.972 255.515 456.154 256.217 456.154 256.988C456.154 257.77 455.967 258.484 455.593 259.13C455.219 259.776 454.692 260.286 454.012 260.66C453.343 261.034 452.584 261.221 451.734 261.221C450.884 261.221 450.119 261.034 449.439 260.66C448.77 260.286 448.249 259.776 447.875 259.13C447.501 258.484 447.314 257.77 447.314 256.988C447.314 256.387 447.438 255.815 447.688 255.271C447.948 254.716 448.288 254.126 448.708 253.503L451.632 249.1H454.216L451.683 252.84L452.006 252.823ZM451.734 258.977C452.289 258.977 452.759 258.79 453.145 258.416C453.53 258.042 453.723 257.566 453.723 256.988C453.723 256.41 453.53 255.934 453.145 255.56C452.759 255.186 452.289 254.999 451.734 254.999C451.167 254.999 450.691 255.186 450.306 255.56C449.932 255.923 449.745 256.399 449.745 256.988C449.745 257.577 449.932 258.059 450.306 258.433C450.691 258.796 451.167 258.977 451.734 258.977ZM463.362 261H461.05V252.33H463.362V261ZM462.206 251.225C461.844 251.225 461.538 251.1 461.288 250.851C461.039 250.602 460.914 250.296 460.914 249.933C460.914 249.57 461.039 249.264 461.288 249.015C461.538 248.766 461.844 248.641 462.206 248.641C462.569 248.641 462.875 248.766 463.124 249.015C463.374 249.264 463.498 249.57 463.498 249.933C463.498 250.296 463.374 250.602 463.124 250.851C462.875 251.1 462.569 251.225 462.206 251.225ZM465.067 261V252.33H466.801L467.175 253.18H467.26C467.441 252.953 467.742 252.721 468.161 252.483C468.58 252.234 469.068 252.109 469.623 252.109C470.314 252.109 470.921 252.268 471.442 252.585C471.975 252.891 472.388 253.333 472.683 253.911C472.978 254.478 473.125 255.135 473.125 255.883V261H470.813V256.087C470.813 255.577 470.649 255.146 470.32 254.795C469.991 254.432 469.583 254.251 469.096 254.251C468.597 254.251 468.184 254.427 467.855 254.778C467.538 255.129 467.379 255.566 467.379 256.087V261H465.067ZM478.097 261.221C477.236 261.221 476.533 260.938 475.989 260.371C475.445 259.804 475.173 259.034 475.173 258.059V254.387H473.83V252.5H474.425C474.754 252.5 475.009 252.415 475.19 252.245C475.372 252.064 475.462 251.809 475.462 251.48V250.154H477.485V252.33H479.27V254.387H477.485V257.821C477.485 258.229 477.587 258.535 477.791 258.739C478.007 258.943 478.301 259.045 478.675 259.045C478.913 259.045 479.112 259.005 479.27 258.926V261.034C478.919 261.159 478.528 261.221 478.097 261.221ZM488.615 256.529C488.615 256.948 488.581 257.271 488.513 257.498H482.274C482.399 258.019 482.643 258.427 483.005 258.722C483.379 259.017 483.827 259.164 484.348 259.164C484.983 259.164 485.499 258.949 485.895 258.518H488.326C488.156 258.937 487.884 259.357 487.51 259.776C487.148 260.195 486.694 260.541 486.15 260.813C485.606 261.085 485.017 261.221 484.382 261.221C483.578 261.221 482.835 261.017 482.155 260.609C481.475 260.201 480.937 259.651 480.54 258.96C480.144 258.257 479.945 257.492 479.945 256.665C479.945 255.86 480.144 255.107 480.54 254.404C480.948 253.701 481.492 253.146 482.172 252.738C482.852 252.319 483.578 252.109 484.348 252.109C485.13 252.109 485.844 252.302 486.49 252.687C487.148 253.072 487.663 253.605 488.037 254.285C488.423 254.954 488.615 255.702 488.615 256.529ZM484.348 254.166C483.85 254.166 483.413 254.319 483.039 254.625C482.665 254.92 482.41 255.328 482.274 255.849H486.388C486.252 255.339 485.997 254.931 485.623 254.625C485.261 254.319 484.836 254.166 484.348 254.166ZM489.866 261V252.33H491.6L491.974 253.18H492.059C492.229 252.953 492.484 252.721 492.824 252.483C493.175 252.234 493.595 252.109 494.082 252.109C494.388 252.109 494.649 252.137 494.864 252.194V254.506C494.649 254.449 494.36 254.421 493.997 254.421C493.442 254.421 493 254.591 492.671 254.931C492.342 255.26 492.178 255.719 492.178 256.308V261H489.866ZM499.558 258.263L501.564 252.33H503.91L500.646 261H498.368L495.104 252.33H497.552L499.558 258.263ZM506.918 261H504.606V252.33H506.918V261ZM505.762 251.225C505.399 251.225 505.093 251.1 504.844 250.851C504.595 250.602 504.47 250.296 504.47 249.933C504.47 249.57 504.595 249.264 504.844 249.015C505.093 248.766 505.399 248.641 505.762 248.641C506.125 248.641 506.431 248.766 506.68 249.015C506.929 249.264 507.054 249.57 507.054 249.933C507.054 250.296 506.929 250.602 506.68 250.851C506.431 251.1 506.125 251.225 505.762 251.225ZM516.833 256.529C516.833 256.948 516.799 257.271 516.731 257.498H510.492C510.617 258.019 510.861 258.427 511.223 258.722C511.597 259.017 512.045 259.164 512.566 259.164C513.201 259.164 513.717 258.949 514.113 258.518H516.544C516.374 258.937 516.102 259.357 515.728 259.776C515.366 260.195 514.912 260.541 514.368 260.813C513.824 261.085 513.235 261.221 512.6 261.221C511.796 261.221 511.053 261.017 510.373 260.609C509.693 260.201 509.155 259.651 508.758 258.96C508.362 258.257 508.163 257.492 508.163 256.665C508.163 255.86 508.362 255.107 508.758 254.404C509.166 253.701 509.71 253.146 510.39 252.738C511.07 252.319 511.796 252.109 512.566 252.109C513.348 252.109 514.062 252.302 514.708 252.687C515.366 253.072 515.881 253.605 516.255 254.285C516.641 254.954 516.833 255.702 516.833 256.529ZM512.566 254.166C512.068 254.166 511.631 254.319 511.257 254.625C510.883 254.92 510.628 255.328 510.492 255.849H514.606C514.47 255.339 514.215 254.931 513.841 254.625C513.479 254.319 513.054 254.166 512.566 254.166ZM525.657 257.804L527.289 252.33H529.55L526.728 261H524.739L523.158 256.138L521.577 261H519.588L516.749 252.33H519.112L520.744 257.736L522.478 252.33H523.906L525.657 257.804ZM532.963 261.221C532.26 261.221 531.637 261.096 531.093 260.847C530.56 260.586 530.146 260.235 529.852 259.793C529.557 259.34 529.398 258.835 529.376 258.28H531.637C531.659 258.609 531.79 258.875 532.028 259.079C532.277 259.272 532.589 259.368 532.963 259.368C533.325 259.368 533.603 259.294 533.796 259.147C534 258.988 534.102 258.796 534.102 258.569C534.102 258.286 533.966 258.065 533.694 257.906C533.422 257.747 532.997 257.577 532.419 257.396C531.829 257.215 531.342 257.033 530.957 256.852C530.583 256.671 530.26 256.41 529.988 256.07C529.716 255.719 529.58 255.271 529.58 254.727C529.58 254.228 529.71 253.781 529.971 253.384C530.231 252.987 530.611 252.676 531.11 252.449C531.608 252.222 532.203 252.109 532.895 252.109C533.552 252.109 534.13 252.234 534.629 252.483C535.139 252.732 535.535 253.078 535.819 253.52C536.102 253.951 536.266 254.432 536.312 254.965H534.034C533.954 254.296 533.575 253.962 532.895 253.962C532.566 253.962 532.317 254.03 532.147 254.166C531.977 254.291 531.892 254.455 531.892 254.659C531.892 254.908 532.016 255.107 532.266 255.254C532.526 255.39 532.94 255.543 533.507 255.713C534.107 255.894 534.6 256.076 534.986 256.257C535.371 256.427 535.705 256.693 535.989 257.056C536.272 257.407 536.414 257.866 536.414 258.433C536.414 259.26 536.108 259.935 535.496 260.456C534.895 260.966 534.051 261.221 532.963 261.221Z" fill="#242C40" fill-opacity="0.87"/>
</svg>
