<svg width="360" height="429" viewBox="0 0 360 429" fill="none" xmlns="http://www.w3.org/2000/svg">
<g clip-path="url(#clip0_2048_28490)">
<g filter="url(#filter0_d_2048_28490)">
<path d="M0 18.432C0 11.9802 0 8.75429 1.2556 6.29003C2.36007 4.1224 4.1224 2.36007 6.29003 1.2556C8.75429 0 11.9802 0 18.432 0H341.568C348.02 0 351.246 0 353.71 1.2556C355.878 2.36007 357.64 4.1224 358.744 6.29003C360 8.75429 360 11.9802 360 18.432V470H0V18.432Z" fill="white"/>
<path d="M0 18.432C0 11.9802 0 8.75429 1.2556 6.29003C2.36007 4.1224 4.1224 2.36007 6.29003 1.2556C8.75429 0 11.9802 0 18.432 0H341.568C348.02 0 351.246 0 353.71 1.2556C355.878 2.36007 357.64 4.1224 358.744 6.29003C360 8.75429 360 11.9802 360 18.432V23.04H0V18.432Z" fill="white"/>
<rect x="164.641" y="9.59961" width="30.72" height="3.84" rx="1.92" fill="#001024" fill-opacity="0.22"/>
<rect width="360" height="405.24" transform="translate(0 23.04)" fill="white"/>
<rect opacity="0.4" x="18" y="46.3203" width="5" height="60" rx="2.5" fill="#00C950"/>
<path d="M43.6445 50.1069C46.417 50.1069 48.5918 52.0825 48.5918 56.291V56.3076C48.5918 60.3169 46.6992 62.6992 43.6279 62.6992C41.312 62.6992 39.5938 61.3296 39.2202 59.4536L39.2036 59.3789H41.6606L41.6855 59.4536C41.9761 60.2007 42.6567 60.707 43.6196 60.707C45.3545 60.707 46.1182 59.0054 46.2095 56.8223C46.2095 56.7393 46.2095 56.6479 46.2095 56.5566H46.0435C45.6118 57.478 44.6157 58.3081 42.9556 58.3081C40.623 58.3081 39.0542 56.6479 39.0542 54.3818V54.3652C39.0542 51.9165 40.9468 50.1069 43.6445 50.1069ZM43.6445 56.457C44.8813 56.457 45.8359 55.5771 45.8359 54.3403V54.3237C45.8359 53.0703 44.8813 52.0991 43.6611 52.0991C42.4492 52.0991 41.478 53.0537 41.478 54.2739V54.2905C41.478 55.5522 42.3911 56.457 43.6445 56.457ZM55.0463 62.7075C52.0913 62.7075 50.29 60.2837 50.29 56.4155V56.3989C50.29 52.5225 52.0913 50.1152 55.0463 50.1152C58.0097 50.1152 59.8027 52.5225 59.8027 56.3989V56.4155C59.8027 60.2837 58.0097 62.7075 55.0463 62.7075ZM55.0463 60.7236C56.4658 60.7236 57.271 59.1216 57.271 56.4155V56.3989C57.271 53.6846 56.4658 52.0991 55.0463 52.0991C53.6352 52.0991 52.83 53.6846 52.83 56.3989V56.4155C52.83 59.1216 53.6352 60.7236 55.0463 60.7236ZM64.6137 62.4004V52.7881H64.4643L61.5258 54.8301V52.5723L64.622 50.4224H67.1205V62.4004H64.6137ZM69.3832 58.6567V56.4736H78.8378V58.6567H69.3832ZM84.7029 50.1069C87.4754 50.1069 89.6502 52.0825 89.6502 56.291V56.3076C89.6502 60.3169 87.7576 62.6992 84.6863 62.6992C82.3704 62.6992 80.6522 61.3296 80.2786 59.4536L80.262 59.3789H82.7191L82.744 59.4536C83.0345 60.2007 83.7151 60.707 84.678 60.707C86.4129 60.707 87.1766 59.0054 87.2679 56.8223C87.2679 56.7393 87.2679 56.6479 87.2679 56.5566H87.1019C86.6702 57.478 85.6741 58.3081 84.014 58.3081C81.6815 58.3081 80.1126 56.6479 80.1126 54.3818V54.3652C80.1126 51.9165 82.0052 50.1069 84.7029 50.1069ZM84.7029 56.457C85.9398 56.457 86.8943 55.5771 86.8943 54.3403V54.3237C86.8943 53.0703 85.9398 52.0991 84.7195 52.0991C83.5076 52.0991 82.5364 53.0537 82.5364 54.2739V54.2905C82.5364 55.5522 83.4495 56.457 84.7029 56.457ZM95.9304 50.1069C98.7029 50.1069 100.878 52.0825 100.878 56.291V56.3076C100.878 60.3169 98.9851 62.6992 95.9138 62.6992C93.5979 62.6992 91.8797 61.3296 91.5061 59.4536L91.4895 59.3789H93.9466L93.9715 59.4536C94.262 60.2007 94.9426 60.707 95.9055 60.707C97.6404 60.707 98.4041 59.0054 98.4954 56.8223C98.4954 56.7393 98.4954 56.6479 98.4954 56.5566H98.3294C97.8977 57.478 96.9016 58.3081 95.2415 58.3081C92.909 58.3081 91.3401 56.6479 91.3401 54.3818V54.3652C91.3401 51.9165 93.2327 50.1069 95.9304 50.1069ZM95.9304 56.457C97.1673 56.457 98.1218 55.5771 98.1218 54.3403V54.3237C98.1218 53.0703 97.1673 52.0991 95.947 52.0991C94.7351 52.0991 93.7639 53.0537 93.7639 54.2739V54.2905C93.7639 55.5522 94.677 56.457 95.9304 56.457ZM107.158 50.1069C109.93 50.1069 112.105 52.0825 112.105 56.291V56.3076C112.105 60.3169 110.213 62.6992 107.141 62.6992C104.825 62.6992 103.107 61.3296 102.734 59.4536L102.717 59.3789H105.174L105.199 59.4536C105.489 60.2007 106.17 60.707 107.133 60.707C108.868 60.707 109.632 59.0054 109.723 56.8223C109.723 56.7393 109.723 56.6479 109.723 56.5566H109.557C109.125 57.478 108.129 58.3081 106.469 58.3081C104.136 58.3081 102.568 56.6479 102.568 54.3818V54.3652C102.568 51.9165 104.46 50.1069 107.158 50.1069ZM107.158 56.457C108.395 56.457 109.349 55.5771 109.349 54.3403V54.3237C109.349 53.0703 108.395 52.0991 107.175 52.0991C105.963 52.0991 104.991 53.0537 104.991 54.2739V54.2905C104.991 55.5522 105.905 56.457 107.158 56.457Z" fill="#9299A2"/>
<path d="M39.2075 83.2402V73.7705H42.83C44.5691 73.7705 45.6322 74.6827 45.6322 76.1265V76.1396C45.6322 77.1174 44.9103 78.0099 43.9981 78.174V78.279C45.2909 78.443 46.1113 79.329 46.1113 80.5759V80.589C46.1113 82.2493 44.9169 83.2402 42.9022 83.2402H39.2075ZM42.5806 74.814H40.3888V77.8524H42.2788C43.7094 77.8524 44.4378 77.3405 44.4378 76.343V76.3299C44.4378 75.3718 43.7553 74.814 42.5806 74.814ZM42.6134 78.8696H40.3888V82.1968H42.725C44.1491 82.1968 44.8972 81.6193 44.8972 80.5299V80.5168C44.8972 79.4274 44.1228 78.8696 42.6134 78.8696ZM50.5534 83.3649C48.5321 83.3649 47.3115 81.9474 47.3115 79.7293V79.7227C47.3115 77.5374 48.5584 76.0412 50.4812 76.0412C52.404 76.0412 53.5721 77.4718 53.5721 79.5849V80.0312H48.4796C48.5124 81.4946 49.3196 82.3477 50.5796 82.3477C51.5377 82.3477 52.1284 81.8949 52.3187 81.4684L52.3449 81.4093H53.4868L53.4737 81.4618C53.2309 82.4199 52.2202 83.3649 50.5534 83.3649ZM50.4746 77.0584C49.4246 77.0584 48.624 77.7737 48.4993 79.119H52.4105C52.2924 77.7212 51.518 77.0584 50.4746 77.0584ZM57.5417 83.3649C55.9667 83.3649 54.8839 82.6037 54.7526 81.4355H55.9208C56.1111 82.0262 56.6755 82.4134 57.5811 82.4134C58.5326 82.4134 59.2086 81.9605 59.2086 81.3174V81.3043C59.2086 80.8252 58.8476 80.4905 57.9748 80.2805L56.8789 80.018C55.5533 79.703 54.9561 79.1255 54.9561 78.1084V78.1018C54.9561 76.9271 56.0848 76.0412 57.5876 76.0412C59.0708 76.0412 60.1011 76.7827 60.2586 77.9377H59.1364C58.9855 77.3799 58.4342 76.9927 57.5811 76.9927C56.7411 76.9927 56.1242 77.4259 56.1242 78.0493V78.0624C56.1242 78.5415 56.4786 78.8434 57.312 79.0468L58.4014 79.3093C59.7336 79.6309 60.3767 80.2084 60.3767 81.219V81.2321C60.3767 82.4921 59.1495 83.3649 57.5417 83.3649ZM64.366 83.2927C62.9091 83.2927 62.2988 82.7546 62.2988 81.4027V77.1109H61.1832V76.1659H62.2988V74.3349H63.4801V76.1659H65.0288V77.1109H63.4801V81.114C63.4801 81.9474 63.7688 82.2821 64.5038 82.2821C64.7072 82.2821 64.8188 82.2755 65.0288 82.2559V83.2271C64.8057 83.2665 64.5891 83.2927 64.366 83.2927ZM72.9483 83.3649C70.9664 83.3649 69.6999 81.9277 69.6999 79.6834V79.6702C69.6999 77.4718 70.9599 76.0412 72.9418 76.0412C74.6611 76.0412 75.6914 77.0321 75.9014 78.2921L75.908 78.3315H74.7727L74.7661 78.3118C74.5889 77.6162 73.9589 77.0518 72.9418 77.0518C71.6686 77.0518 70.868 78.0755 70.868 79.6702V79.6834C70.868 81.3109 71.6818 82.3543 72.9418 82.3543C73.8933 82.3543 74.4971 81.9343 74.7596 81.1468L74.7727 81.1074L75.9014 81.1009L75.8883 81.173C75.5996 82.4527 74.648 83.3649 72.9483 83.3649ZM77.4101 83.2402V73.3571H78.552V77.229H78.657C79.0113 76.4809 79.6742 76.0412 80.7176 76.0412C82.3057 76.0412 83.1917 76.9796 83.1917 78.6596V83.2402H82.0498V78.9352C82.0498 77.6621 81.5248 77.0518 80.396 77.0518C79.2673 77.0518 78.552 77.813 78.552 79.0534V83.2402H77.4101ZM86.971 83.3649C85.6256 83.3649 84.6085 82.5512 84.6085 81.2649V81.2518C84.6085 79.9918 85.5403 79.2634 87.1875 79.1649L89.2153 79.0402V78.3971C89.2153 77.5243 88.6838 77.0518 87.6272 77.0518C86.7806 77.0518 86.2228 77.3668 86.0391 77.918L86.0325 77.9377H84.8906L84.8972 77.8984C85.081 76.7893 86.1572 76.0412 87.6666 76.0412C89.3925 76.0412 90.3572 76.9271 90.3572 78.3971V83.2402H89.2153V82.1968H89.1103C88.6641 82.9515 87.9225 83.3649 86.971 83.3649ZM85.7766 81.2387C85.7766 81.954 86.3869 82.374 87.2072 82.374C88.3688 82.374 89.2153 81.6127 89.2153 80.6021V79.959L87.3253 80.0771C86.2491 80.1427 85.7766 80.5234 85.7766 81.2255V81.2387ZM92.2137 83.2402V76.1659H93.3556V77.229H93.4606C93.8149 76.4809 94.4777 76.0412 95.5212 76.0412C97.1093 76.0412 97.9952 76.9796 97.9952 78.6596V83.2402H96.8534V78.9352C96.8534 77.6621 96.3284 77.0518 95.1996 77.0518C94.0709 77.0518 93.3556 77.813 93.3556 79.0534V83.2402H92.2137ZM102.726 83.3649C100.744 83.3649 99.4777 81.9277 99.4777 79.6834V79.6702C99.4777 77.4718 100.738 76.0412 102.72 76.0412C104.439 76.0412 105.469 77.0321 105.679 78.2921L105.686 78.3315H104.55L104.544 78.3118C104.367 77.6162 103.737 77.0518 102.72 77.0518C101.446 77.0518 100.646 78.0755 100.646 79.6702V79.6834C100.646 81.3109 101.46 82.3543 102.72 82.3543C103.671 82.3543 104.275 81.9343 104.537 81.1468L104.55 81.1074L105.679 81.1009L105.666 81.173C105.377 82.4527 104.426 83.3649 102.726 83.3649ZM110.01 83.3649C107.989 83.3649 106.768 81.9474 106.768 79.7293V79.7227C106.768 77.5374 108.015 76.0412 109.938 76.0412C111.86 76.0412 113.029 77.4718 113.029 79.5849V80.0312H107.936C107.969 81.4946 108.776 82.3477 110.036 82.3477C110.994 82.3477 111.585 81.8949 111.775 81.4684L111.801 81.4093H112.943L112.93 81.4618C112.687 82.4199 111.677 83.3649 110.01 83.3649ZM109.931 77.0584C108.881 77.0584 108.08 77.7737 107.956 79.119H111.867C111.749 77.7212 110.974 77.0584 109.931 77.0584ZM118.592 83.2402V77.1109H117.417V76.1659H118.592V75.3784C118.592 73.9674 119.301 73.2915 120.646 73.2915C120.922 73.2915 121.171 73.3112 121.407 73.3571V74.2693C121.27 74.243 121.079 74.2365 120.876 74.2365C120.062 74.2365 119.734 74.6368 119.734 75.4112V76.1659H121.342V77.1109H119.734V83.2402H118.592ZM125.364 83.3649C123.349 83.3649 122.102 81.9737 122.102 79.7096V79.6965C122.102 77.4259 123.349 76.0412 125.364 76.0412C127.379 76.0412 128.625 77.4259 128.625 79.6965V79.7096C128.625 81.9737 127.379 83.3649 125.364 83.3649ZM125.364 82.3543C126.703 82.3543 127.457 81.3765 127.457 79.7096V79.6965C127.457 78.023 126.703 77.0518 125.364 77.0518C124.025 77.0518 123.27 78.023 123.27 79.6965V79.7096C123.27 81.3765 124.025 82.3543 125.364 82.3543ZM130.167 83.2402V76.1659H131.309V77.2159H131.414C131.683 76.4743 132.346 76.0412 133.304 76.0412C133.52 76.0412 133.763 76.0674 133.875 76.0871V77.1962C133.638 77.1568 133.422 77.1305 133.173 77.1305C132.083 77.1305 131.309 77.8196 131.309 78.8565V83.2402H130.167ZM140.547 83.3649C139.202 83.3649 138.185 82.5512 138.185 81.2649V81.2518C138.185 79.9918 139.117 79.2634 140.764 79.1649L142.792 79.0402V78.3971C142.792 77.5243 142.26 77.0518 141.204 77.0518C140.357 77.0518 139.799 77.3668 139.615 77.918L139.609 77.9377H138.467L138.474 77.8984C138.657 76.7893 139.734 76.0412 141.243 76.0412C142.969 76.0412 143.934 76.9271 143.934 78.3971V83.2402H142.792V82.1968H142.687C142.24 82.9515 141.499 83.3649 140.547 83.3649ZM139.353 81.2387C139.353 81.954 139.963 82.374 140.784 82.374C141.945 82.374 142.792 81.6127 142.792 80.6021V79.959L140.902 80.0771C139.825 80.1427 139.353 80.5234 139.353 81.2255V81.2387ZM149.405 83.2402V73.3571H150.547V83.2402H149.405ZM155.416 83.3649C153.401 83.3649 152.154 81.9737 152.154 79.7096V79.6965C152.154 77.4259 153.401 76.0412 155.416 76.0412C157.431 76.0412 158.677 77.4259 158.677 79.6965V79.7096C158.677 81.9737 157.431 83.3649 155.416 83.3649ZM155.416 82.3543C156.755 82.3543 157.509 81.3765 157.509 79.7096V79.6965C157.509 78.023 156.755 77.0518 155.416 77.0518C154.077 77.0518 153.322 78.023 153.322 79.6965V79.7096C153.322 81.3765 154.077 82.3543 155.416 82.3543ZM162.161 83.3649C160.816 83.3649 159.799 82.5512 159.799 81.2649V81.2518C159.799 79.9918 160.731 79.2634 162.378 79.1649L164.406 79.0402V78.3971C164.406 77.5243 163.874 77.0518 162.818 77.0518C161.971 77.0518 161.413 77.3668 161.23 77.918L161.223 77.9377H160.081L160.088 77.8984C160.271 76.7893 161.348 76.0412 162.857 76.0412C164.583 76.0412 165.548 76.9271 165.548 78.3971V83.2402H164.406V82.1968H164.301C163.855 82.9515 163.113 83.3649 162.161 83.3649ZM160.967 81.2387C160.967 81.954 161.577 82.374 162.398 82.374C163.559 82.374 164.406 81.6127 164.406 80.6021V79.959L162.516 80.0771C161.44 80.1427 160.967 80.5234 160.967 81.2255V81.2387ZM167.404 83.2402V76.1659H168.546V77.229H168.651C169.005 76.4809 169.668 76.0412 170.712 76.0412C172.3 76.0412 173.186 76.9796 173.186 78.6596V83.2402H172.044V78.9352C172.044 77.6621 171.519 77.0518 170.39 77.0518C169.261 77.0518 168.546 77.813 168.546 79.0534V83.2402H167.404ZM179.937 83.2402L177.955 76.1659H179.097L180.488 81.8227H180.593L182.175 76.1659H183.258L184.839 81.8227H184.944L186.335 76.1659H187.471L185.489 83.2402H184.34L182.759 77.7671H182.654L181.079 83.2402H179.937ZM189.354 74.8009C188.92 74.8009 188.566 74.4465 188.566 74.0134C188.566 73.5802 188.92 73.2259 189.354 73.2259C189.787 73.2259 190.141 73.5802 190.141 74.0134C190.141 74.4465 189.787 74.8009 189.354 74.8009ZM188.776 83.2402V76.1659H189.918V83.2402H188.776ZM194.353 83.2927C192.897 83.2927 192.286 82.7546 192.286 81.4027V77.1109H191.171V76.1659H192.286V74.3349H193.468V76.1659H195.016V77.1109H193.468V81.114C193.468 81.9474 193.756 82.2821 194.491 82.2821C194.695 82.2821 194.806 82.2755 195.016 82.2559V83.2271C194.793 83.2665 194.577 83.2927 194.353 83.2927ZM196.558 83.2402V73.3571H197.7V77.229H197.805C198.159 76.4809 198.822 76.0412 199.865 76.0412C201.453 76.0412 202.339 76.9796 202.339 78.6596V83.2402H201.197V78.9352C201.197 77.6621 200.672 77.0518 199.544 77.0518C198.415 77.0518 197.7 77.813 197.7 79.0534V83.2402H196.558ZM210.239 83.2927C208.782 83.2927 208.172 82.7546 208.172 81.4027V77.1109H207.056V76.1659H208.172V74.3349H209.353V76.1659H210.902V77.1109H209.353V81.114C209.353 81.9474 209.642 82.2821 210.377 82.2821C210.58 82.2821 210.692 82.2755 210.902 82.2559V83.2271C210.679 83.2665 210.462 83.2927 210.239 83.2927ZM215.18 83.3649C213.165 83.3649 211.918 81.9737 211.918 79.7096V79.6965C211.918 77.4259 213.165 76.0412 215.18 76.0412C217.195 76.0412 218.442 77.4259 218.442 79.6965V79.7096C218.442 81.9737 217.195 83.3649 215.18 83.3649ZM215.18 82.3543C216.519 82.3543 217.273 81.3765 217.273 79.7096V79.6965C217.273 78.023 216.519 77.0518 215.18 77.0518C213.841 77.0518 213.087 78.023 213.087 79.6965V79.7096C213.087 81.3765 213.841 82.3543 215.18 82.3543ZM219.983 85.6027V76.1659H221.125V77.2946H221.23C221.663 76.5071 222.451 76.0412 223.435 76.0412C225.226 76.0412 226.401 77.4915 226.401 79.6965V79.7096C226.401 81.9277 225.233 83.3649 223.435 83.3649C222.464 83.3649 221.617 82.8793 221.23 82.1246H221.125V85.6027H219.983ZM223.172 82.3543C224.465 82.3543 225.233 81.3568 225.233 79.7096V79.6965C225.233 78.0493 224.465 77.0518 223.172 77.0518C221.886 77.0518 221.099 78.0624 221.099 79.6965V79.7096C221.099 81.3437 221.886 82.3543 223.172 82.3543ZM234.019 83.2927C232.562 83.2927 231.952 82.7546 231.952 81.4027V77.1109H230.836V76.1659H231.952V74.3349H233.133V76.1659H234.682V77.1109H233.133V81.114C233.133 81.9474 233.422 82.2821 234.157 82.2821C234.36 82.2821 234.472 82.2755 234.682 82.2559V83.2271C234.458 83.2665 234.242 83.2927 234.019 83.2927ZM238.94 83.3649C236.919 83.3649 235.698 81.9474 235.698 79.7293V79.7227C235.698 77.5374 236.945 76.0412 238.868 76.0412C240.791 76.0412 241.959 77.4718 241.959 79.5849V80.0312H236.866C236.899 81.4946 237.706 82.3477 238.966 82.3477C239.924 82.3477 240.515 81.8949 240.705 81.4684L240.731 81.4093H241.873L241.86 81.4618C241.617 82.4199 240.607 83.3649 238.94 83.3649ZM238.861 77.0584C237.811 77.0584 237.011 77.7737 236.886 79.119H240.797C240.679 77.7212 239.905 77.0584 238.861 77.0584ZM243.5 83.2402V76.1659H244.642V77.2159H244.747C245.016 76.4743 245.679 76.0412 246.637 76.0412C246.854 76.0412 247.096 76.0674 247.208 76.0871V77.1962C246.972 77.1568 246.755 77.1305 246.506 77.1305C245.416 77.1305 244.642 77.8196 244.642 78.8565V83.2402H243.5ZM248.52 83.2402V76.1659H249.662V77.2421H249.767C250.082 76.4809 250.751 76.0412 251.676 76.0412C252.634 76.0412 253.304 76.5465 253.632 77.2815H253.737C254.118 76.5334 254.925 76.0412 255.903 76.0412C257.346 76.0412 258.154 76.868 258.154 78.3512V83.2402H257.012V78.6137C257.012 77.5702 256.533 77.0518 255.535 77.0518C254.551 77.0518 253.901 77.7934 253.901 78.6924V83.2402H252.759V78.4365C252.759 77.5965 252.182 77.0518 251.289 77.0518C250.364 77.0518 249.662 77.859 249.662 78.8565V83.2402H248.52ZM262.412 83.3649C260.837 83.3649 259.754 82.6037 259.623 81.4355H260.791C260.981 82.0262 261.546 82.4134 262.451 82.4134C263.403 82.4134 264.079 81.9605 264.079 81.3174V81.3043C264.079 80.8252 263.718 80.4905 262.845 80.2805L261.749 80.018C260.423 79.703 259.826 79.1255 259.826 78.1084V78.1018C259.826 76.9271 260.955 76.0412 262.458 76.0412C263.941 76.0412 264.971 76.7827 265.129 77.9377H264.007C263.856 77.3799 263.304 76.9927 262.451 76.9927C261.611 76.9927 260.994 77.4259 260.994 78.0493V78.0624C260.994 78.5415 261.349 78.8434 262.182 79.0468L263.272 79.3093C264.604 79.6309 265.247 80.2084 265.247 81.219V81.2321C265.247 82.4921 264.02 83.3649 262.412 83.3649ZM267.72 78.2265C267.254 78.2265 266.867 77.8393 266.867 77.3734C266.867 76.9009 267.254 76.5202 267.72 76.5202C268.193 76.5202 268.573 76.9009 268.573 77.3734C268.573 77.8393 268.193 78.2265 267.72 78.2265ZM267.72 83.3059C267.254 83.3059 266.867 82.9187 266.867 82.4527C266.867 81.9802 267.254 81.5996 267.72 81.5996C268.193 81.5996 268.573 81.9802 268.573 82.4527C268.573 82.9187 268.193 83.3059 267.72 83.3059ZM274.163 83.2402V73.3571H275.305V83.2402H274.163ZM280.174 83.3649C278.159 83.3649 276.912 81.9737 276.912 79.7096V79.6965C276.912 77.4259 278.159 76.0412 280.174 76.0412C282.188 76.0412 283.435 77.4259 283.435 79.6965V79.7096C283.435 81.9737 282.188 83.3649 280.174 83.3649ZM280.174 82.3543C281.512 82.3543 282.267 81.3765 282.267 79.7096V79.6965C282.267 78.023 281.512 77.0518 280.174 77.0518C278.835 77.0518 278.08 78.023 278.08 79.6965V79.7096C278.08 81.3765 278.835 82.3543 280.174 82.3543ZM286.079 83.2402L284.097 76.1659H285.239L286.63 81.8227H286.735L288.317 76.1659H289.4L290.981 81.8227H291.086L292.478 76.1659H293.613L291.631 83.2402H290.483L288.901 77.7671H288.796L287.221 83.2402H286.079ZM298.442 83.2402V76.1659H299.583V77.2159H299.688C299.958 76.4743 300.62 76.0412 301.578 76.0412C301.795 76.0412 302.038 76.0674 302.149 76.0871V77.1962C301.913 77.1568 301.697 77.1305 301.447 77.1305C300.358 77.1305 299.583 77.8196 299.583 78.8565V83.2402H298.442ZM305.272 83.3649C303.927 83.3649 302.91 82.5512 302.91 81.2649V81.2518C302.91 79.9918 303.842 79.2634 305.489 79.1649L307.517 79.0402V78.3971C307.517 77.5243 306.985 77.0518 305.929 77.0518C305.082 77.0518 304.524 77.3668 304.341 77.918L304.334 77.9377H303.192L303.199 77.8984C303.382 76.7893 304.459 76.0412 305.968 76.0412C307.694 76.0412 308.659 76.9271 308.659 78.3971V83.2402H307.517V82.1968H307.412C306.966 82.9515 306.224 83.3649 305.272 83.3649ZM304.078 81.2387C304.078 81.954 304.688 82.374 305.509 82.374C306.67 82.374 307.517 81.6127 307.517 80.6021V79.959L305.627 80.0771C304.551 80.1427 304.078 80.5234 304.078 81.2255V81.2387ZM313.029 83.2927C311.572 83.2927 310.961 82.7546 310.961 81.4027V77.1109H309.846V76.1659H310.961V74.3349H312.143V76.1659H313.691V77.1109H312.143V81.114C312.143 81.9474 312.431 82.2821 313.166 82.2821C313.37 82.2821 313.481 82.2755 313.691 82.2559V83.2271C313.468 83.2665 313.252 83.2927 313.029 83.2927ZM317.95 83.3649C315.928 83.3649 314.708 81.9474 314.708 79.7293V79.7227C314.708 77.5374 315.955 76.0412 317.878 76.0412C319.8 76.0412 320.968 77.4718 320.968 79.5849V80.0312H315.876C315.909 81.4946 316.716 82.3477 317.976 82.3477C318.934 82.3477 319.525 81.8949 319.715 81.4684L319.741 81.4093H320.883L320.87 81.4618C320.627 82.4199 319.617 83.3649 317.95 83.3649ZM317.871 77.0584C316.821 77.0584 316.02 77.7737 315.896 79.119H319.807C319.689 77.7212 318.914 77.0584 317.871 77.0584ZM41.0056 99.3649C39.6603 99.3649 38.6431 98.5512 38.6431 97.2649V97.2518C38.6431 95.9918 39.575 95.2634 41.2222 95.1649L43.25 95.0402V94.3971C43.25 93.5243 42.7184 93.0518 41.6619 93.0518C40.8153 93.0518 40.2575 93.3668 40.0738 93.918L40.0672 93.9377H38.9253L38.9319 93.8984C39.1156 92.7893 40.1919 92.0412 41.7013 92.0412C43.4272 92.0412 44.3919 92.9271 44.3919 94.3971V99.2402H43.25V98.1968H43.145C42.6988 98.9515 41.9572 99.3649 41.0056 99.3649ZM39.8113 97.2387C39.8113 97.954 40.4216 98.374 41.2419 98.374C42.4034 98.374 43.25 97.6127 43.25 96.6021V95.959L41.36 96.0771C40.2838 96.1427 39.8113 96.5234 39.8113 97.2255V97.2387ZM46.2484 99.2402V92.1659H47.3902V93.229H47.4952C47.8496 92.4809 48.5124 92.0412 49.5559 92.0412C51.144 92.0412 52.0299 92.9796 52.0299 94.6596V99.2402H50.888V94.9352C50.888 93.6621 50.363 93.0518 49.2343 93.0518C48.1055 93.0518 47.3902 93.813 47.3902 95.0534V99.2402H46.2484ZM56.4786 99.3649C54.687 99.3649 53.5123 97.9146 53.5123 95.7096V95.6965C53.5123 93.4784 54.6805 92.0412 56.4786 92.0412C57.4498 92.0412 58.2964 92.5268 58.6836 93.2815H58.7886V89.3571H59.9305V99.2402H58.7886V98.1115H58.6836C58.2505 98.899 57.463 99.3649 56.4786 99.3649ZM56.7411 98.3543C58.0273 98.3543 58.8148 97.3437 58.8148 95.7096V95.6965C58.8148 94.0624 58.0273 93.0518 56.7411 93.0518C55.4483 93.0518 54.6805 94.0493 54.6805 95.6965V95.7096C54.6805 97.3568 55.4483 98.3543 56.7411 98.3543ZM65.5072 99.2402V89.3571H66.649V93.229H66.754C67.1084 92.4809 67.7712 92.0412 68.8147 92.0412C70.4028 92.0412 71.2887 92.9796 71.2887 94.6596V99.2402H70.1468V94.9352C70.1468 93.6621 69.6218 93.0518 68.4931 93.0518C67.3643 93.0518 66.649 93.813 66.649 95.0534V99.2402H65.5072ZM73.7293 90.8009C73.2961 90.8009 72.9418 90.4465 72.9418 90.0134C72.9418 89.5802 73.2961 89.2259 73.7293 89.2259C74.1624 89.2259 74.5168 89.5802 74.5168 90.0134C74.5168 90.4465 74.1624 90.8009 73.7293 90.8009ZM73.1518 99.2402V92.1659H74.2936V99.2402H73.1518ZM79.1295 101.734C77.4232 101.734 76.3339 100.966 76.1567 99.8046L76.1698 99.798H77.351L77.3576 99.8046C77.4823 100.343 78.1123 100.723 79.1295 100.723C80.396 100.723 81.1507 100.126 81.1507 99.0827V97.6521H81.0457C80.5995 98.433 79.7989 98.8727 78.8276 98.8727C76.9967 98.8727 75.8614 97.4552 75.8614 95.4734V95.4602C75.8614 93.4784 77.0032 92.0412 78.8539 92.0412C79.8514 92.0412 80.6257 92.5334 81.0589 93.334H81.1376V92.1659H82.2795V99.1418C82.2795 100.723 81.0589 101.734 79.1295 101.734ZM79.077 97.8621C80.3895 97.8621 81.177 96.8777 81.177 95.4734V95.4602C81.177 94.0559 80.3829 93.0518 79.077 93.0518C77.7645 93.0518 77.0295 94.0559 77.0295 95.4602V95.4734C77.0295 96.8777 77.7645 97.8621 79.077 97.8621ZM84.241 99.2402V89.3571H85.3828V93.229H85.4878C85.8422 92.4809 86.505 92.0412 87.5485 92.0412C89.1366 92.0412 90.0225 92.9796 90.0225 94.6596V99.2402H88.8806V94.9352C88.8806 93.6621 88.3556 93.0518 87.2269 93.0518C86.0981 93.0518 85.3828 93.813 85.3828 95.0534V99.2402H84.241ZM97.3514 99.3649C96.0061 99.3649 94.9889 98.5512 94.9889 97.2649V97.2518C94.9889 95.9918 95.9208 95.2634 97.568 95.1649L99.5958 95.0402V94.3971C99.5958 93.5243 99.0642 93.0518 98.0077 93.0518C97.1611 93.0518 96.6033 93.3668 96.4195 93.918L96.413 93.9377H95.2711L95.2777 93.8984C95.4614 92.7893 96.5377 92.0412 98.047 92.0412C99.773 92.0412 100.738 92.9271 100.738 94.3971V99.2402H99.5958V98.1968H99.4908C99.0445 98.9515 98.303 99.3649 97.3514 99.3649ZM96.157 97.2387C96.157 97.954 96.7673 98.374 97.5877 98.374C98.7492 98.374 99.5958 97.6127 99.5958 96.6021V95.959L97.7058 96.0771C96.6295 96.1427 96.157 96.5234 96.157 97.2255V97.2387ZM102.594 99.2402V92.1659H103.736V93.2421H103.841C104.156 92.4809 104.825 92.0412 105.751 92.0412C106.709 92.0412 107.378 92.5465 107.706 93.2815H107.811C108.192 92.5334 108.999 92.0412 109.977 92.0412C111.421 92.0412 112.228 92.868 112.228 94.3512V99.2402H111.086V94.6137C111.086 93.5702 110.607 93.0518 109.609 93.0518C108.625 93.0518 107.975 93.7934 107.975 94.6924V99.2402H106.834V94.4365C106.834 93.5965 106.256 93.0518 105.364 93.0518C104.438 93.0518 103.736 93.859 103.736 94.8565V99.2402H102.594ZM116.965 99.3649C114.951 99.3649 113.704 97.9737 113.704 95.7096V95.6965C113.704 93.4259 114.951 92.0412 116.965 92.0412C118.98 92.0412 120.227 93.4259 120.227 95.6965V95.7096C120.227 97.9737 118.98 99.3649 116.965 99.3649ZM116.965 98.3543C118.304 98.3543 119.059 97.3765 119.059 95.7096V95.6965C119.059 94.023 118.304 93.0518 116.965 93.0518C115.627 93.0518 114.872 94.023 114.872 95.6965V95.7096C114.872 97.3765 115.627 98.3543 116.965 98.3543ZM124.137 99.3649C122.53 99.3649 121.703 98.4199 121.703 96.7465V92.1659H122.845V96.4709C122.845 97.744 123.304 98.3543 124.433 98.3543C125.68 98.3543 126.342 97.593 126.342 96.3527V92.1659H127.484V99.2402H126.342V98.1837H126.237C125.89 98.9384 125.174 99.3649 124.137 99.3649ZM129.387 99.2402V92.1659H130.529V93.229H130.634C130.988 92.4809 131.651 92.0412 132.694 92.0412C134.282 92.0412 135.168 92.9796 135.168 94.6596V99.2402H134.026V94.9352C134.026 93.6621 133.501 93.0518 132.373 93.0518C131.244 93.0518 130.529 93.813 130.529 95.0534V99.2402H129.387ZM139.518 99.2927C138.062 99.2927 137.451 98.7546 137.451 97.4027V93.1109H136.336V92.1659H137.451V90.3349H138.633V92.1659H140.181V93.1109H138.633V97.114C138.633 97.9474 138.921 98.2821 139.656 98.2821C139.86 98.2821 139.971 98.2755 140.181 98.2559V99.2271C139.958 99.2665 139.742 99.2927 139.518 99.2927Z" fill="#9299A2"/>
<rect opacity="0.4" x="18" y="119.24" width="5" height="60" rx="2.5" fill="#66D581"/>
<path d="M39.7432 143.32L44.8481 133.476V133.334H38.8052V131.334H47.3716V133.359L42.3662 143.32H39.7432ZM53.4692 143.627C50.9043 143.627 49.2109 142.1 49.0698 140.1L49.0615 139.983H51.3359L51.3525 140.042C51.5268 140.921 52.3486 141.627 53.4775 141.627C54.7641 141.627 55.6606 140.722 55.6606 139.436V139.419C55.6606 138.141 54.7558 137.252 53.4858 137.252C52.8798 137.252 52.3652 137.427 51.9668 137.767C51.7426 137.95 51.5434 138.174 51.4106 138.431H49.2607L49.8168 131.342H57.3042V133.334H51.7675L51.4687 136.746H51.6181C52.0996 135.941 53.0293 135.443 54.1748 135.443C56.4077 135.443 58.018 137.086 58.018 139.369V139.386C58.018 141.909 56.1586 143.627 53.4692 143.627ZM62.5883 143.32V133.708H62.4389L59.5004 135.75V133.492L62.5966 131.342H65.0951V143.32H62.5883ZM67.3578 139.577V137.394H76.8124V139.577H67.3578ZM82.6776 131.027C85.45 131.027 87.6248 133.002 87.6248 137.211V137.228C87.6248 141.237 85.7322 143.619 82.6609 143.619C80.345 143.619 78.6268 142.25 78.2532 140.374L78.2366 140.299H80.6937L80.7186 140.374C81.0091 141.121 81.6898 141.627 82.6526 141.627C84.3875 141.627 85.1512 139.925 85.2425 137.742C85.2425 137.659 85.2425 137.568 85.2425 137.477H85.0765C84.6448 138.398 83.6487 139.228 81.9886 139.228C79.6561 139.228 78.0872 137.568 78.0872 135.302V135.285C78.0872 132.836 79.9798 131.027 82.6776 131.027ZM82.6776 137.377C83.9144 137.377 84.869 136.497 84.869 135.26V135.244C84.869 133.99 83.9144 133.019 82.6942 133.019C81.4822 133.019 80.511 133.974 80.511 135.194V135.21C80.511 136.472 81.4241 137.377 82.6776 137.377ZM94.0794 143.627C91.1243 143.627 89.323 141.204 89.323 137.335V137.319C89.323 133.442 91.1243 131.035 94.0794 131.035C97.0427 131.035 98.8357 133.442 98.8357 137.319V137.335C98.8357 141.204 97.0427 143.627 94.0794 143.627ZM94.0794 141.644C95.4988 141.644 96.304 140.042 96.304 137.335V137.319C96.304 134.604 95.4988 133.019 94.0794 133.019C92.6682 133.019 91.8631 134.604 91.8631 137.319V137.335C91.8631 140.042 92.6682 141.644 94.0794 141.644ZM105.323 143.627C102.368 143.627 100.567 141.204 100.567 137.335V137.319C100.567 133.442 102.368 131.035 105.323 131.035C108.287 131.035 110.08 133.442 110.08 137.319V137.335C110.08 141.204 108.287 143.627 105.323 143.627ZM105.323 141.644C106.743 141.644 107.548 140.042 107.548 137.335V137.319C107.548 134.604 106.743 133.019 105.323 133.019C103.912 133.019 103.107 134.604 103.107 137.319V137.335C103.107 140.042 103.912 141.644 105.323 141.644Z" fill="#9299A2"/>
<path d="M41.9441 164.16L38.4528 154.69H39.6931L42.4756 162.631H42.5806L45.3631 154.69H46.6034L43.1122 164.16H41.9441ZM50.0242 164.285C48.003 164.285 46.7824 162.867 46.7824 160.649V160.643C46.7824 158.457 48.0292 156.961 49.952 156.961C51.8749 156.961 53.043 158.392 53.043 160.505V160.951H47.9505C47.9833 162.415 48.7905 163.268 50.0505 163.268C51.0086 163.268 51.5992 162.815 51.7895 162.388L51.8158 162.329H52.9577L52.9445 162.382C52.7017 163.34 51.6911 164.285 50.0242 164.285ZM49.9455 157.978C48.8955 157.978 48.0949 158.694 47.9702 160.039H51.8814C51.7633 158.641 50.9889 157.978 49.9455 157.978ZM54.4885 164.16V157.086H55.6303V158.136H55.7353C56.0044 157.394 56.6672 156.961 57.6253 156.961C57.8419 156.961 58.0847 156.987 58.1963 157.007V158.116C57.96 158.077 57.7435 158.05 57.4941 158.05C56.4047 158.05 55.6303 158.74 55.6303 159.776V164.16H54.4885ZM59.9502 166.641C59.7992 166.641 59.6024 166.628 59.4449 166.601V165.663C59.5827 165.689 59.7599 165.696 59.9174 165.696C60.5671 165.696 60.9608 165.4 61.2167 164.587L61.348 164.167L58.7296 157.086H59.9502L61.8927 162.907H61.9977L63.9336 157.086H65.1346L62.3717 164.593C61.7877 166.181 61.2036 166.641 59.9502 166.641ZM69.8368 164.16V154.277H70.9786V158.149H71.0836C71.438 157.401 72.1008 156.961 73.1443 156.961C74.7324 156.961 75.6183 157.9 75.6183 159.58V164.16H74.4764V159.855C74.4764 158.582 73.9514 157.972 72.8227 157.972C71.6939 157.972 70.9786 158.733 70.9786 159.973V164.16H69.8368ZM77.9629 155.721C77.5297 155.721 77.1754 155.366 77.1754 154.933C77.1754 154.5 77.5297 154.146 77.9629 154.146C78.396 154.146 78.7504 154.5 78.7504 154.933C78.7504 155.366 78.396 155.721 77.9629 155.721ZM77.3854 164.16V157.086H78.5272V164.16H77.3854ZM83.2671 166.654C81.5608 166.654 80.4715 165.886 80.2943 164.725L80.3074 164.718H81.4886L81.4952 164.725C81.6199 165.263 82.2499 165.643 83.2671 165.643C84.5336 165.643 85.2883 165.046 85.2883 164.003V162.572H85.1833C84.7371 163.353 83.9365 163.793 82.9652 163.793C81.1343 163.793 79.999 162.375 79.999 160.393V160.38C79.999 158.398 81.1408 156.961 82.9915 156.961C83.989 156.961 84.7633 157.453 85.1965 158.254H85.2752V157.086H86.4171V164.062C86.4171 165.643 85.1965 166.654 83.2671 166.654ZM83.2146 162.782C84.5271 162.782 85.3146 161.798 85.3146 160.393V160.38C85.3146 158.976 84.5205 157.972 83.2146 157.972C81.9021 157.972 81.1671 158.976 81.1671 160.38V160.393C81.1671 161.798 81.9021 162.782 83.2146 162.782ZM88.2826 164.16V154.277H89.4244V158.149H89.5294C89.8838 157.401 90.5466 156.961 91.5901 156.961C93.1782 156.961 94.0641 157.9 94.0641 159.58V164.16H92.9222V159.855C92.9222 158.582 92.3972 157.972 91.2685 157.972C90.1397 157.972 89.4244 158.733 89.4244 159.973V164.16H88.2826ZM102.153 164.285C100.171 164.285 98.9041 162.848 98.9041 160.603V160.59C98.9041 158.392 100.164 156.961 102.146 156.961C103.865 156.961 104.896 157.952 105.106 159.212L105.112 159.251H103.977L103.97 159.232C103.793 158.536 103.163 157.972 102.146 157.972C100.873 157.972 100.072 158.995 100.072 160.59V160.603C100.072 162.231 100.886 163.274 102.146 163.274C103.098 163.274 103.701 162.854 103.964 162.067L103.977 162.027L105.106 162.021L105.093 162.093C104.804 163.373 103.852 164.285 102.153 164.285ZM106.518 164.16V154.277H107.66V158.149H107.765C108.12 157.401 108.782 156.961 109.826 156.961C111.414 156.961 112.3 157.9 112.3 159.58V164.16H111.158V159.855C111.158 158.582 110.633 157.972 109.504 157.972C108.376 157.972 107.66 158.733 107.66 159.973V164.16H106.518ZM115.983 164.285C114.638 164.285 113.621 163.471 113.621 162.185V162.172C113.621 160.912 114.553 160.183 116.2 160.085L118.228 159.96V159.317C118.228 158.444 117.696 157.972 116.639 157.972C115.793 157.972 115.235 158.287 115.051 158.838L115.045 158.858H113.903L113.909 158.818C114.093 157.709 115.169 156.961 116.679 156.961C118.405 156.961 119.369 157.847 119.369 159.317V164.16H118.228V163.117H118.123C117.676 163.871 116.935 164.285 115.983 164.285ZM114.789 162.159C114.789 162.874 115.399 163.294 116.219 163.294C117.381 163.294 118.228 162.533 118.228 161.522V160.879L116.338 160.997C115.261 161.063 114.789 161.443 114.789 162.145V162.159ZM121.13 164.16V157.086H122.272V158.149H122.377C122.731 157.401 123.394 156.961 124.437 156.961C126.026 156.961 126.911 157.9 126.911 159.58V164.16H125.77V159.855C125.77 158.582 125.245 157.972 124.116 157.972C122.987 157.972 122.272 158.733 122.272 159.973V164.16H121.13ZM131.546 164.285C129.564 164.285 128.298 162.848 128.298 160.603V160.59C128.298 158.392 129.558 156.961 131.54 156.961C133.259 156.961 134.289 157.952 134.499 159.212L134.506 159.251H133.371L133.364 159.232C133.187 158.536 132.557 157.972 131.54 157.972C130.267 157.972 129.466 158.995 129.466 160.59V160.603C129.466 162.231 130.28 163.274 131.54 163.274C132.491 163.274 133.095 162.854 133.358 162.067L133.371 162.027L134.499 162.021L134.486 162.093C134.198 163.373 133.246 164.285 131.546 164.285ZM138.734 164.285C136.713 164.285 135.492 162.867 135.492 160.649V160.643C135.492 158.457 136.739 156.961 138.662 156.961C140.585 156.961 141.753 158.392 141.753 160.505V160.951H136.66C136.693 162.415 137.5 163.268 138.76 163.268C139.718 163.268 140.309 162.815 140.499 162.388L140.526 162.329H141.667L141.654 162.382C141.412 163.34 140.401 164.285 138.734 164.285ZM138.655 157.978C137.605 157.978 136.805 158.694 136.68 160.039H140.591C140.473 158.641 139.699 157.978 138.655 157.978ZM147.124 164.16V158.031H145.95V157.086H147.124V156.298C147.124 154.887 147.833 154.211 149.178 154.211C149.454 154.211 149.703 154.231 149.94 154.277V155.189C149.802 155.163 149.612 155.156 149.408 155.156C148.594 155.156 148.266 155.557 148.266 156.331V157.086H149.874V158.031H148.266V164.16H147.124ZM153.8 164.285C151.785 164.285 150.539 162.894 150.539 160.63V160.616C150.539 158.346 151.785 156.961 153.8 156.961C155.815 156.961 157.062 158.346 157.062 160.616V160.63C157.062 162.894 155.815 164.285 153.8 164.285ZM153.8 163.274C155.139 163.274 155.894 162.296 155.894 160.63V160.616C155.894 158.943 155.139 157.972 153.8 157.972C152.461 157.972 151.707 158.943 151.707 160.616V160.63C151.707 162.296 152.461 163.274 153.8 163.274ZM158.507 164.16V157.086H159.649V158.136H159.754C160.023 157.394 160.686 156.961 161.644 156.961C161.861 156.961 162.103 156.987 162.215 157.007V158.116C161.979 158.077 161.762 158.05 161.513 158.05C160.423 158.05 159.649 158.74 159.649 159.776V164.16H158.507ZM168.696 164.285C167.35 164.285 166.333 163.471 166.333 162.185V162.172C166.333 160.912 167.265 160.183 168.912 160.085L170.94 159.96V159.317C170.94 158.444 170.408 157.972 169.352 157.972C168.505 157.972 167.947 158.287 167.764 158.838L167.757 158.858H166.615L166.622 158.818C166.806 157.709 167.882 156.961 169.391 156.961C171.117 156.961 172.082 157.847 172.082 159.317V164.16H170.94V163.117H170.835C170.389 163.871 169.647 164.285 168.696 164.285ZM167.501 162.159C167.501 162.874 168.112 163.294 168.932 163.294C170.093 163.294 170.94 162.533 170.94 161.522V160.879L169.05 160.997C167.974 161.063 167.501 161.443 167.501 162.145V162.159ZM177.362 164.16V154.277H178.503V164.16H177.362ZM183.276 164.285C181.261 164.285 180.015 162.894 180.015 160.63V160.616C180.015 158.346 181.261 156.961 183.276 156.961C185.291 156.961 186.538 158.346 186.538 160.616V160.63C186.538 162.894 185.291 164.285 183.276 164.285ZM183.276 163.274C184.615 163.274 185.37 162.296 185.37 160.63V160.616C185.37 158.943 184.615 157.972 183.276 157.972C181.937 157.972 181.183 158.943 181.183 160.616V160.63C181.183 162.296 181.937 163.274 183.276 163.274ZM189.926 164.285C188.58 164.285 187.563 163.471 187.563 162.185V162.172C187.563 160.912 188.495 160.183 190.142 160.085L192.17 159.96V159.317C192.17 158.444 191.638 157.972 190.582 157.972C189.735 157.972 189.177 158.287 188.994 158.838L188.987 158.858H187.845L187.852 158.818C188.036 157.709 189.112 156.961 190.621 156.961C192.347 156.961 193.312 157.847 193.312 159.317V164.16H192.17V163.117H192.065C191.619 163.871 190.877 164.285 189.926 164.285ZM188.731 162.159C188.731 162.874 189.342 163.294 190.162 163.294C191.323 163.294 192.17 162.533 192.17 161.522V160.879L190.28 160.997C189.204 161.063 188.731 161.443 188.731 162.145V162.159ZM195.072 164.16V157.086H196.214V158.149H196.319C196.674 157.401 197.336 156.961 198.38 156.961C199.968 156.961 200.854 157.9 200.854 159.58V164.16H199.712V159.855C199.712 158.582 199.187 157.972 198.058 157.972C196.93 157.972 196.214 158.733 196.214 159.973V164.16H195.072ZM202.306 166.569L202.877 162.835H204.183L203.153 166.569H202.306ZM209.778 164.16V154.277H210.919V164.16H209.778ZM213.389 155.721C212.956 155.721 212.601 155.366 212.601 154.933C212.601 154.5 212.956 154.146 213.389 154.146C213.822 154.146 214.176 154.5 214.176 154.933C214.176 155.366 213.822 155.721 213.389 155.721ZM212.811 164.16V157.086H213.953V164.16H212.811ZM215.845 164.16V154.277H216.987V160.177H217.092L220.15 157.086H221.534L218.45 160.059L221.738 164.16H220.301L217.649 160.833L216.987 161.476V164.16H215.845ZM225.31 164.285C223.288 164.285 222.068 162.867 222.068 160.649V160.643C222.068 158.457 223.315 156.961 225.237 156.961C227.16 156.961 228.328 158.392 228.328 160.505V160.951H223.236C223.269 162.415 224.076 163.268 225.336 163.268C226.294 163.268 226.885 162.815 227.075 162.388L227.101 162.329H228.243L228.23 162.382C227.987 163.34 226.976 164.285 225.31 164.285ZM225.231 157.978C224.181 157.978 223.38 158.694 223.256 160.039H227.167C227.049 158.641 226.274 157.978 225.231 157.978ZM229.839 164.16V154.277H230.981V164.16H229.839ZM233.451 166.641C233.3 166.641 233.103 166.628 232.945 166.601V165.663C233.083 165.689 233.26 165.696 233.418 165.696C234.067 165.696 234.461 165.4 234.717 164.587L234.848 164.167L232.23 157.086H233.451L235.393 162.907H235.498L237.434 157.086H238.635L235.872 164.593C235.288 166.181 234.704 166.641 233.451 166.641ZM244.636 164.16L242.655 157.086H243.796L245.188 162.743H245.293L246.874 157.086H247.957L249.539 162.743H249.644L251.035 157.086H252.17L250.188 164.16H249.04L247.458 158.687H247.353L245.778 164.16H244.636ZM253.957 155.721C253.524 155.721 253.169 155.366 253.169 154.933C253.169 154.5 253.524 154.146 253.957 154.146C254.39 154.146 254.744 154.5 254.744 154.933C254.744 155.366 254.39 155.721 253.957 155.721ZM253.379 164.16V157.086H254.521V164.16H253.379ZM258.861 164.213C257.404 164.213 256.794 163.675 256.794 162.323V158.031H255.678V157.086H256.794V155.255H257.975V157.086H259.524V158.031H257.975V162.034C257.975 162.867 258.264 163.202 258.999 163.202C259.202 163.202 259.314 163.195 259.524 163.176V164.147C259.301 164.186 259.084 164.213 258.861 164.213ZM260.969 164.16V154.277H262.111V158.149H262.216C262.57 157.401 263.233 156.961 264.277 156.961C265.865 156.961 266.751 157.9 266.751 159.58V164.16H265.609V159.855C265.609 158.582 265.084 157.972 263.955 157.972C262.826 157.972 262.111 158.733 262.111 159.973V164.16H260.969ZM274.859 166.654C273.153 166.654 272.063 165.886 271.886 164.725L271.899 164.718H273.08L273.087 164.725C273.212 165.263 273.842 165.643 274.859 165.643C276.125 165.643 276.88 165.046 276.88 164.003V162.572H276.775C276.329 163.353 275.528 163.793 274.557 163.793C272.726 163.793 271.591 162.375 271.591 160.393V160.38C271.591 158.398 272.733 156.961 274.583 156.961C275.581 156.961 276.355 157.453 276.788 158.254H276.867V157.086H278.009V164.062C278.009 165.643 276.788 166.654 274.859 166.654ZM274.806 162.782C276.119 162.782 276.906 161.798 276.906 160.393V160.38C276.906 158.976 276.112 157.972 274.806 157.972C273.494 157.972 272.759 158.976 272.759 160.38V160.393C272.759 161.798 273.494 162.782 274.806 162.782ZM282.716 164.285C280.701 164.285 279.454 162.894 279.454 160.63V160.616C279.454 158.346 280.701 156.961 282.716 156.961C284.731 156.961 285.977 158.346 285.977 160.616V160.63C285.977 162.894 284.731 164.285 282.716 164.285ZM282.716 163.274C284.055 163.274 284.809 162.296 284.809 160.63V160.616C284.809 158.943 284.055 157.972 282.716 157.972C281.377 157.972 280.622 158.943 280.622 160.616V160.63C280.622 162.296 281.377 163.274 282.716 163.274ZM290.33 164.285C288.315 164.285 287.069 162.894 287.069 160.63V160.616C287.069 158.346 288.315 156.961 290.33 156.961C292.345 156.961 293.592 158.346 293.592 160.616V160.63C293.592 162.894 292.345 164.285 290.33 164.285ZM290.33 163.274C291.669 163.274 292.424 162.296 292.424 160.63V160.616C292.424 158.943 291.669 157.972 290.33 157.972C288.991 157.972 288.237 158.943 288.237 160.616V160.63C288.237 162.296 288.991 163.274 290.33 163.274ZM297.649 164.285C295.857 164.285 294.683 162.835 294.683 160.63V160.616C294.683 158.398 295.851 156.961 297.649 156.961C298.62 156.961 299.467 157.447 299.854 158.201H299.959V154.277H301.101V164.16H299.959V163.031H299.854C299.421 163.819 298.633 164.285 297.649 164.285ZM297.912 163.274C299.198 163.274 299.985 162.264 299.985 160.63V160.616C299.985 158.982 299.198 157.972 297.912 157.972C296.619 157.972 295.851 158.969 295.851 160.616V160.63C295.851 162.277 296.619 163.274 297.912 163.274ZM308.933 164.213C307.477 164.213 306.866 163.675 306.866 162.323V158.031H305.751V157.086H306.866V155.255H308.047V157.086H309.596V158.031H308.047V162.034C308.047 162.867 308.336 163.202 309.071 163.202C309.275 163.202 309.386 163.195 309.596 163.176V164.147C309.373 164.186 309.157 164.213 308.933 164.213ZM313.759 164.285C311.737 164.285 310.517 162.867 310.517 160.649V160.643C310.517 158.457 311.764 156.961 313.686 156.961C315.609 156.961 316.777 158.392 316.777 160.505V160.951H311.685C311.718 162.415 312.525 163.268 313.785 163.268C314.743 163.268 315.334 162.815 315.524 162.388L315.55 162.329H316.692L316.679 162.382C316.436 163.34 315.425 164.285 313.759 164.285ZM313.68 157.978C312.63 157.978 311.829 158.694 311.705 160.039H315.616C315.498 158.641 314.723 157.978 313.68 157.978ZM318.223 164.16V157.086H319.365V158.136H319.47C319.739 157.394 320.402 156.961 321.36 156.961C321.576 156.961 321.819 156.987 321.931 157.007V158.116C321.694 158.077 321.478 158.05 321.228 158.05C320.139 158.05 319.365 158.74 319.365 159.776V164.16H318.223ZM323.146 164.16V157.086H324.288V158.162H324.393C324.708 157.401 325.378 156.961 326.303 156.961C327.261 156.961 327.93 157.466 328.259 158.201H328.364C328.744 157.453 329.551 156.961 330.529 156.961C331.973 156.961 332.78 157.788 332.78 159.271V164.16H331.638V159.534C331.638 158.49 331.159 157.972 330.162 157.972C329.177 157.972 328.528 158.713 328.528 159.612V164.16H327.386V159.356C327.386 158.516 326.808 157.972 325.916 157.972C324.99 157.972 324.288 158.779 324.288 159.776V164.16H323.146ZM336.943 164.285C335.368 164.285 334.285 163.524 334.153 162.355H335.322C335.512 162.946 336.076 163.333 336.982 163.333C337.933 163.333 338.609 162.88 338.609 162.237V162.224C338.609 161.745 338.248 161.41 337.376 161.2L336.28 160.938C334.954 160.623 334.357 160.045 334.357 159.028V159.022C334.357 157.847 335.486 156.961 336.988 156.961C338.472 156.961 339.502 157.703 339.659 158.858H338.537C338.386 158.3 337.835 157.913 336.982 157.913C336.142 157.913 335.525 158.346 335.525 158.969V158.982C335.525 159.461 335.879 159.763 336.713 159.967L337.802 160.229C339.134 160.551 339.778 161.128 339.778 162.139V162.152C339.778 163.412 338.55 164.285 336.943 164.285Z" fill="#9299A2"/>
<rect x="18" y="184.24" width="5" height="91" rx="2.5" fill="#85BB2C"/>
<path d="M44.15 212.595C41.2063 212.595 39.2563 210.879 39.0875 208.62L39.0781 208.479H41.6938L41.7125 208.545C41.9094 209.567 42.8563 210.354 44.1594 210.354C45.6406 210.354 46.6813 209.342 46.6813 207.898V207.879C46.6719 206.454 45.6313 205.451 44.1688 205.451C43.475 205.451 42.8844 205.657 42.425 206.023C42.1531 206.229 41.9375 206.492 41.7781 206.773H39.3125L39.9313 198.832H48.5656V201.082H42.1813L41.8531 204.888H41.9094C42.4719 203.979 43.5875 203.426 44.9563 203.426C47.525 203.426 49.3813 205.273 49.3813 207.823V207.842C49.3813 210.673 47.2438 212.595 44.15 212.595ZM56.6648 212.595C53.2336 212.595 51.1523 209.904 51.1523 205.601V205.582C51.1523 201.279 53.2336 198.598 56.6648 198.598C60.0961 198.598 62.1773 201.279 62.1773 205.582V205.601C62.1773 209.904 60.0961 212.595 56.6648 212.595ZM56.6648 210.326C58.3523 210.326 59.3179 208.573 59.3179 205.601V205.582C59.3179 202.61 58.3523 200.867 56.6648 200.867C54.9773 200.867 54.0117 202.61 54.0117 205.582V205.601C54.0117 208.573 54.9773 210.326 56.6648 210.326ZM67.5765 212.36V201.429H67.5202L64.0702 203.773V201.26L67.5671 198.832H70.3796V212.36H67.5765ZM73.2756 208.057V205.667H83.4475V208.057H73.2756ZM85.9123 212.36L91.7342 201.138V201.082H84.853V198.832H94.528V201.11L88.8842 212.36H85.9123ZM101.755 212.595C98.8115 212.595 96.8615 210.879 96.6928 208.62L96.6834 208.479H99.299L99.3178 208.545C99.5146 209.567 100.462 210.354 101.765 210.354C103.246 210.354 104.287 209.342 104.287 207.898V207.879C104.277 206.454 103.237 205.451 101.774 205.451C101.08 205.451 100.49 205.657 100.03 206.023C99.7584 206.229 99.5428 206.492 99.3834 206.773H96.9178L97.5365 198.832H106.171V201.082H99.7865L99.4584 204.888H99.5146C100.077 203.979 101.193 203.426 102.562 203.426C105.13 203.426 106.987 205.273 106.987 207.823V207.842C106.987 210.673 104.849 212.595 101.755 212.595ZM114.27 212.595C110.839 212.595 108.758 209.904 108.758 205.601V205.582C108.758 201.279 110.839 198.598 114.27 198.598C117.701 198.598 119.783 201.279 119.783 205.582V205.601C119.783 209.904 117.701 212.595 114.27 212.595ZM114.27 210.326C115.958 210.326 116.923 208.573 116.923 205.601V205.582C116.923 202.61 115.958 200.867 114.27 200.867C112.583 200.867 111.617 202.61 111.617 205.582V205.601C111.617 208.573 112.583 210.326 114.27 210.326Z" fill="#333333"/>
<path d="M39.4059 238.12V227.095H40.7812V231.862H46.8326V227.095H48.2079V238.12H46.8326V233.1H40.7812V238.12H39.4059ZM51.1609 228.294C50.6566 228.294 50.244 227.882 50.244 227.377C50.244 226.873 50.6566 226.461 51.1609 226.461C51.6651 226.461 52.0777 226.873 52.0777 227.377C52.0777 227.882 51.6651 228.294 51.1609 228.294ZM50.4885 238.12V229.884H51.818V238.12H50.4885ZM57.3229 241.024C55.3364 241.024 54.068 240.13 53.8617 238.777L53.877 238.77H55.2523L55.26 238.777C55.4051 239.404 56.1386 239.847 57.3229 239.847C58.7976 239.847 59.6762 239.152 59.6762 237.937V236.271H59.554C59.0344 237.18 58.1023 237.692 56.9715 237.692C54.8397 237.692 53.5179 236.042 53.5179 233.734V233.719C53.5179 231.412 54.8474 229.738 57.002 229.738C58.1634 229.738 59.065 230.311 59.5693 231.244H59.661V229.884H60.9904V238.006C60.9904 239.847 59.5693 241.024 57.3229 241.024ZM57.2618 236.516C58.7899 236.516 59.7068 235.369 59.7068 233.734V233.719C59.7068 232.084 58.7823 230.915 57.2618 230.915C55.7337 230.915 54.8779 232.084 54.8779 233.719V233.734C54.8779 235.369 55.7337 236.516 57.2618 236.516ZM63.1488 238.12V226.613H64.4783V231.121H64.6005C65.0131 230.25 65.7848 229.738 66.9997 229.738C68.8487 229.738 69.8802 230.831 69.8802 232.787V238.12H68.5507V233.108C68.5507 231.626 67.9395 230.915 66.6253 230.915C65.3111 230.915 64.4783 231.801 64.4783 233.245V238.12H63.1488ZM79.2703 238.265C76.9628 238.265 75.4882 236.592 75.4882 233.979V233.964C75.4882 231.404 76.9552 229.738 79.2627 229.738C81.2645 229.738 82.4641 230.892 82.7086 232.359L82.7162 232.405H81.3944L81.3867 232.382C81.1805 231.572 80.447 230.915 79.2627 230.915C77.7804 230.915 76.8482 232.107 76.8482 233.964V233.979C76.8482 235.874 77.7957 237.089 79.2627 237.089C80.3705 237.089 81.0735 236.6 81.3791 235.683L81.3944 235.637L82.7086 235.629L82.6933 235.713C82.3571 237.203 81.2492 238.265 79.2703 238.265ZM84.3397 238.12V226.613H85.6692V231.121H85.7915C86.2041 230.25 86.9758 229.738 88.1906 229.738C90.0396 229.738 91.0711 230.831 91.0711 232.787V238.12H89.7417V233.108C89.7417 231.626 89.1304 230.915 87.8162 230.915C86.502 230.915 85.6692 231.801 85.6692 233.245V238.12H84.3397ZM95.346 238.265C93.7796 238.265 92.5953 237.318 92.5953 235.82V235.805C92.5953 234.338 93.6803 233.49 95.5981 233.375L97.959 233.23V232.481C97.959 231.465 97.3402 230.915 96.11 230.915C95.1244 230.915 94.4749 231.282 94.261 231.924L94.2533 231.946H92.9239L92.9315 231.901C93.1455 230.609 94.3985 229.738 96.1559 229.738C98.1653 229.738 99.2885 230.77 99.2885 232.481V238.12H97.959V236.905H97.8368C97.3172 237.784 96.4538 238.265 95.346 238.265ZM93.9554 235.79C93.9554 236.623 94.6659 237.112 95.621 237.112C96.9734 237.112 97.959 236.225 97.959 235.049V234.3L95.7585 234.437C94.5055 234.514 93.9554 234.957 93.9554 235.774V235.79ZM101.325 238.12V229.884H102.654V231.121H102.776C103.189 230.25 103.961 229.738 105.176 229.738C107.025 229.738 108.056 230.831 108.056 232.787V238.12H106.727V233.108C106.727 231.626 106.115 230.915 104.801 230.915C103.487 230.915 102.654 231.801 102.654 233.245V238.12H101.325ZM113.439 238.265C111.131 238.265 109.657 236.592 109.657 233.979V233.964C109.657 231.404 111.124 229.738 113.431 229.738C115.433 229.738 116.633 230.892 116.877 232.359L116.885 232.405H115.563L115.555 232.382C115.349 231.572 114.615 230.915 113.431 230.915C111.949 230.915 111.017 232.107 111.017 233.964V233.979C111.017 235.874 111.964 237.089 113.431 237.089C114.539 237.089 115.242 236.6 115.548 235.683L115.563 235.637L116.877 235.629L116.862 235.713C116.526 237.203 115.418 238.265 113.439 238.265ZM121.794 238.265C119.44 238.265 118.019 236.615 118.019 234.032V234.025C118.019 231.48 119.471 229.738 121.71 229.738C123.948 229.738 125.308 231.404 125.308 233.864V234.384H119.379C119.417 236.088 120.357 237.081 121.824 237.081C122.94 237.081 123.627 236.554 123.849 236.057L123.88 235.988H125.209L125.194 236.05C124.911 237.165 123.734 238.265 121.794 238.265ZM121.702 230.923C120.479 230.923 119.547 231.755 119.402 233.322H123.956C123.818 231.694 122.917 230.923 121.702 230.923ZM131.535 238.12V230.984H130.168V229.884H131.535V228.967C131.535 227.324 132.36 226.537 133.927 226.537C134.248 226.537 134.538 226.56 134.813 226.613V227.675C134.653 227.645 134.431 227.637 134.194 227.637C133.247 227.637 132.865 228.103 132.865 229.005V229.884H134.737V230.984H132.865V238.12H131.535ZM139.294 238.265C136.949 238.265 135.497 236.645 135.497 234.009V233.994C135.497 231.351 136.949 229.738 139.294 229.738C141.64 229.738 143.092 231.351 143.092 233.994V234.009C143.092 236.645 141.64 238.265 139.294 238.265ZM139.294 237.089C140.853 237.089 141.732 235.95 141.732 234.009V233.994C141.732 232.046 140.853 230.915 139.294 230.915C137.735 230.915 136.857 232.046 136.857 233.994V234.009C136.857 235.95 137.735 237.089 139.294 237.089ZM144.761 238.12V229.884H146.09V231.106H146.213C146.526 230.243 147.298 229.738 148.413 229.738C148.665 229.738 148.948 229.769 149.078 229.792V231.083C148.803 231.037 148.551 231.007 148.26 231.007C146.992 231.007 146.09 231.809 146.09 233.016V238.12H144.761ZM156.596 238.265C155.03 238.265 153.845 237.318 153.845 235.82V235.805C153.845 234.338 154.93 233.49 156.848 233.375L159.209 233.23V232.481C159.209 231.465 158.59 230.915 157.36 230.915C156.374 230.915 155.725 231.282 155.511 231.924L155.503 231.946H154.174L154.182 231.901C154.396 230.609 155.649 229.738 157.406 229.738C159.415 229.738 160.539 230.77 160.539 232.481V238.12H159.209V236.905H159.087C158.567 237.784 157.704 238.265 156.596 238.265ZM155.205 235.79C155.205 236.623 155.916 237.112 156.871 237.112C158.224 237.112 159.209 236.225 159.209 235.049V234.3L157.009 234.437C155.756 234.514 155.205 234.957 155.205 235.774V235.79ZM166.659 238.12V226.613H167.988V238.12H166.659ZM173.531 238.265C171.186 238.265 169.734 236.645 169.734 234.009V233.994C169.734 231.351 171.186 229.738 173.531 229.738C175.877 229.738 177.329 231.351 177.329 233.994V234.009C177.329 236.645 175.877 238.265 173.531 238.265ZM173.531 237.089C175.09 237.089 175.969 235.95 175.969 234.009V233.994C175.969 232.046 175.09 230.915 173.531 230.915C171.972 230.915 171.094 232.046 171.094 233.994V234.009C171.094 235.95 171.972 237.089 173.531 237.089ZM181.26 238.265C179.693 238.265 178.509 237.318 178.509 235.82V235.805C178.509 234.338 179.594 233.49 181.512 233.375L183.873 233.23V232.481C183.873 231.465 183.254 230.915 182.024 230.915C181.038 230.915 180.389 231.282 180.175 231.924L180.167 231.946H178.837L178.845 231.901C179.059 230.609 180.312 229.738 182.069 229.738C184.079 229.738 185.202 230.77 185.202 232.481V238.12H183.873V236.905H183.75C183.231 237.784 182.367 238.265 181.26 238.265ZM179.869 235.79C179.869 236.623 180.58 237.112 181.535 237.112C182.887 237.112 183.873 236.225 183.873 235.049V234.3L181.672 234.437C180.419 234.514 179.869 234.957 179.869 235.774V235.79ZM187.238 238.12V229.884H188.568V231.121H188.69C189.103 230.25 189.874 229.738 191.089 229.738C192.938 229.738 193.97 230.831 193.97 232.787V238.12H192.64V233.108C192.64 231.626 192.029 230.915 190.715 230.915C189.401 230.915 188.568 231.801 188.568 233.245V238.12H187.238ZM195.647 240.924L196.311 236.577H197.832L196.632 240.924H195.647ZM204.319 238.12V226.613H205.648V238.12H204.319ZM208.509 228.294C208.005 228.294 207.592 227.882 207.592 227.377C207.592 226.873 208.005 226.461 208.509 226.461C209.014 226.461 209.426 226.873 209.426 227.377C209.426 227.882 209.014 228.294 208.509 228.294ZM207.837 238.12V229.884H209.166V238.12H207.837ZM211.355 238.12V226.613H212.685V233.482H212.807L216.368 229.884H217.98L214.389 233.345L218.217 238.12H216.543L213.457 234.246L212.685 234.995V238.12H211.355ZM222.362 238.265C220.008 238.265 218.587 236.615 218.587 234.032V234.025C218.587 231.48 220.039 229.738 222.277 229.738C224.516 229.738 225.876 231.404 225.876 233.864V234.384H219.947C219.985 236.088 220.925 237.081 222.392 237.081C223.508 237.081 224.195 236.554 224.417 236.057L224.447 235.988H225.777L225.762 236.05C225.479 237.165 224.302 238.265 222.362 238.265ZM222.27 230.923C221.047 230.923 220.115 231.755 219.97 233.322H224.524C224.386 231.694 223.485 230.923 222.27 230.923ZM227.622 238.12V226.613H228.951V238.12H227.622ZM231.813 241.008C231.637 241.008 231.408 240.993 231.224 240.962V239.87C231.385 239.9 231.591 239.908 231.775 239.908C232.531 239.908 232.989 239.564 233.287 238.617L233.44 238.128L230.392 229.884H231.813L234.074 236.661H234.197L236.451 229.884H237.849L234.632 238.624C233.952 240.473 233.272 241.008 231.813 241.008ZM244.809 238.12L242.502 229.884H243.831L245.451 236.47H245.573L247.415 229.884H248.675L250.517 236.47H250.639L252.259 229.884H253.581L251.273 238.12H249.936L248.095 231.748H247.972L246.139 238.12H244.809ZM255.647 228.294C255.143 228.294 254.731 227.882 254.731 227.377C254.731 226.873 255.143 226.461 255.647 226.461C256.152 226.461 256.564 226.873 256.564 227.377C256.564 227.882 256.152 228.294 255.647 228.294ZM254.975 238.12V229.884H256.304V238.12H254.975ZM261.343 238.181C259.647 238.181 258.937 237.555 258.937 235.981V230.984H257.638V229.884H258.937V227.752H260.312V229.884H262.115V230.984H260.312V235.645C260.312 236.615 260.648 237.005 261.504 237.005C261.741 237.005 261.871 236.997 262.115 236.974V238.105C261.855 238.151 261.603 238.181 261.343 238.181ZM263.784 238.12V226.613H265.114V231.121H265.236C265.649 230.25 266.42 229.738 267.635 229.738C269.484 229.738 270.516 230.831 270.516 232.787V238.12H269.186V233.108C269.186 231.626 268.575 230.915 267.261 230.915C265.947 230.915 265.114 231.801 265.114 233.245V238.12H263.784ZM279.363 238.265C277.53 238.265 276.269 237.379 276.116 236.019H277.476C277.698 236.707 278.355 237.157 279.409 237.157C280.517 237.157 281.304 236.63 281.304 235.881V235.866C281.304 235.308 280.884 234.919 279.868 234.674L278.592 234.369C277.048 234.002 276.353 233.329 276.353 232.145V232.138C276.353 230.77 277.667 229.738 279.417 229.738C281.144 229.738 282.343 230.602 282.527 231.946H281.22C281.044 231.297 280.403 230.846 279.409 230.846C278.431 230.846 277.713 231.351 277.713 232.076V232.092C277.713 232.649 278.126 233.001 279.096 233.238L280.364 233.543C281.915 233.918 282.664 234.59 282.664 235.767V235.782C282.664 237.249 281.235 238.265 279.363 238.265ZM287.184 238.181C285.487 238.181 284.777 237.555 284.777 235.981V230.984H283.478V229.884H284.777V227.752H286.152V229.884H287.955V230.984H286.152V235.645C286.152 236.615 286.488 237.005 287.344 237.005C287.581 237.005 287.711 236.997 287.955 236.974V238.105C287.695 238.151 287.443 238.181 287.184 238.181ZM291.81 238.265C290.243 238.265 289.059 237.318 289.059 235.82V235.805C289.059 234.338 290.144 233.49 292.062 233.375L294.423 233.23V232.481C294.423 231.465 293.804 230.915 292.574 230.915C291.588 230.915 290.939 231.282 290.725 231.924L290.717 231.946H289.388L289.395 231.901C289.609 230.609 290.862 229.738 292.62 229.738C294.629 229.738 295.752 230.77 295.752 232.481V238.12H294.423V236.905H294.301C293.781 237.784 292.918 238.265 291.81 238.265ZM290.419 235.79C290.419 236.623 291.13 237.112 292.085 237.112C293.437 237.112 294.423 236.225 294.423 235.049V234.3L292.222 234.437C290.969 234.514 290.419 234.957 290.419 235.774V235.79ZM297.789 238.12V229.884H299.118V231.121H299.24C299.653 230.25 300.425 229.738 301.639 229.738C303.488 229.738 304.52 230.831 304.52 232.787V238.12H303.19V233.108C303.19 231.626 302.579 230.915 301.265 230.915C299.951 230.915 299.118 231.801 299.118 233.245V238.12H297.789ZM309.574 238.265C307.488 238.265 306.121 236.577 306.121 234.009V233.994C306.121 231.412 307.481 229.738 309.574 229.738C310.705 229.738 311.691 230.304 312.141 231.182H312.264V226.613H313.593V238.12H312.264V236.806H312.141C311.637 237.723 310.72 238.265 309.574 238.265ZM309.88 237.089C311.377 237.089 312.294 235.912 312.294 234.009V233.994C312.294 232.092 311.377 230.915 309.88 230.915C308.374 230.915 307.481 232.076 307.481 233.994V234.009C307.481 235.927 308.374 237.089 309.88 237.089ZM318.013 238.265C316.447 238.265 315.262 237.318 315.262 235.82V235.805C315.262 234.338 316.347 233.49 318.265 233.375L320.626 233.23V232.481C320.626 231.465 320.007 230.915 318.777 230.915C317.791 230.915 317.142 231.282 316.928 231.924L316.92 231.946H315.591L315.599 231.901C315.813 230.609 317.066 229.738 318.823 229.738C320.832 229.738 321.956 230.77 321.956 232.481V238.12H320.626V236.905H320.504C319.984 237.784 319.121 238.265 318.013 238.265ZM316.622 235.79C316.622 236.623 317.333 237.112 318.288 237.112C319.64 237.112 320.626 236.225 320.626 235.049V234.3L318.426 234.437C317.173 234.514 316.622 234.957 316.622 235.774V235.79ZM323.992 238.12V229.884H325.321V231.106H325.443C325.757 230.243 326.528 229.738 327.644 229.738C327.896 229.738 328.179 229.769 328.309 229.792V231.083C328.034 231.037 327.781 231.007 327.491 231.007C326.223 231.007 325.321 231.809 325.321 233.016V238.12H323.992ZM332.37 238.265C330.284 238.265 328.916 236.577 328.916 234.009V233.994C328.916 231.412 330.276 229.738 332.37 229.738C333.5 229.738 334.486 230.304 334.937 231.182H335.059V226.613H336.389V238.12H335.059V236.806H334.937C334.433 237.723 333.516 238.265 332.37 238.265ZM332.675 237.089C334.173 237.089 335.09 235.912 335.09 234.009V233.994C335.09 232.092 334.173 230.915 332.675 230.915C331.17 230.915 330.276 232.076 330.276 233.994V234.009C330.276 235.927 331.17 237.089 332.675 237.089ZM42.1641 257.181C40.4679 257.181 39.7573 256.555 39.7573 254.981V249.984H38.4584V248.884H39.7573V246.752H41.1327V248.884H42.9358V249.984H41.1327V254.645C41.1327 255.615 41.4688 256.005 42.3246 256.005C42.5615 256.005 42.6913 255.997 42.9358 255.974V257.105C42.6761 257.151 42.4239 257.181 42.1641 257.181ZM47.7684 257.265C45.4151 257.265 43.994 255.615 43.994 253.032V253.025C43.994 250.48 45.4457 248.738 47.6844 248.738C49.9231 248.738 51.2831 250.404 51.2831 252.864V253.384H45.354C45.3922 255.088 46.332 256.081 47.799 256.081C48.9145 256.081 49.6022 255.554 49.8238 255.057L49.8543 254.988H51.1838L51.1685 255.05C50.8858 256.165 49.7091 257.265 47.7684 257.265ZM47.6767 249.923C46.4542 249.923 45.5221 250.755 45.3769 252.322H49.9307C49.7932 250.694 48.8916 249.923 47.6767 249.923ZM52.9525 257.12V248.884H54.282V250.106H54.4042C54.7175 249.243 55.4892 248.738 56.6047 248.738C56.8568 248.738 57.1396 248.769 57.2694 248.792V250.083C56.9944 250.037 56.7422 250.007 56.4519 250.007C55.1836 250.007 54.282 250.809 54.282 252.016V257.12H52.9525ZM58.6714 257.12V248.884H60.0009V250.137H60.1231C60.4899 249.25 61.2692 248.738 62.3465 248.738C63.4621 248.738 64.2414 249.327 64.6234 250.182H64.7457C65.1888 249.311 66.1286 248.738 67.2671 248.738C68.948 248.738 69.8878 249.701 69.8878 251.428V257.12H68.5584V251.733C68.5584 250.519 68.0006 249.915 66.8392 249.915C65.6931 249.915 64.9367 250.778 64.9367 251.825V257.12H63.6072V251.527C63.6072 250.549 62.9349 249.915 61.8957 249.915C60.8184 249.915 60.0009 250.855 60.0009 252.016V257.12H58.6714ZM74.7204 257.265C72.8867 257.265 71.626 256.379 71.4731 255.019H72.8332C73.0548 255.707 73.7119 256.157 74.7663 256.157C75.8741 256.157 76.6611 255.63 76.6611 254.881V254.866C76.6611 254.308 76.2409 253.919 75.2247 253.674L73.9487 253.369C72.4053 253.002 71.71 252.329 71.71 251.145V251.138C71.71 249.77 73.0242 248.738 74.7739 248.738C76.5007 248.738 77.7003 249.602 77.8836 250.946H76.5771C76.4014 250.297 75.7595 249.846 74.7663 249.846C73.7883 249.846 73.07 250.351 73.07 251.076V251.092C73.07 251.649 73.4826 252.001 74.453 252.238L75.7213 252.543C77.2724 252.918 78.0212 253.59 78.0212 254.767V254.782C78.0212 256.249 76.5924 257.265 74.7204 257.265Z" fill="#333333"/>
<rect opacity="0.4" x="18" y="280.24" width="5" height="60" rx="2.5" fill="#FCD375"/>
<path d="M43.686 304.586C40.98 304.586 39.1953 303.133 39.0293 300.992L39.021 300.884H41.4199L41.4282 300.975C41.5361 301.905 42.3911 302.569 43.686 302.569C44.9644 302.569 45.8027 301.855 45.8027 300.842V300.826C45.8027 299.68 44.9478 299.049 43.4951 299.049H42.1255V297.265H43.4619C44.7236 297.265 45.5371 296.601 45.5371 295.629V295.613C45.5371 294.617 44.8481 294.002 43.6694 294.002C42.4907 294.002 41.7021 294.642 41.6025 295.638L41.5942 295.712H39.2866L39.2949 295.613C39.4692 293.471 41.1543 292.077 43.6694 292.077C46.2427 292.077 47.9028 293.372 47.9028 295.281V295.297C47.9028 296.792 46.8071 297.763 45.4043 298.053V298.103C47.189 298.269 48.3511 299.298 48.3511 300.925V300.942C48.3511 303.117 46.4834 304.586 43.686 304.586ZM54.7143 304.627C51.7592 304.627 49.958 302.204 49.958 298.335V298.319C49.958 294.442 51.7592 292.035 54.7143 292.035C57.6777 292.035 59.4707 294.442 59.4707 298.319V298.335C59.4707 302.204 57.6777 304.627 54.7143 304.627ZM54.7143 302.644C56.1337 302.644 56.9389 301.042 56.9389 298.335V298.319C56.9389 295.604 56.1337 294.019 54.7143 294.019C53.3032 294.019 52.498 295.604 52.498 298.319V298.335C52.498 301.042 53.3032 302.644 54.7143 302.644ZM64.2816 304.32V294.708H64.1322L61.1938 296.75V294.492L64.2899 292.342H66.7885V304.32H64.2816ZM69.0511 300.577V298.394H78.5057V300.577H69.0511ZM84.4788 304.627C81.9139 304.627 80.2205 303.1 80.0794 301.1L80.0711 300.983H82.3455L82.3621 301.042C82.5364 301.921 83.3582 302.627 84.4871 302.627C85.7737 302.627 86.6702 301.722 86.6702 300.436V300.419C86.6702 299.141 85.7654 298.252 84.4954 298.252C83.8895 298.252 83.3748 298.427 82.9764 298.767C82.7523 298.95 82.553 299.174 82.4202 299.431H80.2703L80.8265 292.342H88.3138V294.334H82.7772L82.4783 297.746H82.6277C83.1092 296.941 84.0389 296.443 85.1844 296.443C87.4173 296.443 89.0276 298.086 89.0276 300.369V300.386C89.0276 302.909 87.1683 304.627 84.4788 304.627ZM95.4407 304.627C92.4856 304.627 90.6843 302.204 90.6843 298.335V298.319C90.6843 294.442 92.4856 292.035 95.4407 292.035C98.4041 292.035 100.197 294.442 100.197 298.319V298.335C100.197 302.204 98.4041 304.627 95.4407 304.627ZM95.4407 302.644C96.8601 302.644 97.6653 301.042 97.6653 298.335V298.319C97.6653 295.604 96.8601 294.019 95.4407 294.019C94.0296 294.019 93.2244 295.604 93.2244 298.319V298.335C93.2244 301.042 94.0296 302.644 95.4407 302.644ZM106.685 304.627C103.73 304.627 101.928 302.204 101.928 298.335V298.319C101.928 294.442 103.73 292.035 106.685 292.035C109.648 292.035 111.441 294.442 111.441 298.319V298.335C111.441 302.204 109.648 304.627 106.685 304.627ZM106.685 302.644C108.104 302.644 108.909 301.042 108.909 298.335V298.319C108.909 295.604 108.104 294.019 106.685 294.019C105.274 294.019 104.468 295.604 104.468 298.319V298.335C104.468 301.042 105.274 302.644 106.685 302.644Z" fill="#9299A2"/>
<path d="M38.4528 325.16L41.9441 315.69H43.1122L46.6034 325.16H45.3631L44.4116 322.45H40.6447L39.6931 325.16H38.4528ZM42.4756 317.22L40.9925 321.446H44.0638L42.5806 317.22H42.4756ZM48.8758 325.16L46.2574 318.086H47.4649L49.4008 323.913H49.5058L51.4417 318.086H52.6492L50.0308 325.16H48.8758ZM56.4572 325.285C54.436 325.285 53.2153 323.867 53.2153 321.649V321.643C53.2153 319.457 54.4622 317.961 56.385 317.961C58.3078 317.961 59.476 319.392 59.476 321.505V321.951H54.3835C54.4163 323.415 55.2235 324.268 56.4835 324.268C57.4416 324.268 58.0322 323.815 58.2225 323.388L58.2488 323.329H59.3906L59.3775 323.382C59.1347 324.34 58.1241 325.285 56.4572 325.285ZM56.3785 318.978C55.3285 318.978 54.5278 319.694 54.4031 321.039H58.3144C58.1963 319.641 57.4219 318.978 56.3785 318.978ZM60.9214 325.16V318.086H62.0633V319.136H62.1683C62.4374 318.394 63.1002 317.961 64.0583 317.961C64.2749 317.961 64.5177 317.987 64.6292 318.007V319.116C64.393 319.077 64.1764 319.05 63.9271 319.05C62.8377 319.05 62.0633 319.74 62.0633 320.776V325.16H60.9214ZM67.6563 325.285C66.311 325.285 65.2938 324.471 65.2938 323.185V323.172C65.2938 321.912 66.2257 321.183 67.8728 321.085L69.9007 320.96V320.317C69.9007 319.444 69.3691 318.972 68.3125 318.972C67.466 318.972 66.9082 319.287 66.7244 319.838L66.7178 319.858H65.576L65.5825 319.818C65.7663 318.709 66.8425 317.961 68.3519 317.961C70.0778 317.961 71.0425 318.847 71.0425 320.317V325.16H69.9007V324.117H69.7957C69.3494 324.871 68.6078 325.285 67.6563 325.285ZM66.4619 323.159C66.4619 323.874 67.0722 324.294 67.8925 324.294C69.0541 324.294 69.9007 323.533 69.9007 322.522V321.879L68.0107 321.997C66.9344 322.063 66.4619 322.443 66.4619 323.145V323.159ZM75.7168 327.654C74.0105 327.654 72.9211 326.886 72.7439 325.725L72.7571 325.718H73.9383L73.9449 325.725C74.0696 326.263 74.6996 326.643 75.7168 326.643C76.9833 326.643 77.738 326.046 77.738 325.003V323.572H77.633C77.1868 324.353 76.3861 324.793 75.4149 324.793C73.5839 324.793 72.4486 323.375 72.4486 321.393V321.38C72.4486 319.398 73.5905 317.961 75.4411 317.961C76.4386 317.961 77.213 318.453 77.6461 319.254H77.7249V318.086H78.8668V325.062C78.8668 326.643 77.6461 327.654 75.7168 327.654ZM75.6643 323.782C76.9768 323.782 77.7643 322.798 77.7643 321.393V321.38C77.7643 319.976 76.9702 318.972 75.6643 318.972C74.3518 318.972 73.6168 319.976 73.6168 321.38V321.393C73.6168 322.798 74.3518 323.782 75.6643 323.782ZM83.5541 325.285C81.5329 325.285 80.3122 323.867 80.3122 321.649V321.643C80.3122 319.457 81.5591 317.961 83.4819 317.961C85.4047 317.961 86.5729 319.392 86.5729 321.505V321.951H81.4804C81.5132 323.415 82.3204 324.268 83.5804 324.268C84.5385 324.268 85.1291 323.815 85.3194 323.388L85.3457 323.329H86.4875L86.4744 323.382C86.2316 324.34 85.221 325.285 83.5541 325.285ZM83.4754 318.978C82.4254 318.978 81.6247 319.694 81.5 321.039H85.4113C85.2932 319.641 84.5188 318.978 83.4754 318.978ZM94.366 325.285C92.3841 325.285 91.1176 323.848 91.1176 321.603V321.59C91.1176 319.392 92.3776 317.961 94.3594 317.961C96.0788 317.961 97.1091 318.952 97.3191 320.212L97.3257 320.251H96.1904L96.1838 320.232C96.0066 319.536 95.3766 318.972 94.3594 318.972C93.0863 318.972 92.2857 319.995 92.2857 321.59V321.603C92.2857 323.231 93.0994 324.274 94.3594 324.274C95.311 324.274 95.9147 323.854 96.1772 323.067L96.1904 323.027L97.3191 323.021L97.306 323.093C97.0172 324.373 96.0657 325.285 94.366 325.285ZM98.7318 325.16V315.277H99.8737V319.149H99.9787C100.333 318.401 100.996 317.961 102.039 317.961C103.627 317.961 104.513 318.9 104.513 320.58V325.16H103.371V320.855C103.371 319.582 102.846 318.972 101.718 318.972C100.589 318.972 99.8737 319.733 99.8737 320.973V325.16H98.7318ZM108.197 325.285C106.851 325.285 105.834 324.471 105.834 323.185V323.172C105.834 321.912 106.766 321.183 108.413 321.085L110.441 320.96V320.317C110.441 319.444 109.909 318.972 108.853 318.972C108.006 318.972 107.449 319.287 107.265 319.838L107.258 319.858H106.116L106.123 319.818C106.307 318.709 107.383 317.961 108.892 317.961C110.618 317.961 111.583 318.847 111.583 320.317V325.16H110.441V324.117H110.336C109.89 324.871 109.148 325.285 108.197 325.285ZM107.002 323.159C107.002 323.874 107.613 324.294 108.433 324.294C109.594 324.294 110.441 323.533 110.441 322.522V321.879L108.551 321.997C107.475 322.063 107.002 322.443 107.002 323.145V323.159ZM113.343 325.16V318.086H114.485V319.149H114.59C114.945 318.401 115.607 317.961 116.651 317.961C118.239 317.961 119.125 318.9 119.125 320.58V325.16H117.983V320.855C117.983 319.582 117.458 318.972 116.329 318.972C115.201 318.972 114.485 319.733 114.485 320.973V325.16H113.343ZM123.76 325.285C121.778 325.285 120.511 323.848 120.511 321.603V321.59C120.511 319.392 121.771 317.961 123.753 317.961C125.473 317.961 126.503 318.952 126.713 320.212L126.719 320.251H125.584L125.578 320.232C125.4 319.536 124.77 318.972 123.753 318.972C122.48 318.972 121.679 319.995 121.679 321.59V321.603C121.679 323.231 122.493 324.274 123.753 324.274C124.705 324.274 125.309 323.854 125.571 323.067L125.584 323.027L126.713 323.021L126.7 323.093C126.411 324.373 125.459 325.285 123.76 325.285ZM130.947 325.285C128.926 325.285 127.706 323.867 127.706 321.649V321.643C127.706 319.457 128.952 317.961 130.875 317.961C132.798 317.961 133.966 319.392 133.966 321.505V321.951H128.874C128.906 323.415 129.714 324.268 130.974 324.268C131.932 324.268 132.522 323.815 132.713 323.388L132.739 323.329H133.881L133.868 323.382C133.625 324.34 132.614 325.285 130.947 325.285ZM130.869 318.978C129.819 318.978 129.018 319.694 128.893 321.039H132.805C132.686 319.641 131.912 318.978 130.869 318.978ZM139.338 325.16V319.031H138.163V318.086H139.338V317.298C139.338 315.887 140.047 315.211 141.392 315.211C141.667 315.211 141.917 315.231 142.153 315.277V316.189C142.015 316.163 141.825 316.156 141.622 316.156C140.808 316.156 140.48 316.557 140.48 317.331V318.086H142.087V319.031H140.48V325.16H139.338ZM146.014 325.285C143.999 325.285 142.752 323.894 142.752 321.63V321.616C142.752 319.346 143.999 317.961 146.014 317.961C148.028 317.961 149.275 319.346 149.275 321.616V321.63C149.275 323.894 148.028 325.285 146.014 325.285ZM146.014 324.274C147.352 324.274 148.107 323.296 148.107 321.63V321.616C148.107 319.943 147.352 318.972 146.014 318.972C144.675 318.972 143.92 319.943 143.92 321.616V321.63C143.92 323.296 144.675 324.274 146.014 324.274ZM150.721 325.16V318.086H151.862V319.136H151.967C152.237 318.394 152.899 317.961 153.857 317.961C154.074 317.961 154.317 317.987 154.428 318.007V319.116C154.192 319.077 153.976 319.05 153.726 319.05C152.637 319.05 151.862 319.74 151.862 320.776V325.16H150.721ZM160.909 325.285C159.564 325.285 158.547 324.471 158.547 323.185V323.172C158.547 321.912 159.478 321.183 161.126 321.085L163.153 320.96V320.317C163.153 319.444 162.622 318.972 161.565 318.972C160.719 318.972 160.161 319.287 159.977 319.838L159.971 319.858H158.829L158.835 319.818C159.019 318.709 160.095 317.961 161.605 317.961C163.331 317.961 164.295 318.847 164.295 320.317V325.16H163.153V324.117H163.048C162.602 324.871 161.861 325.285 160.909 325.285ZM159.715 323.159C159.715 323.874 160.325 324.294 161.145 324.294C162.307 324.294 163.153 323.533 163.153 322.522V321.879L161.263 321.997C160.187 322.063 159.715 322.443 159.715 323.145V323.159ZM169.575 325.16V315.277H170.717V325.16H169.575ZM175.49 325.285C173.475 325.285 172.228 323.894 172.228 321.63V321.616C172.228 319.346 173.475 317.961 175.49 317.961C177.504 317.961 178.751 319.346 178.751 321.616V321.63C178.751 323.894 177.504 325.285 175.49 325.285ZM175.49 324.274C176.828 324.274 177.583 323.296 177.583 321.63V321.616C177.583 319.943 176.828 318.972 175.49 318.972C174.151 318.972 173.396 319.943 173.396 321.616V321.63C173.396 323.296 174.151 324.274 175.49 324.274ZM182.139 325.285C180.794 325.285 179.777 324.471 179.777 323.185V323.172C179.777 321.912 180.708 321.183 182.356 321.085L184.383 320.96V320.317C184.383 319.444 183.852 318.972 182.795 318.972C181.949 318.972 181.391 319.287 181.207 319.838L181.201 319.858H180.059L180.065 319.818C180.249 318.709 181.325 317.961 182.835 317.961C184.561 317.961 185.525 318.847 185.525 320.317V325.16H184.383V324.117H184.278C183.832 324.871 183.091 325.285 182.139 325.285ZM180.945 323.159C180.945 323.874 181.555 324.294 182.375 324.294C183.537 324.294 184.383 323.533 184.383 322.522V321.879L182.493 321.997C181.417 322.063 180.945 322.443 180.945 323.145V323.159ZM187.286 325.16V318.086H188.428V319.149H188.533C188.887 318.401 189.55 317.961 190.593 317.961C192.181 317.961 193.067 318.9 193.067 320.58V325.16H191.925V320.855C191.925 319.582 191.4 318.972 190.272 318.972C189.143 318.972 188.428 319.733 188.428 320.973V325.16H187.286ZM194.519 327.569L195.09 323.835H196.396L195.366 327.569H194.519ZM201.991 325.16V315.277H203.133V325.16H201.991ZM205.602 316.721C205.169 316.721 204.815 316.366 204.815 315.933C204.815 315.5 205.169 315.146 205.602 315.146C206.035 315.146 206.39 315.5 206.39 315.933C206.39 316.366 206.035 316.721 205.602 316.721ZM205.025 325.16V318.086H206.166V325.16H205.025ZM208.058 325.16V315.277H209.2V321.177H209.305L212.363 318.086H213.748L210.663 321.059L213.951 325.16H212.514L209.863 321.833L209.2 322.476V325.16H208.058ZM217.523 325.285C215.502 325.285 214.281 323.867 214.281 321.649V321.643C214.281 319.457 215.528 317.961 217.451 317.961C219.374 317.961 220.542 319.392 220.542 321.505V321.951H215.449C215.482 323.415 216.289 324.268 217.549 324.268C218.507 324.268 219.098 323.815 219.288 323.388L219.315 323.329H220.456L220.443 323.382C220.201 324.34 219.19 325.285 217.523 325.285ZM217.444 318.978C216.394 318.978 215.594 319.694 215.469 321.039H219.38C219.262 319.641 218.488 318.978 217.444 318.978ZM222.053 325.16V315.277H223.195V325.16H222.053ZM225.664 327.641C225.513 327.641 225.316 327.628 225.159 327.601V326.663C225.296 326.689 225.474 326.696 225.631 326.696C226.281 326.696 226.675 326.4 226.931 325.587L227.062 325.167L224.443 318.086H225.664L227.606 323.907H227.711L229.647 318.086H230.848L228.086 325.593C227.501 327.181 226.917 327.641 225.664 327.641ZM236.85 325.16L234.868 318.086H236.01L237.401 323.743H237.506L239.088 318.086H240.171L241.752 323.743H241.857L243.248 318.086H244.384L242.402 325.16H241.253L239.672 319.687H239.567L237.992 325.16H236.85ZM246.17 316.721C245.737 316.721 245.383 316.366 245.383 315.933C245.383 315.5 245.737 315.146 246.17 315.146C246.604 315.146 246.958 315.5 246.958 315.933C246.958 316.366 246.604 316.721 246.17 316.721ZM245.593 325.16V318.086H246.735V325.16H245.593ZM251.074 325.213C249.617 325.213 249.007 324.675 249.007 323.323V319.031H247.891V318.086H249.007V316.255H250.188V318.086H251.737V319.031H250.188V323.034C250.188 323.867 250.477 324.202 251.212 324.202C251.416 324.202 251.527 324.195 251.737 324.176V325.147C251.514 325.186 251.297 325.213 251.074 325.213ZM253.183 325.16V315.277H254.324V319.149H254.429C254.784 318.401 255.447 317.961 256.49 317.961C258.078 317.961 258.964 318.9 258.964 320.58V325.16H257.822V320.855C257.822 319.582 257.297 318.972 256.169 318.972C255.04 318.972 254.324 319.733 254.324 320.973V325.16H253.183ZM267.676 325.285C266.692 325.285 265.904 324.819 265.471 324.031H265.366V325.16H264.224V315.277H265.366V319.201H265.471C265.858 318.447 266.705 317.961 267.676 317.961C269.474 317.961 270.642 319.398 270.642 321.616V321.63C270.642 323.835 269.468 325.285 267.676 325.285ZM267.414 324.274C268.706 324.274 269.474 323.277 269.474 321.63V321.616C269.474 319.969 268.706 318.972 267.414 318.972C266.127 318.972 265.34 319.982 265.34 321.616V321.63C265.34 323.264 266.127 324.274 267.414 324.274ZM274.03 325.285C272.685 325.285 271.668 324.471 271.668 323.185V323.172C271.668 321.912 272.6 321.183 274.247 321.085L276.275 320.96V320.317C276.275 319.444 275.743 318.972 274.687 318.972C273.84 318.972 273.282 319.287 273.098 319.838L273.092 319.858H271.95L271.957 319.818C272.14 318.709 273.217 317.961 274.726 317.961C276.452 317.961 277.417 318.847 277.417 320.317V325.16H276.275V324.117H276.17C275.723 324.871 274.982 325.285 274.03 325.285ZM272.836 323.159C272.836 323.874 273.446 324.294 274.267 324.294C275.428 324.294 276.275 323.533 276.275 322.522V321.879L274.385 321.997C273.308 322.063 272.836 322.443 272.836 323.145V323.159ZM281.605 325.285C280.03 325.285 278.947 324.524 278.816 323.355H279.984C280.174 323.946 280.739 324.333 281.644 324.333C282.596 324.333 283.272 323.88 283.272 323.237V323.224C283.272 322.745 282.911 322.41 282.038 322.2L280.942 321.938C279.617 321.623 279.019 321.045 279.019 320.028V320.022C279.019 318.847 280.148 317.961 281.651 317.961C283.134 317.961 284.164 318.703 284.322 319.858H283.2C283.049 319.3 282.498 318.913 281.644 318.913C280.804 318.913 280.188 319.346 280.188 319.969V319.982C280.188 320.461 280.542 320.763 281.375 320.967L282.465 321.229C283.797 321.551 284.44 322.128 284.44 323.139V323.152C284.44 324.412 283.213 325.285 281.605 325.285ZM286.489 316.721C286.056 316.721 285.702 316.366 285.702 315.933C285.702 315.5 286.056 315.146 286.489 315.146C286.922 315.146 287.277 315.5 287.277 315.933C287.277 316.366 286.922 316.721 286.489 316.721ZM285.912 325.16V318.086H287.054V325.16H285.912ZM291.774 325.285C289.792 325.285 288.525 323.848 288.525 321.603V321.59C288.525 319.392 289.785 317.961 291.767 317.961C293.487 317.961 294.517 318.952 294.727 320.212L294.734 320.251H293.598L293.592 320.232C293.414 319.536 292.784 318.972 291.767 318.972C290.494 318.972 289.694 319.995 289.694 321.59V321.603C289.694 323.231 290.507 324.274 291.767 324.274C292.719 324.274 293.323 323.854 293.585 323.067L293.598 323.027L294.727 323.021L294.714 323.093C294.425 324.373 293.474 325.285 291.774 325.285ZM302.041 325.213C300.584 325.213 299.974 324.675 299.974 323.323V319.031H298.858V318.086H299.974V316.255H301.155V318.086H302.704V319.031H301.155V323.034C301.155 323.867 301.444 324.202 302.179 324.202C302.382 324.202 302.494 324.195 302.704 324.176V325.147C302.481 325.186 302.264 325.213 302.041 325.213ZM306.866 325.285C304.845 325.285 303.624 323.867 303.624 321.649V321.643C303.624 319.457 304.871 317.961 306.794 317.961C308.717 317.961 309.885 319.392 309.885 321.505V321.951H304.792C304.825 323.415 305.632 324.268 306.892 324.268C307.851 324.268 308.441 323.815 308.632 323.388L308.658 323.329H309.8L309.787 323.382C309.544 324.34 308.533 325.285 306.866 325.285ZM306.787 318.978C305.737 318.978 304.937 319.694 304.812 321.039H308.723C308.605 319.641 307.831 318.978 306.787 318.978ZM311.33 325.16V318.086H312.472V319.136H312.577C312.846 318.394 313.509 317.961 314.467 317.961C314.684 317.961 314.927 317.987 315.038 318.007V319.116C314.802 319.077 314.585 319.05 314.336 319.05C313.247 319.05 312.472 319.74 312.472 320.776V325.16H311.33ZM316.254 325.16V318.086H317.396V319.162H317.501C317.816 318.401 318.485 317.961 319.411 317.961C320.369 317.961 321.038 318.466 321.366 319.201H321.471C321.852 318.453 322.659 317.961 323.637 317.961C325.081 317.961 325.888 318.788 325.888 320.271V325.16H324.746V320.534C324.746 319.49 324.267 318.972 323.269 318.972C322.285 318.972 321.635 319.713 321.635 320.612V325.16H320.493V320.356C320.493 319.516 319.916 318.972 319.023 318.972C318.098 318.972 317.396 319.779 317.396 320.776V325.16H316.254ZM330.05 325.285C328.475 325.285 327.392 324.524 327.261 323.355H328.429C328.62 323.946 329.184 324.333 330.09 324.333C331.041 324.333 331.717 323.88 331.717 323.237V323.224C331.717 322.745 331.356 322.41 330.483 322.2L329.387 321.938C328.062 321.623 327.465 321.045 327.465 320.028V320.022C327.465 318.847 328.593 317.961 330.096 317.961C331.579 317.961 332.61 318.703 332.767 319.858H331.645C331.494 319.3 330.943 318.913 330.09 318.913C329.25 318.913 328.633 319.346 328.633 319.969V319.982C328.633 320.461 328.987 320.763 329.82 320.967L330.91 321.229C332.242 321.551 332.885 322.128 332.885 323.139V323.152C332.885 324.412 331.658 325.285 330.05 325.285Z" fill="#9299A2"/>
<rect opacity="0.4" x="18" y="345.24" width="5" height="60" rx="2.5" fill="#FC7575"/>
<path d="M42.1421 369.32V359.708H41.9927L39.0542 361.75V359.492L42.1504 357.342H44.6489V369.32H42.1421ZM46.9116 365.577V363.394H56.3662V365.577H46.9116ZM62.2729 369.586C59.5668 369.586 57.7821 368.133 57.6161 365.992L57.6078 365.884H60.0067L60.015 365.975C60.123 366.905 60.9779 367.569 62.2729 367.569C63.5512 367.569 64.3896 366.855 64.3896 365.842V365.826C64.3896 364.68 63.5346 364.049 62.0819 364.049H60.7123V362.265H62.0487C63.3105 362.265 64.1239 361.601 64.1239 360.629V360.613C64.1239 359.617 63.435 359.002 62.2563 359.002C61.0775 359.002 60.289 359.642 60.1894 360.638L60.1811 360.712H57.8734L57.8817 360.613C58.0561 358.471 59.7411 357.077 62.2563 357.077C64.8295 357.077 66.4897 358.372 66.4897 360.281V360.297C66.4897 361.792 65.394 362.763 63.9911 363.053V363.103C65.7758 363.269 66.9379 364.298 66.9379 365.925V365.942C66.9379 368.117 65.0702 369.586 62.2729 369.586ZM73.3011 369.627C70.3461 369.627 68.5448 367.204 68.5448 363.335V363.319C68.5448 359.442 70.3461 357.035 73.3011 357.035C76.2645 357.035 78.0575 359.442 78.0575 363.319V363.335C78.0575 367.204 76.2645 369.627 73.3011 369.627ZM73.3011 367.644C74.7206 367.644 75.5257 366.042 75.5257 363.335V363.319C75.5257 360.604 74.7206 359.019 73.3011 359.019C71.89 359.019 71.0848 360.604 71.0848 363.319V363.335C71.0848 366.042 71.89 367.644 73.3011 367.644ZM84.5452 369.627C81.5901 369.627 79.7889 367.204 79.7889 363.335V363.319C79.7889 359.442 81.5901 357.035 84.5452 357.035C87.5086 357.035 89.3016 359.442 89.3016 363.319V363.335C89.3016 367.204 87.5086 369.627 84.5452 369.627ZM84.5452 367.644C85.9647 367.644 86.7698 366.042 86.7698 363.335V363.319C86.7698 360.604 85.9647 359.019 84.5452 359.019C83.1341 359.019 82.3289 360.604 82.3289 363.319V363.335C82.3289 366.042 83.1341 367.644 84.5452 367.644Z" fill="#9299A2"/>
<path d="M42.7571 390.16V380.69H43.9384V389.097H48.5059V390.16H42.7571ZM52.6001 390.285C50.5855 390.285 49.3386 388.894 49.3386 386.63V386.616C49.3386 384.346 50.5855 382.961 52.6001 382.961C54.6148 382.961 55.8617 384.346 55.8617 386.616V386.63C55.8617 388.894 54.6148 390.285 52.6001 390.285ZM52.6001 389.274C53.9389 389.274 54.6936 388.296 54.6936 386.63V386.616C54.6936 384.943 53.9389 383.972 52.6001 383.972C51.2614 383.972 50.5067 384.943 50.5067 386.616V386.63C50.5067 388.296 51.2614 389.274 52.6001 389.274ZM58.5057 390.16L56.5238 383.086H57.6657L59.0569 388.743H59.1619L60.7435 383.086H61.8263L63.4079 388.743H63.5129L64.9041 383.086H66.0394L64.0576 390.16H62.9091L61.3276 384.687H61.2226L59.6476 390.16H58.5057ZM73.7621 390.285C71.7802 390.285 70.5136 388.848 70.5136 386.603V386.59C70.5136 384.392 71.7736 382.961 73.7555 382.961C75.4749 382.961 76.5052 383.952 76.7152 385.212L76.7218 385.251H75.5864L75.5799 385.232C75.4027 384.536 74.7727 383.972 73.7555 383.972C72.4824 383.972 71.6818 384.995 71.6818 386.59V386.603C71.6818 388.231 72.4955 389.274 73.7555 389.274C74.7071 389.274 75.3108 388.854 75.5733 388.067L75.5864 388.027L76.7152 388.021L76.7021 388.093C76.4133 389.373 75.4618 390.285 73.7621 390.285ZM78.2239 390.16V380.277H79.3657V384.149H79.4707C79.8251 383.401 80.4879 382.961 81.5314 382.961C83.1195 382.961 84.0054 383.9 84.0054 385.58V390.16H82.8635V385.855C82.8635 384.582 82.3385 383.972 81.2098 383.972C80.081 383.972 79.3657 384.733 79.3657 385.973V390.16H78.2239ZM87.7847 390.285C86.4394 390.285 85.4222 389.471 85.4222 388.185V388.172C85.4222 386.912 86.3541 386.183 88.0013 386.085L90.0291 385.96V385.317C90.0291 384.444 89.4975 383.972 88.441 383.972C87.5944 383.972 87.0366 384.287 86.8528 384.838L86.8463 384.858H85.7044L85.711 384.818C85.8947 383.709 86.971 382.961 88.4803 382.961C90.2063 382.961 91.171 383.847 91.171 385.317V390.16H90.0291V389.117H89.9241C89.4778 389.871 88.7363 390.285 87.7847 390.285ZM86.5903 388.159C86.5903 388.874 87.2006 389.294 88.021 389.294C89.1825 389.294 90.0291 388.533 90.0291 387.522V386.879L88.1391 386.997C87.0628 387.063 86.5903 387.443 86.5903 388.145V388.159ZM93.0274 390.16V383.086H94.1693V384.149H94.2743C94.6287 383.401 95.2915 382.961 96.3349 382.961C97.9231 382.961 98.809 383.9 98.809 385.58V390.16H97.6671V385.855C97.6671 384.582 97.1421 383.972 96.0134 383.972C94.8846 383.972 94.1693 384.733 94.1693 385.973V390.16H93.0274ZM103.54 390.285C101.558 390.285 100.291 388.848 100.291 386.603V386.59C100.291 384.392 101.551 382.961 103.533 382.961C105.253 382.961 106.283 383.952 106.493 385.212L106.5 385.251H105.364L105.358 385.232C105.18 384.536 104.55 383.972 103.533 383.972C102.26 383.972 101.46 384.995 101.46 386.59V386.603C101.46 388.231 102.273 389.274 103.533 389.274C104.485 389.274 105.089 388.854 105.351 388.067L105.364 388.027L106.493 388.021L106.48 388.093C106.191 389.373 105.24 390.285 103.54 390.285ZM110.824 390.285C108.802 390.285 107.582 388.867 107.582 386.649V386.643C107.582 384.457 108.829 382.961 110.751 382.961C112.674 382.961 113.842 384.392 113.842 386.505V386.951H108.75C108.783 388.415 109.59 389.268 110.85 389.268C111.808 389.268 112.399 388.815 112.589 388.388L112.615 388.329H113.757L113.744 388.382C113.501 389.34 112.49 390.285 110.824 390.285ZM110.745 383.978C109.695 383.978 108.894 384.694 108.769 386.039H112.681C112.563 384.641 111.788 383.978 110.745 383.978ZM121.841 390.285C119.826 390.285 118.579 388.894 118.579 386.63V386.616C118.579 384.346 119.826 382.961 121.841 382.961C123.855 382.961 125.102 384.346 125.102 386.616V386.63C125.102 388.894 123.855 390.285 121.841 390.285ZM121.841 389.274C123.179 389.274 123.934 388.296 123.934 386.63V386.616C123.934 384.943 123.179 383.972 121.841 383.972C120.502 383.972 119.747 384.943 119.747 386.616V386.63C119.747 388.296 120.502 389.274 121.841 389.274ZM127.116 390.16V384.031H125.941V383.086H127.116V382.298C127.116 380.887 127.825 380.211 129.17 380.211C129.446 380.211 129.695 380.231 129.931 380.277V381.189C129.794 381.163 129.603 381.156 129.4 381.156C128.586 381.156 128.258 381.557 128.258 382.331V383.086H129.866V384.031H128.258V390.16H127.116ZM134.898 390.16V380.277H136.04V390.16H134.898ZM140.908 390.285C138.894 390.285 137.647 388.894 137.647 386.63V386.616C137.647 384.346 138.894 382.961 140.908 382.961C142.923 382.961 144.17 384.346 144.17 386.616V386.63C144.17 388.894 142.923 390.285 140.908 390.285ZM140.908 389.274C142.247 389.274 143.002 388.296 143.002 386.63V386.616C143.002 384.943 142.247 383.972 140.908 383.972C139.57 383.972 138.815 384.943 138.815 386.616V386.63C138.815 388.296 139.57 389.274 140.908 389.274ZM147.654 390.285C146.309 390.285 145.291 389.471 145.291 388.185V388.172C145.291 386.912 146.223 386.183 147.87 386.085L149.898 385.96V385.317C149.898 384.444 149.367 383.972 148.31 383.972C147.464 383.972 146.906 384.287 146.722 384.838L146.715 384.858H145.574L145.58 384.818C145.764 383.709 146.84 382.961 148.349 382.961C150.075 382.961 151.04 383.847 151.04 385.317V390.16H149.898V389.117H149.793C149.347 389.871 148.605 390.285 147.654 390.285ZM146.459 388.159C146.459 388.874 147.07 389.294 147.89 389.294C149.052 389.294 149.898 388.533 149.898 387.522V386.879L148.008 386.997C146.932 387.063 146.459 387.443 146.459 388.145V388.159ZM152.897 390.16V383.086H154.038V384.149H154.143C154.498 383.401 155.161 382.961 156.204 382.961C157.792 382.961 158.678 383.9 158.678 385.58V390.16H157.536V385.855C157.536 384.582 157.011 383.972 155.882 383.972C154.754 383.972 154.038 384.733 154.038 385.973V390.16H152.897ZM166.007 390.285C164.662 390.285 163.645 389.471 163.645 388.185V388.172C163.645 386.912 164.576 386.183 166.224 386.085L168.251 385.96V385.317C168.251 384.444 167.72 383.972 166.663 383.972C165.817 383.972 165.259 384.287 165.075 384.838L165.069 384.858H163.927L163.933 384.818C164.117 383.709 165.193 382.961 166.703 382.961C168.429 382.961 169.393 383.847 169.393 385.317V390.16H168.251V389.117H168.146C167.7 389.871 166.959 390.285 166.007 390.285ZM164.813 388.159C164.813 388.874 165.423 389.294 166.243 389.294C167.405 389.294 168.251 388.533 168.251 387.522V386.879L166.361 386.997C165.285 387.063 164.813 387.443 164.813 388.145V388.159ZM171.25 392.523V383.086H172.392V384.215H172.497C172.93 383.427 173.717 382.961 174.702 382.961C176.493 382.961 177.668 384.411 177.668 386.616V386.63C177.668 388.848 176.5 390.285 174.702 390.285C173.73 390.285 172.884 389.799 172.497 389.045H172.392V392.523H171.25ZM174.439 389.274C175.732 389.274 176.5 388.277 176.5 386.63V386.616C176.5 384.969 175.732 383.972 174.439 383.972C173.153 383.972 172.365 384.982 172.365 386.616V386.63C172.365 388.264 173.153 389.274 174.439 389.274ZM179.222 392.523V383.086H180.364V384.215H180.469C180.902 383.427 181.69 382.961 182.674 382.961C184.466 382.961 185.641 384.411 185.641 386.616V386.63C185.641 388.848 184.472 390.285 182.674 390.285C181.703 390.285 180.857 389.799 180.469 389.045H180.364V392.523H179.222ZM182.412 389.274C183.705 389.274 184.472 388.277 184.472 386.63V386.616C184.472 384.969 183.705 383.972 182.412 383.972C181.126 383.972 180.338 384.982 180.338 386.616V386.63C180.338 388.264 181.126 389.274 182.412 389.274ZM187.195 390.16V383.086H188.337V384.136H188.442C188.711 383.394 189.374 382.961 190.332 382.961C190.549 382.961 190.791 382.987 190.903 383.007V384.116C190.667 384.077 190.45 384.05 190.201 384.05C189.111 384.05 188.337 384.74 188.337 385.776V390.16H187.195ZM194.794 390.285C192.779 390.285 191.532 388.894 191.532 386.63V386.616C191.532 384.346 192.779 382.961 194.794 382.961C196.809 382.961 198.055 384.346 198.055 386.616V386.63C198.055 388.894 196.809 390.285 194.794 390.285ZM194.794 389.274C196.133 389.274 196.887 388.296 196.887 386.63V386.616C196.887 384.943 196.133 383.972 194.794 383.972C193.455 383.972 192.7 384.943 192.7 386.616V386.63C192.7 388.296 193.455 389.274 194.794 389.274ZM201.336 390.16L198.718 383.086H199.925L201.861 388.913H201.966L203.902 383.086H205.109L202.491 390.16H201.336ZM208.068 390.285C206.723 390.285 205.706 389.471 205.706 388.185V388.172C205.706 386.912 206.638 386.183 208.285 386.085L210.313 385.96V385.317C210.313 384.444 209.781 383.972 208.725 383.972C207.878 383.972 207.32 384.287 207.136 384.838L207.13 384.858H205.988L205.995 384.818C206.178 383.709 207.255 382.961 208.764 382.961C210.49 382.961 211.455 383.847 211.455 385.317V390.16H210.313V389.117H210.208C209.761 389.871 209.02 390.285 208.068 390.285ZM206.874 388.159C206.874 388.874 207.484 389.294 208.305 389.294C209.466 389.294 210.313 388.533 210.313 387.522V386.879L208.423 386.997C207.346 387.063 206.874 387.443 206.874 388.145V388.159ZM213.377 390.16V380.277H214.519V390.16H213.377Z" fill="#9299A2"/>
</g>
</g>
<defs>
<filter id="filter0_d_2048_28490" x="-32.64" y="-26.88" width="425.28" height="535.28" filterUnits="userSpaceOnUse" color-interpolation-filters="sRGB">
<feFlood flood-opacity="0" result="BackgroundImageFix"/>
<feColorMatrix in="SourceAlpha" type="matrix" values="0 0 0 0 0 0 0 0 0 0 0 0 0 0 0 0 0 0 127 0" result="hardAlpha"/>
<feOffset dy="5.76"/>
<feGaussianBlur stdDeviation="16.32"/>
<feColorMatrix type="matrix" values="0 0 0 0 0 0 0 0 0 0 0 0 0 0 0 0 0 0 0.12 0"/>
<feBlend mode="normal" in2="BackgroundImageFix" result="effect1_dropShadow_2048_28490"/>
<feBlend mode="normal" in="SourceGraphic" in2="effect1_dropShadow_2048_28490" result="shape"/>
</filter>
<clipPath id="clip0_2048_28490">
<rect width="360" height="429" fill="white"/>
</clipPath>
</defs>
</svg>
