<svg width="800" height="800" viewBox="0 0 800 800" fill="none" xmlns="http://www.w3.org/2000/svg">
<path d="M248.355 436.878L406.851 609.879C419.66 624.997 417.804 647.651 402.705 660.476C387.606 673.301 364.982 671.443 352.173 656.325L141.403 426.265C138.372 423.216 135.916 419.644 134.153 415.721C131.961 410.845 130.887 405.539 131.009 400.192L131.01 400.159C131.132 394.824 132.437 389.584 134.831 384.816C135.064 384.355 135.306 383.898 135.559 383.447C137.02 380.83 138.805 378.408 140.872 376.239L357.246 142.495C370.706 127.955 393.39 127.093 407.911 140.57C422.432 154.047 423.293 176.76 409.834 191.3L248.965 365.083H633.148C652.949 365.083 669 381.155 669 400.98C669 420.806 652.949 436.878 633.148 436.878H248.355V436.878Z" fill="black"/>
</svg>
