<svg width="847" height="450" viewBox="0 0 847 450" fill="none" xmlns="http://www.w3.org/2000/svg">
<g clip-path="url(#clip0_2503_31110)">
<g filter="url(#filter0_dd_2503_31110)">
<g clip-path="url(#clip1_2503_31110)">
<rect x="23.2627" y="414.535" width="392.483" height="800.445" rx="17.3772" transform="rotate(-90 23.2627 414.535)" fill="white"/>
<g clip-path="url(#clip2_2503_31110)">
<rect width="803.762" height="414.595" transform="translate(19.9459 18.7358)" fill="#F7F7F7"/>
<path fill-rule="evenodd" clip-rule="evenodd" d="M49.8084 40.2023L48.2489 38.6428L42.0663 44.8255L35.8836 38.6428L34.3242 40.2023L40.5068 46.3849L34.3242 52.5676L35.8836 54.1271L42.0663 47.9444L48.2489 54.1271L49.8084 52.5676L43.6258 46.3849L49.8084 40.2023Z" fill="#00BF96"/>
<path d="M312.691 53.3188V40.0761H318.041C320.886 40.0761 322.593 41.6638 322.593 44.1875V44.2059C322.593 45.9587 321.666 47.4087 320.097 47.9777L322.988 53.3188H320.281L317.683 48.3356H315.059V53.3188H312.691ZM315.059 46.5185H317.794C319.289 46.5185 320.161 45.6834 320.161 44.2609V44.2426C320.161 42.8568 319.253 41.9941 317.748 41.9941H315.059V46.5185ZM328.757 53.5207C325.774 53.5207 323.966 51.5201 323.966 48.3264V48.3173C323.966 45.1603 325.793 43.0954 328.647 43.0954C331.501 43.0954 333.263 45.096 333.263 48.1245V48.8771H326.251C326.279 50.6758 327.252 51.722 328.803 51.722C330.042 51.722 330.748 51.098 330.968 50.6391L330.996 50.5749H333.171L333.143 50.6575C332.822 51.9514 331.482 53.5207 328.757 53.5207ZM328.674 44.885C327.399 44.885 326.444 45.7476 326.27 47.3445H331.033C330.877 45.7017 329.95 44.885 328.674 44.885ZM337.554 53.3188L333.984 43.2881H336.425L338.747 51.0888H338.903L341.207 43.2881H343.611L340.06 53.3188H337.554ZM348.976 53.5207C345.994 53.5207 344.186 51.5201 344.186 48.3264V48.3173C344.186 45.1603 346.012 43.0954 348.866 43.0954C351.72 43.0954 353.482 45.096 353.482 48.1245V48.8771H346.471C346.498 50.6758 347.471 51.722 349.022 51.722C350.261 51.722 350.968 51.098 351.188 50.6391L351.215 50.5749H353.39L353.363 50.6575C353.042 51.9514 351.702 53.5207 348.976 53.5207ZM348.894 44.885C347.618 44.885 346.664 45.7476 346.489 47.3445H351.252C351.096 45.7017 350.169 44.885 348.894 44.885ZM355.314 53.3188V43.2881H357.599V44.8207H357.755C358.232 43.747 359.196 43.0954 360.646 43.0954C362.885 43.0954 364.106 44.4445 364.106 46.8305V53.3188H361.821V47.3628C361.821 45.8027 361.187 45.0135 359.802 45.0135C358.443 45.0135 357.599 45.9679 357.599 47.473V53.3188H355.314ZM369.673 53.5207C367.415 53.5207 366.259 52.1625 366.259 49.7764V43.2881H368.544V49.2533C368.544 50.8043 369.122 51.5935 370.499 51.5935C371.976 51.5935 372.766 50.6391 372.766 49.134V43.2881H375.051V53.3188H372.766V51.7954H372.61C372.141 52.8692 371.123 53.5207 369.673 53.5207ZM381.682 53.5207C378.7 53.5207 376.892 51.5201 376.892 48.3264V48.3173C376.892 45.1603 378.718 43.0954 381.572 43.0954C384.426 43.0954 386.188 45.096 386.188 48.1245V48.8771H379.177C379.204 50.6758 380.177 51.722 381.728 51.722C382.967 51.722 383.674 51.098 383.894 50.6391L383.921 50.5749H386.096L386.069 50.6575C385.748 51.9514 384.408 53.5207 381.682 53.5207ZM381.6 44.885C380.324 44.885 379.37 45.7476 379.195 47.3445H383.958C383.802 45.7017 382.875 44.885 381.6 44.885ZM395.312 53.484C393.403 53.484 392.018 52.3094 392.018 50.4831V50.4647C392.018 48.6752 393.385 47.629 395.826 47.4821L398.405 47.3261V46.4635C398.405 45.4631 397.753 44.9125 396.524 44.9125C395.478 44.9125 394.798 45.2888 394.569 45.9495L394.56 45.9862H392.403L392.412 45.9036C392.633 44.215 394.248 43.0954 396.634 43.0954C399.213 43.0954 400.663 44.3435 400.663 46.4635V53.3188H398.405V51.9423H398.249C397.698 52.915 396.634 53.484 395.312 53.484ZM394.275 50.373C394.275 51.2264 395 51.7312 396.01 51.7312C397.386 51.7312 398.405 50.8318 398.405 49.6388V48.8312L396.147 48.978C394.872 49.0606 394.275 49.5287 394.275 50.3546V50.373ZM402.953 53.3188V43.2881H405.239V44.8207H405.395C405.872 43.747 406.835 43.0954 408.285 43.0954C410.525 43.0954 411.745 44.4445 411.745 46.8305V53.3188H409.46V47.3628C409.46 45.8027 408.827 45.0135 407.441 45.0135C406.083 45.0135 405.239 45.9679 405.239 47.473V53.3188H402.953ZM417.606 53.484C415.091 53.484 413.494 51.4926 413.494 48.3173V48.2989C413.494 45.1052 415.064 43.1229 417.606 43.1229C418.982 43.1229 420.13 43.8021 420.653 44.885H420.809V39.4062H423.103V53.3188H420.809V51.7495H420.653C420.102 52.8416 419.019 53.484 417.606 53.484ZM418.322 51.5568C419.882 51.5568 420.845 50.3271 420.845 48.3173V48.2989C420.845 46.2891 419.873 45.0502 418.322 45.0502C416.771 45.0502 415.816 46.2799 415.816 48.2989V48.3173C415.816 50.3362 416.761 51.5568 418.322 51.5568ZM432.814 53.484C430.906 53.484 429.52 52.3094 429.52 50.4831V50.4647C429.52 48.6752 430.887 47.629 433.328 47.4821L435.907 47.3261V46.4635C435.907 45.4631 435.256 44.9125 434.026 44.9125C432.98 44.9125 432.301 45.2888 432.071 45.9495L432.062 45.9862H429.905L429.914 45.9036C430.135 44.215 431.75 43.0954 434.136 43.0954C436.715 43.0954 438.165 44.3435 438.165 46.4635V53.3188H435.907V51.9423H435.751C435.201 52.915 434.136 53.484 432.814 53.484ZM431.777 50.373C431.777 51.2264 432.502 51.7312 433.512 51.7312C434.889 51.7312 435.907 50.8318 435.907 49.6388V48.8312L433.65 48.978C432.374 49.0606 431.777 49.5287 431.777 50.3546V50.373ZM442.842 53.3188L439.272 43.2881H441.713L444.035 51.0888H444.191L446.494 43.2881H448.899L445.347 53.3188H442.842ZM454.264 53.5207C451.281 53.5207 449.473 51.5201 449.473 48.3264V48.3173C449.473 45.1603 451.299 43.0954 454.153 43.0954C457.008 43.0954 458.77 45.096 458.77 48.1245V48.8771H451.758C451.786 50.6758 452.759 51.722 454.31 51.722C455.548 51.722 456.255 51.098 456.475 50.6391L456.503 50.5749H458.678L458.65 50.6575C458.329 51.9514 456.989 53.5207 454.264 53.5207ZM454.181 44.885C452.905 44.885 451.951 45.7476 451.777 47.3445H456.54C456.384 45.7017 455.457 44.885 454.181 44.885ZM460.601 53.3188V43.2881H462.887V44.8299H463.043C463.382 43.7562 464.3 43.1229 465.621 43.1229C465.97 43.1229 466.328 43.1688 466.548 43.2331V45.2796C466.181 45.2062 465.805 45.1511 465.41 45.1511C463.887 45.1511 462.887 46.0597 462.887 47.4913V53.3188H460.601ZM470.574 53.484C468.665 53.484 467.279 52.3094 467.279 50.4831V50.4647C467.279 48.6752 468.646 47.629 471.087 47.4821L473.666 47.3261V46.4635C473.666 45.4631 473.015 44.9125 471.785 44.9125C470.739 44.9125 470.06 45.2888 469.83 45.9495L469.821 45.9862H467.664L467.674 45.9036C467.894 44.215 469.509 43.0954 471.895 43.0954C474.474 43.0954 475.924 44.3435 475.924 46.4635V53.3188H473.666V51.9423H473.51C472.96 52.915 471.895 53.484 470.574 53.484ZM469.536 50.373C469.536 51.2264 470.261 51.7312 471.271 51.7312C472.648 51.7312 473.666 50.8318 473.666 49.6388V48.8312L471.409 48.978C470.133 49.0606 469.536 49.5287 469.536 50.3546V50.373ZM482.528 56.8429C479.885 56.8429 478.297 55.7141 478.068 54.0255L478.077 53.998H480.362L480.371 54.0255C480.527 54.6679 481.289 55.1176 482.565 55.1176C484.125 55.1176 485.033 54.3926 485.033 53.1078V51.1897H484.877C484.299 52.2635 483.207 52.8508 481.821 52.8508C479.279 52.8508 477.701 50.8869 477.701 48.0419V48.0236C477.701 45.1236 479.279 43.1229 481.867 43.1229C483.253 43.1229 484.336 43.8021 484.905 44.94H485.024V43.2881H487.309V53.0711C487.309 55.3837 485.455 56.8429 482.528 56.8429ZM482.528 51.0337C484.115 51.0337 485.07 49.8131 485.07 48.0419V48.0236C485.07 46.2524 484.106 45.0226 482.528 45.0226C480.94 45.0226 480.041 46.2524 480.041 48.0236V48.0419C480.041 49.8131 480.94 51.0337 482.528 51.0337ZM493.95 53.5207C490.967 53.5207 489.159 51.5201 489.159 48.3264V48.3173C489.159 45.1603 490.986 43.0954 493.84 43.0954C496.694 43.0954 498.456 45.096 498.456 48.1245V48.8771H491.445C491.472 50.6758 492.445 51.722 493.996 51.722C495.235 51.722 495.941 51.098 496.162 50.6391L496.189 50.5749H498.364L498.337 50.6575C498.015 51.9514 496.676 53.5207 493.95 53.5207ZM493.867 44.885C492.592 44.885 491.637 45.7476 491.463 47.3445H496.226C496.07 45.7017 495.143 44.885 493.867 44.885ZM510.425 53.484C509.021 53.484 507.929 52.8416 507.378 51.7495H507.222V53.3188H504.937V39.4062H507.222V44.885H507.378C507.901 43.8021 509.048 43.1229 510.425 43.1229C512.967 43.1229 514.546 45.1052 514.546 48.2989V48.3173C514.546 51.4926 512.94 53.484 510.425 53.484ZM509.709 51.5568C511.269 51.5568 512.215 50.3362 512.215 48.3173V48.2989C512.215 46.2799 511.269 45.0502 509.709 45.0502C508.158 45.0502 507.195 46.2891 507.195 48.2989V48.3173C507.195 50.3271 508.158 51.5568 509.709 51.5568ZM517.552 41.6087C516.8 41.6087 516.185 41.0122 516.185 40.2596C516.185 39.5163 516.8 38.9106 517.552 38.9106C518.295 38.9106 518.91 39.5163 518.91 40.2596C518.91 41.0122 518.295 41.6087 517.552 41.6087ZM516.405 53.3188V43.2881H518.69V53.3188H516.405ZM521.137 53.3188V39.4062H523.422V53.3188H521.137ZM525.951 53.3188V39.4062H528.236V53.3188H525.951Z" fill="black"/>
<path d="M-118.634 266.095L-81.9066 226.179C-79.4352 223.494 -75.5679 222.602 -72.1699 223.934L-41.2111 236.069C-37.6682 237.458 -33.6341 236.425 -31.1947 233.505L-1.92845 198.463C1.82617 193.968 8.83458 194.297 12.1507 199.125L44.214 245.808C46.4894 249.121 50.7123 250.483 54.4946 249.125L88.9023 236.765L130.513 219.228C131.123 218.971 131.701 218.647 132.238 218.261L167.2 193.144C170.233 190.966 174.308 190.926 177.382 193.047L213.704 218.096C214.421 218.591 215.206 218.976 216.035 219.241L251.612 230.6C254.143 231.408 256.903 231.036 259.13 229.586L293.896 206.941C296.525 205.229 299.864 205.037 302.671 206.438L338.966 224.545L375.055 247.36C378.756 249.699 383.612 248.979 386.474 245.666L416.868 210.488C419.93 206.944 425.223 206.401 428.941 209.25L460.7 233.586C463.259 235.547 466.683 235.96 469.635 234.664L499.822 221.411C503.316 219.878 507.399 220.757 509.952 223.593L542.103 259.316C545.441 263.026 551.186 263.24 554.792 259.79L585.71 230.201C587.791 228.209 590.712 227.356 593.538 227.913L626.048 234.33C629.411 234.994 632.855 233.654 634.886 230.893L667.301 186.82C670.133 182.97 675.513 182.066 679.448 184.78L708.984 205.15C712.436 207.531 717.087 207.16 720.118 204.261L748.526 177.099C752.361 173.431 758.54 173.943 761.719 178.192L797.829 226.438C798.121 226.828 798.444 227.192 798.795 227.529L834.027 261.247C836.995 264.087 841.528 264.51 844.97 262.268L880.937 238.841C881.392 238.544 881.82 238.206 882.213 237.831L921.432 200.431C922.105 199.789 922.876 199.257 923.715 198.855L957.518 182.666C961.716 180.656 966.753 182.242 969.041 186.296L998.64 238.739C1001.9 244.519 1010.13 244.78 1013.75 239.217L1041.57 196.493C1044.88 191.406 1052.22 191.091 1055.96 195.875L1084.56 232.508C1087.22 235.908 1091.94 236.897 1095.73 234.849L1128.56 217.138C1130.57 216.056 1132.91 215.79 1135.11 216.394L1169.71 225.913C1171.53 226.415 1173.14 227.487 1174.31 228.973L1208.64 272.627C1212 276.898 1218.38 277.158 1222.08 273.175L1251.95 240.989C1254.33 238.422 1258 237.502 1261.31 238.644L1295.62 250.473C1297.42 251.095 1299.38 251.117 1301.19 250.537L1337.18 239.045C1338.52 238.618 1339.74 237.878 1340.74 236.886L1373.63 204.115C1377.74 200.026 1384.6 200.922 1387.52 205.928L1417.9 258.063C1420.44 262.433 1426.13 263.782 1430.37 261.022L1464.26 238.944C1464.82 238.579 1465.34 238.152 1465.8 237.67L1500.86 201.292C1503.8 198.238 1508.5 197.703 1512.06 200.019L1546.26 222.297C1547.69 223.232 1549.37 223.73 1551.09 223.73H1586.66C1588.37 223.73 1590.05 224.228 1591.49 225.163L1625.81 247.52C1629.31 249.8 1633.93 249.32 1636.88 246.37L1667.71 215.615C1670.6 212.728 1675.1 212.199 1678.58 214.335L1711.88 234.75C1713.98 236.035 1716.51 236.389 1718.88 235.728L1753.5 226.056C1755.13 225.601 1756.85 225.623 1758.47 226.119L1797.26 238.007C1798.1 238.264 1798.97 238.395 1799.85 238.395H1838.02C1838.9 238.395 1839.78 238.526 1840.62 238.783L1881.88 251.43L1922.7 266.095" stroke="#0072F5" stroke-width="2.21117"/>
<path d="M827.322 338.841L822.329 338.513L817.335 342.515L812.342 342.925L807.348 338.669L802.354 338.06L797.361 339.817L792.367 339.009L787.373 335.698L782.38 344.413L777.386 342.749L772.392 337.92L767.399 339.501L762.405 345.33L757.411 338.072L752.418 336.873L747.424 346.045L742.43 345.037L737.437 343.526L732.443 342.878L727.449 336.944L722.456 340.821L717.462 342.988L712.468 333.184L707.475 336.382L702.481 339.173L697.487 336.315L692.494 345.947L687.5 338.853L682.506 332.477L677.513 333.848L672.519 339.778L667.526 337.795L662.532 340.536L657.538 339.083L652.545 340.173L647.551 336.303L642.557 340.426L637.564 343.78L632.57 347.095L627.576 346.045L622.583 342.5L617.589 330.927L612.595 333.469L607.602 337.295L602.608 332.442L597.614 338.092L592.621 333.883L587.627 336.37L582.633 336.542L577.64 336.651L572.646 335.308L567.652 330.955L562.659 328.936L557.665 332.083L552.671 329.229L547.678 333.93L542.684 327.546L537.69 341.246L532.697 343.245L527.703 334.757L522.709 330.935L517.716 330.162L512.722 330.057L507.729 328.261L502.735 329.643L497.741 334.566L492.748 328.698L487.754 332.7L482.76 327.312L477.767 327.722L472.773 333.918L467.779 333.317L462.786 333.953L457.792 330.978L452.798 331.306L447.805 328.401L442.811 329.912L437.817 327.897L432.824 334.994L427.83 334.67L422.836 335.229L417.843 329.349L412.849 330.36L407.855 333.507L402.862 332.519L397.868 334.206L392.874 330.907L387.881 333.823L382.887 331.363L377.893 331.254L372.9 332.308L368.114 333.05L363.121 331.059L358.127 331.953L353.133 331.067L348.14 329.692L343.146 333.647L338.152 332.027L333.159 332.386L328.165 333.355L323.171 330.477L318.178 338.782L313.184 339.313L308.19 333.219L303.197 331.478L298.203 328.124L293.209 335.334L288.216 329.868L283.222 332.328L278.228 345.126L273.235 340.711L268.241 333.05L263.247 331.918L258.254 329.501L253.26 337.119L248.266 337.29L243.273 334.815L238.279 328.904L233.286 331.805L228.292 334.96L223.298 332.488L218.305 327.943L213.311 327.018L208.317 330.528L203.324 328.873L198.33 328.923L193.336 330.2L188.343 326.557L183.349 326.089L178.355 331.617L173.362 327.182L168.368 328.529L163.374 331.571L158.381 333.898L153.387 335.506L148.393 329.517L143.4 328.045L138.406 330.883L133.412 337.415L128.419 333.421L123.425 337.52L118.431 337.836L113.438 332.6L108.444 330.398L103.45 331.273L98.4568 331.734L93.4632 329.508L88.4695 327.615L83.4758 334.342L78.4822 341.569L73.4885 337.379L68.4949 333.362L63.5012 338.062L58.5076 332.865L53.5139 328.367L48.5203 326.329L43.5266 327.243L38.5329 330.651L33.5393 332.303L28.5456 331.315L23.5609 328.426" stroke="#00BF96" stroke-width="1.10559" stroke-linecap="round" stroke-linejoin="round"/>
<path d="M822.329 338.513L827.322 338.841V358.704H23.5609V328.426L28.5456 331.315L33.5393 332.303L38.5329 330.651L43.5266 327.243L48.5203 326.329L53.5139 328.367L58.5076 332.865L63.5012 338.062L68.4949 333.362L73.4885 337.379L78.4822 341.569L83.4758 334.342L88.4695 327.615L93.4632 329.508L98.4568 331.734L103.45 331.273L108.444 330.398L113.438 332.6L118.431 337.836L123.425 337.52L128.419 333.421L133.412 337.415L138.406 330.883L143.4 328.045L148.393 329.517L153.387 335.506L158.381 333.898L163.374 331.571L168.368 328.529L173.362 327.182L178.355 331.617L183.349 326.089L188.343 326.557L193.336 330.2L198.33 328.923L203.324 328.873L208.317 330.528L213.311 327.018L218.305 327.943L223.298 332.488L228.292 334.96L233.286 331.805L238.279 328.904L243.273 334.815L248.266 337.29L253.26 337.119L258.254 329.501L263.247 331.918L268.241 333.05L273.235 340.711L278.228 345.126L283.222 332.328L288.216 329.868L293.209 335.334L298.203 328.124L303.197 331.478L308.19 333.219L313.184 339.313L318.178 338.782L323.171 330.477L328.165 333.355L333.159 332.386L338.152 332.027L343.146 333.647L348.14 329.692L353.133 331.067L358.127 331.953L363.121 331.059L368.114 333.05L372.9 332.308L377.893 331.254L382.887 331.363L387.881 333.823L392.874 330.907L397.868 334.206L402.862 332.519L407.855 333.507L412.849 330.36L417.843 329.349L422.836 335.229L427.83 334.67L432.824 334.994L437.817 327.897L442.811 329.912L447.805 328.401L452.798 331.306L457.792 330.978L462.786 333.953L467.779 333.317L472.773 333.918L477.767 327.722L482.76 327.312L487.754 332.7L492.748 328.698L497.741 334.566L502.735 329.643L507.729 328.261L512.722 330.057L517.716 330.162L522.71 330.935L527.703 334.757L532.697 343.245L537.69 341.246L542.684 327.546L547.678 333.93L552.671 329.229L557.665 332.083L562.659 328.936L567.652 330.955L572.646 335.308L577.64 336.651L582.633 336.542L587.627 336.37L592.621 333.883L597.614 338.092L602.608 332.442L607.602 337.295L612.595 333.469L617.589 330.927L622.583 342.5L627.576 346.045L632.57 347.095L637.564 343.78L642.557 340.426L647.551 336.303L652.544 340.173L657.538 339.083L662.532 340.536L667.526 337.795L672.519 339.778L677.513 333.848L682.506 332.477L687.5 338.853L692.494 345.947L697.487 336.315L702.481 339.173L707.475 336.382L712.468 333.184L717.462 342.988L722.456 340.821L727.449 336.944L732.443 342.878L737.437 343.526L742.43 345.037L747.424 346.045L752.418 336.873L757.411 338.072L762.405 345.33L767.399 339.501L772.392 337.92L777.386 342.749L782.38 344.413L787.373 335.698L792.367 339.009L797.361 339.817L802.354 338.06L807.348 338.669L812.341 342.925L817.335 342.515L822.329 338.513Z" fill="#00BF96" fill-opacity="0.05"/>
<path fill-rule="evenodd" clip-rule="evenodd" d="M23.5609 358.198H827.322V359.114H23.5609V358.198Z" fill="black" fill-opacity="0.05"/>
<path fill-rule="evenodd" clip-rule="evenodd" d="M23.5609 206.418H827.322V207.334H23.5609V206.418Z" fill="black" fill-opacity="0.05"/>
<path fill-rule="evenodd" clip-rule="evenodd" d="M23.5609 79.937H827.322V80.8535H23.5609V79.937Z" fill="black" fill-opacity="0.05"/>
<path fill-rule="evenodd" clip-rule="evenodd" d="M23.5609 143.177H827.322V144.094H23.5609V143.177Z" fill="black" fill-opacity="0.05"/>
<path d="M47.1712 135.47H46.1374V129.292H43.8997V128.465C44.1916 128.465 44.4754 128.445 44.751 128.404C45.0267 128.356 45.274 128.271 45.4929 128.149C45.7199 128.027 45.9104 127.861 46.0645 127.65C46.2185 127.44 46.3239 127.172 46.3807 126.848H47.1712V135.47ZM51.2047 131.226C51.2047 131.55 51.2128 131.915 51.229 132.32C51.2533 132.718 51.3182 133.095 51.4236 133.451C51.5371 133.8 51.7154 134.096 51.9587 134.339C52.2019 134.582 52.5424 134.704 52.9802 134.704C53.4181 134.704 53.7586 134.582 54.0018 134.339C54.245 134.096 54.4193 133.8 54.5247 133.451C54.6383 133.095 54.7031 132.718 54.7193 132.32C54.7437 131.915 54.7558 131.55 54.7558 131.226C54.7558 131.015 54.7518 130.784 54.7437 130.533C54.7437 130.273 54.7234 130.018 54.6828 129.766C54.6504 129.507 54.5977 129.256 54.5247 129.012C54.4599 128.769 54.3585 128.558 54.2207 128.38C54.091 128.194 53.9248 128.044 53.7221 127.93C53.5194 127.817 53.2721 127.76 52.9802 127.76C52.6884 127.76 52.4411 127.817 52.2384 127.93C52.0357 128.044 51.8654 128.194 51.7276 128.38C51.5979 128.558 51.4965 128.769 51.4236 129.012C51.3587 129.256 51.306 129.507 51.2655 129.766C51.233 130.018 51.2128 130.273 51.2047 130.533C51.2047 130.784 51.2047 131.015 51.2047 131.226ZM50.1101 131.238C50.1101 130.922 50.1182 130.593 50.1345 130.253C50.1507 129.912 50.1912 129.58 50.2561 129.256C50.3209 128.931 50.4142 128.623 50.5358 128.331C50.6574 128.04 50.8236 127.784 51.0344 127.565C51.2452 127.346 51.5087 127.172 51.8249 127.042C52.1492 126.913 52.5343 126.848 52.9802 126.848C53.4262 126.848 53.8072 126.913 54.1234 127.042C54.4477 127.172 54.7153 127.346 54.9261 127.565C55.1369 127.784 55.3031 128.04 55.4247 128.331C55.5463 128.623 55.6395 128.931 55.7044 129.256C55.7693 129.58 55.8098 129.912 55.826 130.253C55.8422 130.593 55.8503 130.922 55.8503 131.238C55.8503 131.554 55.8422 131.883 55.826 132.223C55.8098 132.564 55.7693 132.896 55.7044 133.22C55.6395 133.545 55.5463 133.853 55.4247 134.145C55.3031 134.428 55.1369 134.68 54.9261 134.899C54.7153 135.118 54.4518 135.292 54.1356 135.422C53.8194 135.543 53.4343 135.604 52.9802 135.604C52.5343 135.604 52.1492 135.543 51.8249 135.422C51.5087 135.292 51.2452 135.118 51.0344 134.899C50.8236 134.68 50.6574 134.428 50.5358 134.145C50.4142 133.853 50.3209 133.545 50.2561 133.22C50.1912 132.896 50.1507 132.564 50.1345 132.223C50.1182 131.883 50.1101 131.554 50.1101 131.238ZM60.6904 126.787H61.8457V131.116L66.2482 126.787H67.7441L64.0835 130.289L67.89 135.47H66.4306L63.293 131.08L61.8457 132.43V135.47H60.6904V126.787Z" fill="black" fill-opacity="0.3"/>
<path d="M44.447 290.002C44.447 290.327 44.4551 290.691 44.4713 291.097C44.4956 291.494 44.5605 291.871 44.6659 292.228C44.7794 292.576 44.9578 292.872 45.201 293.116C45.4442 293.359 45.7847 293.48 46.2226 293.48C46.6604 293.48 47.0009 293.359 47.2441 293.116C47.4873 292.872 47.6617 292.576 47.7671 292.228C47.8806 291.871 47.9454 291.494 47.9616 291.097C47.986 290.691 47.9981 290.327 47.9981 290.002C47.9981 289.791 47.9941 289.56 47.986 289.309C47.986 289.05 47.9657 288.794 47.9252 288.543C47.8927 288.283 47.84 288.032 47.7671 287.789C47.7022 287.546 47.6009 287.335 47.463 287.156C47.3333 286.97 47.1671 286.82 46.9644 286.706C46.7617 286.593 46.5144 286.536 46.2226 286.536C45.9307 286.536 45.6834 286.593 45.4807 286.706C45.278 286.82 45.1078 286.97 44.9699 287.156C44.8402 287.335 44.7389 287.546 44.6659 287.789C44.601 288.032 44.5483 288.283 44.5078 288.543C44.4754 288.794 44.4551 289.05 44.447 289.309C44.447 289.56 44.447 289.791 44.447 290.002ZM43.3525 290.014C43.3525 289.698 43.3606 289.37 43.3768 289.029C43.393 288.689 43.4335 288.356 43.4984 288.032C43.5633 287.708 43.6565 287.4 43.7781 287.108C43.8997 286.816 44.0659 286.561 44.2767 286.342C44.4875 286.123 44.751 285.948 45.0672 285.819C45.3915 285.689 45.7766 285.624 46.2226 285.624C46.6685 285.624 47.0495 285.689 47.3657 285.819C47.69 285.948 47.9576 286.123 48.1684 286.342C48.3792 286.561 48.5454 286.816 48.667 287.108C48.7886 287.4 48.8819 287.708 48.9467 288.032C49.0116 288.356 49.0521 288.689 49.0683 289.029C49.0846 289.37 49.0927 289.698 49.0927 290.014C49.0927 290.331 49.0846 290.659 49.0683 290.999C49.0521 291.34 49.0116 291.672 48.9467 291.997C48.8819 292.321 48.7886 292.629 48.667 292.921C48.5454 293.205 48.3792 293.456 48.1684 293.675C47.9576 293.894 47.6941 294.068 47.3779 294.198C47.0617 294.32 46.6766 294.38 46.2226 294.38C45.7766 294.38 45.3915 294.32 45.0672 294.198C44.751 294.068 44.4875 293.894 44.2767 293.675C44.0659 293.456 43.8997 293.205 43.7781 292.921C43.6565 292.629 43.5633 292.321 43.4984 291.997C43.4335 291.672 43.393 291.34 43.3768 290.999C43.3606 290.659 43.3525 290.331 43.3525 290.014ZM53.9288 294.247H52.8951V288.069H50.6574V287.242C50.9493 287.242 51.233 287.221 51.5087 287.181C51.7844 287.132 52.0316 287.047 52.2506 286.925C52.4776 286.804 52.6681 286.638 52.8221 286.427C52.9762 286.216 53.0816 285.948 53.1383 285.624H53.9288V294.247ZM60.7147 285.563H62.2957L65.032 292.86L67.7805 285.563H69.3615V294.247H68.267V287.023H68.2427L65.5307 294.247H64.5456L61.8336 287.023H61.8093V294.247H60.7147V285.563ZM76.6839 294.222C76.5055 294.328 76.2582 294.38 75.942 294.38C75.6745 294.38 75.4596 294.307 75.2975 294.161C75.1434 294.007 75.0664 293.76 75.0664 293.42C74.7826 293.76 74.4502 294.007 74.0691 294.161C73.6962 294.307 73.2908 294.38 72.853 294.38C72.5692 294.38 72.2976 294.348 72.0382 294.283C71.7868 294.218 71.5679 294.117 71.3815 293.979C71.195 293.841 71.045 293.663 70.9315 293.444C70.8261 293.217 70.7734 292.945 70.7734 292.629C70.7734 292.272 70.8342 291.98 70.9558 291.753C71.0774 291.526 71.2355 291.344 71.4301 291.206C71.6328 291.06 71.8598 290.951 72.1112 290.878C72.3706 290.805 72.6341 290.744 72.9016 290.695C73.1854 290.639 73.453 290.598 73.7043 290.574C73.9637 290.541 74.1908 290.501 74.3853 290.452C74.5799 290.395 74.734 290.318 74.8475 290.221C74.961 290.116 75.0177 289.966 75.0177 289.771C75.0177 289.544 74.9732 289.362 74.884 289.224C74.8029 289.086 74.6934 288.981 74.5556 288.908C74.4259 288.835 74.2759 288.786 74.1056 288.762C73.9435 288.737 73.7813 288.725 73.6192 288.725C73.1814 288.725 72.8165 288.81 72.5246 288.981C72.2328 289.143 72.0747 289.455 72.0503 289.917H71.0166C71.0328 289.528 71.1139 289.2 71.2599 288.932C71.4058 288.664 71.6004 288.45 71.8436 288.287C72.0868 288.117 72.3625 287.996 72.6706 287.923C72.9868 287.85 73.3232 287.813 73.68 287.813C73.9637 287.813 74.2435 287.833 74.5191 287.874C74.8029 287.915 75.0583 288 75.2853 288.129C75.5123 288.251 75.6947 288.425 75.8326 288.652C75.9704 288.879 76.0393 289.175 76.0393 289.54V292.775C76.0393 293.018 76.0515 293.197 76.0758 293.31C76.1082 293.424 76.2055 293.48 76.3677 293.48C76.4568 293.48 76.5622 293.46 76.6839 293.42V294.222ZM75.0056 290.999C74.8759 291.097 74.7056 291.17 74.4948 291.218C74.284 291.259 74.061 291.295 73.8259 291.328C73.5989 291.352 73.3678 291.385 73.1327 291.425C72.8976 291.458 72.6868 291.514 72.5003 291.595C72.3138 291.676 72.1598 291.794 72.0382 291.948C71.9247 292.094 71.8679 292.297 71.8679 292.556C71.8679 292.726 71.9004 292.872 71.9652 292.994C72.0382 293.107 72.1274 293.201 72.2328 293.274C72.3463 293.347 72.476 293.399 72.6219 293.432C72.7679 293.464 72.9219 293.48 73.0841 293.48C73.4246 293.48 73.7165 293.436 73.9597 293.347C74.2029 293.249 74.4016 293.132 74.5556 292.994C74.7097 292.848 74.8232 292.694 74.8961 292.532C74.9691 292.362 75.0056 292.203 75.0056 292.058V290.999ZM77.6095 287.959H78.5824V289.285H78.6067C78.858 288.774 79.1661 288.397 79.531 288.154C79.8958 287.91 80.358 287.797 80.9174 287.813V288.908C80.5039 288.908 80.1512 288.964 79.8593 289.078C79.5675 289.191 79.3323 289.358 79.154 289.577C78.9756 289.795 78.8459 290.063 78.7648 290.379C78.6837 290.687 78.6432 291.044 78.6432 291.449V294.247H77.6095V287.959Z" fill="#666666"/>
<path d="M328.383 290.002C328.383 290.327 328.391 290.691 328.407 291.097C328.431 291.494 328.496 291.871 328.602 292.228C328.715 292.576 328.893 292.872 329.137 293.116C329.38 293.359 329.72 293.48 330.158 293.48C330.596 293.48 330.937 293.359 331.18 293.116C331.423 292.872 331.597 292.576 331.703 292.228C331.816 291.871 331.881 291.494 331.897 291.097C331.922 290.691 331.934 290.327 331.934 290.002C331.934 289.791 331.93 289.56 331.922 289.309C331.922 289.05 331.901 288.794 331.861 288.543C331.828 288.283 331.776 288.032 331.703 287.789C331.638 287.546 331.537 287.335 331.399 287.156C331.269 286.97 331.103 286.82 330.9 286.706C330.697 286.593 330.45 286.536 330.158 286.536C329.866 286.536 329.619 286.593 329.416 286.706C329.214 286.82 329.043 286.97 328.906 287.156C328.776 287.335 328.675 287.546 328.602 287.789C328.537 288.032 328.484 288.283 328.443 288.543C328.411 288.794 328.391 289.05 328.383 289.309C328.383 289.56 328.383 289.791 328.383 290.002ZM327.288 290.014C327.288 289.698 327.296 289.37 327.312 289.029C327.329 288.689 327.369 288.356 327.434 288.032C327.499 287.708 327.592 287.4 327.714 287.108C327.835 286.816 328.002 286.561 328.212 286.342C328.423 286.123 328.687 285.948 329.003 285.819C329.327 285.689 329.712 285.624 330.158 285.624C330.604 285.624 330.985 285.689 331.301 285.819C331.626 285.948 331.893 286.123 332.104 286.342C332.315 286.561 332.481 286.816 332.603 287.108C332.724 287.4 332.818 287.708 332.882 288.032C332.947 288.356 332.988 288.689 333.004 289.029C333.02 289.37 333.028 289.698 333.028 290.014C333.028 290.331 333.02 290.659 333.004 290.999C332.988 291.34 332.947 291.672 332.882 291.997C332.818 292.321 332.724 292.629 332.603 292.921C332.481 293.205 332.315 293.456 332.104 293.675C331.893 293.894 331.63 294.068 331.314 294.198C330.997 294.32 330.612 294.38 330.158 294.38C329.712 294.38 329.327 294.32 329.003 294.198C328.687 294.068 328.423 293.894 328.212 293.675C328.002 293.456 327.835 293.205 327.714 292.921C327.592 292.629 327.499 292.321 327.434 291.997C327.369 291.672 327.329 291.34 327.312 290.999C327.296 290.659 327.288 290.331 327.288 290.014ZM336.186 289.321C336.227 289.329 336.263 289.333 336.296 289.333C336.336 289.333 336.377 289.333 336.417 289.333H336.636C336.855 289.333 337.062 289.305 337.256 289.248C337.459 289.183 337.633 289.094 337.779 288.981C337.933 288.859 338.055 288.709 338.144 288.531C338.233 288.352 338.278 288.15 338.278 287.923C338.278 287.46 338.132 287.116 337.84 286.889C337.548 286.654 337.183 286.536 336.746 286.536C336.47 286.536 336.227 286.589 336.016 286.694C335.813 286.792 335.643 286.925 335.505 287.096C335.375 287.266 335.278 287.465 335.213 287.692C335.148 287.919 335.116 288.158 335.116 288.409H334.082C334.099 287.996 334.163 287.619 334.277 287.278C334.398 286.938 334.569 286.646 334.788 286.402C335.007 286.159 335.278 285.969 335.602 285.831C335.935 285.693 336.316 285.624 336.746 285.624C337.119 285.624 337.463 285.673 337.779 285.77C338.104 285.859 338.383 285.997 338.619 286.184C338.854 286.37 339.036 286.609 339.166 286.901C339.304 287.193 339.373 287.538 339.373 287.935C339.373 288.324 339.259 288.669 339.032 288.969C338.805 289.268 338.521 289.496 338.181 289.65V289.674C338.708 289.787 339.097 290.035 339.348 290.416C339.608 290.797 339.737 291.247 339.737 291.766C339.737 292.195 339.656 292.576 339.494 292.909C339.34 293.233 339.129 293.505 338.862 293.724C338.594 293.943 338.278 294.109 337.913 294.222C337.556 294.328 337.175 294.38 336.77 294.38C336.332 294.38 335.935 294.32 335.578 294.198C335.221 294.076 334.917 293.898 334.666 293.663C334.415 293.42 334.22 293.124 334.082 292.775C333.953 292.426 333.892 292.029 333.9 291.583H334.934C334.95 292.143 335.112 292.601 335.42 292.957C335.728 293.306 336.178 293.48 336.77 293.48C337.021 293.48 337.26 293.444 337.487 293.371C337.715 293.29 337.913 293.18 338.083 293.043C338.254 292.897 338.387 292.722 338.485 292.52C338.59 292.309 338.643 292.074 338.643 291.814C338.643 291.547 338.594 291.312 338.497 291.109C338.4 290.898 338.27 290.724 338.108 290.586C337.946 290.44 337.751 290.335 337.524 290.27C337.305 290.197 337.066 290.16 336.806 290.16C336.588 290.16 336.381 290.172 336.186 290.197V289.321ZM344.65 285.563H346.231L348.968 292.86L351.716 285.563H353.297V294.247H352.203V287.023H352.178L349.466 294.247H348.481L345.769 287.023H345.745V294.247H344.65V285.563ZM360.62 294.222C360.441 294.328 360.194 294.38 359.878 294.38C359.61 294.38 359.395 294.307 359.233 294.161C359.079 294.007 359.002 293.76 359.002 293.42C358.718 293.76 358.386 294.007 358.005 294.161C357.632 294.307 357.226 294.38 356.789 294.38C356.505 294.38 356.233 294.348 355.974 294.283C355.723 294.218 355.504 294.117 355.317 293.979C355.131 293.841 354.981 293.663 354.867 293.444C354.762 293.217 354.709 292.945 354.709 292.629C354.709 292.272 354.77 291.98 354.891 291.753C355.013 291.526 355.171 291.344 355.366 291.206C355.568 291.06 355.795 290.951 356.047 290.878C356.306 290.805 356.57 290.744 356.837 290.695C357.121 290.639 357.389 290.598 357.64 290.574C357.899 290.541 358.126 290.501 358.321 290.452C358.516 290.395 358.67 290.318 358.783 290.221C358.897 290.116 358.953 289.966 358.953 289.771C358.953 289.544 358.909 289.362 358.82 289.224C358.739 289.086 358.629 288.981 358.491 288.908C358.362 288.835 358.212 288.786 358.041 288.762C357.879 288.737 357.717 288.725 357.555 288.725C357.117 288.725 356.752 288.81 356.46 288.981C356.168 289.143 356.01 289.455 355.986 289.917H354.952C354.969 289.528 355.05 289.2 355.196 288.932C355.341 288.664 355.536 288.45 355.779 288.287C356.023 288.117 356.298 287.996 356.606 287.923C356.922 287.85 357.259 287.813 357.616 287.813C357.899 287.813 358.179 287.833 358.455 287.874C358.739 287.915 358.994 288 359.221 288.129C359.448 288.251 359.63 288.425 359.768 288.652C359.906 288.879 359.975 289.175 359.975 289.54V292.775C359.975 293.018 359.987 293.197 360.011 293.31C360.044 293.424 360.141 293.48 360.303 293.48C360.393 293.48 360.498 293.46 360.62 293.42V294.222ZM358.941 290.999C358.812 291.097 358.641 291.17 358.43 291.218C358.22 291.259 357.997 291.295 357.762 291.328C357.535 291.352 357.304 291.385 357.068 291.425C356.833 291.458 356.622 291.514 356.436 291.595C356.25 291.676 356.095 291.794 355.974 291.948C355.86 292.094 355.804 292.297 355.804 292.556C355.804 292.726 355.836 292.872 355.901 292.994C355.974 293.107 356.063 293.201 356.168 293.274C356.282 293.347 356.412 293.399 356.558 293.432C356.704 293.464 356.858 293.48 357.02 293.48C357.36 293.48 357.652 293.436 357.895 293.347C358.139 293.249 358.337 293.132 358.491 292.994C358.645 292.848 358.759 292.694 358.832 292.532C358.905 292.362 358.941 292.203 358.941 292.058V290.999ZM361.545 287.959H362.518V289.285H362.542C362.794 288.774 363.102 288.397 363.467 288.154C363.831 287.91 364.294 287.797 364.853 287.813V288.908C364.44 288.908 364.087 288.964 363.795 289.078C363.503 289.191 363.268 289.358 363.09 289.577C362.911 289.795 362.782 290.063 362.7 290.379C362.619 290.687 362.579 291.044 362.579 291.449V294.247H361.545V287.959Z" fill="#666666"/>
<path d="M597.305 290.002C597.305 290.327 597.313 290.691 597.329 291.097C597.354 291.494 597.418 291.871 597.524 292.228C597.637 292.576 597.816 292.872 598.059 293.116C598.302 293.359 598.643 293.48 599.081 293.48C599.518 293.48 599.859 293.359 600.102 293.116C600.345 292.872 600.52 292.576 600.625 292.228C600.739 291.871 600.803 291.494 600.82 291.097C600.844 290.691 600.856 290.327 600.856 290.002C600.856 289.791 600.852 289.56 600.844 289.309C600.844 289.05 600.824 288.794 600.783 288.543C600.751 288.283 600.698 288.032 600.625 287.789C600.56 287.546 600.459 287.335 600.321 287.156C600.191 286.97 600.025 286.82 599.822 286.706C599.62 286.593 599.372 286.536 599.081 286.536C598.789 286.536 598.541 286.593 598.339 286.706C598.136 286.82 597.966 286.97 597.828 287.156C597.698 287.335 597.597 287.546 597.524 287.789C597.459 288.032 597.406 288.283 597.366 288.543C597.333 288.794 597.313 289.05 597.305 289.309C597.305 289.56 597.305 289.791 597.305 290.002ZM596.21 290.014C596.21 289.698 596.219 289.37 596.235 289.029C596.251 288.689 596.292 288.356 596.356 288.032C596.421 287.708 596.514 287.4 596.636 287.108C596.758 286.816 596.924 286.561 597.135 286.342C597.345 286.123 597.609 285.948 597.925 285.819C598.249 285.689 598.635 285.624 599.081 285.624C599.526 285.624 599.908 285.689 600.224 285.819C600.548 285.948 600.816 286.123 601.026 286.342C601.237 286.561 601.403 286.816 601.525 287.108C601.647 287.4 601.74 287.708 601.805 288.032C601.87 288.356 601.91 288.689 601.926 289.029C601.943 289.37 601.951 289.698 601.951 290.014C601.951 290.331 601.943 290.659 601.926 290.999C601.91 291.34 601.87 291.672 601.805 291.997C601.74 292.321 601.647 292.629 601.525 292.921C601.403 293.205 601.237 293.456 601.026 293.675C600.816 293.894 600.552 294.068 600.236 294.198C599.92 294.32 599.535 294.38 599.081 294.38C598.635 294.38 598.249 294.32 597.925 294.198C597.609 294.068 597.345 293.894 597.135 293.675C596.924 293.456 596.758 293.205 596.636 292.921C596.514 292.629 596.421 292.321 596.356 291.997C596.292 291.672 596.251 291.34 596.235 290.999C596.219 290.659 596.21 290.331 596.21 290.014ZM608.173 286.682H604.695L604.233 289.163L604.257 289.187C604.444 288.977 604.683 288.823 604.975 288.725C605.275 288.62 605.571 288.567 605.863 288.567C606.244 288.567 606.604 288.628 606.945 288.75C607.285 288.871 607.581 289.058 607.833 289.309C608.084 289.552 608.283 289.86 608.429 290.233C608.575 290.598 608.648 291.028 608.648 291.522C608.648 291.887 608.583 292.244 608.453 292.593C608.331 292.933 608.145 293.237 607.893 293.505C607.642 293.772 607.326 293.987 606.945 294.149C606.572 294.303 606.134 294.38 605.631 294.38C605.259 294.38 604.906 294.328 604.573 294.222C604.249 294.109 603.961 293.951 603.71 293.748C603.459 293.537 603.26 293.278 603.114 292.97C602.968 292.662 602.891 292.313 602.883 291.924H603.917C603.933 292.143 603.986 292.349 604.075 292.544C604.172 292.73 604.298 292.897 604.452 293.043C604.614 293.18 604.8 293.29 605.011 293.371C605.23 293.444 605.469 293.48 605.729 293.48C605.972 293.48 606.203 293.44 606.422 293.359C606.649 293.27 606.844 293.14 607.006 292.97C607.176 292.799 607.31 292.589 607.407 292.337C607.504 292.078 607.553 291.778 607.553 291.437C607.553 291.154 607.504 290.894 607.407 290.659C607.318 290.416 607.188 290.209 607.018 290.039C606.848 289.86 606.641 289.723 606.398 289.625C606.163 289.528 605.899 289.479 605.607 289.479C605.267 289.479 604.963 289.556 604.695 289.71C604.436 289.856 604.205 290.051 604.002 290.294L603.114 290.245L603.917 285.77H608.173V286.682ZM613.573 285.563H615.154L617.89 292.86L620.639 285.563H622.219V294.247H621.125V287.023H621.101L618.389 294.247H617.404L614.692 287.023H614.667V294.247H613.573V285.563ZM629.542 294.222C629.363 294.328 629.116 294.38 628.8 294.38C628.532 294.38 628.318 294.307 628.155 294.161C628.001 294.007 627.924 293.76 627.924 293.42C627.641 293.76 627.308 294.007 626.927 294.161C626.554 294.307 626.149 294.38 625.711 294.38C625.427 294.38 625.156 294.348 624.896 294.283C624.645 294.218 624.426 294.117 624.239 293.979C624.053 293.841 623.903 293.663 623.789 293.444C623.684 293.217 623.631 292.945 623.631 292.629C623.631 292.272 623.692 291.98 623.814 291.753C623.935 291.526 624.094 291.344 624.288 291.206C624.491 291.06 624.718 290.951 624.969 290.878C625.229 290.805 625.492 290.744 625.76 290.695C626.043 290.639 626.311 290.598 626.562 290.574C626.822 290.541 627.049 290.501 627.243 290.452C627.438 290.395 627.592 290.318 627.705 290.221C627.819 290.116 627.876 289.966 627.876 289.771C627.876 289.544 627.831 289.362 627.742 289.224C627.661 289.086 627.551 288.981 627.414 288.908C627.284 288.835 627.134 288.786 626.964 288.762C626.801 288.737 626.639 288.725 626.477 288.725C626.039 288.725 625.674 288.81 625.383 288.981C625.091 289.143 624.933 289.455 624.908 289.917H623.875C623.891 289.528 623.972 289.2 624.118 288.932C624.264 288.664 624.458 288.45 624.702 288.287C624.945 288.117 625.22 287.996 625.529 287.923C625.845 287.85 626.181 287.813 626.538 287.813C626.822 287.813 627.101 287.833 627.377 287.874C627.661 287.915 627.916 288 628.143 288.129C628.37 288.251 628.553 288.425 628.691 288.652C628.828 288.879 628.897 289.175 628.897 289.54V292.775C628.897 293.018 628.909 293.197 628.934 293.31C628.966 293.424 629.063 293.48 629.226 293.48C629.315 293.48 629.42 293.46 629.542 293.42V294.222ZM627.864 290.999C627.734 291.097 627.564 291.17 627.353 291.218C627.142 291.259 626.919 291.295 626.684 291.328C626.457 291.352 626.226 291.385 625.991 291.425C625.756 291.458 625.545 291.514 625.358 291.595C625.172 291.676 625.018 291.794 624.896 291.948C624.783 292.094 624.726 292.297 624.726 292.556C624.726 292.726 624.758 292.872 624.823 292.994C624.896 293.107 624.985 293.201 625.091 293.274C625.204 293.347 625.334 293.399 625.48 293.432C625.626 293.464 625.78 293.48 625.942 293.48C626.283 293.48 626.574 293.436 626.818 293.347C627.061 293.249 627.26 293.132 627.414 292.994C627.568 292.848 627.681 292.694 627.754 292.532C627.827 292.362 627.864 292.203 627.864 292.058V290.999ZM630.467 287.959H631.44V289.285H631.465C631.716 288.774 632.024 288.397 632.389 288.154C632.754 287.91 633.216 287.797 633.775 287.813V288.908C633.362 288.908 633.009 288.964 632.717 289.078C632.425 289.191 632.19 289.358 632.012 289.577C631.834 289.795 631.704 290.063 631.623 290.379C631.542 290.687 631.501 291.044 631.501 291.449V294.247H630.467V287.959Z" fill="#666666"/>
<path d="M193.921 290.002C193.921 290.327 193.929 290.691 193.945 291.097C193.97 291.494 194.035 291.871 194.14 292.228C194.254 292.576 194.432 292.872 194.675 293.116C194.918 293.359 195.259 293.48 195.697 293.48C196.135 293.48 196.475 293.359 196.718 293.116C196.962 292.872 197.136 292.576 197.241 292.228C197.355 291.871 197.42 291.494 197.436 291.097C197.46 290.691 197.472 290.327 197.472 290.002C197.472 289.791 197.468 289.56 197.46 289.309C197.46 289.05 197.44 288.794 197.399 288.543C197.367 288.283 197.314 288.032 197.241 287.789C197.176 287.546 197.075 287.335 196.937 287.156C196.807 286.97 196.641 286.82 196.439 286.706C196.236 286.593 195.989 286.536 195.697 286.536C195.405 286.536 195.158 286.593 194.955 286.706C194.752 286.82 194.582 286.97 194.444 287.156C194.314 287.335 194.213 287.546 194.14 287.789C194.075 288.032 194.023 288.283 193.982 288.543C193.95 288.794 193.929 289.05 193.921 289.309C193.921 289.56 193.921 289.791 193.921 290.002ZM192.827 290.014C192.827 289.698 192.835 289.37 192.851 289.029C192.867 288.689 192.908 288.356 192.973 288.032C193.037 287.708 193.131 287.4 193.252 287.108C193.374 286.816 193.54 286.561 193.751 286.342C193.962 286.123 194.225 285.948 194.541 285.819C194.866 285.689 195.251 285.624 195.697 285.624C196.143 285.624 196.524 285.689 196.84 285.819C197.164 285.948 197.432 286.123 197.643 286.342C197.853 286.561 198.02 286.816 198.141 287.108C198.263 287.4 198.356 287.708 198.421 288.032C198.486 288.356 198.526 288.689 198.543 289.029C198.559 289.37 198.567 289.698 198.567 290.014C198.567 290.331 198.559 290.659 198.543 290.999C198.526 291.34 198.486 291.672 198.421 291.997C198.356 292.321 198.263 292.629 198.141 292.921C198.02 293.205 197.853 293.456 197.643 293.675C197.432 293.894 197.168 294.068 196.852 294.198C196.536 294.32 196.151 294.38 195.697 294.38C195.251 294.38 194.866 294.32 194.541 294.198C194.225 294.068 193.962 293.894 193.751 293.675C193.54 293.456 193.374 293.205 193.252 292.921C193.131 292.629 193.037 292.321 192.973 291.997C192.908 291.672 192.867 291.34 192.851 290.999C192.835 290.659 192.827 290.331 192.827 290.014ZM199.609 288.677C199.584 288.239 199.629 287.833 199.742 287.46C199.856 287.088 200.03 286.767 200.265 286.5C200.509 286.224 200.809 286.009 201.165 285.855C201.522 285.701 201.927 285.624 202.381 285.624C202.754 285.624 203.103 285.681 203.427 285.794C203.76 285.9 204.048 286.058 204.291 286.269C204.534 286.471 204.725 286.727 204.862 287.035C205.008 287.343 205.081 287.7 205.081 288.105C205.081 288.486 205.02 288.823 204.899 289.114C204.785 289.406 204.631 289.67 204.437 289.905C204.242 290.132 204.019 290.339 203.768 290.525C203.517 290.712 203.257 290.89 202.99 291.06C202.722 291.222 202.454 291.385 202.187 291.547C201.919 291.701 201.672 291.867 201.445 292.045C201.226 292.224 201.036 292.418 200.873 292.629C200.719 292.832 200.618 293.067 200.569 293.334H204.996V294.247H199.365C199.406 293.736 199.495 293.302 199.633 292.945C199.779 292.58 199.961 292.264 200.18 291.997C200.399 291.729 200.646 291.494 200.922 291.291C201.198 291.089 201.486 290.898 201.786 290.72C202.15 290.493 202.471 290.286 202.746 290.1C203.022 289.905 203.249 289.71 203.427 289.516C203.614 289.321 203.752 289.11 203.841 288.883C203.938 288.656 203.987 288.393 203.987 288.093C203.987 287.858 203.942 287.647 203.853 287.46C203.764 287.266 203.642 287.1 203.488 286.962C203.342 286.824 203.168 286.719 202.965 286.646C202.763 286.573 202.548 286.536 202.321 286.536C202.021 286.536 201.761 286.601 201.542 286.731C201.332 286.852 201.157 287.015 201.019 287.217C200.882 287.42 200.78 287.651 200.715 287.91C200.659 288.162 200.634 288.417 200.642 288.677H199.609ZM210.189 285.563H211.77L214.506 292.86L217.255 285.563H218.836V294.247H217.741V287.023H217.717L215.005 294.247H214.02L211.308 287.023H211.283V294.247H210.189V285.563ZM226.158 294.222C225.98 294.328 225.732 294.38 225.416 294.38C225.149 294.38 224.934 294.307 224.772 294.161C224.618 294.007 224.541 293.76 224.541 293.42C224.257 293.76 223.924 294.007 223.543 294.161C223.17 294.307 222.765 294.38 222.327 294.38C222.043 294.38 221.772 294.348 221.512 294.283C221.261 294.218 221.042 294.117 220.856 293.979C220.669 293.841 220.519 293.663 220.406 293.444C220.3 293.217 220.248 292.945 220.248 292.629C220.248 292.272 220.308 291.98 220.43 291.753C220.552 291.526 220.71 291.344 220.904 291.206C221.107 291.06 221.334 290.951 221.585 290.878C221.845 290.805 222.108 290.744 222.376 290.695C222.66 290.639 222.927 290.598 223.178 290.574C223.438 290.541 223.665 290.501 223.86 290.452C224.054 290.395 224.208 290.318 224.322 290.221C224.435 290.116 224.492 289.966 224.492 289.771C224.492 289.544 224.447 289.362 224.358 289.224C224.277 289.086 224.168 288.981 224.03 288.908C223.9 288.835 223.75 288.786 223.58 288.762C223.418 288.737 223.256 288.725 223.093 288.725C222.656 288.725 222.291 288.81 221.999 288.981C221.707 289.143 221.549 289.455 221.525 289.917H220.491C220.507 289.528 220.588 289.2 220.734 288.932C220.88 288.664 221.075 288.45 221.318 288.287C221.561 288.117 221.837 287.996 222.145 287.923C222.461 287.85 222.797 287.813 223.154 287.813C223.438 287.813 223.718 287.833 223.993 287.874C224.277 287.915 224.532 288 224.759 288.129C224.986 288.251 225.169 288.425 225.307 288.652C225.445 288.879 225.513 289.175 225.513 289.54V292.775C225.513 293.018 225.526 293.197 225.55 293.31C225.582 293.424 225.68 293.48 225.842 293.48C225.931 293.48 226.036 293.46 226.158 293.42V294.222ZM224.48 290.999C224.35 291.097 224.18 291.17 223.969 291.218C223.758 291.259 223.535 291.295 223.3 291.328C223.073 291.352 222.842 291.385 222.607 291.425C222.372 291.458 222.161 291.514 221.975 291.595C221.788 291.676 221.634 291.794 221.512 291.948C221.399 292.094 221.342 292.297 221.342 292.556C221.342 292.726 221.375 292.872 221.439 292.994C221.512 293.107 221.602 293.201 221.707 293.274C221.82 293.347 221.95 293.399 222.096 293.432C222.242 293.464 222.396 293.48 222.558 293.48C222.899 293.48 223.191 293.436 223.434 293.347C223.677 293.249 223.876 293.132 224.03 292.994C224.184 292.848 224.297 292.694 224.37 292.532C224.443 292.362 224.48 292.203 224.48 292.058V290.999ZM227.084 287.959H228.057V289.285H228.081C228.332 288.774 228.64 288.397 229.005 288.154C229.37 287.91 229.832 287.797 230.392 287.813V288.908C229.978 288.908 229.625 288.964 229.334 289.078C229.042 289.191 228.807 289.358 228.628 289.577C228.45 289.795 228.32 290.063 228.239 290.379C228.158 290.687 228.117 291.044 228.117 291.449V294.247H227.084V287.959Z" fill="#666666"/>
<path d="M462.844 290.002C462.844 290.327 462.852 290.691 462.868 291.097C462.892 291.494 462.957 291.871 463.063 292.228C463.176 292.576 463.354 292.872 463.598 293.116C463.841 293.359 464.181 293.48 464.619 293.48C465.057 293.48 465.398 293.359 465.641 293.116C465.884 292.872 466.058 292.576 466.164 292.228C466.277 291.871 466.342 291.494 466.358 291.097C466.383 290.691 466.395 290.327 466.395 290.002C466.395 289.791 466.391 289.56 466.383 289.309C466.383 289.05 466.362 288.794 466.322 288.543C466.289 288.283 466.237 288.032 466.164 287.789C466.099 287.546 465.998 287.335 465.86 287.156C465.73 286.97 465.564 286.82 465.361 286.706C465.158 286.593 464.911 286.536 464.619 286.536C464.327 286.536 464.08 286.593 463.877 286.706C463.675 286.82 463.504 286.97 463.367 287.156C463.237 287.335 463.136 287.546 463.063 287.789C462.998 288.032 462.945 288.283 462.905 288.543C462.872 288.794 462.852 289.05 462.844 289.309C462.844 289.56 462.844 289.791 462.844 290.002ZM461.749 290.014C461.749 289.698 461.757 289.37 461.774 289.029C461.79 288.689 461.83 288.356 461.895 288.032C461.96 287.708 462.053 287.4 462.175 287.108C462.296 286.816 462.463 286.561 462.673 286.342C462.884 286.123 463.148 285.948 463.464 285.819C463.788 285.689 464.173 285.624 464.619 285.624C465.065 285.624 465.446 285.689 465.762 285.819C466.087 285.948 466.354 286.123 466.565 286.342C466.776 286.561 466.942 286.816 467.064 287.108C467.185 287.4 467.279 287.708 467.343 288.032C467.408 288.356 467.449 288.689 467.465 289.029C467.481 289.37 467.489 289.698 467.489 290.014C467.489 290.331 467.481 290.659 467.465 290.999C467.449 291.34 467.408 291.672 467.343 291.997C467.279 292.321 467.185 292.629 467.064 292.921C466.942 293.205 466.776 293.456 466.565 293.675C466.354 293.894 466.091 294.068 465.775 294.198C465.458 294.32 465.073 294.38 464.619 294.38C464.173 294.38 463.788 294.32 463.464 294.198C463.148 294.068 462.884 293.894 462.673 293.675C462.463 293.456 462.296 293.205 462.175 292.921C462.053 292.629 461.96 292.321 461.895 291.997C461.83 291.672 461.79 291.34 461.774 290.999C461.757 290.659 461.749 290.331 461.749 290.014ZM472.119 291.316V287.096H472.094L469.224 291.316H472.119ZM473.092 291.316H474.259V292.228H473.092V294.247H472.119V292.228H468.337V291.231L472.265 285.624H473.092V291.316ZM479.111 285.563H480.692L483.429 292.86L486.177 285.563H487.758V294.247H486.664V287.023H486.639L483.927 294.247H482.942L480.23 287.023H480.206V294.247H479.111V285.563ZM495.081 294.222C494.902 294.328 494.655 294.38 494.339 294.38C494.071 294.38 493.856 294.307 493.694 294.161C493.54 294.007 493.463 293.76 493.463 293.42C493.179 293.76 492.847 294.007 492.466 294.161C492.093 294.307 491.688 294.38 491.25 294.38C490.966 294.38 490.694 294.348 490.435 294.283C490.184 294.218 489.965 294.117 489.778 293.979C489.592 293.841 489.442 293.663 489.328 293.444C489.223 293.217 489.17 292.945 489.17 292.629C489.17 292.272 489.231 291.98 489.353 291.753C489.474 291.526 489.632 291.344 489.827 291.206C490.03 291.06 490.257 290.951 490.508 290.878C490.767 290.805 491.031 290.744 491.298 290.695C491.582 290.639 491.85 290.598 492.101 290.574C492.36 290.541 492.587 290.501 492.782 290.452C492.977 290.395 493.131 290.318 493.244 290.221C493.358 290.116 493.414 289.966 493.414 289.771C493.414 289.544 493.37 289.362 493.281 289.224C493.2 289.086 493.09 288.981 492.952 288.908C492.823 288.835 492.673 288.786 492.502 288.762C492.34 288.737 492.178 288.725 492.016 288.725C491.578 288.725 491.213 288.81 490.921 288.981C490.629 289.143 490.471 289.455 490.447 289.917H489.413C489.43 289.528 489.511 289.2 489.657 288.932C489.803 288.664 489.997 288.45 490.24 288.287C490.484 288.117 490.759 287.996 491.067 287.923C491.384 287.85 491.72 287.813 492.077 287.813C492.36 287.813 492.64 287.833 492.916 287.874C493.2 287.915 493.455 288 493.682 288.129C493.909 288.251 494.091 288.425 494.229 288.652C494.367 288.879 494.436 289.175 494.436 289.54V292.775C494.436 293.018 494.448 293.197 494.473 293.31C494.505 293.424 494.602 293.48 494.764 293.48C494.854 293.48 494.959 293.46 495.081 293.42V294.222ZM493.402 290.999C493.273 291.097 493.102 291.17 492.892 291.218C492.681 291.259 492.458 291.295 492.223 291.328C491.996 291.352 491.765 291.385 491.529 291.425C491.294 291.458 491.084 291.514 490.897 291.595C490.711 291.676 490.557 291.794 490.435 291.948C490.321 292.094 490.265 292.297 490.265 292.556C490.265 292.726 490.297 292.872 490.362 292.994C490.435 293.107 490.524 293.201 490.629 293.274C490.743 293.347 490.873 293.399 491.019 293.432C491.165 293.464 491.319 293.48 491.481 293.48C491.821 293.48 492.113 293.436 492.356 293.347C492.6 293.249 492.798 293.132 492.952 292.994C493.106 292.848 493.22 292.694 493.293 292.532C493.366 292.362 493.402 292.203 493.402 292.058V290.999ZM496.006 287.959H496.979V289.285H497.003C497.255 288.774 497.563 288.397 497.928 288.154C498.293 287.91 498.755 287.797 499.314 287.813V288.908C498.901 288.908 498.548 288.964 498.256 289.078C497.964 289.191 497.729 289.358 497.551 289.577C497.372 289.795 497.243 290.063 497.162 290.379C497.08 290.687 497.04 291.044 497.04 291.449V294.247H496.006V287.959Z" fill="#666666"/>
<path d="M731.766 290.002C731.766 290.327 731.774 290.691 731.791 291.097C731.815 291.494 731.88 291.871 731.985 292.228C732.099 292.576 732.277 292.872 732.52 293.116C732.764 293.359 733.104 293.48 733.542 293.48C733.98 293.48 734.32 293.359 734.563 293.116C734.807 292.872 734.981 292.576 735.086 292.228C735.2 291.871 735.265 291.494 735.281 291.097C735.305 290.691 735.317 290.327 735.317 290.002C735.317 289.791 735.313 289.56 735.305 289.309C735.305 289.05 735.285 288.794 735.244 288.543C735.212 288.283 735.159 288.032 735.086 287.789C735.021 287.546 734.92 287.335 734.782 287.156C734.653 286.97 734.486 286.82 734.284 286.706C734.081 286.593 733.834 286.536 733.542 286.536C733.25 286.536 733.003 286.593 732.8 286.706C732.597 286.82 732.427 286.97 732.289 287.156C732.159 287.335 732.058 287.546 731.985 287.789C731.92 288.032 731.868 288.283 731.827 288.543C731.795 288.794 731.774 289.05 731.766 289.309C731.766 289.56 731.766 289.791 731.766 290.002ZM730.672 290.014C730.672 289.698 730.68 289.37 730.696 289.029C730.712 288.689 730.753 288.356 730.818 288.032C730.883 287.708 730.976 287.4 731.097 287.108C731.219 286.816 731.385 286.561 731.596 286.342C731.807 286.123 732.07 285.948 732.386 285.819C732.711 285.689 733.096 285.624 733.542 285.624C733.988 285.624 734.369 285.689 734.685 285.819C735.009 285.948 735.277 286.123 735.488 286.342C735.698 286.561 735.865 286.816 735.986 287.108C736.108 287.4 736.201 287.708 736.266 288.032C736.331 288.356 736.371 288.689 736.388 289.029C736.404 289.37 736.412 289.698 736.412 290.014C736.412 290.331 736.404 290.659 736.388 290.999C736.371 291.34 736.331 291.672 736.266 291.997C736.201 292.321 736.108 292.629 735.986 292.921C735.865 293.205 735.698 293.456 735.488 293.675C735.277 293.894 735.013 294.068 734.697 294.198C734.381 294.32 733.996 294.38 733.542 294.38C733.096 294.38 732.711 294.32 732.386 294.198C732.07 294.068 731.807 293.894 731.596 293.675C731.385 293.456 731.219 293.205 731.097 292.921C730.976 292.629 730.883 292.321 730.818 291.997C730.753 291.672 730.712 291.34 730.696 290.999C730.68 290.659 730.672 290.331 730.672 290.014ZM741.953 287.825C741.905 287.436 741.755 287.124 741.503 286.889C741.252 286.654 740.92 286.536 740.506 286.536C740.068 286.536 739.716 286.646 739.448 286.865C739.181 287.075 738.97 287.347 738.816 287.679C738.67 288.004 738.569 288.356 738.512 288.737C738.455 289.119 738.423 289.475 738.414 289.808L738.439 289.832C738.682 289.435 738.982 289.147 739.339 288.969C739.704 288.79 740.121 288.701 740.591 288.701C741.005 288.701 741.374 288.774 741.698 288.92C742.03 289.058 742.306 289.252 742.525 289.504C742.752 289.755 742.926 290.051 743.048 290.391C743.17 290.732 743.23 291.101 743.23 291.498C743.23 291.814 743.182 292.143 743.084 292.483C742.987 292.824 742.825 293.136 742.598 293.42C742.379 293.695 742.083 293.926 741.71 294.113C741.345 294.291 740.891 294.38 740.348 294.38C739.708 294.38 739.193 294.251 738.804 293.991C738.414 293.732 738.115 293.399 737.904 292.994C737.693 292.589 737.551 292.143 737.478 291.656C737.413 291.17 737.381 290.699 737.381 290.245C737.381 289.654 737.429 289.082 737.527 288.531C737.632 287.971 737.806 287.477 738.05 287.047C738.293 286.617 738.617 286.273 739.023 286.013C739.428 285.754 739.939 285.624 740.555 285.624C741.268 285.624 741.836 285.815 742.258 286.196C742.679 286.569 742.922 287.112 742.987 287.825H741.953ZM740.397 289.613C740.105 289.613 739.85 289.666 739.631 289.771C739.412 289.868 739.225 290.006 739.071 290.185C738.917 290.355 738.8 290.562 738.719 290.805C738.646 291.04 738.609 291.291 738.609 291.559C738.609 291.826 738.65 292.078 738.731 292.313C738.812 292.548 738.925 292.751 739.071 292.921C739.225 293.091 739.412 293.229 739.631 293.334C739.858 293.432 740.113 293.48 740.397 293.48C740.681 293.48 740.928 293.432 741.139 293.334C741.358 293.229 741.54 293.087 741.686 292.909C741.832 292.73 741.941 292.528 742.014 292.301C742.095 292.066 742.136 291.822 742.136 291.571C742.136 291.304 742.099 291.052 742.026 290.817C741.962 290.574 741.856 290.367 741.71 290.197C741.564 290.018 741.382 289.877 741.163 289.771C740.944 289.666 740.689 289.613 740.397 289.613ZM748.034 285.563H749.615L752.351 292.86L755.1 285.563H756.681V294.247H755.586V287.023H755.562L752.85 294.247H751.865L749.153 287.023H749.129V294.247H748.034V285.563ZM764.003 294.222C763.825 294.328 763.577 294.38 763.261 294.38C762.994 294.38 762.779 294.307 762.617 294.161C762.463 294.007 762.386 293.76 762.386 293.42C762.102 293.76 761.769 294.007 761.388 294.161C761.015 294.307 760.61 294.38 760.172 294.38C759.889 294.38 759.617 294.348 759.357 294.283C759.106 294.218 758.887 294.117 758.701 293.979C758.514 293.841 758.364 293.663 758.251 293.444C758.145 293.217 758.093 292.945 758.093 292.629C758.093 292.272 758.153 291.98 758.275 291.753C758.397 291.526 758.555 291.344 758.749 291.206C758.952 291.06 759.179 290.951 759.43 290.878C759.69 290.805 759.953 290.744 760.221 290.695C760.505 290.639 760.772 290.598 761.024 290.574C761.283 290.541 761.51 290.501 761.705 290.452C761.899 290.395 762.053 290.318 762.167 290.221C762.28 290.116 762.337 289.966 762.337 289.771C762.337 289.544 762.292 289.362 762.203 289.224C762.122 289.086 762.013 288.981 761.875 288.908C761.745 288.835 761.595 288.786 761.425 288.762C761.263 288.737 761.101 288.725 760.938 288.725C760.501 288.725 760.136 288.81 759.844 288.981C759.552 289.143 759.394 289.455 759.37 289.917H758.336C758.352 289.528 758.433 289.2 758.579 288.932C758.725 288.664 758.92 288.45 759.163 288.287C759.406 288.117 759.682 287.996 759.99 287.923C760.306 287.85 760.643 287.813 760.999 287.813C761.283 287.813 761.563 287.833 761.838 287.874C762.122 287.915 762.378 288 762.605 288.129C762.832 288.251 763.014 288.425 763.152 288.652C763.29 288.879 763.359 289.175 763.359 289.54V292.775C763.359 293.018 763.371 293.197 763.395 293.31C763.427 293.424 763.525 293.48 763.687 293.48C763.776 293.48 763.882 293.46 764.003 293.42V294.222ZM762.325 290.999C762.195 291.097 762.025 291.17 761.814 291.218C761.603 291.259 761.38 291.295 761.145 291.328C760.918 291.352 760.687 291.385 760.452 291.425C760.217 291.458 760.006 291.514 759.82 291.595C759.633 291.676 759.479 291.794 759.357 291.948C759.244 292.094 759.187 292.297 759.187 292.556C759.187 292.726 759.22 292.872 759.284 292.994C759.357 293.107 759.447 293.201 759.552 293.274C759.666 293.347 759.795 293.399 759.941 293.432C760.087 293.464 760.241 293.48 760.403 293.48C760.744 293.48 761.036 293.436 761.279 293.347C761.522 293.249 761.721 293.132 761.875 292.994C762.029 292.848 762.142 292.694 762.215 292.532C762.288 292.362 762.325 292.203 762.325 292.058V290.999ZM764.929 287.959H765.902V289.285H765.926C766.177 288.774 766.485 288.397 766.85 288.154C767.215 287.91 767.677 287.797 768.237 287.813V288.908C767.823 288.908 767.47 288.964 767.179 289.078C766.887 289.191 766.652 289.358 766.473 289.577C766.295 289.795 766.165 290.063 766.084 290.379C766.003 290.687 765.962 291.044 765.962 291.449V294.247H764.929V287.959Z" fill="#666666"/>
<path fill-rule="evenodd" clip-rule="evenodd" d="M23.5609 269.751H827.322V270.668H23.5609V269.751Z" fill="black" fill-opacity="0.05"/>
<path fill-rule="evenodd" clip-rule="evenodd" d="M23.5609 313.975H827.322V314.891H23.5609V313.975Z" fill="black" fill-opacity="0.05"/>
<path d="M1208.12 231.19L1184.57 180.303C1182.18 175.134 1175.6 173.54 1171.11 177.042L1159.61 186.003C1155.02 189.584 1148.28 187.823 1146.02 182.452L1131.24 147.245C1128.09 139.761 1117.37 140.109 1114.72 147.782L1096.74 199.837C1094.81 205.424 1088.05 207.583 1083.24 204.147L1064.65 190.87L1036.15 166.979C1035.56 166.482 1035.03 165.908 1034.59 165.273L1014.13 136.051C1010.65 131.08 1003.32 131.009 999.741 135.912L978.626 164.873C977.972 165.769 977.156 166.535 976.22 167.129L956.226 179.824C952.368 182.275 947.277 181.381 944.484 177.763L926.137 153.997C922.887 149.787 916.683 149.377 912.907 153.123L891.795 174.069L871.564 199.505C867.409 204.728 859.188 203.645 856.529 197.524L840.699 161.086C837.897 154.636 829.051 153.878 825.192 159.758L810.344 182.385C807.401 186.871 801.174 187.724 797.133 184.196L785.522 174.058C781.055 170.159 774.092 171.672 771.647 177.074L754.622 214.694C751.586 221.403 742.16 221.68 738.735 215.161L722.621 184.492C720.523 180.499 715.757 178.725 711.559 180.372L697.935 185.72C693.324 187.53 688.126 185.201 686.408 180.555L667.038 128.18C664.589 121.56 655.754 120.334 651.595 126.038L640.283 141.553C636.425 146.844 628.355 146.255 625.308 140.459L612.863 116.796C609.311 110.041 599.445 110.654 596.757 117.797L583.014 154.316C580.087 162.092 569.024 161.907 566.359 154.038L552.883 114.249C550.469 107.121 540.823 106.072 536.934 112.515L521.03 138.859C518.592 142.897 513.415 144.311 509.263 142.074L487.146 130.157C483.571 128.231 479.143 128.987 476.41 131.99L459.745 150.298C459.148 150.954 458.653 151.695 458.277 152.498L440.307 190.828C436.906 198.081 426.385 197.438 423.893 189.825L409.088 144.604C406.509 136.725 395.48 136.406 392.45 144.124L378.346 180.043C375.967 186.101 368.081 187.602 363.643 182.841L348.503 166.598C345.746 163.64 341.335 162.929 337.788 164.87L318.399 175.478C316.587 176.47 315.179 178.064 314.42 179.985L293.751 232.249C290.897 239.467 280.793 239.77 277.511 232.736L262.387 200.325C260.077 195.374 253.876 193.681 249.37 196.771L233.392 207.728C230.472 209.731 226.638 209.799 223.649 207.901L202.412 194.416C201.066 193.561 199.976 192.358 199.257 190.935L181.046 154.856C177.432 147.695 166.918 148.657 164.662 156.354L147.616 214.531C145.584 221.467 136.543 223.17 132.127 217.449L113.897 193.834C113.525 193.353 113.204 192.834 112.938 192.286L91.3454 147.726C88.4808 141.814 80.3991 140.978 76.3848 146.178L58.3729 169.51C56.6981 171.679 54.1123 172.949 51.3717 172.949H31.841C29.1004 172.949 26.5146 174.22 24.8399 176.389L6.67788 199.915C2.70027 205.068 -5.29235 204.304 -8.22169 198.491L-24.0077 167.167C-26.8861 161.455 -34.6883 160.593 -38.7446 165.538L-54.8411 185.162C-57.552 188.467 -62.2386 189.361 -65.9752 187.285L-83.2427 177.691C-86.0253 176.145 -89.424 176.213 -92.142 177.87L-115.022 191.817C-116.409 192.663 -118.002 193.11 -119.626 193.11H-142.881C-144.505 193.11 -146.098 193.557 -147.485 194.402L-174.762 211.03L-202.984 231.19" stroke="#00BF96" stroke-width="2.21117"/>
<path d="M480.809 64.0642L480.809 270.809" stroke="black" stroke-opacity="0.1" stroke-width="1.10559" stroke-dasharray="5.53 5.53"/>
<circle cx="480.75" cy="128.445" r="3.75595" fill="white" stroke="#00BF96" stroke-width="3.31676"/>
<circle cx="480.75" cy="229.205" r="3.75595" fill="white" stroke="#0072F5" stroke-width="3.31676"/>
<path d="M77.0407 393.052V382.925H81.0339C83.1112 382.925 84.4024 384.133 84.4024 386.013V386.027C84.4024 387.389 83.6726 388.498 82.4374 388.912L84.7112 393.052H82.8936L80.8303 389.157H78.6127V393.052H77.0407ZM78.6127 387.88H80.8795C82.0865 387.88 82.7883 387.22 82.7883 386.069V386.055C82.7883 384.933 82.0444 384.245 80.8303 384.245H78.6127V387.88ZM89.3528 393.2C87.1212 393.2 85.7737 391.677 85.7737 389.263V389.256C85.7737 386.877 87.1492 385.283 89.2756 385.283C91.4021 385.283 92.7074 386.82 92.7074 389.108V389.642H87.3036C87.3317 391.101 88.1317 391.95 89.3879 391.95C90.3634 391.95 90.9459 391.466 91.1284 391.073L91.1564 391.017L92.6232 391.01L92.6091 391.073C92.3565 392.077 91.3038 393.2 89.3528 393.2ZM89.2827 386.533C88.244 386.533 87.458 387.241 87.3247 388.554H91.1985C91.0792 387.192 90.3143 386.533 89.2827 386.533ZM96.3595 393.052L93.6014 385.431H95.2156L97.1174 391.508H97.2367L99.1315 385.431H100.732L97.9806 393.052H96.3595ZM105.078 393.2C102.847 393.2 101.499 391.677 101.499 389.263V389.256C101.499 386.877 102.875 385.283 105.001 385.283C107.128 385.283 108.433 386.82 108.433 389.108V389.642H103.029C103.057 391.101 103.857 391.95 105.114 391.95C106.089 391.95 106.672 391.466 106.854 391.073L106.882 391.017L108.349 391.01L108.335 391.073C108.082 392.077 107.029 393.2 105.078 393.2ZM105.008 386.533C103.97 386.533 103.184 387.241 103.05 388.554H106.924C106.805 387.192 106.04 386.533 105.008 386.533ZM110.155 393.052V385.431H111.678V386.589H111.79C112.162 385.775 112.892 385.283 114.001 385.283C115.706 385.283 116.647 386.301 116.647 388.119V393.052H115.131V388.477C115.131 387.213 114.605 386.589 113.489 386.589C112.373 386.589 111.678 387.354 111.678 388.582V393.052H110.155ZM121.225 393.2C119.506 393.2 118.615 392.168 118.615 390.364V385.431H120.137V390.006C120.137 391.27 120.601 391.894 121.716 391.894C122.938 391.894 123.59 391.129 123.59 389.901V385.431H125.106V393.052H123.59V391.901H123.471C123.106 392.722 122.334 393.2 121.225 393.2ZM130.414 393.2C128.183 393.2 126.835 391.677 126.835 389.263V389.256C126.835 386.877 128.211 385.283 130.337 385.283C132.464 385.283 133.769 386.82 133.769 389.108V389.642H128.365C128.393 391.101 129.193 391.95 130.449 391.95C131.425 391.95 132.007 391.466 132.19 391.073L132.218 391.017L133.685 391.01L133.671 391.073C133.418 392.077 132.365 393.2 130.414 393.2ZM130.344 386.533C129.306 386.533 128.52 387.241 128.386 388.554H132.26C132.141 387.192 131.376 386.533 130.344 386.533Z" fill="#00BF96"/>
<path d="M200.82 393.052L204.476 382.925H206.175L209.831 393.052H208.175L207.263 390.315H203.389L202.469 393.052H200.82ZM205.262 384.701L203.81 389.052H206.841L205.382 384.701H205.262ZM212.473 393.052L209.715 385.431H211.329L213.231 391.508H213.35L215.245 385.431H216.845L214.094 393.052H212.473ZM221.192 393.2C218.96 393.2 217.612 391.677 217.612 389.263V389.256C217.612 386.877 218.988 385.283 221.114 385.283C223.241 385.283 224.546 386.82 224.546 389.108V389.642H219.142C219.17 391.101 219.97 391.95 221.227 391.95C222.202 391.95 222.785 391.466 222.967 391.073L222.995 391.017L224.462 391.01L224.448 391.073C224.195 392.077 223.143 393.2 221.192 393.2ZM221.121 386.533C220.083 386.533 219.297 387.241 219.163 388.554H223.037C222.918 387.192 222.153 386.533 221.121 386.533ZM226.268 393.052V385.431H227.791V386.582H227.903C228.177 385.775 228.886 385.297 229.904 385.297C230.149 385.297 230.416 385.333 230.57 385.368V386.771C230.297 386.715 230.037 386.68 229.749 386.68C228.584 386.68 227.791 387.396 227.791 388.498V393.052H226.268ZM233.97 393.179C232.517 393.179 231.443 392.294 231.443 390.912V390.898C231.443 389.536 232.468 388.743 234.286 388.631L236.349 388.512V387.838C236.349 387.003 235.822 386.54 234.791 386.54C233.949 386.54 233.394 386.848 233.212 387.389L233.205 387.417H231.738L231.745 387.368C231.928 386.119 233.128 385.283 234.861 385.283C236.777 385.283 237.858 386.238 237.858 387.838V393.052H236.349V391.971H236.229C235.78 392.743 234.98 393.179 233.97 393.179ZM232.959 390.849C232.959 391.55 233.556 391.964 234.377 391.964C235.514 391.964 236.349 391.221 236.349 390.238V389.585L234.489 389.705C233.436 389.768 232.959 390.147 232.959 390.835V390.849ZM243.138 395.74C241.201 395.74 240.008 394.891 239.825 393.621L239.839 393.607H241.376L241.383 393.621C241.51 394.147 242.127 394.519 243.159 394.519C244.415 394.519 245.159 393.929 245.159 392.891V391.389H245.047C244.584 392.217 243.741 392.68 242.696 392.68C240.738 392.68 239.531 391.171 239.531 389.024V389.01C239.531 386.834 240.745 385.297 242.724 385.297C243.791 385.297 244.619 385.824 245.061 386.68H245.152V385.431H246.668V392.898C246.668 394.631 245.299 395.74 243.138 395.74ZM243.117 391.424C244.408 391.424 245.187 390.442 245.187 389.017V389.003C245.187 387.585 244.401 386.589 243.117 386.589C241.818 386.589 241.089 387.585 241.089 389.003V389.017C241.089 390.435 241.818 391.424 243.117 391.424ZM251.969 393.2C249.737 393.2 248.39 391.677 248.39 389.263V389.256C248.39 386.877 249.766 385.283 251.892 385.283C254.018 385.283 255.324 386.82 255.324 389.108V389.642H249.92C249.948 391.101 250.748 391.95 252.004 391.95C252.98 391.95 253.562 391.466 253.745 391.073L253.773 391.017L255.239 391.01L255.225 391.073C254.973 392.077 253.92 393.2 251.969 393.2ZM251.899 386.533C250.86 386.533 250.074 387.241 249.941 388.554H253.815C253.696 387.192 252.931 386.533 251.899 386.533ZM264.937 393.179C263.87 393.179 263.035 392.687 262.593 391.852H262.48V393.052H260.958V382.441H262.48V386.638H262.593C263 385.817 263.891 385.297 264.937 385.297C266.874 385.297 268.095 386.82 268.095 389.235V389.249C268.095 391.642 266.86 393.179 264.937 393.179ZM264.509 391.88C265.779 391.88 266.544 390.884 266.544 389.249V389.235C266.544 387.599 265.779 386.603 264.509 386.603C263.238 386.603 262.452 387.606 262.452 389.235V389.249C262.452 390.877 263.238 391.88 264.509 391.88ZM270.617 384.069C270.091 384.069 269.663 383.641 269.663 383.122C269.663 382.596 270.091 382.168 270.617 382.168C271.136 382.168 271.571 382.596 271.571 383.122C271.571 383.641 271.136 384.069 270.617 384.069ZM269.852 393.052V385.431H271.368V393.052H269.852ZM273.567 393.052V382.441H275.09V393.052H273.567ZM277.339 393.052V382.441H278.862V393.052H277.339Z" fill="#0072F5"/>
<rect x="82.608" y="124.871" width="451.89" height="1.10559" fill="white" fill-opacity="0.1"/>
<rect x="364.889" y="370.312" width="71.6355" height="35.3788" rx="17.6894" fill="#F7F7F7"/>
<path d="M399.157 394.945V384.477H399.011L395.875 386.714V384.814L399.157 382.482H401.092V394.945H399.157ZM407.692 395.101C405.334 395.101 403.805 393.209 403.805 390.264V390.247C403.805 387.275 405.308 385.401 407.692 385.401C408.979 385.401 410.075 386.04 410.576 387.051H410.723V381.886H412.589V394.945H410.723V393.468H410.576C410.032 394.496 409.004 395.101 407.692 395.101ZM408.227 393.503C409.79 393.503 410.749 392.268 410.749 390.264V390.247C410.749 388.243 409.782 387.008 408.227 387.008C406.655 387.008 405.714 388.234 405.714 390.247V390.264C405.714 392.276 406.655 393.503 408.227 393.503Z" fill="#00A885"/>
<rect x="516.297" y="370.312" width="52.8604" height="35.3788" rx="17.6894" fill="#00A885"/>
<path d="M536.399 394.319V383.851H536.252L533.116 386.088V384.188L536.399 381.856H538.333V394.319H536.399ZM541.512 394.319V384.939H543.387V386.382H543.525C543.939 385.354 544.855 384.758 546.081 384.758C547.36 384.758 548.267 385.423 548.681 386.433H548.828C549.303 385.423 550.383 384.758 551.687 384.758C553.579 384.758 554.684 385.898 554.684 387.85V394.319H552.819V388.299C552.819 387.003 552.231 386.364 551.005 386.364C549.813 386.364 549.027 387.254 549.027 388.385V394.319H547.161V388.109C547.161 387.038 546.462 386.364 545.356 386.364C544.224 386.364 543.387 387.332 543.387 388.558V394.319H541.512Z" fill="#F7F7F7"/>
<rect x="436.525" y="370.312" width="71.6355" height="35.3788" rx="17.6894" fill="#F7F7F7"/>
<path d="M468.704 394.945V384.477H468.558L465.422 386.714V384.814L468.704 382.482H470.639V394.945H468.704ZM475.623 394.945L473.032 385.565H474.915L476.599 392.803H476.738L478.672 385.565H480.452L482.386 392.803H482.533L484.209 385.565H486.066L483.483 394.945H481.557L479.614 387.949H479.467L477.532 394.945H475.623Z" fill="#00A885"/>
<path d="M611.077 395.179C608.416 395.179 606.68 393.719 606.516 391.654L606.508 391.551H608.356L608.365 391.637C608.485 392.769 609.531 393.563 611.077 393.563C612.597 393.563 613.625 392.708 613.625 391.482V391.464C613.625 390.057 612.606 389.271 610.947 389.271H609.427V387.768H610.887C612.312 387.768 613.279 386.93 613.279 385.772V385.755C613.279 384.546 612.467 383.838 611.059 383.838C609.677 383.838 608.71 384.572 608.589 385.746L608.58 385.833H606.767L606.775 385.738C606.965 383.639 608.624 382.248 611.059 382.248C613.538 382.248 615.162 383.578 615.162 385.505V385.522C615.162 387.068 614.057 388.104 612.536 388.424V388.467C614.368 388.631 615.594 389.737 615.594 391.482V391.499C615.594 393.641 613.72 395.179 611.077 395.179ZM617.702 394.945V385.565H619.576V387.008H619.714C620.129 385.98 621.045 385.384 622.271 385.384C623.549 385.384 624.456 386.049 624.871 387.059H625.018C625.493 386.049 626.573 385.384 627.877 385.384C629.768 385.384 630.874 386.524 630.874 388.476V394.945H629.008V388.925C629.008 387.629 628.421 386.99 627.194 386.99C626.002 386.99 625.216 387.88 625.216 389.011V394.945H623.351V388.735C623.351 387.664 622.651 386.99 621.546 386.99C620.414 386.99 619.576 387.958 619.576 389.184V394.945H617.702Z" fill="#00A885"/>
<path d="M685.718 394.945V384.477H685.571L682.436 386.714V384.814L685.718 382.482H687.653V394.945H685.718ZM691.748 398.245C691.514 398.245 691.238 398.228 690.996 398.202V396.725C691.177 396.751 691.411 396.759 691.627 396.759C692.499 396.759 693.017 396.388 693.302 395.438L693.44 394.954L690.037 385.565H692.059L694.408 393.062H694.572L696.913 385.565H698.882L695.393 395.308C694.598 397.554 693.648 398.245 691.748 398.245Z" fill="#00A885"/>
<rect x="723.099" y="370.312" width="86.2358" height="35.3788" rx="17.6894" fill="#F7F7F7"/>
<path d="M751.692 394.248C748.064 394.248 745.87 391.717 745.87 387.718V387.7C745.87 383.693 748.116 381.179 751.692 381.179C755.276 381.179 757.505 383.701 757.505 387.7V387.718C757.505 391.708 755.293 394.248 751.692 394.248ZM751.692 392.537C754.058 392.537 755.527 390.637 755.527 387.718V387.7C755.527 384.755 754.05 382.889 751.692 382.889C749.334 382.889 747.848 384.755 747.848 387.7V387.718C747.848 390.637 749.29 392.537 751.692 392.537ZM763.102 394.006C761.038 394.006 760.191 393.28 760.191 391.475V386.042H758.723V384.565H760.191V382.198H762.1V384.565H764.113V386.042H762.1V391.026C762.1 392.036 762.48 392.451 763.404 392.451C763.689 392.451 763.853 392.442 764.113 392.416V393.911C763.81 393.963 763.465 394.006 763.102 394.006ZM766.03 393.945V380.886H767.905V385.99H768.043C768.501 384.988 769.399 384.384 770.764 384.384C772.863 384.384 774.02 385.636 774.02 387.873V393.945H772.154V388.314C772.154 386.759 771.506 385.99 770.133 385.99C768.76 385.99 767.905 386.932 767.905 388.443V393.945H766.03ZM780.222 394.127C777.475 394.127 775.817 392.252 775.817 389.281V389.272C775.817 386.344 777.51 384.384 780.127 384.384C782.744 384.384 784.351 386.275 784.351 389.091V389.748H777.7C777.734 391.544 778.719 392.589 780.265 392.589C781.466 392.589 782.183 391.993 782.407 391.51L782.442 391.44L784.247 391.432L784.23 391.51C783.919 392.745 782.623 394.127 780.222 394.127ZM780.136 385.921C778.857 385.921 777.89 386.794 777.726 388.409H782.494C782.347 386.733 781.405 385.921 780.136 385.921ZM786.225 393.945V384.565H788.1V385.982H788.238C788.575 384.988 789.447 384.401 790.699 384.401C791.002 384.401 791.33 384.444 791.52 384.487V386.215C791.183 386.146 790.864 386.103 790.509 386.103C789.076 386.103 788.1 386.984 788.1 388.34V393.945H786.225Z" fill="#00A885"/>
<rect x="40.9521" y="374.734" width="26.535" height="26.535" rx="4.42235" fill="#00BF96"/>
<path d="M48.5066 388.77L52.5239 392.787L59.9847 384.179" stroke="white" stroke-width="2.29563" stroke-linecap="round" stroke-linejoin="round"/>
<rect x="165.508" y="374.734" width="26.535" height="26.535" rx="4.42235" fill="#0072F5"/>
<path d="M173.674 388.144L177.691 392.162L185.152 383.553" stroke="white" stroke-width="2.29563" stroke-linecap="round" stroke-linejoin="round"/>
<path d="M340.85 315.033H516.786V359.257H340.85V315.033Z" fill="#00BF96" fill-opacity="0.1"/>
<path d="M340.566 315.033L340.566 359.257" stroke="#00BF96" stroke-width="1.10559"/>
<path d="M517.069 315.033L517.069 359.257" stroke="#00BF96" stroke-width="1.10559"/>
<rect x="336.144" y="324.982" width="8.84501" height="26.535" fill="#00BF96"/>
<path d="M338.908 328.299V348.201" stroke="#F7F7F7" stroke-width="0.552793"/>
<path d="M342.224 328.299V348.201" stroke="#F7F7F7" stroke-width="0.552793"/>
<rect x="511.932" y="324.982" width="8.84501" height="26.535" fill="#00BF96"/>
<path d="M514.697 328.299V348.201" stroke="#F7F7F7" stroke-width="0.552793"/>
<path d="M518.013 328.299V348.201" stroke="#F7F7F7" stroke-width="0.552793"/>
<g filter="url(#filter1_d_2503_31110)">
<path fill-rule="evenodd" clip-rule="evenodd" d="M339.628 84.7288C339.628 80.3945 339.628 78.2273 340.472 76.5718C341.213 75.1156 342.397 73.9317 343.854 73.1897C345.509 72.3462 347.676 72.3462 352.011 72.3462L457.002 72.3462C461.336 72.3462 463.503 72.3462 465.159 73.1897C466.615 73.9317 467.799 75.1156 468.541 76.5718C469.384 78.2273 469.384 80.3945 469.384 84.7288V141.777C469.384 146.111 469.384 148.279 468.541 149.934C467.799 151.39 466.615 152.574 465.159 153.316C463.503 154.16 461.336 154.16 457.002 154.16H352.011C347.676 154.16 345.509 154.16 343.854 153.316C342.397 152.574 341.213 151.39 340.472 149.934C339.628 148.279 339.628 146.111 339.628 141.777V84.7288Z" fill="#0B1734"/>
</g>
<path d="M382.83 136.299C382.83 136.624 382.839 136.989 382.855 137.394C382.879 137.791 382.944 138.168 383.049 138.525C383.163 138.874 383.341 139.169 383.584 139.413C383.828 139.656 384.168 139.778 384.606 139.778C385.044 139.778 385.384 139.656 385.628 139.413C385.871 139.169 386.045 138.874 386.15 138.525C386.264 138.168 386.329 137.791 386.345 137.394C386.369 136.989 386.382 136.624 386.382 136.299C386.382 136.089 386.377 135.857 386.369 135.606C386.369 135.347 386.349 135.091 386.309 134.84C386.276 134.581 386.223 134.329 386.15 134.086C386.086 133.843 385.984 133.632 385.846 133.454C385.717 133.267 385.551 133.117 385.348 133.004C385.145 132.89 384.898 132.833 384.606 132.833C384.314 132.833 384.067 132.89 383.864 133.004C383.661 133.117 383.491 133.267 383.353 133.454C383.224 133.632 383.122 133.843 383.049 134.086C382.984 134.329 382.932 134.581 382.891 134.84C382.859 135.091 382.839 135.347 382.83 135.606C382.83 135.857 382.83 136.089 382.83 136.299ZM381.736 136.312C381.736 135.995 381.744 135.667 381.76 135.326C381.776 134.986 381.817 134.654 381.882 134.329C381.947 134.005 382.04 133.697 382.162 133.405C382.283 133.113 382.449 132.858 382.66 132.639C382.871 132.42 383.134 132.246 383.451 132.116C383.775 131.986 384.16 131.921 384.606 131.921C385.052 131.921 385.433 131.986 385.749 132.116C386.073 132.246 386.341 132.42 386.552 132.639C386.763 132.858 386.929 133.113 387.05 133.405C387.172 133.697 387.265 134.005 387.33 134.329C387.395 134.654 387.436 134.986 387.452 135.326C387.468 135.667 387.476 135.995 387.476 136.312C387.476 136.628 387.468 136.956 387.452 137.297C387.436 137.637 387.395 137.97 387.33 138.294C387.265 138.618 387.172 138.926 387.05 139.218C386.929 139.502 386.763 139.753 386.552 139.972C386.341 140.191 386.078 140.365 385.761 140.495C385.445 140.617 385.06 140.677 384.606 140.677C384.16 140.677 383.775 140.617 383.451 140.495C383.134 140.365 382.871 140.191 382.66 139.972C382.449 139.753 382.283 139.502 382.162 139.218C382.04 138.926 381.947 138.618 381.882 138.294C381.817 137.97 381.776 137.637 381.76 137.297C381.744 136.956 381.736 136.628 381.736 136.312ZM392.106 137.613V133.393H392.081L389.211 137.613H392.106ZM393.078 137.613H394.246V138.525H393.078V140.544H392.106V138.525H388.323V137.528L392.251 131.921H393.078V137.613ZM399.098 131.86H400.679L403.415 139.157L406.164 131.86H407.745V140.544H406.65V133.32H406.626L403.914 140.544H402.929L400.217 133.32H400.193V140.544H399.098V131.86ZM415.067 140.519C414.889 140.625 414.642 140.677 414.325 140.677C414.058 140.677 413.843 140.605 413.681 140.459C413.527 140.305 413.45 140.057 413.45 139.717C413.166 140.057 412.834 140.305 412.453 140.459C412.08 140.605 411.674 140.677 411.236 140.677C410.953 140.677 410.681 140.645 410.422 140.58C410.17 140.515 409.951 140.414 409.765 140.276C409.578 140.138 409.428 139.96 409.315 139.741C409.21 139.514 409.157 139.242 409.157 138.926C409.157 138.569 409.218 138.278 409.339 138.051C409.461 137.824 409.619 137.641 409.814 137.503C410.016 137.357 410.243 137.248 410.495 137.175C410.754 137.102 411.018 137.041 411.285 136.993C411.569 136.936 411.836 136.895 412.088 136.871C412.347 136.839 412.574 136.798 412.769 136.749C412.963 136.693 413.117 136.616 413.231 136.518C413.344 136.413 413.401 136.263 413.401 136.068C413.401 135.841 413.357 135.659 413.267 135.521C413.186 135.383 413.077 135.278 412.939 135.205C412.809 135.132 412.659 135.083 412.489 135.059C412.327 135.035 412.165 135.022 412.003 135.022C411.565 135.022 411.2 135.108 410.908 135.278C410.616 135.44 410.458 135.752 410.434 136.214H409.4C409.416 135.825 409.497 135.497 409.643 135.229C409.789 134.962 409.984 134.747 410.227 134.585C410.47 134.414 410.746 134.293 411.054 134.22C411.37 134.147 411.707 134.11 412.063 134.11C412.347 134.11 412.627 134.131 412.903 134.171C413.186 134.212 413.442 134.297 413.669 134.426C413.896 134.548 414.078 134.722 414.216 134.949C414.354 135.176 414.423 135.472 414.423 135.837V139.072C414.423 139.315 414.435 139.494 414.459 139.607C414.492 139.721 414.589 139.778 414.751 139.778C414.84 139.778 414.946 139.757 415.067 139.717V140.519ZM413.389 137.297C413.259 137.394 413.089 137.467 412.878 137.515C412.667 137.556 412.444 137.593 412.209 137.625C411.982 137.649 411.751 137.682 411.516 137.722C411.281 137.755 411.07 137.811 410.884 137.893C410.697 137.974 410.543 138.091 410.422 138.245C410.308 138.391 410.251 138.594 410.251 138.853C410.251 139.024 410.284 139.169 410.349 139.291C410.422 139.405 410.511 139.498 410.616 139.571C410.73 139.644 410.859 139.696 411.005 139.729C411.151 139.761 411.305 139.778 411.467 139.778C411.808 139.778 412.1 139.733 412.343 139.644C412.586 139.546 412.785 139.429 412.939 139.291C413.093 139.145 413.207 138.991 413.28 138.829C413.353 138.659 413.389 138.501 413.389 138.355V137.297ZM415.993 134.256H416.966V135.582H416.99C417.241 135.071 417.55 134.694 417.914 134.451C418.279 134.208 418.741 134.094 419.301 134.11V135.205C418.887 135.205 418.535 135.262 418.243 135.375C417.951 135.489 417.716 135.655 417.537 135.874C417.359 136.093 417.229 136.36 417.148 136.676C417.067 136.984 417.027 137.341 417.027 137.747V140.544H415.993V134.256Z" fill="white" fill-opacity="0.6"/>
<path d="M386.34 99.9875V97.9734H381.399V96.64C382.733 94.3522 384.221 91.9591 385.617 89.8607H387.856V96.64H389.252V97.9734H387.856V99.9875H386.34ZM382.908 96.6681H386.361V91.1871H386.27C385.182 92.8223 383.947 94.7943 382.908 96.5698V96.6681ZM394.42 100.177C392.259 100.177 390.848 98.991 390.715 97.3137L390.708 97.2295H392.21L392.217 97.2997C392.315 98.219 393.164 98.8647 394.42 98.8647C395.656 98.8647 396.491 98.1699 396.491 97.1734V97.1593C396.491 96.0154 395.663 95.3768 394.315 95.3768H393.08V94.1557H394.266C395.424 94.1557 396.21 93.475 396.21 92.5346V92.5205C396.21 91.538 395.55 90.9625 394.406 90.9625C393.284 90.9625 392.498 91.5591 392.399 92.5135L392.392 92.5837H390.918L390.926 92.5065C391.08 90.8011 392.427 89.6713 394.406 89.6713C396.421 89.6713 397.74 90.752 397.74 92.317V92.331C397.74 93.5872 396.842 94.4294 395.606 94.689V94.7241C397.094 94.8575 398.091 95.7558 398.091 97.1734V97.1874C398.091 98.9278 396.568 100.177 394.42 100.177ZM403.287 100.233C401.294 100.233 399.918 98.991 399.778 97.3488L399.771 97.2576H401.245L401.252 97.3137C401.385 98.205 402.192 98.9138 403.301 98.9138C404.55 98.9138 405.42 98.0225 405.42 96.7523V96.7383C405.42 95.4891 404.536 94.6048 403.315 94.6048C402.697 94.6048 402.171 94.7873 401.771 95.1522C401.589 95.3136 401.427 95.5101 401.308 95.7417H399.953L400.459 89.8607H406.347V91.1941H401.694L401.385 94.4224H401.504C401.932 93.7416 402.725 93.3486 403.659 93.3486C405.561 93.3486 406.922 94.7662 406.922 96.7102V96.7242C406.922 98.8015 405.42 100.233 403.287 100.233ZM407.802 102.619L408.42 98.4998H410.041L408.876 102.619H407.802ZM415.349 100.233C413.356 100.233 411.981 98.991 411.84 97.3488L411.833 97.2576H413.307L413.314 97.3137C413.448 98.205 414.255 98.9138 415.363 98.9138C416.613 98.9138 417.483 98.0225 417.483 96.7523V96.7383C417.483 95.4891 416.599 94.6048 415.377 94.6048C414.76 94.6048 414.234 94.7873 413.834 95.1522C413.651 95.3136 413.49 95.5101 413.37 95.7417H412.016L412.521 89.8607H418.409V91.1941H413.756L413.448 94.4224H413.567C413.995 93.7416 414.788 93.3486 415.721 93.3486C417.623 93.3486 418.985 94.7662 418.985 96.7102V96.7242C418.985 98.8015 417.483 100.233 415.349 100.233ZM424.223 100.233C421.886 100.233 420.482 98.191 420.482 94.9277V94.9136C420.482 91.6503 421.886 89.6151 424.223 89.6151C426.553 89.6151 427.963 91.6503 427.963 94.9136V94.9277C427.963 98.191 426.553 100.233 424.223 100.233ZM424.223 98.9278C425.577 98.9278 426.377 97.405 426.377 94.9277V94.9136C426.377 92.4363 425.577 90.9275 424.223 90.9275C422.861 90.9275 422.068 92.4363 422.068 94.9136V94.9277C422.068 97.405 422.861 98.9278 424.223 98.9278ZM432.875 96.3382V95.5101H434.201C434.18 95.3207 434.173 95.1242 434.173 94.9277V94.9136C434.173 94.7171 434.18 94.5206 434.201 94.3311H432.875V93.503H434.327C434.889 91.138 436.903 90.0081 439.338 90.0081C439.857 90.0081 440.517 90.0643 440.84 90.1625V91.5029C440.51 91.4257 439.886 91.3766 439.366 91.3766C437.724 91.3766 436.447 92.0644 435.963 93.503H439.738V94.3311H435.78C435.759 94.5206 435.745 94.7241 435.745 94.9277V94.9417C435.745 95.1382 435.759 95.3277 435.78 95.5101H439.738V96.3382H435.956C436.433 97.791 437.717 98.4717 439.38 98.4717C439.886 98.4717 440.524 98.4366 440.847 98.3524V99.6928C440.538 99.7981 439.886 99.8402 439.359 99.8402C436.889 99.8402 434.889 98.7033 434.327 96.3382H432.875Z" fill="white" fill-opacity="0.9"/>
<rect x="354.089" y="94.458" width="16.8712" height="2.21125" fill="#00BF96"/>
<path d="M385.435 120.134C383.399 120.134 381.491 118.702 381.491 114.976V114.962C381.491 111.537 382.985 109.516 385.491 109.516C387.28 109.516 388.614 110.569 388.951 112.099L388.965 112.183H387.407L387.379 112.113C387.098 111.341 386.438 110.849 385.484 110.849C383.778 110.849 383.07 112.513 382.992 114.534C382.985 114.611 382.985 114.688 382.985 114.765H383.119C383.491 113.951 384.403 113.228 385.786 113.228C387.715 113.228 389.098 114.66 389.098 116.597V116.611C389.098 118.646 387.561 120.134 385.435 120.134ZM383.294 116.611C383.294 117.846 384.228 118.815 385.421 118.815C386.607 118.815 387.547 117.867 387.547 116.653V116.639C387.547 115.397 386.663 114.499 385.435 114.499C384.221 114.499 383.294 115.383 383.294 116.604V116.611ZM394.308 120.078C392.147 120.078 390.736 118.892 390.603 117.215L390.596 117.13H392.097L392.105 117.201C392.203 118.12 393.052 118.766 394.308 118.766C395.543 118.766 396.378 118.071 396.378 117.074V117.06C396.378 115.916 395.55 115.278 394.203 115.278H392.968V114.057H394.154C395.312 114.057 396.098 113.376 396.098 112.435V112.421C396.098 111.439 395.438 110.863 394.294 110.863C393.171 110.863 392.385 111.46 392.287 112.414L392.28 112.485H390.806L390.813 112.407C390.968 110.702 392.315 109.572 394.294 109.572C396.308 109.572 397.628 110.653 397.628 112.218V112.232C397.628 113.488 396.729 114.33 395.494 114.59V114.625C396.982 114.758 397.978 115.657 397.978 117.074V117.088C397.978 118.829 396.456 120.078 394.308 120.078ZM398.88 122.52L399.497 118.401H401.118L399.953 122.52H398.88ZM407.662 119.888V117.874H402.721V116.541C404.055 114.253 405.543 111.86 406.939 109.762H409.178V116.541H410.574V117.874H409.178V119.888H407.662ZM404.23 116.569H407.683V111.088H407.592C406.504 112.723 405.269 114.695 404.23 116.471V116.569ZM412.177 119.888V118.822L415.539 115.292C416.879 113.895 417.265 113.376 417.265 112.555V112.534C417.265 111.544 416.585 110.814 415.476 110.814C414.339 110.814 413.581 111.558 413.581 112.667L413.574 112.688H412.1L412.086 112.674C412.093 110.821 413.525 109.516 415.56 109.516C417.448 109.516 418.837 110.716 418.837 112.386V112.407C418.837 113.558 418.304 114.443 416.465 116.267L414.318 118.408V118.548H418.999V119.888H412.177ZM423.952 116.239V115.411H425.278C425.257 115.222 425.25 115.025 425.25 114.829V114.814C425.25 114.618 425.257 114.421 425.278 114.232H423.952V113.404H425.405C425.966 111.039 427.98 109.909 430.416 109.909C430.935 109.909 431.595 109.965 431.917 110.063V111.404C431.588 111.327 430.963 111.277 430.444 111.277C428.801 111.277 427.524 111.965 427.04 113.404H430.816V114.232H426.857C426.836 114.421 426.822 114.625 426.822 114.829V114.843C426.822 115.039 426.836 115.229 426.857 115.411H430.816V116.239H427.033C427.51 117.692 428.794 118.373 430.458 118.373C430.963 118.373 431.602 118.337 431.924 118.253V119.594C431.616 119.699 430.963 119.741 430.437 119.741C427.966 119.741 425.966 118.604 425.405 116.239H423.952Z" fill="white" fill-opacity="0.9"/>
<rect x="354.089" y="114.359" width="16.8712" height="2.21125" fill="#0070F0"/>
</g>
</g>
<rect x="19.8526" y="417.945" width="399.303" height="807.265" rx="20.7873" transform="rotate(-90 19.8526 417.945)" stroke="#F5F6FA" stroke-width="6.82021"/>
</g>
</g>
<defs>
<filter id="filter0_dd_2503_31110" x="-7.11828" y="-3.98939" width="861.207" height="453.245" filterUnits="userSpaceOnUse" color-interpolation-filters="sRGB">
<feFlood flood-opacity="0" result="BackgroundImageFix"/>
<feColorMatrix in="SourceAlpha" type="matrix" values="0 0 0 0 0 0 0 0 0 0 0 0 0 0 0 0 0 0 127 0" result="hardAlpha"/>
<feOffset dy="4.34013"/>
<feGaussianBlur stdDeviation="11.7804"/>
<feComposite in2="hardAlpha" operator="out"/>
<feColorMatrix type="matrix" values="0 0 0 0 0.027451 0 0 0 0 0.0352941 0 0 0 0 0.239216 0 0 0 0.12 0"/>
<feBlend mode="normal" in2="BackgroundImageFix" result="effect1_dropShadow_2503_31110"/>
<feColorMatrix in="SourceAlpha" type="matrix" values="0 0 0 0 0 0 0 0 0 0 0 0 0 0 0 0 0 0 127 0" result="hardAlpha"/>
<feOffset dy="2.79009"/>
<feGaussianBlur stdDeviation="4.96015"/>
<feComposite in2="hardAlpha" operator="out"/>
<feColorMatrix type="matrix" values="0 0 0 0 0 0 0 0 0 0 0 0 0 0 0 0 0 0 0.09 0"/>
<feBlend mode="normal" in2="effect1_dropShadow_2503_31110" result="effect2_dropShadow_2503_31110"/>
<feBlend mode="normal" in="SourceGraphic" in2="effect2_dropShadow_2503_31110" result="shape"/>
</filter>
<filter id="filter1_d_2503_31110" x="328.572" y="67.9238" width="151.868" height="103.925" filterUnits="userSpaceOnUse" color-interpolation-filters="sRGB">
<feFlood flood-opacity="0" result="BackgroundImageFix"/>
<feColorMatrix in="SourceAlpha" type="matrix" values="0 0 0 0 0 0 0 0 0 0 0 0 0 0 0 0 0 0 127 0" result="hardAlpha"/>
<feOffset dy="6.63352"/>
<feGaussianBlur stdDeviation="5.52793"/>
<feColorMatrix type="matrix" values="0 0 0 0 0 0 0 0 0 0 0 0 0 0 0 0 0 0 0.3 0"/>
<feBlend mode="normal" in2="BackgroundImageFix" result="effect1_dropShadow_2503_31110"/>
<feBlend mode="normal" in="SourceGraphic" in2="effect1_dropShadow_2503_31110" result="shape"/>
</filter>
<clipPath id="clip0_2503_31110">
<rect width="847" height="450" fill="white"/>
</clipPath>
<clipPath id="clip1_2503_31110">
<rect x="23.2627" y="414.535" width="392.483" height="800.445" rx="17.3772" transform="rotate(-90 23.2627 414.535)" fill="white"/>
</clipPath>
<clipPath id="clip2_2503_31110">
<rect width="803.762" height="414.595" fill="white" transform="translate(19.9459 18.7358)"/>
</clipPath>
</defs>
</svg>
