<svg width="352" height="38" fill="none" xmlns="http://www.w3.org/2000/svg"><path d="M1.8 30a.974.974 0 0 1-.72-.28A.975.975 0 0 1 .8 29V3c0-.293.093-.533.28-.72A.975.975 0 0 1 1.8 2H13c2.213 0 4.133.347 5.76 1.04 1.653.667 2.933 1.68 3.84 3.04.933 1.36 1.4 3.08 1.4 5.16 0 2.053-.467 3.747-1.4 5.08-.907 1.333-2.187 2.32-3.84 2.96-1.627.64-3.547.96-5.76.96H8.24V29a.913.913 0 0 1-.32.72.974.974 0 0 1-.72.28H1.8Zm6.32-15.28h4.68c1.147 0 2.053-.293 2.72-.88.693-.587 1.04-1.48 1.04-2.68 0-1.013-.293-1.867-.88-2.56-.587-.693-1.547-1.04-2.88-1.04H8.12v7.16ZM36.757 30.4c-3.147 0-5.653-.853-7.52-2.56s-2.84-4.24-2.92-7.6v-1.4c.08-2.107.547-3.907 1.4-5.4.88-1.52 2.08-2.667 3.6-3.44 1.547-.8 3.347-1.2 5.4-1.2 2.347 0 4.28.467 5.8 1.4 1.547.933 2.707 2.2 3.48 3.8.773 1.6 1.16 3.427 1.16 5.48v.96a.913.913 0 0 1-.32.72.926.926 0 0 1-.68.28h-12.8v.28c.027.773.16 1.48.4 2.12.24.64.613 1.147 1.12 1.52.507.373 1.12.56 1.84.56.533 0 .973-.08 1.32-.24.373-.187.68-.387.92-.6.24-.24.427-.44.56-.6.24-.267.427-.427.56-.48.16-.08.4-.12.72-.12h4.96c.267 0 .48.08.64.24.187.133.267.333.24.6-.027.453-.253 1-.68 1.64-.427.64-1.053 1.28-1.88 1.92-.8.613-1.813 1.12-3.04 1.52-1.227.4-2.653.6-4.28.6Zm-3.4-12.92h6.76v-.08c0-.853-.133-1.6-.4-2.24-.24-.64-.627-1.133-1.16-1.48-.507-.347-1.12-.52-1.84-.52s-1.333.173-1.84.52c-.48.347-.853.84-1.12 1.48-.267.64-.4 1.387-.4 2.24v.08ZM51.907 30a.975.975 0 0 1-.72-.28.975.975 0 0 1-.28-.72V10.2c0-.267.093-.493.28-.68a.913.913 0 0 1 .72-.32h4.6c.293 0 .533.107.72.32.187.187.28.413.28.68v1.6a7.528 7.528 0 0 1 2.56-1.92c1.013-.453 2.147-.68 3.4-.68h1.76c.267 0 .493.093.68.28.213.187.32.427.32.72v4.12c0 .267-.107.507-.32.72a.926.926 0 0 1-.68.28h-3.88c-1.093 0-1.947.307-2.56.92-.587.587-.88 1.427-.88 2.52V29a.913.913 0 0 1-.32.72.974.974 0 0 1-.72.28h-4.96ZM77.631 30.4c-1.733 0-3.213-.187-4.44-.56-1.2-.4-2.187-.88-2.96-1.44-.747-.56-1.307-1.133-1.68-1.72-.373-.613-.573-1.133-.6-1.56a.807.807 0 0 1 .28-.72c.213-.213.44-.32.68-.32h4.56c.08 0 .147.013.2.04.053.027.133.08.24.16.347.187.693.427 1.04.72.347.267.747.507 1.2.72.453.213 1 .32 1.64.32.747 0 1.373-.147 1.88-.44.507-.293.76-.733.76-1.32 0-.427-.12-.773-.36-1.04-.24-.293-.733-.573-1.48-.84-.72-.267-1.813-.533-3.28-.8-1.387-.32-2.6-.733-3.64-1.24-1.04-.533-1.84-1.213-2.4-2.04-.56-.853-.84-1.88-.84-3.08 0-1.067.347-2.093 1.04-3.08.693-.987 1.707-1.787 3.04-2.4 1.333-.64 2.973-.96 4.92-.96 1.547 0 2.88.187 4 .56 1.147.347 2.107.8 2.88 1.36.8.56 1.4 1.133 1.8 1.72.4.587.613 1.12.64 1.6a.916.916 0 0 1-.24.72.88.88 0 0 1-.64.28h-4.16c-.107 0-.213-.013-.32-.04a2.612 2.612 0 0 1-.28-.16c-.32-.16-.64-.373-.96-.64a5.774 5.774 0 0 0-1.12-.72c-.427-.213-.96-.32-1.6-.32-.72 0-1.28.16-1.68.48-.4.32-.6.733-.6 1.24 0 .347.107.667.32.96.24.293.707.56 1.4.8.72.24 1.827.507 3.32.8 1.84.293 3.307.773 4.4 1.44 1.093.64 1.867 1.4 2.32 2.28.453.853.68 1.76.68 2.72 0 1.28-.387 2.413-1.16 3.4-.747.987-1.867 1.76-3.36 2.32-1.493.533-3.307.8-5.44.8ZM101.02 30.4c-2.24 0-4.133-.36-5.68-1.08-1.52-.72-2.693-1.747-3.52-3.08-.8-1.36-1.253-2.973-1.36-4.84a36.328 36.328 0 0 1-.04-1.8c0-.693.014-1.293.04-1.8.107-1.893.587-3.507 1.44-4.84.854-1.333 2.04-2.36 3.56-3.08 1.547-.72 3.4-1.08 5.56-1.08 2.187 0 4.04.36 5.56 1.08 1.547.72 2.747 1.747 3.6 3.08.854 1.333 1.334 2.947 1.44 4.84.027.507.04 1.107.04 1.8 0 .667-.013 1.267-.04 1.8-.106 1.867-.573 3.48-1.4 4.84-.8 1.333-1.973 2.36-3.52 3.08-1.52.72-3.413 1.08-5.68 1.08Zm0-4.88c1.2 0 2.067-.36 2.6-1.08.56-.72.88-1.8.96-3.24.027-.4.04-.933.04-1.6s-.013-1.2-.04-1.6c-.08-1.413-.4-2.48-.96-3.2-.533-.747-1.4-1.12-2.6-1.12-1.173 0-2.04.373-2.6 1.12-.56.72-.866 1.787-.92 3.2-.026.4-.04.933-.04 1.6s.014 1.2.04 1.6c.054 1.44.36 2.52.92 3.24.56.72 1.427 1.08 2.6 1.08ZM116.594 30a.976.976 0 0 1-.72-.28.977.977 0 0 1-.28-.72V10.2c0-.293.094-.533.28-.72a.976.976 0 0 1 .72-.28h4.6c.294 0 .534.093.72.28.187.187.28.427.28.72v1.52c.694-.827 1.6-1.52 2.72-2.08s2.44-.84 3.96-.84c1.547 0 2.907.347 4.08 1.04 1.2.693 2.134 1.72 2.8 3.08.694 1.333 1.04 2.973 1.04 4.92V29a.911.911 0 0 1-.32.72.924.924 0 0 1-.68.28h-5.04c-.266 0-.506-.093-.72-.28a.977.977 0 0 1-.28-.72V18.08c0-1.253-.306-2.213-.92-2.88-.586-.693-1.466-1.04-2.64-1.04-1.093 0-1.973.347-2.64 1.04-.64.667-.96 1.627-.96 2.88V29a.911.911 0 0 1-.32.72.924.924 0 0 1-.68.28h-5ZM147.498 30.4c-1.44 0-2.733-.267-3.88-.8-1.12-.56-2.013-1.307-2.68-2.24a5.31 5.31 0 0 1-1-3.16c0-1.893.774-3.387 2.32-4.48 1.547-1.12 3.6-1.88 6.16-2.28l5-.76v-.56c0-.96-.2-1.693-.6-2.2-.4-.507-1.133-.76-2.2-.76-.746 0-1.36.147-1.84.44a3.144 3.144 0 0 0-1.08 1.2c-.24.347-.573.52-1 .52h-4.48c-.293 0-.52-.08-.68-.24a.811.811 0 0 1-.2-.64c0-.48.174-1.027.52-1.64.374-.64.934-1.267 1.68-1.88.747-.613 1.707-1.12 2.88-1.52 1.174-.4 2.587-.6 4.24-.6 1.734 0 3.214.2 4.44.6 1.227.4 2.214.96 2.96 1.68a6.674 6.674 0 0 1 1.72 2.56c.374.96.56 2.027.56 3.2V29a.911.911 0 0 1-.32.72.924.924 0 0 1-.68.28h-4.64a.976.976 0 0 1-.72-.28.977.977 0 0 1-.28-.72v-1.4c-.346.507-.813.973-1.4 1.4-.586.427-1.28.76-2.08 1-.773.267-1.68.4-2.72.4Zm1.88-4.56c.774 0 1.467-.16 2.08-.48.64-.347 1.134-.867 1.48-1.56.374-.72.56-1.613.56-2.68v-.56l-3.4.6c-1.253.213-2.173.547-2.76 1-.56.427-.84.933-.84 1.52 0 .453.134.84.4 1.16.267.32.614.573 1.04.76.427.16.907.24 1.44.24ZM165.852 30a.976.976 0 0 1-.72-.28.977.977 0 0 1-.28-.72V2.6c0-.293.094-.533.28-.72a.976.976 0 0 1 .72-.28h4.72c.294 0 .534.093.72.28.187.187.28.427.28.72V29a.973.973 0 0 1-.28.72.972.972 0 0 1-.72.28h-4.72ZM186.253 30a.976.976 0 0 1-.72-.28.977.977 0 0 1-.28-.72V3c0-.293.094-.533.28-.72a.976.976 0 0 1 .72-.28h11.2c2.214 0 4.134.347 5.76 1.04 1.654.667 2.934 1.68 3.84 3.04.934 1.36 1.4 3.08 1.4 5.16 0 2.053-.466 3.747-1.4 5.08-.906 1.333-2.186 2.32-3.84 2.96-1.626.64-3.546.96-5.76.96h-4.76V29a.911.911 0 0 1-.32.72.972.972 0 0 1-.72.28h-5.4Zm6.32-15.28h4.68c1.147 0 2.054-.293 2.72-.88.694-.587 1.04-1.48 1.04-2.68 0-1.013-.293-1.867-.88-2.56-.586-.693-1.546-1.04-2.88-1.04h-4.68v7.16ZM212.844 30a.976.976 0 0 1-.72-.28.977.977 0 0 1-.28-.72V10.2c0-.267.094-.493.28-.68a.914.914 0 0 1 .72-.32h4.6c.294 0 .534.107.72.32.187.187.28.413.28.68v1.6a7.533 7.533 0 0 1 2.56-1.92c1.014-.453 2.147-.68 3.4-.68h1.76c.267 0 .494.093.68.28.214.187.32.427.32.72v4.12c0 .267-.106.507-.32.72a.924.924 0 0 1-.68.28h-3.88c-1.093 0-1.946.307-2.56.92-.586.587-.88 1.427-.88 2.52V29a.911.911 0 0 1-.32.72.972.972 0 0 1-.72.28h-4.96ZM239.692 30.4c-2.24 0-4.133-.36-5.68-1.08-1.52-.72-2.693-1.747-3.52-3.08-.8-1.36-1.253-2.973-1.36-4.84a37.206 37.206 0 0 1-.04-1.8c0-.693.014-1.293.04-1.8.107-1.893.587-3.507 1.44-4.84.854-1.333 2.04-2.36 3.56-3.08 1.547-.72 3.4-1.08 5.56-1.08 2.187 0 4.04.36 5.56 1.08 1.547.72 2.747 1.747 3.6 3.08.854 1.333 1.334 2.947 1.44 4.84.027.507.04 1.107.04 1.8 0 .667-.013 1.267-.04 1.8-.106 1.867-.573 3.48-1.4 4.84-.8 1.333-1.973 2.36-3.52 3.08-1.52.72-3.413 1.08-5.68 1.08Zm0-4.88c1.2 0 2.067-.36 2.6-1.08.56-.72.88-1.8.96-3.24.027-.4.04-.933.04-1.6s-.013-1.2-.04-1.6c-.08-1.413-.4-2.48-.96-3.2-.533-.747-1.4-1.12-2.6-1.12-1.173 0-2.04.373-2.6 1.12-.56.72-.866 1.787-.92 3.2-.026.4-.04.933-.04 1.6s.014 1.2.04 1.6c.054 1.44.36 2.52.92 3.24.56.72 1.427 1.08 2.6 1.08ZM250.786 37.6a.976.976 0 0 1-.72-.28.977.977 0 0 1-.28-.72v-3.24c0-.293.094-.533.28-.72a.976.976 0 0 1 .72-.28h1.48c.667 0 1.174-.133 1.52-.4.347-.24.587-.587.72-1.04.134-.427.2-.92.2-1.48V10.2c0-.293.094-.533.28-.72.214-.187.454-.28.72-.28h4.96c.294 0 .534.093.72.28.187.187.28.427.28.72v19.4c0 1.733-.346 3.187-1.04 4.36-.666 1.2-1.64 2.107-2.92 2.72s-2.84.92-4.68.92h-2.24Zm4.88-31.4c-.266 0-.506-.093-.72-.28a.977.977 0 0 1-.28-.72V1.64c0-.293.094-.533.28-.72.214-.213.454-.32.72-.32h5.04a.87.87 0 0 1 .68.32c.214.187.32.427.32.72V5.2a.911.911 0 0 1-.32.72.924.924 0 0 1-.68.28h-5.04ZM276.171 30.4c-3.147 0-5.653-.853-7.52-2.56s-2.84-4.24-2.92-7.6v-1.4c.08-2.107.547-3.907 1.4-5.4.88-1.52 2.08-2.667 3.6-3.44 1.547-.8 3.347-1.2 5.4-1.2 2.347 0 4.28.467 5.8 1.4 1.547.933 2.707 2.2 3.48 3.8.773 1.6 1.16 3.427 1.16 5.48v.96a.914.914 0 0 1-.32.72.926.926 0 0 1-.68.28h-12.8v.28c.027.773.16 1.48.4 2.12.24.64.613 1.147 1.12 1.52.507.373 1.12.56 1.84.56.533 0 .973-.08 1.32-.24.373-.187.68-.387.92-.6.24-.24.427-.44.56-.6.24-.267.427-.427.56-.48.16-.08.4-.12.72-.12h4.96c.267 0 .48.08.64.24.187.133.267.333.24.6-.027.453-.253 1-.68 1.64-.427.64-1.053 1.28-1.88 1.92-.8.613-1.813 1.12-3.04 1.52-1.227.4-2.653.6-4.28.6Zm-3.4-12.92h6.76v-.08c0-.853-.133-1.6-.4-2.24-.24-.64-.627-1.133-1.16-1.48-.507-.347-1.12-.52-1.84-.52s-1.333.173-1.84.52c-.48.347-.853.84-1.12 1.48-.267.64-.4 1.387-.4 2.24v.08ZM299.881 30.4c-1.973 0-3.72-.36-5.24-1.08-1.52-.72-2.733-1.76-3.64-3.12-.88-1.387-1.36-3.04-1.44-4.96-.027-.427-.04-.96-.04-1.6 0-.667.013-1.213.04-1.64.08-1.947.56-3.6 1.44-4.96.88-1.387 2.08-2.44 3.6-3.16 1.547-.72 3.307-1.08 5.28-1.08 1.84 0 3.413.267 4.72.8 1.307.507 2.373 1.147 3.2 1.92.827.773 1.44 1.573 1.84 2.4.427.8.653 1.507.68 2.12.027.267-.067.507-.28.72-.213.187-.453.28-.72.28h-5.08c-.293 0-.52-.067-.68-.2-.16-.133-.307-.333-.44-.6-.32-.827-.733-1.413-1.24-1.76-.48-.347-1.107-.52-1.88-.52-1.067 0-1.893.347-2.48 1.04-.56.693-.867 1.76-.92 3.2a49.598 49.598 0 0 0 0 2.84c.053 1.467.36 2.533.92 3.2.587.667 1.413 1 2.48 1 .827 0 1.48-.173 1.96-.52.48-.347.867-.933 1.16-1.76.133-.267.28-.467.44-.6.16-.133.387-.2.68-.2h5.08c.267 0 .507.107.72.32a.761.761 0 0 1 .28.68c-.027.453-.16.987-.4 1.6-.24.587-.613 1.213-1.12 1.88-.507.667-1.173 1.293-2 1.88-.8.56-1.773 1.013-2.92 1.36-1.147.347-2.48.52-4 .52ZM324.555 30c-1.707 0-3.187-.267-4.44-.8a6.158 6.158 0 0 1-2.84-2.56c-.667-1.173-1-2.68-1-4.52v-7.68h-3.12c-.294 0-.547-.093-.76-.28a.973.973 0 0 1-.28-.72V10.2c0-.293.093-.533.28-.72.213-.187.466-.28.76-.28h3.12V2.6c0-.293.093-.533.28-.72.213-.187.453-.28.72-.28h4.64c.293 0 .533.093.72.28.186.187.28.427.28.72v6.6h5c.293 0 .533.093.72.28.186.187.28.427.28.72v3.24a.977.977 0 0 1-.28.72.976.976 0 0 1-.72.28h-5v7.12c0 .907.173 1.627.52 2.16.346.533.933.8 1.76.8h3.08c.293 0 .533.093.72.28.186.187.28.427.28.72V29a.977.977 0 0 1-.28.72.976.976 0 0 1-.72.28h-3.72ZM341.147 30.4c-1.734 0-3.214-.187-4.44-.56-1.2-.4-2.187-.88-2.96-1.44-.747-.56-1.307-1.133-1.68-1.72-.374-.613-.574-1.133-.6-1.56a.805.805 0 0 1 .28-.72c.213-.213.44-.32.68-.32h4.56c.08 0 .146.013.2.04.053.027.133.08.24.16.346.187.693.427 1.04.72.346.267.746.507 1.2.72.453.213 1 .32 1.64.32.746 0 1.373-.147 1.88-.44.506-.293.76-.733.76-1.32 0-.427-.12-.773-.36-1.04-.24-.293-.734-.573-1.48-.84-.72-.267-1.814-.533-3.28-.8-1.387-.32-2.6-.733-3.64-1.24-1.04-.533-1.84-1.213-2.4-2.04-.56-.853-.84-1.88-.84-3.08 0-1.067.346-2.093 1.04-3.08.693-.987 1.706-1.787 3.04-2.4 1.333-.64 2.973-.96 4.92-.96 1.546 0 2.88.187 4 .56 1.146.347 2.106.8 2.88 1.36.8.56 1.4 1.133 1.8 1.72.4.587.613 1.12.64 1.6a.921.921 0 0 1-.24.72.881.881 0 0 1-.64.28h-4.16c-.107 0-.214-.013-.32-.04a2.583 2.583 0 0 1-.28-.16c-.32-.16-.64-.373-.96-.64a5.792 5.792 0 0 0-1.12-.72c-.427-.213-.96-.32-1.6-.32-.72 0-1.28.16-1.68.48-.4.32-.6.733-.6 1.24 0 .347.106.667.32.96.24.293.706.56 1.4.8.72.24 1.826.507 3.32.8 1.84.293 3.306.773 4.4 1.44 1.093.64 1.866 1.4 2.32 2.28.453.853.68 1.76.68 2.72 0 1.28-.387 2.413-1.16 3.4-.747.987-1.867 1.76-3.36 2.32-1.494.533-3.307.8-5.44.8Z" fill="#000"/></svg>