<svg width="306" height="204" fill="none" xmlns="http://www.w3.org/2000/svg"><path fill-rule="evenodd" clip-rule="evenodd" d="M221.184 65.959 223 60.133l-6.011.19c-.507 0-4.198-.107-7.78-2.706.268.022.533.062.808.062 3.686 0 7.256-2.223 8.684-5.406l2.585-5.746c-3.244.043-6.208-.368-6.208-.368-.025-.001-2.362-.305-5.063-3.071-1.937-1.98-4.335-3.03-6.932-3.03a9.983 9.983 0 0 0-3.029.484c.138-.467.264-.939.342-1.426.824-5.378-2.628-9.478-2.629-9.475l-4.523-5.609-2.802 6.59c-.009.02-.719 1.565-1.983 2.318-.381-1.937-1.321-4.114-3.326-6.195-3.782-3.922-8.386-4.51-10.794-4.51-1.117 0-1.915.124-2.107.155l-5.457 1.075c.315-1.22.987-3.35 2.213-5.264l3.01-4.698-7.576.862-2.415-5.134-4.673 2.414-4.323-4.277-4.309 4.277-4.685-2.414-2.408 5.134-7.574-.866 3.016 4.704c1.227 1.911 1.895 4.036 2.207 5.253l-5.208-1.028-.178-.028a13.623 13.623 0 0 0-2.175-.165c-2.408 0-7.009.588-10.784 4.508-2.008 2.08-2.95 4.26-3.334 6.197-1.257-.746-1.96-2.267-1.96-2.267l-2.808-6.627-4.591 5.644c-.563.726-3.33 4.582-2.578 9.433.078.484.204.952.339 1.419a9.87 9.87 0 0 0-3.023-.484c-2.598 0-4.996 1.05-6.937 3.03-2.694 2.754-5.016 3.066-4.996 3.066 0 0-2.459.444-6.26.373l2.57 5.746c1.432 3.183 5.004 5.406 8.683 5.406.276 0 .541-.04.813-.062-3.573 2.6-7.264 2.707-7.71 2.709L83 60.133l1.854 5.824c.935 3.002 4.051 7.975 10.02 8.51-.648 2.727-2.087 5.785-5.248 7.1l-4.562 1.881 2.488 4.34c1.402 2.34 4.698 5.076 9.388 5.076a14.323 14.323 0 0 0 2.94-.307c.241 1.069.542 2.14.899 3.204 1.395 4.166.192 7.069.18 7.102l-2.253 4.724 5.026 1.327c.062.019 1.581.439 3.482.439.86 0 1.688-.09 2.458-.276a11.195 11.195 0 0 0 1.686-.538 15.355 15.355 0 0 0 2.362 3.192c3.22 3.311 7.785 4.988 13.564 4.988h.019l4.128-.054-8.527 3.552 6.474 3.134c2.352 1.148 5.14 2.506 7.981 3.545l-.809 2.215 2.23 1.02c.199.09 4.491 2.011 11.622 2.421 0 0 1.721.08 2.67.08.947 0 2.649-.085 2.649-.085 7.084-.42 11.341-2.326 11.54-2.416l2.237-1.022-.815-2.218c2.919-1.07 5.812-2.482 8.066-3.585l6.354-3.093-8.499-3.548 4.144.054c5.788 0 10.354-1.679 13.569-4.994a15.16 15.16 0 0 0 2.359-3.186c.542.221 1.108.401 1.693.542.769.182 1.595.272 2.455.272 1.868 0 3.404-.415 3.444-.429l5.048-1.337-2.198-4.637c-.052-.12-1.256-3.023.14-7.193.355-1.063.654-2.133.898-3.2.947.201 1.936.304 2.959.307 5.977 0 8.842-4.21 9.396-5.125l2.462-4.294-4.559-1.875c-3.17-1.318-4.607-4.374-5.249-7.099 5.892-.513 9.051-5.49 10.019-8.512Z" fill="#FFFFFE"/><path fill-rule="evenodd" clip-rule="evenodd" d="M153.012 25.21c-4.828.005-8.45 1.589-9.236 3.455l9.236 3.653 9.24-3.653c-.782-1.866-4.404-3.45-9.24-3.455ZM153.111 121.88h-.186c-2.925.019-6.958-.581-8.895-1.15l-2.337 6.331c1.539.549 6.757 1.602 11.329 1.602 4.564 0 9.784-1.053 11.321-1.602l-2.332-6.331c-1.948.569-5.974 1.169-8.9 1.15ZM170.784 115.581c-1.738.986-5.62 2.467-7.876 3.153l1.894 5.23c3.492-.956 6.377-2.071 8.756-3.268l-3.934-1.309 1.16-3.806ZM135.25 115.581l1.163 3.806-3.937 1.309c2.375 1.197 5.272 2.312 8.752 3.268l1.897-5.23c-2.252-.686-6.139-2.167-7.875-3.153ZM153.013 19.157c3.641 0 7.209.872 9.955 2.404.251-.841.602-1.865 1.078-2.938l-1.04.125-1.087.114-.461-.994-1.39-2.938-2.53 1.322-.986.501-.788-.777-2.751-2.726-2.746 2.726-.784.777-.985-.501-2.545-1.322-1.37 2.938-.471.994-1.087-.114-1.035-.125a25.338 25.338 0 0 1 1.078 2.938c2.757-1.532 6.321-2.404 9.945-2.404ZM208.589 53.114c.472.163.952.236 1.428.236 2.06 0 4.05-1.335 4.733-2.86 0 0-3.774-.229-7.834-4.358-1.293-1.338-2.661-1.738-3.834-1.738-1.823 0-3.191.962-3.191.962 4.905 2.617 5.905 6.813 8.698 7.758ZM96.016 53.35c.476 0 .957-.073 1.42-.238 2.799-.943 3.808-5.139 8.706-7.754 0 0-1.371-.964-3.184-.964-1.181 0-2.547.4-3.845 1.74-4.055 4.127-7.827 4.358-7.827 4.358.677 1.523 2.671 2.858 4.73 2.858Z" fill="#FFFFFE"/><path fill-rule="evenodd" clip-rule="evenodd" d="M207.108 83.244c-3.793-1.875-6.191-6.85-6.769-8.64-.63 9.864-5.436 16.708-11.054 23.299-2.916 3.416-3.934 6.738-3.934 6.738s.563-3.764 3.084-6.827c5.242-6.308 10.225-14.164 10.595-23.246.255-6.34-1.371-11.48-3.911-15.716 1.421 4.412 1.219 9.814-3.603 14.858 0 0 9.602-11.525-3.822-23.341-5.371-4.498-11.252-7.274-14.277-9.241 10.933 3.573 16.273-.36 16.273-.36-3.49 3.031-8.011 2.979-10.816 2.542.762.371 1.553.76 2.403 1.217 9.22 5.016 17.504 13.27 18.916 24.7v-.087c2.144 11.223 6.915 14.104 6.915 14.104Zm2.808-13.077c.085.005.158.005.244.005 5.139 0 6.881-5.514 6.881-5.514h-.101c-.943 0-8.584-.222-13.985-7.099-3.553-4.521-6.468-8.496-12.221-10.06l-.566-.101-.123-.578c-.16-.88.445-1.706 1.811-2.596 7.941-5.208 2.546-11.853 2.546-11.853s-2.266 5.313-7.339 5.313c-.123 0-.251-.007-.377-.007-.575-.03-1.132-.05-1.691-.17l-.935-.182s1.447-3.943-2.045-7.56c-2.63-2.732-5.829-3.197-7.677-3.197-.931 0-1.521.12-1.521.12 1.753 2.296 3.021 6.108.997 8.46-1.75 2.02-6.025 2.118-6.025 5.13 0 1.277 1.189 2.765 3.326 4.102 6.425 4.053 12.803 9.433 15.457 16.641 3.313 8.99-.421 14.96-5.75 18.381 0 0 1.673 1.542 4.095 1.74.495.047.976.07 1.424.07 5.118 0 7.765-2.405 7.765-2.405s-.438 3.322-3.099 6.405c-2.458 2.846-5.68 4.525-10.602 4.595 0 0-.154 2.285 2.024 4.266 1.395 1.249 4.612 1.655 4.612 1.655s-6.027 1.224-6.691 10.142c-.362 4.832-1.595 6.511-1.595 6.511h.107c13.987 0 13.629-12.017 13.629-12.017s.973 3.559 4.875 4.487a5.83 5.83 0 0 0 1.455.171c1.255 0 2.347-.296 2.347-.296s-2.044-4.317-.017-10.356c1.681-5.013 1.411-8.726 1.411-8.726s1.882 2.855 6.556 2.88h.047c3.89 0 5.585-2.953 5.585-2.953-9.325-3.88-8.404-16.395-8.404-16.395s1.211.906 3.57.99ZM116.745 97.903c-5.618-6.591-10.422-13.435-11.057-23.3-.58 1.792-2.969 6.766-6.76 8.64 0 0 4.765-2.88 6.907-14.103v.087c1.418-11.428 9.7-19.684 18.921-24.698.845-.461 1.643-.848 2.4-1.217-2.803.435-7.324.487-10.812-2.545 0 0 5.339 3.934 16.269.361-3.025 1.968-8.901 4.743-14.271 9.24-13.428 11.817-3.825 23.344-3.825 23.344-4.828-5.046-5.022-10.447-3.603-14.86-2.543 4.237-4.168 9.376-3.907 15.716.367 9.082 5.348 16.937 10.58 23.248 2.533 3.061 3.102 6.823 3.102 6.823s-1.03-3.32-3.944-6.736Zm2.248-2.175s3.218-.404 4.615-1.657c2.176-1.978 2.021-4.264 2.021-4.264-4.922-.07-8.143-1.749-10.615-4.593-2.645-3.085-3.085-6.407-3.085-6.407s2.645 2.404 7.756 2.404c.459 0 .937-.022 1.43-.07 2.426-.197 4.103-1.737 4.103-1.737-5.334-3.424-9.07-9.392-5.76-18.383 2.654-7.206 9.031-12.588 15.459-16.643 2.133-1.335 3.322-2.823 3.322-4.1 0-3.012-4.269-3.11-6.018-5.13-2.024-2.352-.756-6.164.994-8.46 0 0-.583-.12-1.52-.12-1.846 0-5.043.465-7.673 3.196-3.499 3.618-2.048 7.56-2.048 7.56l-.935.183c-.557.118-1.12.14-1.693.171-.132 0-.248.006-.371.006-5.086 0-7.34-5.311-7.34-5.311s-5.392 6.643 2.546 11.85c1.366.89 1.967 1.718 1.808 2.597l-.123.576-.577.102c-5.744 1.565-8.661 5.54-12.219 10.062-5.398 6.874-13.028 7.098-13.978 7.098h-.104s1.742 5.514 6.883 5.514c.082 0 .158 0 .245-.005 2.363-.085 3.575-.99 3.575-.99s.914 12.514-8.407 16.392c0 0 1.698 2.958 5.586 2.958h.047c4.676-.028 6.556-2.883 6.556-2.883s-.271 3.715 1.404 8.726c2.028 6.041-.006 10.357-.006 10.357s1.087.295 2.342.295c.486 0 .985-.048 1.453-.171 3.897-.928 4.873-4.487 4.873-4.487s-.357 12.017 13.632 12.017h.101s-1.224-1.679-1.585-6.512c-.663-8.917-6.694-10.141-6.694-10.141ZM149.856 51.444h6.595v2.266c-.776-.952-2.286-.758-2.286-.758v3.268s.056 1.608.62 2.303h-3.263c.571-.695.621-2.303.621-2.303v-3.268s-1.504-.194-2.287.758v-2.267Zm-7.185.34c.231.246.456.513.674.783.052.063.099.118.15.191.201.267.404.552.6.841.043.058.084.127.131.193.234.355.455.721.675 1.1 2.019 3.489 5.246 5.574 8.111 5.579 2.869-.005 6.093-2.09 8.117-5.58.223-.388.45-.763.683-1.115.035-.05.073-.102.104-.154a16.106 16.106 0 0 1 .759-1.044c.225-.281.457-.552.694-.803.04-.04.074-.078.112-.111 1.029-1.055 2.253-1.858 3.858-2.302l-.715-.418h-.04l-2.839-1.65-2.918-1.674-7.794 4.25-.021-.017-.014.017-7.795-4.25-2.916 1.673-2.844 1.651h-.033l-.721.418c1.605.444 2.826 1.239 3.858 2.295.045.04.076.087.124.127Z" fill="#FFFFFE"/><path fill-rule="evenodd" clip-rule="evenodd" d="M150.53 37.038v2.133l-.408-.187c-.019-.016-.62-.15-1.666-.982-1.726-1.34-1.76-2.579-1.76-2.579l3.834 1.615Zm1.81 10.01v-13.27l-8.432-2.866 2.223 12.859 6.209 3.276ZM155.504 37.038l3.835-1.614s-.033 1.238-1.766 2.578c-1.042.831-1.643.966-1.664.982l-.405.187v-2.133Zm4.396 6.733 2.216-12.859-8.426 2.866v13.27l6.21-3.277ZM140.416 77.808c.819.299 1.816.361 2.327.361.019-.062.047-.14.071-.236.045-.15.088-.302.12-.466.143-.736.193-1.566.206-2.104-.345-.217-.835-.598-1.108-1.17-.312-.66-.76-.968-1.411-.968-.849 0-1.758.511-2.151.75-.31 1.835 1.041 3.499 1.946 3.833ZM159.066 70.77c-1.566 1.707-4.633 4.676-4.781 4.824l-.185.187-9.685-.153a9.971 9.971 0 0 1-.313 2.378c-.024.099-.052.203-.078.307l11.52 2.076c1.198-.84 4.496-3.254 5.779-4.199-.931-1.363-1.02-2.98-.81-4.117a5.758 5.758 0 0 1-1.447-1.303Z" fill="#FFFFFE"/><path fill-rule="evenodd" clip-rule="evenodd" d="M160.377 59.1c-2.231 2.216-4.371 3.04-6.282 3.228-.35.037-.7.06-1.055.06h-.048c-.357 0-.71-.023-1.055-.06a7.813 7.813 0 0 1-1.037-.163c-.124.5-.284 1.54.17 2.53.405.896 1.227 1.562 2.427 2.008l.404.157.007.436c0 .128.095 2.952 3.164 3.736.502-.517.958-.986 1.295-1.377-.626-1.48-.297-2.99.613-3.73-.04.157-.44 3.861 2.524 5.238l.489.233-.146.52c-.048.156-1.037 3.743 2.554 5.077l.635.24-.282.618c-.062.137-1.47 3.39 1.846 5.238h7.188V77.37c-2.557-.313-3.638-2.371-3.918-3.828-1.189-.205-2.107-.718-2.739-1.556-1.508-1.99-.211-3.812-.194-3.91-.003.015 0 1.954 1.195 3.152.594.576 1.293 1.025 2.354 1.126l.523.047.045.536c.009.112.296 2.74 2.734 3.151l-.005-11.681c0-1.809.526-3.628 1.16-5.309h-14.566ZM141.029 64.451l-.195 7.438.845.13 2.063-7.137-1.047-2.196-1.666 1.765ZM145.499 91.986a.416.416 0 0 1-.401-.452.42.42 0 0 1 .452-.392.43.43 0 0 1 .405.449.43.43 0 0 1-.456.395Zm18.281 6.584c.064 0 .135.009.204.026 1.285.368 1.609 5.004 3.861 5.417.222.046.424.06.602.06.653 0 1.041-.277 1.46-.773 0 0-1.134-1.783-1.981-2.989-1.127-1.574-1.999-3.477-4.096-3.477-.05 0-.111 0-.163.007-.689.035-1.115.373-1.115.373-.85-.536-1.641-.716-2.354-.716-1.312 0-2.334.603-2.846.603h-.019l-4.682-.463c-.73-.071-1.31-.81-1.518-1.098l-.081-.125c0-.128 0-.258-.007-.374-.158-3.835-3.122-5.476-4.178-5.502 0 0 .125-.73-.159-1.007l-1.036 1.255-3.384-1.703 2.417 2.829-2.047 2.301c-.258.262-.225.616-.117.767l.883.782 1.121-.681c.056-.042.16-.056.283-.056.309 0 .775.082 1.192.082.459 0 .852-.098.901-.528-.141 1.422-1.458 3.892-.594 5.835l.642 1.465-4.139-.596-1.938 3.276c-.597 1.091-.69 2.27-.116 2.914l.724.907s1.018-1.079 1.245-1.79l-.329-.363c-.277-.305-.263-.577-.094-.905l1.216-2.019 4.884 1.154.258-.441c.332-.553.81-.716 1.333-.716.216 0 .436.026.666.062.907.179 2.4.42 3.892.42 1.636 0 3.262-.293 4.129-1.266 1.77 2.627 5.355 3.045 5.073 4.381l-.945 4.502a19.296 19.296 0 0 0 1.798-.147l.899-4.683c.099-.512.192-1.197.192-1.197-.344-.352-1.182-1.094-1.655-1.998-.632-1.217-.289-1.854-.878-3.437 0 0 .182-.368.596-.368Z" fill="#FFFFFE"/><path fill-rule="evenodd" clip-rule="evenodd" d="M138.828 102.83s1.621-.668 1.764-1.143l-.216-.542c-.154-.353-.133-.735.164-.941l1.747-1.213 2.919.564s-.528-.664-.476-1.549l-2.787-.591-2.628 1.604c-1.127.843-1.209 2.224-.837 3.042l.35.769Z" fill="#FFFFFE"/><path fill-rule="evenodd" clip-rule="evenodd" d="M145.499 91.986a.416.416 0 0 1-.401-.452.42.42 0 0 1 .452-.392.43.43 0 0 1 .405.449.43.43 0 0 1-.456.395Zm18.281 6.584c.064 0 .135.009.204.026 1.285.368 1.609 5.004 3.861 5.416.222.047.424.061.602.061.653 0 1.041-.277 1.46-.773 0 0-1.134-1.783-1.981-2.989-1.127-1.575-1.999-3.477-4.096-3.477-.05 0-.111 0-.163.007-.689.035-1.115.373-1.115.373-.85-.536-1.641-.717-2.354-.717-1.312 0-2.334.604-2.846.604h-.019l-4.682-.463c-.73-.071-1.31-.81-1.518-1.098l-.081-.125c0-.128 0-.258-.007-.375-.158-3.834-3.122-5.475-4.178-5.5 0 0 .125-.731-.159-1.009l-1.036 1.256-3.384-1.703 2.417 2.829-2.047 2.301c-.258.262-.225.616-.117.767l.883.782 1.121-.682c.056-.041.16-.055.283-.055.309 0 .775.082 1.192.082.459 0 .852-.098.901-.528-.141 1.422-1.458 3.892-.594 5.835l.642 1.465-4.139-.596-1.938 3.276c-.597 1.091-.69 2.27-.116 2.914l.724.907s1.018-1.079 1.245-1.79l-.329-.363c-.277-.305-.263-.577-.094-.905l1.216-2.019 4.884 1.153.258-.44c.332-.553.81-.716 1.333-.716.216 0 .436.026.666.062.907.179 2.4.42 3.892.42 1.636 0 3.262-.293 4.129-1.266 1.77 2.627 5.355 3.045 5.073 4.381l-.945 4.502a19.643 19.643 0 0 0 1.798-.147l.899-4.683c.099-.512.192-1.197.192-1.197-.344-.352-1.182-1.094-1.655-1.998-.632-1.217-.289-1.854-.878-3.437 0 0 .182-.368.596-.368Z" fill="#FFFFFE"/><path fill-rule="evenodd" clip-rule="evenodd" d="M138.828 102.83s1.621-.668 1.764-1.143l-.216-.542c-.154-.353-.133-.735.164-.941l1.747-1.213 2.919.564s-.528-.664-.476-1.549l-2.787-.591-2.628 1.604c-1.127.843-1.209 2.224-.837 3.042l.35.769ZM159.484 110.46c.521-.021 1.101-.03 1.733-.03 0 0 1.503-4.403 1.588-4.542-.842-.373-2.592-1.303-3.267-1.727.448.669 1.53 1.43 1.316 2.02l-1.37 4.279Z" fill="#FFFFFE"/><path fill-rule="evenodd" clip-rule="evenodd" d="M173.788 84.35h-41.54v15.653c0 6.403 4.624 10.41 11.449 10.41 5.699 0 7.203.223 9.324 2.331 1.461-1.461 2.67-2.005 5.152-2.208l.059-.243 1.309-4.055c-.073-.092-2.214-2.527-2.214-2.527-.848.283-1.562.33-2.758.33-1.231 0-2.616-.144-4.124-.427a1.895 1.895 0 0 0-.433-.05c-.185 0-.197.015-.246.105l-.259.431-.476.789-.897-.208-3.987-.94-.547.903.081.097.485.536-.215.697c-.294.913-1.245 1.978-1.536 2.272l-.995 1.071-.909-1.15-.682-.857c-.717-.805-.883-2.033-.48-3.323a.067.067 0 0 1-.04.015l-1.123.467-.506-1.101-.355-.781a3.81 3.81 0 0 1 1.263-4.594l3.208-1.816 3.054.602c.072-.293.181-1.344.27-1.611-.061-.007-.115-.021-.175-.021l-1.759.659-1.699-1.174s-.663-.64-.06-1.28l1.641-2.494-4.164-5.236 6.399 2.632.428-.527.862-1.037.982.935c.277.267.436.597.514.926 1.762.689 4.924 2.718 5.202 6.018l-.988.396v.024c.227.269.413.38.472.39l4.567.45c.118-.02.26-.072.423-.118.569-.195 1.42-.476 2.431-.476.824 0 1.618.19 2.384.548a3.546 3.546 0 0 1 1.03-.211l.22-.005c2.444 0 3.661 1.83 4.636 3.291.163.254.325.491.495.727a81.797 81.797 0 0 1 2.014 3.049l.503.787-.616.72c-.474.55-1.189 1.197-2.413 1.197-.253 0-.53-.028-.828-.085a3.498 3.498 0 0 1-.727-.224 18.88 18.88 0 0 1-.13.779l-.8 4.187c4.791-1.18 7.833-4.803 7.833-9.992l-.009-15.653ZM132.248 83.089h32.309c-1.613-1.67-1.589-3.784-1.179-5.158a5.362 5.362 0 0 1-1.203-.794c-1.264.933-5.117 3.744-6.125 4.448l-.216.146-12.68-2.296h-.257c-.304 0-.749-.013-1.237-.072a1.233 1.233 0 0 1-1.195.966c-.066 0-.137-.005-.203-.018a1.221 1.221 0 0 1-.812-.504 1.235 1.235 0 0 1-.221-.933l.047-.274c-1.306-.922-2.514-2.984-1.979-5.158l.052-.229.185-.133c.026-.02.244-.17.573-.356l-.921-.142a.637.637 0 0 1-.523-.723c.059-.345.383-.591.722-.526l2.195.347.201-7.742 3.265-3.462 2.04 4.3-2.152 7.449 1.94.305a.633.633 0 0 1 .523.727.62.62 0 0 1-.621.522c-.033 0-.068 0-.101-.004l-1.577-.255c.021.049.052.077.071.125.168.349.54.595.758.704l9.666.155c.411-.4 1.423-1.395 2.469-2.447a5.222 5.222 0 0 1-3.388-4.323c-1.33-.567-2.247-1.416-2.756-2.521-.62-1.369-.4-2.74-.234-3.406-1.29-.47-2.644-1.33-4.029-2.708h-14.561c.624 1.68 1.154 3.5 1.154 5.309v18.68Z" fill="#FFE52B"/><path fill-rule="evenodd" clip-rule="evenodd" d="M145.549 91.142a.42.42 0 0 0-.452.395.416.416 0 0 0 .402.452.43.43 0 0 0 .455-.397.43.43 0 0 0-.405-.45ZM164.805 123.965l-1.898-5.229c2.258-.689 6.14-2.17 7.88-3.155l-1.16 3.805 3.93 1.31c-2.377 1.195-5.26 2.31-8.752 3.269Zm-11.781 4.7c-4.574 0-9.793-1.054-11.332-1.602l2.338-6.333c1.937.568 5.969 1.169 8.895 1.15h.185c2.926.019 6.953-.582 8.901-1.15l2.332 6.333c-1.538.548-6.758 1.602-11.319 1.602Zm-20.546-7.969 3.937-1.31-1.165-3.805c1.737.985 5.625 2.466 7.878 3.155l-1.9 5.229c-3.48-.959-6.374-2.074-8.75-3.269Zm41.255-1.162-2.392-.92.661-2.478.727-2.699s-4.24 2.305-10.216 4.035c-1.695.485-2.978.709-2.978.709v1.838s-3.196.555-6.425.555h-.185c-3.232 0-6.423-.555-6.423-.555v-1.838s-1.287-.224-2.98-.709c-5.974-1.73-10.211-4.035-10.211-4.035l.717 2.699.675 2.478-2.401.92-2.663.995c3.051 1.478 7.28 3.625 11.15 4.686l-.913 2.5s4.908 2.239 13.085 2.26v.005h.111v-.005c8.186-.021 13.09-2.26 13.09-2.26l-.917-2.5c3.871-1.061 8.107-3.208 11.144-4.686l-2.656-.995ZM143.025 18.747l1.087.115.471-.994 1.37-2.936 2.545 1.318.985.504 3.53-3.507 2.751 2.729.788.778.986-.504 2.53-1.319 1.39 2.937.461.994 1.087-.115 1.04-.125a24.587 24.587 0 0 0-1.078 2.94c-2.746-1.533-6.314-2.406-9.955-2.406-3.624 0-7.188.873-9.945 2.406a25.121 25.121 0 0 0-1.078-2.94l1.035.125Zm9.988 1.94c4.872 0 8.769 1.619 10.923 3.341 0 0 .638-3.857 2.821-7.26l-3.923.448-2.053-4.37-3.942 2.037-3.826-3.786-3.814 3.786-3.951-2.036-2.05 4.369-3.923-.448c2.185 3.403 2.822 7.26 2.822 7.26 2.168-1.722 6.053-3.34 10.916-3.34ZM214.753 85.57s-1.695 2.957-5.587 2.957h-.049c-4.671-.028-6.554-2.883-6.554-2.883s.27 3.714-1.411 8.726c-2.028 6.041.017 10.356.017 10.356s-1.092.296-2.348.296c-.479 0-.981-.048-1.454-.171-3.902-.928-4.875-4.487-4.875-4.487s.358 12.017-13.629 12.017h-.109s1.233-1.678 1.596-6.51c.665-8.918 6.692-10.143 6.692-10.143s-3.217-.404-4.611-1.655c-2.179-1.98-2.025-4.266-2.025-4.266 4.92-.07 8.145-1.748 10.602-4.594 2.661-3.084 3.099-6.405 3.099-6.405s-2.647 2.403-7.763 2.403c-.45 0-.931-.022-1.425-.07-2.422-.197-4.094-1.737-4.094-1.737 5.327-3.423 9.063-9.393 5.749-18.382-2.655-7.207-9.033-12.588-15.457-16.643-2.136-1.336-3.327-2.824-3.327-4.102 0-3.011 4.274-3.108 6.025-5.129 2.024-2.352.755-6.164-.997-8.46 0 0 .59-.12 1.521-.12 1.848 0 5.047.465 7.677 3.197 3.49 3.618 2.043 7.56 2.043 7.56l.935.182c.559.118 1.116.14 1.695.17.124 0 .252.007.375.007 5.073 0 7.341-5.313 7.341-5.313s5.391 6.645-2.549 11.853c-1.365.89-1.968 1.717-1.81 2.597l.124.577.565.1c5.754 1.563 8.666 5.542 12.222 10.062 5.402 6.876 13.04 7.099 13.982 7.099h.102s-1.741 5.513-6.88 5.513c-.086 0-.159 0-.244-.005-2.36-.085-3.571-.99-3.571-.99s-.92 12.515 8.407 16.393Zm-4.592-13.71c6.299 0 8.407-6.42 8.494-6.695l.705-2.263-2.362.074h-.009c-.832 0-7.783-.185-12.711-6.459l-.465-.582c-3.22-4.1-6.273-8.003-11.733-9.782a5.52 5.52 0 0 1 .694-.52c2.898-1.908 4.583-4.227 5.005-6.919.62-4.048-1.96-7.277-2.072-7.41l-1.754-2.172-1.096 2.577c-.074.161-1.915 4.287-5.793 4.287h-.289c-.265-.014-.519-.024-.767-.045.135-1.84-.199-4.688-2.778-7.362-3.101-3.216-6.903-3.698-8.891-3.698-1.063 0-1.769.132-1.847.139l-2.647.527 1.633 2.158c1.282 1.663 2.444 4.733 1.066 6.335-.441.512-1.347.925-2.214 1.341-1.783.82-4.221 1.97-4.221 4.886 0 1.887 1.463 3.862 4.113 5.541 7.843 4.941 12.682 10.098 14.772 15.79 3.234 8.755-.985 13.748-5.082 16.38l-1.838 1.184 1.61 1.48c.216.192 2.181 1.928 5.09 2.177.55.037 1.077.066 1.57.066 1.861 0 3.449-.293 4.739-.686-.354.62-.793 1.257-1.34 1.895-2.341 2.718-5.222 3.955-9.365 4.022l-1.539.024-.118 1.548c-.015.312-.13 3.18 2.578 5.619.416.378.916.689 1.442.942-1.838 1.658-3.705 4.546-4.066 9.49-.307 4.128-1.289 5.656-1.301 5.672l-1.7 2.601 3.075.042c5.08 0 8.97-1.403 11.665-4.187 1.593-1.646 2.505-3.505 3.042-5.151a8.266 8.266 0 0 0 3.515 1.769 8.1 8.1 0 0 0 1.85.205c1.436 0 2.637-.306 2.77-.339l1.964-.522-.868-1.835c-.064-.147-1.701-3.833.061-9.086a29.998 29.998 0 0 0 1.335-5.893c1.236.645 2.893 1.177 5.033 1.184 4.859 0 7.003-3.637 7.098-3.79l.957-1.67-1.774-.731c-5.791-2.41-7.074-8.879-7.331-12.38.523.102 1.122.194 1.798.213l.297.009Z" fill="#1A1919"/><path fill-rule="evenodd" clip-rule="evenodd" d="M203.082 44.394c1.174 0 2.542.4 3.835 1.74 4.06 4.127 7.836 4.358 7.836 4.358-.686 1.523-2.675 2.858-4.735 2.858a4.32 4.32 0 0 1-1.429-.237c-2.794-.944-3.793-5.14-8.698-7.755 0 0 1.368-.964 3.191-.964Zm-3.99 2.456c2.349 1.254 3.718 2.934 4.918 4.424 1.181 1.455 2.298 2.853 4.051 3.436a6.023 6.023 0 0 0 1.957.316c2.626 0 5.268-1.612 6.269-3.844l1.007-2.235-2.437-.146c-.115-.002-3.25-.29-6.735-3.857-1.435-1.466-3.172-2.234-5.04-2.234-2.283 0-3.977 1.143-4.164 1.26l-2.238 1.58 2.412 1.3ZM200.194 69.14v.087c-1.413-11.43-9.697-19.684-18.916-24.7a65.75 65.75 0 0 0-2.403-1.217c2.805.437 7.325.49 10.815-2.542 0 0-5.339 3.933-16.272.36 3.025 1.967 8.906 4.744 14.278 9.241 13.421 11.816 3.819 23.341 3.819 23.341 4.823-5.043 5.024-10.446 3.605-14.858 2.539 4.237 4.163 9.376 3.911 15.717-.369 9.08-5.354 16.936-10.596 23.245-2.519 3.063-3.082 6.827-3.082 6.827s1.017-3.321 3.932-6.738c5.62-6.59 10.424-13.434 11.054-23.3.58 1.792 2.975 6.766 6.771 8.641 0 0-4.771-2.88-6.916-14.104ZM127.172 112.381c-13.989 0-13.632-12.017-13.632-12.017s-.977 3.559-4.874 4.487a5.752 5.752 0 0 1-1.452.171c-1.256 0-2.343-.296-2.343-.296s2.034-4.315.007-10.356c-1.676-5.01-1.404-8.726-1.404-8.726s-1.88 2.855-6.556 2.883h-.047c-3.888 0-5.587-2.957-5.587-2.957 9.32-3.878 8.407-16.393 8.407-16.393s-1.212.905-3.575.99c-.086.005-.163.005-.244.005-5.142 0-6.883-5.513-6.883-5.513h.103c.95 0 8.58-.224 13.979-7.1 3.557-4.52 6.473-8.496 12.219-10.06l.577-.103.123-.575c.159-.88-.442-1.707-1.808-2.597-7.938-5.208-2.547-11.85-2.547-11.85s2.254 5.31 7.341 5.31c.123 0 .239-.005.37-.005.572-.032 1.136-.054 1.694-.172l.935-.182s-1.453-3.942 2.048-7.56c2.629-2.732 5.825-3.197 7.673-3.197.936 0 1.518.12 1.518.12-1.749 2.296-3.016 6.108-.994 8.46 1.751 2.02 6.02 2.118 6.02 5.129 0 1.278-1.189 2.766-3.322 4.102-6.429 4.055-12.805 9.436-15.459 16.643-3.31 8.99.426 14.959 5.76 18.382 0 0-1.678 1.54-4.103 1.738-.494.047-.971.07-1.43.07-5.111 0-7.756-2.404-7.756-2.404s.439 3.32 3.085 6.406c2.472 2.845 5.692 4.523 10.614 4.593 0 0 .156 2.286-2.02 4.265-1.397 1.252-4.616 1.656-4.616 1.656s6.032 1.225 6.695 10.141c.36 4.834 1.584 6.512 1.584 6.512h-.1Zm1.487-.96c-.005-.016-.982-1.544-1.295-5.672-.365-4.946-2.232-7.832-4.075-9.49a5.897 5.897 0 0 0 1.442-.942c2.707-2.439 2.593-5.307 2.574-5.62l-.104-1.547-1.551-.024c-4.131-.067-7.017-1.304-9.358-4.022a12.672 12.672 0 0 1-1.34-1.895c1.289.393 2.866.686 4.734.686.5 0 1.021-.03 1.572-.066 2.908-.25 4.877-1.984 5.095-2.176l1.61-1.481-1.837-1.183c-4.112-2.633-8.313-7.626-5.086-16.381 2.091-5.692 6.923-10.849 14.778-15.79 2.65-1.679 4.101-3.654 4.101-5.541 0-2.916-2.43-4.066-4.214-4.886-.869-.416-1.774-.829-2.214-1.34-1.382-1.603-.218-4.673 1.065-6.336l1.644-2.158-2.662-.527c-.078-.009-.776-.139-1.842-.139-1.988 0-5.783.482-8.882 3.698-2.583 2.676-2.922 5.522-2.789 7.362-.249.021-.5.031-.765.045h-.284c-3.888 0-5.725-4.126-5.796-4.287l-1.093-2.577-1.771 2.173c-.099.132-2.685 3.361-2.055 7.409.417 2.692 2.105 5.01 5.002 6.919.315.202.535.376.692.52-5.467 1.78-8.516 5.682-11.736 9.782l-.464.582c-4.92 6.274-11.887 6.46-12.72 6.46l-2.373-.075.722 2.263c.084.276 2.184 6.695 8.488 6.695l.303-.01a11.033 11.033 0 0 0 1.797-.212c-.26 3.5-1.546 9.97-7.339 12.38l-1.77.731.958 1.67c.092.153 2.242 3.79 7.11 3.79 2.128-.007 3.783-.54 5.021-1.183a29.747 29.747 0 0 0 1.337 5.892c1.762 5.253.121 8.939.059 9.086l-.871 1.835 1.967.522c.129.033 1.34.339 2.77.339.668 0 1.286-.073 1.845-.205 1.491-.352 2.644-1.015 3.52-1.769.533 1.646 1.449 3.505 3.038 5.151 2.703 2.784 6.59 4.187 11.667 4.187l3.077-.042-1.702-2.601Z" fill="#1A1919"/><path fill-rule="evenodd" clip-rule="evenodd" d="M99.114 46.132c1.298-1.337 2.664-1.74 3.845-1.74 1.813 0 3.185.966 3.185.966-4.899 2.616-5.91 6.811-8.708 7.756a4.21 4.21 0 0 1-1.42.235c-2.058 0-4.05-1.334-4.731-2.857 0 0 3.774-.23 7.829-4.36Zm-3.098 8.894c.676 0 1.335-.1 1.959-.314 1.757-.585 2.873-1.98 4.052-3.438 1.207-1.488 2.561-3.17 4.912-4.424l2.419-1.3-2.246-1.58c-.187-.119-1.871-1.258-4.153-1.258-1.873 0-3.612.766-5.045 2.232-3.49 3.57-6.617 3.855-6.73 3.859l-2.434.144 1 2.237c1.005 2.23 3.642 3.842 6.266 3.842ZM107.008 74.569c-.262-6.341 1.364-11.48 3.907-15.717-1.418 4.412-1.226 9.815 3.605 14.86 0 0-9.605-11.527 3.824-23.343 5.369-4.497 11.245-7.274 14.269-9.24-10.929 3.572-16.267-.361-16.267-.361 3.487 3.031 8.009 2.98 10.812 2.542-.758.371-1.555.758-2.401 1.218-9.223 5.016-17.502 13.27-18.921 24.699v-.087c-2.142 11.223-6.91 14.104-6.91 14.104 3.793-1.875 6.182-6.849 6.764-8.64.634 9.865 5.438 16.708 11.056 23.299 2.916 3.417 3.942 6.738 3.942 6.738s-.569-3.764-3.101-6.827c-5.233-6.307-10.212-14.164-10.579-23.245ZM149.856 51.444v2.267c.783-.952 2.287-.758 2.287-.758v3.268s-.05 1.608-.621 2.303h3.263c-.564-.695-.619-2.303-.619-2.303v-3.268s1.509-.194 2.285.758v-2.267h-6.595ZM148.456 38.002c1.044.83 1.647.968 1.666.98l.408.19v-2.134l-3.834-1.614s.032 1.236 1.76 2.578ZM157.573 38.002c1.733-1.342 1.766-2.579 1.766-2.579l-3.835 1.615v2.133l.405-.189c.021-.012.622-.15 1.664-.98Z" fill="#1A1919"/><path fill-rule="evenodd" clip-rule="evenodd" d="m153.014 32.319-9.237-3.656c.786-1.863 4.408-3.448 9.237-3.453 4.835.005 8.457 1.59 9.24 3.453l-9.24 3.656Zm6.887 11.452-6.209 3.278V33.778l8.425-2.866-2.216 12.859Zm3.845 3.522 2.839 1.651h.04l.713.418c-1.603.444-2.827 1.247-3.855 2.302-.038.033-.071.071-.113.111-.235.252-.469.522-.694.803l-.132.17c-.218.283-.427.574-.625.874-.032.052-.071.104-.105.154-.234.353-.461.727-.684 1.116-2.022 3.49-5.248 5.574-8.116 5.58-2.866-.006-6.093-2.09-8.111-5.58-.22-.378-.442-.744-.676-1.1-.046-.066-.088-.135-.131-.192-.197-.29-.398-.575-.599-.842-.052-.072-.099-.128-.151-.19-.22-.27-.445-.538-.673-.784-.049-.04-.082-.087-.123-.127-1.034-1.056-2.254-1.85-3.859-2.294l.72-.419h.033l2.844-1.65 2.918-1.674L153 49.87l.014-.017.022.018 7.793-4.251 2.917 1.673Zm11.2 11.806c-.636 1.68-1.162 3.5-1.162 5.31l.005 11.678c-2.436-.409-2.723-3.036-2.734-3.15l-.045-.535-.524-.047c-1.058-.102-1.761-.55-2.353-1.126-1.195-1.196-1.196-3.135-1.195-3.153-.017.1-1.314 1.92.193 3.91.633.837 1.553 1.354 2.74 1.557.279 1.457 1.363 3.516 3.918 3.83v5.716h-7.188c-3.314-1.849-1.91-5.099-1.846-5.24l.281-.615-.634-.241c-3.591-1.334-2.6-4.92-2.554-5.075l.146-.524-.49-.23c-2.962-1.377-2.562-5.084-2.523-5.24-.912.742-1.239 2.251-.612 3.732-.34.39-.795.859-1.295 1.377-3.07-.783-3.165-3.609-3.165-3.739l-.007-.435-.404-.156c-1.198-.444-2.02-1.112-2.427-2.007-.453-.992-.294-2.03-.169-2.532.351.081.701.135 1.035.165.346.034.699.057 1.056.057h.048c.355 0 .707-.023 1.053-.057 1.913-.191 4.053-1.013 6.285-3.23h14.567Zm-8.982 50.897.803-4.19c.042-.246.093-.534.128-.775.229.095.466.171.726.22.301.057.576.087.827.087 1.226 0 1.941-.646 2.415-1.197l.615-.718-.502-.789a76.933 76.933 0 0 0-2.015-3.05c-.17-.237-.329-.473-.492-.728-.975-1.46-2.194-3.29-4.64-3.29l-.218.005a3.592 3.592 0 0 0-1.029.212 5.574 5.574 0 0 0-2.385-.546c-1.013 0-1.861.279-2.429.471-.163.047-.308.1-.423.122l-4.57-.451c-.057-.012-.243-.122-.471-.39v-.023l.988-.397c-.278-3.3-3.441-5.33-5.204-6.018a1.86 1.86 0 0 0-.512-.928l-.982-.933-.864 1.037-.424.527-6.401-2.633 4.164 5.236-1.643 2.494c-.601.639.063 1.282.063 1.282l1.698 1.17 1.759-.657c.061 0 .114.014.175.021-.087.267-.198 1.318-.27 1.611l-3.054-.6-3.208 1.815a3.808 3.808 0 0 0-1.262 4.596l.354.778.506 1.102 1.124-.465a.142.142 0 0 0 .041-.019c-.403 1.292-.239 2.52.48 3.325l.682.858.907 1.148.996-1.072c.29-.291 1.243-1.358 1.533-2.27l.217-.697-.485-.536-.081-.097.547-.904 3.985.942.899.206.476-.789.26-.428c.05-.092.06-.106.245-.106.142 0 .283.014.435.049 1.504.284 2.891.425 4.122.425 1.195 0 1.91-.046 2.76-.328 0 0 2.14 2.435 2.214 2.528l-1.312 4.052-.057.245c-2.483.201-3.691.747-5.153 2.207-2.12-2.107-3.623-2.329-9.324-2.329-6.825 0-11.451-4.008-11.451-10.411V84.35h41.542l.009 15.653c0 5.189-3.042 8.812-7.834 9.993Zm-25.587-8.85.216.541c-.143.473-1.764 1.143-1.764 1.143l-.349-.769a2.556 2.556 0 0 1 .836-3.044l2.628-1.602 2.787.591c-.052.887.476 1.55.476 1.55l-2.919-.563-1.746 1.209c-.298.208-.319.59-.165.944Zm25.147 4.424-.895 4.681a17.62 17.62 0 0 1-1.801.147l.946-4.498c.28-1.338-3.304-1.754-5.075-4.383-.864.973-2.491 1.264-4.129 1.264-1.492 0-2.983-.237-3.89-.418a4.323 4.323 0 0 0-.667-.062c-.522 0-1 .163-1.331.716l-.26.441-4.884-1.152-1.215 2.015c-.17.328-.183.602.094.907l.328.361c-.226.713-1.243 1.792-1.243 1.792l-.725-.909c-.575-.644-.481-1.823.118-2.914l1.937-3.276 4.138.598-.643-1.467c-.863-1.942.454-4.41.594-5.833-.048.43-.443.528-.9.528-.417 0-.883-.08-1.193-.08-.123 0-.227.012-.282.053l-1.122.682-.883-.784c-.107-.149-.14-.503.118-.766l2.046-2.3-2.417-2.83 3.385 1.704 1.035-1.256c.284.28.16 1.008.16 1.008 1.056.026 4.02 1.667 4.177 5.5.009.118.009.248.009.374 0 0 .028.05.08.127.207.29.787 1.029 1.52 1.096l4.679.465h.019c.513 0 1.534-.603 2.845-.603.715 0 1.508.182 2.354.716 0 0 .428-.338 1.117-.373.052-.007.113-.007.161-.007 2.098 0 2.971 1.9 4.098 3.479a94.251 94.251 0 0 1 1.979 2.987c-.417.496-.805.773-1.458.773-.178 0-.381-.014-.602-.059-2.253-.416-2.577-5.052-3.861-5.418a.768.768 0 0 0-.204-.026c-.414 0-.594.368-.594.368.587 1.582.242 2.22.876 3.437.471.904 1.31 1.646 1.655 1.998 0 0-.094.685-.194 1.197Zm-4.307 4.86a43.7 43.7 0 0 0-1.732.029l1.371-4.277c.213-.593-.869-1.354-1.317-2.022.675.425 2.425 1.356 3.267 1.727-.085.139-1.589 4.543-1.589 4.543Zm-20.383-38.542.196-7.435 1.665-1.765 1.046 2.194-2.062 7.137-.845-.13Zm1.198 2.304c.272.572.762.954 1.106 1.17a13.667 13.667 0 0 1-.202 2.104 5.89 5.89 0 0 1-.121.467c-.025.095-.052.173-.071.236-.511 0-1.508-.063-2.327-.361-.906-.335-2.256-1.998-1.944-3.833.391-.24 1.298-.751 2.148-.751.653 0 1.1.309 1.411.968Zm19.292 1.998c-1.281.945-4.581 3.36-5.779 4.197l-11.522-2.074c.028-.103.056-.207.08-.307.15-.6.306-1.417.313-2.38l9.685.156.185-.189c.147-.147 3.215-3.117 4.779-4.825.372.468.836.914 1.447 1.304-.208 1.138-.12 2.755.812 4.118ZM145.656 59.1c1.385 1.378 2.74 2.235 4.028 2.707-.166.666-.386 2.04.234 3.408.507 1.103 1.427 1.953 2.756 2.52a5.221 5.221 0 0 0 3.388 4.32 212.602 212.602 0 0 1-2.468 2.449l-9.664-.153c-.218-.109-.594-.357-.76-.706-.019-.05-.051-.076-.071-.124l1.577.254c.033.006.067.006.1.006a.62.62 0 0 0 .62-.526.633.633 0 0 0-.521-.725l-1.939-.307 2.15-7.447-2.038-4.298-3.266 3.46-.201 7.744-2.196-.35c-.339-.066-.663.182-.723.527-.052.34.18.664.524.725l.921.14a6.814 6.814 0 0 0-.573.358l-.185.13-.052.23c-.533 2.174.674 4.236 1.979 5.159l-.047.274c-.053.334.023.66.224.933.19.279.479.445.808.504.068.013.14.018.203.018.566 0 1.059-.392 1.198-.965.484.058.929.07 1.234.07h.26l12.678 2.296.216-.144c1.01-.708 4.862-3.519 6.124-4.45.348.3.736.57 1.205.796-.41 1.372-.435 3.486 1.181 5.156h-32.313V64.41c0-1.81-.528-3.63-1.153-5.31h14.562Zm-1.747-28.188 8.431 2.866v13.27l-6.208-3.277-2.223-12.859Zm20.571-1.6c0-3.239-5.441-6.152-11.447-6.152H153c-6.006 0-11.447 2.913-11.447 6.151l.119.797 2.398 13.79-2.408 1.4-6.233 3.646h.023s-1.403.722-2.052 1.166c-2.374 1.651-2.877 4.06-1.499 5.056.339-1.965 1.889-4.017 4.792-4.017 2.09 0 3.684 1.08 4.969 2.7.332.41.645.847.938 1.317a25.4 25.4 0 0 0 1.082 1.614h-16.054c1.181 2.377 2.303 4.893 2.303 7.628v35.595c0 8.616 6.613 12.728 13.767 12.728 5.529 0 6.274-.253 9.324 2.793 3.037-3.046 3.783-2.793 9.316-2.793 7.159 0 13.764-4.112 13.764-12.728V64.408c0-2.735 1.12-5.252 2.306-7.628h-16.059c.358-.5.72-1.021 1.08-1.614.298-.47.609-.907.935-1.317 1.297-1.627 2.886-2.7 4.977-2.7 2.9 0 4.448 2.052 4.793 4.017 1.378-.996.879-3.405-1.508-5.056-.639-.444-2.043-1.166-2.043-1.166h.022l-6.241-3.645-2.4-1.401 2.4-13.79.116-.797Z" fill="#1A1919"/><path d="M17.034 199.12h12.04V171.2h16.534v-10.16H.5v10.16h16.534v27.92ZM62.466 199.12v-38.08h-12.04v38.08h12.04ZM82.031 161.04H71.276v38.08h11.076v-21.04l20.628 21.04h10.273v-38.08h-11.076v20.88l-20.146-20.88ZM133.705 184.72h3.211l13.886 14.4h15.49l-19.343-19.84 18.621-18.24h-14.608l-14.046 14.32h-3.211v-14.32h-11.638v38.08h11.638v-14.4Z" fill="#333"/><path d="M190.24 160c-15.652 0-25.043 8.8-25.043 20.16s9.391 20.16 25.043 20.16c15.571 0 24.961-8.8 24.961-20.16S205.811 160 190.24 160Zm0 31.04c-7.786 0-12.762-4.64-12.762-10.88 0-6.24 4.976-10.8 12.762-10.8 7.705 0 12.761 4.56 12.761 10.8 0 6.24-5.056 10.88-12.761 10.88ZM259.017 170.72v-9.68h-38.286v38.08h11.639V185.6h25.684v-8H232.37v-6.88h26.647ZM302.049 170.72v-9.68h-38.286v38.08h11.638V185.6h25.685v-8h-25.685v-6.88h26.648Z" fill="#333"/></svg>