<svg width="254" height="39" fill="none" xmlns="http://www.w3.org/2000/svg"><path d="M35.385 0c-10.85 0-19.48 8.754-19.48 19.48 0 10.85 8.754 19.48 19.48 19.48s19.48-8.754 19.48-19.48S46.11 0 35.385 0Zm0 26.63c-3.945 0-7.274-3.328-7.274-7.274 0-3.945 3.329-7.274 7.274-7.274s7.274 3.33 7.274 7.274c-.123 4.069-3.329 7.274-7.274 7.274ZM15.781 5.548v28.357H8.877L0 5.548h15.781ZM84.157 10.716 79.833 21.43c-.077.153-.115.345-.192.498l-.076.306-.077-.306c-.038-.191-.115-.345-.191-.536L75.01 10.716h-5.588l7.386 18.293-3.061 6.965h5.549l10.41-25.258h-5.55ZM104.287 10.869c-2.449-.842-5.205-.727-7.73.42-1.646.728-3.062 1.99-4.019 3.598-.842 1.416-1.263 3.1-1.263 4.975 0 1.914.421 3.598 1.263 5.014a8.828 8.828 0 0 0 3.483 3.33c1.492.803 3.214 1.186 4.898 1.186.919 0 1.799-.115 2.679-.345.766-.191 1.493-.497 2.22-.88 1.492-.804 2.717-1.952 3.521-3.33.842-1.415 1.263-3.138 1.263-5.013 0-4.133-2.411-7.578-6.315-8.955Zm1.454 9.185c-.076 1.645-.612 2.947-1.607 3.827-.765.689-1.837 1.033-3.176 1.071-1.378-.038-2.412-.42-3.177-1.071-.995-.88-1.53-2.182-1.607-3.827-.077-1.799.65-3.406 1.99-4.363.765-.536 1.684-.842 2.794-.88 1.109.038 2.028.306 2.793.88 1.34.957 2.067 2.526 1.99 4.363ZM126.904 10.869c-2.449-.842-5.204-.727-7.73.42-1.646.728-3.062 1.99-4.019 3.598-.842 1.416-1.263 3.1-1.263 4.975 0 1.914.421 3.598 1.263 5.014a8.832 8.832 0 0 0 3.483 3.33c1.493.803 3.215 1.186 4.899 1.186.918 0 1.798-.115 2.679-.345.765-.191 1.492-.497 2.219-.88 1.493-.804 2.717-1.952 3.521-3.33.842-1.415 1.263-3.138 1.263-5.013 0-4.133-2.411-7.578-6.315-8.955Zm1.455 9.185c-.077 1.645-.613 2.947-1.608 3.827-.765.689-1.837 1.033-3.176 1.071-1.378-.038-2.411-.42-3.177-1.071-.995-.88-1.53-2.182-1.607-3.827-.076-1.799.651-3.406 1.99-4.363.766-.536 1.684-.842 2.794-.88 1.11.038 2.028.306 2.794.88 1.339.957 2.066 2.526 1.99 4.363ZM248.489 10.868l-4.248 10.601c-.076.153-.115.345-.153.498l-.077.306-.076-.306c-.038-.192-.115-.345-.191-.498l-4.287-10.6h-5.511l7.31 18.101-3.023 6.889h5.472L254 10.869h-5.511ZM207.543 11.864c-.957-.727-2.22-1.186-3.636-1.34-2.449-.267-4.745.575-6.353 2.259v-1.914h-5.051v18.102h5.013v-9.453c.038-2.143.383-2.679.766-3.253.612-.957 1.76-1.53 3.099-1.53 1.34 0 2.565.65 3.139 1.645.421.727.497 1.684.497 2.181v10.41h5.014V17.949c0-2.832-.804-4.822-2.488-6.085ZM182.856 11.022c-2.411-.842-5.128-.689-7.654.42a8.861 8.861 0 0 0-3.942 3.56c-.842 1.416-1.263 3.062-1.263 4.899 0 1.875.421 3.559 1.263 4.975.842 1.416 1.99 2.526 3.445 3.291a10.602 10.602 0 0 0 4.86 1.186c.88 0 1.799-.114 2.641-.344a8.996 8.996 0 0 0 2.181-.88 9.031 9.031 0 0 0 3.483-3.292c.842-1.415 1.263-3.1 1.263-4.975-.039-4.095-2.412-7.5-6.277-8.84Zm1.416 9.07c-.076 1.607-.612 2.909-1.607 3.75-.766.69-1.799 1.034-3.138 1.072-1.34-.038-2.373-.42-3.139-1.072-.995-.841-1.53-2.143-1.607-3.75-.076-1.799.651-3.368 1.952-4.325.765-.535 1.684-.841 2.755-.841 1.11.038 2.029.306 2.794.841 1.378.957 2.067 2.526 1.99 4.325ZM164.219 11.826c-.957-.728-2.22-1.187-3.636-1.34-.306-.038-.612-.038-.918-.038-1.99.038-3.712.88-5.167 2.564l-.268.306h-.535c-.383-.574-.842-1.11-1.378-1.53-.957-.728-2.22-1.187-3.636-1.34-2.334-.23-4.21.497-5.855 2.258v-1.914h-5.014v18.102h5.014v-9.567c.076-1.99.268-2.45.65-3.024.613-.956 1.723-1.53 2.909-1.53 1.225 0 2.334.612 2.909 1.607.459.765.459 1.646.42 2.526v10.103h5.09v-9.72c.039-1.8.268-2.45.651-3.062.612-.957 1.722-1.531 2.947-1.493 1.186.039 2.22.65 2.794 1.646.344.574.459 1.34.459 1.875V28.971h5.013V17.949c0-1.033-.115-1.952-.344-2.794-.306-1.416-1.033-2.526-2.105-3.33ZM229.01 23.383c-.803.766-2.449 2.105-4.822 2.182-1.99.076-3.482-.46-4.516-1.57-.497-.535-.842-1.186-1.071-1.951l13.892.038.038-.115c.153-.688.191-1.377.191-2.104 0-.575-.114-1.493-.421-2.565a9.87 9.87 0 0 0-3.406-4.936c-1.798-1.34-3.559-1.684-4.018-1.76-3.597-.613-7.692 1.032-9.759 4.324-1.454 2.296-1.416 4.63-1.378 5.396.039.803.153 3.636 2.297 5.97 2.564 2.832 6.161 2.985 7.309 3.023 4.937.192 8.305-2.908 9.032-3.635l-3.368-2.297Zm-8.687-7.577c.765-.536 1.645-.842 2.755-.842 1.11.038 2.029.306 2.756.842.765.574 1.377 1.34 1.684 2.296h-8.879c.306-.957.88-1.76 1.684-2.296Z" fill="#fff"/></svg>