<svg width="577" height="325" viewBox="0 0 577 325" fill="none" xmlns="http://www.w3.org/2000/svg">
<g clip-path="url(#clip0_2647_20549)">
<rect width="577" height="325" fill="#1F3021"/>
<g clip-path="url(#clip1_2647_20549)">
<rect x="59" y="30.9141" width="203.355" height="420.149" rx="19.4927" fill="white"/>
<path d="M232.14 253.378L245.223 292.398V375.255H20.511V262.095L54.4647 316.362C62.0684 328.515 80.5347 325.6 84.0262 311.696L89.6385 289.347C93.5246 273.872 115.25 273.158 120.144 288.344C124.433 301.651 142.585 303.317 149.224 291.013L152.385 285.155C156.411 277.694 166.072 275.461 172.963 280.398C180.641 285.899 191.451 282.423 194.484 273.479L201.317 253.326C206.318 238.578 227.189 238.613 232.14 253.378Z" fill="url(#paint0_linear_2647_20549)"/>
<path d="M244.828 291.707L232.103 253.535C227.173 238.748 206.276 238.695 201.271 253.456L194.482 273.479C191.449 282.423 180.639 285.899 172.961 280.398V280.398C166.07 275.461 156.409 277.694 152.383 285.155L149.222 291.013C142.583 303.317 124.431 301.651 120.143 288.344V288.344C115.248 273.158 93.5229 273.872 89.6368 289.347L84.0245 311.696C80.533 325.6 62.0667 328.514 54.463 316.362L20.5092 262.095" stroke="#00BF96" stroke-width="1.62638" stroke-linecap="round"/>
<path d="M143.896 191.075V189.776H140.586V188.787C141.463 187.264 142.424 185.707 143.342 184.31H145.053V188.778H145.963V189.776H145.053V191.075H143.896ZM141.711 188.806H143.914V185.276H143.844C143.15 186.335 142.367 187.587 141.711 188.735V188.806ZM149.497 191.21C148.016 191.21 147.046 190.404 146.956 189.246L146.952 189.19H148.105L148.11 189.242C148.175 189.814 148.705 190.221 149.497 190.221C150.28 190.221 150.8 189.785 150.8 189.157V189.148C150.8 188.435 150.275 188.042 149.408 188.042H148.611V187.142H149.385C150.13 187.142 150.627 186.72 150.627 186.129V186.12C150.627 185.501 150.21 185.135 149.488 185.135C148.775 185.135 148.283 185.515 148.222 186.12L148.217 186.167H147.092L147.097 186.115C147.2 184.943 148.124 184.174 149.488 184.174C150.88 184.174 151.785 184.901 151.785 185.96V185.97C151.785 186.809 151.18 187.367 150.369 187.535V187.559C151.363 187.653 152.024 188.243 152.024 189.181V189.19C152.024 190.381 150.997 191.21 149.497 191.21ZM155.6 191.243C154.217 191.243 153.285 190.4 153.196 189.289L153.191 189.228H154.307L154.311 189.26C154.4 189.814 154.911 190.254 155.605 190.254C156.397 190.254 156.941 189.696 156.941 188.899V188.89C156.941 188.103 156.388 187.549 155.614 187.549C155.235 187.549 154.907 187.662 154.658 187.887C154.536 187.99 154.424 188.121 154.344 188.271H153.308L153.636 184.31H157.696V185.304H154.578L154.391 187.362H154.471C154.752 186.907 155.277 186.635 155.914 186.635C157.175 186.635 158.089 187.573 158.089 188.867V188.876C158.089 190.282 157.063 191.243 155.6 191.243ZM158.694 192.86L159.102 190.043H160.307L159.491 192.86H158.694ZM163.972 191.243C162.589 191.243 161.657 190.4 161.568 189.289L161.563 189.228H162.678L162.683 189.26C162.772 189.814 163.283 190.254 163.977 190.254C164.769 190.254 165.313 189.696 165.313 188.899V188.89C165.313 188.103 164.76 187.549 163.986 187.549C163.607 187.549 163.279 187.662 163.03 187.887C162.908 187.99 162.796 188.121 162.716 188.271H161.68L162.008 184.31H166.068V185.304H162.95L162.763 187.362H162.843C163.124 186.907 163.649 186.635 164.286 186.635C165.547 186.635 166.461 187.573 166.461 188.867V188.876C166.461 190.282 165.435 191.243 163.972 191.243ZM170.052 191.243C168.444 191.243 167.479 189.879 167.479 187.695V187.685C167.479 185.501 168.444 184.142 170.052 184.142C171.66 184.142 172.635 185.501 172.635 187.685V187.695C172.635 189.879 171.66 191.243 170.052 191.243ZM170.052 190.264C170.915 190.264 171.416 189.298 171.416 187.695V187.685C171.416 186.082 170.915 185.126 170.052 185.126C169.19 185.126 168.697 186.082 168.697 187.685V187.695C168.697 189.298 169.19 190.264 170.052 190.264ZM175.977 188.632V188.084H176.83C176.816 187.957 176.811 187.826 176.811 187.695V187.685C176.811 187.559 176.816 187.432 176.83 187.31H175.977V186.762H176.915C177.28 185.187 178.621 184.409 180.318 184.409C180.66 184.409 181.087 184.446 181.312 184.517V185.51C181.082 185.459 180.688 185.426 180.346 185.426C179.277 185.426 178.466 185.862 178.152 186.762H180.679V187.31H178.026C178.011 187.432 178.007 187.559 178.007 187.695V187.699C178.007 187.835 178.011 187.962 178.026 188.084H180.679V188.632H178.152C178.466 189.532 179.282 189.959 180.369 189.959C180.693 189.959 181.105 189.935 181.326 189.884V190.887C181.105 190.948 180.693 190.976 180.336 190.976C178.621 190.976 177.285 190.203 176.915 188.632H175.977Z" fill="black"/>
<path d="M151.672 175.732C150.575 175.732 149.921 174.731 149.921 173.134V173.127C149.921 171.53 150.575 170.532 151.672 170.532C152.77 170.532 153.431 171.53 153.431 173.127V173.134C153.431 174.731 152.77 175.732 151.672 175.732ZM151.672 175.192C152.385 175.192 152.808 174.4 152.808 173.134V173.127C152.808 171.861 152.385 171.076 151.672 171.076C150.96 171.076 150.544 171.861 150.544 173.127V173.134C150.544 174.4 150.96 175.192 151.672 175.192ZM156.674 175.615V174.586H154.255V174.022C154.926 172.896 155.686 171.685 156.381 170.649H157.28V174.032H157.985V174.586H157.28V175.615H156.674ZM154.888 174.035H156.677V171.224H156.636C156.079 172.057 155.428 173.082 154.888 173.994V174.035ZM160.916 175.615V170.649H161.635L163.335 174.792H163.391L165.09 170.649H165.81V175.615H165.232V171.823H165.194L163.625 175.615H163.101L161.532 171.823H161.494V175.615H160.916ZM167.976 175.68C167.27 175.68 166.737 175.254 166.737 174.579V174.572C166.737 173.912 167.225 173.53 168.089 173.478L169.153 173.413V173.075C169.153 172.618 168.874 172.37 168.32 172.37C167.876 172.37 167.583 172.535 167.487 172.824L167.484 172.834H166.885L166.888 172.814C166.985 172.232 167.549 171.84 168.34 171.84C169.245 171.84 169.751 172.304 169.751 173.075V175.615H169.153V175.068H169.097C168.863 175.464 168.475 175.68 167.976 175.68ZM167.349 174.565C167.349 174.94 167.669 175.161 168.099 175.161C168.709 175.161 169.153 174.762 169.153 174.232V173.894L168.161 173.956C167.597 173.991 167.349 174.19 167.349 174.558V174.565ZM170.802 175.615V171.905H171.401V172.456H171.456C171.597 172.067 171.945 171.84 172.447 171.84C172.561 171.84 172.688 171.854 172.747 171.864V172.446C172.623 172.425 172.509 172.411 172.378 172.411C171.807 172.411 171.401 172.772 171.401 173.316V175.615H170.802Z" fill="#666666"/>
<rect x="58.9998" y="103.983" width="203.355" height="0.629912" fill="white" fill-opacity="0.1"/>
<g filter="url(#filter0_d_2647_20549)">
<path d="M67.6733 109.522C67.6733 105.929 70.586 103.017 74.1789 103.017H247.117C250.71 103.017 253.623 105.929 253.623 109.522V139.881C253.623 143.474 250.71 146.387 247.117 146.387H74.1789C70.586 146.387 67.6733 143.474 67.6733 139.881V109.522Z" fill="#00A885"/>
</g>
<path d="M81.264 120.233V115.71H83.2779C84.4031 115.71 85.0256 116.261 85.0256 117.165V117.173C85.0256 117.743 84.7218 118.245 84.193 118.448L85.1681 120.233H83.9305L83.0829 118.602H82.3591V120.233H81.264ZM82.3591 117.881H83.1579C83.6267 117.881 83.908 117.619 83.908 117.188V117.18C83.908 116.764 83.6155 116.49 83.1504 116.49H82.3591V117.881ZM85.9911 120.233V115.71H89.1902V116.535H87.0862V117.566H89.0665V118.332H87.0862V119.408H89.1902V120.233H85.9911ZM91.3933 120.233L89.8519 115.71H91.0971L92.0572 119.127H92.1172L93.0773 115.71H94.3187L92.781 120.233H91.3933ZM95.0929 120.233V115.71H98.292V116.535H96.188V117.566H98.1682V118.332H96.188V119.408H98.292V120.233H95.0929ZM99.295 120.233V115.71H100.188L102.292 118.485H102.333V115.71H103.379V120.233H102.49L100.379 117.439H100.338V120.233H99.295ZM106.497 120.349C105.271 120.349 104.483 119.682 104.483 118.673V115.71H105.579V118.579C105.579 119.145 105.905 119.502 106.497 119.502C107.09 119.502 107.416 119.145 107.416 118.579V115.71H108.511V118.673C108.511 119.678 107.731 120.349 106.497 120.349ZM109.619 120.233V115.71H112.818V116.535H110.714V117.566H112.695V118.332H110.714V119.408H112.818V120.233H109.619Z" fill="white" fill-opacity="0.9"/>
<path d="M219.403 117.681V116.776H220.89V115.334H221.795V116.776H223.285V117.681H221.795V119.123H220.89V117.681H219.403ZM226.025 119.343C224.904 119.343 224.164 118.741 224.095 117.853L224.091 117.808H225.086L225.089 117.846C225.134 118.232 225.489 118.507 226.025 118.507C226.555 118.507 226.903 118.211 226.903 117.791V117.784C226.903 117.309 226.548 117.048 225.946 117.048H225.378V116.308H225.932C226.456 116.308 226.793 116.033 226.793 115.63V115.623C226.793 115.21 226.507 114.956 226.018 114.956C225.53 114.956 225.203 115.221 225.162 115.633L225.158 115.664H224.202L224.205 115.623C224.277 114.735 224.976 114.157 226.018 114.157C227.085 114.157 227.774 114.694 227.774 115.485V115.492C227.774 116.112 227.319 116.514 226.738 116.635V116.656C227.478 116.724 227.959 117.151 227.959 117.826V117.832C227.959 118.734 227.185 119.343 226.025 119.343ZM228.473 120.568L228.776 118.438H229.771L229.144 120.568H228.473ZM232.642 119.36C231.579 119.36 230.877 118.727 230.818 117.898L230.815 117.85H231.758L231.765 117.874C231.837 118.238 232.178 118.531 232.646 118.531C233.179 118.531 233.551 118.156 233.551 117.623V117.616C233.551 117.086 233.176 116.717 232.649 116.717C232.398 116.717 232.184 116.79 232.019 116.931C231.926 117.007 231.844 117.099 231.789 117.206H230.897L231.128 114.267H234.232V115.093H231.937L231.813 116.508H231.875C232.074 116.174 232.46 115.967 232.935 115.967C233.86 115.967 234.528 116.649 234.528 117.595V117.602C234.528 118.648 233.757 119.36 232.642 119.36ZM236.508 116.989C235.782 116.989 235.335 116.452 235.335 115.592V115.589C235.335 114.728 235.782 114.195 236.508 114.195C237.238 114.195 237.681 114.728 237.681 115.589V115.592C237.681 116.452 237.238 116.989 236.508 116.989ZM237.272 119.233H236.477L239.818 114.267H240.613L237.272 119.233ZM236.508 116.439C236.811 116.439 236.979 116.132 236.979 115.592V115.589C236.979 115.045 236.811 114.746 236.508 114.746C236.209 114.746 236.04 115.045 236.04 115.589V115.592C236.04 116.132 236.209 116.439 236.508 116.439ZM240.579 119.305C239.853 119.305 239.406 118.768 239.406 117.908V117.905C239.406 117.044 239.853 116.511 240.579 116.511C241.309 116.511 241.752 117.044 241.752 117.905V117.908C241.752 118.768 241.309 119.305 240.579 119.305ZM240.579 118.755C240.882 118.755 241.05 118.448 241.05 117.908V117.905C241.05 117.361 240.882 117.062 240.579 117.062C240.28 117.062 240.111 117.361 240.111 117.905V117.908C240.111 118.448 240.28 118.755 240.579 118.755Z" fill="white" fill-opacity="0.9"/>
<path d="M228.146 126.871V125.786H233.568V131.208H232.484V126.871H228.146Z" fill="white"/>
<path fill-rule="evenodd" clip-rule="evenodd" d="M233.026 127.142L227.062 133.105L226.249 132.292L232.212 126.329L233.026 127.142Z" fill="white"/>
<path d="M83.3827 133.991V127.2H83.3478L81.2047 128.656V127.096L83.3769 125.587H85.124V133.991H83.3827ZM89.7764 133.991V132.785L92.7465 130.007C93.8297 128.994 94.0568 128.581 94.0568 127.998V127.987C94.051 127.299 93.5268 126.81 92.7814 126.81C91.9195 126.81 91.3372 127.375 91.3139 128.132L91.308 128.185H89.6774V128.138C89.6774 126.554 90.9936 125.442 92.7698 125.442C94.546 125.442 95.7689 126.455 95.7689 127.888V127.899C95.7689 128.918 95.2856 129.582 93.8355 130.916L92.0768 132.523V132.593H95.8854V133.991H89.7764ZM100.401 134.136C98.5727 134.136 97.3614 133.071 97.2566 131.667L97.2507 131.58H98.8755L98.8872 131.621C99.0095 132.255 99.5977 132.744 100.407 132.744C101.327 132.744 101.974 132.116 101.974 131.219V131.207C101.968 130.322 101.321 129.699 100.413 129.699C99.982 129.699 99.6151 129.827 99.3298 130.054C99.1609 130.182 99.0269 130.345 98.9279 130.52H97.3963L97.7807 125.587H103.144V126.985H99.1784L98.9745 129.349H99.0095C99.3589 128.784 100.052 128.441 100.902 128.441C102.498 128.441 103.651 129.588 103.651 131.172V131.184C103.651 132.942 102.323 134.136 100.401 134.136ZM108.149 134.136C106.018 134.136 104.725 132.465 104.725 129.792V129.78C104.725 127.107 106.018 125.442 108.149 125.442C110.281 125.442 111.574 127.107 111.574 129.78V129.792C111.574 132.465 110.281 134.136 108.149 134.136ZM108.149 132.727C109.198 132.727 109.797 131.638 109.797 129.792V129.78C109.797 127.934 109.198 126.851 108.149 126.851C107.101 126.851 106.501 127.934 106.501 129.78V129.792C106.501 131.638 107.101 132.727 108.149 132.727ZM115.318 130.846V130.264H116.325C116.313 130.112 116.308 129.949 116.308 129.786L116.302 129.774C116.302 129.6 116.313 129.437 116.325 129.274H115.318V128.691H116.412C116.838 126.705 118.48 125.698 120.728 125.698C121.159 125.698 121.595 125.744 121.887 125.82V127.218C121.607 127.165 121.153 127.13 120.792 127.13C119.481 127.13 118.544 127.643 118.183 128.691H121.351V129.274H118.049C118.026 129.437 118.02 129.606 118.02 129.78V129.792C118.02 129.961 118.026 130.118 118.043 130.264H121.351V130.846H118.171C118.521 131.918 119.464 132.43 120.792 132.43C121.153 132.43 121.607 132.401 121.887 132.348V133.746C121.595 133.822 121.159 133.868 120.728 133.868C118.468 133.868 116.826 132.849 116.407 130.846H115.318Z" fill="white" fill-opacity="0.9"/>
<g filter="url(#filter1_d_2647_20549)">
<path d="M257.961 109.522C257.961 105.93 260.874 103.017 264.467 103.017H437.405C440.998 103.017 443.911 105.93 443.911 109.522V139.882C443.911 143.474 440.998 146.387 437.405 146.387H264.467C260.874 146.387 257.961 143.474 257.961 139.882V109.522Z" fill="#3366FF"/>
</g>
<path fill-rule="evenodd" clip-rule="evenodd" d="M58.9995 306.675H262.297V307.433H58.9995V306.675Z" fill="black" fill-opacity="0.05"/>
<path fill-rule="evenodd" clip-rule="evenodd" d="M58.9995 201.631H262.297V202.389H58.9995V201.631Z" fill="black" fill-opacity="0.05"/>
<path fill-rule="evenodd" clip-rule="evenodd" d="M58.9995 254.274H262.297V255.033H58.9995V254.274Z" fill="black" fill-opacity="0.05"/>
<path d="M68.3177 193.542L70.2046 189.85V189.809H67.9566V189.34H70.7374V189.827L68.868 193.542H68.3177ZM72.8981 193.641C72.1148 193.641 71.5557 193.137 71.4946 192.465L71.4917 192.433H71.9954L71.9983 192.456C72.0478 192.858 72.4118 193.178 72.9039 193.178C73.463 193.178 73.8473 192.779 73.8473 192.212V192.206C73.8473 191.647 73.4572 191.248 72.9126 191.248C72.6331 191.248 72.3943 191.332 72.2138 191.504C72.141 191.574 72.074 191.655 72.0216 191.754H71.5674L71.7887 189.34H74.1269V189.809H72.2022L72.0595 191.23H72.1061C72.2924 190.948 72.6215 190.793 73.0029 190.793C73.792 190.793 74.3598 191.385 74.3598 192.197V192.203C74.3598 193.05 73.7512 193.641 72.8981 193.641ZM76.6486 193.641C75.7197 193.641 75.1665 192.794 75.1665 191.443V191.437C75.1665 190.086 75.7197 189.241 76.6486 189.241C77.5775 189.241 78.1365 190.086 78.1365 191.437V191.443C78.1365 192.794 77.5775 193.641 76.6486 193.641ZM76.6486 193.184C77.2513 193.184 77.6095 192.514 77.6095 191.443V191.437C77.6095 190.365 77.2513 189.702 76.6486 189.702C76.0459 189.702 75.6935 190.365 75.6935 191.437V191.443C75.6935 192.514 76.0459 193.184 76.6486 193.184Z" fill="#666666" fill-opacity="0.75"/>
<path d="M69.5232 247.86C68.7399 247.86 68.1809 247.356 68.1197 246.684L68.1168 246.652H68.6205L68.6234 246.675C68.6729 247.077 69.0369 247.397 69.529 247.397C70.0881 247.397 70.4724 246.998 70.4724 246.43V246.425C70.4724 245.866 70.0823 245.467 69.5378 245.467C69.2582 245.467 69.0195 245.551 68.8389 245.723C68.7661 245.793 68.6992 245.874 68.6467 245.973H68.1925L68.4138 243.559H70.752V244.028H68.8273L68.6846 245.449H68.7312C68.9175 245.167 69.2466 245.012 69.628 245.012C70.4171 245.012 70.9849 245.604 70.9849 246.416V246.422C70.9849 247.269 70.3764 247.86 69.5232 247.86ZM73.2737 247.86C72.3448 247.86 71.7916 247.013 71.7916 245.662V245.656C71.7916 244.305 72.3448 243.46 73.2737 243.46C74.2026 243.46 74.7616 244.305 74.7616 245.656V245.662C74.7616 247.013 74.2026 247.86 73.2737 247.86ZM73.2737 247.403C73.8765 247.403 74.2346 246.733 74.2346 245.662V245.656C74.2346 244.584 73.8765 243.92 73.2737 243.92C72.671 243.92 72.3186 244.584 72.3186 245.656V245.662C72.3186 246.733 72.671 247.403 73.2737 247.403ZM77.0679 247.86C76.139 247.86 75.5858 247.013 75.5858 245.662V245.656C75.5858 244.305 76.139 243.46 77.0679 243.46C77.9968 243.46 78.5558 244.305 78.5558 245.656V245.662C78.5558 247.013 77.9968 247.86 77.0679 247.86ZM77.0679 247.403C77.6706 247.403 78.0288 246.733 78.0288 245.662V245.656C78.0288 244.584 77.6706 243.92 77.0679 243.92C76.4652 243.92 76.1128 244.584 76.1128 245.656V245.662C76.1128 246.733 76.4652 247.403 77.0679 247.403Z" fill="#666666" fill-opacity="0.75"/>
<path d="M68.143 298.791V298.43L69.564 296.893C70.0997 296.313 70.257 296.095 70.257 295.728V295.722C70.257 295.28 69.9571 294.948 69.462 294.948C68.9583 294.948 68.6234 295.277 68.6234 295.772L68.6205 295.778L68.1197 295.775L68.1139 295.772C68.1168 295.026 68.6933 294.491 69.497 294.491C70.2308 294.491 70.7927 294.989 70.7927 295.667V295.673C70.7927 296.153 70.586 296.503 69.826 297.286L68.871 298.273V298.32H70.8626V298.791H68.143ZM73.1601 298.89C72.3769 298.89 71.8178 298.387 71.7567 297.714L71.7537 297.682H72.2575L72.2604 297.705C72.3099 298.107 72.6739 298.427 73.166 298.427C73.725 298.427 74.1094 298.029 74.1094 297.461V297.455C74.1094 296.896 73.7192 296.497 73.1747 296.497C72.8952 296.497 72.6564 296.581 72.4759 296.753C72.4031 296.823 72.3361 296.905 72.2837 297.004H71.8294L72.0507 294.59H74.3889V295.058H72.4642L72.3215 296.479H72.3681C72.5545 296.197 72.8835 296.043 73.265 296.043C74.0541 296.043 74.6219 296.634 74.6219 297.446V297.452C74.6219 298.299 74.0133 298.89 73.1601 298.89ZM76.9107 298.89C75.9818 298.89 75.4285 298.043 75.4285 296.692V296.686C75.4285 295.335 75.9818 294.491 76.9107 294.491C77.8395 294.491 78.3986 295.335 78.3986 296.686V296.692C78.3986 298.043 77.8395 298.89 76.9107 298.89ZM76.9107 298.433C77.5134 298.433 77.8716 297.764 77.8716 296.692V296.686C77.8716 295.615 77.5134 294.951 76.9107 294.951C76.3079 294.951 75.9556 295.615 75.9556 296.686V296.692C75.9556 297.764 76.3079 298.433 76.9107 298.433Z" fill="#666666" fill-opacity="0.75"/>
<path d="M160.65 201.811L160.65 366.355" stroke="black" stroke-opacity="0.1" stroke-width="0.542127"/>
<circle cx="160.932" cy="277.977" r="2.54122" fill="white" stroke="#00BF96" stroke-width="1.62638"/>
<rect width="203.298" height="62.8867" transform="translate(58.9996 30.9141)" fill="white"/>
<path d="M67.8981 84.3663L71.9283 72.8274H74.7671L78.7893 84.3663H76.2544L75.3828 81.5676H71.3046L70.433 84.3663H67.8981ZM73.3197 75.0664L71.8643 79.7604H74.823L73.3677 75.0664H73.3197ZM79.9734 84.3663V75.7941H82.3084V77.2015H82.3564C82.7962 76.2179 83.6758 75.6182 84.9712 75.6182C86.8584 75.6182 87.9299 76.8257 87.9299 78.8328V84.3663H85.5949V79.3126C85.5949 78.1931 85.0672 77.5533 84.0196 77.5533C82.9721 77.5533 82.3084 78.321 82.3084 79.4405V84.3663H79.9734ZM92.1607 84.5023C90.4415 84.5023 89.282 83.4228 89.282 81.9114V81.8954C89.282 80.3361 90.4895 79.4245 92.6165 79.2886L94.7356 79.1606V78.6329C94.7356 77.8732 94.2398 77.4014 93.3282 77.4014C92.4566 77.4014 91.9288 77.8092 91.8169 78.361L91.8009 78.433H89.6658L89.6738 78.337C89.8018 76.7537 91.1612 75.6182 93.4242 75.6182C95.6392 75.6182 97.0705 76.7617 97.0705 78.4889V84.3663H94.7356V83.0869H94.6876C94.1998 83.9665 93.2882 84.5023 92.1607 84.5023ZM91.593 81.7915C91.593 82.4232 92.1127 82.799 92.9204 82.799C93.9679 82.799 94.7356 82.1273 94.7356 81.2317V80.616L92.9684 80.7279C92.0648 80.7839 91.593 81.1677 91.593 81.7755V81.7915ZM98.8384 84.3663V72.8274H101.173V84.3663H98.8384ZM104.293 87.1891C103.837 87.1891 103.373 87.1331 103.101 87.0851V85.3499C103.269 85.3819 103.541 85.4299 103.885 85.4299C104.581 85.4299 104.964 85.23 105.172 84.6462L105.276 84.3663L102.246 75.7941H104.812L106.62 82.4952H106.684L108.499 75.7941H110.962L108.019 84.5183C107.347 86.5414 106.196 87.1891 104.293 87.1891ZM115.384 84.5423C113.481 84.5423 112.586 83.8066 112.586 81.9674V77.5533H111.394V75.7941H112.586V73.6991H114.945V75.7941H116.512V77.5533H114.945V81.7115C114.945 82.5112 115.304 82.783 116.008 82.783C116.216 82.783 116.368 82.759 116.512 82.7431V84.4543C116.248 84.4943 115.872 84.5423 115.384 84.5423ZM119.215 74.6906C118.512 74.6906 117.968 74.1389 117.968 73.4752C117.968 72.8114 118.512 72.2597 119.215 72.2597C119.919 72.2597 120.463 72.8114 120.463 73.4752C120.463 74.1389 119.919 74.6906 119.215 74.6906ZM118.048 84.3663V75.7941H120.383V84.3663H118.048ZM126.069 84.5423C123.454 84.5423 121.839 82.839 121.839 80.0722V80.0642C121.839 77.3214 123.478 75.6182 126.045 75.6182C128.372 75.6182 129.851 77.0496 129.939 78.9047V78.9607H127.772L127.756 78.8888C127.612 78.0731 127.045 77.4494 126.077 77.4494C124.934 77.4494 124.214 78.433 124.214 80.0722V80.0802C124.214 81.7595 124.934 82.7111 126.085 82.7111C127.021 82.7111 127.604 82.1353 127.764 81.2717L127.772 81.1997H129.947V81.2477C129.835 83.1189 128.356 84.5423 126.069 84.5423ZM134.802 84.5423C132.427 84.5423 131.108 83.4467 130.924 81.8235L130.916 81.7515H133.195L133.211 81.8235C133.363 82.4952 133.866 82.887 134.802 82.887C135.682 82.887 136.217 82.5431 136.217 81.9914V81.9834C136.217 81.5276 135.929 81.2637 135.09 81.0798L133.634 80.7759C131.971 80.4241 131.132 79.5924 131.132 78.313V78.305C131.132 76.6737 132.539 75.6182 134.722 75.6182C137.001 75.6182 138.272 76.8257 138.328 78.329V78.409H136.177L136.169 78.345C136.089 77.7293 135.586 77.2655 134.722 77.2655C133.914 77.2655 133.411 77.6253 133.411 78.1771V78.1851C133.411 78.6249 133.706 78.9127 134.57 79.0967L136.025 79.4085C137.817 79.7844 138.552 80.488 138.552 81.7515V81.7595C138.552 83.4387 137.009 84.5423 134.802 84.5423Z" fill="black"/>
<path d="M219.631 45.5464V41.7658H219.582L218.466 42.5748V41.997L219.634 41.1575H220.179V45.5464H219.631ZM222.916 45.6498C221.946 45.6498 221.368 44.7647 221.368 43.3535V43.3474C221.368 41.9361 221.946 41.0541 222.916 41.0541C223.886 41.0541 224.47 41.9361 224.47 43.3474V43.3535C224.47 44.7647 223.886 45.6498 222.916 45.6498ZM222.916 45.1723C223.546 45.1723 223.92 44.4727 223.92 43.3535V43.3474C223.92 42.2281 223.546 41.5347 222.916 41.5347C222.286 41.5347 221.918 42.2281 221.918 43.3474V43.3535C221.918 44.4727 222.286 45.1723 222.916 45.1723ZM226.839 45.6498C225.869 45.6498 225.291 44.7647 225.291 43.3535V43.3474C225.291 41.9361 225.869 41.0541 226.839 41.0541C227.81 41.0541 228.394 41.9361 228.394 43.3474V43.3535C228.394 44.7647 227.81 45.6498 226.839 45.6498ZM226.839 45.1723C227.469 45.1723 227.843 44.4727 227.843 43.3535V43.3474C227.843 42.2281 227.469 41.5347 226.839 41.5347C226.21 41.5347 225.842 42.2281 225.842 43.3474V43.3535C225.842 44.4727 226.21 45.1723 226.839 45.1723ZM230.112 43.466C229.552 43.466 229.215 43.0098 229.215 42.2829V42.2798C229.215 41.5529 229.552 41.0997 230.112 41.0997C230.672 41.0997 231.012 41.5529 231.012 42.2798V42.2829C231.012 43.0098 230.672 43.466 230.112 43.466ZM230.441 45.5464H229.948L232.935 41.1575H233.427L230.441 45.5464ZM230.112 43.1041C230.413 43.1041 230.59 42.7969 230.59 42.2829V42.2798C230.59 41.7658 230.413 41.4617 230.112 41.4617C229.811 41.4617 229.638 41.7658 229.638 42.2798V42.2829C229.638 42.7969 229.811 43.1041 230.112 43.1041ZM233.257 45.6041C232.697 45.6041 232.36 45.1479 232.36 44.421V44.418C232.36 43.6911 232.697 43.2379 233.257 43.2379C233.817 43.2379 234.157 43.6911 234.157 44.418V44.421C234.157 45.1479 233.817 45.6041 233.257 45.6041ZM233.257 45.2422C233.558 45.2422 233.734 44.935 233.734 44.421V44.418C233.734 43.904 233.558 43.5998 233.257 43.5998C232.956 43.5998 232.782 43.904 232.782 44.418V44.421C232.782 44.935 232.956 45.2422 233.257 45.2422Z" fill="#030303"/>
<path opacity="0.4" d="M237.428 40.5844H246.252C246.825 40.5845 247.29 41.0492 247.29 41.6225V44.477C247.29 45.0504 246.825 45.5151 246.252 45.5151H237.428C236.855 45.5151 236.39 45.0504 236.39 44.477V41.6225C236.39 41.0492 236.855 40.5844 237.428 40.5844Z" stroke="black" stroke-width="0.519077"/>
<path d="M248.067 42.1427C248.514 42.2579 248.846 42.663 248.846 43.1466C248.846 43.6304 248.515 44.0362 248.067 44.1515V42.1427Z" fill="black" fill-opacity="0.5"/>
<rect x="237.167" y="41.3629" width="9.34339" height="3.374" rx="0.519077" fill="black"/>
<path d="M152.9 40.9602C153.837 40.9602 154.652 41.6263 154.652 43.2079V43.214C154.652 44.6921 153.986 45.568 152.882 45.568C152.076 45.568 151.473 45.0905 151.333 44.4184L151.327 44.3849H152.1L152.109 44.4153C152.225 44.7225 152.495 44.9233 152.882 44.9233C153.578 44.9233 153.873 44.242 153.906 43.4025C153.906 43.3691 153.91 43.3356 153.91 43.3022H153.849C153.688 43.6489 153.304 43.9561 152.702 43.9561C151.86 43.9561 151.27 43.3417 151.27 42.5083V42.5023C151.27 41.6111 151.948 40.9602 152.9 40.9602ZM152.897 43.3539C153.392 43.3539 153.773 42.995 153.773 42.4992V42.4931C153.773 41.9913 153.392 41.5989 152.906 41.5989C152.422 41.5989 152.036 41.9852 152.036 42.4749V42.481C152.036 42.9889 152.398 43.3539 152.897 43.3539ZM156.032 42.6148C155.756 42.6148 155.549 42.4019 155.549 42.1342C155.549 41.8635 155.756 41.6537 156.032 41.6537C156.312 41.6537 156.516 41.8635 156.516 42.1342C156.516 42.4019 156.312 42.6148 156.032 42.6148ZM156.032 44.8716C155.756 44.8716 155.549 44.6617 155.549 44.391C155.549 44.1203 155.756 43.9104 156.032 43.9104C156.312 43.9104 156.516 44.1203 156.516 44.391C156.516 44.6617 156.312 44.8716 156.032 44.8716ZM159.542 45.4586V44.6161H157.395V43.9743C157.964 42.9858 158.587 41.9761 159.183 41.0697H160.294V43.9682H160.884V44.6161H160.294V45.4586H159.542ZM158.125 43.9865H159.554V41.6963H159.509C159.059 42.3836 158.551 43.1957 158.125 43.9409V43.9865ZM162.702 45.4586V41.8423H162.651L161.559 42.6148V41.8757L162.705 41.0697H163.487V45.4586H162.702ZM166.124 45.4586L167.681 41.0697H168.566L170.124 45.4586H169.302L168.934 44.3241H167.31L166.945 45.4586H166.124ZM168.098 41.8848L167.508 43.7188H168.74L168.15 41.8848H168.098ZM170.878 45.4586V41.0697H171.778L173.098 44.4457H173.15L174.467 41.0697H175.367V45.4586H174.661V42.338H174.607L173.39 45.4586H172.855L171.638 42.338H171.587V45.4586H170.878Z" fill="#030303"/>
<path d="M87.3149 43.682C87.7637 43.6821 88.1652 43.8781 88.4341 44.1859L87.3325 45.2562L86.2104 44.1683C86.4792 43.8705 86.8745 43.682 87.3149 43.682ZM87.3179 42.1332C88.2075 42.1332 89.0089 42.5009 89.5688 43.0873L89.0034 43.6361C88.5887 43.1892 87.9871 42.9076 87.3179 42.9076C86.6567 42.9076 86.0621 43.1829 85.6479 43.6205L85.0815 43.0717C85.6407 42.4941 86.4359 42.1332 87.3179 42.1332ZM87.3169 40.5844C88.6472 40.5844 89.848 41.1241 90.6978 41.9896L90.1333 42.5385C89.4284 41.8125 88.4269 41.3597 87.3169 41.3597C86.2142 41.3599 85.2192 41.8071 84.5151 42.5248L83.9497 41.9769C84.7986 41.1191 85.9934 40.5845 87.3169 40.5844Z" fill="#030303"/>
<path d="M75.3843 43.6988C75.5276 43.6988 75.644 43.8153 75.644 43.9586V44.9966C75.644 45.1399 75.5275 45.2564 75.3843 45.2564H74.606C74.4626 45.2564 74.3462 45.1399 74.3462 44.9966V43.9586C74.3462 43.8152 74.4626 43.6988 74.606 43.6988H75.3843ZM77.4614 42.6607C77.6048 42.6607 77.7212 42.7771 77.7212 42.9205V44.9966C77.7212 45.14 77.6048 45.2564 77.4614 45.2564H76.6831C76.5398 45.2564 76.4233 45.14 76.4233 44.9966V42.9205C76.4233 42.7771 76.5398 42.6607 76.6831 42.6607H77.4614ZM79.5366 41.6226C79.6799 41.6227 79.7964 41.7391 79.7964 41.8824V44.9966C79.7964 45.1399 79.6799 45.2563 79.5366 45.2564H78.7573C78.6142 45.2561 78.4985 45.1398 78.4985 44.9966V41.8824C78.4985 41.7392 78.6142 41.6229 78.7573 41.6226H79.5366ZM81.6138 40.3248C81.757 40.3248 81.8735 40.4412 81.8735 40.5845V44.9966C81.8735 45.1399 81.757 45.2563 81.6138 45.2564H80.8354C80.6922 45.2564 80.5758 45.1399 80.5757 44.9966V40.5845C80.5757 40.4412 80.6921 40.3248 80.8354 40.3248H81.6138Z" fill="black"/>
<path fill-rule="evenodd" clip-rule="evenodd" d="M242.401 176.14H239.857V178.681H238.586V176.138C238.587 175.802 238.721 175.479 238.959 175.241C239.197 175.003 239.52 174.869 239.857 174.869H242.401V176.14ZM242.401 186.305V187.575H239.856C239.52 187.575 239.197 187.441 238.959 187.203C238.721 186.965 238.587 186.643 238.586 186.306V183.763H239.857V186.305H242.401ZM247.481 176.14V174.869H250.024C250.361 174.869 250.684 175.003 250.922 175.241C251.161 175.479 251.295 175.802 251.295 176.138V178.681H250.024V176.14H247.481ZM247.481 186.305H250.024V183.763H251.295V186.306C251.295 186.643 251.161 186.965 250.922 187.203C250.684 187.441 250.361 187.575 250.024 187.575H247.481V186.305Z" fill="#00BF96"/>
</g>
<rect x="331.672" y="243.007" width="116.855" height="115.337" rx="9.10556" fill="#00A885"/>
<mask id="mask0_2647_20549" style="mask-type:alpha" maskUnits="userSpaceOnUse" x="331" y="243" width="118" height="114">
<rect x="331.672" y="243.007" width="116.855" height="113.061" rx="9.10556" fill="#00A885"/>
</mask>
<g mask="url(#mask0_2647_20549)">
<path d="M338.358 318.334L334.062 323.108C332.494 324.85 331.627 327.11 331.627 329.453V348.938C331.627 354.177 335.873 358.423 341.112 358.423H438.996C444.235 358.423 448.481 354.177 448.481 348.938V302.725L428.051 311.714C426.214 312.523 424.061 311.973 422.837 310.381L421.74 308.954C420.892 307.852 419.296 307.651 418.184 308.486C417.193 309.229 415.79 309.142 414.914 308.267C414.141 307.494 412.954 307.316 411.988 307.828L394.746 316.977C392.207 318.324 389.098 317.957 386.942 316.055C384.393 313.806 380.586 313.747 377.969 315.916L372.062 320.81C368.851 323.47 364.037 322.724 361.783 319.217C360.443 317.609 358.106 317.27 356.365 318.431L354.983 319.352C353.441 320.38 351.397 320.227 350.026 318.98L348.767 317.836C347.876 317.026 346.507 317.059 345.656 317.91C344.896 318.67 343.705 318.788 342.811 318.191L342.285 317.841C341.035 317.007 339.363 317.218 338.358 318.334Z" fill="url(#paint1_linear_2647_20549)"/>
<path d="M330.533 326.475L338.399 317.794C339.407 316.681 341.077 316.474 342.326 317.307L342.855 317.66C343.75 318.256 344.94 318.138 345.7 317.378V317.378C346.551 316.527 347.921 316.495 348.811 317.304L350.07 318.449C351.442 319.695 353.485 319.849 355.027 318.821L356.409 317.899C358.151 316.739 360.487 317.077 361.827 318.685V318.685V318.685C364.082 322.193 368.896 322.939 372.107 320.278L378.077 315.332C380.658 313.193 384.411 313.251 386.925 315.469V315.469C389.105 317.393 392.267 317.719 394.795 316.281L409.994 307.635C411.291 306.897 412.89 306.942 414.143 307.75L414.848 308.205C415.832 308.84 417.107 308.795 418.044 308.093V308.093C419.269 307.174 421.006 307.411 421.94 308.625L422.872 309.836C424.099 311.433 426.263 311.976 428.099 311.149L449.664 301.435" stroke="#B9EEE3" stroke-width="1.89699"/>
</g>
<path d="M420.795 272.933V272.202H421.996V271.038H422.727V272.202H423.93V272.933H422.727V274.097H421.996V272.933H420.795ZM424.65 274.186V273.622L425.942 272.346C426.506 271.799 426.659 271.596 426.659 271.316V271.307C426.659 270.965 426.426 270.726 426.042 270.726C425.65 270.726 425.381 270.988 425.381 271.368V271.382H424.605L424.603 271.371C424.603 270.601 425.203 270.073 426.081 270.073C426.906 270.073 427.484 270.546 427.484 271.238V271.246C427.484 271.702 427.248 272.08 426.517 272.755L425.775 273.447V273.511H427.543V274.186H424.65ZM428.163 275.264L428.407 273.544H429.21L428.704 275.264H428.163ZM430.169 274.186L431.878 270.89V270.843H429.855V270.173H432.723V270.851L431.047 274.186H430.169ZM434.829 270.071C435.757 270.071 436.485 270.732 436.485 272.141V272.146C436.485 273.489 435.852 274.286 434.824 274.286C434.048 274.286 433.473 273.828 433.348 273.2L433.343 273.175H434.165L434.173 273.2C434.271 273.45 434.499 273.619 434.821 273.619C435.402 273.619 435.657 273.05 435.688 272.319C435.688 272.291 435.688 272.26 435.688 272.23H435.632C435.488 272.538 435.154 272.816 434.599 272.816C433.818 272.816 433.293 272.26 433.293 271.502V271.496C433.293 270.676 433.926 270.071 434.829 270.071ZM434.829 272.196C435.243 272.196 435.563 271.902 435.563 271.488V271.482C435.563 271.063 435.243 270.738 434.835 270.738C434.429 270.738 434.104 271.057 434.104 271.466V271.471C434.104 271.894 434.41 272.196 434.829 272.196ZM438.103 272.374C437.517 272.374 437.155 271.941 437.155 271.246V271.243C437.155 270.549 437.517 270.118 438.103 270.118C438.692 270.118 439.05 270.549 439.05 271.243V271.246C439.05 271.941 438.692 272.374 438.103 272.374ZM438.72 274.186H438.078L440.776 270.176H441.418L438.72 274.186ZM438.103 271.93C438.347 271.93 438.484 271.682 438.484 271.246V271.243C438.484 270.804 438.347 270.562 438.103 270.562C437.861 270.562 437.725 270.804 437.725 271.243V271.246C437.725 271.682 437.861 271.93 438.103 271.93ZM441.39 274.244C440.804 274.244 440.443 273.811 440.443 273.116V273.113C440.443 272.419 440.804 271.988 441.39 271.988C441.979 271.988 442.338 272.419 442.338 273.113V273.116C442.338 273.811 441.979 274.244 441.39 274.244ZM441.39 273.8C441.635 273.8 441.771 273.552 441.771 273.116V273.113C441.771 272.674 441.635 272.433 441.39 272.433C441.148 272.433 441.012 272.674 441.012 273.113V273.116C441.012 273.552 441.148 273.8 441.39 273.8Z" fill="white" fill-opacity="0.75"/>
<path d="M430.316 280.568V279.809H434.11V283.603H433.351V280.568H430.316Z" fill="white"/>
<path fill-rule="evenodd" clip-rule="evenodd" d="M433.73 280.758L429.557 284.931L428.988 284.362L433.161 280.188L433.73 280.758Z" fill="white"/>
<path d="M338.245 254.698V250.618H339.951C340.725 250.618 341.192 251.008 341.192 251.633V251.639C341.192 252.066 340.875 252.445 340.465 252.51V252.561C341.014 252.611 341.393 253.007 341.393 253.536V253.542C341.393 254.257 340.861 254.698 339.99 254.698H338.245ZM339.772 251.186H338.975V252.337H339.679C340.197 252.337 340.471 252.136 340.471 251.766V251.76C340.471 251.398 340.214 251.186 339.772 251.186ZM339.795 252.855H338.975V254.13H339.823C340.361 254.13 340.646 253.907 340.646 253.491V253.485C340.646 253.072 340.352 252.855 339.795 252.855ZM342.084 254.698V250.411H342.788V254.698H342.084ZM344.464 254.749C343.876 254.749 343.449 254.387 343.449 253.825V253.819C343.449 253.267 343.87 252.945 344.622 252.9L345.417 252.852V252.586C345.417 252.278 345.216 252.108 344.837 252.108C344.515 252.108 344.305 252.224 344.235 252.428L344.232 252.439H343.567L343.57 252.414C343.638 251.893 344.136 251.548 344.871 251.548C345.666 251.548 346.112 251.933 346.112 252.586V254.698H345.417V254.274H345.369C345.199 254.574 344.871 254.749 344.464 254.749ZM344.144 253.791C344.144 254.054 344.368 254.209 344.679 254.209C345.103 254.209 345.417 253.932 345.417 253.564V253.316L344.721 253.361C344.328 253.386 344.144 253.53 344.144 253.785V253.791ZM348.226 254.761C347.296 254.761 346.747 254.158 346.747 253.149V253.143C346.747 252.145 347.293 251.548 348.223 251.548C349.018 251.548 349.493 251.989 349.572 252.628V252.64H348.908L348.905 252.631C348.84 252.331 348.611 252.117 348.226 252.117C347.746 252.117 347.463 252.496 347.463 253.143V253.149C347.463 253.805 347.748 254.189 348.226 254.189C348.591 254.189 348.814 254.023 348.902 253.697L348.908 253.686L349.572 253.683L349.567 253.706C349.465 254.339 349.01 254.761 348.226 254.761ZM350.213 254.698V250.411H350.917V252.874H350.965L352.105 251.608H352.919L351.675 252.914L353.004 254.698H352.156L351.163 253.361L350.917 253.612V254.698H350.213ZM355.046 254.698V250.618H356.751C357.526 250.618 357.992 251.008 357.992 251.633V251.639C357.992 252.066 357.676 252.445 357.266 252.51V252.561C357.814 252.611 358.193 253.007 358.193 253.536V253.542C358.193 254.257 357.661 254.698 356.79 254.698H355.046ZM356.573 251.186H355.775V252.337H356.479C356.997 252.337 357.271 252.136 357.271 251.766V251.76C357.271 251.398 357.014 251.186 356.573 251.186ZM356.595 252.855H355.775V254.13H356.624C357.161 254.13 357.447 253.907 357.447 253.491V253.485C357.447 253.072 357.152 252.855 356.595 252.855ZM360.191 254.761C359.263 254.761 358.704 254.155 358.704 253.154V253.149C358.704 252.156 359.272 251.548 360.191 251.548C361.113 251.548 361.678 252.153 361.678 253.149V253.154C361.678 254.155 361.116 254.761 360.191 254.761ZM360.191 254.189C360.68 254.189 360.957 253.808 360.957 253.157V253.152C360.957 252.501 360.677 252.117 360.191 252.117C359.702 252.117 359.422 252.501 359.422 253.152V253.157C359.422 253.808 359.702 254.189 360.191 254.189ZM363.662 254.761C362.735 254.761 362.175 254.155 362.175 253.154V253.149C362.175 252.156 362.743 251.548 363.662 251.548C364.584 251.548 365.15 252.153 365.15 253.149V253.154C365.15 254.155 364.587 254.761 363.662 254.761ZM363.662 254.189C364.151 254.189 364.428 253.808 364.428 253.157V253.152C364.428 252.501 364.149 252.117 363.662 252.117C363.173 252.117 362.893 252.501 362.893 253.152V253.157C362.893 253.808 363.173 254.189 363.662 254.189ZM365.827 254.698V250.411H366.531V252.874H366.579L367.719 251.608H368.533L367.289 252.914L368.618 254.698H367.77L366.777 253.361L366.531 253.612V254.698H365.827ZM370.144 254.761C369.357 254.761 368.882 254.399 368.823 253.875V253.87H369.521L369.524 253.875C369.598 254.09 369.804 254.24 370.155 254.24C370.506 254.24 370.749 254.082 370.749 253.85V253.844C370.749 253.663 370.613 253.545 370.274 253.468L369.773 253.355C369.185 253.225 368.905 252.948 368.905 252.493V252.49C368.905 251.933 369.414 251.548 370.144 251.548C370.896 251.548 371.345 251.921 371.391 252.422V252.428H370.729L370.726 252.419C370.675 252.224 370.472 252.066 370.141 252.066C369.827 252.066 369.601 252.218 369.601 252.45V252.453C369.601 252.634 369.731 252.744 370.064 252.821L370.565 252.931C371.17 253.067 371.456 253.324 371.456 253.774V253.779C371.456 254.368 370.904 254.761 370.144 254.761Z" fill="white"/>
<path d="M338.774 261.698L337.926 258.627H338.542L339.094 260.997H339.139L339.772 258.627H340.355L340.988 260.997H341.036L341.585 258.627H342.193L341.348 261.698H340.717L340.081 259.408H340.033L339.399 261.698H338.774ZM343.992 261.758C343.092 261.758 342.549 261.144 342.549 260.171V260.169C342.549 259.21 343.104 258.568 343.96 258.568C344.817 258.568 345.343 259.187 345.343 260.109V260.324H343.166C343.177 260.912 343.499 261.254 344.006 261.254C344.399 261.254 344.633 261.059 344.707 260.901L344.718 260.878L345.309 260.875L345.304 260.901C345.202 261.305 344.778 261.758 343.992 261.758ZM343.963 259.071C343.545 259.071 343.228 259.357 343.174 259.886H344.735C344.687 259.337 344.379 259.071 343.963 259.071ZM347.362 261.758C346.463 261.758 345.92 261.144 345.92 260.171V260.169C345.92 259.21 346.474 258.568 347.331 258.568C348.188 258.568 348.714 259.187 348.714 260.109V260.324H346.537C346.548 260.912 346.87 261.254 347.376 261.254C347.769 261.254 348.004 261.059 348.078 260.901L348.089 260.878L348.68 260.875L348.674 260.901C348.573 261.305 348.148 261.758 347.362 261.758ZM347.334 259.071C346.915 259.071 346.599 259.357 346.545 259.886H348.106C348.058 259.337 347.75 259.071 347.334 259.071ZM349.472 261.698V257.423H350.085V259.923H350.131L351.349 258.627H352.068L350.787 259.923L352.153 261.698H351.406L350.348 260.318L350.085 260.581V261.698H349.472ZM352.741 261.698V257.423H353.354V261.698H352.741ZM354.567 262.779C354.491 262.779 354.401 262.773 354.321 262.764V262.281C354.381 262.289 354.457 262.292 354.528 262.292C354.813 262.292 354.983 262.171 355.076 261.86L355.122 261.701L354.008 258.627H354.669L355.438 261.082H355.492L356.258 258.627H356.903L355.761 261.817C355.501 262.552 355.19 262.779 354.567 262.779Z" fill="white" fill-opacity="0.7"/>
<path d="M340.583 286.264C339.129 286.264 338.178 285.5 338.089 284.393L338.084 284.335H339.365L339.374 284.384C339.432 284.842 339.885 285.184 340.579 285.184C341.268 285.184 341.712 284.815 341.712 284.29V284.281C341.712 283.668 341.254 283.33 340.481 283.33H339.747V282.374H340.463C341.134 282.374 341.57 282.018 341.57 281.498V281.489C341.57 280.969 341.201 280.658 340.57 280.658C339.943 280.658 339.516 280.982 339.463 281.48L339.458 281.52H338.227L338.231 281.467C338.32 280.356 339.223 279.626 340.57 279.626C341.952 279.626 342.842 280.302 342.842 281.311V281.32C342.842 282.121 342.255 282.641 341.503 282.796V282.823C342.455 282.912 343.077 283.463 343.077 284.335V284.344C343.077 285.491 342.081 286.264 340.583 286.264ZM347.341 286.153V280.969H347.314L345.678 282.081V280.889L347.337 279.738H348.671V286.153H347.341ZM352.574 286.264C351.178 286.264 350.253 285.451 350.173 284.379L350.169 284.313H351.409L351.418 284.344C351.512 284.828 351.961 285.202 352.579 285.202C353.281 285.202 353.775 284.722 353.775 284.037V284.028C353.77 283.352 353.277 282.876 352.583 282.876C352.254 282.876 351.974 282.974 351.756 283.148C351.627 283.245 351.525 283.37 351.449 283.503H350.28L350.573 279.738H354.668V280.805H351.64L351.485 282.61H351.512C351.778 282.178 352.307 281.916 352.957 281.916C354.175 281.916 355.055 282.792 355.055 284.001V284.01C355.055 285.353 354.041 286.264 352.574 286.264ZM358.336 286.264C356.709 286.264 355.722 284.988 355.722 282.948V282.939C355.722 280.898 356.709 279.626 358.336 279.626C359.964 279.626 360.951 280.898 360.951 282.939V282.948C360.951 284.988 359.964 286.264 358.336 286.264ZM358.336 285.188C359.137 285.188 359.595 284.357 359.595 282.948V282.939C359.595 281.529 359.137 280.702 358.336 280.702C357.536 280.702 357.078 281.529 357.078 282.939V282.948C357.078 284.357 357.536 285.188 358.336 285.188ZM361.275 287.491L361.6 285.033H362.827L362.173 287.491H361.275ZM366.206 286.264C364.659 286.264 363.529 285.175 363.529 283.001V282.992C363.529 280.889 364.547 279.626 366.219 279.626C367.46 279.626 368.393 280.342 368.584 281.334L368.593 281.378H367.268L367.255 281.338C367.095 280.951 366.739 280.689 366.215 280.689C365.277 280.689 364.868 281.583 364.819 282.716C364.814 282.805 364.81 282.894 364.81 282.961H364.836C365.09 282.365 365.721 281.929 366.588 281.929C367.829 281.929 368.678 282.81 368.678 284.01V284.019C368.678 285.331 367.633 286.264 366.206 286.264ZM365.014 284.05C365.014 284.695 365.53 285.197 366.188 285.197C366.842 285.197 367.371 284.699 367.371 284.068V284.059C367.371 283.392 366.868 282.921 366.201 282.921C365.53 282.921 365.014 283.388 365.014 284.041V284.05ZM372.092 286.264C370.465 286.264 369.478 284.988 369.478 282.948V282.939C369.478 280.898 370.465 279.626 372.092 279.626C373.72 279.626 374.707 280.898 374.707 282.939V282.948C374.707 284.988 373.72 286.264 372.092 286.264ZM372.092 285.188C372.893 285.188 373.351 284.357 373.351 282.948V282.939C373.351 281.529 372.893 280.702 372.092 280.702C371.292 280.702 370.834 281.529 370.834 282.939V282.948C370.834 284.357 371.292 285.188 372.092 285.188ZM377.259 283.752V283.308H378.028C378.019 283.192 378.015 283.068 378.015 282.943L378.01 282.934C378.01 282.801 378.019 282.676 378.028 282.552H377.259V282.107H378.095C378.419 280.591 379.673 279.822 381.389 279.822C381.718 279.822 382.052 279.858 382.274 279.915V280.982C382.061 280.942 381.714 280.916 381.438 280.916C380.438 280.916 379.722 281.307 379.446 282.107H381.865V282.552H379.344C379.326 282.676 379.322 282.805 379.322 282.939V282.948C379.322 283.077 379.326 283.197 379.34 283.308H381.865V283.752H379.437C379.704 284.57 380.424 284.962 381.438 284.962C381.714 284.962 382.061 284.939 382.274 284.899V285.966C382.052 286.024 381.718 286.06 381.389 286.06C379.664 286.06 378.41 285.282 378.09 283.752H377.259Z" fill="white"/>
<path d="M338.245 275.186V271.176H339.826C340.649 271.176 341.16 271.654 341.16 272.399V272.404C341.16 272.943 340.871 273.382 340.382 273.546L341.282 275.186H340.563L339.746 273.644H338.867V275.186H338.245ZM338.867 273.138H339.765C340.243 273.138 340.521 272.877 340.521 272.421V272.415C340.521 271.971 340.226 271.698 339.746 271.698H338.867V273.138ZM343.155 275.244C342.272 275.244 341.738 274.641 341.738 273.685V273.682C341.738 272.74 342.283 272.11 343.125 272.11C343.967 272.11 344.483 272.718 344.483 273.624V273.835H342.344C342.355 274.413 342.672 274.75 343.169 274.75C343.555 274.75 343.786 274.558 343.858 274.402L343.869 274.38L344.45 274.377L344.445 274.402C344.344 274.8 343.928 275.244 343.155 275.244ZM343.127 272.604C342.716 272.604 342.405 272.885 342.352 273.405H343.886C343.839 272.865 343.536 272.604 343.127 272.604ZM345.965 275.186L344.872 272.168H345.512L346.265 274.574H346.312L347.062 272.168H347.696L346.606 275.186H345.965ZM349.452 275.244C348.568 275.244 348.035 274.641 348.035 273.685V273.682C348.035 272.74 348.579 272.11 349.421 272.11C350.263 272.11 350.78 272.718 350.78 273.624V273.835H348.641C348.652 274.413 348.968 274.75 349.466 274.75C349.852 274.75 350.083 274.558 350.155 274.402L350.166 274.38L350.747 274.377L350.741 274.402C350.641 274.8 350.224 275.244 349.452 275.244ZM349.424 272.604C349.013 272.604 348.702 272.885 348.649 273.405H350.183C350.135 272.865 349.833 272.604 349.424 272.604ZM351.497 275.186V272.168H352.1V272.627H352.145C352.292 272.304 352.581 272.11 353.02 272.11C353.695 272.11 354.067 272.513 354.067 273.232V275.186H353.467V273.374C353.467 272.874 353.259 272.627 352.817 272.627C352.375 272.627 352.1 272.929 352.1 273.416V275.186H351.497ZM355.915 275.244C355.235 275.244 354.882 274.836 354.882 274.122V272.168H355.485V273.98C355.485 274.48 355.668 274.727 356.11 274.727C356.593 274.727 356.852 274.424 356.852 273.938V272.168H357.452V275.186H356.852V274.73H356.805C356.66 275.055 356.354 275.244 355.915 275.244ZM359.589 275.244C358.705 275.244 358.172 274.641 358.172 273.685V273.682C358.172 272.74 358.716 272.11 359.558 272.11C360.4 272.11 360.917 272.718 360.917 273.624V273.835H358.778C358.789 274.413 359.105 274.75 359.603 274.75C359.989 274.75 360.22 274.558 360.292 274.402L360.303 274.38L360.884 274.377L360.878 274.402C360.778 274.8 360.361 275.244 359.589 275.244ZM359.561 272.604C359.15 272.604 358.839 272.885 358.786 273.405H360.32C360.273 272.865 359.97 272.604 359.561 272.604Z" fill="white"/>
<path d="M438.329 247.691C435.773 247.691 433.748 249.664 433.748 252.082C433.748 254.5 435.806 256.473 438.329 256.473C440.852 256.473 442.91 254.5 442.91 252.082C442.943 249.664 440.852 247.691 438.329 247.691ZM438.329 253.705C437.399 253.705 436.603 252.973 436.603 252.082C436.603 251.191 437.366 250.459 438.329 250.459C439.292 250.459 440.055 251.191 440.055 252.082C440.022 252.973 439.292 253.705 438.329 253.705Z" fill="white" fill-opacity="0.7"/>
<path d="M433.747 248.996V255.391H432.121L430.03 248.996H433.747Z" fill="white" fill-opacity="0.7"/>
<g filter="url(#filter2_d_2647_20549)">
<rect x="386.12" y="185.046" width="81.38" height="81.38" rx="11.3774" fill="url(#paint2_linear_2647_20549)"/>
<rect x="386.12" y="185.046" width="81.38" height="81.38" rx="11.3774" fill="black" fill-opacity="0.07"/>
</g>
<path d="M393.715 200.447V195.268H395.879C396.863 195.268 397.455 195.763 397.455 196.556V196.563C397.455 197.105 397.053 197.586 396.532 197.669V197.733C397.229 197.798 397.71 198.3 397.71 198.972V198.979C397.71 199.887 397.035 200.447 395.929 200.447H393.715ZM395.653 195.989H394.641V197.45H395.535C396.191 197.45 396.54 197.195 396.54 196.725V196.718C396.54 196.258 396.213 195.989 395.653 195.989ZM395.682 198.107H394.641V199.725H395.718C396.4 199.725 396.762 199.442 396.762 198.914V198.907C396.762 198.383 396.389 198.107 395.682 198.107ZM398.587 200.447V195.006H399.481V200.447H398.587ZM401.608 200.511C400.861 200.511 400.319 200.052 400.319 199.338V199.331C400.319 198.631 400.854 198.221 401.809 198.164L402.817 198.103V197.766C402.817 197.374 402.562 197.159 402.081 197.159C401.672 197.159 401.407 197.306 401.317 197.565L401.313 197.579H400.47L400.473 197.547C400.56 196.886 401.191 196.448 402.124 196.448C403.133 196.448 403.7 196.937 403.7 197.766V200.447H402.817V199.908H402.756C402.541 200.289 402.124 200.511 401.608 200.511ZM401.202 199.295C401.202 199.628 401.486 199.826 401.88 199.826C402.419 199.826 402.817 199.474 402.817 199.007V198.692L401.934 198.749C401.435 198.781 401.202 198.964 401.202 199.287V199.295ZM406.383 200.526C405.202 200.526 404.506 199.761 404.506 198.48V198.473C404.506 197.206 405.199 196.448 406.379 196.448C407.388 196.448 407.991 197.008 408.091 197.82V197.834H407.248L407.244 197.823C407.162 197.443 406.871 197.17 406.383 197.17C405.773 197.17 405.414 197.651 405.414 198.473V198.48C405.414 199.313 405.776 199.801 406.383 199.801C406.846 199.801 407.129 199.589 407.241 199.176L407.248 199.162L408.091 199.158L408.084 199.187C407.955 199.991 407.377 200.526 406.383 200.526ZM408.904 200.447V195.006H409.798V198.132H409.859L411.305 196.524H412.339L410.76 198.182L412.447 200.447H411.37L410.11 198.749L409.798 199.069V200.447H408.904ZM415.038 200.447V195.268H417.202C418.186 195.268 418.778 195.763 418.778 196.556V196.563C418.778 197.105 418.376 197.586 417.856 197.669V197.733C418.552 197.798 419.033 198.3 419.033 198.972V198.979C419.033 199.887 418.358 200.447 417.253 200.447H415.038ZM416.976 195.989H415.964V197.45H416.858C417.515 197.45 417.863 197.195 417.863 196.725V196.718C417.863 196.258 417.536 195.989 416.976 195.989ZM417.005 198.107H415.964V199.725H417.041C417.723 199.725 418.085 199.442 418.085 198.914V198.907C418.085 198.383 417.712 198.107 417.005 198.107ZM421.569 200.526C420.391 200.526 419.681 199.758 419.681 198.487V198.48C419.681 197.22 420.402 196.448 421.569 196.448C422.739 196.448 423.456 197.217 423.456 198.48V198.487C423.456 199.758 422.742 200.526 421.569 200.526ZM421.569 199.801C422.19 199.801 422.541 199.316 422.541 198.491V198.483C422.541 197.658 422.186 197.17 421.569 197.17C420.948 197.17 420.592 197.658 420.592 198.483V198.491C420.592 199.316 420.948 199.801 421.569 199.801ZM425.974 200.526C424.797 200.526 424.086 199.758 424.086 198.487V198.48C424.086 197.22 424.808 196.448 425.974 196.448C427.144 196.448 427.862 197.217 427.862 198.48V198.487C427.862 199.758 427.148 200.526 425.974 200.526ZM425.974 199.801C426.595 199.801 426.947 199.316 426.947 198.491V198.483C426.947 197.658 426.592 197.17 425.974 197.17C425.353 197.17 424.998 197.658 424.998 198.483V198.491C424.998 199.316 425.353 199.801 425.974 199.801ZM428.722 200.447V195.006H429.616V198.132H429.677L431.123 196.524H432.157L430.577 198.182L432.264 200.447H431.188L429.928 198.749L429.616 199.069V200.447H428.722ZM434.201 200.526C433.203 200.526 432.6 200.066 432.525 199.402V199.395H433.411L433.415 199.402C433.508 199.675 433.77 199.865 434.215 199.865C434.66 199.865 434.969 199.664 434.969 199.37V199.363C434.969 199.133 434.796 198.982 434.366 198.885L433.73 198.742C432.984 198.577 432.629 198.225 432.629 197.647V197.644C432.629 196.937 433.275 196.448 434.201 196.448C435.155 196.448 435.726 196.922 435.783 197.558V197.565H434.944L434.94 197.554C434.875 197.306 434.617 197.105 434.197 197.105C433.799 197.105 433.512 197.299 433.512 197.593V197.597C433.512 197.827 433.677 197.967 434.1 198.064L434.735 198.204C435.503 198.376 435.866 198.702 435.866 199.273V199.28C435.866 200.027 435.166 200.526 434.201 200.526Z" fill="white"/>
<path d="M395.108 209.472C394.25 209.472 393.898 209.17 393.898 208.42V206.163H393.288V205.549H393.898V204.566H394.691V205.549H395.528V206.163H394.691V208.234C394.691 208.654 394.849 208.826 395.233 208.826C395.352 208.826 395.42 208.822 395.528 208.811V209.432C395.402 209.454 395.258 209.472 395.108 209.472ZM398.043 209.522C396.899 209.522 396.199 208.758 396.199 207.501V207.494C396.199 206.242 396.902 205.474 398.043 205.474C399.181 205.474 399.885 206.238 399.885 207.494V207.501C399.885 208.758 399.185 209.522 398.043 209.522ZM398.043 208.872C398.711 208.872 399.091 208.363 399.091 207.501V207.494C399.091 206.629 398.711 206.123 398.043 206.123C397.372 206.123 396.995 206.629 396.995 207.494V207.501C396.995 208.366 397.372 208.872 398.043 208.872ZM402.236 209.511C401.256 209.511 400.62 208.725 400.62 207.501V207.494C400.62 206.26 401.245 205.481 402.236 205.481C402.77 205.481 403.226 205.746 403.434 206.166H403.495V204.02H404.271V209.447H403.495V208.833H403.434C403.208 209.26 402.781 209.511 402.236 209.511ZM402.458 208.847C403.108 208.847 403.506 208.334 403.506 207.501V207.494C403.506 206.662 403.104 206.148 402.458 206.148C401.805 206.148 401.414 206.658 401.414 207.494V207.501C401.414 208.338 401.805 208.847 402.458 208.847ZM406.499 209.511C405.756 209.511 405.207 209.059 405.207 208.352V208.345C405.207 207.649 405.731 207.243 406.661 207.186L407.716 207.125V206.78C407.716 206.353 407.447 206.116 406.919 206.116C406.489 206.116 406.205 206.274 406.112 206.55L406.108 206.565H405.358L405.362 206.54C405.455 205.901 406.069 205.474 406.955 205.474C407.935 205.474 408.488 205.962 408.488 206.78V209.447H407.716V208.894H407.655C407.425 209.289 407.016 209.511 406.499 209.511ZM405.983 208.32C405.983 208.679 406.288 208.89 406.708 208.89C407.289 208.89 407.716 208.51 407.716 208.007V207.674L406.765 207.735C406.227 207.767 405.983 207.961 405.983 208.313V208.32ZM409.837 210.818C409.74 210.818 409.625 210.811 409.525 210.8V210.186C409.6 210.197 409.697 210.2 409.787 210.2C410.149 210.2 410.365 210.046 410.483 209.651L410.541 209.45L409.127 205.549H409.966L410.943 208.664H411.011L411.983 205.549H412.802L411.352 209.597C411.022 210.531 410.627 210.818 409.837 210.818Z" fill="white" fill-opacity="0.7"/>
<path d="M395.709 243.138C394.329 243.138 393.503 242.158 393.503 240.622V240.615C393.503 239.072 394.349 238.102 395.709 238.102C397.075 238.102 397.915 239.075 397.915 240.615V240.622C397.915 242.155 397.082 243.138 395.709 243.138ZM395.709 242.585C396.696 242.585 397.302 241.811 397.302 240.622V240.615C397.302 239.415 396.692 238.655 395.709 238.655C394.729 238.655 394.116 239.415 394.116 240.615V240.622C394.116 241.811 394.709 242.585 395.709 242.585ZM398.882 243.024V239.432H399.462V239.965H399.515C399.652 239.588 399.988 239.368 400.475 239.368C400.585 239.368 400.708 239.382 400.765 239.392V239.955C400.645 239.935 400.535 239.922 400.408 239.922C399.855 239.922 399.462 240.272 399.462 240.798V243.024H398.882ZM402.708 243.088C401.798 243.088 401.201 242.351 401.201 241.231V241.225C401.201 240.098 401.795 239.368 402.708 239.368C403.201 239.368 403.631 239.615 403.828 239.998H403.881V238.005H404.461V243.024H403.881V242.451H403.828C403.608 242.851 403.208 243.088 402.708 243.088ZM402.841 242.575C403.494 242.575 403.894 242.061 403.894 241.231V241.225C403.894 240.395 403.494 239.882 402.841 239.882C402.185 239.882 401.795 240.388 401.795 241.225V241.231C401.795 242.068 402.185 242.575 402.841 242.575ZM407.04 243.088C406.014 243.088 405.394 242.368 405.394 241.241V241.238C405.394 240.128 406.027 239.368 407.004 239.368C407.98 239.368 408.573 240.095 408.573 241.168V241.395H405.987C406.004 242.138 406.414 242.571 407.054 242.571C407.54 242.571 407.84 242.341 407.937 242.125L407.95 242.095H408.53L408.523 242.121C408.4 242.608 407.887 243.088 407.04 243.088ZM407 239.885C406.467 239.885 406.06 240.248 405.997 240.932H407.983C407.923 240.222 407.53 239.885 407 239.885ZM409.473 243.024V239.432H410.053V239.965H410.106C410.243 239.588 410.58 239.368 411.066 239.368C411.176 239.368 411.3 239.382 411.356 239.392V239.955C411.236 239.935 411.126 239.922 411 239.922C410.446 239.922 410.053 240.272 410.053 240.798V243.024H409.473ZM413.239 243.088C412.439 243.088 411.889 242.701 411.823 242.108H412.416C412.513 242.408 412.799 242.605 413.259 242.605C413.742 242.605 414.086 242.375 414.086 242.048V242.041C414.086 241.798 413.902 241.628 413.459 241.521L412.903 241.388C412.229 241.228 411.926 240.935 411.926 240.418V240.415C411.926 239.818 412.499 239.368 413.262 239.368C414.016 239.368 414.539 239.745 414.619 240.332H414.049C413.972 240.048 413.692 239.852 413.259 239.852C412.833 239.852 412.519 240.072 412.519 240.388V240.395C412.519 240.638 412.699 240.792 413.123 240.895L413.676 241.028C414.352 241.191 414.679 241.485 414.679 241.998V242.005C414.679 242.645 414.056 243.088 413.239 243.088Z" fill="white"/>
<path d="M393.689 255.625V250.816H395.526C396.452 250.816 397.059 251.382 397.059 252.246V252.252C397.059 252.919 396.696 253.439 396.092 253.629L397.205 255.625H396.502L395.472 253.722H394.289V255.625H393.689ZM394.289 253.189H395.472C396.089 253.189 396.439 252.859 396.439 252.272V252.266C396.439 251.692 396.066 251.349 395.446 251.349H394.289V253.189ZM399.442 255.688C398.415 255.688 397.795 254.968 397.795 253.842V253.839C397.795 252.729 398.429 251.969 399.405 251.969C400.382 251.969 400.975 252.695 400.975 253.769V253.995H398.389C398.405 254.738 398.815 255.172 399.455 255.172C399.942 255.172 400.242 254.942 400.338 254.725L400.352 254.695H400.931L400.925 254.722C400.801 255.208 400.288 255.688 399.442 255.688ZM399.402 252.486C398.868 252.486 398.462 252.849 398.399 253.532H400.385C400.325 252.822 399.932 252.486 399.402 252.486ZM402.115 255.625V252.512H401.518V252.032H402.115V251.632C402.115 250.916 402.474 250.573 403.158 250.573C403.298 250.573 403.424 250.583 403.544 250.606V251.069C403.474 251.056 403.378 251.052 403.274 251.052C402.861 251.052 402.694 251.256 402.694 251.649V252.032H403.511V252.512H402.694V255.625H402.115ZM405.551 255.688C404.734 255.688 404.314 255.208 404.314 254.359V252.032H404.894V254.219C404.894 254.865 405.127 255.175 405.701 255.175C406.334 255.175 406.67 254.788 406.67 254.159V252.032H407.25V255.625H406.67V255.088H406.617C406.44 255.472 406.077 255.688 405.551 255.688ZM408.333 255.625V252.032H408.913V252.572H408.967C409.147 252.192 409.483 251.969 410.013 251.969C410.82 251.969 411.27 252.446 411.27 253.299V255.625H410.69V253.439C410.69 252.792 410.423 252.482 409.85 252.482C409.277 252.482 408.913 252.869 408.913 253.499V255.625H408.333ZM413.646 255.688C412.736 255.688 412.139 254.952 412.139 253.832V253.825C412.139 252.699 412.733 251.969 413.646 251.969C414.139 251.969 414.569 252.216 414.766 252.599H414.819V250.606H415.399V255.625H414.819V255.052H414.766C414.546 255.452 414.146 255.688 413.646 255.688ZM413.779 255.175C414.432 255.175 414.832 254.662 414.832 253.832V253.825C414.832 252.995 414.432 252.482 413.779 252.482C413.123 252.482 412.733 252.989 412.733 253.825V253.832C412.733 254.668 413.123 255.175 413.779 255.175ZM417.745 255.688C416.945 255.688 416.395 255.302 416.329 254.708H416.922C417.018 255.008 417.305 255.205 417.765 255.205C418.248 255.205 418.592 254.975 418.592 254.648V254.642C418.592 254.398 418.408 254.229 417.965 254.122L417.408 253.989C416.735 253.829 416.432 253.535 416.432 253.019V253.015C416.432 252.419 417.005 251.969 417.768 251.969C418.522 251.969 419.045 252.346 419.125 252.932H418.555C418.478 252.649 418.198 252.452 417.765 252.452C417.338 252.452 417.025 252.672 417.025 252.989V252.995C417.025 253.239 417.205 253.392 417.628 253.495L418.182 253.629C418.858 253.792 419.185 254.085 419.185 254.598V254.605C419.185 255.245 418.562 255.688 417.745 255.688Z" fill="white"/>
<path d="M456.103 243.024V238.882H456.05L454.827 239.768V239.135L456.107 238.215H456.703V243.024H456.103ZM458.093 243.024V242.611L459.719 240.852C460.333 240.188 460.513 239.938 460.513 239.518V239.512C460.513 239.005 460.169 238.625 459.603 238.625C459.026 238.625 458.643 239.002 458.643 239.568L458.64 239.575L458.066 239.572L458.06 239.568C458.063 238.715 458.723 238.102 459.643 238.102C460.483 238.102 461.126 238.672 461.126 239.448V239.455C461.126 240.005 460.889 240.405 460.019 241.301L458.926 242.431V242.485H461.206V243.024H458.093Z" fill="white"/>
<path d="M459.897 255.625V251.482H459.844L458.621 252.369V251.736L459.9 250.816H460.497V255.625H459.897Z" fill="white"/>
<path d="M396.827 225.589C394.887 225.589 393.544 224.624 393.544 223.226V223.214C393.544 222.16 394.328 221.381 395.422 221.167V221.133C394.481 220.902 393.843 220.219 393.843 219.351V219.34C393.843 218.082 395.067 217.168 396.827 217.168C398.581 217.168 399.81 218.082 399.81 219.34V219.351C399.81 220.219 399.167 220.902 398.231 221.133V221.167C399.32 221.381 400.104 222.16 400.104 223.214V223.226C400.104 224.624 398.767 225.589 396.827 225.589ZM396.827 220.62C397.594 220.62 398.124 220.163 398.124 219.509V219.498C398.124 218.849 397.588 218.398 396.827 218.398C396.065 218.398 395.524 218.849 395.524 219.498V219.509C395.524 220.163 396.06 220.62 396.827 220.62ZM396.827 224.348C397.712 224.348 398.338 223.829 398.338 223.113V223.101C398.338 222.38 397.724 221.855 396.827 221.855C395.93 221.855 395.31 222.38 395.31 223.101V223.113C395.31 223.829 395.936 224.348 396.827 224.348ZM401.347 225.448V224.28L404.223 221.59C405.272 220.609 405.492 220.208 405.492 219.644V219.633C405.487 218.967 404.979 218.494 404.257 218.494C403.422 218.494 402.858 219.041 402.836 219.774L402.83 219.825H401.251V219.779C401.251 218.245 402.526 217.168 404.246 217.168C405.966 217.168 407.15 218.15 407.15 219.537V219.548C407.15 220.535 406.682 221.178 405.278 222.47L403.575 224.026V224.094H407.263V225.448H401.347ZM408.935 225.448L412.438 218.697V218.663H408.298V217.309H414.118V218.68L410.723 225.448H408.935ZM413.89 227.145L414.301 224.026H415.858L415.029 227.145H413.89ZM420.305 225.589C418.534 225.589 417.361 224.557 417.259 223.197L417.254 223.113H418.827L418.838 223.152C418.957 223.767 419.526 224.241 420.31 224.241C421.202 224.241 421.828 223.632 421.828 222.763V222.752C421.822 221.894 421.196 221.291 420.316 221.291C419.899 221.291 419.543 221.415 419.267 221.635C419.103 221.759 418.974 221.917 418.878 222.086H417.395L417.767 217.309H422.961V218.663H419.12L418.923 220.953H418.957C419.295 220.406 419.966 220.073 420.79 220.073C422.335 220.073 423.452 221.184 423.452 222.718V222.729C423.452 224.432 422.166 225.589 420.305 225.589ZM427.808 225.589C425.744 225.589 424.492 223.97 424.492 221.381V221.37C424.492 218.781 425.744 217.168 427.808 217.168C429.873 217.168 431.125 218.781 431.125 221.37V221.381C431.125 223.97 429.873 225.589 427.808 225.589ZM427.808 224.224C428.824 224.224 429.405 223.169 429.405 221.381V221.37C429.405 219.582 428.824 218.533 427.808 218.533C426.793 218.533 426.212 219.582 426.212 221.37V221.381C426.212 223.169 426.793 224.224 427.808 224.224ZM434.751 222.402V221.838H435.726C435.715 221.691 435.709 221.534 435.709 221.376L435.704 221.364C435.704 221.195 435.715 221.037 435.726 220.879H434.751V220.315H435.811C436.223 218.392 437.813 217.416 439.99 217.416C440.408 217.416 440.831 217.461 441.113 217.535V218.888C440.842 218.838 440.402 218.804 440.052 218.804C438.783 218.804 437.875 219.3 437.526 220.315H440.594V220.879H437.396C437.373 221.037 437.368 221.201 437.368 221.37V221.381C437.368 221.545 437.373 221.697 437.39 221.838H440.594V222.402H437.514C437.853 223.44 438.766 223.936 440.052 223.936C440.402 223.936 440.842 223.908 441.113 223.857V225.211C440.831 225.284 440.408 225.329 439.99 225.329C437.802 225.329 436.211 224.342 435.805 222.402H434.751Z" fill="white"/>
<path d="M458.219 190.664C456.11 190.664 454.439 192.322 454.439 194.356C454.439 196.389 456.137 198.048 458.219 198.048C460.301 198.048 462 196.389 462 194.356C462.027 192.322 460.301 190.664 458.219 190.664ZM458.219 195.72C457.452 195.72 456.795 195.105 456.795 194.356C456.795 193.607 457.425 192.991 458.219 192.991C459.014 192.991 459.644 193.607 459.644 194.356C459.616 195.105 459.014 195.72 458.219 195.72Z" fill="white" fill-opacity="0.7"/>
<path d="M454.439 191.761V197.138H453.097L451.371 191.761H454.439Z" fill="white" fill-opacity="0.7"/>
<rect x="320.133" y="58.8883" width="186.36" height="38.1104" rx="8.88774" fill="white"/>
<path opacity="0.25" d="M339.188 88.5293C345.035 88.5293 349.774 83.7897 349.774 77.9431C349.774 72.0965 345.035 67.3569 339.188 67.3569C333.342 67.3569 328.602 72.0965 328.602 77.9431C328.602 83.7897 333.342 88.5293 339.188 88.5293Z" fill="#09152F"/>
<path fill-rule="evenodd" clip-rule="evenodd" d="M333.895 77.5172C333.897 77.4649 333.9 77.4128 333.903 77.361L337.109 79.2799L343.899 75.2161C344.158 75.7433 344.333 76.3125 344.42 76.8989C344.454 77.1285 344.474 77.3574 344.48 77.5842C344.481 77.6323 344.481 77.6806 344.481 77.7289C344.481 77.9876 344.464 78.2423 344.431 78.4915C344.418 78.5927 344.401 78.6932 344.382 78.7928C344.236 79.5663 343.932 80.2916 343.499 80.9232C343.089 81.5239 342.562 82.0396 341.947 82.4309C341.311 82.8356 340.593 83.0955 339.854 83.1937C339.679 83.2171 339.505 83.2311 339.332 83.2362H339.037C338.713 83.2268 338.397 83.1874 338.09 83.1202C337.873 83.0714 337.658 83.0094 337.451 82.9343C336.976 82.7623 336.525 82.5198 336.116 82.2172C335.51 81.7674 334.994 81.186 334.612 80.5045C334.311 79.969 334.093 79.372 333.98 78.7278C333.933 78.466 333.905 78.2014 333.895 77.9362V77.5172V77.5172ZM341.239 72.65H341.239C341.452 72.7435 341.659 72.8514 341.858 72.9726L337.109 75.8147L334.901 74.4925C335.016 74.3284 335.139 74.1708 335.27 74.0208L337.109 75.1217L341.239 72.65V72.65ZM337.109 76.5081L334.587 74.9984C334.492 75.1727 334.405 75.3524 334.328 75.5365L337.109 77.2005L342.858 73.76C342.711 73.6128 342.555 73.4742 342.393 73.3455L337.109 76.5081V76.5081ZM337.109 77.8932L334.125 76.1076C334.084 76.2443 334.049 76.3831 334.019 76.5235C334.005 76.5869 333.992 76.6505 333.981 76.7145L337.109 78.5873L343.608 74.6971C343.544 74.5966 343.477 74.4982 343.407 74.4021C343.377 74.3601 343.345 74.3185 343.313 74.2777C343.296 74.2554 343.279 74.2334 343.261 74.2114L337.109 77.8932V77.8932Z" fill="white"/>
<path d="M361.051 75.5062C359.666 75.5062 358.785 74.8239 358.711 73.7942L358.707 73.7363H359.741L359.745 73.7776C359.794 74.278 360.328 74.6088 361.085 74.6088C361.804 74.6088 362.309 74.2532 362.309 73.7404V73.7363C362.309 73.3062 361.998 73.0457 361.229 72.8803L360.588 72.748C359.368 72.4916 358.839 71.9209 358.839 71.0318V71.0277C358.839 69.9608 359.757 69.2413 361.047 69.2413C362.371 69.2413 363.194 69.9649 363.268 70.9243L363.272 70.9781H362.251L362.242 70.9285C362.168 70.4653 361.726 70.1345 361.043 70.1386C360.382 70.1386 359.91 70.4488 359.91 70.9574V70.9615C359.91 71.3833 360.212 71.648 360.956 71.8051L361.597 71.9416C362.854 72.2062 363.38 72.7107 363.38 73.6122V73.6164C363.38 74.7784 362.482 75.5062 361.051 75.5062ZM365.799 75.4483C364.782 75.4483 364.261 74.8363 364.261 73.7611V70.8375H365.29V73.5254C365.29 74.2242 365.551 74.5799 366.171 74.5799C366.837 74.5799 367.192 74.1498 367.192 73.4716V70.8375H368.222V75.3573H367.192V74.6708H367.122C366.911 75.1547 366.452 75.4483 365.799 75.4483ZM371.249 75.4483C369.889 75.4483 369.087 74.5675 369.087 73.0912V73.0829C369.087 71.6232 369.885 70.7506 371.245 70.7506C372.407 70.7506 373.102 71.3957 373.218 72.3303V72.3468H372.246L372.242 72.3344C372.147 71.8961 371.812 71.5818 371.249 71.5818C370.546 71.5818 370.133 72.1359 370.133 73.0829V73.0912C370.133 74.0506 370.55 74.613 371.249 74.613C371.783 74.613 372.109 74.369 372.238 73.8934L372.246 73.8769L373.218 73.8727L373.209 73.9058C373.061 74.8321 372.395 75.4483 371.249 75.4483ZM375.968 75.4483C374.607 75.4483 373.805 74.5675 373.805 73.0912V73.0829C373.805 71.6232 374.603 70.7506 375.964 70.7506C377.126 70.7506 377.82 71.3957 377.936 72.3303V72.3468H376.964L376.96 72.3344C376.865 71.8961 376.53 71.5818 375.968 71.5818C375.265 71.5818 374.851 72.1359 374.851 73.0829V73.0912C374.851 74.0506 375.269 74.613 375.968 74.613C376.501 74.613 376.828 74.369 376.956 73.8934L376.964 73.8769L377.936 73.8727L377.928 73.9058C377.779 74.8321 377.113 75.4483 375.968 75.4483ZM380.682 75.4483C379.338 75.4483 378.524 74.5468 378.524 73.1077V73.1036C378.524 71.6811 379.346 70.7506 380.633 70.7506C381.919 70.7506 382.713 71.6521 382.713 73.0168V73.3558H379.553C379.566 74.1663 380.004 74.6378 380.703 74.6378C381.261 74.6378 381.579 74.3566 381.679 74.1498L381.691 74.1209H382.671L382.659 74.1581C382.514 74.7411 381.91 75.4483 380.682 75.4483ZM380.645 71.557C380.07 71.557 379.64 71.9457 379.561 72.6653H381.708C381.637 71.925 381.22 71.557 380.645 71.557ZM385.281 75.4483C384.131 75.4483 383.436 74.919 383.35 74.1539V74.1457H384.371L384.375 74.1539C384.483 74.4682 384.784 74.6874 385.297 74.6874C385.81 74.6874 386.166 74.4558 386.166 74.1167V74.1085C386.166 73.8438 385.967 73.6701 385.471 73.5585L384.739 73.3931C383.879 73.2028 383.469 72.7976 383.469 72.1318V72.1277C383.469 71.313 384.214 70.7506 385.281 70.7506C386.381 70.7506 387.038 71.2965 387.104 72.0284V72.0367H386.137L386.133 72.0243C386.058 71.739 385.76 71.5074 385.277 71.5074C384.818 71.5074 384.487 71.7307 384.487 72.0698V72.0739C384.487 72.3386 384.677 72.4998 385.165 72.6115L385.897 72.7728C386.782 72.9713 387.199 73.3476 387.199 74.0051V74.0133C387.199 74.8735 386.393 75.4483 385.281 75.4483ZM389.693 75.4483C388.544 75.4483 387.849 74.919 387.762 74.1539V74.1457H388.783L388.788 74.1539C388.895 74.4682 389.197 74.6874 389.71 74.6874C390.222 74.6874 390.578 74.4558 390.578 74.1167V74.1085C390.578 73.8438 390.38 73.6701 389.883 73.5585L389.151 73.3931C388.291 73.2028 387.882 72.7976 387.882 72.1318V72.1277C387.882 71.313 388.626 70.7506 389.693 70.7506C390.793 70.7506 391.451 71.2965 391.517 72.0284V72.0367H390.549L390.545 72.0243C390.471 71.739 390.173 71.5074 389.689 71.5074C389.23 71.5074 388.899 71.7307 388.899 72.0698V72.0739C388.899 72.3386 389.089 72.4998 389.577 72.6115L390.309 72.7728C391.194 72.9713 391.612 73.3476 391.612 74.0051V74.0133C391.612 74.8735 390.806 75.4483 389.693 75.4483ZM392.811 75.3573V71.6356H392.071V70.8375H392.811V70.3909C392.811 69.4894 393.266 69.0469 394.275 69.0469C394.494 69.0469 394.68 69.0593 394.846 69.0883V69.8078C394.767 69.7954 394.639 69.7871 394.494 69.7871C394.011 69.7871 393.824 70.0187 393.824 70.4488V70.8375H394.804V71.6356H393.841V75.3573H392.811ZM397.125 75.4483C396.107 75.4483 395.586 74.8363 395.586 73.7611V70.8375H396.616V73.5254C396.616 74.2242 396.876 74.5799 397.497 74.5799C398.162 74.5799 398.518 74.1498 398.518 73.4716V70.8375H399.548V75.3573H398.518V74.6708H398.448C398.237 75.1547 397.778 75.4483 397.125 75.4483ZM400.677 75.3573V69.0883H401.707V75.3573H400.677ZM404.928 76.8584V70.8375H405.958V71.5446H406.028C406.276 71.0525 406.768 70.763 407.401 70.763C408.534 70.763 409.258 71.6645 409.258 73.0953V73.1036C409.258 74.5427 408.547 75.4317 407.401 75.4317C406.781 75.4317 406.264 75.1257 406.028 74.6378H405.958V76.8584H404.928ZM407.079 74.5633C407.782 74.5633 408.207 74.0092 408.207 73.1036V73.0953C408.207 72.1856 407.782 71.6314 407.079 71.6314C406.38 71.6314 405.946 72.1856 405.946 73.0912V73.0995C405.946 74.0051 406.38 74.5633 407.079 74.5633ZM411.359 75.4317C410.499 75.4317 409.874 74.9024 409.874 74.0795V74.0712C409.874 73.2649 410.49 72.7934 411.59 72.7273L412.752 72.657V72.2683C412.752 71.8175 412.459 71.5694 411.905 71.5694C411.433 71.5694 411.127 71.739 411.024 72.0367L411.02 72.0532H410.048L410.052 72.016C410.151 71.2551 410.879 70.7506 411.954 70.7506C413.116 70.7506 413.77 71.313 413.77 72.2683V75.3573H412.752V74.737H412.682C412.434 75.1753 411.954 75.4317 411.359 75.4317ZM410.891 74.0299C410.891 74.4145 411.218 74.6419 411.673 74.6419C412.293 74.6419 412.752 74.2366 412.752 73.6991V73.3352L411.735 73.4013C411.16 73.4385 410.891 73.6494 410.891 74.0216V74.0299ZM415.18 76.9452C415.056 76.9452 414.911 76.9411 414.787 76.9287V76.1389C414.87 76.1471 414.985 76.1513 415.093 76.1513C415.515 76.1513 415.767 75.9776 415.879 75.5682L415.932 75.3614L414.316 70.8375H415.44L416.495 74.369H416.573L417.624 70.8375H418.707L417.086 75.4524C416.697 76.5855 416.181 76.9452 415.18 76.9452ZM419.423 75.3573V70.8375H420.452V71.5405H420.523C420.717 71.036 421.172 70.7506 421.763 70.7506C422.375 70.7506 422.822 71.0649 423.016 71.5653H423.087C423.306 71.0732 423.827 70.7506 424.455 70.7506C425.365 70.7506 425.911 71.3089 425.911 72.2476V75.3573H424.881V72.4998C424.881 71.9126 424.612 71.6149 424.062 71.6149C423.525 71.6149 423.178 72.016 423.178 72.5329V75.3573H422.148V72.4254C422.148 71.925 421.838 71.6149 421.333 71.6149C420.825 71.6149 420.452 72.045 420.452 72.6074V75.3573H419.423ZM428.897 75.4483C427.553 75.4483 426.738 74.5468 426.738 73.1077V73.1036C426.738 71.6811 427.561 70.7506 428.847 70.7506C430.133 70.7506 430.927 71.6521 430.927 73.0168V73.3558H427.768C427.78 74.1663 428.219 74.6378 428.917 74.6378C429.476 74.6378 429.794 74.3566 429.893 74.1498L429.906 74.1209H430.886L430.873 74.1581C430.729 74.7411 430.125 75.4483 428.897 75.4483ZM428.86 71.557C428.285 71.557 427.855 71.9457 427.776 72.6653H429.922C429.852 71.925 429.434 71.557 428.86 71.557ZM431.787 75.3573V70.8375H432.817V71.5281H432.887C433.102 71.0442 433.537 70.7506 434.19 70.7506C435.199 70.7506 435.749 71.3585 435.749 72.4337V75.3573H434.719V72.6735C434.719 71.9705 434.434 71.6149 433.81 71.6149C433.198 71.6149 432.817 72.045 432.817 72.7231V75.3573H431.787ZM438.574 75.378C437.536 75.378 437.11 75.0306 437.11 74.1581V71.6356H436.407V70.8375H437.11V69.7292H438.156V70.8375H439.111V71.6356H438.156V73.9141C438.156 74.3648 438.334 74.5551 438.764 74.5551C438.909 74.5551 438.987 74.5509 439.111 74.5385V75.3325C438.962 75.3614 438.772 75.378 438.574 75.378Z" fill="black"/>
<path d="M360.122 86.1062V81.8022H358.559V81.2579H362.289V81.8022H360.727V86.1062H360.122ZM363.923 86.17C362.892 86.17 362.253 85.4577 362.253 84.2986V84.2919C362.253 83.1293 362.892 82.4204 363.923 82.4204C364.955 82.4204 365.593 83.1293 365.593 84.2919V84.2986C365.593 85.4577 364.955 86.17 363.923 86.17ZM363.923 85.6526C364.609 85.6526 364.995 85.152 364.995 84.2986V84.2919C364.995 83.4351 364.609 82.9378 363.923 82.9378C363.238 82.9378 362.851 83.4351 362.851 84.2919V84.2986C362.851 85.152 363.238 85.6526 363.923 85.6526ZM367.795 86.17C366.878 86.17 366.276 85.4275 366.276 84.2986V84.2919C366.276 83.1562 366.875 82.4204 367.795 82.4204C368.292 82.4204 368.726 82.669 368.924 83.0554H368.978V81.0462H369.562V86.1062H368.978V85.5283H368.924C368.702 85.9315 368.299 86.17 367.795 86.17ZM367.93 85.6526C368.588 85.6526 368.991 85.1352 368.991 84.2986V84.2919C368.991 83.4553 368.588 82.9378 367.93 82.9378C367.268 82.9378 366.875 83.4485 366.875 84.2919V84.2986C366.875 85.1419 367.268 85.6526 367.93 85.6526ZM371.637 86.17C370.948 86.17 370.427 85.7534 370.427 85.0949V85.0882C370.427 84.4431 370.904 84.0701 371.748 84.0197L372.786 83.9559V83.6266C372.786 83.1797 372.514 82.9378 371.973 82.9378C371.539 82.9378 371.254 83.0991 371.16 83.3813L371.156 83.3914H370.572L370.575 83.3713C370.669 82.8034 371.22 82.4204 371.993 82.4204C372.877 82.4204 373.37 82.874 373.37 83.6266V86.1062H372.786V85.572H372.732C372.504 85.9584 372.124 86.17 371.637 86.17ZM371.025 85.0814C371.025 85.4477 371.338 85.6627 371.758 85.6627C372.352 85.6627 372.786 85.2729 372.786 84.7555V84.4263L371.818 84.4867C371.267 84.5203 371.025 84.7152 371.025 85.0747V85.0814ZM374.571 87.3762C374.494 87.3762 374.393 87.3695 374.313 87.3561V86.8756C374.383 86.8891 374.474 86.8924 374.555 86.8924C374.887 86.8924 375.089 86.7412 375.22 86.3246L375.287 86.1096L373.946 82.4842H374.571L375.566 85.4645H375.62L376.611 82.4842H377.226L375.811 86.328C375.512 87.141 375.213 87.3762 374.571 87.3762ZM377.304 87.3393L377.597 85.4275H378.265L377.738 87.3393H377.304ZM383.056 86.2204C382.169 86.2204 381.231 85.5955 381.231 83.7711V83.7644C381.231 82.1113 381.92 81.1437 383.096 81.1437C383.909 81.1437 384.514 81.6208 384.678 82.3364L384.689 82.3801H384.08L384.067 82.3431C383.919 81.9366 383.58 81.6846 383.089 81.6846C382.209 81.6846 381.849 82.5447 381.813 83.556C381.809 83.593 381.809 83.6333 381.809 83.6703H381.873C382.051 83.2738 382.508 82.921 383.163 82.921C384.074 82.921 384.752 83.6132 384.752 84.5439V84.5506C384.752 85.5182 384.033 86.2204 383.056 86.2204ZM381.954 84.5439C381.954 85.1822 382.434 85.6862 383.049 85.6862C383.657 85.6862 384.144 85.1923 384.144 84.564V84.5573C384.144 83.9122 383.687 83.4485 383.059 83.4485C382.431 83.4485 381.954 83.9088 381.954 84.5405V84.5439ZM386.162 82.8169C385.923 82.8169 385.725 82.6186 385.725 82.3801C385.725 82.1382 385.923 81.9433 386.162 81.9433C386.403 81.9433 386.598 82.1382 386.598 82.3801C386.598 82.6186 386.403 82.8169 386.162 82.8169ZM386.162 85.4174C385.923 85.4174 385.725 85.2192 385.725 84.9806C385.725 84.7387 385.923 84.5439 386.162 84.5439C386.403 84.5439 386.598 84.7387 386.598 84.9806C386.598 85.2192 386.403 85.4174 386.162 85.4174ZM388.868 86.1062V81.9299H388.814L387.581 82.8236V82.1852L388.871 81.2579H389.472V86.1062H388.868ZM392.424 86.2204C391.52 86.2204 390.875 85.6392 390.804 84.863L390.801 84.8261H391.382L391.385 84.853C391.443 85.3166 391.863 85.6862 392.43 85.6862C393.075 85.6862 393.519 85.2259 393.519 84.5707V84.564C393.519 83.9189 393.069 83.4586 392.44 83.4586C392.118 83.4586 391.842 83.556 391.634 83.7543C391.55 83.8349 391.473 83.929 391.412 84.0432H390.888L391.144 81.2579H393.842V81.7988H391.621L391.456 83.4385H391.51C391.725 83.1125 392.104 82.9345 392.545 82.9345C393.455 82.9345 394.11 83.6165 394.11 84.5539V84.5607C394.11 85.5384 393.408 86.2204 392.424 86.2204ZM397.013 86.1062V81.2579H398.84C399.751 81.2579 400.396 81.8862 400.396 82.8068V82.8135C400.396 83.7341 399.751 84.3759 398.84 84.3759H397.617V86.1062H397.013ZM398.686 81.7955H397.617V83.8383H398.686C399.378 83.8383 399.778 83.4586 399.778 82.8202V82.8135C399.778 82.1751 399.378 81.7955 398.686 81.7955ZM401.345 86.1062V81.2579H402.047L403.707 85.3032H403.761L405.42 81.2579H406.123V86.1062H405.558V82.4036H405.521L403.989 86.1062H403.478L401.946 82.4036H401.909V86.1062H401.345Z" fill="#666666"/>
<path d="M472.117 75.5062C470.843 75.5062 469.735 74.6006 469.735 72.4502V72.442C469.735 70.4322 470.641 69.2413 472.142 69.2413C473.238 69.2413 474.056 69.8905 474.247 70.8044L474.255 70.8499H473.209L473.192 70.8085C473.035 70.3909 472.667 70.1179 472.142 70.1179C471.195 70.1179 470.794 71.0442 470.748 72.1856C470.748 72.2311 470.744 72.2765 470.744 72.322H470.827C471.046 71.8506 471.567 71.433 472.386 71.433C473.531 71.433 474.333 72.2683 474.333 73.4013V73.4096C474.333 74.6212 473.411 75.5062 472.117 75.5062ZM470.93 73.422C470.93 74.1043 471.447 74.6378 472.109 74.6378C472.77 74.6378 473.291 74.1126 473.291 73.4468V73.4385C473.291 72.748 472.799 72.2517 472.121 72.2517C471.447 72.2517 470.93 72.7397 470.93 73.4137V73.422ZM475.578 75.3573L478.171 70.3288V70.2627H475.095V69.3901H479.246V70.2792L476.695 75.3573H475.578ZM479.093 76.9328L479.453 74.4475H480.516L479.796 76.9328H479.093ZM483.733 75.5062C482.513 75.5062 481.691 74.7618 481.612 73.7818L481.608 73.728H482.592L482.596 73.757C482.675 74.2449 483.126 74.6336 483.738 74.6336C484.436 74.6336 484.916 74.1415 484.916 73.4385V73.4303C484.916 72.7356 484.428 72.2476 483.746 72.2476C483.411 72.2476 483.121 72.3468 482.902 72.5453C482.795 72.6363 482.695 72.7521 482.625 72.8844H481.711L482.001 69.3901H485.582V70.2668H482.832L482.666 72.0822H482.737C482.985 71.6811 483.448 71.4412 484.01 71.4412C485.123 71.4412 485.929 72.2683 485.929 73.4096V73.4179C485.929 74.6584 485.024 75.5062 483.733 75.5062ZM489.08 75.5062C487.662 75.5062 486.81 74.3028 486.81 72.3758V72.3675C486.81 70.4405 487.662 69.2413 489.08 69.2413C490.499 69.2413 491.359 70.4405 491.359 72.3675V72.3758C491.359 74.3028 490.499 75.5062 489.08 75.5062ZM489.08 74.6419C489.841 74.6419 490.284 73.79 490.284 72.3758V72.3675C490.284 70.9533 489.841 70.1097 489.08 70.1097C488.32 70.1097 487.885 70.9533 487.885 72.3675V72.3758C487.885 73.79 488.32 74.6419 489.08 74.6419ZM494.275 73.2028V72.719H495.027C495.015 72.6074 495.011 72.4916 495.011 72.3758V72.3675C495.011 72.2559 495.015 72.1442 495.027 72.0367H494.275V71.5529H495.102C495.424 70.1634 496.607 69.477 498.104 69.477C498.406 69.477 498.782 69.5101 498.981 69.5721V70.4488C498.778 70.4033 498.431 70.3743 498.129 70.3743C497.186 70.3743 496.47 70.7589 496.193 71.5529H498.422V72.0367H496.082C496.069 72.1442 496.065 72.2559 496.065 72.3758V72.3799C496.065 72.4998 496.069 72.6115 496.082 72.719H498.422V73.2028H496.193C496.47 73.9968 497.19 74.3731 498.149 74.3731C498.435 74.3731 498.799 74.3524 498.993 74.3069V75.1919C498.799 75.2456 498.435 75.2705 498.12 75.2705C496.607 75.2705 495.428 74.5881 495.102 73.2028H494.275Z" fill="black"/>
<rect x="344.763" y="80.0605" width="8.21017" height="8.46898" rx="4.10509" fill="white"/>
<rect x="344.763" y="80.0605" width="8.21017" height="8.46898" rx="4.10509" stroke="white" stroke-width="2.11724"/>
<path d="M348.868 80.5898C350.851 80.5898 352.459 82.2486 352.459 84.2948C352.459 86.3411 350.851 87.9999 348.868 87.9999C346.884 87.9998 345.276 86.3411 345.276 84.2948C345.276 82.2486 346.884 80.5898 348.868 80.5898ZM348.593 84.578L347.761 83.747L347.036 84.495L348.593 86.0751L351.133 83.456L350.407 82.7069L348.593 84.578Z" fill="#00BF96"/>
<rect x="333.174" y="108.993" width="186.36" height="38.1104" rx="8.88774" fill="white"/>
<path opacity="0.25" d="M352.228 138.634C358.075 138.634 362.814 133.895 362.814 128.048C362.814 122.202 358.075 117.462 352.228 117.462C346.381 117.462 341.642 122.202 341.642 128.048C341.642 133.895 346.381 138.634 352.228 138.634Z" fill="#09152F"/>
<path d="M356.215 126.41V131.741H345.446V126.41H356.215ZM346.525 130.675H349.218V127.477H346.525V130.675ZM350.292 130.675H351.369V127.477H350.292V130.675ZM352.446 130.675H355.137V127.477H352.446V130.675ZM358.369 124.279V130.141H357.292V125.344H347.062V124.279H358.369Z" fill="white"/>
<path d="M372.02 125.462V119.495H374.402C375.614 119.495 376.432 120.293 376.432 121.488V121.496C376.432 122.687 375.614 123.489 374.402 123.489H373.087V125.462H372.02ZM374.141 120.367H373.087V122.629H374.141C374.906 122.629 375.353 122.216 375.353 121.5V121.492C375.353 120.777 374.906 120.367 374.141 120.367ZM378.401 125.536C377.541 125.536 376.916 125.007 376.916 124.184V124.176C376.916 123.37 377.532 122.898 378.632 122.832L379.794 122.762V122.373C379.794 121.922 379.501 121.674 378.947 121.674C378.475 121.674 378.169 121.844 378.066 122.141L378.062 122.158H377.09L377.094 122.121C377.193 121.36 377.921 120.855 378.996 120.855C380.158 120.855 380.812 121.418 380.812 122.373V125.462H379.794V124.842H379.724C379.476 125.28 378.996 125.536 378.401 125.536ZM377.934 124.135C377.934 124.519 378.26 124.747 378.715 124.747C379.335 124.747 379.794 124.341 379.794 123.804V123.44L378.777 123.506C378.202 123.543 377.934 123.754 377.934 124.126V124.135ZM381.879 125.462V120.942H382.908V121.637H382.979C383.132 121.153 383.545 120.868 384.141 120.868C384.298 120.868 384.459 120.888 384.558 120.917V121.84C384.393 121.806 384.223 121.782 384.046 121.782C383.359 121.782 382.908 122.191 382.908 122.836V125.462H381.879ZM387.11 125.483C386.072 125.483 385.646 125.135 385.646 124.263V121.74H384.943V120.942H385.646V119.834H386.692V120.942H387.648V121.74H386.692V124.019C386.692 124.47 386.87 124.66 387.3 124.66C387.445 124.66 387.524 124.656 387.648 124.643V125.437C387.499 125.466 387.308 125.483 387.11 125.483ZM389.033 120.185C388.694 120.185 388.417 119.917 388.417 119.578C388.417 119.243 388.694 118.97 389.033 118.97C389.368 118.97 389.645 119.243 389.645 119.578C389.645 119.917 389.368 120.185 389.033 120.185ZM388.516 125.462V120.942H389.546V125.462H388.516ZM391.874 125.536C391.014 125.536 390.39 125.007 390.39 124.184V124.176C390.39 123.37 391.006 122.898 392.106 122.832L393.268 122.762V122.373C393.268 121.922 392.974 121.674 392.42 121.674C391.949 121.674 391.643 121.844 391.539 122.141L391.535 122.158H390.563L390.567 122.121C390.667 121.36 391.394 120.855 392.47 120.855C393.632 120.855 394.285 121.418 394.285 122.373V125.462H393.268V124.842H393.197C392.949 125.28 392.47 125.536 391.874 125.536ZM391.407 124.135C391.407 124.519 391.734 124.747 392.188 124.747C392.809 124.747 393.268 124.341 393.268 123.804V123.44L392.25 123.506C391.676 123.543 391.407 123.754 391.407 124.126V124.135ZM395.393 125.462V119.193H396.423V125.462H395.393ZM399.645 125.462V120.942H400.674V121.637H400.745C400.898 121.153 401.311 120.868 401.907 120.868C402.064 120.868 402.225 120.888 402.324 120.917V121.84C402.159 121.806 401.989 121.782 401.812 121.782C401.125 121.782 400.674 122.191 400.674 122.836V125.462H399.645ZM404.818 125.553C403.474 125.553 402.66 124.651 402.66 123.212V123.208C402.66 121.786 403.482 120.855 404.768 120.855C406.055 120.855 406.849 121.757 406.849 123.121V123.461H403.689C403.702 124.271 404.14 124.742 404.839 124.742C405.397 124.742 405.715 124.461 405.815 124.254L405.827 124.226H406.807L406.795 124.263C406.65 124.846 406.046 125.553 404.818 125.553ZM404.781 121.662C404.206 121.662 403.776 122.05 403.697 122.77H405.844C405.773 122.03 405.356 121.662 404.781 121.662ZM408.04 125.462V121.74H407.299V120.942H408.04V120.496C408.04 119.594 408.495 119.152 409.504 119.152C409.723 119.152 409.909 119.164 410.074 119.193V119.912C409.996 119.9 409.867 119.892 409.723 119.892C409.239 119.892 409.053 120.123 409.053 120.553V120.942H410.033V121.74H409.069V125.462H408.04ZM412.353 125.553C411.336 125.553 410.815 124.941 410.815 123.866V120.942H411.844V123.63C411.844 124.329 412.105 124.685 412.725 124.685C413.391 124.685 413.746 124.254 413.746 123.576V120.942H414.776V125.462H413.746V124.776H413.676C413.465 125.259 413.006 125.553 412.353 125.553ZM415.864 125.462V120.942H416.894V121.633H416.964C417.179 121.149 417.613 120.855 418.266 120.855C419.275 120.855 419.825 121.463 419.825 122.538V125.462H418.796V122.778C418.796 122.075 418.51 121.72 417.886 121.72C417.274 121.72 416.894 122.15 416.894 122.828V125.462H415.864ZM422.501 125.536C421.368 125.536 420.648 124.639 420.648 123.208V123.2C420.648 121.761 421.356 120.868 422.501 120.868C423.121 120.868 423.638 121.174 423.874 121.662H423.944V119.193H424.978V125.462H423.944V124.755H423.874C423.626 125.247 423.138 125.536 422.501 125.536ZM422.824 124.668C423.527 124.668 423.961 124.114 423.961 123.208V123.2C423.961 122.294 423.522 121.736 422.824 121.736C422.125 121.736 421.695 122.29 421.695 123.2V123.208C421.695 124.118 422.121 124.668 422.824 124.668Z" fill="black"/>
<path d="M371.516 136.211L373.303 131.363H373.901L375.689 136.211H375.054L374.567 134.823H372.638L372.151 136.211H371.516ZM373.575 132.145L372.816 134.309H374.388L373.629 132.145H373.575ZM377.467 136.275C376.644 136.275 376.221 135.791 376.221 134.934V132.589H376.806V134.793C376.806 135.445 377.041 135.757 377.619 135.757C378.257 135.757 378.596 135.368 378.596 134.733V132.589H379.181V136.211H378.596V135.67H378.543C378.365 136.056 377.998 136.275 377.467 136.275ZM381.722 137.488C380.849 137.488 380.291 137.095 380.2 136.5L380.207 136.496H380.812L380.815 136.5C380.879 136.775 381.202 136.97 381.722 136.97C382.371 136.97 382.757 136.664 382.757 136.13V135.398H382.703C382.475 135.798 382.065 136.023 381.568 136.023C380.63 136.023 380.049 135.297 380.049 134.282V134.276C380.049 133.261 380.634 132.525 381.581 132.525C382.092 132.525 382.488 132.777 382.71 133.187H382.751V132.589H383.335V136.161C383.335 136.97 382.71 137.488 381.722 137.488ZM381.696 135.505C382.368 135.505 382.771 135.001 382.771 134.282V134.276C382.771 133.557 382.364 133.043 381.696 133.043C381.024 133.043 380.647 133.557 380.647 134.276V134.282C380.647 135.001 381.024 135.505 381.696 135.505ZM387.457 136.211V132.035H387.403L386.17 132.928V132.29L387.46 131.363H388.062V136.211H387.457ZM389.622 136.211L391.799 131.951V131.904H389.206V131.363H392.414V131.924L390.257 136.211H389.622ZM392.412 137.444L392.704 135.532H393.373L392.846 137.444H392.412ZM398.043 136.325C397.139 136.325 396.494 135.744 396.423 134.968L396.42 134.931H397.001L397.004 134.958C397.062 135.421 397.482 135.791 398.049 135.791C398.694 135.791 399.138 135.331 399.138 134.675V134.669C399.138 134.024 398.688 133.563 398.059 133.563C397.737 133.563 397.461 133.661 397.253 133.859C397.169 133.94 397.092 134.034 397.031 134.148H396.507L396.763 131.363H399.461V131.904H397.24L397.075 133.543H397.129C397.344 133.217 397.723 133.039 398.164 133.039C399.074 133.039 399.729 133.721 399.729 134.659V134.665C399.729 135.643 399.027 136.325 398.043 136.325ZM401.142 132.922C400.903 132.922 400.705 132.723 400.705 132.485C400.705 132.243 400.903 132.048 401.142 132.048C401.384 132.048 401.579 132.243 401.579 132.485C401.579 132.723 401.384 132.922 401.142 132.922ZM401.142 135.522C400.903 135.522 400.705 135.324 400.705 135.085C400.705 134.843 400.903 134.649 401.142 134.649C401.384 134.649 401.579 134.843 401.579 135.085C401.579 135.324 401.384 135.522 401.142 135.522ZM404.278 136.292C403.277 136.292 402.628 135.734 402.564 134.968L402.561 134.927H403.142L403.146 134.961C403.193 135.438 403.633 135.767 404.278 135.767C404.913 135.767 405.346 135.411 405.346 134.897V134.89C405.346 134.296 404.92 133.963 404.241 133.963H403.633V133.452H404.214C404.792 133.452 405.195 133.096 405.195 132.612V132.606C405.195 132.098 404.863 131.806 404.271 131.806C403.7 131.806 403.293 132.108 403.243 132.599L403.24 132.633H402.658L402.662 132.599C402.739 131.809 403.364 131.282 404.271 131.282C405.195 131.282 405.803 131.796 405.803 132.532V132.539C405.803 133.137 405.38 133.547 404.775 133.674V133.688C405.481 133.748 405.961 134.188 405.961 134.877V134.884C405.961 135.693 405.249 136.292 404.278 136.292ZM408.523 136.325C407.451 136.325 406.813 135.347 406.813 133.788V133.782C406.813 132.223 407.451 131.248 408.523 131.248C409.595 131.248 410.24 132.223 410.24 133.782V133.788C410.24 135.347 409.595 136.325 408.523 136.325ZM408.523 135.798C409.218 135.798 409.632 135.025 409.632 133.788V133.782C409.632 132.545 409.218 131.779 408.523 131.779C407.827 131.779 407.421 132.545 407.421 133.782V133.788C407.421 135.025 407.827 135.798 408.523 135.798ZM413.162 136.211V131.363H414.99C415.9 131.363 416.545 131.991 416.545 132.911V132.918C416.545 133.839 415.9 134.481 414.99 134.481H413.767V136.211H413.162ZM414.835 131.9H413.767V133.943H414.835C415.527 133.943 415.927 133.563 415.927 132.925V132.918C415.927 132.28 415.527 131.9 414.835 131.9ZM417.494 136.211V131.363H418.197L419.856 135.408H419.91L421.57 131.363H422.272V136.211H421.708V132.508H421.671L420.139 136.211H419.628L418.096 132.508H418.059V136.211H417.494Z" fill="#666666"/>
<path d="M485.015 125.462V120.545H484.945L483.461 121.596V120.591L485.02 119.495H486.082V125.462H485.015ZM487.832 125.462L490.424 120.434V120.367H487.348V119.495H491.5V120.384L488.948 125.462H487.832ZM491.347 127.038L491.707 124.552H492.769L492.05 127.038H491.347ZM495.987 125.611C494.767 125.611 493.944 124.867 493.865 123.886L493.861 123.833H494.845L494.849 123.862C494.928 124.35 495.379 124.738 495.991 124.738C496.69 124.738 497.169 124.246 497.169 123.543V123.535C497.169 122.84 496.681 122.352 495.999 122.352C495.664 122.352 495.375 122.452 495.155 122.65C495.048 122.741 494.949 122.857 494.878 122.989H493.965L494.254 119.495H497.835V120.371H495.085L494.92 122.187H494.99C495.238 121.786 495.701 121.546 496.264 121.546C497.376 121.546 498.182 122.373 498.182 123.514V123.523C498.182 124.763 497.277 125.611 495.987 125.611ZM501.334 125.611C499.915 125.611 499.063 124.407 499.063 122.48V122.472C499.063 120.545 499.915 119.346 501.334 119.346C502.752 119.346 503.612 120.545 503.612 122.472V122.48C503.612 124.407 502.752 125.611 501.334 125.611ZM501.334 124.747C502.095 124.747 502.537 123.895 502.537 122.48V122.472C502.537 121.058 502.095 120.214 501.334 120.214C500.573 120.214 500.139 121.058 500.139 122.472V122.48C500.139 123.895 500.573 124.747 501.334 124.747ZM506.528 123.308V122.824H507.281C507.268 122.712 507.264 122.596 507.264 122.48V122.472C507.264 122.361 507.268 122.249 507.281 122.141H506.528V121.658H507.355C507.678 120.268 508.86 119.582 510.357 119.582C510.659 119.582 511.035 119.615 511.234 119.677V120.553C511.031 120.508 510.684 120.479 510.382 120.479C509.439 120.479 508.724 120.864 508.447 121.658H510.676V122.141H508.335C508.323 122.249 508.318 122.361 508.318 122.48V122.485C508.318 122.605 508.323 122.716 508.335 122.824H510.676V123.308H508.447C508.724 124.101 509.443 124.478 510.403 124.478C510.688 124.478 511.052 124.457 511.246 124.412V125.297C511.052 125.35 510.688 125.375 510.374 125.375C508.86 125.375 507.682 124.693 507.355 123.308H506.528Z" fill="black"/>
<rect x="357.803" y="130.165" width="8.21017" height="8.46898" rx="4.10509" fill="white"/>
<rect x="357.803" y="130.165" width="8.21017" height="8.46898" rx="4.10509" stroke="white" stroke-width="2.11724"/>
<path d="M361.908 130.694C363.892 130.694 365.5 132.353 365.5 134.399C365.5 136.446 363.892 138.105 361.908 138.105C359.924 138.104 358.316 136.446 358.316 134.399C358.316 132.353 359.924 130.694 361.908 130.694ZM361.633 134.683L360.801 133.852L360.076 134.6L361.633 136.18L364.173 133.561L363.447 132.812L361.633 134.683Z" fill="#00BF96"/>
<path fill-rule="evenodd" clip-rule="evenodd" d="M361.987 139.928C364.911 139.928 367.281 137.467 367.281 134.43C367.281 131.393 364.911 128.931 361.987 128.931C359.063 128.931 356.692 131.393 356.692 134.43C356.692 137.467 359.063 139.928 361.987 139.928Z" fill="white"/>
<path fill-rule="evenodd" clip-rule="evenodd" d="M361.989 136.723C360.771 136.723 359.783 135.697 359.783 134.432C359.783 133.166 360.771 132.14 361.989 132.14V134.432H364.195C364.195 135.697 363.207 136.723 361.989 136.723M361.988 131.224C360.282 131.224 358.899 132.66 358.899 134.431C358.899 136.203 360.282 137.639 361.988 137.639C363.693 137.639 365.076 136.203 365.076 134.431C365.076 132.66 363.693 131.224 361.988 131.224" fill="#FF3333"/>
</g>
<defs>
<filter id="filter0_d_2647_20549" x="59.5414" y="98.6797" width="202.213" height="59.634" filterUnits="userSpaceOnUse" color-interpolation-filters="sRGB">
<feFlood flood-opacity="0" result="BackgroundImageFix"/>
<feColorMatrix in="SourceAlpha" type="matrix" values="0 0 0 0 0 0 0 0 0 0 0 0 0 0 0 0 0 0 127 0" result="hardAlpha"/>
<feOffset dy="3.79489"/>
<feGaussianBlur stdDeviation="4.06595"/>
<feColorMatrix type="matrix" values="0 0 0 0 0 0 0 0 0 0 0 0 0 0 0 0 0 0 0.2 0"/>
<feBlend mode="normal" in2="BackgroundImageFix" result="effect1_dropShadow_2647_20549"/>
<feBlend mode="normal" in="SourceGraphic" in2="effect1_dropShadow_2647_20549" result="shape"/>
</filter>
<filter id="filter1_d_2647_20549" x="249.829" y="98.6799" width="202.213" height="59.634" filterUnits="userSpaceOnUse" color-interpolation-filters="sRGB">
<feFlood flood-opacity="0" result="BackgroundImageFix"/>
<feColorMatrix in="SourceAlpha" type="matrix" values="0 0 0 0 0 0 0 0 0 0 0 0 0 0 0 0 0 0 127 0" result="hardAlpha"/>
<feOffset dy="3.79489"/>
<feGaussianBlur stdDeviation="4.06595"/>
<feColorMatrix type="matrix" values="0 0 0 0 0 0 0 0 0 0 0 0 0 0 0 0 0 0 0.2 0"/>
<feBlend mode="normal" in2="BackgroundImageFix" result="effect1_dropShadow_2647_20549"/>
<feBlend mode="normal" in="SourceGraphic" in2="effect1_dropShadow_2647_20549" result="shape"/>
</filter>
<filter id="filter2_d_2647_20549" x="368.785" y="170.6" width="116.051" height="116.051" filterUnits="userSpaceOnUse" color-interpolation-filters="sRGB">
<feFlood flood-opacity="0" result="BackgroundImageFix"/>
<feColorMatrix in="SourceAlpha" type="matrix" values="0 0 0 0 0 0 0 0 0 0 0 0 0 0 0 0 0 0 127 0" result="hardAlpha"/>
<feOffset dy="2.88923"/>
<feGaussianBlur stdDeviation="8.66769"/>
<feComposite in2="hardAlpha" operator="out"/>
<feColorMatrix type="matrix" values="0 0 0 0 0.0406883 0 0 0 0 0.0406883 0 0 0 0 0.236629 0 0 0 0.3 0"/>
<feBlend mode="normal" in2="BackgroundImageFix" result="effect1_dropShadow_2647_20549"/>
<feBlend mode="normal" in="SourceGraphic" in2="effect1_dropShadow_2647_20549" result="shape"/>
</filter>
<linearGradient id="paint0_linear_2647_20549" x1="132.867" y1="207.646" x2="132.867" y2="375.255" gradientUnits="userSpaceOnUse">
<stop stop-color="#00BF96" stop-opacity="0.3"/>
<stop offset="1" stop-color="#00BF96" stop-opacity="0"/>
</linearGradient>
<linearGradient id="paint1_linear_2647_20549" x1="390.054" y1="302.725" x2="390.054" y2="335.708" gradientUnits="userSpaceOnUse">
<stop stop-color="white" stop-opacity="0.45"/>
<stop offset="1" stop-color="white" stop-opacity="0"/>
</linearGradient>
<linearGradient id="paint2_linear_2647_20549" x1="426.81" y1="185.046" x2="426.81" y2="266.426" gradientUnits="userSpaceOnUse">
<stop stop-color="#4248FF"/>
<stop offset="1" stop-color="#0070F0"/>
</linearGradient>
<clipPath id="clip0_2647_20549">
<rect width="577" height="325" fill="white"/>
</clipPath>
<clipPath id="clip1_2647_20549">
<rect x="59" y="30.9141" width="203.355" height="420.149" rx="19.4927" fill="white"/>
</clipPath>
</defs>
</svg>
