<svg width="270" height="107" fill="none" xmlns="http://www.w3.org/2000/svg"><g clip-path="url(#a)" fill="#fff"><path d="M118.821 40.31c-6.178 0-12.621 4.51-12.621 4.51v-2.898c0-.636-.253-.89-.889-.89h-7.886c-.636 0-1.018.382-1.018.89v61.811c0 .638.255 1.019.89 1.019h8.013c.508 0 .89-.381.89-1.019v-52.91s3.719-2.356 8.236-2.356c4.301 0 7.696 2.135 7.696 6.511v48.752c0 .638.381 1.02 1.018 1.02h7.885c.636 0 .89-.511.89-1.02V52.208c-.001-7.76-4.772-11.898-13.104-11.898Zm61.343-31.004h-7.887c-.636 0-1.017.38-1.017.89v31.182c-3.027-1.16-5.784-1.774-8.011-1.774-12.808 0-21.6 12.243-21.6 35.787 0 20.17 8.553 30.986 19.715 30.986 4.704 0 8.588-2.696 11.432-5.224l1.721 2.919c.291.504.528.677 1.112.677l4.536.005c.509 0 .891-.382.891-1.02V10.196c-.002-.636-.257-.89-.892-.89Zm-28.087 64.002c0-12.974 3.798-25.819 11.551-25.819 2.626 0 5.148.864 7.634 2.838v45.704c-1.943 1.057-4.387 2.03-7.028 2.03-8.431 0-12.157-10-12.157-24.753Zm58.294-33.577c-13.133 0-19.615 17.18-19.615 35.875 0 19.57 9.245 30.537 21.131 30.537 5.224 0 10.426-2.056 13.836-3.951.523-.291.617-.7.492-1.206l-.998-4.134c-.124-.506-.379-.757-1.009-.757-.277 0-4.587 1.26-8.779 1.26-9.727 0-14.187-8.647-14.187-20.13v-2.792s4.834.668 7.739.668h18.351v-5.303c0-19.581-6.857-30.067-16.961-30.067Zm-.632 27.412c-2.904 0-8.191.719-8.191.719s.071-2.108.325-4.128c1.137-10.738 3.698-16.17 8.119-16.17 3.843 0 6.478 5.558 7.11 15.284.125 2.022.125 4.295.125 4.295h-7.488ZM81.43 47.761c-2.916-5.747-8.11-8.258-14.06-8.258-3.822 0-9.787 1.462-13.771 3.253-.78.35-1.272.659-1.272 1.272 0 .364.182.783.381 1.144l2.684 5.748c.277.648.72.797 1.087.797.398 0 .72-.188 1.076-.416 3.887-2.483 6.733-3.848 8.986-3.848 2.981 0 5.006 1.977 6.254 4.951 1.164 2.772 1.613 6.6 1.613 11.025 0 .564.003 1.3.003 1.3-2.448-1.532-6.691-2.377-8.81-2.377-11.393 0-17.537 10.826-17.537 22.403 0 12.474 7.181 21.621 15.81 21.621 4.807 0 9.158-2.82 12.072-6.377 0 0 1.552 3.699 1.754 4.143.204.442.42.607 1.003.607l4.612.004c.508 0 .89-.382.89-1.02V67.877c-.003-8.811-.448-15.532-2.775-20.116Zm-7.02 46.975c-2.26 2.182-4.965 3.325-7.4 3.325-2.434 0-4.316-1.125-5.825-3.209-1.836-2.533-2.693-6.435-2.693-10.76 0-6.838 2.525-13.855 7.876-13.855 2.648 0 5.558.862 8.041 2.837l.001 21.662ZM268.98 41.023h-7.03c-.785 0-1.186.411-1.388.945a4148.34 4148.34 0 0 0-4.634 12.233c-.869 2.316-3.209 8.946-3.209 8.946l-.272-.002c-.01-.024-1.721-4.823-2.649-7.227-.75-1.95-4.667-12.264-5.162-13.535-.265-.683-.561-1.36-1.567-1.36h-7.694c-.847 0-1.325.928-1.053 1.504.276.578 12.536 28.505 12.536 28.505s-13.167 31.272-13.553 31.974c-.384.702.098 1.741 1.035 1.741h6.744c1.147 0 1.6-.601 1.944-1.57.97-2.715 2.413-6.491 4.457-12.327 1.353-3.867 3.495-10.655 3.495-10.655h.236s2.344 6.918 3.218 9.18c2.203 5.72 5.02 13.19 5.32 13.979.311.824.747 1.394 1.535 1.394h7.648c.757 0 1.107-.864.75-1.616-.851-1.793-8.114-19.44-13.157-31.042 0 0 13.088-28.883 13.343-29.597.261-.716.185-1.47-.893-1.47ZM56.028.005h-8.866c-.785 0-1.275.385-1.389.944-.112.562-13.294 40.756-14.253 44.104-.68 2.373-2.894 10.741-3.426 12.75L23.51 45.288c-1.113-3.445-11.792-33.275-12.104-34.467-.173-.655-.474-1.47-1.623-1.47H1.13c-.847 0-1.325.93-1.052 1.506.218.46 15.852 42.052 22.168 57.942v34.935c0 .638.255 1.019.89 1.019h8.198c.509 0 .89-.381.89-1.019v-34.66C37.487 54.366 56.72 2.06 56.928 1.473c.255-.716.18-1.47-.9-1.47Z"/></g><defs><clipPath id="a"><path fill="#fff" d="M0 0h270v106.38H0z"/></clipPath></defs></svg>